<svg xmlns="http://www.w3.org/2000/svg" xmlns:xlink="http://www.w3.org/1999/xlink" width="295" height="211.252" viewBox="0 0 295 211.252">
  <defs>
    <clipPath id="clip-path">
      <path id="Trazado_776969" data-name="Trazado 776969" d="M187.543,292.416a63.322,63.322,0,0,0-5.5-28.414c-6.6-14.2-8.1-15.24-8.1-19.394s4.429-9.014,5.164-18.37a97.987,97.987,0,0,0,.368-13.863s15.774,23.559,26.782,24.948,17.611-8.314,13.575-21.482-21.642-23.907-28.613-32.568-22.745-8.661-30.818-8.661-12.1-2.771-13.575-7.967-1.47-15.592-1.47-15.592-9.538,5.543-25.679-.694c0,0,1.47,19.058-.368,21.829s-4.4,5.543-15.406,5.543-20.178,2.077-25.311,6.931-26.414,24.254-31.915,31.879-2.567,15.94,4.037,19.058,13.207.347,17.979-3.813S88.5,214.466,88.5,214.466s0,7.967,4.037,19.405,7.339,10.05,4.4,18.364-8.8,10.744-10.64,21.482a96.5,96.5,0,0,0-1.47,18.711" transform="translate(-43.792 -150.36)" fill="#c6ff00" stroke="#263238" stroke-linecap="round" stroke-linejoin="round" stroke-width="1"/>
    </clipPath>
    <clipPath id="clip-path-2">
      <path id="Trazado_776976" data-name="Trazado 776976" d="M172.585,200.93c18.3,3.338,25.36-13.238,27.823-26.481-6.1-.631-9.311-3.309-10.579-7.822-1.47-5.2-1.47-15.592-1.47-15.592s-9.538,5.543-25.679-.694c0,0,1.47,19.058-.368,21.829-1.28,1.932-2.916,3.859-7.51,4.854-.165,5.919,1.1,20.863,17.783,23.9Z" transform="translate(-154.79 -150.34)" fill="#f5b78d" stroke="#263238" stroke-linecap="round" stroke-linejoin="round" stroke-width="1"/>
    </clipPath>
    <clipPath id="clip-path-3">
      <path id="Trazado_776981" data-name="Trazado 776981" d="M151.63,96.735s.619,15.5,12.7,23.1,21.054,3.217,26.01-3.217,8.049-12.867,8.049-22.229,1.237-13.452-2.169-19.3-15.173-8.771-15.173-8.771A179.375,179.375,0,0,1,165.254,82.7,129.781,129.781,0,0,0,151.63,96.735Z" transform="translate(-151.63 -66.32)" fill="#b2b2b2" stroke="#263238" stroke-linecap="round" stroke-linejoin="round" stroke-width="1"/>
    </clipPath>
    <clipPath id="clip-path-4">
      <path id="Trazado_777019" data-name="Trazado 777019" d="M44.314,264.73s-6.6,6.931-6.6,14.2,4.4,13.863,16.509,24.254S77.7,321.2,82.464,323.628,92,322.934,92,322.934s7.89,7.452,8.8,5.716-2.75-4.333-3.486-5.369a14.91,14.91,0,0,0-2.2-2.251s3.853.521,5.317,1.73,3.853,3.292,4.95,3.119,1.1-1.041-.551-3.119a19.185,19.185,0,0,0-4.772-4.16c-1.1-.694-4.772-2.6-4.772-2.6s5.317-.347,7.155.694,6.787,4.16,7.155,2.771.368-2.251-1.47-3.813a19.948,19.948,0,0,0-7.706-3.813,24.214,24.214,0,0,1-4.4-1.215,31.834,31.834,0,0,1,5.685-1.389c1.464,0,7.339,2.771,8.986,2.424s.735-1.73-.551-2.6a32.3,32.3,0,0,0-9.354-3.118c-2.383-.174-15.774,4.16-17.428,4.16s-5.868-5.543-10.273-12.995-6.052-19.058-15.406-23.044" transform="translate(-37.71 -264.73)" fill="#c6ff00" stroke="#263238" stroke-linecap="round" stroke-linejoin="round" stroke-width="1"/>
    </clipPath>
    <clipPath id="clip-path-5">
      <path id="Trazado_777070" data-name="Trazado 777070" d="M282.17,201.849c-1.531-3.3-.221-10.536,1.311-20.863s3.063-20.863,3.063-26.441.98-13.324-.943-15.8-8.925-9.257-9.446-12.393,4.2-7.932,4.2-7.932,1.4-2.476,2.622-1.157.7,2.974,0,5.288-1.4,4.131-1.4,4.131,6.126,1.817,7.7.827,1.433-6.648,1.323-9.413c-.227-5.4-2.518-3.1-4.1-.538-.76,1.227-5.25.5-2.622-2.644s5.06-5.913,7.51-3.431,4.2,7.273,4.2,7.273,1.752-7.874,3.345-12.5,4.447-6.463,5.47-6.139.913,1.938-.116,4.2-3.308,8.5-3.878,10.553-.686,4.414.453,4.2,5.133-6.787,6.273-9.587,2.849-5.386,4.79-6.567,3.535.324,2.738,2.262a96.364,96.364,0,0,1-5.36,10.229,42.993,42.993,0,0,0-3.191,6.677,78.516,78.516,0,0,1,5.93-5.386c2.738-2.152,5.7-2.586,6.616-1.828s.116.862-2.169,2.586-5.7,3.766-8.435,7.967a38.168,38.168,0,0,0-4.9,9.905,32.909,32.909,0,0,1-3.308,6.567s2.138,16.4,5.838,25.417,10.261,22.211,8.264,31.636-5.844,14.268-11.259,15.749a10.923,10.923,0,0,1-9.262-1.614" transform="translate(-276.115 -100.077)" fill="#c6ff00" stroke="#263238" stroke-linecap="round" stroke-linejoin="round" stroke-width="1"/>
    </clipPath>
  </defs>
  <g id="_1" data-name="1" transform="translate(-180 -359.14)">
    <path id="Trazado_776642" data-name="Trazado 776642" d="M423.591,214.421c0-70.056-60.132-126.851-134.305-126.851S154.98,144.364,154.98,214.421a121.9,121.9,0,0,0,28.389,78H395.2a121.925,121.925,0,0,0,28.389-78Z" transform="translate(39.696 277.451)" fill="#eef3ff"/>
    <g id="Grupo_1104717" data-name="Grupo 1104717" transform="translate(180 359.646)">
      <rect id="Rectángulo_356776" data-name="Rectángulo 356776" width="295" height="171" rx="11" transform="translate(0 39)" fill="#d5e3ff"/>
      <g id="_5832605" data-name="5832605" transform="translate(9.072 0)">
        <g id="Plants" transform="translate(203.393 66.065)">
          <g id="Grupo_1073822" data-name="Grupo 1073822">
            <g id="Grupo_1073821" data-name="Grupo 1073821">
              <path id="Trazado_776734" data-name="Trazado 776734" d="M377.685,249.455c2.12-11.508,22.249-33.522,16.423-47.032s-20.129,29.519-25.428,30.022-.527-19.515,6.885-38.527,13.244-39.03,0-46.534-12.717,52.037-15.89,50.035,2.12-27.019-1.587-42.531-12.184-3-12.184,15.008,5.826,28.02,1.587,29.519-17.244-4.108-16.95,15.511,16.423,43.034,10.6,40.031-16.423-14.511-14.3,4c1.5,13.087,12.258,25.671,18.438,31.926H373.6c4.319-4.195,12.711-13.035,18.4-23.415,7.945-14.511-16.423-6.5-14.3-18.011Z" transform="translate(-326.559 -146.729)" fill="#a7f7dd"/>
              <path id="Trazado_776735" data-name="Trazado 776735" d="M346.948,301.8c-5.244-7.1-7.694-15.778-10.144-23.878-1.225-5.207-1.225-10.993,3.063-14.464,4.288-2.893,6.738,2.314,9.189,4.629,1.838-1.157.613-2.893.613-4.05a211.434,211.434,0,0,1-1.838-27.771c0-5.786,2.45-10.414,4.9-15.621,1.225-1.736,2.45-3.471,4.288-4.05s3.675,0,4.288,1.736c1.225,4.05,1.225,8.1,1.838,12.15,1.225-1.157.613-2.893.613-4.05,2.45-16.779.613-32.979,6.126-49.178.613-1.157,2.45-2.314,3.675-1.736,4.288.579,4.288,5.786,4.288,9.257,2.45,16.779-3.063,32.979-4.9,49.757,0,1.157-.613,2.314.613,3.471.613-4.05,3.063-8.1,4.288-12.15a10.39,10.39,0,0,1,3.675-5.207c1.225-.579,2.45,0,3.675,1.157a14.156,14.156,0,0,1,2.45,10.993c-1.838,9.836-5.513,17.936-9.8,26.614l-1.838,5.207c-.613,3.471-3.063,7.521-.613,10.414,4.288-.579,5.513-5.207,9.189-7.521s4.9.579,5.513,2.893c2.45,11.571-1.838,21.986-8.013,31.376" transform="translate(-330.255 -158.797)" fill="none" stroke="#263238" stroke-linecap="round" stroke-linejoin="round" stroke-width="1"/>
            </g>
            <path id="Trazado_776736" data-name="Trazado 776736" d="M381.641,352.411s-1.433-27.031,2.144-51.7" transform="translate(-347.789 -211.621)" fill="none" stroke="#263238" stroke-linecap="round" stroke-linejoin="round" stroke-width="1"/>
            <path id="Trazado_776737" data-name="Trazado 776737" d="M362.55,360.29l11.8,12.162L384.731,364" transform="translate(-340.503 -236.73)" fill="none" stroke="#263238" stroke-linecap="round" stroke-linejoin="round" stroke-width="1"/>
            <path id="Trazado_776738" data-name="Trazado 776738" d="M376.56,307.72l3.222,15.546,9.3-15.546" transform="translate(-345.931 -214.575)" fill="none" stroke="#263238" stroke-linecap="round" stroke-linejoin="round" stroke-width="1"/>
            <line id="Línea_263" data-name="Línea 263" y1="14.534" x2="2.144" transform="translate(36.357 70.505)" fill="none" stroke="#263238" stroke-linecap="round" stroke-linejoin="round" stroke-width="1"/>
          </g>
        </g>
        <g id="Plants-2" data-name="Plants" transform="translate(0 66.065)">
          <g id="Grupo_1073822-2" data-name="Grupo 1073822" transform="translate(0 0)">
            <g id="Grupo_1073821-2" data-name="Grupo 1073821">
              <path id="Trazado_776734-2" data-name="Trazado 776734" d="M344.036,249.455c-2.12-11.508-22.249-33.522-16.423-47.032s20.129,29.519,25.428,30.022.527-19.515-6.885-38.527-13.244-39.03,0-46.535,12.717,52.037,15.89,50.035-2.12-27.019,1.587-42.531,12.184-3,12.184,15.008-5.826,28.02-1.586,29.519,17.244-4.108,16.95,15.512-16.423,43.034-10.6,40.031,16.423-14.511,14.3,4c-1.5,13.087-12.258,25.671-18.438,31.926H348.122c-4.319-4.195-12.711-13.035-18.4-23.415-7.945-14.511,16.423-6.5,14.3-18.011Z" transform="translate(-326.559 -146.729)" fill="#a7f7dd"/>
              <path id="Trazado_776735-2" data-name="Trazado 776735" d="M379.95,301.8c5.244-7.1,7.694-15.778,10.144-23.878,1.225-5.207,1.225-10.993-3.063-14.464-4.288-2.893-6.738,2.314-9.189,4.629-1.838-1.157-.613-2.893-.613-4.05a211.435,211.435,0,0,0,1.838-27.771c0-5.786-2.45-10.414-4.9-15.621-1.225-1.736-2.45-3.471-4.288-4.05s-3.675,0-4.288,1.736c-1.225,4.05-1.225,8.1-1.838,12.15-1.225-1.157-.613-2.893-.613-4.05-2.45-16.779-.613-32.979-6.126-49.179-.613-1.157-2.45-2.314-3.675-1.736-4.288.579-4.288,5.786-4.288,9.257-2.45,16.779,3.063,32.979,4.9,49.757,0,1.157.613,2.314-.613,3.471-.613-4.05-3.063-8.1-4.288-12.15a10.39,10.39,0,0,0-3.675-5.207c-1.225-.579-2.45,0-3.675,1.157a14.156,14.156,0,0,0-2.45,10.993c1.838,9.836,5.513,17.936,9.8,26.614l1.838,5.207c.612,3.471,3.063,7.521.612,10.414-4.288-.579-5.513-5.207-9.189-7.521s-4.9.579-5.513,2.893c-2.45,11.571,1.838,21.986,8.013,31.376" transform="translate(-328.04 -158.797)" fill="none" stroke="#263238" stroke-linecap="round" stroke-linejoin="round" stroke-width="1"/>
            </g>
            <path id="Trazado_776736-2" data-name="Trazado 776736" d="M383.5,352.411s1.433-27.031-2.144-51.7" transform="translate(-348.75 -211.621)" fill="none" stroke="#263238" stroke-linecap="round" stroke-linejoin="round" stroke-width="1"/>
            <path id="Trazado_776737-2" data-name="Trazado 776737" d="M384.731,360.29l-11.8,12.162L362.55,364" transform="translate(-338.176 -236.73)" fill="none" stroke="#263238" stroke-linecap="round" stroke-linejoin="round" stroke-width="1"/>
            <path id="Trazado_776738-2" data-name="Trazado 776738" d="M389.081,307.72l-3.222,15.546-9.3-15.546" transform="translate(-351.107 -214.575)" fill="none" stroke="#263238" stroke-linecap="round" stroke-linejoin="round" stroke-width="1"/>
            <line id="Línea_263-2" data-name="Línea 263" x1="2.144" y1="14.534" transform="translate(30.102 70.505)" fill="none" stroke="#263238" stroke-linecap="round" stroke-linejoin="round" stroke-width="1"/>
          </g>
        </g>
        <g id="Window" transform="translate(57.323 20.6)">
          <g id="Grupo_1073823" data-name="Grupo 1073823" transform="translate(0)">
            <rect id="Rectángulo_356792" data-name="Rectángulo 356792" width="38.58" height="26.487" transform="translate(0 157.685)" fill="none" stroke="#263238" stroke-linecap="round" stroke-linejoin="round" stroke-width="1"/>
            <rect id="Rectángulo_356793" data-name="Rectángulo 356793" width="38.58" height="45.551" transform="translate(48.898 18.372)" fill="none" stroke="#263238" stroke-linecap="round" stroke-linejoin="round" stroke-width="1"/>
            <rect id="Rectángulo_356794" data-name="Rectángulo 356794" width="38.58" height="45.551" transform="translate(0.676 47.797)" fill="none" stroke="#263238" stroke-linecap="round" stroke-linejoin="round" stroke-width="1"/>
            <rect id="Rectángulo_356795" data-name="Rectángulo 356795" width="38.58" height="45.551" transform="translate(48.898 38.998)" fill="none" stroke="#263238" stroke-linecap="round" stroke-linejoin="round" stroke-width="1"/>
            <rect id="Rectángulo_356796" data-name="Rectángulo 356796" width="38.58" height="45.551" transform="translate(0.676 101.87)" fill="none" stroke="#263238" stroke-linecap="round" stroke-linejoin="round" stroke-width="1"/>
            <rect id="Rectángulo_356797" data-name="Rectángulo 356797" width="38.58" height="45.551" transform="translate(48.898 59.624)" fill="none" stroke="#263238" stroke-linecap="round" stroke-linejoin="round" stroke-width="1"/>
            <path id="Trazado_776739" data-name="Trazado 776739" d="M90.516,7.34h0C66.785,7.34,47.55,25.507,47.55,47.921h85.932c0-22.414-19.235-40.581-42.966-40.581Z" transform="translate(-45.998 -7.34)" fill="none" stroke="#263238" stroke-linecap="round" stroke-linejoin="round" stroke-width="1"/>
          </g>
        </g>
        <g id="Character" transform="translate(52.847 0)">
          <g id="Grupo_1073844" data-name="Grupo 1073844">
            <g id="Grupo_1073824" data-name="Grupo 1073824" transform="translate(38.019)">
              <path id="Trazado_776740" data-name="Trazado 776740" d="M166.316,39.725s0-8.661-15.774-6.931-22.377,14.9-27.149,17.67-13.575,5.2-13.942,9.355,3.669,5.89-.368,9.008-10.273,5.89-8.8,10.05,5.5,8.314,3.669,11.085-6.971,5.543-2.2,8.661,6.971,3.813,6.971,7.967-1.832,6.931,2.567,8.314,6.971-1.389,9.538,3.813,5.133,6.584,9.538,5.543,10.64-2.771,12.839-1.389,9.17,5.2,12.1,3.118,5.5-5.2,9.905-3.466,8.074,4.16,9.905,1.041,0-3.813,6.971-5.2,9.538-1.041,9.538-6.584-.368-6.931,2.934-9.355,6.236-1.389,5.133-7.278-3.3-7.278-2.2-13.168-1.832-7.967-4.037-9.7-4.772-4.848-4.037-7.967,6.236-3.466.735-9.008-8.074-3.813-9.17-7.967-4.772-13.168-14.677-7.626Z" transform="translate(-99.775 -32.565)" fill="#263238" stroke="#263238" stroke-linecap="round" stroke-linejoin="round" stroke-width="1"/>
              <path id="Trazado_776741" data-name="Trazado 776741" d="M158.97,62.98c-2.254,3.379-4.006,7.192-7.639,10.414-5.256,4.652-18.72,8.684-19.376,13.029S133.6,93.245,129,96.971s-11.823,4.652-11.823,8.372,1.972,4.964.986,7.753" transform="translate(-106.518 -45.383)" fill="none" stroke="#616161" stroke-miterlimit="10" stroke-width="1"/>
              <path id="Trazado_776742" data-name="Trazado 776742" d="M196.753,54.475s-1.642-4.033-6.242,0c-.355.312-.692.636-1.011.966" transform="translate(-134.537 -41.043)" fill="none" stroke="#616161" stroke-miterlimit="10" stroke-width="1"/>
              <path id="Trazado_776743" data-name="Trazado 776743" d="M128.737,86.42c-4.043.926-7.228,1.591-7.565,4.293-.655,5.271.331,8.684-3.614,10.235s-9.195,4.033-7.553,7.134,1.972,4.033,1.642,5.271" transform="translate(-103.619 -55.261)" fill="none" stroke="#616161" stroke-miterlimit="10" stroke-width="1"/>
              <path id="Trazado_776744" data-name="Trazado 776744" d="M180.693,45.251s-9.195-5.583-14.12-.619S163.946,55.8,156.393,62.62a19.437,19.437,0,0,1-6.653,3.819" transform="translate(-119.133 -36.784)" fill="none" stroke="#616161" stroke-miterlimit="10" stroke-width="1"/>
              <path id="Trazado_776745" data-name="Trazado 776745" d="M252.42,123.22a5.853,5.853,0,0,0,2.211,1.921" transform="translate(-158.914 -70.77)" fill="none" stroke="#616161" stroke-miterlimit="10" stroke-width="1"/>
              <path id="Trazado_776746" data-name="Trazado 776746" d="M210.99,60.086s8.208-2.482,10.181,1.863,2.953,12.1,6.567,13.336,5.256,3.1,5.256,9.928a20.741,20.741,0,0,0,1.029,6.486" transform="translate(-142.863 -43.866)" fill="none" stroke="#616161" stroke-miterlimit="10" stroke-width="1"/>
              <path id="Trazado_776747" data-name="Trazado 776747" d="M124.14,142.026c2.628-4.033,6.242-2.482,6.567-6.821s-2.3-5.583.331-8.372a17.6,17.6,0,0,1,6.9-4.033" transform="translate(-109.215 -70.593)" fill="none" stroke="#616161" stroke-miterlimit="10" stroke-width="1"/>
              <path id="Trazado_776748" data-name="Trazado 776748" d="M128.064,168.629a14.77,14.77,0,0,1-3.124-3.309" transform="translate(-109.525 -88.512)" fill="none" stroke="#616161" stroke-miterlimit="10" stroke-width="1"/>
            </g>
            <g id="Grupo_1073829" data-name="Grupo 1073829" transform="translate(3.726 68.153)">
              <g id="Grupo_1073827" data-name="Grupo 1073827">
                <path id="Trazado_776749" data-name="Trazado 776749" d="M187.543,292.416a63.322,63.322,0,0,0-5.5-28.414c-6.6-14.2-8.1-15.24-8.1-19.394s4.429-9.014,5.164-18.37a97.987,97.987,0,0,0,.368-13.863s15.774,23.559,26.782,24.948,17.611-8.314,13.575-21.482-21.642-23.907-28.613-32.568-22.745-8.661-30.818-8.661-12.1-2.771-13.575-7.967-1.47-15.592-1.47-15.592-9.538,5.543-25.679-.694c0,0,1.47,19.058-.368,21.829s-4.4,5.543-15.406,5.543-20.178,2.077-25.311,6.931-26.414,24.254-31.915,31.879-2.567,15.94,4.037,19.058,13.207.347,17.979-3.813S88.5,214.466,88.5,214.466s0,7.967,4.037,19.405,7.339,10.05,4.4,18.364-8.8,10.744-10.64,21.482a96.5,96.5,0,0,0-1.47,18.711" transform="translate(-43.792 -150.36)" fill="#5b92fe"/>
                <g id="Grupo_1073826" data-name="Grupo 1073826" clip-path="url(#clip-path)">
                  <g id="Grupo_1073825" data-name="Grupo 1073825" transform="translate(0.63 0.544)" opacity="0.2">
                    <path id="Trazado_776750" data-name="Trazado 776750" d="M238.8,210.98c-.251,0-1.17.6,0,2.262C239.973,211.57,239.054,210.98,238.8,210.98Z" transform="translate(-119.75 -176.451)"/>
                    <path id="Trazado_776751" data-name="Trazado 776751" d="M286.8,210.98c-.251,0-1.17.6,0,2.262C287.973,211.57,287.054,210.98,286.8,210.98Z" transform="translate(-138.346 -176.451)"/>
                    <path id="Trazado_776752" data-name="Trazado 776752" d="M286.8,234.98c-.251,0-1.17.6,0,2.262C287.973,235.57,287.054,234.98,286.8,234.98Z" transform="translate(-138.346 -186.565)"/>
                    <path id="Trazado_776753" data-name="Trazado 776753" d="M238.8,234.98c-.251,0-1.17.6,0,2.262C239.973,235.57,239.054,234.98,238.8,234.98Z" transform="translate(-119.75 -186.565)"/>
                    <path id="Trazado_776754" data-name="Trazado 776754" d="M262.8,222.98c-.251,0-1.17.6,0,2.262C263.973,223.57,263.054,222.98,262.8,222.98Z" transform="translate(-129.048 -181.508)"/>
                    <path id="Trazado_776755" data-name="Trazado 776755" d="M262.8,198.98c-.251,0-1.17.6,0,2.262C263.973,199.57,263.054,198.98,262.8,198.98Z" transform="translate(-129.048 -171.394)"/>
                    <path id="Trazado_776756" data-name="Trazado 776756" d="M240.21,214.5c2.12.116,2.2-.931,2.07-1.14S241.147,212.707,240.21,214.5Z" transform="translate(-120.52 -177.368)"/>
                    <path id="Trazado_776757" data-name="Trazado 776757" d="M290.029,214.217l-.815-.787a2.8,2.8,0,0,0-1,1.186A2.53,2.53,0,0,0,290.029,214.217Z" transform="translate(-139.116 -177.483)"/>
                    <path id="Trazado_776758" data-name="Trazado 776758" d="M264.21,226.5c2.119.116,2.2-.931,2.07-1.14S265.147,224.707,264.21,226.5Z" transform="translate(-129.818 -182.425)"/>
                    <path id="Trazado_776759" data-name="Trazado 776759" d="M264.21,202.5c2.119.116,2.2-.932,2.07-1.14S265.147,200.707,264.21,202.5Z" transform="translate(-129.818 -172.31)"/>
                    <path id="Trazado_776760" data-name="Trazado 776760" d="M282.726,213.359c-.129.208-.049,1.256,2.07,1.14C283.859,212.7,282.854,213.151,282.726,213.359Z" transform="translate(-136.976 -177.366)"/>
                    <path id="Trazado_776761" data-name="Trazado 776761" d="M282.725,237.362a.686.686,0,0,0,.319.8h0a2.651,2.651,0,0,0,1.752.341c-.067-.127-.135-.237-.2-.341-.876-1.389-1.752-.989-1.875-.8Z" transform="translate(-136.976 -187.484)"/>
                    <path id="Trazado_776762" data-name="Trazado 776762" d="M258.726,225.359c-.129.208-.049,1.255,2.071,1.14C259.859,224.7,258.854,225.151,258.726,225.359Z" transform="translate(-127.678 -182.424)"/>
                    <path id="Trazado_776763" data-name="Trazado 776763" d="M258.726,201.359c-.129.208-.049,1.255,2.071,1.14C259.859,200.7,258.854,201.151,258.726,201.359Z" transform="translate(-127.678 -172.309)"/>
                    <path id="Trazado_776764" data-name="Trazado 776764" d="M238.8,282.98c-.251,0-1.17.6,0,2.262C239.973,283.57,239.054,282.98,238.8,282.98Z" transform="translate(-119.75 -206.794)"/>
                    <path id="Trazado_776765" data-name="Trazado 776765" d="M286.805,282.98c-.184,0-.711.312-.545,1.117.257.26.521.521.778.781.8-1.389,0-1.892-.233-1.892Z" transform="translate(-138.348 -206.794)"/>
                    <path id="Trazado_776766" data-name="Trazado 776766" d="M238.8,306.98c-.251,0-1.17.6,0,2.262C239.973,307.57,239.054,306.98,238.8,306.98Z" transform="translate(-119.75 -216.908)"/>
                    <path id="Trazado_776767" data-name="Trazado 776767" d="M310.8,294.98c-.251,0-1.17.6,0,2.262C311.973,295.57,311.054,294.98,310.8,294.98Z" transform="translate(-147.644 -211.851)"/>
                    <path id="Trazado_776768" data-name="Trazado 776768" d="M238.8,258.98c-.251,0-1.17.6,0,2.262C239.973,259.57,239.054,258.98,238.8,258.98Z" transform="translate(-119.75 -196.68)"/>
                    <path id="Trazado_776769" data-name="Trazado 776769" d="M286.8,258.98c-.251,0-1.17.6,0,2.262C287.973,259.57,287.054,258.98,286.8,258.98Z" transform="translate(-138.346 -196.68)"/>
                    <path id="Trazado_776770" data-name="Trazado 776770" d="M262.8,270.98c-.251,0-1.17.6,0,2.262C263.973,271.57,263.054,270.98,262.8,270.98Z" transform="translate(-129.048 -201.737)"/>
                    <path id="Trazado_776771" data-name="Trazado 776771" d="M310.8,270.98c-.251,0-1.17.6,0,2.262C311.973,271.57,311.054,270.98,310.8,270.98Z" transform="translate(-147.644 -201.737)"/>
                    <path id="Trazado_776772" data-name="Trazado 776772" d="M262.8,246.98c-.251,0-1.17.6,0,2.262C263.973,247.57,263.054,246.98,262.8,246.98Z" transform="translate(-129.048 -191.622)"/>
                    <path id="Trazado_776773" data-name="Trazado 776773" d="M310.8,246.98c-.251,0-1.17.6,0,2.262C311.973,247.57,311.054,246.98,310.8,246.98Z" transform="translate(-147.644 -191.622)"/>
                    <path id="Trazado_776774" data-name="Trazado 776774" d="M240.21,286.5c2.12.116,2.2-.932,2.07-1.14S241.147,284.707,240.21,286.5Z" transform="translate(-120.52 -207.711)"/>
                    <path id="Trazado_776775" data-name="Trazado 776775" d="M288.4,286.3c.073.069.147.145.227.214,1.783-.012,1.85-.955,1.727-1.146s-1.047-.613-1.954.931Z" transform="translate(-139.19 -207.717)"/>
                    <path id="Trazado_776776" data-name="Trazado 776776" d="M241.811,309.159a1.124,1.124,0,0,0-.735.243,2.087,2.087,0,0,0-.343.312,3.3,3.3,0,0,0-.331.445.121.121,0,0,1-.025.035c-.061.093-.116.2-.178.312a2.687,2.687,0,0,0,1.752-.341h0a1.082,1.082,0,0,0,.123-.1.905.905,0,0,0,.153-.208.574.574,0,0,0,.043-.48.625.625,0,0,0-.466-.2Z" transform="translate(-120.516 -217.826)"/>
                    <path id="Trazado_776777" data-name="Trazado 776777" d="M312.21,298.5c2.119.116,2.2-.931,2.07-1.14S313.147,296.707,312.21,298.5Z" transform="translate(-148.415 -212.768)"/>
                    <path id="Trazado_776778" data-name="Trazado 776778" d="M240.21,262.5c2.12.116,2.2-.931,2.07-1.14S241.147,260.707,240.21,262.5Z" transform="translate(-120.52 -197.596)"/>
                    <path id="Trazado_776779" data-name="Trazado 776779" d="M290.27,261.36c-.129-.208-1.133-.654-2.07,1.14C290.319,262.616,290.4,261.569,290.27,261.36Z" transform="translate(-139.112 -197.596)"/>
                    <path id="Trazado_776780" data-name="Trazado 776780" d="M264.206,274.865c.2.012.374.006.533,0,.018-.289.031-.567.043-.845a3.868,3.868,0,0,0-.582.845Z" transform="translate(-129.814 -203.018)"/>
                    <path id="Trazado_776781" data-name="Trazado 776781" d="M312.21,274.5c2.119.116,2.2-.932,2.07-1.14S313.147,272.707,312.21,274.5Z" transform="translate(-148.415 -202.653)"/>
                    <path id="Trazado_776782" data-name="Trazado 776782" d="M264.21,250.5c2.119.116,2.2-.932,2.07-1.14S265.147,248.707,264.21,250.5Z" transform="translate(-129.818 -192.539)"/>
                    <path id="Trazado_776783" data-name="Trazado 776783" d="M312.21,250.5c2.119.116,2.2-.932,2.07-1.14S313.147,248.707,312.21,250.5Z" transform="translate(-148.415 -192.539)"/>
                    <path id="Trazado_776784" data-name="Trazado 776784" d="M259.826,298.463c.11-.283.221-.567.337-.862-.711-.694-1.329-.393-1.427-.237s-.067.9,1.1,1.1Z" transform="translate(-127.683 -212.771)"/>
                    <path id="Trazado_776785" data-name="Trazado 776785" d="M330.726,285.358c-.08.127-.073.561.41.856.122-.336.239-.683.343-1.036a.744.744,0,0,0-.753.173Z" transform="translate(-155.573 -207.708)"/>
                    <path id="Trazado_776786" data-name="Trazado 776786" d="M306.726,297.359c-.129.208-.049,1.255,2.071,1.14C307.859,296.7,306.854,297.151,306.726,297.359Z" transform="translate(-146.275 -212.766)"/>
                    <path id="Trazado_776787" data-name="Trazado 776787" d="M282.726,261.359c-.129.208-.049,1.256,2.07,1.14C283.859,260.7,282.854,261.151,282.726,261.359Z" transform="translate(-136.976 -197.595)"/>
                    <path id="Trazado_776788" data-name="Trazado 776788" d="M258.726,273.359c-.129.208-.049,1.256,2.071,1.14C259.859,272.7,258.854,273.151,258.726,273.359Z" transform="translate(-127.678 -202.652)"/>
                    <path id="Trazado_776789" data-name="Trazado 776789" d="M306.726,273.359c-.129.208-.049,1.256,2.071,1.14C307.859,272.7,306.854,273.151,306.726,273.359Z" transform="translate(-146.275 -202.652)"/>
                    <path id="Trazado_776790" data-name="Trazado 776790" d="M258.726,249.359c-.129.208-.049,1.255,2.071,1.14C259.859,248.7,258.854,249.151,258.726,249.359Z" transform="translate(-127.678 -192.538)"/>
                    <path id="Trazado_776791" data-name="Trazado 776791" d="M306.726,249.359c-.129.208-.049,1.255,2.071,1.14C307.859,248.7,306.854,249.151,306.726,249.359Z" transform="translate(-146.275 -192.538)"/>
                    <path id="Trazado_776792" data-name="Trazado 776792" d="M289.966,238.16h0a.7.7,0,0,0,.319-.8c-.116-.191-.992-.59-1.868.8h0a3.719,3.719,0,0,0-.2.341,2.686,2.686,0,0,0,1.752-.341Z" transform="translate(-139.12 -187.484)"/>
                    <path id="Trazado_776793" data-name="Trazado 776793" d="M241.962,238.16h0a.7.7,0,0,0,.319-.8c-.116-.191-1-.59-1.874.8h0a3.712,3.712,0,0,0-.2.341A2.687,2.687,0,0,0,241.962,238.16Z" transform="translate(-120.52 -187.484)"/>
                    <path id="Trazado_776794" data-name="Trazado 776794" d="M238.8,354.98c-.251,0-1.17.6,0,2.262C239.973,355.57,239.054,354.98,238.8,354.98Z" transform="translate(-119.75 -237.137)"/>
                    <path id="Trazado_776795" data-name="Trazado 776795" d="M238.8,378.98c-.251,0-1.17.6,0,2.262C239.973,379.57,239.054,378.98,238.8,378.98Z" transform="translate(-119.75 -247.251)"/>
                    <path id="Trazado_776796" data-name="Trazado 776796" d="M262.8,366.98c-.251,0-1.17.6,0,2.262C263.973,367.57,263.054,366.98,262.8,366.98Z" transform="translate(-129.048 -242.194)"/>
                    <path id="Trazado_776797" data-name="Trazado 776797" d="M238.8,330.98c-.251,0-1.17.6,0,2.262C239.973,331.57,239.054,330.98,238.8,330.98Z" transform="translate(-119.75 -227.023)"/>
                    <path id="Trazado_776798" data-name="Trazado 776798" d="M262.8,342.98c-.251,0-1.17.6,0,2.262C263.973,343.57,263.054,342.98,262.8,342.98Z" transform="translate(-129.048 -232.08)"/>
                    <path id="Trazado_776799" data-name="Trazado 776799" d="M240.21,358.5c2.12.116,2.2-.932,2.07-1.14S241.147,356.707,240.21,358.5Z" transform="translate(-120.52 -238.053)"/>
                    <path id="Trazado_776800" data-name="Trazado 776800" d="M241.811,381.16h-.129a1.17,1.17,0,0,0-.447.139,1.3,1.3,0,0,0-.165.1,2.82,2.82,0,0,0-.674.758h0a3.72,3.72,0,0,0-.2.341,2.687,2.687,0,0,0,1.752-.341h0a.7.7,0,0,0,.319-.8.625.625,0,0,0-.466-.2Z" transform="translate(-120.516 -248.17)"/>
                    <path id="Trazado_776801" data-name="Trazado 776801" d="M264.21,370.5c2.119.116,2.2-.932,2.07-1.14S265.147,368.707,264.21,370.5Z" transform="translate(-129.818 -243.111)"/>
                    <path id="Trazado_776802" data-name="Trazado 776802" d="M240.21,334.5c2.12.116,2.2-.932,2.07-1.14S241.147,332.707,240.21,334.5Z" transform="translate(-120.52 -227.939)"/>
                    <path id="Trazado_776803" data-name="Trazado 776803" d="M264.21,346.5c2.119.116,2.2-.931,2.07-1.14S265.147,344.707,264.21,346.5Z" transform="translate(-129.818 -232.996)"/>
                    <path id="Trazado_776804" data-name="Trazado 776804" d="M258.726,369.359c-.129.208-.049,1.256,2.071,1.14C259.859,368.7,258.854,369.151,258.726,369.359Z" transform="translate(-127.678 -243.109)"/>
                    <path id="Trazado_776805" data-name="Trazado 776805" d="M258.726,345.359c-.129.208-.049,1.255,2.071,1.14C259.859,344.7,258.854,345.151,258.726,345.359Z" transform="translate(-127.678 -232.995)"/>
                    <path id="Trazado_776806" data-name="Trazado 776806" d="M262.8,390.98c-.251,0-1.17.6,0,2.262C263.973,391.57,263.054,390.98,262.8,390.98Z" transform="translate(-129.048 -252.308)"/>
                    <path id="Trazado_776807" data-name="Trazado 776807" d="M264.21,394.5c2.119.116,2.2-.931,2.07-1.14S265.147,392.707,264.21,394.5Z" transform="translate(-129.818 -253.225)"/>
                    <path id="Trazado_776808" data-name="Trazado 776808" d="M258.726,393.359c-.129.208-.049,1.255,2.071,1.14C259.859,392.7,258.854,393.151,258.726,393.359Z" transform="translate(-127.678 -253.224)"/>
                    <path id="Trazado_776809" data-name="Trazado 776809" d="M190.8,162.98c-.251,0-1.17.6,0,2.262C191.973,163.57,191.054,162.98,190.8,162.98Z" transform="translate(-101.153 -156.222)"/>
                    <path id="Trazado_776810" data-name="Trazado 776810" d="M167.74,151.3c.024.312.055.752.086,1.29A1.152,1.152,0,0,0,167.74,151.3Z" transform="translate(-92.443 -151.3)"/>
                    <path id="Trazado_776811" data-name="Trazado 776811" d="M193.811,165.159a1.124,1.124,0,0,0-.735.243,2.085,2.085,0,0,0-.343.312,3.3,3.3,0,0,0-.331.446.122.122,0,0,1-.025.035c-.061.093-.116.2-.178.312a2.687,2.687,0,0,0,1.752-.341h0a1.082,1.082,0,0,0,.122-.1.9.9,0,0,0,.153-.208.574.574,0,0,0,.043-.48.625.625,0,0,0-.466-.2Z" transform="translate(-101.919 -157.14)"/>
                    <path id="Trazado_776812" data-name="Trazado 776812" d="M168.21,154.5c2.119.116,2.2-.932,2.07-1.14S169.147,152.707,168.21,154.5Z" transform="translate(-92.625 -152.082)"/>
                    <path id="Trazado_776813" data-name="Trazado 776813" d="M143.372,211.631a1.018,1.018,0,0,0-.08-.26h0a.832.832,0,0,0-.061-.1h0a.7.7,0,0,0-.141-.15h0a.578.578,0,0,0-.147-.087h0a.274.274,0,0,0-.245,0c-.282.116-.747.6-.227,1.66a4.392,4.392,0,0,0,.349.579,4.7,4.7,0,0,0,.349-.579,1.933,1.933,0,0,0,.233-.874.672.672,0,0,0-.012-.162h0Z" transform="translate(-82.562 -176.459)"/>
                    <path id="Trazado_776814" data-name="Trazado 776814" d="M190.8,210.98c-.251,0-1.17.6,0,2.262C191.973,211.57,191.054,210.98,190.8,210.98Z" transform="translate(-101.153 -176.451)"/>
                    <path id="Trazado_776815" data-name="Trazado 776815" d="M190.8,234.98c-.251,0-1.17.6,0,2.262C191.973,235.57,191.054,234.98,190.8,234.98Z" transform="translate(-101.153 -186.565)"/>
                    <path id="Trazado_776816" data-name="Trazado 776816" d="M143.372,235.631a1.018,1.018,0,0,0-.08-.26h0a.831.831,0,0,0-.061-.1h0a.7.7,0,0,0-.141-.15h0a.578.578,0,0,0-.147-.087h0a.274.274,0,0,0-.245,0c-.282.116-.747.6-.227,1.661a4.4,4.4,0,0,0,.349.579,4.705,4.705,0,0,0,.349-.579,1.933,1.933,0,0,0,.233-.874.672.672,0,0,0-.012-.162h0Z" transform="translate(-82.562 -186.574)"/>
                    <path id="Trazado_776817" data-name="Trazado 776817" d="M166.8,222.98c-.251,0-1.17.6,0,2.262C167.973,223.57,167.054,222.98,166.8,222.98Z" transform="translate(-91.855 -181.508)"/>
                    <path id="Trazado_776818" data-name="Trazado 776818" d="M214.8,222.98c-.251,0-1.17.6,0,2.262C215.973,223.57,215.054,222.98,214.8,222.98Z" transform="translate(-110.451 -181.508)"/>
                    <path id="Trazado_776819" data-name="Trazado 776819" d="M190.8,186.98c-.251,0-1.17.6,0,2.262C191.973,187.57,191.054,186.98,190.8,186.98Z" transform="translate(-101.153 -166.337)"/>
                    <path id="Trazado_776820" data-name="Trazado 776820" d="M166.8,198.98c-.251,0-1.17.6,0,2.262C167.973,199.57,167.054,198.98,166.8,198.98Z" transform="translate(-91.855 -171.394)"/>
                    <path id="Trazado_776821" data-name="Trazado 776821" d="M214.8,198.98c-.251,0-1.17.6,0,2.262C215.973,199.57,215.054,198.98,214.8,198.98Z" transform="translate(-110.451 -171.394)"/>
                    <path id="Trazado_776822" data-name="Trazado 776822" d="M144.21,214.5c2.119.116,2.2-.931,2.07-1.14S145.147,212.707,144.21,214.5Z" transform="translate(-83.326 -177.368)"/>
                    <path id="Trazado_776823" data-name="Trazado 776823" d="M192.21,214.5c2.119.116,2.2-.931,2.07-1.14S193.147,212.707,192.21,214.5Z" transform="translate(-101.923 -177.368)"/>
                    <path id="Trazado_776824" data-name="Trazado 776824" d="M168.21,226.5c2.119.116,2.2-.931,2.07-1.14S169.147,224.707,168.21,226.5Z" transform="translate(-92.625 -182.425)"/>
                    <path id="Trazado_776825" data-name="Trazado 776825" d="M216.21,226.5c2.119.116,2.2-.931,2.07-1.14S217.147,224.707,216.21,226.5Z" transform="translate(-111.221 -182.425)"/>
                    <path id="Trazado_776826" data-name="Trazado 776826" d="M192.21,190.5c2.119.116,2.2-.932,2.07-1.14S193.147,188.707,192.21,190.5Z" transform="translate(-101.923 -167.253)"/>
                    <path id="Trazado_776827" data-name="Trazado 776827" d="M168.21,202.5c2.119.116,2.2-.932,2.07-1.14S169.147,200.707,168.21,202.5Z" transform="translate(-92.625 -172.31)"/>
                    <path id="Trazado_776828" data-name="Trazado 776828" d="M216.21,202.5c2.119.116,2.2-.932,2.07-1.14S217.147,200.707,216.21,202.5Z" transform="translate(-111.221 -172.31)"/>
                    <path id="Trazado_776829" data-name="Trazado 776829" d="M170.371,177.36c-.123-.2-1.017-.6-1.9.839,0,.1-.012.2-.012.3,1.96.052,2.04-.943,1.917-1.146Z" transform="translate(-92.722 -162.196)"/>
                    <path id="Trazado_776830" data-name="Trazado 776830" d="M186.726,213.359c-.129.208-.049,1.256,2.07,1.14C187.859,212.7,186.854,213.151,186.726,213.359Z" transform="translate(-99.783 -177.366)"/>
                    <path id="Trazado_776831" data-name="Trazado 776831" d="M186.725,237.362a.686.686,0,0,0,.319.8h0a2.651,2.651,0,0,0,1.752.341c-.067-.127-.135-.237-.2-.341C187.724,236.772,186.848,237.171,186.725,237.362Z" transform="translate(-99.783 -187.484)"/>
                    <path id="Trazado_776832" data-name="Trazado 776832" d="M162.726,225.359c-.129.208-.049,1.255,2.07,1.14C163.859,224.7,162.854,225.151,162.726,225.359Z" transform="translate(-90.485 -182.424)"/>
                    <path id="Trazado_776833" data-name="Trazado 776833" d="M234.726,213.359c-.129.208-.049,1.256,2.07,1.14C235.859,212.7,234.854,213.151,234.726,213.359Z" transform="translate(-118.38 -177.366)"/>
                    <path id="Trazado_776834" data-name="Trazado 776834" d="M236.6,238.16c-.876-1.389-1.752-.989-1.874-.8a.686.686,0,0,0,.319.8h0a2.651,2.651,0,0,0,1.752.341c-.067-.127-.135-.237-.2-.341Z" transform="translate(-118.38 -187.484)"/>
                    <path id="Trazado_776835" data-name="Trazado 776835" d="M210.726,225.359c-.129.208-.049,1.255,2.07,1.14C211.859,224.7,210.854,225.151,210.726,225.359Z" transform="translate(-109.082 -182.424)"/>
                    <path id="Trazado_776836" data-name="Trazado 776836" d="M186.726,189.359c-.129.208-.049,1.256,2.07,1.14C187.859,188.7,186.854,189.151,186.726,189.359Z" transform="translate(-99.783 -167.252)"/>
                    <path id="Trazado_776837" data-name="Trazado 776837" d="M162.726,201.359c-.129.208-.049,1.255,2.07,1.14C163.859,200.7,162.854,201.151,162.726,201.359Z" transform="translate(-90.485 -172.309)"/>
                    <path id="Trazado_776838" data-name="Trazado 776838" d="M210.726,201.359c-.129.208-.049,1.255,2.07,1.14C211.859,200.7,210.854,201.151,210.726,201.359Z" transform="translate(-109.082 -172.309)"/>
                    <path id="Trazado_776839" data-name="Trazado 776839" d="M211.645,178.425c-.055-.162-.11-.318-.159-.486-.067-.243-.135-.5-.2-.77a.686.686,0,0,0-.564.2c-.1.162-.067.816.913,1.059Z" transform="translate(-109.082 -162.202)"/>
                    <path id="Trazado_776840" data-name="Trazado 776840" d="M188.6,166.16a3.3,3.3,0,0,0-.331-.445,2.088,2.088,0,0,0-.343-.312,1.158,1.158,0,0,0-.735-.243.647.647,0,0,0-.466.2.531.531,0,0,0,.043.48.9.9,0,0,0,.153.208c.037.035.08.069.122.1h0a2.651,2.651,0,0,0,1.752.341c-.061-.11-.116-.214-.178-.312a.121.121,0,0,0-.024-.035Z" transform="translate(-99.783 -157.14)"/>
                    <path id="Trazado_776841" data-name="Trazado 776841" d="M143.372,283.631a1.017,1.017,0,0,0-.08-.26h0a.826.826,0,0,0-.061-.1h0a.7.7,0,0,0-.141-.15h0a.575.575,0,0,0-.147-.087h0a.274.274,0,0,0-.245,0c-.282.116-.747.6-.227,1.66a4.394,4.394,0,0,0,.349.579,4.7,4.7,0,0,0,.349-.579,1.933,1.933,0,0,0,.233-.874.672.672,0,0,0-.012-.162h0Z" transform="translate(-82.562 -206.802)"/>
                    <path id="Trazado_776842" data-name="Trazado 776842" d="M190.8,282.98c-.251,0-1.17.6,0,2.262C191.973,283.57,191.054,282.98,190.8,282.98Z" transform="translate(-101.153 -206.794)"/>
                    <path id="Trazado_776843" data-name="Trazado 776843" d="M190.8,306.98c-.251,0-1.17.6,0,2.262C191.973,307.57,191.054,306.98,190.8,306.98Z" transform="translate(-101.153 -216.908)"/>
                    <path id="Trazado_776844" data-name="Trazado 776844" d="M143.372,307.631a1.017,1.017,0,0,0-.08-.26h0a.836.836,0,0,0-.061-.1h0a.7.7,0,0,0-.141-.15h0a.578.578,0,0,0-.147-.087h0a.274.274,0,0,0-.245,0c-.282.116-.747.6-.227,1.661a4.394,4.394,0,0,0,.349.579,4.7,4.7,0,0,0,.349-.579,1.933,1.933,0,0,0,.233-.874.7.7,0,0,0-.012-.162h0Z" transform="translate(-82.562 -216.917)"/>
                    <path id="Trazado_776845" data-name="Trazado 776845" d="M166.8,294.98c-.251,0-1.17.6,0,2.262C167.973,295.57,167.054,294.98,166.8,294.98Z" transform="translate(-91.855 -211.851)"/>
                    <path id="Trazado_776846" data-name="Trazado 776846" d="M214.8,294.98c-.251,0-1.17.6,0,2.262C215.973,295.57,215.054,294.98,214.8,294.98Z" transform="translate(-110.451 -211.851)"/>
                    <path id="Trazado_776847" data-name="Trazado 776847" d="M143.372,259.631a1.018,1.018,0,0,0-.08-.26h0a.833.833,0,0,0-.061-.1h0a.7.7,0,0,0-.141-.15h0a.578.578,0,0,0-.147-.087h0a.274.274,0,0,0-.245,0c-.282.116-.747.6-.227,1.661a4.4,4.4,0,0,0,.349.579,4.7,4.7,0,0,0,.349-.579,1.933,1.933,0,0,0,.233-.874.672.672,0,0,0-.012-.162h0Z" transform="translate(-82.562 -196.688)"/>
                    <path id="Trazado_776848" data-name="Trazado 776848" d="M190.8,258.98c-.251,0-1.17.6,0,2.262C191.973,259.57,191.054,258.98,190.8,258.98Z" transform="translate(-101.153 -196.68)"/>
                    <path id="Trazado_776849" data-name="Trazado 776849" d="M166.8,270.98c-.251,0-1.17.6,0,2.262C167.973,271.57,167.054,270.98,166.8,270.98Z" transform="translate(-91.855 -201.737)"/>
                    <path id="Trazado_776850" data-name="Trazado 776850" d="M214.8,270.98c-.251,0-1.17.6,0,2.262C215.973,271.57,215.054,270.98,214.8,270.98Z" transform="translate(-110.451 -201.737)"/>
                    <path id="Trazado_776851" data-name="Trazado 776851" d="M166.8,246.98c-.251,0-1.17.6,0,2.262C167.973,247.57,167.054,246.98,166.8,246.98Z" transform="translate(-91.855 -191.622)"/>
                    <path id="Trazado_776852" data-name="Trazado 776852" d="M214.8,246.98c-.251,0-1.17.6,0,2.262C215.973,247.57,215.054,246.98,214.8,246.98Z" transform="translate(-110.451 -191.622)"/>
                    <path id="Trazado_776853" data-name="Trazado 776853" d="M144.21,286.5c2.119.116,2.2-.932,2.07-1.14S145.147,284.707,144.21,286.5Z" transform="translate(-83.326 -207.711)"/>
                    <path id="Trazado_776854" data-name="Trazado 776854" d="M192.21,286.5c2.119.116,2.2-.932,2.07-1.14S193.147,284.707,192.21,286.5Z" transform="translate(-101.923 -207.711)"/>
                    <path id="Trazado_776855" data-name="Trazado 776855" d="M193.811,309.159a1.124,1.124,0,0,0-.735.243,2.085,2.085,0,0,0-.343.312,3.3,3.3,0,0,0-.331.445.122.122,0,0,1-.025.035c-.061.093-.116.2-.178.312a2.687,2.687,0,0,0,1.752-.341h0a1.084,1.084,0,0,0,.122-.1.9.9,0,0,0,.153-.208.574.574,0,0,0,.043-.48.625.625,0,0,0-.466-.2Z" transform="translate(-101.919 -217.826)"/>
                    <path id="Trazado_776856" data-name="Trazado 776856" d="M145.811,309.159a1.124,1.124,0,0,0-.735.243,2.084,2.084,0,0,0-.343.312,3.3,3.3,0,0,0-.331.445.121.121,0,0,1-.025.035c-.061.093-.116.2-.178.312a2.687,2.687,0,0,0,1.752-.341h0a1.084,1.084,0,0,0,.122-.1.905.905,0,0,0,.153-.208.574.574,0,0,0,.043-.48.625.625,0,0,0-.466-.2Z" transform="translate(-83.323 -217.826)"/>
                    <path id="Trazado_776857" data-name="Trazado 776857" d="M168.21,298.5c2.119.116,2.2-.931,2.07-1.14S169.147,296.707,168.21,298.5Z" transform="translate(-92.625 -212.768)"/>
                    <path id="Trazado_776858" data-name="Trazado 776858" d="M216.21,298.5c2.119.116,2.2-.931,2.07-1.14S217.147,296.707,216.21,298.5Z" transform="translate(-111.221 -212.768)"/>
                    <path id="Trazado_776859" data-name="Trazado 776859" d="M144.21,262.5c2.119.116,2.2-.931,2.07-1.14S145.147,260.707,144.21,262.5Z" transform="translate(-83.326 -197.596)"/>
                    <path id="Trazado_776860" data-name="Trazado 776860" d="M192.21,262.5c2.119.116,2.2-.931,2.07-1.14S193.147,260.707,192.21,262.5Z" transform="translate(-101.923 -197.596)"/>
                    <path id="Trazado_776861" data-name="Trazado 776861" d="M168.21,274.5c2.119.116,2.2-.932,2.07-1.14S169.147,272.707,168.21,274.5Z" transform="translate(-92.625 -202.653)"/>
                    <path id="Trazado_776862" data-name="Trazado 776862" d="M216.21,274.5c2.119.116,2.2-.932,2.07-1.14S217.147,272.707,216.21,274.5Z" transform="translate(-111.221 -202.653)"/>
                    <path id="Trazado_776863" data-name="Trazado 776863" d="M168.21,250.5c2.119.116,2.2-.932,2.07-1.14S169.147,248.707,168.21,250.5Z" transform="translate(-92.625 -192.539)"/>
                    <path id="Trazado_776864" data-name="Trazado 776864" d="M216.21,250.5c2.119.116,2.2-.932,2.07-1.14S217.147,248.707,216.21,250.5Z" transform="translate(-111.221 -192.539)"/>
                    <path id="Trazado_776865" data-name="Trazado 776865" d="M186.726,285.359c-.129.208-.049,1.255,2.07,1.14C187.859,284.7,186.854,285.151,186.726,285.359Z" transform="translate(-99.783 -207.709)"/>
                    <path id="Trazado_776866" data-name="Trazado 776866" d="M162.726,297.359c-.129.208-.049,1.255,2.07,1.14C163.859,296.7,162.854,297.151,162.726,297.359Z" transform="translate(-90.485 -212.766)"/>
                    <path id="Trazado_776867" data-name="Trazado 776867" d="M234.726,285.359c-.129.208-.049,1.255,2.07,1.14C235.859,284.7,234.854,285.151,234.726,285.359Z" transform="translate(-118.38 -207.709)"/>
                    <path id="Trazado_776868" data-name="Trazado 776868" d="M210.726,297.359c-.129.208-.049,1.255,2.07,1.14C211.859,296.7,210.854,297.151,210.726,297.359Z" transform="translate(-109.082 -212.766)"/>
                    <path id="Trazado_776869" data-name="Trazado 776869" d="M148.83,299.595s15.927,3.859,35.94-10.8,27.768-8.87,26.953,1.545-17.967,20.059-25.318,21.216c-12.086,1.9-22.867,5.016-37.569-11.959Z" transform="translate(-85.116 -205.525)"/>
                    <path id="Trazado_776870" data-name="Trazado 776870" d="M186.726,261.359c-.129.208-.049,1.256,2.07,1.14C187.859,260.7,186.854,261.151,186.726,261.359Z" transform="translate(-99.783 -197.595)"/>
                    <path id="Trazado_776871" data-name="Trazado 776871" d="M162.726,273.359c-.129.208-.049,1.256,2.07,1.14C163.859,272.7,162.854,273.151,162.726,273.359Z" transform="translate(-90.485 -202.652)"/>
                    <path id="Trazado_776872" data-name="Trazado 776872" d="M234.726,261.359c-.129.208-.049,1.256,2.07,1.14C235.859,260.7,234.854,261.151,234.726,261.359Z" transform="translate(-118.38 -197.595)"/>
                    <path id="Trazado_776873" data-name="Trazado 776873" d="M210.726,273.359c-.129.208-.049,1.256,2.07,1.14C211.859,272.7,210.854,273.151,210.726,273.359Z" transform="translate(-109.082 -202.652)"/>
                    <path id="Trazado_776874" data-name="Trazado 776874" d="M162.726,249.359c-.129.208-.049,1.255,2.07,1.14C163.859,248.7,162.854,249.151,162.726,249.359Z" transform="translate(-90.485 -192.538)"/>
                    <path id="Trazado_776875" data-name="Trazado 776875" d="M210.726,249.359c-.129.208-.049,1.255,2.07,1.14C211.859,248.7,210.854,249.151,210.726,249.359Z" transform="translate(-109.082 -192.538)"/>
                    <path id="Trazado_776876" data-name="Trazado 776876" d="M193.962,238.16h0a.7.7,0,0,0,.319-.8c-.116-.191-.992-.59-1.874.8h0a3.7,3.7,0,0,0-.2.341A2.686,2.686,0,0,0,193.962,238.16Z" transform="translate(-101.923 -187.484)"/>
                    <path id="Trazado_776877" data-name="Trazado 776877" d="M145.962,238.16h0a.7.7,0,0,0,.319-.8c-.116-.191-1-.59-1.874.8h0a3.708,3.708,0,0,0-.2.341A2.687,2.687,0,0,0,145.962,238.16Z" transform="translate(-83.326 -187.484)"/>
                    <path id="Trazado_776878" data-name="Trazado 776878" d="M143.372,355.631a1.017,1.017,0,0,0-.08-.26h0a.839.839,0,0,0-.061-.1h0a.7.7,0,0,0-.141-.15h0a.577.577,0,0,0-.147-.087h0a.274.274,0,0,0-.245,0c-.282.116-.747.6-.227,1.66a4.382,4.382,0,0,0,.349.579,4.689,4.689,0,0,0,.349-.579,1.932,1.932,0,0,0,.233-.874.7.7,0,0,0-.012-.162h0Z" transform="translate(-82.562 -237.145)"/>
                    <path id="Trazado_776879" data-name="Trazado 776879" d="M190.8,354.98c-.251,0-1.17.6,0,2.262C191.973,355.57,191.054,354.98,190.8,354.98Z" transform="translate(-101.153 -237.137)"/>
                    <path id="Trazado_776880" data-name="Trazado 776880" d="M190.8,378.98c-.251,0-1.17.6,0,2.262C191.973,379.57,191.054,378.98,190.8,378.98Z" transform="translate(-101.153 -247.251)"/>
                    <path id="Trazado_776881" data-name="Trazado 776881" d="M143.372,379.631a1.017,1.017,0,0,0-.08-.26h0a.833.833,0,0,0-.061-.1h0a.7.7,0,0,0-.141-.15h0a.578.578,0,0,0-.147-.087h0a.274.274,0,0,0-.245,0c-.282.116-.747.6-.227,1.661a4.4,4.4,0,0,0,.349.579,4.708,4.708,0,0,0,.349-.579,1.933,1.933,0,0,0,.233-.874.7.7,0,0,0-.012-.162h0Z" transform="translate(-82.562 -247.26)"/>
                    <path id="Trazado_776882" data-name="Trazado 776882" d="M166.8,366.98c-.251,0-1.17.6,0,2.262C167.973,367.57,167.054,366.98,166.8,366.98Z" transform="translate(-91.855 -242.194)"/>
                    <path id="Trazado_776883" data-name="Trazado 776883" d="M214.8,366.98c-.251,0-1.17.6,0,2.262C215.973,367.57,215.054,366.98,214.8,366.98Z" transform="translate(-110.451 -242.194)"/>
                    <path id="Trazado_776884" data-name="Trazado 776884" d="M143.372,331.631a1.017,1.017,0,0,0-.08-.26h0a.834.834,0,0,0-.061-.1h0a.7.7,0,0,0-.141-.15h0a.576.576,0,0,0-.147-.087h0a.274.274,0,0,0-.245,0c-.282.116-.747.6-.227,1.661a4.4,4.4,0,0,0,.349.579,4.71,4.71,0,0,0,.349-.579,1.933,1.933,0,0,0,.233-.874.7.7,0,0,0-.012-.162h0Z" transform="translate(-82.562 -227.031)"/>
                    <path id="Trazado_776885" data-name="Trazado 776885" d="M190.8,330.98c-.251,0-1.17.6,0,2.262C191.973,331.57,191.054,330.98,190.8,330.98Z" transform="translate(-101.153 -227.023)"/>
                    <path id="Trazado_776886" data-name="Trazado 776886" d="M166.8,342.98c-.251,0-1.17.6,0,2.262C167.973,343.57,167.054,342.98,166.8,342.98Z" transform="translate(-91.855 -232.08)"/>
                    <path id="Trazado_776887" data-name="Trazado 776887" d="M214.8,342.98c-.251,0-1.17.6,0,2.262C215.973,343.57,215.054,342.98,214.8,342.98Z" transform="translate(-110.451 -232.08)"/>
                    <path id="Trazado_776888" data-name="Trazado 776888" d="M166.8,318.98c-.251,0-1.17.6,0,2.262C167.973,319.57,167.054,318.98,166.8,318.98Z" transform="translate(-91.855 -221.965)"/>
                    <path id="Trazado_776889" data-name="Trazado 776889" d="M214.8,318.98c-.251,0-1.17.6,0,2.262C215.973,319.57,215.054,318.98,214.8,318.98Z" transform="translate(-110.451 -221.965)"/>
                    <path id="Trazado_776890" data-name="Trazado 776890" d="M144.21,358.5c2.119.116,2.2-.932,2.07-1.14S145.147,356.707,144.21,358.5Z" transform="translate(-83.326 -238.053)"/>
                    <path id="Trazado_776891" data-name="Trazado 776891" d="M192.21,358.5c2.119.116,2.2-.932,2.07-1.14S193.147,356.707,192.21,358.5Z" transform="translate(-101.923 -238.053)"/>
                    <path id="Trazado_776892" data-name="Trazado 776892" d="M193.811,381.16h-.129a1.169,1.169,0,0,0-.447.139,1.3,1.3,0,0,0-.165.1,2.819,2.819,0,0,0-.674.758h0a3.713,3.713,0,0,0-.2.341,2.687,2.687,0,0,0,1.752-.341h0a.7.7,0,0,0,.319-.8.625.625,0,0,0-.466-.2Z" transform="translate(-101.919 -248.17)"/>
                    <path id="Trazado_776893" data-name="Trazado 776893" d="M145.811,381.16h-.129a1.169,1.169,0,0,0-.447.139,1.3,1.3,0,0,0-.165.1,2.82,2.82,0,0,0-.674.758h0a3.713,3.713,0,0,0-.2.341,2.687,2.687,0,0,0,1.752-.341h0a.7.7,0,0,0,.319-.8.625.625,0,0,0-.466-.2Z" transform="translate(-83.323 -248.17)"/>
                    <path id="Trazado_776894" data-name="Trazado 776894" d="M168.21,370.5c2.119.116,2.2-.932,2.07-1.14S169.147,368.707,168.21,370.5Z" transform="translate(-92.625 -243.111)"/>
                    <path id="Trazado_776895" data-name="Trazado 776895" d="M216.21,370.5c2.119.116,2.2-.932,2.07-1.14S217.147,368.707,216.21,370.5Z" transform="translate(-111.221 -243.111)"/>
                    <path id="Trazado_776896" data-name="Trazado 776896" d="M144.21,334.5c2.119.116,2.2-.932,2.07-1.14S145.147,332.707,144.21,334.5Z" transform="translate(-83.326 -227.939)"/>
                    <path id="Trazado_776897" data-name="Trazado 776897" d="M192.21,334.5c2.119.116,2.2-.932,2.07-1.14S193.147,332.707,192.21,334.5Z" transform="translate(-101.923 -227.939)"/>
                    <path id="Trazado_776898" data-name="Trazado 776898" d="M168.21,346.5c2.119.116,2.2-.931,2.07-1.14S169.147,344.707,168.21,346.5Z" transform="translate(-92.625 -232.996)"/>
                    <path id="Trazado_776899" data-name="Trazado 776899" d="M216.21,346.5c2.119.116,2.2-.931,2.07-1.14S217.147,344.707,216.21,346.5Z" transform="translate(-111.221 -232.996)"/>
                    <path id="Trazado_776900" data-name="Trazado 776900" d="M168.21,322.5c2.119.116,2.2-.932,2.07-1.14S169.147,320.707,168.21,322.5Z" transform="translate(-92.625 -222.882)"/>
                    <path id="Trazado_776901" data-name="Trazado 776901" d="M216.21,322.5c2.119.116,2.2-.932,2.07-1.14S217.147,320.707,216.21,322.5Z" transform="translate(-111.221 -222.882)"/>
                    <path id="Trazado_776902" data-name="Trazado 776902" d="M186.726,357.359c-.129.208-.049,1.255,2.07,1.14C187.859,356.7,186.854,357.151,186.726,357.359Z" transform="translate(-99.783 -238.052)"/>
                    <path id="Trazado_776903" data-name="Trazado 776903" d="M187.922,381.4a1.3,1.3,0,0,0-.165-.1,1.137,1.137,0,0,0-.447-.139h-.129a.647.647,0,0,0-.466.2.686.686,0,0,0,.319.8h0a2.651,2.651,0,0,0,1.752.341c-.067-.127-.135-.237-.2-.341a2.64,2.64,0,0,0-.674-.758Z" transform="translate(-99.779 -248.17)"/>
                    <path id="Trazado_776904" data-name="Trazado 776904" d="M162.726,369.359c-.129.208-.049,1.256,2.07,1.14C163.859,368.7,162.854,369.151,162.726,369.359Z" transform="translate(-90.485 -243.109)"/>
                    <path id="Trazado_776905" data-name="Trazado 776905" d="M234.726,357.359c-.129.208-.049,1.255,2.07,1.14C235.859,356.7,234.854,357.151,234.726,357.359Z" transform="translate(-118.38 -238.052)"/>
                    <path id="Trazado_776906" data-name="Trazado 776906" d="M236.6,382.161a2.552,2.552,0,0,0-.674-.758,1.306,1.306,0,0,0-.165-.1,1.139,1.139,0,0,0-.447-.139h-.129a.647.647,0,0,0-.466.2.686.686,0,0,0,.319.8h0a2.65,2.65,0,0,0,1.752.341c-.067-.127-.135-.237-.2-.341h0Z" transform="translate(-118.376 -248.17)"/>
                    <path id="Trazado_776907" data-name="Trazado 776907" d="M210.726,369.359c-.129.208-.049,1.256,2.07,1.14C211.859,368.7,210.854,369.151,210.726,369.359Z" transform="translate(-109.082 -243.109)"/>
                    <path id="Trazado_776908" data-name="Trazado 776908" d="M186.726,333.359c-.129.208-.049,1.255,2.07,1.14C187.859,332.7,186.854,333.151,186.726,333.359Z" transform="translate(-99.783 -227.938)"/>
                    <path id="Trazado_776909" data-name="Trazado 776909" d="M162.726,345.359c-.129.208-.049,1.255,2.07,1.14C163.859,344.7,162.854,345.151,162.726,345.359Z" transform="translate(-90.485 -232.995)"/>
                    <path id="Trazado_776910" data-name="Trazado 776910" d="M234.726,333.359c-.129.208-.049,1.255,2.07,1.14C235.859,332.7,234.854,333.151,234.726,333.359Z" transform="translate(-118.38 -227.938)"/>
                    <path id="Trazado_776911" data-name="Trazado 776911" d="M210.726,345.359c-.129.208-.049,1.255,2.07,1.14C211.859,344.7,210.854,345.151,210.726,345.359Z" transform="translate(-109.082 -232.995)"/>
                    <path id="Trazado_776912" data-name="Trazado 776912" d="M162.726,321.359c-.129.208-.049,1.256,2.07,1.14C163.859,320.7,162.854,321.151,162.726,321.359Z" transform="translate(-90.485 -222.881)"/>
                    <path id="Trazado_776913" data-name="Trazado 776913" d="M210.726,321.359c-.129.208-.049,1.256,2.07,1.14C211.859,320.7,210.854,321.151,210.726,321.359Z" transform="translate(-109.082 -222.881)"/>
                    <path id="Trazado_776914" data-name="Trazado 776914" d="M188.6,310.16a3.3,3.3,0,0,0-.331-.446,2.088,2.088,0,0,0-.343-.312,1.158,1.158,0,0,0-.735-.243.647.647,0,0,0-.466.2.531.531,0,0,0,.043.48.9.9,0,0,0,.153.208c.037.035.08.069.122.1h0a2.651,2.651,0,0,0,1.752.341c-.061-.11-.116-.214-.178-.312a.121.121,0,0,0-.024-.035Z" transform="translate(-99.783 -217.826)"/>
                    <path id="Trazado_776915" data-name="Trazado 776915" d="M236.6,310.16a3.3,3.3,0,0,0-.331-.446,2.088,2.088,0,0,0-.343-.312,1.158,1.158,0,0,0-.735-.243.647.647,0,0,0-.466.2.531.531,0,0,0,.043.48.906.906,0,0,0,.153.208c.037.035.08.069.123.1h0a2.651,2.651,0,0,0,1.752.341c-.061-.11-.116-.214-.178-.312a.122.122,0,0,0-.025-.035Z" transform="translate(-118.38 -217.826)"/>
                    <path id="Trazado_776916" data-name="Trazado 776916" d="M166.8,390.98c-.251,0-1.17.6,0,2.262C167.973,391.57,167.054,390.98,166.8,390.98Z" transform="translate(-91.855 -252.308)"/>
                    <path id="Trazado_776917" data-name="Trazado 776917" d="M214.8,390.98c-.251,0-1.17.6,0,2.262C215.973,391.57,215.054,390.98,214.8,390.98Z" transform="translate(-110.451 -252.308)"/>
                    <path id="Trazado_776918" data-name="Trazado 776918" d="M168.21,394.5c2.119.116,2.2-.931,2.07-1.14S169.147,392.707,168.21,394.5Z" transform="translate(-92.625 -253.225)"/>
                    <path id="Trazado_776919" data-name="Trazado 776919" d="M216.21,394.5c2.119.116,2.2-.931,2.07-1.14S217.147,392.707,216.21,394.5Z" transform="translate(-111.221 -253.225)"/>
                    <path id="Trazado_776920" data-name="Trazado 776920" d="M162.726,393.359c-.129.208-.049,1.255,2.07,1.14C163.859,392.7,162.854,393.151,162.726,393.359Z" transform="translate(-90.485 -253.224)"/>
                    <path id="Trazado_776921" data-name="Trazado 776921" d="M210.726,393.359c-.129.208-.049,1.255,2.07,1.14C211.859,392.7,210.854,393.151,210.726,393.359Z" transform="translate(-109.082 -253.224)"/>
                    <path id="Trazado_776922" data-name="Trazado 776922" d="M94.8,234.98c-.251,0-1.17.6,0,2.262C95.973,235.57,95.054,234.98,94.8,234.98Z" transform="translate(-63.96 -186.565)"/>
                    <path id="Trazado_776923" data-name="Trazado 776923" d="M118.8,222.98c-.251,0-1.17.6,0,2.262C119.973,223.57,119.054,222.98,118.8,222.98Z" transform="translate(-73.258 -181.508)"/>
                    <path id="Trazado_776924" data-name="Trazado 776924" d="M119.341,199.9c-.38.087-.753.174-1.121.266a2.581,2.581,0,0,0,.582,1.464A2.116,2.116,0,0,0,119.341,199.9Z" transform="translate(-73.257 -171.782)"/>
                    <path id="Trazado_776925" data-name="Trazado 776925" d="M96.21,214.5c2.119.116,2.2-.931,2.07-1.14S97.147,212.707,96.21,214.5Z" transform="translate(-64.73 -177.368)"/>
                    <path id="Trazado_776926" data-name="Trazado 776926" d="M120.21,226.5c2.12.116,2.2-.931,2.07-1.14S121.147,224.707,120.21,226.5Z" transform="translate(-74.028 -182.425)"/>
                    <path id="Trazado_776927" data-name="Trazado 776927" d="M120.21,202.5c2.12.116,2.2-.932,2.07-1.14S121.147,200.707,120.21,202.5Z" transform="translate(-74.028 -172.31)"/>
                    <path id="Trazado_776928" data-name="Trazado 776928" d="M90.725,237.362a.686.686,0,0,0,.319.8h0a2.651,2.651,0,0,0,1.752.341c-.067-.127-.135-.237-.2-.341C91.724,236.772,90.848,237.171,90.725,237.362Z" transform="translate(-62.59 -187.484)"/>
                    <path id="Trazado_776929" data-name="Trazado 776929" d="M138.726,213.359c-.129.208-.049,1.256,2.07,1.14C139.859,212.7,138.854,213.151,138.726,213.359Z" transform="translate(-81.187 -177.366)"/>
                    <path id="Trazado_776930" data-name="Trazado 776930" d="M140.6,238.16c-.876-1.389-1.752-.989-1.874-.8a.686.686,0,0,0,.319.8h0a2.651,2.651,0,0,0,1.752.341c-.067-.127-.135-.237-.2-.341Z" transform="translate(-81.187 -187.484)"/>
                    <path id="Trazado_776931" data-name="Trazado 776931" d="M114.726,225.359c-.129.208-.049,1.255,2.07,1.14C115.859,224.7,114.854,225.151,114.726,225.359Z" transform="translate(-71.888 -182.424)"/>
                    <path id="Trazado_776932" data-name="Trazado 776932" d="M115.177,201.158c-.1.035-.214.064-.319.1a.363.363,0,0,0-.122.1c-.129.208-.049,1.256,2.07,1.14-.594-1.14-1.219-1.377-1.623-1.342Z" transform="translate(-71.892 -172.31)"/>
                    <path id="Trazado_776933" data-name="Trazado 776933" d="M46.8,282.98c-.251,0-1.17.6,0,2.262C47.973,283.57,47.054,282.98,46.8,282.98Z" transform="translate(-45.363 -206.794)"/>
                    <path id="Trazado_776934" data-name="Trazado 776934" d="M70.8,294.98c-.251,0-1.17.6,0,2.262C71.973,295.57,71.054,294.98,70.8,294.98Z" transform="translate(-54.662 -211.851)"/>
                    <path id="Trazado_776935" data-name="Trazado 776935" d="M94.8,258.98c-.251,0-1.17.6,0,2.262C95.973,259.57,95.054,258.98,94.8,258.98Z" transform="translate(-63.96 -196.68)"/>
                    <path id="Trazado_776936" data-name="Trazado 776936" d="M70.8,270.98c-.251,0-1.17.6,0,2.262C71.973,271.57,71.054,270.98,70.8,270.98Z" transform="translate(-54.662 -201.737)"/>
                    <path id="Trazado_776937" data-name="Trazado 776937" d="M118.8,270.98c-.251,0-1.17.6,0,2.262C119.973,271.57,119.054,270.98,118.8,270.98Z" transform="translate(-73.258 -201.737)"/>
                    <path id="Trazado_776938" data-name="Trazado 776938" d="M70.8,246.98c-.251,0-1.17.6,0,2.262C71.973,247.57,71.054,246.98,70.8,246.98Z" transform="translate(-54.662 -191.622)"/>
                    <path id="Trazado_776939" data-name="Trazado 776939" d="M118.8,246.98c-.251,0-1.17.6,0,2.262C119.973,247.57,119.054,246.98,118.8,246.98Z" transform="translate(-73.258 -191.622)"/>
                    <path id="Trazado_776940" data-name="Trazado 776940" d="M48.21,286.5c2.119.116,2.2-.932,2.07-1.14S49.147,284.707,48.21,286.5Z" transform="translate(-46.133 -207.711)"/>
                    <path id="Trazado_776941" data-name="Trazado 776941" d="M72.8,297.917c.545-.191,1.078-.405,1.6-.648C74.142,297.1,73.486,297,72.8,297.917Z" transform="translate(-55.66 -212.768)"/>
                    <path id="Trazado_776942" data-name="Trazado 776942" d="M50.732,261.384a.52.52,0,0,0-.288-.174c-.38.457-.741.9-1.054,1.3C50.8,262.379,50.842,261.563,50.732,261.384Z" transform="translate(-46.591 -197.619)"/>
                    <path id="Trazado_776943" data-name="Trazado 776943" d="M96.21,262.5c2.119.116,2.2-.931,2.07-1.14S97.147,260.707,96.21,262.5Z" transform="translate(-64.73 -197.596)"/>
                    <path id="Trazado_776944" data-name="Trazado 776944" d="M72.21,274.5c2.12.116,2.2-.932,2.07-1.14S73.147,272.707,72.21,274.5Z" transform="translate(-55.432 -202.653)"/>
                    <path id="Trazado_776945" data-name="Trazado 776945" d="M120.21,274.5c2.12.116,2.2-.932,2.07-1.14S121.147,272.707,120.21,274.5Z" transform="translate(-74.028 -202.653)"/>
                    <path id="Trazado_776946" data-name="Trazado 776946" d="M72.21,250.5c2.12.116,2.2-.932,2.07-1.14S73.147,248.707,72.21,250.5Z" transform="translate(-55.432 -192.539)"/>
                    <path id="Trazado_776947" data-name="Trazado 776947" d="M120.21,250.5c2.12.116,2.2-.932,2.07-1.14S121.147,248.707,120.21,250.5Z" transform="translate(-74.028 -192.539)"/>
                    <path id="Trazado_776948" data-name="Trazado 776948" d="M66.726,297.361c-.116.191-.055,1.07,1.55,1.14.153-.029.312-.064.466-.1C67.823,296.725,66.849,297.159,66.726,297.361Z" transform="translate(-53.292 -212.768)"/>
                    <path id="Trazado_776949" data-name="Trazado 776949" d="M138.726,285.359c-.129.208-.049,1.255,2.07,1.14C139.859,284.7,138.854,285.151,138.726,285.359Z" transform="translate(-81.187 -207.709)"/>
                    <path id="Trazado_776950" data-name="Trazado 776950" d="M90.726,261.359c-.129.208-.049,1.256,2.07,1.14C91.859,260.7,90.854,261.151,90.726,261.359Z" transform="translate(-62.59 -197.595)"/>
                    <path id="Trazado_776951" data-name="Trazado 776951" d="M66.726,273.359c-.129.208-.049,1.256,2.07,1.14C67.859,272.7,66.854,273.151,66.726,273.359Z" transform="translate(-53.292 -202.652)"/>
                    <path id="Trazado_776952" data-name="Trazado 776952" d="M138.726,261.359c-.129.208-.049,1.256,2.07,1.14C139.859,260.7,138.854,261.151,138.726,261.359Z" transform="translate(-81.187 -197.595)"/>
                    <path id="Trazado_776953" data-name="Trazado 776953" d="M66.726,249.359c-.129.208-.049,1.255,2.07,1.14C67.859,248.7,66.854,249.151,66.726,249.359Z" transform="translate(-53.292 -192.538)"/>
                    <path id="Trazado_776954" data-name="Trazado 776954" d="M114.726,249.359c-.129.208-.049,1.255,2.07,1.14C115.859,248.7,114.854,249.151,114.726,249.359Z" transform="translate(-71.888 -192.538)"/>
                    <path id="Trazado_776955" data-name="Trazado 776955" d="M97.962,238.16h0a.7.7,0,0,0,.319-.8c-.116-.191-.992-.59-1.874.8h0a3.7,3.7,0,0,0-.2.341A2.686,2.686,0,0,0,97.962,238.16Z" transform="translate(-64.73 -187.484)"/>
                    <path id="Trazado_776956" data-name="Trazado 776956" d="M118.8,366.98c-.251,0-1.17.6,0,2.262C119.973,367.57,119.054,366.98,118.8,366.98Z" transform="translate(-73.258 -242.194)"/>
                    <path id="Trazado_776957" data-name="Trazado 776957" d="M119.615,345.37q-.257.4-.515.816a.387.387,0,0,0,.043.064A3.613,3.613,0,0,0,119.615,345.37Z" transform="translate(-73.598 -233.087)"/>
                    <path id="Trazado_776958" data-name="Trazado 776958" d="M120.21,370.5c2.12.116,2.2-.932,2.07-1.14S121.147,368.707,120.21,370.5Z" transform="translate(-74.028 -243.111)"/>
                    <path id="Trazado_776959" data-name="Trazado 776959" d="M120.21,346.5c2.12.116,2.2-.931,2.07-1.14S121.147,344.707,120.21,346.5Z" transform="translate(-74.028 -232.996)"/>
                    <path id="Trazado_776960" data-name="Trazado 776960" d="M138.726,357.359c-.129.208-.049,1.255,2.07,1.14C139.859,356.7,138.854,357.151,138.726,357.359Z" transform="translate(-81.187 -238.052)"/>
                    <path id="Trazado_776961" data-name="Trazado 776961" d="M140.6,382.161a2.553,2.553,0,0,0-.674-.758,1.306,1.306,0,0,0-.165-.1,1.139,1.139,0,0,0-.447-.139h-.129a.647.647,0,0,0-.466.2.686.686,0,0,0,.319.8h0a2.65,2.65,0,0,0,1.752.341c-.067-.127-.135-.237-.2-.341h0Z" transform="translate(-81.183 -248.17)"/>
                    <path id="Trazado_776962" data-name="Trazado 776962" d="M114.726,369.359c-.129.208-.049,1.256,2.07,1.14C115.859,368.7,114.854,369.151,114.726,369.359Z" transform="translate(-71.888 -243.109)"/>
                    <path id="Trazado_776963" data-name="Trazado 776963" d="M138.726,333.359c-.129.208-.049,1.255,2.07,1.14C139.859,332.7,138.854,333.151,138.726,333.359Z" transform="translate(-81.187 -227.938)"/>
                    <path id="Trazado_776964" data-name="Trazado 776964" d="M140.6,310.16a3.3,3.3,0,0,0-.331-.446,2.087,2.087,0,0,0-.343-.312,1.158,1.158,0,0,0-.735-.243.647.647,0,0,0-.466.2.531.531,0,0,0,.043.48.9.9,0,0,0,.153.208c.037.035.08.069.123.1h0a2.651,2.651,0,0,0,1.752.341c-.061-.11-.116-.214-.178-.312a.121.121,0,0,0-.024-.035Z" transform="translate(-81.187 -217.826)"/>
                    <path id="Trazado_776965" data-name="Trazado 776965" d="M118.8,390.98c-.251,0-1.17.6,0,2.262C119.973,391.57,119.054,390.98,118.8,390.98Z" transform="translate(-73.258 -252.308)"/>
                    <path id="Trazado_776966" data-name="Trazado 776966" d="M120.21,394.5c2.12.116,2.2-.931,2.07-1.14S121.147,392.707,120.21,394.5Z" transform="translate(-74.028 -253.225)"/>
                    <path id="Trazado_776967" data-name="Trazado 776967" d="M114.726,393.359c-.129.208-.049,1.255,2.07,1.14C115.859,392.7,114.854,393.151,114.726,393.359Z" transform="translate(-71.888 -253.224)"/>
                    <path id="Trazado_776968" data-name="Trazado 776968" d="M44.82,285.67c.123.359.263.712.417,1.053.123,0,.245,0,.386-.006A3.185,3.185,0,0,0,44.82,285.67Z" transform="translate(-44.82 -207.928)"/>
                  </g>
                </g>
                <path id="Trazado_776970" data-name="Trazado 776970" d="M187.543,292.416a63.322,63.322,0,0,0-5.5-28.414c-6.6-14.2-8.1-15.24-8.1-19.394s4.429-9.014,5.164-18.37a97.987,97.987,0,0,0,.368-13.863s15.774,23.559,26.782,24.948,17.611-8.314,13.575-21.482-21.642-23.907-28.613-32.568-22.745-8.661-30.818-8.661-12.1-2.771-13.575-7.967-1.47-15.592-1.47-15.592-9.538,5.543-25.679-.694c0,0,1.47,19.058-.368,21.829s-4.4,5.543-15.406,5.543-20.178,2.077-25.311,6.931-26.414,24.254-31.915,31.879-2.567,15.94,4.037,19.058,13.207.347,17.979-3.813S88.5,214.466,88.5,214.466s0,7.967,4.037,19.405,7.339,10.05,4.4,18.364-8.8,10.744-10.64,21.482a96.5,96.5,0,0,0-1.47,18.711" transform="translate(-43.792 -150.36)" fill="none" stroke="#263238" stroke-linecap="round" stroke-linejoin="round" stroke-width="1"/>
              </g>
              <g id="Grupo_1073828" data-name="Grupo 1073828" transform="translate(44.704 53.078)">
                <path id="Trazado_776971" data-name="Trazado 776971" d="M116.77,253.116a41.406,41.406,0,0,1,2.42-11.016" transform="translate(-116.77 -242.1)" fill="#fff" stroke="#263238" stroke-linecap="round" stroke-linejoin="round" stroke-width="1"/>
                <path id="Trazado_776972" data-name="Trazado 776972" d="M263.171,251.49a41.292,41.292,0,0,0-3.351-8.32" transform="translate(-172.192 -242.551)" fill="none" stroke="#263238" stroke-linecap="round" stroke-linejoin="round" stroke-width="1"/>
                <line id="Línea_264" data-name="Línea 264" y1="7.001" x2="23.1" transform="translate(37.067 40.344)" fill="none" stroke="#263238" stroke-linecap="round" stroke-linejoin="round" stroke-width="1"/>
                <path id="Trazado_776973" data-name="Trazado 776973" d="M194.36,310.822a78.14,78.14,0,0,1,16.778-4.322" transform="translate(-146.831 -269.24)" fill="none" stroke="#263238" stroke-linecap="round" stroke-linejoin="round" stroke-width="1"/>
              </g>
            </g>
            <g id="Grupo_1073831" data-name="Grupo 1073831" transform="translate(71.72 68.141)">
              <path id="Trazado_776974" data-name="Trazado 776974" d="M172.585,200.93c18.3,3.338,25.36-13.238,27.823-26.481-6.1-.631-9.311-3.309-10.579-7.822-1.47-5.2-1.47-15.592-1.47-15.592s-9.538,5.543-25.679-.694c0,0,1.47,19.058-.368,21.829-1.28,1.932-2.916,3.859-7.51,4.854-.165,5.919,1.1,20.863,17.783,23.9Z" transform="translate(-154.79 -150.34)" fill="#f5b78d"/>
              <g id="Grupo_1073830" data-name="Grupo 1073830" clip-path="url(#clip-path-2)">
                <path id="Trazado_776975" data-name="Trazado 776975" d="M194.425,164.914a91.564,91.564,0,0,1-1.066-13.88s-9.538,5.543-25.679-.694c0,0,.613,7.967.551,14.349,13.905,4.553,21.924,2.621,26.2.226Z" transform="translate(-159.784 -150.34)" fill="#f5b78d" opacity="0.2"/>
              </g>
              <path id="Trazado_776977" data-name="Trazado 776977" d="M172.585,200.93c18.3,3.338,25.36-13.238,27.823-26.481-6.1-.631-9.311-3.309-10.579-7.822-1.47-5.2-1.47-15.592-1.47-15.592s-9.538,5.543-25.679-.694c0,0,1.47,19.058-.368,21.829-1.28,1.932-2.916,3.859-7.51,4.854-.165,5.919,1.1,20.863,17.783,23.9Z" transform="translate(-154.79 -150.34)" fill="none" stroke="#263238" stroke-linecap="round" stroke-linejoin="round" stroke-width="1"/>
            </g>
            <g id="Grupo_1073835" data-name="Grupo 1073835" transform="translate(64.087 19.53)">
              <ellipse id="Elipse_5105" data-name="Elipse 5105" cx="4.545" cy="4.293" rx="4.545" ry="4.293" transform="translate(48.559 34.078)" fill="#5b92fe" stroke="#263238" stroke-linecap="round" stroke-linejoin="round" stroke-width="1"/>
              <ellipse id="Elipse_5106" data-name="Elipse 5106" cx="4.545" cy="4.293" rx="4.545" ry="4.293" transform="translate(0 34.078)" fill="#5b92fe" stroke="#263238" stroke-linecap="round" stroke-linejoin="round" stroke-width="1"/>
              <path id="Trazado_776978" data-name="Trazado 776978" d="M227.547,103.848s2.273-6.636,4.956-4.293-.827,11.317-2.683,13.463-3.718,2.146-3.51-.781S227.547,103.848,227.547,103.848Z" transform="translate(-174.86 -80.115)" fill="#f5b78d" stroke="#263238" stroke-linecap="round" stroke-linejoin="round" stroke-width="1"/>
              <g id="Grupo_1073834" data-name="Grupo 1073834" transform="translate(5.697)">
                <g id="Grupo_1073833" data-name="Grupo 1073833">
                  <path id="Trazado_776979" data-name="Trazado 776979" d="M151.63,96.735s.619,15.5,12.7,23.1,21.054,3.217,26.01-3.217,8.049-12.867,8.049-22.229,1.237-13.452-2.169-19.3-15.173-8.771-15.173-8.771A179.375,179.375,0,0,1,165.254,82.7,129.781,129.781,0,0,0,151.63,96.735Z" transform="translate(-151.63 -66.32)" fill="#f5b78d"/>
                  <g id="Grupo_1073832" data-name="Grupo 1073832" clip-path="url(#clip-path-3)">
                    <path id="Trazado_776980" data-name="Trazado 776980" d="M181.056,66.31a179.374,179.374,0,0,1-15.792,16.379A129.779,129.779,0,0,0,151.64,96.725a33.781,33.781,0,0,0,1.881,8.869c16.319-11.8,25.238-32.984,27.609-39.268-.043-.012-.074-.017-.074-.017Z" transform="translate(-151.634 -66.316)" fill="#e19d6f" opacity="0.68"/>
                  </g>
                  <path id="Trazado_776982" data-name="Trazado 776982" d="M151.63,96.735s.619,15.5,12.7,23.1,21.054,3.217,26.01-3.217,8.049-12.867,8.049-22.229,1.237-13.452-2.169-19.3-15.173-8.771-15.173-8.771A179.375,179.375,0,0,1,165.254,82.7,129.781,129.781,0,0,0,151.63,96.735Z" transform="translate(-151.63 -66.32)" fill="none" stroke="#263238" stroke-linecap="round" stroke-linejoin="round" stroke-width="1"/>
                </g>
                <line id="Línea_265" data-name="Línea 265" x2="6.959" y2="0.619" transform="translate(11.424 28.587)" fill="none" stroke="#263238" stroke-linecap="round" stroke-linejoin="round" stroke-width="1"/>
                <path id="Trazado_776983" data-name="Trazado 776983" d="M204.69,115.114s4.564-.822,6.738,0" transform="translate(-172.187 -86.729)" fill="none" stroke="#263238" stroke-linecap="round" stroke-linejoin="round" stroke-width="1"/>
                <path id="Trazado_776984" data-name="Trazado 776984" d="M178.018,108.489c0,1.562-.741,2.829-1.654,2.829s-1.654-1.267-1.654-2.829.741-2.829,1.654-2.829S178.018,106.927,178.018,108.489Z" transform="translate(-160.572 -82.899)" fill="#263238"/>
                <path id="Trazado_776985" data-name="Trazado 776985" d="M186.18,127.154a6.311,6.311,0,0,0,7.228-.584" transform="translate(-165.016 -91.711)" fill="none" stroke="#263238" stroke-linecap="round" stroke-linejoin="round" stroke-width="1"/>
                <path id="Trazado_776986" data-name="Trazado 776986" d="M189.22,134.928s6.408,2.534,10.126-5.658" transform="translate(-166.193 -92.849)" fill="none" stroke="#263238" stroke-linecap="round" stroke-linejoin="round" stroke-width="1"/>
                <path id="Trazado_776987" data-name="Trazado 776987" d="M202.71,109.64s3.927-2.534,7.853-.978" transform="translate(-171.42 -83.951)" fill="none" stroke="#263238" stroke-linecap="round" stroke-linejoin="round" stroke-width="2"/>
                <path id="Trazado_776988" data-name="Trazado 776988" d="M200.68,98.078a8.851,8.851,0,0,1,10.328-.781" transform="translate(-170.633 -78.829)" fill="none" stroke="#263238" stroke-linecap="round" stroke-linejoin="round" stroke-width="2"/>
                <path id="Trazado_776989" data-name="Trazado 776989" d="M179.892,94.019s-3.718-3.512-8.882-.2" transform="translate(-159.138 -77.31)" fill="none" stroke="#263238" stroke-linecap="round" stroke-linejoin="round" stroke-width="2"/>
              </g>
            </g>
            <g id="Grupo_1073839" data-name="Grupo 1073839" transform="translate(0 134.324)">
              <g id="Grupo_1073838" data-name="Grupo 1073838">
                <path id="Trazado_776990" data-name="Trazado 776990" d="M44.314,264.73s-6.6,6.931-6.6,14.2,4.4,13.863,16.509,24.254S77.7,321.2,82.464,323.628,92,322.934,92,322.934s7.89,7.452,8.8,5.716-2.75-4.333-3.486-5.369a14.91,14.91,0,0,0-2.2-2.251s3.853.521,5.317,1.73,3.853,3.292,4.95,3.119,1.1-1.041-.551-3.119a19.185,19.185,0,0,0-4.772-4.16c-1.1-.694-4.772-2.6-4.772-2.6s5.317-.347,7.155.694,6.787,4.16,7.155,2.771.368-2.251-1.47-3.813a19.948,19.948,0,0,0-7.706-3.813,24.214,24.214,0,0,1-4.4-1.215,31.834,31.834,0,0,1,5.685-1.389c1.464,0,7.339,2.771,8.986,2.424s.735-1.73-.551-2.6a32.3,32.3,0,0,0-9.354-3.118c-2.383-.174-15.774,4.16-17.428,4.16s-5.868-5.543-10.273-12.995-6.052-19.058-15.406-23.044" transform="translate(-37.71 -264.73)" fill="#5b92fe"/>
                <g id="Grupo_1073837" data-name="Grupo 1073837" clip-path="url(#clip-path-4)">
                  <g id="Grupo_1073836" data-name="Grupo 1073836" transform="translate(3.049 10.559)" opacity="0.2">
                    <path id="Trazado_776991" data-name="Trazado 776991" d="M47.17,285.242c1.17-1.672.251-2.262,0-2.262C47.421,282.98,48.34,283.576,47.17,285.242Z" transform="translate(-44.424 -282.98)"/>
                    <path id="Trazado_776992" data-name="Trazado 776992" d="M47.17,306.98c.251,0,1.17.6,0,2.262C48.34,307.57,47.421,306.98,47.17,306.98Z" transform="translate(-44.424 -293.094)"/>
                    <path id="Trazado_776993" data-name="Trazado 776993" d="M70.8,294.98c-.251,0-1.17.6,0,2.262C71.973,295.57,71.054,294.98,70.8,294.98Z" transform="translate(-53.355 -288.037)"/>
                    <path id="Trazado_776994" data-name="Trazado 776994" d="M50.27,285.36c-.129-.208-1.133-.654-2.07,1.14C50.319,286.616,50.4,285.569,50.27,285.36Z" transform="translate(-44.823 -283.897)"/>
                    <path id="Trazado_776995" data-name="Trazado 776995" d="M50.208,310.06a.9.9,0,0,0,.153-.208.574.574,0,0,0,.043-.48.625.625,0,0,0-.466-.2,1.124,1.124,0,0,0-.735.243,2.09,2.09,0,0,0-.343.312,3.3,3.3,0,0,0-.331.445h1.556a1.084,1.084,0,0,0,.123-.1Z" transform="translate(-44.951 -294.016)"/>
                    <path id="Trazado_776996" data-name="Trazado 776996" d="M74.27,297.36c-.129-.208-1.133-.654-2.07,1.14C74.32,298.616,74.4,297.569,74.27,297.36Z" transform="translate(-54.121 -288.954)"/>
                    <path id="Trazado_776997" data-name="Trazado 776997" d="M68.8,298.5c-.937-1.8-1.942-1.348-2.07-1.14S66.677,298.615,68.8,298.5Z" transform="translate(-51.985 -288.953)"/>
                    <path id="Trazado_776998" data-name="Trazado 776998" d="M47.17,282.98v2.262C48.34,283.57,47.421,282.98,47.17,282.98Z" transform="translate(-44.424 -282.98)"/>
                    <path id="Trazado_776999" data-name="Trazado 776999" d="M47.17,306.98v2.262C48.34,307.57,47.421,306.98,47.17,306.98Z" transform="translate(-44.424 -293.094)"/>
                    <path id="Trazado_777000" data-name="Trazado 777000" d="M94.864,354.98a.657.657,0,0,0-.484.388c.349.243.7.48,1.035.717C95.568,355.292,95.048,354.98,94.864,354.98Z" transform="translate(-62.714 -313.323)"/>
                    <path id="Trazado_777001" data-name="Trazado 777001" d="M118.814,366.98a.718.718,0,0,0-.564.642,10.988,10.988,0,0,0,1.1-.139.69.69,0,0,0-.533-.5Z" transform="translate(-71.962 -318.38)"/>
                    <path id="Trazado_777002" data-name="Trazado 777002" d="M94.8,330.98c-.251,0-1.17.6,0,2.262C95.973,331.57,95.054,330.98,94.8,330.98Z" transform="translate(-62.653 -303.209)"/>
                    <path id="Trazado_777003" data-name="Trazado 777003" d="M118.8,345.242c1.17-1.672.251-2.262,0-2.262S117.633,343.576,118.8,345.242Z" transform="translate(-71.952 -308.266)"/>
                    <path id="Trazado_777004" data-name="Trazado 777004" d="M70.8,321.242c1.17-1.672.251-2.262,0-2.262S69.633,319.576,70.8,321.242Z" transform="translate(-53.355 -298.151)"/>
                    <path id="Trazado_777005" data-name="Trazado 777005" d="M98.716,357.36c-.1-.156-.686-.445-1.366.174.337.226.668.451.986.665A.716.716,0,0,0,98.716,357.36Z" transform="translate(-63.865 -314.24)"/>
                    <path id="Trazado_777006" data-name="Trazado 777006" d="M96.21,334.5c2.119.116,2.2-.932,2.07-1.14S97.147,332.707,96.21,334.5Z" transform="translate(-63.423 -304.125)"/>
                    <path id="Trazado_777007" data-name="Trazado 777007" d="M120.21,346.5c2.12.116,2.2-.931,2.07-1.14S121.147,344.707,120.21,346.5Z" transform="translate(-72.722 -309.182)"/>
                    <path id="Trazado_777008" data-name="Trazado 777008" d="M72.21,322.5c2.12.116,2.2-.932,2.07-1.14S73.147,320.707,72.21,322.5Z" transform="translate(-54.125 -299.068)"/>
                    <path id="Trazado_777009" data-name="Trazado 777009" d="M140.582,358.618c-.533-.393-1.011-.712-1.384-.943-.116-.069-.263-.162-.423-.255a.382.382,0,0,0-.049.052C138.6,357.669,138.677,358.652,140.582,358.618Z" transform="translate(-79.881 -314.351)"/>
                    <path id="Trazado_777010" data-name="Trazado 777010" d="M92.8,334.5c-.937-1.8-1.942-1.348-2.07-1.14S90.677,334.615,92.8,334.5Z" transform="translate(-61.284 -304.124)"/>
                    <path id="Trazado_777011" data-name="Trazado 777011" d="M114.726,345.359c-.129.208-.049,1.255,2.07,1.14C115.859,344.7,114.854,345.151,114.726,345.359Z" transform="translate(-70.582 -309.181)"/>
                    <path id="Trazado_777012" data-name="Trazado 777012" d="M66.726,321.359c-.129.208-.049,1.256,2.07,1.14C67.859,320.7,66.854,321.151,66.726,321.359Z" transform="translate(-51.985 -299.067)"/>
                    <path id="Trazado_777013" data-name="Trazado 777013" d="M49.958,310.89H48.4a.165.165,0,0,1-.025.035c-.061.093-.116.2-.178.312a2.687,2.687,0,0,0,1.752-.341Z" transform="translate(-44.823 -294.742)"/>
                    <path id="Trazado_777014" data-name="Trazado 777014" d="M46.8,282.98c-.251,0-1.17.6,0,2.262Z" transform="translate(-44.057 -282.98)"/>
                    <path id="Trazado_777015" data-name="Trazado 777015" d="M46.8,309.242V306.98C46.552,306.98,45.633,307.576,46.8,309.242Z" transform="translate(-44.057 -293.094)"/>
                    <path id="Trazado_777016" data-name="Trazado 777016" d="M44.8,286.5c-.937-1.8-1.942-1.348-2.07-1.14S42.677,286.615,44.8,286.5Z" transform="translate(-42.687 -283.895)"/>
                    <path id="Trazado_777017" data-name="Trazado 777017" d="M45.026,309.871a2.084,2.084,0,0,0-.343-.312c-.012-.012-.031-.017-.043-.029.19.26.38.521.582.787h.135A3.3,3.3,0,0,0,45.026,309.871Z" transform="translate(-43.444 -294.169)"/>
                    <path id="Trazado_777018" data-name="Trazado 777018" d="M45.739,310.925a.166.166,0,0,0-.025-.035H45.58c.086.116.178.231.27.347h.061c-.061-.11-.116-.214-.178-.312Z" transform="translate(-43.808 -294.742)"/>
                  </g>
                </g>
                <path id="Trazado_777020" data-name="Trazado 777020" d="M44.314,264.73s-6.6,6.931-6.6,14.2,4.4,13.863,16.509,24.254S77.7,321.2,82.464,323.628,92,322.934,92,322.934s7.89,7.452,8.8,5.716-2.75-4.333-3.486-5.369a14.91,14.91,0,0,0-2.2-2.251s3.853.521,5.317,1.73,3.853,3.292,4.95,3.119,1.1-1.041-.551-3.119a19.185,19.185,0,0,0-4.772-4.16c-1.1-.694-4.772-2.6-4.772-2.6s5.317-.347,7.155.694,6.787,4.16,7.155,2.771.368-2.251-1.47-3.813a19.948,19.948,0,0,0-7.706-3.813,24.214,24.214,0,0,1-4.4-1.215,31.834,31.834,0,0,1,5.685-1.389c1.464,0,7.339,2.771,8.986,2.424s.735-1.73-.551-2.6a32.3,32.3,0,0,0-9.354-3.118c-2.383-.174-15.774,4.16-17.428,4.16s-5.868-5.543-10.273-12.995-6.052-19.058-15.406-23.044" transform="translate(-37.71 -264.73)" fill="none" stroke="#263238" stroke-linecap="round" stroke-linejoin="round" stroke-width="1"/>
              </g>
              <path id="Trazado_777021" data-name="Trazado 777021" d="M114.52,322.125a32.3,32.3,0,0,0-9.354-3.118c-2.383-.174-15.774,4.16-17.428,4.16s-5.868-5.543-10.273-12.995c-2.444-4.137-4.043-9.558-6.585-14.244-13.477-1.713-19.259,5.711-21.93,11.062a97.68,97.68,0,0,0,9.617,9.246c12.1,10.4,23.48,18.017,28.246,20.441s9.538-.694,9.538-.694,7.89,7.452,8.8,5.716-2.75-4.334-3.486-5.369a14.91,14.91,0,0,0-2.2-2.251s3.853.521,5.317,1.73,3.853,3.292,4.95,3.118,1.1-1.041-.551-3.118a19.185,19.185,0,0,0-4.772-4.16c-1.1-.694-4.772-2.6-4.772-2.6s5.317-.347,7.155.694,6.787,4.16,7.155,2.771.368-2.251-1.47-3.813a19.946,19.946,0,0,0-7.706-3.813,24.207,24.207,0,0,1-4.4-1.215,31.835,31.835,0,0,1,5.685-1.389c1.464,0,7.339,2.771,8.986,2.424s.735-1.73-.551-2.6Z" transform="translate(-42.065 -277.772)" fill="#f5b78d" stroke="#263238" stroke-linecap="round" stroke-linejoin="round" stroke-width="1"/>
            </g>
            <g id="Grupo_1073843" data-name="Grupo 1073843" transform="translate(146.028 39.055)">
              <g id="Grupo_1073842" data-name="Grupo 1073842" transform="translate(0.012 0.006)">
                <path id="Trazado_777022" data-name="Trazado 777022" d="M282.17,201.849c-1.531-3.3-.221-10.536,1.311-20.863s3.063-20.863,3.063-26.441.98-13.324-.943-15.8-8.925-9.257-9.446-12.393,4.2-7.932,4.2-7.932,1.4-2.476,2.622-1.157.7,2.974,0,5.288-1.4,4.131-1.4,4.131,6.126,1.817,7.7.827,1.433-6.648,1.323-9.413c-.227-5.4-2.518-3.1-4.1-.538-.76,1.227-5.25.5-2.622-2.644s5.06-5.913,7.51-3.431,4.2,7.273,4.2,7.273,1.752-7.874,3.345-12.5,4.447-6.463,5.47-6.139.913,1.938-.116,4.2-3.308,8.5-3.878,10.553-.686,4.414.453,4.2,5.133-6.787,6.273-9.587,2.849-5.386,4.79-6.567,3.535.324,2.738,2.262a96.364,96.364,0,0,1-5.36,10.229,42.993,42.993,0,0,0-3.191,6.677,78.516,78.516,0,0,1,5.93-5.386c2.738-2.152,5.7-2.586,6.616-1.828s.116.862-2.169,2.586-5.7,3.766-8.435,7.967a38.168,38.168,0,0,0-4.9,9.905,32.909,32.909,0,0,1-3.308,6.567s2.138,16.4,5.838,25.417,10.261,22.211,8.264,31.636-5.844,14.268-11.259,15.749a10.923,10.923,0,0,1-9.262-1.614" transform="translate(-276.115 -100.077)" fill="#5b92fe"/>
                <g id="Grupo_1073841" data-name="Grupo 1073841" clip-path="url(#clip-path-5)">
                  <g id="Grupo_1073840" data-name="Grupo 1073840" transform="translate(4.028 3.189)" opacity="0.2">
                    <path id="Trazado_777023" data-name="Trazado 777023" d="M335.17,114.98a.672.672,0,0,1,.49.4h0A.672.672,0,0,0,335.17,114.98Z" transform="translate(-303.022 -109.547)"/>
                    <path id="Trazado_777024" data-name="Trazado 777024" d="M335.17,114.98v1.354c.165-.324.331-.642.49-.955A.672.672,0,0,0,335.17,114.98Z" transform="translate(-303.022 -109.547)"/>
                    <path id="Trazado_777025" data-name="Trazado 777025" d="M335.17,261.242c1.17-1.672.251-2.262,0-2.262C335.421,258.98,336.34,259.576,335.17,261.242Z" transform="translate(-303.022 -170.233)"/>
                    <path id="Trazado_777026" data-name="Trazado 777026" d="M337.572,262.379c-.012-.388-.031-.775-.061-1.169-.38.1-.851.434-1.311,1.313A3.584,3.584,0,0,0,337.572,262.379Z" transform="translate(-303.421 -171.173)"/>
                    <path id="Trazado_777027" data-name="Trazado 777027" d="M335.17,258.98v2.262C336.34,259.57,335.421,258.98,335.17,258.98Z" transform="translate(-303.022 -170.233)"/>
                    <path id="Trazado_777028" data-name="Trazado 777028" d="M286.8,138.98c-.214,0-.888.422-.41,1.545.153-.469.318-.984.484-1.527a.477.477,0,0,0-.073-.012Z" transform="translate(-284.06 -119.662)"/>
                    <path id="Trazado_777029" data-name="Trazado 777029" d="M310.8,153.242c1.17-1.672.251-2.262,0-2.262S309.633,151.576,310.8,153.242Z" transform="translate(-293.357 -124.719)"/>
                    <path id="Trazado_777030" data-name="Trazado 777030" d="M334.547,116.821c.086-.168.172-.33.257-.5V114.97c-.233,0-1.011.5-.257,1.846Z" transform="translate(-302.657 -109.543)"/>
                    <path id="Trazado_777031" data-name="Trazado 777031" d="M310.8,126.98c-.251,0-1.17.6,0,2.262C311.973,127.57,311.054,126.98,310.8,126.98Z" transform="translate(-293.357 -114.604)"/>
                    <path id="Trazado_777032" data-name="Trazado 777032" d="M291.04,165.842a.574.574,0,0,0,.043-.48.625.625,0,0,0-.466-.2,1.031,1.031,0,0,0-.337.04c.251.289.478.55.662.787a.97.97,0,0,0,.1-.139Z" transform="translate(-285.631 -130.694)"/>
                    <path id="Trazado_777033" data-name="Trazado 777033" d="M314.271,153.36c-.129-.208-1.133-.654-2.07,1.14C314.319,154.616,314.4,153.569,314.271,153.36Z" transform="translate(-294.123 -125.635)"/>
                    <path id="Trazado_777034" data-name="Trazado 777034" d="M313.98,130.141a6.344,6.344,0,0,1,.018-.955c-.392-.11-1.109,0-1.789,1.313a2.614,2.614,0,0,0,1.77-.359Z" transform="translate(-294.127 -115.521)"/>
                    <path id="Trazado_777035" data-name="Trazado 777035" d="M315.318,105.59c-.165.26-.319.544-.478.839A.789.789,0,0,0,315.318,105.59Z" transform="translate(-295.146 -105.59)"/>
                    <path id="Trazado_777036" data-name="Trazado 777036" d="M282.727,141.365c-.123.2-.043,1.2,1.936,1.146.018-.046.037-.1.055-.15-.913-1.614-1.862-1.192-1.985-.989Z" transform="translate(-282.69 -120.583)"/>
                    <path id="Trazado_777037" data-name="Trazado 777037" d="M306.726,153.359c-.129.208-.049,1.255,2.071,1.14C307.859,152.7,306.854,153.151,306.726,153.359Z" transform="translate(-291.987 -125.634)"/>
                    <path id="Trazado_777038" data-name="Trazado 777038" d="M330.726,117.359c-.129.208-.049,1.244,2.046,1.14a.043.043,0,0,1,.012-.023C331.853,116.706,330.854,117.151,330.726,117.359Z" transform="translate(-301.285 -110.463)"/>
                    <path id="Trazado_777039" data-name="Trazado 777039" d="M309.344,130.62a2.766,2.766,0,0,0-.992-1.18c-.1.434-.184.8-.251,1.076A3.829,3.829,0,0,0,309.344,130.62Z" transform="translate(-292.535 -115.641)"/>
                    <path id="Trazado_777040" data-name="Trazado 777040" d="M307.1,130.335c-.1-.243-.221-.527-.361-.845a.02.02,0,0,0-.006.012.713.713,0,0,0,.374.833Z" transform="translate(-291.993 -115.662)"/>
                    <path id="Trazado_777041" data-name="Trazado 777041" d="M310.8,225.242c1.17-1.672.251-2.262,0-2.262S309.633,223.576,310.8,225.242Z" transform="translate(-293.357 -155.062)"/>
                    <path id="Trazado_777042" data-name="Trazado 777042" d="M310.8,198.98c-.251,0-1.17.6,0,2.262C311.973,199.57,311.054,198.98,310.8,198.98Z" transform="translate(-293.357 -144.947)"/>
                    <path id="Trazado_777043" data-name="Trazado 777043" d="M310.8,174.98c-.251,0-1.17.6,0,2.262C311.973,175.57,311.054,174.98,310.8,174.98Z" transform="translate(-293.357 -134.833)"/>
                    <path id="Trazado_777044" data-name="Trazado 777044" d="M291.589,213.62c-.012.122-.031.249-.049.37A.657.657,0,0,0,291.589,213.62Z" transform="translate(-286.119 -151.117)"/>
                    <path id="Trazado_777045" data-name="Trazado 777045" d="M290.4,237.362c-.116-.191-.992-.59-1.868.8h1.556a.7.7,0,0,0,.319-.8Z" transform="translate(-284.953 -161.037)"/>
                    <path id="Trazado_777046" data-name="Trazado 777046" d="M312.21,226.5c2.119.116,2.2-.931,2.07-1.14S313.147,224.707,312.21,226.5Z" transform="translate(-294.127 -155.978)"/>
                    <path id="Trazado_777047" data-name="Trazado 777047" d="M314.271,201.36c-.129-.208-1.133-.654-2.07,1.14C314.319,202.616,314.4,201.569,314.271,201.36Z" transform="translate(-294.123 -145.864)"/>
                    <path id="Trazado_777048" data-name="Trazado 777048" d="M312.206,178.5c1.556.087,2.009-.457,2.089-.839-.018-.116-.037-.231-.055-.341-.214-.214-1.158-.515-2.04,1.18Z" transform="translate(-294.123 -135.748)"/>
                    <path id="Trazado_777049" data-name="Trazado 777049" d="M331.889,237.379a.871.871,0,0,0-1.164-.017.686.686,0,0,0,.319.8h1.139c-.1-.26-.19-.521-.288-.781Z" transform="translate(-301.285 -161.037)"/>
                    <path id="Trazado_777050" data-name="Trazado 777050" d="M306.726,225.359c-.129.208-.049,1.255,2.071,1.14C307.859,224.7,306.854,225.151,306.726,225.359Z" transform="translate(-291.987 -155.977)"/>
                    <path id="Trazado_777051" data-name="Trazado 777051" d="M306.726,201.359c-.129.208-.049,1.255,2.071,1.14C307.859,200.7,306.854,201.151,306.726,201.359Z" transform="translate(-291.987 -145.863)"/>
                    <path id="Trazado_777052" data-name="Trazado 777052" d="M306.726,177.359c-.129.208-.049,1.256,2.071,1.14C307.859,176.7,306.854,177.151,306.726,177.359Z" transform="translate(-291.987 -135.748)"/>
                    <path id="Trazado_777053" data-name="Trazado 777053" d="M310.8,294.98c-.239,0-1.072.532-.172,2,.1.023.2.041.306.058C311.893,295.53,311.048,294.98,310.8,294.98Z" transform="translate(-293.357 -185.405)"/>
                    <path id="Trazado_777054" data-name="Trazado 777054" d="M286.8,261.242c1.17-1.672.251-2.262,0-2.262S285.633,259.576,286.8,261.242Z" transform="translate(-284.059 -170.233)"/>
                    <path id="Trazado_777055" data-name="Trazado 777055" d="M334.8,258.98c-.251,0-1.17.6,0,2.262Z" transform="translate(-302.655 -170.233)"/>
                    <path id="Trazado_777056" data-name="Trazado 777056" d="M310.8,273.242c1.17-1.672.251-2.262,0-2.262S309.633,271.576,310.8,273.242Z" transform="translate(-293.357 -175.29)"/>
                    <path id="Trazado_777057" data-name="Trazado 777057" d="M310.8,246.98c-.251,0-1.17.6,0,2.262C311.973,247.57,311.054,246.98,310.8,246.98Z" transform="translate(-293.357 -165.176)"/>
                    <path id="Trazado_777058" data-name="Trazado 777058" d="M314.433,297.364c-.116-.185-.956-.567-1.813.706a10.776,10.776,0,0,0,1.519.069.669.669,0,0,0,.288-.775Z" transform="translate(-294.286 -186.325)"/>
                    <path id="Trazado_777059" data-name="Trazado 777059" d="M288.21,262.5c2.119.116,2.2-.931,2.07-1.14S289.147,260.707,288.21,262.5Z" transform="translate(-284.829 -171.15)"/>
                    <path id="Trazado_777060" data-name="Trazado 777060" d="M312.21,274.5c2.119.116,2.2-.932,2.07-1.14S313.147,272.707,312.21,274.5Z" transform="translate(-294.127 -176.207)"/>
                    <path id="Trazado_777061" data-name="Trazado 777061" d="M314.271,249.36c-.129-.208-1.133-.654-2.07,1.14C314.319,250.616,314.4,249.569,314.271,249.36Z" transform="translate(-294.123 -166.093)"/>
                    <path id="Trazado_777062" data-name="Trazado 777062" d="M330.726,285.366c-.1.156-.067.81.907,1.059.165-.278.331-.555.49-.851-.7-.654-1.3-.359-1.4-.2Z" transform="translate(-301.286 -181.27)"/>
                    <path id="Trazado_777063" data-name="Trazado 777063" d="M307.32,297.179c.319.145.68.284,1.072.417A1.217,1.217,0,0,0,307.32,297.179Z" transform="translate(-292.232 -186.325)"/>
                    <path id="Trazado_777064" data-name="Trazado 777064" d="M285.739,262.89a4.006,4.006,0,0,0-.545-.81c-.024.278-.049.538-.073.8a4.4,4.4,0,0,0,.619,0Z" transform="translate(-283.632 -171.54)"/>
                    <path id="Trazado_777065" data-name="Trazado 777065" d="M332.8,262.5c-.937-1.8-1.942-1.348-2.07-1.14S330.677,262.615,332.8,262.5Z" transform="translate(-301.285 -171.149)"/>
                    <path id="Trazado_777066" data-name="Trazado 777066" d="M306.726,273.359c-.129.208-.049,1.256,2.071,1.14C307.859,272.7,306.854,273.151,306.726,273.359Z" transform="translate(-291.987 -176.206)"/>
                    <path id="Trazado_777067" data-name="Trazado 777067" d="M306.726,249.359c-.129.208-.049,1.255,2.071,1.14C307.859,248.7,306.854,249.151,306.726,249.359Z" transform="translate(-291.987 -166.091)"/>
                    <path id="Trazado_777068" data-name="Trazado 777068" d="M288.406,238.89c-.067.1-.129.214-.2.341h0a2.687,2.687,0,0,0,1.752-.341Z" transform="translate(-284.829 -161.767)"/>
                    <path id="Trazado_777069" data-name="Trazado 777069" d="M332.409,238.89H331.27a2.268,2.268,0,0,0,1.268.347Z" transform="translate(-301.511 -161.767)"/>
                  </g>
                </g>
                <path id="Trazado_777071" data-name="Trazado 777071" d="M282.17,201.849c-1.531-3.3-.221-10.536,1.311-20.863s3.063-20.863,3.063-26.441.98-13.324-.943-15.8-8.925-9.257-9.446-12.393,4.2-7.932,4.2-7.932,1.4-2.476,2.622-1.157.7,2.974,0,5.288-1.4,4.131-1.4,4.131,6.126,1.817,7.7.827,1.433-6.648,1.323-9.413c-.227-5.4-2.518-3.1-4.1-.538-.76,1.227-5.25.5-2.622-2.644s5.06-5.913,7.51-3.431,4.2,7.273,4.2,7.273,1.752-7.874,3.345-12.5,4.447-6.463,5.47-6.139.913,1.938-.116,4.2-3.308,8.5-3.878,10.553-.686,4.414.453,4.2,5.133-6.787,6.273-9.587,2.849-5.386,4.79-6.567,3.535.324,2.738,2.262a96.364,96.364,0,0,1-5.36,10.229,42.993,42.993,0,0,0-3.191,6.677,78.516,78.516,0,0,1,5.93-5.386c2.738-2.152,5.7-2.586,6.616-1.828s.116.862-2.169,2.586-5.7,3.766-8.435,7.967a38.168,38.168,0,0,0-4.9,9.905,32.909,32.909,0,0,1-3.308,6.567s2.138,16.4,5.838,25.417,10.261,22.211,8.264,31.636-5.844,14.268-11.259,15.749a10.923,10.923,0,0,1-9.262-1.614" transform="translate(-276.115 -100.077)" fill="none" stroke="#263238" stroke-linecap="round" stroke-linejoin="round" stroke-width="1"/>
              </g>
              <path id="Trazado_777072" data-name="Trazado 777072" d="M308.031,125.41c2.738-4.2,6.156-6.249,8.435-7.967s3.081-1.828,2.169-2.586-3.878-.324-6.616,1.828a77.2,77.2,0,0,0-5.93,5.386,42.991,42.991,0,0,1,3.192-6.677,96.389,96.389,0,0,0,5.36-10.229c.8-1.938-.8-3.448-2.738-2.262s-3.651,3.766-4.79,6.567-5.133,9.367-6.273,9.587-1.029-2.152-.453-4.2,2.848-8.291,3.878-10.553,1.139-3.876.116-4.2-3.878,1.51-5.47,6.139-3.345,12.5-3.345,12.5-1.752-4.791-4.2-7.273-4.882.289-7.51,3.431,1.862,3.871,2.622,2.644c1.586-2.557,3.884-4.866,4.1.538.116,2.766.251,8.424-1.323,9.413s-7.7-.827-7.7-.827.7-1.817,1.4-4.131,1.225-3.969,0-5.288-2.622,1.157-2.622,1.157-4.723,4.791-4.2,7.932,7.522,9.917,9.446,12.393.943,10.223.943,15.8-1.531,16.113-3.063,26.441c-.018.133-.037.26-.061.4,2.42,2.4,7.369,5.844,15.688,5.577a16.958,16.958,0,0,0,12.221-5.757c-1.776-4.993-4.006-9.865-5.66-13.9-3.706-9.02-5.838-25.417-5.838-25.417a33.268,33.268,0,0,0,3.308-6.567,38.389,38.389,0,0,1,4.9-9.905Z" transform="translate(-276.095 -100.067)" fill="#f5b78d" stroke="#263238" stroke-linecap="round" stroke-linejoin="round" stroke-width="1"/>
              <path id="Trazado_777073" data-name="Trazado 777073" d="M300.65,163.935s-1.029-4.091.453-6.677a7.564,7.564,0,0,1,3.651-3.338" transform="translate(-285.473 -122.762)" fill="none" stroke="#263238" stroke-linecap="round" stroke-linejoin="round" stroke-width="1"/>
            </g>
          </g>
        </g>
      </g>
    </g>
  </g>
</svg>
