<svg xmlns="http://www.w3.org/2000/svg" width="84.945" height="84.945" viewBox="0 0 84.945 84.945">
  <g id="Grupo_1088059" data-name="Grupo 1088059" transform="translate(-180.027 -12667.537)">
    <path id="Trazado_861606" data-name="Trazado 861606" d="M42.473,0A42.473,42.473,0,1,1,0,42.473,42.473,42.473,0,0,1,42.473,0Z" transform="translate(180.027 12667.536)" fill="#ffb6c8"/>
    <g id="salud-publica" transform="translate(190.558 12671.769)">
      <path id="Trazado_862025" data-name="Trazado 862025" d="M197.04,187.915a4.03,4.03,0,0,0-2.6-3.556,2.74,2.74,0,0,0-3.028.862h0l-.9,1.024a.676.676,0,0,1-1.015,0l-.9-1.024a2.792,2.792,0,0,0-2.115-1.015,2.883,2.883,0,0,0-.914.153,4.03,4.03,0,0,0-2.6,3.556c-.232,2.982,2.328,6.113,7.038,8.625,4.709-2.511,7.27-5.643,7.038-8.625Z" transform="translate(-158.06 -150.897)" fill="#e94444"/>
      <path id="Trazado_862026" data-name="Trazado 862026" d="M55.885,25.447V40.421a.673.673,0,0,1-.036.217A88.953,88.953,0,0,1,47.61,58.083l.585,4.449a.676.676,0,1,1-1.34.176l-.616-4.685a.676.676,0,0,1,.093-.44,87.815,87.815,0,0,0,8.2-17.274V25.447a.075.075,0,0,0-.074-.074,2.653,2.653,0,0,0-2.585,2.622l-.58,10.088a.675.675,0,0,1-.129.36L46.4,44.959l-1.03,4.719a.676.676,0,1,1-1.32-.288L46.2,39.514a1.522,1.522,0,0,0-.776-1.859c-.654-.266-1.615-.089-2.174,1.284L38.528,50.531a11.676,11.676,0,0,0-.723,5.516l.46,6.526a.676.676,0,0,1-1.348.1l-.46-6.527a12.935,12.935,0,0,1,.82-6.121L42,38.428c.87-2.137,2.649-2.549,3.934-2.027a2.846,2.846,0,0,1,1.588,3.4l-.414,1.9,2.848-3.892.569-9.888a3.987,3.987,0,0,1,3.934-3.9,1.427,1.427,0,0,1,1.426,1.426Zm-34,12.982c-.87-2.138-2.65-2.549-3.934-2.027a2.846,2.846,0,0,0-1.589,3.4l.414,1.895-2.848-3.892-.569-9.887a3.987,3.987,0,0,0-3.934-3.9A1.427,1.427,0,0,0,8,25.447V40.421a.675.675,0,0,0,.036.217,88.808,88.808,0,0,0,8.239,17.445l-.585,4.449a.676.676,0,1,0,1.34.176l.616-4.685a.676.676,0,0,0-.093-.44,87.671,87.671,0,0,1-8.2-17.274V25.447a.075.075,0,0,1,.074-.074,2.653,2.653,0,0,1,2.585,2.622l.58,10.087a.675.675,0,0,0,.129.36l4.768,6.517,1.03,4.719a.676.676,0,1,0,1.32-.288l-2.156-9.876a1.522,1.522,0,0,1,.776-1.86c.653-.266,1.615-.089,2.174,1.285l4.723,11.592a11.677,11.677,0,0,1,.723,5.515l-.46,6.527a.676.676,0,0,0,1.348.1l.46-6.527a12.936,12.936,0,0,0-.82-6.12L21.885,38.429Zm10.368,8.578a.675.675,0,0,1-.621,0,18.259,18.259,0,0,1-6.449-5.08,7.528,7.528,0,0,1-1.625-5.014,5.71,5.71,0,0,1,.373-1.629H17.156a.676.676,0,0,1-.676-.676V28.8a3.832,3.832,0,0,1,3.728-3.715A5.461,5.461,0,0,1,19.2,21.856a3.607,3.607,0,0,1,7.213,0,5.461,5.461,0,0,1-1.006,3.226,4.165,4.165,0,0,1,1.357.307,4.34,4.34,0,0,1,2.479-.863,5.78,5.78,0,0,1-1.13-3.515,3.826,3.826,0,0,1,7.651,0,5.78,5.78,0,0,1-1.13,3.515,4.34,4.34,0,0,1,2.48.864,4.136,4.136,0,0,1,1.356-.307,5.461,5.461,0,0,1-1.006-3.226,3.607,3.607,0,1,1,7.213,0,5.461,5.461,0,0,1-1.006,3.225A3.832,3.832,0,0,1,47.4,28.8v5.813a.676.676,0,0,1-.676.676H39.954a5.71,5.71,0,0,1,.373,1.629A7.528,7.528,0,0,1,38.7,41.927a18.26,18.26,0,0,1-6.449,5.08Zm11.2-20.58H38.7a2.8,2.8,0,0,0-.574.06,3.745,3.745,0,0,1,.571,1.984v4.886a5.372,5.372,0,0,1,.5.577H43V30.244a.676.676,0,1,1,1.352,0v3.689h1.7V28.8a2.5,2.5,0,0,0-2.6-2.37Zm-4.63-4.57c0,1.336.7,3.218,2.255,3.218s2.255-1.882,2.255-3.218a2.255,2.255,0,1,0-4.51,0Zm-9.351-.846c0,1.458.768,3.511,2.474,3.511s2.474-2.053,2.474-3.511a2.474,2.474,0,0,0-4.948,0Zm-2.928,7.46V32.4a4.661,4.661,0,0,1,.539-.218,4.321,4.321,0,0,1,.9-.2V29.051a.676.676,0,1,1,1.352,0v3.014a4.26,4.26,0,0,1,2.215,1.367l.393.447.393-.447a4.26,4.26,0,0,1,2.215-1.367V29.051a.676.676,0,1,1,1.352,0v2.931a4.324,4.324,0,0,1,.9.2,4.661,4.661,0,0,1,.539.218V28.47a2.735,2.735,0,0,0-2.849-2.6H29.389a2.735,2.735,0,0,0-2.849,2.6Zm-5.985-6.614c0,1.336.7,3.218,2.255,3.218s2.255-1.882,2.255-3.218a2.255,2.255,0,1,0-4.51,0Zm4.129,12.077a5.38,5.38,0,0,1,.5-.577V28.471a3.746,3.746,0,0,1,.571-1.984,2.814,2.814,0,0,0-.574-.06H20.435a2.5,2.5,0,0,0-2.6,2.37v5.137h1.7V30.244a.676.676,0,1,1,1.352,0v3.689h3.8Zm14.3,3.085a4.03,4.03,0,0,0-2.6-3.556,2.739,2.739,0,0,0-3.028.862h0l-.9,1.024a.676.676,0,0,1-1.015,0l-.9-1.024A2.792,2.792,0,0,0,28.42,33.31a2.882,2.882,0,0,0-.914.153,4.03,4.03,0,0,0-2.6,3.556c-.232,2.982,2.328,6.113,7.038,8.625,4.709-2.511,7.27-5.643,7.038-8.625Zm-3.289,1.394v2.214a.676.676,0,0,1-.676.676H33.724v1.289a.676.676,0,0,1-.676.676H30.837a.676.676,0,0,1-.676-.676V41.3H28.869a.676.676,0,0,1-.676-.676V38.413a.676.676,0,0,1,.676-.676h1.292V36.448a.676.676,0,0,1,.676-.676h2.211a.676.676,0,0,1,.676.676v1.289h1.292A.676.676,0,0,1,35.691,38.413Zm-1.352.676H33.048a.676.676,0,0,1-.676-.676V37.123h-.86v1.289a.676.676,0,0,1-.676.676H29.545v.862h1.292a.676.676,0,0,1,.676.676v1.289h.86V40.626a.676.676,0,0,1,.676-.676H34.34Z"/>
      <path id="Trazado_862027" data-name="Trazado 862027" d="M234,225v-1.289h-.859V225a.676.676,0,0,1-.676.676h-1.292v.862h1.292a.676.676,0,0,1,.676.676V228.5H234v-1.289a.676.676,0,0,1,.676-.676h1.292v-.862h-1.292A.676.676,0,0,1,234,225Z" transform="translate(-201.623 -186.589)" fill="#ebebeb"/>
      <path id="Trazado_862028" data-name="Trazado 862028" d="M117.2,114.951a3.746,3.746,0,0,1,.571-1.984,2.813,2.813,0,0,0-.574-.06h-4.751a2.5,2.5,0,0,0-2.6,2.37v5.137h1.7v-3.689a.676.676,0,0,1,1.352,0v3.689h3.8a5.382,5.382,0,0,1,.5-.577v-4.886Z" transform="translate(-92.014 -86.481)" fill="#fec165"/>
      <path id="Trazado_862029" data-name="Trazado 862029" d="M140.305,47.685c1.555,0,2.255-1.882,2.255-3.218a2.255,2.255,0,0,0-4.51,0C138.05,45.8,138.75,47.685,140.305,47.685Z" transform="translate(-117.495 -22.61)" fill="#fdd7ad"/>
      <path id="Trazado_862030" data-name="Trazado 862030" d="M201.484,113.289v-2.931a.676.676,0,0,1,1.352,0v3.014a4.26,4.26,0,0,1,2.215,1.367l.393.447.393-.447a4.259,4.259,0,0,1,2.215-1.367v-3.014a.676.676,0,1,1,1.352,0v2.931a4.323,4.323,0,0,1,.9.2,4.662,4.662,0,0,1,.539.218v-3.928a2.735,2.735,0,0,0-2.849-2.6H202.89a2.735,2.735,0,0,0-2.849,2.6v3.928a4.663,4.663,0,0,1,.539-.218,4.321,4.321,0,0,1,.9-.2Z" transform="translate(-173.501 -81.307)" fill="#0473ce"/>
      <path id="Trazado_862031" data-name="Trazado 862031" d="M329.488,47.685c1.556,0,2.255-1.882,2.255-3.218a2.255,2.255,0,1,0-4.51,0C327.233,45.8,327.933,47.685,329.488,47.685Z" transform="translate(-288.414 -22.61)" fill="#fdd7ad"/>
      <path id="Trazado_862032" data-name="Trazado 862032" d="M232.848,37.17c1.706,0,2.474-2.053,2.474-3.511a2.474,2.474,0,1,0-4.948,0C230.374,35.117,231.142,37.17,232.848,37.17Z" transform="translate(-200.906 -12.648)" fill="#fdd7ad"/>
      <path id="Trazado_862033" data-name="Trazado 862033" d="M325.368,112.907h-4.751a2.8,2.8,0,0,0-.574.06,3.746,3.746,0,0,1,.571,1.984v4.886a5.369,5.369,0,0,1,.5.577h3.8v-3.689a.676.676,0,1,1,1.352,0v3.689h1.7v-5.137a2.5,2.5,0,0,0-2.6-2.37Z" transform="translate(-281.918 -86.481)" fill="#22b27f"/>
      <g id="Grupo_1088061" data-name="Grupo 1088061" transform="translate(9.352 25.372)">
        <path id="Trazado_862034" data-name="Trazado 862034" d="M38.895,139.914a.676.676,0,0,1-.627-.722l.46-6.527A11.677,11.677,0,0,0,38,127.15l-4.723-11.592c-.559-1.373-1.52-1.55-2.174-1.285a1.522,1.522,0,0,0-.776,1.86l2.156,9.876a.676.676,0,1,1-1.32.288l-1.03-4.719-4.768-6.517a.675.675,0,0,1-.129-.36l-.58-10.087a2.653,2.653,0,0,0-2.585-2.622.075.075,0,0,0-.074.074v14.863A87.672,87.672,0,0,0,30.2,134.2a.676.676,0,0,1,.093.44l-.616,4.685a.676.676,0,0,1-.669.588h9.885Z" transform="translate(-22 -101.992)" fill="#fdd7ad"/>
        <path id="Trazado_862035" data-name="Trazado 862035" d="M324.215,139.329l-.616-4.685a.677.677,0,0,1,.093-.44,87.813,87.813,0,0,0,8.2-17.274V102.067a.075.075,0,0,0-.074-.074,2.653,2.653,0,0,0-2.585,2.622l-.58,10.088a.676.676,0,0,1-.129.36l-4.769,6.517-1.03,4.719a.676.676,0,1,1-1.32-.288l2.156-9.876a1.522,1.522,0,0,0-.776-1.859c-.654-.266-1.615-.089-2.174,1.284l-4.723,11.592a11.676,11.676,0,0,0-.723,5.516l.46,6.526a.676.676,0,0,1-.627.722v0h9.885A.676.676,0,0,1,324.215,139.329Z" transform="translate(-286.712 -101.993)" fill="#fdd7ad"/>
      </g>
    </g>
  </g>
</svg>
