<svg xmlns="http://www.w3.org/2000/svg" xmlns:xlink="http://www.w3.org/1999/xlink" width="213.824" height="341.189" viewBox="0 0 213.824 341.189">
  <defs>
    <clipPath id="clip-path">
      <rect id="Rectángulo_404331" data-name="Rectángulo 404331" width="213.824" height="341.19" transform="translate(1181.356 16231.741)" fill="#fff" stroke="#707070" stroke-width="1" opacity="0.84"/>
    </clipPath>
  </defs>
  <g id="Grupo_1079045" data-name="Grupo 1079045" transform="translate(-1181.356 -16231.741)" clip-path="url(#clip-path)">
    <g id="Grupo_1104600" data-name="Grupo 1104600" transform="translate(2223.12 16643.613)">
      <path id="Trazado_909309" data-name="Trazado 909309" d="M-953.726-210.5a1.147,1.147,0,0,1,.469,1.078c-2.73,11.061-5.39,22.133-8.307,33.159-1.57,5.952-3.656,11.8-5.4,17.728a115.971,115.971,0,0,0-3.4,17.107c-1.641,12.068-3.316,24.125-5.964,36.065a2.055,2.055,0,0,1-.152.328h24.359c.586-2.226,1.125-4.464,1.758-6.69a87.757,87.757,0,0,1,5.929-14.529,97.071,97.071,0,0,0,6.128-16.884c1.8-6.444,3.96-12.83,6.093-19.2a135.066,135.066,0,0,0,4.464-17.9,73.168,73.168,0,0,1,4.089-14.166c.258-.621.187-.855-.586-1.324-1.558-.937-3.351-.726-4.968-1.219-1.019-.316-2.074-.562-3.093-.879a2.04,2.04,0,0,1-1.019-.551,1.5,1.5,0,0,1-.316-1.23c.094-.223.855-.422,1.266-.363,2.777.41,5.53,1,8.319,1.312,2.379.258,4.816.258,7.218.3,2.859.047,5.718.023,8.589.023a2.121,2.121,0,0,1,.609,0,8.379,8.379,0,0,1,1.019.527c-.27.223-.5.574-.82.644a30.676,30.676,0,0,1-3.1.527c-1.183.152-2.367.246-3.55.375-.914.094-1.476.387-1.664,1.3-.516,2.6-1.347,5.167-1.734,7.78a30.371,30.371,0,0,0-.363,7.206,26.973,26.973,0,0,1-1.183,10.041,147.5,147.5,0,0,0-4.417,22.415c-.937,7.7-1.687,15.408-2.472,23.118-.633,6.187-1.2,12.373-1.781,18.571-.023.258-.023.527-.023.8h30.909c.375-2.835.773-5.671,1.113-8.506q.615-5.079,1.136-10.182c.41-3.96.808-7.909,1.172-11.869.258-2.812.469-5.636.668-8.46a38.013,38.013,0,0,1,2.132-10.838,15.919,15.919,0,0,0,.492-2.414c-.375.117-.5.117-.527.176-1.9,3.011-4.242,5.823-5.156,9.268a5.808,5.808,0,0,1-1.5,2.355,3.217,3.217,0,0,1-3.386.937,2.747,2.747,0,0,1-2.015-2.73,5.4,5.4,0,0,1,.48-2.835c2.379-4.077,3.48-8.518,5.05-12.818a38.449,38.449,0,0,1,2.015-4.429,12.535,12.535,0,0,0,1.406-5.378c.082-2.027.246-4.042.4-6.3-1.148.973-2.2,1.828-3.21,2.73A8.391,8.391,0,0,1-901.5-173.9a8.374,8.374,0,0,1-2.027-.07,1.934,1.934,0,0,1-1.84-2.027A5.375,5.375,0,0,1-904-179.438c.961-1.1,1.969-2.191,2.988-3.246a11.049,11.049,0,0,0,2.812-5.87,15.723,15.723,0,0,1,1.312-3.585,3.773,3.773,0,0,1,2.566-1.758c1.066-.3,2.133-.586,3.117-.855-1.1-5.706.609-11.225.726-16.814-.141.059-.41.141-.68.246a50.673,50.673,0,0,1-16.9,3.785c-4.359.223-8.717.281-13.076.434-.281.012-.773.246-.8.422-.176,1.394-.258,2.8-.375,4.277,1.125-.117,2.086-.223,3.046-.328l-.316-2.039h.07c.269.773.539,1.547.867,2.449a1.374,1.374,0,0,1-.633.246c-1.2-.012-2.32.808-3.562.269a.3.3,0,0,0-.164.035c-1.113.422-1.418.3-1.429-.762-.012-1.511.117-3.035.188-4.593-1.91-.117-4.042-.27-6.175-.387a85.357,85.357,0,0,1-23.117-4.089,4.341,4.341,0,0,0-.973-.2,7.926,7.926,0,0,1-.164,1.488A1.228,1.228,0,0,1-953.726-210.5Z" transform="translate(7.605 34.351)" fill="#616d9b"/>
      <path id="Trazado_909310" data-name="Trazado 909310" d="M-849.14-265.133c-.715-3.41-1.312-6.843-2.168-10.229a211.62,211.62,0,0,1-5.3-25.051c-.41-3.164-.738-6.561-3.8-8.963,1.629-1.711,1.617-3.046-.246-4.511a13.965,13.965,0,0,0-3.527-2.074c-8.448-3.292-16.193-7.628-24.043-11.834-1.664-.891-2.589-1.781-2.531-3.5.047-1.289-.82-2.062-2.332-2.414-1.57-.375-3.082-.926-4.6-1.429a1.4,1.4,0,0,1-1.125-1.5c.129-2.449.246-4.9.375-7.335-.516,0-1.031-.012-1.535-.012-.129,1.722-.258,3.433-.281,5.144-.035,2.929.223,5.87.34,8.835-3.117.6-20.8-.715-24.172-1.828.48-2.3,1.031-4.558,1.418-6.831.363-2.074.6-4.148.855-6.116-.668-.047-1.336-.105-2-.141a2.1,2.1,0,0,1-.258-.023c-.129,1.687-.258,3.375-.375,5.062-.035.469-.258.609-.762.762-1.933.562-3.843,1.2-5.753,1.781a4.305,4.305,0,0,0-2.929,2.847,1.589,1.589,0,0,1-.973.82c-5.026,1.277-10.077,2.461-15.091,3.773-3.374.891-6.737,1.851-10.018,2.988a10.283,10.283,0,0,0-5.858,4.827c-.949,1.769-.832,2.39.808,3.7a2.33,2.33,0,0,1-.141.223c-.785.891-1.324,1.781-.527,2.906.129.176-.094.6-.258.867-1.383,2.285-3.023,4.476-4.148,6.843-2.964,6.269-5.706,12.607-8.542,18.911a.373.373,0,0,1-.117.117c-1.2-1.605-2.4-3.2-3.574-4.8-1.324-1.816-2.777-3.574-3.9-5.472a89.6,89.6,0,0,0-6.843-10.112,19.945,19.945,0,0,1-2.461-4.042,5.3,5.3,0,0,1-.48-3.093,22.331,22.331,0,0,1,1.64-4.019,6.42,6.42,0,0,0,1.359-.164,2.709,2.709,0,0,0,1.922-3.878c-.164-.4-.492-.984-.3-1.207a2.952,2.952,0,0,0,.375-3.128,2.238,2.238,0,0,1,.527-2.355,1.81,1.81,0,0,0-.223-2.8,4.672,4.672,0,0,0-1.383-.891c-2.542-1.125-5.109-2.215-7.569-3.281.691-.246,1.453-.551,2.238-.808a2.493,2.493,0,0,1,2.226.2,8.681,8.681,0,0,0,3.457.738,1.169,1.169,0,0,0,1.312-1.312,17.906,17.906,0,0,0-1.113-3.328,1.943,1.943,0,0,0-1.043-.8c-1.008-.4-2.062-.75-3.128-1.113a3.975,3.975,0,0,1-1.664-.422c-.012-.012-.035-.012-.047-.023s-.023-.012-.023-.023a2.472,2.472,0,0,1-1.605.023,9.975,9.975,0,0,0-2.214-.293,8.265,8.265,0,0,0-5.214,1.172c-.7.469-1.406.926-2.1,1.383-1.781-2.039-3.316-4.148-5.929-5.378a.492.492,0,0,1-.164-.105,1.238,1.238,0,0,1-.141-.117c-.316-.023-.644-.012-.961-.059-.48-.059-.949-.129-1.418-.2a17.446,17.446,0,0,0-2.472.574c-1.219.457-1.441,1.394-.609,2.308.445.48,1.008.879,1.465,1.347a31.356,31.356,0,0,1,3.234,3.386c1.242,1.711,1.008,2.5-.527,3.972a3.973,3.973,0,0,0-1.09,1.371c-.75,2.39-.457,4.839-.422,7.276a6.488,6.488,0,0,0,1.16,3.785,29.122,29.122,0,0,1,2.871,4.464,13.224,13.224,0,0,0,3.925,5.073,6.213,6.213,0,0,1,2.39,4.1c.211,1.722.094,3.48.351,5.191.715,4.663,1.348,9.338,2.39,13.955,1.16,5.085,2.789,10.1,4.124,15.162A76.08,76.08,0,0,0-990.6-253.4c2.308,3.492,4.675,6.925,8.26,9.573.808.6,1.453,1.16,1.476,2.168a4.134,4.134,0,0,0,.562,1.594,2.771,2.771,0,0,0,3.023,1.511c.738-.07,1.465-.27,2.215-.328a9.5,9.5,0,0,0,7.3-4.288c.844-1.172,1.664-2.367,2.589-3.492a46.186,46.186,0,0,0,7.347-12.842c.891-2.332,1.84-4.652,2.777-7.03,2.671.422,5.3.926,7.979.152-.187,2.988-.34,5.812-.527,8.624-.141,2.05-.293,4.113-.527,6.163-.387,3.48-1.019,6.948-1.242,10.44-.457,7.147-.738,14.295-1.066,21.442-.27,5.765-.527,11.541-.726,17.306-.129,3.679-.2,7.358-.187,11.049,0,2.109,1.277,3.011,3.714,2.918a4.779,4.779,0,0,1,1.687.223,85.279,85.279,0,0,0,23.118,4.089c2.132.105,4.265.269,6.175.387-.07,1.558-.2,3.082-.187,4.593.012,1.066.316,1.183,1.429.762a.3.3,0,0,1,.164-.035c1.242.539,2.367-.281,3.562-.269a1.781,1.781,0,0,0,.633-.246c-.316-.9-.586-1.676-.867-2.449h-.07l.316,2.039c-.961.105-1.922.211-3.046.328.117-1.476.2-2.871.375-4.277.023-.164.516-.41.8-.422,4.359-.152,8.729-.211,13.076-.434a50.9,50.9,0,0,0,16.884-3.785c.258-.105.527-.2.68-.246-.117,5.6-1.828,11.108-.726,16.814-.984.269-2.05.551-3.117.855a3.772,3.772,0,0,0-2.566,1.758,15.717,15.717,0,0,0-1.312,3.585,11.089,11.089,0,0,1-2.812,5.87c-1.031,1.066-2.027,2.144-2.988,3.246a5.375,5.375,0,0,0-1.371,3.445,1.949,1.949,0,0,0,1.839,2.027,8.374,8.374,0,0,0,2.027.07,8.26,8.26,0,0,0,4.944-2.437c1-.89,2.05-1.746,3.21-2.73-.141,2.261-.3,4.277-.4,6.3A12.535,12.535,0,0,1-887.583-144a37.543,37.543,0,0,0-2.015,4.429c-1.57,4.312-2.672,8.741-5.05,12.818a5.416,5.416,0,0,0-.48,2.835,2.761,2.761,0,0,0,2.015,2.73,3.239,3.239,0,0,0,3.386-.937,5.808,5.808,0,0,0,1.5-2.355c.914-3.433,3.257-6.257,5.156-9.268.035-.047.164-.059.527-.176a15.345,15.345,0,0,1-.492,2.414,38.423,38.423,0,0,0-2.132,10.838c-.2,2.824-.41,5.636-.668,8.46-.363,3.96-.762,7.921-1.172,11.869-.351,3.4-.738,6.784-1.136,10.182-.34,2.835-.738,5.671-1.113,8.507h3.679c.34-3.246.691-6.491,1.019-9.737.328-3.222.668-6.444.949-9.666.269-3.046.433-6.1.691-9.151.34-3.96.715-7.921,1.09-11.869.363-3.726.773-7.44,1.136-11.166.164-1.758.246-3.527.4-5.284a1.985,1.985,0,0,1,.351-.808c1-1.64,1.945-3.3,3.023-4.9a28.016,28.016,0,0,0,4.241-11.143,39.3,39.3,0,0,1,1.148-4.558,4.256,4.256,0,0,1,1.523-2.4,5.745,5.745,0,0,0,1.617-2.32q2.074-4.745,3.96-9.538c1.875-4.781,3.96-9.514,5.448-14.388a113.519,113.519,0,0,0,4.593-21.032,101.97,101.97,0,0,0,.41-14.283c-.152-4.6-.8-9.21-1.347-13.791a20.726,20.726,0,0,0-1.242-5.073c-1.875-4.734-1.933-9.584-1.7-14.482.035-.785-.187-1.781.281-2.308.422-.48,1.617-.445,2.461-.656.785-.2,1.547-.445,2.343-.633,1.746-.422,3.328-1.008,4.1-2.589.024-.047.106-.07.152-.105v-1.066A3.093,3.093,0,0,1-849.14-265.133ZM-992.719-323.39c-.035.281-.68.621-1.125.738a12.7,12.7,0,0,1-1.922.246c-.516-1.23-1.019-2.414-1.594-3.761a33.747,33.747,0,0,1,3.82.785C-992.579-325.066-992.649-324.117-992.719-323.39Zm-5.073-3.855c.949-1.137.293-2.308-.082-3.468,2.824-.633,4.558.785,5.132,4.136C-994.418-326.8-996.094-327.022-997.793-327.245Zm3.316-6.561a2.313,2.313,0,0,1,1.535,2.777,17.7,17.7,0,0,0-2.285-1.09,16.857,16.857,0,0,0-2.461-.422c-.3-.867-.633-1.769-1-2.765C-997.265-334.8-995.836-334.381-994.477-333.806Zm-25.145-12.666a4.3,4.3,0,0,1,.891-.457,5.237,5.237,0,0,1,4.429.738,33.694,33.694,0,0,1,3.7,4.054c.4.457.316.867-.281,1.254-.973.633-1.851,1.371-2.929,2.191C-1013.927-342.372-1017.313-344.047-1019.621-346.472Zm59.979,82.124c-2.32,4.863-4.616,9.737-6.983,14.576a29.521,29.521,0,0,1-4.488,6.28c-1.078,1.23-2.554,1.512-3.867,2.191a7.506,7.506,0,0,1-2.226.3,1.96,1.96,0,0,0-.984-2.2c-.152-.094-.164-.375-.2-.574a3.982,3.982,0,0,0-2.308-2.988c-3.538-1.652-5.542-4.359-7.159-7.358-2.226-4.124-4.98-8.108-6.573-12.408-2.613-7.03-4.687-14.224-6.585-21.43-1.136-4.312-1.453-8.788-2.261-13.182-.609-3.3-1.383-6.6-2.144-9.877a8.849,8.849,0,0,0-3.667-5.273,8.7,8.7,0,0,1-2.789-3.421,26.593,26.593,0,0,0-2.379-3.89c-1.957-2.671-2.261-5.6-2.074-8.635a3.938,3.938,0,0,0,.047-1.043c-.281-1.277.6-2.05,1.465-2.918,3.011-3.035,6.995-4.921,10.8-7.018,1.172-.644,2.367-.34,3.562-.176a.687.687,0,0,1,.41.434c.234.984.422,1.968.656,3.117a.664.664,0,0,0,.785-.82,10.807,10.807,0,0,0-.773-2.156,4.386,4.386,0,0,0-.715-.879c1.722.223,3.21.41,4.745.609-.105.75-.234,1.394-.27,2.027-.012.234.211.48.316.726.188-.211.492-.41.527-.644a10.969,10.969,0,0,0,.023-1.64,5.371,5.371,0,0,1,2.847,2.847c.293.633-.047,1-.808.891a4.558,4.558,0,0,1-1.465-.363,4.742,4.742,0,0,0-3.492-.258c-1.16.281-2.343.527-3.48.867a6.72,6.72,0,0,0-1.148.726,3.852,3.852,0,0,1-1.219.527c-1.746.234-3.5.434-5.261.562a3.655,3.655,0,0,1-1.254-.293c-.352.422-.6.7-.808.961,2.578.855,5.237.469,7.909.129.668-.082,1.652-.3,1.957-.035a7.873,7.873,0,0,1,1.5,2.332c.164.328.023.75.023,1.289-3.761-.457-7.522,1.453-11.365-.164.7.656,1.324,1.242.293,2.132.469-.035.867.047,1-.082.738-.715,1.629-.34,2.472-.363,1.465-.023,2.929-.141,4.382-.164a16.164,16.164,0,0,1,2.133.152c1.769.211,1.781.223,2.086,1.711.129.633.211,1.277.316,1.886-1.84.375-3.574.808-5.355,1.078a21.677,21.677,0,0,1-3.269.105,2.444,2.444,0,0,1-.8-.293c-.551-.234-1.09-.469-1.629-.7-.082.082-.164.176-.246.258a6.211,6.211,0,0,1,.5.773,8.423,8.423,0,0,1,.316.914c.07.211.152.422.223.633.223-.082.457-.176.68-.258a3.11,3.11,0,0,1,.914-.3c2.625-.012,5.261.164,7.651-1.09a1.689,1.689,0,0,1,1.066.059.747.747,0,0,1,.5.5c.117,1.1.164,2.215.234,3.386a18.531,18.531,0,0,0-7.534,1.57,2.467,2.467,0,0,1,.023.293c.621-.023,1.254-.059,2.144-.094-.6.609-1.113,1.09-1.558,1.617a2.414,2.414,0,0,0-.3.762c.34-.012.773.105.984-.047a10.074,10.074,0,0,0,1.84-1.5c.5-.551.832-1.055,1.863-1.019a18.658,18.658,0,0,0,3.2-.434c.258,1.676.223,3.175-.9,4.359a7.4,7.4,0,0,1-2.519,1.406c-.914.387-1.922.586-2.859.937-.3.117-.5.457-.738.691a2.962,2.962,0,0,0,1.125.246c1.511-.3,3.011-.691,4.57-1.066.117.3.223.574.316.855a21.716,21.716,0,0,0,3.515,6.233,42.464,42.464,0,0,1,4.1,6.585c2.953,5.8,6.515,11.319,10.041,16.861.773,1.219,1.242,2.589,1.933,3.855.527.973,1.289,1.851,1.793,2.824a72.643,72.643,0,0,1,5.331,14.693c.246.914.3.82,1.242.352,1.406-.7,1.16-1.734.914-2.695-.5-1.945-1.16-3.855-1.711-5.636,3.925,1.148,7.991,2.332,12.15,3.538C-958.8-266.118-959.22-265.239-959.642-264.348Zm89.728,99.242c-2.812,2.765-3.937,6.163-4.722,9.631a34.267,34.267,0,0,1-4.956,11.319c-1.476,2.25-2.683,4.616-4.042,6.925-1.219,2.074-2.554,4.089-3.679,6.2-.973,1.8-1.7,3.691-2.6,5.53a8.414,8.414,0,0,1-1.453,2.355c-.668.691-1.465.469-1.547-.422a6.449,6.449,0,0,1,.351-2.742c.422-1.172,1.2-2.25,1.652-3.41,1.266-3.222,2.414-6.468,3.656-9.7a31.622,31.622,0,0,1,1.594-3.527,12.542,12.542,0,0,0,1.383-6.175c-.035-2.261.106-4.534.258-6.784a1.9,1.9,0,0,1,.808-1.183c1.183-.855,2.4-1.64,2.777-3.187-.75.293-1.523.562-2.25.89-.785.363-1.511.8-2.273,1.172a19.2,19.2,0,0,0-5.835,4.23,5.669,5.669,0,0,1-3.539,1.945,2.451,2.451,0,0,1-1.535-.164c-.246-.234-.141-.926.07-1.3a12.3,12.3,0,0,1,1.558-2.05c.832-.89,1.769-1.711,2.636-2.578a11.162,11.162,0,0,0,3.164-6.761,7.375,7.375,0,0,1,.844-2.6,3.3,3.3,0,0,1,1.535-1.265c1.594-.656,3.257-1.172,4.886-1.746a1.155,1.155,0,0,1,.48-.082c3.14.492,6.163,1.2,8.624,3.117a15.492,15.492,0,0,0,2.613,1.3A2.345,2.345,0,0,1-869.914-165.106Zm-10.1-19.954c1.09-1.148.621-2.425.41-3.679a1.841,1.841,0,0,1,1.254-2.332,2.3,2.3,0,0,0,1.465-2.554c-.117-6.386-.187-12.783-.27-19.169a1.809,1.809,0,0,1,.047-.352c.047.012.094.012.129.023.351,4.019.808,8.026,1.031,12.057a101.815,101.815,0,0,1,.176,11.026,115.71,115.71,0,0,1-1.429,12.361c-.375,2.25-2.3,3.831-4.195,5.3,1.265-2.156.867-4.523,1.125-6.772.211-1.781.152-3.585.211-5.378C-880.072-184.72-880.119-184.943-880.014-185.06Zm11.307,17.224c-2.847-1.312-5.589-2.566-8.307-3.82,1-2.894,2.015-5.882,3.082-8.975,2.789.867,5.894,1.594,8.518,3.292a.718.718,0,0,1,.293.644C-866.293-173.753-867.488-170.824-868.707-167.836ZM-857.74-240c.668,3.6,1.265,7.218,1.593,10.838.34,3.691.387,7.417.445,11.119a77.285,77.285,0,0,1-2.3,18.571c-1.078,4.7-1.84,9.456-3.6,14.013-.832,2.168-1.687,4.335-2.578,6.62a29.008,29.008,0,0,0-9.772-3.679l.211-1.9a102.465,102.465,0,0,0,.094-19.239c-.3-3.281-.4-6.6-.914-9.854-1.008-6.5-.75-13.053-1.23-19.567-.176-2.425-.715-4.827-1.078-7.241a22.227,22.227,0,0,0-.445-2.437c-.023.316-.035.633-.059.949l-.234.012c-.328-5.6-.656-11.2-1-16.872a3.208,3.208,0,0,1,.879.141c2.449,1.148,5.038.832,7.6.551,3.538-.387,7.077-.844,10.674-1.265-.07.961-.211,2.039-.211,3.117a88.581,88.581,0,0,0,.164,9.338C-859.24-244.5-858.162-242.285-857.74-240Zm-21.653-22.063a9.618,9.618,0,0,1,1.242-6.081c.68-1.09,1.324-2.191,1.886-3.328a3.756,3.756,0,0,0-.316-3.984c-.293-.434-.574-.867-.855-1.312a4.218,4.218,0,0,1-.387-4.253c.621-1.3,1.347-2.566,2.074-3.831,1.769-3.046,3.234-6.163,3.281-9.643,0-.281.3-.551.48-.82.738-1.078,1.523-2.132,2.191-3.246.141-.234-.141-.668-.234-1.008a4.554,4.554,0,0,0-.879.633c-.551.726-1.031,1.488-1.594,2.308-.422-1.383-.785-2.589-1.148-3.8-.129,0-.246,0-.375.012a8.029,8.029,0,0,0-.141,1.289,20.012,20.012,0,0,1,.211,3.433,11.224,11.224,0,0,1-.316,2.964c-.832,2.039-1.793,4.042-2.824,6.023-.773,1.5-1.84,2.894-2.578,4.406a5.265,5.265,0,0,0,.773,6.2c1.769,1.957,1.7,3.761.2,5.73a11.511,11.511,0,0,0-2.39,8.061,32.526,32.526,0,0,1-.187,4.769c-.422,5.144.293,10.229.762,15.337.422,4.546.914,9.1,1.019,13.662.27,11.307.328,22.625.492,33.932a2.353,2.353,0,0,1-1.242,2.191c-4.534,3.175-9.842,4.734-15.455,5.624a103.583,103.583,0,0,1-19.063.961c-5.554-.141-11.108-.445-16.638-.808a48.22,48.22,0,0,1-6.315-1.019c-3.831-.785-7.651-1.652-11.459-2.519a.768.768,0,0,1-.457-.609c.094-2.32.246-4.64.363-6.96.328-6.643.668-13.3.973-19.942.176-3.738.422-7.475.434-11.213a136.507,136.507,0,0,1,1.769-20.587c.8-5,.914-10.088,1.336-15.127.07-.855.059-1.711.141-2.554a33.624,33.624,0,0,0-.609-8.53,3.13,3.13,0,0,0-.258-.855c-2.824-5.577-4.441-11.471-6-17.365-1.2-4.546-2.332-9.116-3.527-13.662-.082-.3-.422-.562-.644-.844-.328.258-.914.48-.949.762a17.446,17.446,0,0,0,.07,2.707,1.581,1.581,0,0,1-.059.82c-.82-.691-1.629-1.394-2.343-1.992.293,1.781.246,3.292,2.672,4.312.258.105.4.574.457.891,1.113,5.109,2.074,10.241,3.339,15.326.715,2.894,1.933,5.694,2.824,8.553.387,1.219.516,2.484.808,3.726.141.621.375,1.23.574,1.851a37.574,37.574,0,0,1-11.787-.223c-2.168-.434-4.464-.375-6.69-.621-1.441-.164-2.882-.445-4.3-.75a1.444,1.444,0,0,1-.867-.726c-1.019-2.179-1.91-4.406-2.988-6.561a4.123,4.123,0,0,1-.187-3.3c.984-3.023,1.968-6.058,2.941-9.081a1.565,1.565,0,0,0,.164-.773c-.433-2,.539-3.761,1.289-5.542,1.875-4.441,3.785-8.87,5.694-13.3a9.807,9.807,0,0,0,.773-1.523,2.932,2.932,0,0,0-.082-1.769.963.963,0,0,1,.164-1.254c.3-.316.586-.656.855-.984.82-.972.773-1.312-.117-2.238a.9.9,0,0,1-.094-.832,5.845,5.845,0,0,1,3.539-3.48c2.519-.937,5.12-1.734,7.721-2.484,5.542-1.605,11.119-3.14,16.685-4.7.258-.07.5-.152.914-.27a16.591,16.591,0,0,0-.433,2.4c-.012.457.211,1.242.539,1.324.738.2,1.113-.375,1.242-.984.328-1.617.68-3.234.949-4.863a2.78,2.78,0,0,1,2.355-2.343c1.711-.469,3.363-1.078,5.05-1.629.07.082.141.152.223.234a5.267,5.267,0,0,1-.8.656c-1.476.832-3.035,1.582-4.452,2.484-1.113.7-1.125,1.347-.07,2.086a10.378,10.378,0,0,0,2.73,1.336,56,56,0,0,0,15.3,2.449c3.2.105,6.409.246,9.608.164a51.07,51.07,0,0,0,6.679-.738,1.984,1.984,0,0,0,1.219-1.23c.105-.293-.41-.879-.808-1.125a7.414,7.414,0,0,0-1.875-.668c-1.617-.457-1.617-.445-1.488-1.863,1.781.609,3.492,1.254,5.261,1.769.914.27,1.254.715,1.266,1.476.012,1.055.047,2.121.047,3.175.012,1.652,0,3.316,0,5.015a5.129,5.129,0,0,0,1.617-5.062c.621.328,1,.492,1.336.7,2.554,1.57,5.156,3.093,7.64,4.745a102.2,102.2,0,0,0,15.5,8.178,28.66,28.66,0,0,1,3.433,1.886c.68.422.656.914.035,1.476-1.219,1.113-1.031,1.781.621,2.332a3.774,3.774,0,0,1,2.718,3.257c.738,4.6,1.347,9.221,2.226,13.8.937,4.839,2.109,9.643,3.2,14.459.973,4.288,1.98,8.577,2.953,12.795C-860.118-261.161-869.668-261.021-879.393-262.064Z" transform="translate(0 10.927)" fill="#311d47"/>
      <path id="Trazado_909311" data-name="Trazado 909311" d="M-935.219-106.774c.363-3.808.738-7.628,1.1-11.436.387-4.136.738-8.272,1.16-12.408.5-4.921.949-9.854,1.605-14.763.715-5.319,1.523-10.627,2.519-15.9.785-4.148,1.933-8.237,2.929-12.35a24.315,24.315,0,0,0,.773-7.182c-.258-4.464,1.019-8.753,2.5-12.982.41-1.172.832-2.343,1.277-3.609h-3.328c-2.519,7.171-3.644,14.564-5.109,21.9-1.09,5.425-2.765,10.78-4.288,16.134-1.7,5.929-3.562,11.822-5.284,17.751a85.451,85.451,0,0,1-6.187,15.2,81.246,81.246,0,0,0-6.89,19.145,4.247,4.247,0,0,1-.187.492h-3.07c.586-2.226,1.125-4.464,1.758-6.69a87.758,87.758,0,0,1,5.929-14.529,97.071,97.071,0,0,0,6.128-16.884c1.8-6.444,3.96-12.83,6.093-19.2a135.067,135.067,0,0,0,4.464-17.9,73.169,73.169,0,0,1,4.089-14.166c.258-.621.187-.855-.586-1.324-1.558-.937-3.351-.726-4.968-1.219-1.019-.316-2.074-.562-3.093-.879a2.04,2.04,0,0,1-1.019-.551,1.5,1.5,0,0,1-.316-1.23c.094-.223.855-.422,1.266-.363,2.777.41,5.53,1,8.319,1.312,2.379.258,4.816.258,7.218.3,2.859.047,5.718.023,8.577.023a2.121,2.121,0,0,1,.609,0,8.379,8.379,0,0,1,1.019.527c-.27.223-.5.574-.82.644a30.671,30.671,0,0,1-3.1.527c-1.183.152-2.367.246-3.55.375-.914.094-1.476.387-1.664,1.3-.516,2.6-1.347,5.167-1.734,7.78a30.371,30.371,0,0,0-.363,7.206,26.974,26.974,0,0,1-1.183,10.041,147.5,147.5,0,0,0-4.417,22.415c-.937,7.7-1.687,15.408-2.472,23.118-.633,6.187-1.2,12.373-1.781,18.571-.023.258-.023.527-.023.8C-932.629-106.774-933.93-106.774-935.219-106.774Z" transform="translate(11.173 36.079)" fill="#311d47"/>
      <path id="Trazado_909312" data-name="Trazado 909312" d="M-979.28-105.231c.375-1.875.773-3.749,1.125-5.636,1.148-6.187,2.343-12.361,3.386-18.56,1.359-8.026,2.32-16.122,3.984-24.1,1.254-6.023,3.386-11.916,5.027-17.892,2.437-8.835,4.769-17.681,7.159-26.515.937-3.456,1.875-6.913,2.882-10.358a5.927,5.927,0,0,1,1.16-2.039,1.569,1.569,0,0,1,1.3-.363,1.147,1.147,0,0,1,.469,1.078c-2.73,11.061-5.39,22.133-8.307,33.159-1.57,5.952-3.656,11.8-5.4,17.728a115.985,115.985,0,0,0-3.4,17.107c-1.641,12.068-3.316,24.125-5.964,36.065a2.055,2.055,0,0,1-.152.328Z" transform="translate(7.124 34.535)" fill="#311d47"/>
      <path id="Trazado_909313" data-name="Trazado 909313" d="M-905.274-335.742c1.781.609,3.492,1.254,5.261,1.769.914.27,1.254.715,1.265,1.476.012,1.055.047,2.121.047,3.175.012,1.652,0,3.316,0,5.015a5.129,5.129,0,0,0,1.617-5.062c.621.328,1,.492,1.336.7,2.554,1.57,5.156,3.093,7.64,4.745a102.2,102.2,0,0,0,15.5,8.178,28.671,28.671,0,0,1,3.433,1.886c.68.422.656.914.035,1.476-1.219,1.113-1.031,1.781.621,2.332a3.774,3.774,0,0,1,2.718,3.257c.738,4.6,1.347,9.221,2.226,13.8.937,4.839,2.109,9.643,3.2,14.459.973,4.288,1.98,8.577,2.953,12.795-9.35,3.07-18.9,3.21-28.636,2.168a9.619,9.619,0,0,1,1.242-6.081c.68-1.09,1.324-2.191,1.886-3.328a3.756,3.756,0,0,0-.316-3.984c-.293-.434-.574-.867-.855-1.312a4.218,4.218,0,0,1-.387-4.253c.621-1.3,1.348-2.566,2.074-3.831,1.769-3.046,3.234-6.163,3.281-9.643,0-.281.3-.551.48-.82.738-1.078,1.523-2.132,2.191-3.246.141-.234-.141-.668-.234-1.008a4.562,4.562,0,0,0-.879.633c-.551.726-1.031,1.488-1.594,2.308-.422-1.383-.785-2.589-1.148-3.8-.129,0-.246.012-.375.012a8.029,8.029,0,0,0-.141,1.289,20.012,20.012,0,0,1,.211,3.433,11.224,11.224,0,0,1-.316,2.964c-.832,2.039-1.793,4.042-2.824,6.023-.773,1.5-1.839,2.894-2.578,4.406a5.266,5.266,0,0,0,.773,6.2c1.769,1.957,1.7,3.761.2,5.73a11.511,11.511,0,0,0-2.39,8.061,32.543,32.543,0,0,1-.187,4.769c-.422,5.144.293,10.229.762,15.337.422,4.546.914,9.1,1.019,13.662.269,11.307.328,22.625.492,33.932a2.353,2.353,0,0,1-1.242,2.191c-4.534,3.175-9.842,4.734-15.455,5.624a104.626,104.626,0,0,1-19.063.973c-5.554-.141-11.108-.445-16.638-.808a48.219,48.219,0,0,1-6.315-1.019c-3.832-.785-7.651-1.652-11.459-2.519a.768.768,0,0,1-.457-.609c.094-2.32.246-4.64.363-6.96.328-6.643.668-13.3.973-19.942.176-3.738.422-7.475.433-11.213a136.523,136.523,0,0,1,1.769-20.587c.8-5,.914-10.088,1.336-15.127.07-.855.058-1.711.141-2.554a33.619,33.619,0,0,0-.609-8.53,3.139,3.139,0,0,0-.258-.855c-2.824-5.577-4.441-11.471-6-17.365-1.2-4.546-2.332-9.116-3.527-13.662-.082-.3-.422-.562-.644-.844-.328.258-.914.48-.949.762a17.446,17.446,0,0,0,.07,2.707,1.581,1.581,0,0,1-.059.82c-.82-.691-1.629-1.394-2.343-2,.293,1.781.246,3.292,2.672,4.312.258.105.4.562.457.891,1.113,5.109,2.074,10.241,3.339,15.326.715,2.894,1.933,5.694,2.824,8.553.387,1.219.516,2.484.808,3.726.141.621.375,1.23.574,1.851a37.654,37.654,0,0,1-11.8-.223c-2.168-.434-4.464-.375-6.69-.621-1.441-.164-2.882-.445-4.3-.75a1.445,1.445,0,0,1-.867-.726c-1.019-2.179-1.91-4.406-2.988-6.561a4.124,4.124,0,0,1-.187-3.3c.984-3.023,1.969-6.058,2.941-9.081a1.565,1.565,0,0,0,.164-.773c-.434-2,.539-3.761,1.289-5.542,1.875-4.441,3.785-8.87,5.694-13.3a9.806,9.806,0,0,0,.773-1.523,2.932,2.932,0,0,0-.082-1.769.961.961,0,0,1,.164-1.254c.3-.316.586-.656.867-.984.82-.972.762-1.312-.117-2.238a.9.9,0,0,1-.094-.832,5.846,5.846,0,0,1,3.539-3.48c2.519-.937,5.12-1.734,7.722-2.484,5.542-1.605,11.119-3.14,16.685-4.7.258-.07.5-.152.914-.27a16.592,16.592,0,0,0-.434,2.4c-.012.457.211,1.242.539,1.324.738.2,1.113-.375,1.242-.984.328-1.617.68-3.234.949-4.863a2.779,2.779,0,0,1,2.355-2.343c1.711-.469,3.363-1.078,5.05-1.629.07.082.141.152.223.234a5.261,5.261,0,0,1-.8.656c-1.476.832-3.035,1.582-4.452,2.484-1.113.7-1.125,1.347-.07,2.086a10.379,10.379,0,0,0,2.73,1.336,55.994,55.994,0,0,0,15.3,2.449c3.2.105,6.409.246,9.608.164a51.068,51.068,0,0,0,6.679-.738,1.984,1.984,0,0,0,1.219-1.23c.105-.293-.41-.879-.808-1.125a7.411,7.411,0,0,0-1.875-.668C-905.4-334.336-905.4-334.325-905.274-335.742Z" transform="translate(6.654 12.429)" fill="#f6df33"/>
      <path id="Trazado_909314" data-name="Trazado 909314" d="M-1000.035-340.485a.664.664,0,0,0,.785-.82,10.809,10.809,0,0,0-.773-2.156,4.387,4.387,0,0,0-.715-.879c1.722.223,3.21.41,4.745.609-.105.75-.234,1.394-.27,2.027-.012.234.211.48.316.726.188-.211.492-.41.527-.644a10.953,10.953,0,0,0,.023-1.64,5.371,5.371,0,0,1,2.847,2.847c.293.633-.047,1-.808.891a4.559,4.559,0,0,1-1.465-.363,4.742,4.742,0,0,0-3.492-.258c-1.16.281-2.343.527-3.48.867a6.718,6.718,0,0,0-1.148.726,3.852,3.852,0,0,1-1.219.527c-1.746.234-3.5.434-5.261.562a3.654,3.654,0,0,1-1.254-.293c-.352.422-.6.7-.808.961,2.578.855,5.237.469,7.909.129.668-.082,1.652-.3,1.957-.035a7.87,7.87,0,0,1,1.5,2.332c.164.328.023.75.023,1.289-3.761-.457-7.522,1.453-11.365-.164.7.656,1.324,1.242.293,2.144.469-.035.867.047,1-.082.738-.715,1.629-.34,2.472-.363,1.465-.023,2.929-.141,4.382-.164a16.169,16.169,0,0,1,2.133.152c1.769.211,1.781.223,2.086,1.711.129.633.211,1.277.316,1.886-1.84.375-3.574.808-5.355,1.078a21.677,21.677,0,0,1-3.269.105,2.444,2.444,0,0,1-.8-.293c-.551-.234-1.09-.469-1.629-.7-.082.082-.164.176-.246.258a6.226,6.226,0,0,1,.5.773,8.442,8.442,0,0,1,.316.914c.07.211.152.422.223.633.223-.082.457-.176.68-.258a3.109,3.109,0,0,1,.914-.3c2.625-.012,5.261.164,7.651-1.09a1.689,1.689,0,0,1,1.066.059c.223.07.492.316.5.5.117,1.1.164,2.214.234,3.386a18.532,18.532,0,0,0-7.534,1.57,2.467,2.467,0,0,1,.023.293c.621-.023,1.254-.059,2.144-.094-.6.609-1.113,1.09-1.558,1.617a2.414,2.414,0,0,0-.3.762c.34-.012.773.105.984-.047a10.074,10.074,0,0,0,1.84-1.5c.5-.551.832-1.055,1.863-1.019a18.668,18.668,0,0,0,3.2-.434c.258,1.675.223,3.175-.9,4.359a7.4,7.4,0,0,1-2.519,1.406c-.914.387-1.922.586-2.859.937-.3.117-.5.457-.738.691a2.962,2.962,0,0,0,1.125.246c1.511-.3,3.011-.691,4.57-1.066.117.3.223.574.316.855a21.717,21.717,0,0,0,3.515,6.233,42.466,42.466,0,0,1,4.1,6.585c2.953,5.8,6.515,11.319,10.041,16.861.785,1.219,1.242,2.589,1.933,3.855.527.973,1.289,1.851,1.793,2.824a72.643,72.643,0,0,1,5.331,14.693c.246.914.3.82,1.242.352,1.406-.7,1.16-1.734.914-2.695-.5-1.945-1.16-3.855-1.711-5.636,3.925,1.148,7.991,2.332,12.15,3.539-.445.914-.867,1.8-1.3,2.695-2.32,4.863-4.616,9.737-6.983,14.576a29.516,29.516,0,0,1-4.488,6.28c-1.078,1.23-2.554,1.512-3.867,2.191a7.506,7.506,0,0,1-2.226.3,1.966,1.966,0,0,0-.984-2.2c-.152-.094-.164-.375-.2-.574a3.982,3.982,0,0,0-2.308-2.988c-3.539-1.652-5.542-4.359-7.159-7.358-2.226-4.124-4.98-8.108-6.573-12.408-2.613-7.03-4.687-14.224-6.585-21.43-1.137-4.312-1.453-8.788-2.261-13.182-.609-3.3-1.383-6.6-2.144-9.877a8.848,8.848,0,0,0-3.667-5.273,8.7,8.7,0,0,1-2.789-3.421,26.591,26.591,0,0,0-2.379-3.89c-1.957-2.671-2.261-5.6-2.074-8.635a3.933,3.933,0,0,0,.047-1.043c-.281-1.277.6-2.05,1.465-2.918,3.011-3.035,6.995-4.921,10.8-7.018,1.172-.644,2.367-.34,3.562-.176a.687.687,0,0,1,.41.433C-1000.469-342.629-1000.27-341.633-1000.035-340.485Z" transform="translate(0.638 11.595)" fill="#e59f41"/>
      <path id="Trazado_909315" data-name="Trazado 909315" d="M-885.016-191.868a29.008,29.008,0,0,0-9.772-3.679l.211-1.9a102.466,102.466,0,0,0,.094-19.239c-.3-3.281-.4-6.6-.914-9.854-1.008-6.5-.75-13.053-1.23-19.567-.176-2.425-.715-4.827-1.078-7.241a22.2,22.2,0,0,0-.445-2.437c-.023.316-.035.633-.059.949a1.569,1.569,0,0,0-.234.012c-.328-5.6-.656-11.2-1-16.872a3.209,3.209,0,0,1,.879.141c2.449,1.148,5.038.832,7.6.551,3.539-.387,7.077-.844,10.674-1.265-.07.961-.211,2.039-.211,3.117a88.581,88.581,0,0,0,.164,9.338c.246,2.285,1.312,4.5,1.734,6.784.668,3.6,1.266,7.218,1.594,10.838.34,3.691.387,7.417.445,11.119a77.279,77.279,0,0,1-2.3,18.571c-1.078,4.7-1.839,9.456-3.6,14.013C-883.271-196.321-884.114-194.153-885.016-191.868Z" transform="translate(20.832 23.969)" fill="#e59f41"/>
      <path id="Trazado_909316" data-name="Trazado 909316" d="M-898.708-186.318c-.75.293-1.523.551-2.25.89-.785.363-1.511.8-2.273,1.172a19.2,19.2,0,0,0-5.835,4.23,5.724,5.724,0,0,1-3.539,1.945,2.463,2.463,0,0,1-1.535-.164c-.246-.234-.141-.926.07-1.3a12.3,12.3,0,0,1,1.558-2.05c.832-.89,1.769-1.711,2.636-2.578a11.162,11.162,0,0,0,3.164-6.761,7.375,7.375,0,0,1,.844-2.6,3.3,3.3,0,0,1,1.535-1.265c1.594-.656,3.257-1.172,4.886-1.746a1.156,1.156,0,0,1,.48-.082c3.14.492,6.163,1.2,8.624,3.117a15.49,15.49,0,0,0,2.613,1.3,2.865,2.865,0,0,1-.492,1.066c-2.812,2.765-3.937,6.163-4.722,9.631A34.265,34.265,0,0,1-897.9-170.2c-1.476,2.25-2.683,4.616-4.042,6.925-1.219,2.074-2.554,4.089-3.679,6.2-.972,1.8-1.7,3.691-2.6,5.53a8.646,8.646,0,0,1-1.453,2.367c-.668.691-1.465.469-1.547-.422a6.449,6.449,0,0,1,.351-2.742c.422-1.172,1.2-2.25,1.652-3.41,1.265-3.222,2.414-6.468,3.656-9.7a31.622,31.622,0,0,1,1.594-3.527,12.542,12.542,0,0,0,1.383-6.175c-.035-2.261.105-4.534.258-6.8a1.9,1.9,0,0,1,.808-1.183C-900.3-183.975-899.083-184.772-898.708-186.318Z" transform="translate(18.284 36.955)" fill="#e59f41"/>
      <path id="Trazado_909317" data-name="Trazado 909317" d="M-913.845-347.83c-.2,2.976-.527,5.94-.562,8.893-.035,2.929.223,5.87.34,8.835-3.117.6-20.8-.715-24.172-1.828.48-2.3,1.031-4.558,1.418-6.831s.633-4.534.926-6.655c1.992.457,3.831,1.019,5.73,1.265a11.825,11.825,0,0,0,6.854-1.008A28.248,28.248,0,0,1-913.845-347.83Z" transform="translate(14.17 10.996)" fill="#e59f41"/>
      <path id="Trazado_909318" data-name="Trazado 909318" d="M-1013.978-338.858c-.117-3.679-3.5-5.355-5.812-7.78a4.3,4.3,0,0,1,.891-.457,5.237,5.237,0,0,1,4.429.738,33.694,33.694,0,0,1,3.7,4.054c.4.457.316.855-.281,1.254C-1012.022-340.4-1012.9-339.679-1013.978-338.858Z" transform="translate(0.169 11.093)" fill="#e59f41"/>
      <path id="Trazado_909319" data-name="Trazado 909319" d="M-1001.23-333.258c2.824-.633,4.558.773,5.132,4.136-1.676-.223-3.351-.445-5.05-.668C-1000.2-330.927-1000.843-332.1-1001.23-333.258Z" transform="translate(3.355 13.472)" fill="#cc8532"/>
      <path id="Trazado_909320" data-name="Trazado 909320" d="M-1000.8-329.4a33.759,33.759,0,0,1,3.82.785c.961.316.9,1.265.82,1.992-.035.281-.68.621-1.125.738a12.7,12.7,0,0,1-1.922.246C-999.722-326.869-1000.226-328.053-1000.8-329.4Z" transform="translate(3.429 14.16)" fill="#cc8532"/>
      <path id="Trazado_909321" data-name="Trazado 909321" d="M-1001.92-337.2c1.429.492,2.859.926,4.206,1.488a2.312,2.312,0,0,1,1.535,2.777,17.687,17.687,0,0,0-2.285-1.09,16.862,16.862,0,0,0-2.461-.422C-1001.24-335.29-1001.568-336.2-1001.92-337.2Z" transform="translate(3.237 12.821)" fill="#cc8532"/>
      <g id="Grupo_1104434" data-name="Grupo 1104434" transform="translate(-877.026 -169.68)">
        <path id="Trazado_909322" data-name="Trazado 909322" d="M-895.7-204.35c1.969.867,3.621,1.652,4.687,2.214,1.277.668,2.6,1.347,3.96,2,.152-.363.293-.738.445-1.1a.692.692,0,0,0-.293-.644c-2.625-1.7-5.729-2.425-8.518-3.292C-895.512-204.912-895.606-204.631-895.7-204.35Z" transform="translate(898.5 205.17)" fill="#e20613"/>
        <path id="Trazado_909323" data-name="Trazado 909323" d="M-895.64-204.47c-.141.4-.269.8-.41,1.2,1.629.726,3,1.383,3.925,1.875,1.488.785,3.046,1.57,4.663,2.332.164-.4.316-.8.48-1.2-1.359-.656-2.695-1.324-3.96-2C-892.019-202.83-893.671-203.6-895.64-204.47Z" transform="translate(898.44 205.29)" fill="#f29100"/>
        <path id="Trazado_909324" data-name="Trazado 909324" d="M-895.973-203.45c-.176.5-.351,1.019-.527,1.523,1.933.855,3.538,1.617,4.593,2.168,1.265.668,2.578,1.336,3.925,1.98.2-.492.4-.984.586-1.476-1.617-.762-3.175-1.547-4.663-2.332C-892.985-202.067-894.344-202.724-895.973-203.45Z" transform="translate(898.363 205.465)" fill="#ffec00"/>
        <path id="Trazado_909325" data-name="Trazado 909325" d="M-896.424-202.15c-.176.492-.34,1-.516,1.488,1.91.844,3.5,1.594,4.535,2.144q1.88,1,3.9,1.968c.2-.48.387-.973.586-1.453-1.347-.644-2.66-1.312-3.925-1.98C-892.886-200.533-894.491-201.295-896.424-202.15Z" transform="translate(898.288 205.689)" fill="#93c01f"/>
        <path id="Trazado_909326" data-name="Trazado 909326" d="M-896.854-200.88c-.176.516-.351,1.008-.516,1.511,1.886.832,3.457,1.582,4.488,2.121,1.242.656,2.542,1.312,3.867,1.957l.6-1.476c-1.336-.644-2.648-1.3-3.9-1.968C-893.363-199.286-894.956-200.036-896.854-200.88Z" transform="translate(898.214 205.907)" fill="#009ee2"/>
        <path id="Trazado_909327" data-name="Trazado 909327" d="M-892.771-197.459c-1.031-.551-2.6-1.289-4.488-2.121-.281.808-.551,1.617-.832,2.414,2.718,1.254,5.46,2.507,8.307,3.82.293-.726.586-1.441.879-2.156C-890.228-196.147-891.528-196.8-892.771-197.459Z" transform="translate(898.09 206.13)" fill="#941b80"/>
      </g>
      <g id="Grupo_1104435" data-name="Grupo 1104435" transform="translate(-936.579 -411.872)">
        <path id="Trazado_909328" data-name="Trazado 909328" d="M-902.817-389.487l-.023-.023a.011.011,0,0,0,.012.012A.011.011,0,0,0-902.817-389.487Z" transform="translate(956.827 415.712)" fill="#311d47"/>
        <path id="Trazado_909329" data-name="Trazado 909329" d="M-888.356-364.592a2.653,2.653,0,0,0,2.074-1.148,5.834,5.834,0,0,0,1.242-3.07c.129-1.113.281-2.215.469-3.316a2.135,2.135,0,0,0-.375-1.769c-.211-.27-.445-.516-.68-.762a1.466,1.466,0,0,1-.34-1.968,5.755,5.755,0,0,1,1.746-2.039,5.28,5.28,0,0,0,.867-7.311c-.223-.3-.445-.586-.691-.9.234-.3.457-.574.656-.855a4.19,4.19,0,0,0,.8-3.667,9,9,0,0,0-4.769-6.14c-.457-.211-.914-.4-1.359-.6-.012-.328-.023-.609-.035-.879a3.219,3.219,0,0,0-1.98-2.918,4.684,4.684,0,0,0-1.851-.457c-1.312-.035-2.625.059-3.937.105-.422.012-.832.059-1.3.094.82-2.355.316-3-2.484-3.292-.012-.2-.012-.328-.023-.469A2.611,2.611,0,0,0-902.6-408.8c-.363-.082-.738-.059-1.1-.105-.867-.129-1.722-.27-2.589-.422-.4-.07-.785-.176-1.183-.223a14.087,14.087,0,0,1-3.878-.6,16.514,16.514,0,0,0-2.73-.762,1.9,1.9,0,0,0-1.851.609c-.164.164-.328.34-.445.469-.984-.5-1.886-1.055-2.847-1.453a4.354,4.354,0,0,0-3.445-.352,5.8,5.8,0,0,1-3.035.422,8.4,8.4,0,0,0-2.015.2,3.164,3.164,0,0,0-2.214,1.16l-2.261.3c-.7.094-1.418.152-2.109.281-1.008.187-1.383.586-1.347,1.64a21.4,21.4,0,0,0,.387,2.578c.07.4.152.8.246,1.289a7.834,7.834,0,0,1-2.929.562,6.082,6.082,0,0,0-4.323,1.207,3.836,3.836,0,0,0-.082,6.245c.223.164.457.316.726.5-.715.586-1.594.984-.937,2.039a19.588,19.588,0,0,0-1.7,1.453,1.61,1.61,0,0,0,.328,2.707,7.074,7.074,0,0,0,1.289.574c.586.211,1.183.4,1.992.656-.5.434-.855.75-1.207,1.043a12.611,12.611,0,0,0-1.453,1.16c-.785.82-.726,1.441.2,2.027.656.41.562.785.363,1.324a6.036,6.036,0,0,0-.551,1.465,6.311,6.311,0,0,0,.269,1.629,4.111,4.111,0,0,0-.785.644,3.674,3.674,0,0,0-.387.867,2.22,2.22,0,0,0-2.238.879,8.764,8.764,0,0,0-.726.879,9.253,9.253,0,0,0-1.558,6.983c.164,1.066.433,2.121.668,3.175a6.961,6.961,0,0,1-.2,4.23A9.355,9.355,0,0,0-948.71-360a5.39,5.39,0,0,0,.105,3.3c.316.8.726,1.512,1.781,1.3.246-.047.551.176.715.234.023.926.047,1.722.047,2.507a26.9,26.9,0,0,0,1.125,7.733c.4,1.254.832,2.507,1.2,3.773a7.052,7.052,0,0,0,1.523,2.789c.586.668,1.148,1.371,1.722,2.05.621.738,1.219,1.476,1.863,2.191a42.417,42.417,0,0,1,4.9,6.351,6.551,6.551,0,0,0,1.465,1.7c3.632,2.953,7.745,2.589,11.483.422A4.371,4.371,0,0,1-919-326.3a11.824,11.824,0,0,0,1.793-.352c.621-.176,1.207-.445,1.816-.633,1.078-.328,2.168-.574,3.234-.926a12.176,12.176,0,0,0,4.206-2.074,29.968,29.968,0,0,0,5.448-5.835c.352-.516.668-1.055,1.008-1.582.668.68,1.043.785,1.781.328a4.917,4.917,0,0,0,1.394-1.207,17.805,17.805,0,0,0,1.734-2.718,7.648,7.648,0,0,1,3.175-3.328,19.5,19.5,0,0,0,1.922-1.207,5.879,5.879,0,0,0,2.414-3.667c.281-1.336.5-2.683.68-4.042a10.465,10.465,0,0,0-.023-2.1,2.579,2.579,0,0,0-1.406-2.144c-.211-.105-.41-.234-.621-.363-.023-.328-.023-.644-.059-.949-.035-.328-.082-.656-.129-1.008.363-.07.621-.105.891-.164,1.137-.27,1.441-.914.961-2.015-.105-.258-.258-.492-.375-.738C-889.633-363.994-889.363-364.557-888.356-364.592Zm-55.925,2.144c-.586-.352-.7-.621-.574-1.23s.3-.762,1.207-.82C-943.882-363.748-944.081-363.1-944.281-362.448Zm1.734-4.863c-.164.457-.387.891-.562,1.324-1.289-.035-1.687-.34-1.687-1.547,0-1.113.2-2.226.246-3.351a24.371,24.371,0,0,0-.094-2.613,2.384,2.384,0,0,0-.27-.891c-.34-.633-.867-.691-1.3-.141a5.813,5.813,0,0,0-1.066,2.918.652.652,0,0,0,.328.539.719.719,0,0,0,.6-.211,7.283,7.283,0,0,0,.691-.972,1.855,1.855,0,0,1,.234.082c-.07.808-.117,1.617-.2,2.425-.059.562-.187,1.113-.246,1.664a2.844,2.844,0,0,0,1.066,2.929,2.513,2.513,0,0,0-.961,1.886c.023.855.258,1.078,1.347,1.242-.422,1.722-.832,3.445-1.254,5.214-.281.059-.574.129-.891.2a2.554,2.554,0,0,1-.961-2.285,7.971,7.971,0,0,1,.27-1.968,9.643,9.643,0,0,0,0-5.284c-.258-.9-.5-1.816-.68-2.742a8.481,8.481,0,0,1,1.746-7.194c1.125-1.406,2-1.347,2.941.176a3.449,3.449,0,0,1,.457,1.043,12.917,12.917,0,0,1,.246,5.4,2.1,2.1,0,0,0,.023,1.535A.875.875,0,0,1-942.547-367.31Zm51.719,10.03a1.551,1.551,0,0,1,1.5,1.394,4.334,4.334,0,0,1,.07,1.453,40.528,40.528,0,0,1-.808,4.441,4.771,4.771,0,0,1-3.269,3.539l-.012.012h-.012a9.142,9.142,0,0,1-.949.715,7.647,7.647,0,0,0-3.14,3.492,21.3,21.3,0,0,1-1.617,2.789,2.315,2.315,0,0,1-1.769,1.1c-.012-.27-.094-.527-.012-.691a35.628,35.628,0,0,0,2.507-8.975.925.925,0,0,1,.106-.223c.527.129,1.066.258,1.605.375.082.715.035.82-.973,2.5a2.139,2.139,0,0,0,2.109-3.14c.375-.434.762-.867,1.136-1.312.34-.41.68-.832,1.16-1.429a3.829,3.829,0,0,1-.293,1.933c-.152.469-.363.9-.539,1.359-.363.937-.258,1.183.68,1.512h.012a20.112,20.112,0,0,0,2.917-5.144c.457-1.172-.082-1.781-1.312-1.7a2.976,2.976,0,0,0-2.133,1.09c-.773.891-1.511,1.816-2.3,2.695a.887.887,0,0,1-1.406.059,1.693,1.693,0,0,1-.152-1.84,7.972,7.972,0,0,1,.914-1.254c1.1-1.254,2.2-2.5,3.339-3.714a2.85,2.85,0,0,1,2.051-1.148v.387a3.839,3.839,0,0,1-.059.445C-891.215-356.847-891.027-357.058-890.828-357.28Zm.574-5.706c.188.48.41.937.656,1.488-.492.105-.891.152-1.266.27a.931.931,0,0,0-.75,1.254c.105.539.246,1.066.387,1.676a4.353,4.353,0,0,0-3.4,1.64c-.879.926-1.722,1.886-2.683,2.941.023-.316.023-.527.059-.738a55.77,55.77,0,0,1,.914-5.6,26.841,26.841,0,0,0,.492-5.109c.047-.633.129-1.254.234-1.875a12.879,12.879,0,0,0,.117-4.394,1.355,1.355,0,0,1,.492-1.383c.269-.223.516-.457.762-.7a3.651,3.651,0,0,0,1.031-1.9c.246-1.16.516-2.32.832-3.468a4.354,4.354,0,0,0-.082-2.566,9.121,9.121,0,0,0-2.472-4.218v.012l.024.023h-.012c.328.785.668,1.558.972,2.355.281.75.516,1.511.785,2.261a2.858,2.858,0,0,1-.035,2.132,20.521,20.521,0,0,0-.844,2.812,3.235,3.235,0,0,1-1.394,2.226,2.71,2.71,0,0,0-1.265,3.035,15.185,15.185,0,0,1-.059,3.339,19.679,19.679,0,0,0-.059,4.394,7.431,7.431,0,0,1-.363,3.492,24.071,24.071,0,0,0-.75,3.808c-.726,3.925-1.383,7.874-2.226,11.776a18.9,18.9,0,0,1-3.972,8.225c-1.266,1.512-2.672,2.906-4.078,4.288a9.818,9.818,0,0,1-4.159,2.144,48.2,48.2,0,0,1-8,1.91,4.891,4.891,0,0,0-2.425.961c-2.144,1.652-4.476,1.418-6.761.574a6.736,6.736,0,0,1-3.433-3.058A31.738,31.738,0,0,0-938-335.335c-1.383-1.371-2.625-2.882-3.867-4.382a5.163,5.163,0,0,1-.738-1.582c-.351-1.055-.609-2.144-.984-3.187a27.813,27.813,0,0,1-1.312-7.909,2.535,2.535,0,0,1,0-.422,46.629,46.629,0,0,1,3.316-13.931,43.76,43.76,0,0,1,4.335-8.225,13.858,13.858,0,0,0,2.226-5.39,8.332,8.332,0,0,1,2.273-4.734,1.972,1.972,0,0,0,.574-1.605,5.47,5.47,0,0,1,.914-3.691,5.956,5.956,0,0,0,.551-1.242,2.96,2.96,0,0,1,2.672-1.793,1.161,1.161,0,0,1,.4.047.916.916,0,0,1,.246.187,1.286,1.286,0,0,1,.023.3c-.187.984-.129,1,.808.844a16.4,16.4,0,0,1,3.117-.281c1.265.035,1.57.422,1.734,1.7.035.246.058.48.105.726a2.308,2.308,0,0,0,2.753,1.98c.527-.07,1.055-.176,1.687-.281.047.4.082.738.105,1.078a2.771,2.771,0,0,0,1.476,2.332,7.327,7.327,0,0,0,3.175.937,3.341,3.341,0,0,0,2.578-.914A29.617,29.617,0,0,0-906.4-383.1a10.176,10.176,0,0,0,2.988.422,1.807,1.807,0,0,0,1.851-1.371c.059-.164.117-.328.187-.492.3-.75.387-.808,1.137-.738.668.07,1.336.187,2,.27a1.844,1.844,0,0,0,1.781-.492c.469-.516,1.008-.176,1.511-.094a.011.011,0,0,0-.012-.012c-.621-.633-1.254-1.078-2.2-.586a1.754,1.754,0,0,1-.984,0c-.738-.105-1.465-.281-2.2-.375a1.972,1.972,0,0,0-2.32,1.418c-.469,1.207-.469,1.183-1.7,1.125a8.161,8.161,0,0,1-4.007-1.3c-.281-.187-.574-.352-.867-.527a.773.773,0,0,0-1.16.211,1.912,1.912,0,0,1-2.086.75,17.14,17.14,0,0,1-2.519-.715,1.91,1.91,0,0,1-1.23-1.652c-.035-.246-.07-.48-.117-.726-.164-.8-.433-1.066-1.207-1.16-.469-.059-.937-.082-1.418-.105a1.968,1.968,0,0,1-1.793-1.3c-.082-.187-.187-.375-.258-.562a2.209,2.209,0,0,0-1.828-1.453c-1.2-.141-2.4-.234-3.691-.351-.281-1-1.1-1.16-2.05-1.078a3.661,3.661,0,0,0-3.351,3.269,2.75,2.75,0,0,1-.574,1.418,3.518,3.518,0,0,0-.633,2.683,1.239,1.239,0,0,1-.445,1.207,6.305,6.305,0,0,0-1.886,3.187,11.08,11.08,0,0,0-.492,1.722,13.187,13.187,0,0,1-2.156,4.968c-.621.961-1.3,1.9-1.886,2.882-.562.949-1.043,1.957-1.547,2.906.351-2.812.258-5.519-2.1-7.616.234-.023.422-.047.691-.07-.141-.223-.234-.387-.352-.574.27-.141.551-.27.808-.434.527-.34.68-.691.352-1.219a1.856,1.856,0,0,1-.105-1.875,4.579,4.579,0,0,0,.223-.808,1.305,1.305,0,0,0-.551-1.547,6.936,6.936,0,0,1-.609-.551c.516-.621.984-1.207,1.476-1.769.246-.281.562-.516.832-.785.762-.8.68-1.254-.316-1.711-.644-.3-1.324-.527-1.933-.867-.844-.469-.867-.926-.152-1.617.4-.387.855-.7,1.266-1.066.82-.726.82-.984-.035-1.793.293-.4.6-.8,1.008-1.347a6.815,6.815,0,0,1-.656-.75,3.465,3.465,0,0,1,1.347-5.284,4.28,4.28,0,0,1,3.046-.527c.316.07.656.07.8-.27.223-.574.691-.715,1.183-.891.8-.293.973-.562.867-1.418-.117-.9-.316-1.781-.422-2.683-.129-1.09.047-1.3,1.078-1.465a24.682,24.682,0,0,1,2.906-.387,5.5,5.5,0,0,1,1.582.4c.2-1.055,1.055-1.336,1.886-1.617a6.467,6.467,0,0,1,3.3-.234,5.189,5.189,0,0,0,1.594.012,6.775,6.775,0,0,1,5.823,1.711c.668.633.973.516,1.207-.434.328-1.347.773-1.605,2.039-1.16.035.012.059.023.094.035a24.406,24.406,0,0,0,6.269,1.91,17.742,17.742,0,0,0,3.679.445,3,3,0,0,1,1.172.27,1.506,1.506,0,0,1,.973,1.652c-.012.211-.047.422-.047.633,0,.855.27,1.113,1.113,1.078a7.168,7.168,0,0,1,1.113-.059c.937.07,1.242.7.7,1.5-.176.258-.422.457-.609.715-.433.586-.234,1.113.469,1.183a8.19,8.19,0,0,0,1.418-.035c1.113-.059,2.226-.187,3.339-.187a9.92,9.92,0,0,1,2.2.246,2.245,2.245,0,0,1,1.828,2.4c0,.141-.023.281-.023.422,0,.715.176.9.844,1.066a11.953,11.953,0,0,1,2.133.586,6.667,6.667,0,0,1,3.7,4.675,3.222,3.222,0,0,1-1.055,3.316c-.27.258-.6.48-.855.75a1.069,1.069,0,0,0,.105,1.769c.27.211.562.375.82.6a2.938,2.938,0,0,1,.9,3.644,26.207,26.207,0,0,1-1.664,2.882c-.469.773-1.008,1.5-1.441,2.285a2.063,2.063,0,0,0,.117,2.367,2.216,2.216,0,0,1,.223,2.437,5.339,5.339,0,0,0-.152,1.851,16.658,16.658,0,0,1-.012,1.875,2.825,2.825,0,0,1-2.379,2.507,3.43,3.43,0,0,0-.949.352A1.618,1.618,0,0,0-890.254-362.987Z" transform="translate(948.916 411.872)" fill="#311d47"/>
        <path id="Trazado_909330" data-name="Trazado 909330" d="M-901.5-356.018h0c.012,0,.012,0,.023-.012a.036.036,0,0,0-.023.012Z" transform="translate(957.058 421.46)" fill="#311d47"/>
        <path id="Trazado_909331" data-name="Trazado 909331" d="M-902.84-389.52a.041.041,0,0,0,.012.023h.012Z" transform="translate(956.827 415.71)" fill="#925f36"/>
        <path id="Trazado_909332" data-name="Trazado 909332" d="M-933.193-349.3a5.916,5.916,0,0,0,1.3,1.7,10.926,10.926,0,0,0,6.128,2.671c.726.105,1.476.105,2.214.141a2.038,2.038,0,0,0,1.933-1.137,13.145,13.145,0,0,0,1.148-2.343,17.711,17.711,0,0,1,2.484-4.816,2.016,2.016,0,0,0,.375-.867,2.864,2.864,0,0,0-.609.434,32.679,32.679,0,0,0-2.777,3.07,5.542,5.542,0,0,1-5.1,2.461,7.6,7.6,0,0,1-4.8-1.9,6.23,6.23,0,0,1-2.191-3.761c-.117-.691-.223-1.383-.375-2.05a10.454,10.454,0,0,0-.621-2.086,3.969,3.969,0,0,0-1.652-1.91c-.234.375.937.644.492,1.043a6.417,6.417,0,0,1,.047.82A17.632,17.632,0,0,0-933.193-349.3Z" transform="translate(951.174 420.832)" fill="#9b4d34"/>
        <path id="Trazado_909333" data-name="Trazado 909333" d="M-929.11-375.567h0l.023-.023Z" transform="translate(952.317 418.102)" fill="#925f36"/>
        <path id="Trazado_909334" data-name="Trazado 909334" d="M-893.75-383.736c-.27-.75-.5-1.511-.785-2.261-.3-.8-.644-1.57-.973-2.355-.516-.082-1.043-.422-1.511.094a1.879,1.879,0,0,1-1.781.492c-.668-.094-1.336-.2-2-.27-.75-.082-.832-.012-1.136.738-.07.164-.129.328-.187.492a1.825,1.825,0,0,1-1.851,1.371,9.8,9.8,0,0,1-2.988-.422,29.6,29.6,0,0,1-3.433-1.664,3.3,3.3,0,0,1-2.578.914,7.282,7.282,0,0,1-3.175-.937,2.771,2.771,0,0,1-1.476-2.332c-.023-.34-.07-.668-.105-1.078-.633.105-1.16.223-1.687.281a2.321,2.321,0,0,1-2.753-1.98,7.225,7.225,0,0,1-.105-.726c-.164-1.277-.457-1.664-1.734-1.7a17.523,17.523,0,0,0-3.117.281c-.937.152-1,.129-.808-.844a.917.917,0,0,0-.023-.3c-.094-.07-.164-.164-.246-.187a.933.933,0,0,0-.4-.047,2.96,2.96,0,0,0-2.672,1.793,7,7,0,0,1-.551,1.242,5.6,5.6,0,0,0-.914,3.691,1.945,1.945,0,0,1-.574,1.605,8.3,8.3,0,0,0-2.273,4.734,13.513,13.513,0,0,1-2.226,5.39,44.455,44.455,0,0,0-4.335,8.225,46.362,46.362,0,0,0-3.316,13.931,2.535,2.535,0,0,0,0,.422,27.408,27.408,0,0,0,1.312,7.909c.363,1.043.621,2.132.984,3.187a5.163,5.163,0,0,0,.738,1.582,57.432,57.432,0,0,0,3.867,4.382,31.827,31.827,0,0,1,5.015,6.374,6.64,6.64,0,0,0,3.433,3.058c2.285.855,4.628,1.078,6.761-.574a4.85,4.85,0,0,1,2.425-.961,48.2,48.2,0,0,0,8-1.91,9.951,9.951,0,0,0,4.159-2.144c1.406-1.383,2.812-2.777,4.078-4.288a18.9,18.9,0,0,0,3.972-8.225c.844-3.9,1.488-7.85,2.226-11.776a25.468,25.468,0,0,1,.75-3.808,7.416,7.416,0,0,0,.363-3.492,20.4,20.4,0,0,1,.059-4.394,15.19,15.19,0,0,0,.059-3.339A2.71,2.71,0,0,1-896-376.6a3.26,3.26,0,0,0,1.394-2.226,19.885,19.885,0,0,1,.844-2.812A2.939,2.939,0,0,0-893.75-383.736Zm-21.993,8.448a4.243,4.243,0,0,1,4.347-3.269,13.627,13.627,0,0,1,5.952,1.441,4.986,4.986,0,0,1,2.144,2.144,9.38,9.38,0,0,0,.715,1.254c.516.621.152,1.2-.059,1.746-.129.363-.492.363-.773.187-.3-.2-.574-.469-.867-.7a27.837,27.837,0,0,0-2.566-1.992,10.941,10.941,0,0,0-2.062-.808,11.181,11.181,0,0,0-3.855.223,5.261,5.261,0,0,0-1.629.8c-.4.281-.738.562-1.172.223C-915.977-374.362-915.883-374.831-915.743-375.288Zm-4.324,13.17c-.6.2-2.671-.445-4.23-1.383C-922.117-363.313-920.488-362.763-920.066-362.118Zm-2.742-11.108a18.534,18.534,0,0,1-1.242,7.944,2.36,2.36,0,0,1-.762.926C-923.886-367.274-923.511-370.285-922.808-373.226Zm-2.918,15.1a2.641,2.641,0,0,0,1.746,1.863,4.013,4.013,0,0,0,3.246-.023,2.718,2.718,0,0,1,2.039-.328,4.611,4.611,0,0,0,.808.07c1.219.059,1.558-.445,1.078-1.57a4.969,4.969,0,0,1-.211-.586c-.012-.047.035-.129.082-.258.129,0,.316-.07.434,0a2.184,2.184,0,0,1,.832,2.179,1.662,1.662,0,0,1-1.781,1.254,5.363,5.363,0,0,0-3.117.293,5.264,5.264,0,0,1-3.96-.012,3.378,3.378,0,0,1-1.98-1.945c-.3-.8-.668-1.371-1.629-1.418a1.57,1.57,0,0,1-1.394-1.2,1.076,1.076,0,0,1,.27-1.242c.445-.363.738-.012,1.031.234a2.458,2.458,0,0,0-.047.762c.047.152.281.27.445.363a1.63,1.63,0,0,0,.48.141A2.063,2.063,0,0,1-925.726-358.123Zm-9.948-21.911a5.4,5.4,0,0,1,2.121-2.367,2.485,2.485,0,0,1,1.137-.387c3.785-.035,6.515,1.418,8.026,5.085a1.783,1.783,0,0,1-.129,1.851c-.387-.27-.715-.48-1.019-.726a11.756,11.756,0,0,0-4.5-2.695,12.163,12.163,0,0,0-3.2-.223,2.636,2.636,0,0,0-1.758.961c-.129.141-.5.258-.621.176a.957.957,0,0,1-.316-.68A2.511,2.511,0,0,1-935.673-380.033Zm-.961,6.925c-.3,0-.644-.129-.644-.516.012-.422.387-.434.68-.445a6.829,6.829,0,0,1,.691.035,4.681,4.681,0,0,1,4.089-3.48,5.922,5.922,0,0,1,3.679.832,9.089,9.089,0,0,1,3.773,4.839c-.738.4-1.324-.047-1.933-.176-.246.2-.48.492-.762.539a9.343,9.343,0,0,1-5.577-.281,18.353,18.353,0,0,1-2.32-1.418C-935.462-373.156-936.048-373.1-936.634-373.109Zm24.313,23.68a4.393,4.393,0,0,1-1.523.785,1.749,1.749,0,0,0-1.16.9c-.469.773-.949,1.547-1.465,2.3a16.34,16.34,0,0,0-1.617,3.386,26.379,26.379,0,0,1-1.406,3.035,2.581,2.581,0,0,1-2.25,1.429c-3.339.129-6.444-.516-9.022-2.859a6.648,6.648,0,0,1-1.769-2.742,21.708,21.708,0,0,1-1.394-8.612c.023-.27.047-.551.082-.82l.246-.035c.012.094.012.176.023.27.433-.4-.726-.668-.492-1.043a3.232,3.232,0,0,0-1.348-.375c-.152-.012-.316-.059-.469-.082a1.808,1.808,0,0,1,2.062-1.664c-.129.293-.246.562-.4.926.715.012,1.383-.035,2.039.035a22.667,22.667,0,0,1,3.093.48,4.271,4.271,0,0,1,2.1,1.371,2.888,2.888,0,0,0,3.925.633,2.548,2.548,0,0,1,1.957-.164c1.359.375,2.707.832,4.054,1.265,1.09.352,2.179.715,3.269,1.078a.737.737,0,0,0,1.008-.434c.082-.187.188-.363.281-.551C-911.747-350.425-911.677-349.921-912.321-349.429Zm6.96-17.927c-1.266,1.488-2.988,1.2-4.675,1.172A6.5,6.5,0,0,1-914.325-368a2.072,2.072,0,0,1-.141-3.257,4.585,4.585,0,0,1,4.827-1.676c.785.187,1.57.375,2.332.633a3.688,3.688,0,0,1,1.781,1.605,25.565,25.565,0,0,0,2.144,2.73,2.7,2.7,0,0,0,1.183.492,6.5,6.5,0,0,0,.832.152c0,.129-.012.258-.012.387C-902.725-366.055-903.967-367-905.362-367.356Z" transform="translate(949.507 414.566)" fill="#e59f41"/>
        <path id="Trazado_909335" data-name="Trazado 909335" d="M-895.658-385.82c-.621-.644-1.266-1.1-2.226-.6a1.755,1.755,0,0,1-.984,0c-.738-.105-1.465-.281-2.2-.375a1.973,1.973,0,0,0-2.32,1.418c-.469,1.207-.469,1.183-1.7,1.125a8.161,8.161,0,0,1-4.007-1.3c-.281-.187-.574-.352-.867-.527a.773.773,0,0,0-1.16.211,1.912,1.912,0,0,1-2.086.75,17.14,17.14,0,0,1-2.519-.715,1.91,1.91,0,0,1-1.23-1.652c-.035-.246-.07-.48-.117-.726-.164-.8-.433-1.066-1.207-1.16-.469-.059-.937-.082-1.418-.105a1.968,1.968,0,0,1-1.793-1.3c-.082-.187-.187-.375-.258-.562a2.21,2.21,0,0,0-1.828-1.453c-1.2-.141-2.4-.234-3.691-.352-.281-1-1.1-1.16-2.05-1.078a3.661,3.661,0,0,0-3.351,3.269,2.75,2.75,0,0,1-.574,1.418,3.518,3.518,0,0,0-.633,2.683,1.239,1.239,0,0,1-.445,1.207,6.305,6.305,0,0,0-1.886,3.187,11.079,11.079,0,0,0-.492,1.722,13.187,13.187,0,0,1-2.156,4.968c-.621.961-1.3,1.9-1.886,2.882-.562.949-1.043,1.957-1.547,2.906.351-2.812.258-5.519-2.1-7.616.234-.023.422-.047.691-.07-.141-.223-.234-.387-.352-.574.27-.141.551-.27.808-.434.527-.34.68-.691.352-1.219a1.856,1.856,0,0,1-.105-1.875,4.577,4.577,0,0,0,.223-.808,1.305,1.305,0,0,0-.551-1.547,6.93,6.93,0,0,1-.609-.551c.516-.621.984-1.207,1.476-1.769.246-.281.562-.516.832-.785.762-.8.68-1.254-.316-1.711-.644-.3-1.324-.527-1.933-.867-.844-.469-.867-.926-.152-1.617.4-.387.855-.7,1.266-1.066.82-.726.82-.984-.035-1.793.293-.4.6-.8,1.008-1.347a6.817,6.817,0,0,1-.656-.75,3.465,3.465,0,0,1,1.347-5.284,4.28,4.28,0,0,1,3.046-.527c.316.07.656.07.8-.269.223-.574.691-.715,1.183-.891.8-.293.973-.562.867-1.418-.117-.9-.316-1.781-.422-2.683-.129-1.09.047-1.3,1.078-1.465a24.679,24.679,0,0,1,2.906-.387,5.5,5.5,0,0,1,1.582.4c.2-1.055,1.043-1.336,1.886-1.617a6.467,6.467,0,0,1,3.3-.234,5.187,5.187,0,0,0,1.594.012,6.776,6.776,0,0,1,5.823,1.711c.668.633.973.516,1.207-.434.328-1.347.773-1.605,2.039-1.16.035.012.059.023.094.035a24.406,24.406,0,0,0,6.269,1.91,17.74,17.74,0,0,0,3.679.445,3,3,0,0,1,1.172.27,1.506,1.506,0,0,1,.973,1.652c-.012.211-.047.422-.047.633,0,.855.27,1.113,1.113,1.078a7.164,7.164,0,0,1,1.113-.059c.937.07,1.242.7.7,1.5-.176.258-.422.457-.609.715-.433.586-.234,1.113.469,1.183a8.19,8.19,0,0,0,1.418-.035c1.113-.059,2.226-.187,3.339-.187a9.92,9.92,0,0,1,2.2.246,2.245,2.245,0,0,1,1.828,2.4c0,.141-.023.281-.023.422,0,.715.176.9.844,1.066a11.958,11.958,0,0,1,2.133.586,6.667,6.667,0,0,1,3.7,4.675,3.222,3.222,0,0,1-1.055,3.316c-.27.258-.6.48-.855.75a1.069,1.069,0,0,0,.105,1.769c.27.211.562.375.82.6a2.938,2.938,0,0,1,.9,3.644,26.21,26.21,0,0,1-1.664,2.882c-.469.773-1.008,1.5-1.441,2.285a2.064,2.064,0,0,0,.117,2.367,2.216,2.216,0,0,1,.223,2.437,5.338,5.338,0,0,0-.152,1.851,16.659,16.659,0,0,1-.012,1.875,2.825,2.825,0,0,1-2.379,2.507,3.426,3.426,0,0,0-.949.352,1.725,1.725,0,0,0-.785,2.32c.188.48.41.937.656,1.488-.492.105-.891.152-1.265.269a.932.932,0,0,0-.75,1.254c.106.539.246,1.066.387,1.676a4.353,4.353,0,0,0-3.4,1.64c-.879.926-1.722,1.886-2.683,2.941.023-.316.023-.527.059-.738a55.738,55.738,0,0,1,.914-5.6,26.86,26.86,0,0,0,.492-5.109c.047-.633.129-1.254.234-1.875a12.882,12.882,0,0,0,.117-4.394,1.355,1.355,0,0,1,.492-1.383c.269-.223.516-.457.762-.7a3.652,3.652,0,0,0,1.031-1.9c.246-1.16.516-2.32.832-3.468a4.355,4.355,0,0,0-.082-2.566,9.122,9.122,0,0,0-2.472-4.218C-895.681-385.855-895.658-385.82-895.658-385.82Z" transform="translate(949.669 412.045)" fill="#311d47"/>
        <path id="Trazado_909336" data-name="Trazado 909336" d="M-943.226-371.092c-1.289-.035-1.687-.34-1.687-1.547,0-1.113.2-2.226.246-3.351a24.339,24.339,0,0,0-.094-2.613,2.381,2.381,0,0,0-.27-.891c-.34-.633-.867-.691-1.3-.141a5.813,5.813,0,0,0-1.066,2.918.668.668,0,0,0,.328.539.719.719,0,0,0,.6-.211,7.261,7.261,0,0,0,.691-.972,1.86,1.86,0,0,1,.234.082c-.07.808-.117,1.617-.2,2.425-.059.562-.187,1.113-.246,1.664a2.844,2.844,0,0,0,1.066,2.929,2.513,2.513,0,0,0-.961,1.886c.023.855.258,1.078,1.348,1.242-.422,1.722-.832,3.457-1.254,5.214-.281.059-.574.129-.891.2a2.554,2.554,0,0,1-.961-2.285,7.976,7.976,0,0,1,.269-1.968,9.643,9.643,0,0,0,0-5.284c-.258-.9-.5-1.816-.68-2.742a8.481,8.481,0,0,1,1.746-7.194c1.125-1.406,2-1.347,2.941.176a3.451,3.451,0,0,1,.457,1.043,12.915,12.915,0,0,1,.246,5.4,2.105,2.105,0,0,0,.023,1.535.818.818,0,0,1-.023.6A14.585,14.585,0,0,1-943.226-371.092Z" transform="translate(949.033 416.966)" fill="#e59f41"/>
        <path id="Trazado_909337" data-name="Trazado 909337" d="M-900.817-354.413a19.646,19.646,0,0,0,2.917-5.155c.457-1.172-.082-1.781-1.312-1.7a2.976,2.976,0,0,0-2.132,1.09c-.773.891-1.511,1.816-2.3,2.695a.887.887,0,0,1-1.406.059,1.693,1.693,0,0,1-.152-1.84,7.98,7.98,0,0,1,.914-1.254c1.1-1.254,2.2-2.5,3.339-3.714a2.85,2.85,0,0,1,2.05-1.148v.387a3.858,3.858,0,0,1-.058.445c.258-.293.445-.5.656-.738a1.551,1.551,0,0,1,1.5,1.394,4.334,4.334,0,0,1,.07,1.453,40.528,40.528,0,0,1-.808,4.441,4.812,4.812,0,0,1-3.281,3.585Z" transform="translate(956.387 419.855)" fill="#e59f41"/>
        <path id="Trazado_909338" data-name="Trazado 909338" d="M-900.388-355.326a9.142,9.142,0,0,1-.949.715,7.646,7.646,0,0,0-3.14,3.492,21.324,21.324,0,0,1-1.617,2.789,2.316,2.316,0,0,1-1.769,1.1c-.012-.27-.094-.527-.012-.691a35.634,35.634,0,0,0,2.507-8.975.919.919,0,0,1,.105-.223c.527.129,1.066.258,1.605.375.082.715.035.82-.973,2.5a2.139,2.139,0,0,0,2.109-3.14c.375-.434.762-.867,1.136-1.312.34-.41.68-.832,1.16-1.429a3.829,3.829,0,0,1-.293,1.933c-.152.469-.363.9-.539,1.359-.387.949-.269,1.183.668,1.511Z" transform="translate(955.957 420.756)" fill="#e59f41"/>
        <path id="Trazado_909339" data-name="Trazado 909339" d="M-944.236-371.44c-.234.75-.433,1.394-.633,2.05-.586-.352-.7-.621-.574-1.23S-945.138-371.37-944.236-371.44Z" transform="translate(949.505 418.814)" fill="#e59f41"/>
        <path id="Trazado_909340" data-name="Trazado 909340" d="M-913.9-356.9c-.094.187-.2.363-.281.551a.734.734,0,0,1-1.008.434c-1.09-.363-2.179-.726-3.269-1.078-1.348-.434-2.695-.89-4.054-1.265a2.544,2.544,0,0,0-1.957.164,2.886,2.886,0,0,1-3.925-.633,4.324,4.324,0,0,0-2.1-1.371,27.375,27.375,0,0,0-3.093-.48c-.656-.07-1.324-.023-2.039-.035.152-.363.269-.633.4-.926a1.808,1.808,0,0,0-2.062,1.664c.152.023.3.07.469.082a3.066,3.066,0,0,1,1.347.375.368.368,0,0,1,.117-.117.543.543,0,0,0-.117.117,4.093,4.093,0,0,1,1.652,1.91,10.447,10.447,0,0,1,.621,2.086c.164.68.258,1.371.375,2.05a6.345,6.345,0,0,0,2.191,3.761,7.6,7.6,0,0,0,4.8,1.9,5.542,5.542,0,0,0,5.1-2.461,36.254,36.254,0,0,1,2.777-3.07,3.81,3.81,0,0,1,.609-.434,1.955,1.955,0,0,1-.375.867,17.883,17.883,0,0,0-2.484,4.816,13.145,13.145,0,0,1-1.148,2.343,2.027,2.027,0,0,1-1.933,1.137,17.416,17.416,0,0,1-2.214-.141,10.891,10.891,0,0,1-6.128-2.671,5.918,5.918,0,0,1-1.3-1.7,17.463,17.463,0,0,1-2.015-8.542,4.816,4.816,0,0,0-.047-.82l-.047.047a.091.091,0,0,0,.047-.047,2.091,2.091,0,0,1-.023-.27l-.246.035c-.023.27-.059.551-.082.82a21.742,21.742,0,0,0,1.394,8.612,6.423,6.423,0,0,0,1.769,2.742c2.578,2.343,5.683,3,9.022,2.859a2.6,2.6,0,0,0,2.25-1.429,24.543,24.543,0,0,0,1.406-3.035,16.067,16.067,0,0,1,1.617-3.386c.5-.75,1-1.512,1.465-2.3a1.749,1.749,0,0,1,1.16-.9,4.2,4.2,0,0,0,1.523-.785C-913.083-355.866-913.153-356.37-913.9-356.9Zm-19.837-2.636a8.636,8.636,0,0,1,3.187.258,3.12,3.12,0,0,1,1.629,1.16,3.3,3.3,0,0,0,3.363,1.183,8.312,8.312,0,0,0,1.3-.551c.3-.117.656-.328.926-.27a19.978,19.978,0,0,1,4.394,1.711,22.951,22.951,0,0,0-5.214.621,6.761,6.761,0,0,1-3.7-.176,2.948,2.948,0,0,1-.82-.4c-1.57-1.066-3.117-2.156-4.675-3.246C-933.447-359.311-933.541-359.393-933.74-359.533Zm11.752,9.713a3.226,3.226,0,0,1-1.9,1.148,6.929,6.929,0,0,1-5.859-1.16,5.727,5.727,0,0,1-2.32-3.656c-.281-1.429-.656-2.836-1.019-4.429a9.351,9.351,0,0,1,1.019.609,17.745,17.745,0,0,1,2.05,1.676,8.065,8.065,0,0,0,4.406,2.121,2.994,2.994,0,0,0,2.168-.316,4.722,4.722,0,0,1,2.531-.621,27.149,27.149,0,0,1,2.894.211A31.329,31.329,0,0,0-921.988-349.82Z" transform="translate(950.913 420.511)" fill="#311d47"/>
        <path id="Trazado_909341" data-name="Trazado 909341" d="M-905.793-370.308c-1.371.879-2.613-.07-4.007-.434-1.266,1.488-2.988,1.2-4.675,1.172a6.5,6.5,0,0,1-4.288-1.816,2.072,2.072,0,0,1-.141-3.257,4.585,4.585,0,0,1,4.827-1.676c.785.187,1.57.375,2.332.633a3.688,3.688,0,0,1,1.781,1.605,25.565,25.565,0,0,0,2.144,2.73,2.7,2.7,0,0,0,1.183.492,6.5,6.5,0,0,0,.832.152A2.307,2.307,0,0,1-905.793-370.308Zm-7.264-4.312c.668.832,1.488,1.429,1.148,2.543-.3.961-1.113,1.429-2.027,2.039a5.519,5.519,0,0,0,3.445-.469.778.778,0,0,0,.41-1.043,5.354,5.354,0,0,0-.328-1.09c-.316-.539-.48-1.23-1.148-1.476C-912-374.256-912.448-374.409-913.057-374.62Zm-3.8.164c-1.1.246-1.523,1.2-2.343,1.687.551,1.242,1.722,1.547,2.648,2.191C-917.4-371.784-917.979-372.979-916.854-374.456Zm1.816,2.308c.48-.234.574-.457.41-.762-.211-.363-.492-.516-1.043-.293C-915.436-372.815-915.249-372.487-915.038-372.147Z" transform="translate(953.945 417.951)" fill="#311d47"/>
        <path id="Trazado_909342" data-name="Trazado 909342" d="M-927.476-374.782c-.258.2-.492.516-.785.562a9.343,9.343,0,0,1-5.577-.281,18.353,18.353,0,0,1-2.32-1.418c-.516.035-1.1.094-1.687.082-.3,0-.644-.129-.644-.516.012-.422.387-.434.68-.457a6.83,6.83,0,0,1,.691.035,4.681,4.681,0,0,1,4.089-3.48,5.922,5.922,0,0,1,3.679.832,9.089,9.089,0,0,1,3.773,4.839c-.738.4-1.324-.047-1.933-.187-.34-.867-.363-1.933-1.453-2.531a2.421,2.421,0,0,1-.914,2.613,11.593,11.593,0,0,0,1.312-.082C-928.191-374.782-927.828-374.771-927.476-374.782Zm-6.468-4c-.574.375-1.008.644-1.429.937a.8.8,0,0,0-.211,1.3A4.8,4.8,0,0,0-933.323-375C-934.881-377.079-934.928-377.29-933.944-378.778Zm1.933,2.332a3.55,3.55,0,0,0,.5-.8.39.39,0,0,0-.445-.5,1.765,1.765,0,0,0-.562.27C-932.385-377.208-932.245-376.927-932.01-376.446Z" transform="translate(950.707 417.294)" fill="#311d47"/>
        <path id="Trazado_909343" data-name="Trazado 909343" d="M-913.25-377.869a11.181,11.181,0,0,0-3.855.223,5.261,5.261,0,0,0-1.629.8c-.4.281-.738.562-1.172.223s-.328-.8-.187-1.254a4.243,4.243,0,0,1,4.347-3.269,13.628,13.628,0,0,1,5.952,1.441,4.986,4.986,0,0,1,2.144,2.144,9.38,9.38,0,0,0,.715,1.254c.516.621.152,1.2-.059,1.746-.129.363-.492.363-.773.187-.3-.2-.574-.469-.867-.7a29.511,29.511,0,0,0-2.566-1.992A12.235,12.235,0,0,0-913.25-377.869Z" transform="translate(953.845 417.147)" fill="#311d47"/>
        <path id="Trazado_909344" data-name="Trazado 909344" d="M-925.908-377.8c-.387-.27-.715-.48-1.019-.726a11.756,11.756,0,0,0-4.5-2.695,12.164,12.164,0,0,0-3.2-.223,2.637,2.637,0,0,0-1.758.961c-.129.141-.5.258-.621.176a.957.957,0,0,1-.316-.68,2.323,2.323,0,0,1,.246-1.008,5.4,5.4,0,0,1,2.121-2.367,2.484,2.484,0,0,1,1.136-.387c3.785-.035,6.515,1.418,8.026,5.085A1.8,1.8,0,0,1-925.908-377.8Z" transform="translate(950.907 416.529)" fill="#311d47"/>
        <path id="Trazado_909345" data-name="Trazado 909345" d="M-919.252-364.081c.129,0,.316-.07.434,0a2.184,2.184,0,0,1,.832,2.179,1.662,1.662,0,0,1-1.781,1.254,5.363,5.363,0,0,0-3.117.293,5.264,5.264,0,0,1-3.96-.012,3.378,3.378,0,0,1-1.98-1.945c-.3-.8-.668-1.371-1.629-1.418a1.57,1.57,0,0,1-1.394-1.2,1.076,1.076,0,0,1,.27-1.242c.445-.363.738-.012,1.031.234a2.458,2.458,0,0,0-.047.762c.047.152.281.27.445.363a1.63,1.63,0,0,0,.48.141,2.084,2.084,0,0,1,1.617,1.418,2.641,2.641,0,0,0,1.746,1.863,4.013,4.013,0,0,0,3.246-.023,2.718,2.718,0,0,1,2.039-.328,4.611,4.611,0,0,0,.808.07c1.219.059,1.558-.445,1.078-1.57a4.969,4.969,0,0,1-.211-.586A1.194,1.194,0,0,1-919.252-364.081Z" transform="translate(951.833 419.693)" fill="#311d47"/>
        <path id="Trazado_909346" data-name="Trazado 909346" d="M-925.836-376.59a18.534,18.534,0,0,1-1.242,7.944,2.36,2.36,0,0,1-.762.926C-926.914-370.638-926.539-373.649-925.836-376.59Z" transform="translate(952.535 417.93)" fill="#311d47"/>
        <path id="Trazado_909347" data-name="Trazado 909347" d="M-927.39-368.29c2.168.188,3.8.738,4.23,1.383C-923.769-366.708-925.843-367.364-927.39-368.29Z" transform="translate(952.612 419.355)" fill="#311d47"/>
        <path id="Trazado_909348" data-name="Trazado 909348" d="M-933.7-358.44a9.358,9.358,0,0,1,1.019.609,17.766,17.766,0,0,1,2.05,1.676,8.064,8.064,0,0,0,4.406,2.121,2.994,2.994,0,0,0,2.168-.316,4.722,4.722,0,0,1,2.531-.621,27.144,27.144,0,0,1,2.894.211,32.58,32.58,0,0,0-3.96,4.406,3.226,3.226,0,0,1-1.9,1.148,6.929,6.929,0,0,1-5.858-1.16,5.727,5.727,0,0,1-2.32-3.656C-932.962-355.452-933.337-356.858-933.7-358.44Z" transform="translate(951.529 421.046)" fill="#fff"/>
        <path id="Trazado_909349" data-name="Trazado 909349" d="M-934.26-359.822a8.636,8.636,0,0,1,3.187.258,3.12,3.12,0,0,1,1.629,1.16,3.3,3.3,0,0,0,3.363,1.183,7.331,7.331,0,0,0,1.3-.551c.3-.117.656-.328.926-.27a19.978,19.978,0,0,1,4.394,1.711,22.951,22.951,0,0,0-5.214.621,6.761,6.761,0,0,1-3.7-.176,2.948,2.948,0,0,1-.82-.4c-1.57-1.066-3.117-2.156-4.675-3.246C-933.967-359.6-934.061-359.682-934.26-359.822Z" transform="translate(951.433 420.8)" fill="#9b4d34"/>
        <path id="Trazado_909350" data-name="Trazado 909350" d="M-913.889-374.89c.609.211,1.054.363,1.488.516.668.246.832.937,1.148,1.476a5.354,5.354,0,0,1,.328,1.09.778.778,0,0,1-.41,1.043,5.687,5.687,0,0,1-3.445.469c.914-.609,1.722-1.078,2.027-2.039C-912.39-373.461-913.222-374.058-913.889-374.89Z" transform="translate(954.777 418.222)" fill="#fff"/>
        <path id="Trazado_909351" data-name="Trazado 909351" d="M-916.917-374.75c-1.125,1.488-.551,2.671.3,3.878-.926-.644-2.1-.937-2.648-2.191C-918.44-373.555-918.018-374.5-916.917-374.75Z" transform="translate(954.008 418.246)" fill="#fff"/>
        <path id="Trazado_909352" data-name="Trazado 909352" d="M-915.617-372.611c-.211-.34-.4-.668-.633-1.055a.733.733,0,0,1,1.043.293C-915.043-373.068-915.137-372.846-915.617-372.611Z" transform="translate(954.525 418.416)" fill="#fff"/>
        <path id="Trazado_909353" data-name="Trazado 909353" d="M-934.334-379c-.972,1.488-.937,1.7.633,3.761a4.53,4.53,0,0,1-2.261-1.535.791.791,0,0,1,.211-1.3C-935.342-378.356-934.908-378.625-934.334-379Z" transform="translate(951.097 417.516)" fill="#fff"/>
        <path id="Trazado_909354" data-name="Trazado 909354" d="M-928.74-375.223c-.363.012-.715,0-1.078.023a11.784,11.784,0,0,1-1.312.082,2.421,2.421,0,0,0,.914-2.613c1.09.6,1.113,1.652,1.453,2.531Z" transform="translate(951.97 417.734)" fill="#fff"/>
        <path id="Trazado_909355" data-name="Trazado 909355" d="M-932.884-376.819c-.246-.48-.375-.75-.516-1.031a1.765,1.765,0,0,1,.562-.27.386.386,0,0,1,.445.5A3.457,3.457,0,0,1-932.884-376.819Z" transform="translate(951.581 417.667)" fill="#fff"/>
      </g>
    </g>
  </g>
</svg>
