<svg xmlns="http://www.w3.org/2000/svg" width="84.945" height="84.945" viewBox="0 0 84.945 84.945">
  <g id="Grupo_1088058" data-name="Grupo 1088058" transform="translate(-180.027 -12767.267)">
    <path id="Trazado_861608" data-name="Trazado 861608" d="M42.473,0A42.473,42.473,0,1,1,0,42.473,42.473,42.473,0,0,1,42.473,0Z" transform="translate(180.027 12767.268)" fill="#ffb6c8"/>
    <g id="heart-rate_2860834" transform="translate(200.04 12783.779)">
      <g id="Grupo_1104610" data-name="Grupo 1104610" transform="translate(1.805 1.805)">
        <g id="Grupo_1104602" data-name="Grupo 1104602" transform="translate(5.306 23.35)">
          <path id="Trazado_914922" data-name="Trazado 914922" d="M22.608,32.61v4.106a4.475,4.475,0,0,0-.805-.081,3.888,3.888,0,0,0-2.746,1.135,4.365,4.365,0,0,0-1.28,3.084,4.932,4.932,0,0,0,1.659,3.7l3.833,3.406A58.738,58.738,0,0,0,24.709,54.8l.314,1.159H8.59a2.749,2.749,0,0,0,2.746-2.746,2.487,2.487,0,0,0-.113-.733h.008l1.079-2.874a10.029,10.029,0,0,0,.25-6.272,31.507,31.507,0,0,1-.958-4.63,31.9,31.9,0,0,1-.266-4.114V31.805L12.946,31l.378.564a4.141,4.141,0,0,0,3.454,1.852,2.909,2.909,0,0,0,2.609-1.61l2.448.491c.258.056.523.1.789.137Z" transform="translate(-8.59 -31)" fill="#b4dd7f"/>
        </g>
        <g id="Grupo_1104603" data-name="Grupo 1104603" transform="translate(0 0)">
          <path id="Trazado_914923" data-name="Trazado 914923" d="M26.155,24.915v.04a4.819,4.819,0,0,1-.33,1.755,8.907,8.907,0,0,1-2.085.25,15.886,15.886,0,0,1-2.4-.177c-.266-.04-.531-.081-.789-.137L18.1,26.155V22.934h.805a2.412,2.412,0,0,0,2.415-2.415V16.493l1.61-1.61-.089-.089a6.479,6.479,0,0,1-1.828-3.647l-.137-.99A4.112,4.112,0,0,0,18.1,6.831h-.258c-3.784,0-4.573,1.61-4.573,1.61l-.62.62a3.369,3.369,0,0,0-.427,4.251l.5.749a3.3,3.3,0,0,1,.548,1.8V15.9a3.383,3.383,0,0,1-.99,2.391l-1.24,1.24a3.369,3.369,0,0,0-.427,4.251l1.047,1.57-1.61.805a14.531,14.531,0,0,0-6.184,5.894l-.225-.225a5.62,5.62,0,0,1-.7-7.085l.169-.242a3.037,3.037,0,0,0,.5-1.659A2.94,2.94,0,0,0,3.3,21.5l-.837-1.667A4.475,4.475,0,0,1,2,17.878a4.4,4.4,0,0,1,1.747-3.5,3.68,3.68,0,0,0,1.473-2.939v-.161A9.292,9.292,0,0,1,14.5,2a11.27,11.27,0,0,1,11.055,9.058l.491,2.44a6.39,6.39,0,0,1,.113,1.176,6.069,6.069,0,0,1-1.006,3.333l-.1.145a3.037,3.037,0,0,0-.5,1.659,2.94,2.94,0,0,0,.314,1.337s.411.829.773,1.546a4.9,4.9,0,0,1,.523,2.222Z" transform="translate(-2 -2)" fill="#656d78"/>
        </g>
        <g id="Grupo_1104604" data-name="Grupo 1104604" transform="translate(45.542 32.904)">
          <circle id="Elipse_5733" data-name="Elipse 5733" cx="1.458" cy="1.458" r="1.458" transform="translate(0 0)" fill="#fcd770"/>
        </g>
        <g id="Grupo_1104605" data-name="Grupo 1104605" transform="translate(14.493 28.986)">
          <path id="Trazado_914924" data-name="Trazado 914924" d="M33.213,45.528a3.423,3.423,0,0,1-.378.386l-5.588,4.968-1.755-1.562-3.833-3.406A4.932,4.932,0,0,1,20,42.219a4.365,4.365,0,0,1,1.28-3.084A3.888,3.888,0,0,1,24.026,38a4.475,4.475,0,0,1,.805.081,3.936,3.936,0,0,1,1.94,1.055l.475.475.475-.475a3.886,3.886,0,0,1,5.016-.4,3.8,3.8,0,0,1,.475.4,4.365,4.365,0,0,1,1.28,3.084,4.908,4.908,0,0,1-1.28,3.309Z" transform="translate(-20 -38)" fill="#ff826e"/>
        </g>
        <g id="Grupo_1104606" data-name="Grupo 1104606" transform="translate(0 24.155)">
          <path id="Trazado_914925" data-name="Trazado 914925" d="M9.939,52.677a2.487,2.487,0,0,1,.113.733,2.749,2.749,0,0,1-2.746,2.746h-.04a3.538,3.538,0,0,1-2.206-.773l-.032-.024A8.08,8.08,0,0,1,2,49.061V45.027A14.572,14.572,0,0,1,10.052,32v2.786a31.9,31.9,0,0,0,.266,4.114,10.734,10.734,0,0,0-3.486,7.915v2.093A1.621,1.621,0,0,0,7.475,50.2l1.554,1.167a2.538,2.538,0,0,1,.91,1.312Z" transform="translate(-2 -32)" fill="#c17c46"/>
        </g>
        <g id="Grupo_1104607" data-name="Grupo 1104607" transform="translate(32.206 8.052)">
          <path id="Trazado_914926" data-name="Trazado 914926" d="M43.61,15.221A1.615,1.615,0,0,0,42,13.61,1.615,1.615,0,0,1,43.61,12H44.8a2.031,2.031,0,0,1,2.029,2.029v1.192a1.615,1.615,0,0,1-1.61,1.61H42a1.622,1.622,0,0,0,1.61-1.61Z" transform="translate(-42 -12)" fill="#c17c46"/>
        </g>
        <g id="Grupo_1104608" data-name="Grupo 1104608" transform="translate(19.324 9.662)">
          <path id="Trazado_914927" data-name="Trazado 914927" d="M43.714,16.552a5.5,5.5,0,0,1-1.61,3.889v1.61a12.892,12.892,0,0,1-8.2,12,3.886,3.886,0,0,0-5.016.4l-.475.475-.475-.475A3.936,3.936,0,0,0,26,33.4V29.3l.016-.177a15.885,15.885,0,0,0,2.4.177,8.907,8.907,0,0,0,2.085-.25,8.847,8.847,0,0,0,6.771-8.607l-1.465-3.663A2.03,2.03,0,0,1,37.691,14h1.192a1.615,1.615,0,0,1,1.61,1.61,1.622,1.622,0,0,1-1.61,1.61H42.1a1.615,1.615,0,0,0,1.61-1.61Z" transform="translate(-26 -14)" fill="#c17c46"/>
        </g>
        <g id="Grupo_1104609" data-name="Grupo 1104609" transform="translate(8.052 4.831)">
          <path id="Trazado_914928" data-name="Trazado 914928" d="M23.272,20.883v.805A2.412,2.412,0,0,1,20.857,24.1h-.805v3.221a2.909,2.909,0,0,1-2.609,1.61,4.141,4.141,0,0,1-3.454-1.852l-.378-.564-1.047-1.57A3.369,3.369,0,0,1,12.99,20.7l1.24-1.24a3.383,3.383,0,0,0,.99-2.391v-.032a3.3,3.3,0,0,0-.548-1.8l-.5-.749A3.369,3.369,0,0,1,14.6,10.23l.62-.62S16.01,8,19.794,8h.258a4.112,4.112,0,0,1,2.778,3.325l.137.99a6.479,6.479,0,0,0,1.828,3.647l.089.089-1.61,1.61Z" transform="translate(-12 -8)" fill="#c17c46"/>
        </g>
      </g>
      <g id="Grupo_1104611" data-name="Grupo 1104611" transform="translate(1 1)">
        <circle id="Elipse_5734" data-name="Elipse 5734" cx="0.972" cy="0.972" r="0.972" transform="translate(16.211 11.35)"/>
        <path id="Trazado_914929" data-name="Trazado 914929" d="M0,0H1.61V2.9H0Z" transform="matrix(0.832, -0.555, 0.555, 0.832, 13.019, 6.078)"/>
        <path id="Trazado_914930" data-name="Trazado 914930" d="M10.277,16.394a1.139,1.139,0,0,1,0,1.61L9.236,19.045l1.138,1.138,1.041-1.041a2.749,2.749,0,0,0,0-3.887l-.163-.163a2.178,2.178,0,0,1-.642-1.55,2.15,2.15,0,0,1,.066-.531l.716-2.863L9.83,9.757l-.715,2.862a3.793,3.793,0,0,0,1,3.612Z" transform="translate(-2.559 -2.706)"/>
        <path id="Trazado_914931" data-name="Trazado 914931" d="M5.846,28.27l1.527.51L8,26.9a4.264,4.264,0,0,0-.5-3.717L6.852,22.2a1.442,1.442,0,0,1,.18-1.818l.953-.953L6.846,18.293l-.953.953a3.051,3.051,0,0,0-.382,3.849l.652.977a2.661,2.661,0,0,1,.31,2.315Z" transform="translate(-1.779 -4.369)"/>
        <path id="Trazado_914932" data-name="Trazado 914932" d="M48.5,34.012a2.412,2.412,0,0,0-2.267,1.61H42.412l-2,3.325-4.795-7.192-4.8,7.192-.332-.553a5.757,5.757,0,0,0,1.1-3.382A5.123,5.123,0,0,0,30.45,31.77a13.594,13.594,0,0,0,7.587-12.251v-1.29a6.257,6.257,0,0,0,1.61-4.209V11.882a2.834,2.834,0,0,0-2.831-2.83H35.622a2.412,2.412,0,0,0-2.267,1.61h-.539a2.832,2.832,0,0,0-2.628,3.882l1.407,3.516A8.062,8.062,0,0,1,26.737,25.3c.018-.188.028-.379.028-.574a5.722,5.722,0,0,0-.608-2.584l-.771-1.543a2.18,2.18,0,0,1,.136-2.188l.1-.148a6.811,6.811,0,0,0,1.012-5.118l-.486-2.432A12.109,12.109,0,0,0,14.3,1,10.1,10.1,0,0,0,4.221,11.083v.156a2.886,2.886,0,0,1-1.148,2.3A5.18,5.18,0,0,0,1.547,20l.833,1.666a2.2,2.2,0,0,1,.23.977,2.179,2.179,0,0,1-.367,1.212l-.165.248a6.4,6.4,0,0,0,.6,7.88A15.373,15.373,0,0,0,1,38.987V43.02a8.845,8.845,0,0,0,3.357,6.948,4.387,4.387,0,0,0,2.75.953H24.6l-.593-2.176c-.4-1.481-.746-2.99-1.034-4.5l.573.51,5.8-5.151,1.415,2.358,4.866-7.3,4.866,7.3,2.836-4.726h2.913A2.411,2.411,0,1,0,48.5,34.012ZM35.622,10.662h1.195a1.222,1.222,0,0,1,1.221,1.221v1.195a.806.806,0,0,1-.805.805h-.953a2.388,2.388,0,0,0,.148-.805,2.412,2.412,0,0,0-1.378-2.172A.8.8,0,0,1,35.622,10.662Zm-2.415,7.246v-.155l-1.523-3.808a1.221,1.221,0,0,1,1.134-1.674h1.195a.805.805,0,1,1,0,1.61h-.805v1.61h4.026a2.35,2.35,0,0,0,.6-.084,4.675,4.675,0,0,1-1.165,1.929l-.236.237v1.944a12,12,0,0,1-7.321,11.1,4.684,4.684,0,0,0-5.561.651,4.663,4.663,0,0,0-1.61-.986V27.49c.535.052,1.073.081,1.61.081a9.673,9.673,0,0,0,9.662-9.662ZM2.61,27.66a4.793,4.793,0,0,1,.808-2.668l.165-.248a3.782,3.782,0,0,0,.637-2.1,3.8,3.8,0,0,0-.4-1.7l-.833-1.666a3.571,3.571,0,0,1,1.052-4.453,4.5,4.5,0,0,0,1.792-3.585v-.156A8.483,8.483,0,0,1,14.3,2.61a10.5,10.5,0,0,1,10.264,8.415l.486,2.432a5.21,5.21,0,0,1-.774,3.908l-.1.148a3.791,3.791,0,0,0-.237,3.8l.771,1.543a4.168,4.168,0,0,1,.438,1.9,4.021,4.021,0,0,1-.16,1.064,8.041,8.041,0,0,1-1.45.137,15.457,15.457,0,0,1-3.031-.3l-1.8-.36V23.544a3.224,3.224,0,0,0,3.221-3.221V16.631l1.944-1.944-.661-.661a5.672,5.672,0,0,1-1.594-3.188l-.142-.99a4.9,4.9,0,0,0-3.318-3.976L17.653,7.4a3.3,3.3,0,0,1,2.234,2.676l.142.99a7.3,7.3,0,0,0,1.594,3.6l-1.3,1.3v2.749h-1.61A1.612,1.612,0,0,1,17.1,17.1h-1.61a3.224,3.224,0,0,0,3.221,3.221h1.61a1.612,1.612,0,0,1-1.61,1.61H15.683A2.1,2.1,0,0,1,13.8,20.769l-1.44.721a3.7,3.7,0,0,0,3.325,2.056H17.1v2.179a2.085,2.085,0,0,1-1.8,1.041,3.346,3.346,0,0,1-2.79-1.493l-.376-.564-.31-.465-.085-.126-.65-.975a2.563,2.563,0,0,1,.32-3.235l1.243-1.243a4.181,4.181,0,0,0,1.226-2.992,4.038,4.038,0,0,0-.681-2.25l-.5-.748a2.565,2.565,0,0,1,.321-3.235l.623-.623L12.508,7.677l-.623.623a4.172,4.172,0,0,0-.522,5.267l.5.748a2.467,2.467,0,0,1,.411,1.387,2.558,2.558,0,0,1-.755,1.822l-1.243,1.243a4.174,4.174,0,0,0-.522,5.267l.539.808-.795.4A15.352,15.352,0,0,0,3.547,30.5,4.77,4.77,0,0,1,2.61,27.66Zm7.7,10.055a9.219,9.219,0,0,1,.354,2.532,9.18,9.18,0,0,1-.587,3.236l-.523,1.395c-.076-.068-.151-.136-.233-.2L7.763,43.512a.808.808,0,0,1-.322-.644V40.777A9.936,9.936,0,0,1,9.6,34.617c.19,1.041.413,2.077.7,3.1ZM5.337,48.688A7.226,7.226,0,0,1,2.612,43.02V38.987a13.669,13.669,0,0,1,6.44-11.644v1.405a32.593,32.593,0,0,0,.241,3.812,11.543,11.543,0,0,0-3.462,8.217v2.091A2.426,2.426,0,0,0,6.8,44.8l1.555,1.166a1.758,1.758,0,0,1,.7,1.4,1.932,1.932,0,0,1-.569,1.374,2.429,2.429,0,0,1-3.146-.052Zm17.115.48.039.142H10.081a3.53,3.53,0,0,0,.581-1.944,3.319,3.319,0,0,0-.072-.669l.994-2.65a10.821,10.821,0,0,0,.272-6.775,31.052,31.052,0,0,1-1.193-8.523V26.458l.53-.265A4.953,4.953,0,0,0,15.3,28.375a3.687,3.687,0,0,0,2.99-1.518l1.9.381c.042.008.085.01.126.019v2.729a4.659,4.659,0,0,0-3.318,1.374,5.128,5.128,0,0,0-1.513,3.652,5.757,5.757,0,0,0,1.929,4.3l3.618,3.215a60.5,60.5,0,0,0,1.412,6.643ZM23.544,42.6l-5.052-4.491a4.14,4.14,0,0,1-1.39-3.093A3.532,3.532,0,0,1,18.144,32.5a3.083,3.083,0,0,1,4.359,0l1.041,1.041L24.586,32.5a3.157,3.157,0,0,1,4.359,0,3.53,3.53,0,0,1,1.041,2.514,4.133,4.133,0,0,1-.428,1.82l-.727-1.211H23.544v1.61H27.92l.577.962ZM48.5,37.232a.805.805,0,1,1,.805-.805A.806.806,0,0,1,48.5,37.232Z" transform="translate(-1 -1)"/>
      </g>
    </g>
  </g>
</svg>
