<svg xmlns="http://www.w3.org/2000/svg" xmlns:xlink="http://www.w3.org/1999/xlink" width="506" height="299.294" viewBox="0 0 506 299.294">
  <defs>
    <clipPath id="clip-path">
      <rect id="Rectángulo_414251" data-name="Rectángulo 414251" width="506" height="299.294" transform="translate(-8526.779 -9374.179)" fill="#f7df3f" opacity="0.59"/>
    </clipPath>
  </defs>
  <g id="_11" data-name="11" transform="translate(8526.779 9374.179)" clip-path="url(#clip-path)">
    <g id="Grupo_1132276" data-name="Grupo 1132276">
      <g id="Grupo_1132274" data-name="Grupo 1132274" transform="translate(2920.577 760.984)">
        <g id="Grupo_1132275" data-name="Grupo 1132275">
          <path id="Trazado_930556" data-name="Trazado 930556" d="M414.272,449.68c30.331,0,79.6-13.6,85.656-53.436,5.04-33.171-19.041-65.6-56.471-78.434-48.9-16.772-34.212-32.59-17.691-62.9,17.691-32.453-18.889-78.246-69.984-49.043s-70.915,44.4-108.1,30.163c-61.043-23.367-87.791,42.212-46.174,69.6s44.869,65.492,23.955,85.88a51.9,51.9,0,0,0-7,8.441c-13.8,20.67-9.45,49.73,50.812,49.73h145Z" transform="translate(-11536.188 -10317.703)" fill="#553392"/>
          <path id="Trazado_930557" data-name="Trazado 930557" d="M337.738,372.038c-46.563-9.993-106.875,30.8-137.361,35.363-9.854,1.477-16.6-1.117-18.246-11.157-5.441-33.171,20.555-65.6,60.962-78.434,52.787-16.772,36.932-32.59,19.1-62.9-19.1-32.453,20.391-78.246,75.548-49.043s76.554,44.4,116.7,30.163c65.9-23.367,94.771,42.212,49.846,69.6s-48.437,65.492-25.86,85.88a53.028,53.028,0,0,1,7.554,8.441c14.894,20.67,10.2,49.73-54.851,49.73,0,0-31.141-64.283-93.389-77.642Z" transform="translate(-11536.188 -10252.307)" fill="#613e9f"/>
        </g>
      </g>
      <g id="aborigenespejo-01" transform="translate(-8489.086 -9378.063)">
        <path id="Trazado_915078" data-name="Trazado 915078" d="M235.943,359.489q-.813-3.955-1.639-7.909a3.285,3.285,0,0,0-.293-.885c-3.079-5.647-4.706-11.8-6.314-17.956-.455-1.733-1.022-3.428-1.539-5.154-6.42,2.549-13.113,3.2-19.763,3.864-9.8.985-19.483,2.711-29.187,4.338-12.01,2.019-24.076,3.69-36.124,5.454a32.241,32.241,0,0,1-5.267.206,18.394,18.394,0,0,0-7.548,1.346c-1.5.623-1.9.255-1.789-1.365a3.863,3.863,0,0,0-.3-1.253,5.56,5.56,0,0,1-.405-1.44c.031-3.079-.075-6.176.231-9.23a152.207,152.207,0,0,0,.224-20.019c-.449-13.892-1.06-27.779-1.346-41.671-.112-5.572.474-11.156.686-16.734.324-8.507.848-17.015.835-25.522-.031-31.674-.33-63.354-.349-95.028-.006-13.9.386-27.8.648-41.7q.224-12.023-.767-24c-.3-3.7-.224-7.417-.418-11.119-.411-7.8-.885-15.588-1.334-23.385-.025-.467-.075-.935-.056-1.4a23.569,23.569,0,0,0-.941-7.978c-.648-2.026.467-3.253,2.624-3.048a14.219,14.219,0,0,1,3.54.748A91.911,91.911,0,0,0,142.7,22.12c4.687.954,9.243,2.574,13.892,3.752,2.643.667,5.385.935,8.034,1.577,2.917.711,5.74,1.807,8.67,2.443,3.927.848,7.934,1.309,11.873,2.113,4.587.935,9.112,2.181,13.705,3.079,3.366.654,6.8.96,10.2,1.452a9.865,9.865,0,0,1,2.387.555,36.607,36.607,0,0,0,12.7,2.443,48.837,48.837,0,0,1,11.325,2.287,90.5,90.5,0,0,0,9.5,1.969,8.551,8.551,0,0,1,4.905,2.237,7.3,7.3,0,0,0,4.363,2.063,14.346,14.346,0,0,1,1.839.374c2.082.548,2.412.947,2.262,3.129-.262,3.777-.617,7.548-.885,11.318a22.85,22.85,0,0,0,.037,3.266c.206,2.761.455,5.516.7,8.277a13.937,13.937,0,0,0,.337,1.614c1.321-.175,2.574-.386,3.839-.5a50.862,50.862,0,0,1,15.282.517c6.769,1.415,12.016,5.217,16.117,10.7.935,1.247,1.969,2.424,2.867,3.7a41.407,41.407,0,0,1,7.566,23.833,89.715,89.715,0,0,1-1.783,19.676c-1.639,7.822-1.483,15.65-.711,23.547.954,9.791,1.683,19.608,2.518,29.412a17.413,17.413,0,0,0,.349,2.549c1.365,5.778.779,11.48-.642,17.152-.91,3.634-1.62,7.33-2.711,10.907a54.3,54.3,0,0,1-6.937,13.88,30.847,30.847,0,0,0-5.385,13.942c-.3,3.023.916,5.659,2.424,8.165.168.28.654.368,1.035.561.143,1.377-.686,2.15-2.013,1.614a29.931,29.931,0,0,1-3.272-1.807c.486,2.35.15,4.855,1.558,7.005a1.668,1.668,0,0,1,.168,1.128,14.647,14.647,0,0,0,1.1,7.8c1.608,4.357,3.3,8.676,4.942,13.026.623,1.664,1.253,3.328,1.739,5.036a1.955,1.955,0,0,1-.461,1.558c-1.072,1.172-2.269,2.231-3.472,3.384a5.822,5.822,0,0,1,.019,4.967c-1.047,2.842-2.368,5.584-3.565,8.37a3.709,3.709,0,0,0-.418,1.178c-.28,7.024.642,13.942,1.7,20.867,1.315,8.682,2.462,17.389,3.677,26.083.243,1.739.474,3.478.711,5.217h-2.343c-.143-1.515-.224-3.042-.449-4.544-1.315-8.726-2.674-17.445-4-26.164-.368-2.449-.654-4.911-.985-7.379-.174.044-.268.044-.318.087q-3.281,2.814-6.557,5.634a.945.945,0,0,0-.349.561c-.031,1.346-.019,2.692-.019,4.226,1.7-1.371,3.272-2.655,4.849-3.933a46.879,46.879,0,0,1-4.319,4.369c-.249.237-.63.492-.667.773-.162,1.29-.231,2.593-.343,4.057l.642-.424a33.115,33.115,0,0,0-1.078,4.238c-.773,6.158-1.427,12.328-2.132,18.492h-3.752c.05-.305.075-.617.15-.916a84.751,84.751,0,0,0,3.01-14.89c.524-6.694,1.091-13.381,1.477-20.081.2-3.428-.019-6.9,2.119-9.891.019-.025,0-.075-.019-.337a25.562,25.562,0,0,1-3.16-.168c-.53-.087-1.328-.524-1.4-.916a1.932,1.932,0,0,1,.723-1.608,11.571,11.571,0,0,0,3.833-4.344,18.921,18.921,0,0,0,2.643-8.651c.006-.3.343-.586.53-.879.231.268.617.511.673.816a9.077,9.077,0,0,1,.137,2.213,21.342,21.342,0,0,1-3.409,9.978c-.2.312-.374.63-.6,1.016,4.132.268,12.808-12.615,11.823-17.364a2.743,2.743,0,0,0-.555.05c-2.144.58-4.282,1.2-6.432,1.739-3.6.91-7.2,1.807-10.976,1.5-6.887-.561-13.793-.978-20.661-1.726a74.941,74.941,0,0,1-28.657-8.894c-.256-.143-.536-.243-.785-.355-.081.112-.112.143-.118.181-.193.8-.393,1.6-.567,2.393a26.067,26.067,0,0,0,3.927,21.334,16.376,16.376,0,0,1,1.994,3.939c.767,2.231.019,4.406-.735,6.507a9,9,0,0,0-.019,6.077c1.546,4.706,2.948,9.467,4.575,14.142,1.864,5.372,3.69,10.795,7.5,15.245-.879-.249-1.789-.511-2.879-.823.436,1.726.81,3.228,1.19,4.731C237.507,359.489,236.728,359.489,235.943,359.489Zm49.923-48.066.019.019c-.224-.019-.5-.131-.661-.037q-1.86,1.094-3.683,2.256a2.4,2.4,0,0,0-.723.717c-1.633,2.611-1.44,5.478-1.215,8.458,2.331-1.764,4.581-3.415,6.756-5.161.318-.256.293-.941.43-1.421-.112-.05-.224-.106-.33-.156a14.263,14.263,0,0,1-5.8,4.008,2.755,2.755,0,0,1,.81-.735c1.346-.929,2.68-1.882,4.045-2.78a2.256,2.256,0,0,0,.96-2.892,17.307,17.307,0,0,1-6.07,4.768q2.393-2.141,4.949-4.064c1.39-1.053,1.571-2.443,1.371-4.151C286.37,310.732,286.115,311.074,285.866,311.423ZM166.543,189.7a3.255,3.255,0,0,0,.548.1,24.275,24.275,0,0,0,13.188-4.251A4.571,4.571,0,0,0,182.255,182c.112-1.321.193-2.655.43-3.958.748-4.12,2.7-7.361,6.756-9.037.935-.386,1.783-.972,2.686-1.427a36.894,36.894,0,0,1,3.577-1.714,2.412,2.412,0,0,1,1.888.019,30.118,30.118,0,0,1,2.848,2.524,1.743,1.743,0,0,0,.96.536c.773,0,1.546-.2,2.325-.237a4.064,4.064,0,0,1,4.307,4.207,2.195,2.195,0,0,0,.6,1.29,3.2,3.2,0,0,1,.654,4.064,8.339,8.339,0,0,0-.673,1.359,3.483,3.483,0,0,0-.156,1.851,3.736,3.736,0,0,1-.935,4.195,9.888,9.888,0,0,1-2.512,2.069c-2.269,1.109-4.637,2.007-6.956,3.017-1.315.573-2.636,1.141-3.9,1.826-1.876,1.016-3.066,2.692-4.363,4.375-6.706,8.707-14.31,16.629-21.783,24.662a42.646,42.646,0,0,1-12.253,9.087,1.6,1.6,0,0,0-1.01,1.614c-.112,2.53-.237,5.073-.573,7.585-.661,4.974-2.618,9.548-4.724,14.042-2.418,5.154-4.98,10.246-7.417,15.394-1.271,2.7-1.2,2.717,1.614,3.858,2.855,1.159,5.709,2.306,8.539,3.528,2.792,1.2,5.491,2.643,8.333,3.7,9.012,3.353,18.467,4.138,27.966,4.637,9.673.511,19.159-.9,28.608-2.73a5.933,5.933,0,0,0,.972-.43c-.386-.28-.6-.536-.86-.611a1.646,1.646,0,0,1-1.178-2.113,16.961,16.961,0,0,1,.692-2.836c1.689-4.78,3.428-9.548,5.129-14.329a2.761,2.761,0,0,0,.187-1.222c-.181-1.415-.486-2.817-.648-4.238a82.277,82.277,0,0,0-.916-8.252c-1.116-5.067-2.686-10.028-3.821-15.1a164.582,164.582,0,0,1-3.2-21.652c-.542-6.214-.6-12.4.929-18.517.305-1.215.617-2.437.991-3.927-1.907,1-3.54,1.864-5.167,2.724a2.5,2.5,0,0,1,.985-.96,24.951,24.951,0,0,0,8.944-9.86c1.7-3.291,2.25-6.737-.162-10.066-.592-.816-1.041-1.739-1.583-2.6-2.811-4.431-5.036-9.081-5.51-14.4-.031-.38-.044-.76-.062-1.141.143-.025.28-.044.424-.069a18.35,18.35,0,0,1,.492,1.8,29.7,29.7,0,0,0,4.045,10.664c1.328,2.163,2.643,4.332,3.964,6.5a6.88,6.88,0,0,1,.972,5.161c-.125.6-.168,1.228-.231,1.67a18.363,18.363,0,0,0,3.1-2.331c.922-1.047,1.733-2.063,3.472-2.026-.9-2.057-1.714-3.864-2.468-5.69-.854-2.051-1.726-4.095-2.456-6.189-.966-2.8-1.552-5.759-2.742-8.451-2.281-5.186-6.058-8.595-12.035-9.093a65.768,65.768,0,0,1-6.918-1.19c-.9-.175-1.77-.492-2.661-.748-.573,2.281-.642,2.387-1.546,2.9.112-1.677.256-3.49.337-5.31.006-.187-.337-.524-.561-.567-1.284-.237-2.58-.4-3.877-.586-.031.112-.062.218-.1.33a4.245,4.245,0,0,0,.929.355c.735.1,1.5.044,2.213.212.324.075.829.573.785.8a3.071,3.071,0,0,1-.735,1.558c-2.643,2.7-5.553,4.438-9.667,3.74a119.643,119.643,0,0,1-14.921-3.472c-1.7-.517-2.069-1.895-.916-3.235.112-.125.218-.256.386-.443-1.583.037-2.156.486-2.2,1.758-.062,1.826-.062,3.659-.081,5.491-.006.742.037,1.483.012,2.225a28.936,28.936,0,0,1-2.742,12.129,4.7,4.7,0,0,1-3.6,2.9,10.292,10.292,0,0,1,.567-1.078,18.045,18.045,0,0,0,2.181-3.054,25.087,25.087,0,0,0,1.92-11.568c-.343-5.017-.879-10.034-1.577-15.014-1.2-8.62-2.156-17.227-.48-25.878.86-4.431,1.932-8.813,5.279-12.2-.455,2.462-.891,4.824-1.334,7.186-.15.779.019,1.321.929,1.359,2.169.087,4.344.212,6.513.2.337,0,.879-.617.966-1.028.7-3.322,1.3-6.669,1.988-9.991a7.165,7.165,0,0,1,.841-1.658c.143.037.287.075.436.112a67.471,67.471,0,0,1,.293,12.1,4.8,4.8,0,0,0,.96.137c1.87-.1,3.733-.243,5.6-.343,2.107-.112,4.213-.181,6.32-.312,1.041-.062,1.77-.349,1.807-1.714.075-2.811.355-5.609.58-8.414a8.573,8.573,0,0,1,.274-1.234l.48.037c1.284,3.671.96,7.467.43,11.381a38.346,38.346,0,0,0,10.876-3.4,2.191,2.191,0,0,0,.823-1.415c.536-2.78-.193-5.435-.954-8.065-1.945-6.725-6.332-10.988-13.169-12.5a48.268,48.268,0,0,0-15.731-.679c-10.944,1.184-18.293,9.118-21.116,18.96-.405,1.421-.573,2.917-.96,4.344a52.988,52.988,0,0,0-.5,24.943,23.105,23.105,0,0,1,.361,9.311c-.492,2.437-1.365,4.8-1.982,7.217-.48,1.87-.823,3.771-1.278,5.908,2.225-1.016,4.151-1.851,6.039-2.761,1.508-.729,2.973-1.552,4.45-2.337a1.168,1.168,0,0,0,.636-1.452c-.368-1.72-.573-3.472-1-5.173a76.273,76.273,0,0,1-2.643-20.617,1.924,1.924,0,0,0-.162-.767,20.172,20.172,0,0,1-1.589-3.677,9.834,9.834,0,0,1,.667-6.631,1.787,1.787,0,0,1,1.44-.8c.393.037.711.76,1.066,1.184-.093.081-.193.162-.287.243-.355-.256-.717-.517-1.066-.767-1.035,1.271-.985,4.008.174,7.155A44.868,44.868,0,0,1,167,96.281c-.48,2.069-.885,4.008-1.377,5.915a62.8,62.8,0,0,0-.785,28.333c1.583,8.028,2.9,16.055,2.225,24.276-.012.156.006.312-.012.467a4.129,4.129,0,0,1-.15.511c-.143-4.2-.287-8.3-.43-12.577-1.39.841-2.412,1.564-3.521,2.107-3.889,1.9-7.784,3.8-11.736,5.572a10.727,10.727,0,0,0-5.017,4.363,22.041,22.041,0,0,0-2.717,8.52c-.86,5.99-1.926,11.948-2.742,17.944-.922,6.806-1.677,13.637-2.487,20.462-.355,2.985-.7,5.971-1,8.956a8.84,8.84,0,0,0,.237,1.783c5.865-5.89,11.318-11.842,19.626-13.257-.461-2.175-.929-4.188-1.3-6.214-1.047-5.728-1.982-11.449-1.247-17.333A37,37,0,0,0,154,163.524a19.561,19.561,0,0,1-.368-3.135c-.019-.305.3-.629.467-.947.293.249.76.449.841.754.224.823.268,1.689.424,2.537.087.467.243.916.368,1.377l.318-.019a16.171,16.171,0,0,0,1.209-7.118c.3.355.449.53.629.748.206-.474.361-.835.517-1.2.112,0,.231.006.343.006a3.353,3.353,0,0,1,.33,1.222,26.44,26.44,0,0,1-1.01,5.123c-.9,2.443-1.745,4.818-1.427,7.485a30.761,30.761,0,0,1-.019,3.864c-.019,3.428-.218,6.868.012,10.284.2,2.985.873,5.94,1.346,8.906a3.629,3.629,0,0,0,.2.673c.461,1.271.922,2.543,1.4,3.808.175.461.374.922.592,1.365.2.405.443.792.711,1.265-.168.056-.087.044-.025.006q9.433-6.1,18.847-12.222a7.9,7.9,0,0,0,1.371-1.527c-.075-.069-.15-.143-.224-.212a23.577,23.577,0,0,1-8.053,3.908,18.6,18.6,0,0,1-8.109.617c-.355-.056-.661-.436-.991-.661a4.629,4.629,0,0,1,.8-.767c1.471-.891,2.954-1.745,4.444-2.6.43-.249.873-.461,1.315-.692-.143-.187-.287-.374-.43-.555a6.847,6.847,0,0,0-1.234-.056c-2.044.287-4.082.642-6.133.9a12.441,12.441,0,0,1-2.094-.081,83.132,83.132,0,0,1,8.7-1.084,3.617,3.617,0,0,1,1.247.411c-.162.411-.218.947-.517,1.215C168.8,187.956,167.74,188.741,166.543,189.7ZM135.449,24.793c0,2.661-.006,5.142.012,7.616,0,.156.181.312.274.461.143.237.4.467.411.7q.131,3.319.175,6.65a7.817,7.817,0,0,1-.193,1.608,9.606,9.606,0,0,0-.455,1.845c.044,5.31.093,10.627.237,15.93.349,12.571.985,25.136,1.072,37.707.162,22.886.729,45.772-.087,68.658-.318,8.938-.137,17.887-.175,26.831-.012,2.281,0,4.562,0,7.08.112-.6.206-.966.249-1.34.542-5.2.929-10.427,1.645-15.606,1.01-7.267,2.113-14.528,3.447-21.745,1.109-5.99,3.889-10.888,10.253-12.771,1-.3,1.72-.667,1.2-1.951a2.758,2.758,0,0,1,.056-1.5,60.052,60.052,0,0,1,1.627-6.825c1.62-4.625,1.458-9.243.648-13.98a57.057,57.057,0,0,1,5.728-37.115,22.551,22.551,0,0,1,12.3-10.5c5.5-2.132,11.244-1.826,17.009-1.284A25.624,25.624,0,0,1,205.172,81c4.731,3.914,6.532,9.156,6.476,15.164-.025,2.537-.841,4.406-3.64,4.874a1.256,1.256,0,0,0-.816.8,30.813,30.813,0,0,0-.218,10.01,43.146,43.146,0,0,1,.131,8.028c-.106,1.932-.7,3.827-.985,5.753-.567,3.858-.979,7.741-1.633,11.58a13.143,13.143,0,0,1-1.564,3.746c-.243.461-.91.7-1.558,1.172,1-2.755,2.026-5.111,2.692-7.56.673-2.474,1-5.042,1.471-7.573a1.324,1.324,0,0,0-.835.5,22.207,22.207,0,0,1-10.564,7.03c-1.022.343-1.184.792-1,1.652a9.771,9.771,0,0,1,.224,1.028c.093.922.611,1.209,1.5,1.234a27.928,27.928,0,0,1,3.378.337c.929.143,1.608.5,1.309,1.726-.231.935.062,1.533,1.271,1.677,3.216.374,6.407.941,9.617,1.409a14.2,14.2,0,0,1,5.6,1.907c4.568,2.855,7.061,7.13,8.19,12.216,1.2,5.429,4.02,10.215,5.815,15.4a1.7,1.7,0,0,0,1.134.922,6.506,6.506,0,0,1,4.855,3.546c1.67-.9,2.125-.711,2.792,1.141.174.486.349.979.58,1.627.312-.393.474-.6.636-.8q2.477-3.179,4.955-6.357c.53-.679,1.035-1.371,1.564-2.044,1.321-1.689,2.6-3.415,3.989-5.048a2.2,2.2,0,0,0,.536-1.976c-.586-4.419.773-8.3,5.877-9.124.742-.118.891-.5,1.01-1.159a11.426,11.426,0,0,0-1.558-7.535c-1.253-2.281-3.085-3.945-6.027-3.964a19.548,19.548,0,0,1-8.283-1.851c-2.8-1.321-3.31-2.873-2.094-5.7a2.337,2.337,0,0,0,.1-.424c-.106.044-.218.081-.324.125a21.151,21.151,0,0,1-1.365-2.7c-.262-.748.125-1.284,1.028-1.259.511.019,1.022,0,1.533,0,.006-.137.012-.28.012-.418-.461-.087-.922-.168-1.384-.256-2.443-.474-4.425-1.265-3.359-4.226a4.344,4.344,0,0,1,1-1.377c1.271-1.346,1.271-2.225.125-3.646a10.525,10.525,0,0,1-1.739-2.724c-.76-2.007-.28-2.9,1.62-3.858,1.465-.735,2.917-1.5,4.332-2.319a4.348,4.348,0,0,0,1.845-4.587c-.187-.524-1.328-.711-2.038-1.047a.409.409,0,0,0-.224-.037c-1.334.349-1.5-.617-1.689-1.515a29.569,29.569,0,0,1,.031-12.546,17.623,17.623,0,0,1,4.431-8.726,23.372,23.372,0,0,1,8.539-5.379,1.363,1.363,0,0,0,.991-1.639c-.249-4.718-.424-9.436-.648-14.154a42.694,42.694,0,0,0-.324-4.556c-.486-3.154-1.62-5.865-5.161-6.731-.9-.218-1.745-.7-2.643-.935-6.451-1.714-12.877-3.515-19.371-5.061-6.644-1.577-13.4-2.686-20.019-4.363a299.611,299.611,0,0,0-30.882-6.139,199.271,199.271,0,0,1-29.6-6.968C141.675,26.377,138.5,25.616,135.449,24.793Zm121.51,158.513c-.187.243-.28.318-.312.418q-1.486,4.805-2.954,9.623a39.788,39.788,0,0,1-4.413,9.791c-.268.424-.686.854.031,1.377a50.4,50.4,0,0,0,12,6.5,94.515,94.515,0,0,0,16.46,3.958c1.926.343,1.926.33,2.038-1.67.019-.349.056-.7.093-1.047.823-7.373,1.633-14.746,2.481-22.113a13.89,13.89,0,0,1,.611-2.181c.1.019.206.037.305.05a19.271,19.271,0,0,1,.143,2.985q-1.169,11.892-2.443,23.765c-.156,1.5-.754,1.807-2.231,1.539-1.39-.256-2.817-.33-4.244-.486-.137.711-.193,1.3-.355,1.845-.941,3.179-2.181,6.295-2.811,9.536a56.435,56.435,0,0,1-6.22,16.217,19.06,19.06,0,0,1-5.055,6.083,3.488,3.488,0,0,1-1.77.8,10.8,10.8,0,0,1-6.706-1.546c-4.269-2.836-7.105-6.962-9.66-11.287-1.427-2.418-2.755-4.893-4.107-7.354a10.594,10.594,0,0,1-.43-1.178c-.561-1.371-1.141-2.736-1.714-4.107a.958.958,0,0,0-.374.623,59.041,59.041,0,0,1-1.564,8.021c-3.852,11.424-7.884,22.786-11.879,34.161-1.24,3.534-2.574,7.037-3.808,10.57a1.71,1.71,0,0,0,.125,1.446,19.719,19.719,0,0,0,2.636,2.119c9.754,6.987,20.854,10.278,32.6,11.655,5.385.636,10.814.922,16.223,1.334,2.175.168,4.413.611,6.532.3,4.544-.673,9.05-1.652,13.518-2.717a10.353,10.353,0,0,0,5.5-3.789,9.529,9.529,0,0,1-1.085-1.67c-2.044-5.485-4.107-10.963-6.046-16.485a14.474,14.474,0,0,1-.735-8.183,1.249,1.249,0,0,0-.187-.873c-1.452-2.244-1.3-4.643-.823-7.118a3.422,3.422,0,0,0-.3-1.951c-1.19-2.58-2.7-5.036-3.665-7.691-1.62-4.494-1.4-9.218-.436-13.774a96.068,96.068,0,0,1,3.727-12.671c2.075-5.771,4.207-11.48,4.774-17.676a89.179,89.179,0,0,0-.418-21.49,43.4,43.4,0,0,0-4.126-12.035c-1.758-3.7-4.014-7.174-6.033-10.714-1.758.686-3.185,1.328-4.674,1.795-1.988.629-3.746,1.446-4.593,3.546a6.035,6.035,0,0,1-1.128,1.483c-.573.667-1.184,1.309-1.957,2.156,4.114-.7,7.772.131,11.393,1.352a.478.478,0,0,1-.393.224c-1.97-.256-3.951-.461-5.909-.792-3.87-.654-6.8,1.01-9.137,3.821a29.708,29.708,0,0,0-3.621,5.454,23.972,23.972,0,0,0-1.677,5.167,41.155,41.155,0,0,0-.617,4.113c-.112-.012-.224-.025-.33-.031C257.158,184.154,257.084,183.824,256.959,183.307Zm20.973-75.3a2.491,2.491,0,0,1,2.9.031,5.22,5.22,0,0,1,2.437,3.447,21.038,21.038,0,0,1,.268,4.419,12.732,12.732,0,0,1-3.017,7.716,2.236,2.236,0,0,0-.711,1.82,39.939,39.939,0,0,1,.418,6.014,92.022,92.022,0,0,1-1.3,11.262c-.792,4.07-.492,7.828,1.683,11.387.954,1.564,1.832,3.185,2.9,4.674,3.852,5.36,6.039,11.48,7.672,17.738,1.72,6.575,1.82,13.363,1.371,20.144a59.025,59.025,0,0,1-3.291,17.3c-1.726,4.562-3.453,9.137-4.805,13.818-2.325,8.034-2.2,15.924,2.58,23.191a23.766,23.766,0,0,0,3.291,3.577,4.486,4.486,0,0,0,1.427.573,20.646,20.646,0,0,1-1.6-2.1,21.658,21.658,0,0,1-3-13.693c.168-1.315.436-2.618.711-3.92a91.572,91.572,0,0,1,6.65-19.09c3.459-7.6,6.12-15.382,6-23.877a15.755,15.755,0,0,1,.231-2.082c.374,4.593.8,9.218-.536,13.637-1.415,4.662-3.1,9.249-4.924,13.768-2.524,6.27-5.042,12.527-6.457,19.171-.131.611-.256,1.222-.361,1.839-.093.573-.156,1.153-.231,1.726.268-.069.355-.156.38-.256A38.483,38.483,0,0,1,293.17,229.9a56.768,56.768,0,0,0,6.818-14.846c.86-3.241,1.589-6.525,2.481-9.76a26.378,26.378,0,0,0,.754-9.287c-.05-.623-.168-1.24-.218-1.857-1.028-12.764-2.026-25.535-3.091-38.3a80.356,80.356,0,0,1,.436-20.318,124.683,124.683,0,0,0,1.82-15.332c.349-7.7-.031-15.32-3.49-22.556a44.8,44.8,0,0,0-13.518-16.622,17.111,17.111,0,0,0-8.931-3.553,91.8,91.8,0,0,0-12.266-.536c-5.622.262-11.088,1.577-15.818,4.843a17.734,17.734,0,0,0-7.061,9.2,26.692,26.692,0,0,0-.648,13.749c.143.729.492.848,1.147.754,1.309-.187,2.63-.305,3.945-.461,1.06-.125,2.119-.262,3.228-.4-1.265-3.74-1.1-7.367-.829-11,.274,1.857.28,3.733.486,5.591.218,1.963.05,4.076,1.664,5.734a2.816,2.816,0,0,1-.611.262c-1.427.231-2.848.524-4.282.617-.991.069-1.3.467-1.2,1.377a6.607,6.607,0,0,1,0,1.053,4.9,4.9,0,0,1-2.717,4.575c-1.433.7-2.823,1.49-4.263,2.188-.754.368-1.141.922-.823,1.683a14.447,14.447,0,0,0,1.589,3.066c1.627,2.2,1.677,2.749-.062,4.905-.093.118-.175.243-.355.5.343.168.667.48.916.424,1.022-.212,1.627.405,2.231,1.01a17.192,17.192,0,0,0,1.857,1.945,20.621,20.621,0,0,0,3.372,1.951c.349.162.922-.137,1.683-.28.175.361.449.941.729,1.515l-.256.218c-.785-.735-1.427-.405-2.194.05-1.371.81-2.836,1.452-4.251,2.188-.287.15-.654.361-.754.629-.866,2.343-.735,3.247,1.328,4.394a7.634,7.634,0,0,0,2.163.866c2.294.449,4.612.754,6.906,1.184a8.979,8.979,0,0,1,2.867.835c4.344,2.524,6.875,9.816,4.631,14.877a10.846,10.846,0,0,0-.673,2.717c-.112.729.162,1.434,1.053,1.3,1.783-.256,3.627-.361,4.587-2.375a34.22,34.22,0,0,1,2.356-3.908,32.23,32.23,0,0,0,5.1-19.95,78.353,78.353,0,0,0-2.755-15.65c-1.153-4.35-2.836-8.607-2.68-13.238-2.643-1.259-3.247-3.964-4.431-6.295.118,1.72-.393,3.528.929,5.011.1.112.125.467.062.5a1.377,1.377,0,0,1-.717.218c-1.209-.081-2.412-.243-3.615-.305a56.034,56.034,0,0,0-5.958-.162c-.835.05-1.29-.112-1.583-.767a21.3,21.3,0,0,1-1.564-10.383c.181.548.187,1.128.318,1.677.536,2.312,1.01,4.643,1.72,6.9.218.7,1.084,1.633,1.708,1.677,2.668.187,5.354.081,8.084.081a37.636,37.636,0,0,1,.081-11.312,14.613,14.613,0,0,1,.7,3.172c.48,3.5,1.533,6.688,4.656,8.819.349.237.474.922.53,1.421.118,1.041-.006,2.119.206,3.129.43,2.019.966,4.026,1.558,6.008,1.764,5.915,3.571,11.8,3.821,18.05.193,4.83.28,9.7-1.558,14.217a71.115,71.115,0,0,1-5.535,10.284,42.894,42.894,0,0,0-5.7,13.525c-.181.848-.318,1.7-.474,2.555l.3.112c.5-.767.985-1.552,1.521-2.3.86-1.2,1.708-2.424,2.643-3.571,2.586-3.166,6.176-5.5,7.679-9.586.6-1.658,1.839-3.073,2.53-4.706a44.065,44.065,0,0,0,3.814-17.626c-.056-5.89-.05-11.792-.418-17.663-.256-4.076-1.1-8.115-1.664-12.178-.087-.629-.093-1.278-.143-2.013C277.67,104.477,276.785,106.951,277.932,108.011ZM142.535,298.3c.1.006.2.012.3.025.3,9.561.654,19.115,2.393,28.558.249,1.346.48,1.564,1.751,1.365,7.018-1.078,14.054-2.063,21.054-3.272,7.878-1.359,15.719-2.96,23.584-4.4,5.983-1.1,11.985-2.119,17.987-3.129,3.652-.617,7.323-1.147,10.988-1.7.623-.094.947-.33.96-1.047.05-3.042.162-6.083.231-9.125a4.846,4.846,0,0,0-.137-1.5,28.461,28.461,0,0,1,.268-17.4c.411-1.3.256-2.132-1.016-2.73a5.454,5.454,0,0,1-1.515-1.091c-.773-.792-1.4-.561-2.225-.044a11.022,11.022,0,0,1-3.147,1.4c-2.194.53-4.431.922-6.669,1.265a119.508,119.508,0,0,1-32.571.087,64.1,64.1,0,0,1-21.272-6.083c-2.4-1.209-4.874-2.281-7.3-3.422-.711-.337-1.2-.206-1.421.586a23.125,23.125,0,0,0-1.153,4.276C143.158,286.7,142.878,292.508,142.535,298.3Zm92.622-120.12c-.561-.53-1.19-1.165-1.864-1.745-.773-.661-1.546-1.34-2.717-.879-.193.075-.5-.15-.754-.187-.929-.125-1.957-.355-2.449.748a3.37,3.37,0,0,1-1.994,1.814,2.462,2.462,0,0,0-1.864,2.169c-.081,2.618-.15,5.229-.231,7.847a32.33,32.33,0,0,0,4.693,17.744c1.278,2.169,2.181,4.562,3.272,6.85a17.914,17.914,0,0,0,1.078,2.057,23.14,23.14,0,0,1,1.888,2.724c.922,2.057,1.645,4.195,2.468,6.295a12.975,12.975,0,0,0,.785,1.689c1.726,3.054,3.64,6.014,5.167,9.168a44.17,44.17,0,0,0,6.607,9.76c1.907,2.194,3.989,4.1,7.155,4.344,1.352.106,2.568.187,3.521-.947a19.5,19.5,0,0,0,2.992-3.721,115.869,115.869,0,0,0,5.08-11.8c1.259-3.6,1.951-7.386,2.929-11.082.486-1.832,1.06-3.646,1.6-5.5-.324-.112-.467-.181-.611-.212-5.478-1.1-10.944-2.231-16.03-4.687a1.291,1.291,0,0,0-1.184.424c-1.178,2.742-2.269,5.522-3.378,8.3-.474,1.184-.929,2.375-1.471,3.758-.854-1.147-.5-2.156-.511-3.129a2.409,2.409,0,0,0-.224-1.29c-3.017-4.176-5.983-8.383-9.156-12.44a23.783,23.783,0,0,1-4.089-7.7c-.729-2.368-.985-4.755.673-6.924.922-1.209,1.932-2.356,2.761-3.627,1.359-2.082,1.652-2.867.231-4.986a8.041,8.041,0,0,1-1.758-4.512,2.665,2.665,0,0,0-.305-.835,1.588,1.588,0,0,0-.43.056c-1.776.9-2.393,4.095-1.116,5.64a12.059,12.059,0,0,1,.829,1.3c-.1.062-.193.131-.293.193-1.2-.767-2.437-1.471-3.578-2.306-1.44-1.06-1.745-2.711-1.938-4.35-.037-.305.38-.667.586-1a6.935,6.935,0,0,1,.586.96c.087.2-.05.486.031.692a6.927,6.927,0,0,0,1.633,3.091C234.272,180.633,234.709,179.417,235.157,178.183Zm-79.646,23.534c-.779.293-1.446.5-2.082.785-3.7,1.652-6.65,4.319-9.685,6.906a4.484,4.484,0,0,0-1.67,4.257,41.373,41.373,0,0,0,4.357,15.93c.324.617.879,1.446,1.434,1.539,2.144.349,4.244.162,5.9-1.571a1.924,1.924,0,0,1,.891-.405c.374-.1.835,0,1.153-.175a34.5,34.5,0,0,0,9.131-6.681c6.744-7.379,13.4-14.84,20.1-22.257,2.013-2.225,3.933-4.55,6.139-6.563a19.551,19.551,0,0,1,7.348-4.419c2.686-.841,5.447-1.733,7.622-3.727,1.39-1.271,1.589-1.832.873-3.59a2.408,2.408,0,0,1,.262-2.53,10.21,10.21,0,0,0,.617-1c.829-1.465.767-1.982-.461-3.166a2.419,2.419,0,0,1-.854-2.512,1.29,1.29,0,0,0-.206-1.066c-1.01-.91-2.013-1.864-3.6-1.515-2.587.58-5.186,1.1-7.778,1.633a9.624,9.624,0,0,1-1.122.1c-.037-.156-.081-.305-.118-.461,1.758-.667,3.515-1.34,5.341-2.032-.28-.368-.48-.654-.7-.916-1.3-1.483-1.639-1.546-3.422-.723-1.2.555-2.431,1.072-3.621,1.652a11.644,11.644,0,0,0-6.526,8.751c-.324,1.683-.405,3.409-.661,5.111-.418,2.786-1.359,5.291-3.846,6.943-2.892,1.92-5.759,3.858-8.657,5.765-2.512,1.652-4.961,3.428-7.6,4.836s-4.83,3.4-7.435,4.824a28.352,28.352,0,0,0-4.2,3.5c-.5.424-1.022.823-1.539,1.234-.131-.137-.262-.274-.393-.405a16.274,16.274,0,0,1,5.672-6.008C155.948,203.076,155.761,202.484,155.511,201.718ZM126.767,21.478c0,.723-.019,1.109,0,1.49.193,3.858.4,7.716.586,11.574.293,6.164.492,12.328.866,18.486.735,12.166,1.259,24.326.891,36.523-.293,9.679-.287,19.371-.293,29.056-.012,11.873.1,23.746.15,35.619.037,8.938.118,17.881.069,26.819-.025,4.369-.393,8.738-.424,13.113-.075,10.857-.019,21.714-.056,32.578q-.028,7.853-.193,15.7c-.137,5.933-.511,11.861-.5,17.794q.009,19.979.312,39.957c.162,11.711.467,23.428.711,35.139.006.362.044.723.069,1.209,1.29-1.564,2.474-2.954,3.6-4.394a1.888,1.888,0,0,0,.237-1.084c.025-2.381.037-4.762.025-7.149q-.056-9.078-.15-18.149c-.112-9.723-.374-19.446-.343-29.168.019-7.46.48-14.915.586-22.369.324-22.768.667-45.541.816-68.309.087-13.356-.112-26.713-.3-40.069-.106-7.654-.561-15.3-.63-22.955-.131-14.877.143-29.761-.187-44.631-.4-17.763-1.259-35.513-1.926-53.264a.933.933,0,0,0-.2-.642C129.341,23.422,128.163,22.544,126.767,21.478ZM144.18,275.443c-1.053-.48-2.1-.891-3.091-1.421-1.864-1-2.244-1.994-1.365-3.945,1.415-3.123,2.873-6.233,4.419-9.293,2.942-5.815,5.971-11.6,7.809-17.887a39.392,39.392,0,0,0,1.465-10.857c-1.546.249-2.985.573-4.444.686a3.563,3.563,0,0,1-3.64-2.026,36.183,36.183,0,0,1-4.325-13.269c-.181-1.564-.249-3.141-.374-4.8-1.371.723-1.957,2.83-4.076,1.826v1.508c-.056,7.847-.069,15.694-.187,23.54-.118,7.728-.093,15.469-.58,23.179a277.12,277.12,0,0,0,.044,37.452c.629,8.732,1.116,17.457.268,26.2-.125,1.259-.019,2.543-.019,3.845,2.381-.5,4.8-1,7.155-1.5-.361-2.063-.81-4.008-1.022-5.971a198.41,198.41,0,0,1-.922-33.213C141.581,284.717,141.924,279.905,144.18,275.443Zm61.9-173.633c-2.107.368-4.057.729-6.014,1.053-1.066.175-2.163.2-3.2.467a33.46,33.46,0,0,1-14.011,1.041c-1.427-.237-1.814-.879-1.8-2.125s.006-2.5.006-3.746l-.312-.019c-.536,2.013-1.072,4.032-1.614,6.083,1,.305,1.907.517,2.761.866a3.847,3.847,0,0,1,2.25,1.521,10.8,10.8,0,0,1-1.689-.424c-1.7-.418-3.384-.86-5.1-1.159-1.745-.305-3.515-.424-5.267-.673a13.307,13.307,0,0,1-1.807-.474,1.112,1.112,0,0,1-.929-1.371c.125-.9.125-1.82.181-2.855a2.4,2.4,0,0,0-.305.355,7.991,7.991,0,0,0-.312.754c-2.132,5.946-2.443,12.11-2.294,18.355a4.891,4.891,0,0,0,2.169,4.12c1.957,1.465,3.771,3.166,5.852,4.419a61.794,61.794,0,0,0,9.2,4.805,14.744,14.744,0,0,0,13.007-.735c.922-.511,1.907-.91,2.8-1.471,2.549-1.614,4.656-3.559,5.616-6.6,1.77-5.616,1.2-11.231.212-16.909-3.521,1.34-7.061,2.786-11.05,3.216a2.968,2.968,0,0,1,1.832-2.58c2.256-1.06,4.562-1.814,7.118-1.072a3.535,3.535,0,0,0,1.72-.106,1.034,1.034,0,0,0,.592-.717C205.858,104.521,205.952,103.206,206.082,101.809Zm-77.49,239.175c2.275-.312,4.413-.673,6.569-.873,2.8-.262,5.634-.212,8.4-.623,11.431-1.689,22.849-3.472,34.26-5.279,5.167-.816,10.29-1.938,15.469-2.618,6.924-.916,13.9-1.44,20.836-2.337,3.546-.461,7.037-1.365,10.546-2.088a1.1,1.1,0,0,0,.96-1.539,10.943,10.943,0,0,1,.424-6.563c.237-.667.368-1.377.58-2.181-.368.062-.524.075-.667.112-3.584.941-7.13,2.082-10.757,2.786-7.585,1.471-15.226,2.661-22.83,4.07-7.479,1.39-14.921,3.01-22.412,4.344-7.61,1.352-15.257,2.481-22.892,3.69-4.008.636-8.021,1.234-12.035,1.82a1.808,1.808,0,0,1-1.091-.174c-.629-.374-1.016-.168-1.359.368-1.184,1.832-2.406,3.646-3.54,5.51A5.66,5.66,0,0,0,128.593,340.985Zm127.5-185.02c.174.15.355.3.53.449-3.216.873-4.288,2.35-4.051,5.672.062.854.33,1.7.324,2.549a3.438,3.438,0,0,1-.517,1.7c-.28.461-.866.729-1.2,1.172-2.512,3.378-4.593,7.074-7.672,10.022a9.558,9.558,0,0,0-.922,1.352c-.754,1.053-1.527,2.1-2.362,3.247a3.742,3.742,0,0,1,.6,1.035,7.3,7.3,0,0,1,.511,3.017,12.745,12.745,0,0,1-2.655,5.541,7.517,7.517,0,0,0-1.458,2.967c-.679,2.911.411,5.491,2.032,7.809,2.811,4.032,5.753,7.971,8.626,11.96.629.873,1.2,1.783,1.888,2.811.835-2.967,1.614-5.715,2.431-8.607-1.271-.835-2.686-1.8-4.138-2.692-1.066-.654-1.371-1.247-.966-2.418a19.556,19.556,0,0,1,.841-1.795c1.109-2.318,2.393-4.568,3.3-6.968,1.6-4.232,3-8.545,4.444-12.833.548-1.62,1.072-3.26,1.471-4.924.586-2.462.929-4.992,1.6-7.429s1.62-4.768,2.481-7.236a6.54,6.54,0,0,1-1.2.393,24,24,0,0,1-4.5.449c-2.505-.156-3.26-1.951-1.82-4C254.5,158.108,255.307,157.043,256.093,155.964ZM223.446,256.745c.05.025.1.044.15.069.361-1.122.692-2.256,1.1-3.359,2.4-6.6,4.824-13.188,7.211-19.795a3.036,3.036,0,0,0,.231-1.577,38.964,38.964,0,0,0-4.263-11.967,12.8,12.8,0,0,1-1.564-5.7c-.206-2.487-.5-4.974-.91-7.435-.343-2.1-.891-4.163-1.3-6.021-2.967.7-5.765,1.34-8.539,2.082-.287.075-.6.767-.58,1.153.168,3.041.231,6.1.673,9.106,1.072,7.255,2.188,14.509,3.565,21.708.929,4.861,2.449,9.6,3.484,14.447A62.855,62.855,0,0,1,223.446,256.745ZM254.254,52.08c-.031.125-.062.249-.093.368.7-.411,1.409-.8,2.094-1.247.2-.131.455-.4.436-.58s-.305-.443-.524-.517a6.169,6.169,0,0,0-1.589-.386c-2.518-.168-4.444-1.477-6.32-3.017a6.086,6.086,0,0,0-2.7-1.24,71.992,71.992,0,0,1-12.3-2.836,29.444,29.444,0,0,0-9.143-1.783,33.293,33.293,0,0,1-11.356-2.032,24.682,24.682,0,0,0-6.563-1.577,133.4,133.4,0,0,1-17.364-3.2c-4.238-1.022-8.588-1.6-12.889-2.356-5.5-.966-10.676-3.16-16.242-3.976-3.9-.573-7.641-2.188-11.493-3.154-3.4-.854-6.9-1.315-10.3-2.194-3.353-.866-6.625-2.051-9.947-3.054-.916-.28-1.876-.411-2.817-.617.044.386.156.486.287.555q2.655,1.561,5.323,3.11c.187.112.5.287.6.218,1.178-.76,1.87.15,2.661.617a3.346,3.346,0,0,1,1.683-.125c1.109.293,2.169.779,3.272,1.078,1.7.449,3.44.729,5.123,1.215a242.967,242.967,0,0,0,28.352,6.706c10.521,1.7,21.022,3.428,31.375,6.033,8.969,2.256,18.062,3.989,27.062,6.127,6.376,1.508,12.771,3,18.81,5.659.748.33,1.49.667,2.225,1.022C252.708,51.276,253.475,51.687,254.254,52.08Zm-62.363,82.881c-6.706.673-12.272-2.256-17.869-5.622.087.555.15.891.193,1.234.461,3.864,1.2,7.76-1.078,11.337,1.421.38,2.873.854,4.357,1.141,3.976.754,7.953,1.527,11.954,2.1a7,7,0,0,0,5.809-2.275c-.355-.131-.873-.162-1.091-.436C192.421,140.314,192.227,137.672,191.891,134.961ZM223.9,199.53c-2.312-6.114-2.069-12.228-1.982-18.174-1.552,2.051-3.1,4.095-4.637,6.145a1.985,1.985,0,0,0-.38.823c-.5,2.724-1.041,5.447-1.458,8.183-.262,1.7-.337,3.428-.524,5.46C218.08,201.107,220.891,200.34,223.9,199.53Zm-56.6-75.776c-.106.044-.206.087-.312.137.717,4.942,1.44,9.885,2.138,14.715,1.4-.474,2.618-.9,3.87-1.321,0-2.044.006-4.138,0-6.233-.006-1.6-.187-3.079-1.951-3.839-.5-.212-.835-.8-1.265-1.2C168.961,125.256,168.126,124.508,167.3,123.754Zm59.652,82.42c.5,3.3.979,6.494,1.49,9.685a5.767,5.767,0,0,0,.517,1.783c1.789,3.409,3.634,6.794,4.382,10.689.349-1.814.5-3.615.692-5.422a7.085,7.085,0,0,0-.979-3.889c-1.29-2.661-2.431-5.391-3.683-8.071C228.626,209.346,227.778,207.788,226.955,206.174ZM254.989,76.8c2.125-.256,2.125-.256,1.72-2.082a6.728,6.728,0,0,1-.137-.922c-.218-2.867-.443-5.734-.636-8.6a16.473,16.473,0,0,1,.006-2.219c.2-3.029.436-6.058.648-9.087.025-.368.006-.742.006-1.265a4.972,4.972,0,0,1-1.128.6c-1.421.274-1.577,1.228-1.409,2.406.848,6.008.6,12.06.7,18.093C254.771,74.723,254.9,75.726,254.989,76.8Zm18.23,80.419c1.284-.486,2.443-.9,3.59-1.359,2.156-.866,2.15-.873,1.328-2.967a16,16,0,0,1-.623-1.764c-.268-1.01-.474-2.032-.735-3.179C275.576,151.072,274.441,154.038,273.22,157.217Zm6.569-35.663c2.219-3.079,3.179-6.432,2.107-10.059a7.023,7.023,0,0,0-2.1-2.68.894.894,0,0,0-1.477.53c-.087.343.405.879.717,1.265.181.224.53.312.779.486,2.075,1.452,1.739,3.478,1.24,5.5-.087.343-.486.611-.742.916a4.283,4.283,0,0,1-.486-1.066c-.118-.81-.131-1.633-.187-2.449-.112.012-.218.019-.33.031q.159,2.431.312,4.868C279.683,119.778,279.733,120.669,279.789,121.554Zm-.2,202.122c.062.81.112,1.558.193,2.618,2.156-1.67,4.1-3.141,6.014-4.662,1.271-1.016,1.427-1.832.767-3.447-1.814,1.477-3.634,2.936-5.416,4.438-.206.175-.237.561-.368.9C280.468,323.565,280.132,323.608,279.589,323.677Zm-56.548-8.152c1.178-.318,2.225-.567,3.241-.916a.873.873,0,0,0,.3-.8c-.848-1.577-1.758-3.123-2.649-4.674-.112.044-.218.093-.33.137C223.428,311.268,223.247,313.256,223.041,315.525Zm20.1-185.207c-.424-.374-.972-.8-1.446-1.3-1.359-1.415-2.424-3.241-4.774-3.2-.742,1.508-.654,2.337.7,2.855C239.445,129.37,241.371,129.806,243.141,130.317Zm-3.789,1.1c-.118.087-.237.175-.355.268.411.58.711,1.352,1.271,1.683.8.474,2.879-.642,3.771-1.951Zm-39.583-24.326c-.037.686-.062,1.066-.093,1.577.86-.28,1.546-.5,2.225-.723.012-.106.025-.212.031-.318C201.29,107.475,200.635,107.313,199.769,107.095Z" transform="translate(0)" fill="#311d48"/>
        <path id="Trazado_915079" data-name="Trazado 915079" d="M298.115,521.415c-.38-1.5-.754-3-1.19-4.731,1.091.312,2,.573,2.879.823-3.814-4.45-5.634-9.866-7.5-15.245-1.627-4.681-3.023-9.436-4.575-14.142a8.966,8.966,0,0,1,.019-6.077c.76-2.1,1.508-4.276.735-6.507a16.493,16.493,0,0,0-1.994-3.939,26.075,26.075,0,0,1-3.927-21.334c.181-.8.374-1.6.567-2.393.006-.037.044-.062.118-.181.249.112.53.218.785.355a74.834,74.834,0,0,0,28.657,8.894c6.868.742,13.774,1.165,20.661,1.726,3.764.305,7.373-.592,10.975-1.5,2.157-.542,4.288-1.166,6.432-1.739a2.781,2.781,0,0,1,.555-.05c.985,4.749-7.685,17.638-11.823,17.364.224-.38.405-.7.6-1.016a21.273,21.273,0,0,0,3.409-9.978,8.777,8.777,0,0,0-.137-2.213c-.056-.3-.436-.542-.673-.816-.187.293-.524.58-.53.879a18.922,18.922,0,0,1-2.643,8.651,11.524,11.524,0,0,1-3.833,4.344,1.949,1.949,0,0,0-.723,1.608c.075.393.866.829,1.4.916a25.631,25.631,0,0,0,3.16.168,2.34,2.34,0,0,1,.019.337c-2.132,3-1.913,6.463-2.119,9.891-.393,6.7-.954,13.388-1.477,20.081a84.3,84.3,0,0,1-3.01,14.89,9.049,9.049,0,0,0-.15.916Q315.473,521.424,298.115,521.415Z" transform="translate(-59.829 -161.926)" fill="#6c8c76"/>
        <path id="Trazado_915080" data-name="Trazado 915080" d="M369.65,542.961c.7-6.164,1.359-12.334,2.132-18.492a31.862,31.862,0,0,1,1.078-4.238l-.642.424c.112-1.465.174-2.767.343-4.057.037-.28.411-.536.667-.773a48.447,48.447,0,0,0,4.319-4.369c-1.577,1.278-3.154,2.555-4.849,3.933,0-1.533-.013-2.886.019-4.226a.927.927,0,0,1,.349-.561c2.175-1.888,4.369-3.765,6.557-5.634.05-.044.143-.037.318-.087.324,2.468.611,4.93.985,7.379,1.321,8.726,2.68,17.445,4,26.164.224,1.5.305,3.029.449,4.544Q377.5,542.958,369.65,542.961Z" transform="translate(-92.921 -183.472)" fill="#56735f"/>
        <path id="Trazado_915081" data-name="Trazado 915081" d="M183.648,310.86c-.087.031-.05.025,0,0Z" transform="translate(-22.827 -110.376)" fill="#2a3863"/>
        <path id="Trazado_915082" data-name="Trazado 915082" d="M183.68,310.849a.194.194,0,0,1,.044-.012.006.006,0,0,0-.006-.006c-.006.006-.012.006-.019.012A.023.023,0,0,0,183.68,310.849Z" transform="translate(-22.859 -110.365)" fill="#2a3863"/>
        <path id="Trazado_915083" data-name="Trazado 915083" d="M228.449,124.947c-1.945-6.725-6.332-10.988-13.169-12.5a48.268,48.268,0,0,0-15.731-.679c-10.944,1.184-18.293,9.118-21.116,18.959-.405,1.421-.573,2.917-.96,4.344a52.989,52.989,0,0,0-.5,24.943,23.105,23.105,0,0,1,.361,9.311c-.492,2.437-1.365,4.8-1.982,7.217-.48,1.87-.823,3.771-1.278,5.909,2.225-1.016,4.151-1.851,6.039-2.761,1.508-.729,2.973-1.552,4.45-2.337a1.168,1.168,0,0,0,.636-1.452c-.368-1.72-.573-3.472-1-5.173a76.273,76.273,0,0,1-2.643-20.617,1.923,1.923,0,0,0-.162-.767,20.173,20.173,0,0,1-1.589-3.677,9.833,9.833,0,0,1,.667-6.631,1.787,1.787,0,0,1,1.44-.8c.393.037.711.76,1.066,1.184l-.274.237a1.353,1.353,0,0,0,.343.218,36.632,36.632,0,0,1,3.179-8.389c-.48,2.069-.885,4.008-1.377,5.915a62.8,62.8,0,0,0-.785,28.333c1.583,8.028,2.9,16.055,2.225,24.276a1.1,1.1,0,0,0,0,.143,8.084,8.084,0,0,0,.218-1.652,8.082,8.082,0,0,1-.218,1.652,1.886,1.886,0,0,1-.012.324,4.139,4.139,0,0,1-.15.511.472.472,0,0,0-.006-.093,9.631,9.631,0,0,0-.38,3.2,25.2,25.2,0,0,0,1.683-10.951c-.343-5.017-.879-10.034-1.577-15.014-1.2-8.62-2.156-17.227-.48-25.878.86-4.431,1.932-8.813,5.279-12.2-.455,2.462-.891,4.824-1.334,7.186-.15.779.019,1.321.929,1.359,2.169.087,4.344.212,6.513.2.337,0,.879-.617.966-1.028.7-3.322,1.3-6.669,1.988-9.991a7.166,7.166,0,0,1,.841-1.658c.143.037.287.075.436.112a67.473,67.473,0,0,1,.293,12.1,4.8,4.8,0,0,0,.96.137c1.87-.1,3.733-.243,5.6-.343,2.107-.112,4.213-.181,6.32-.312,1.041-.062,1.77-.349,1.807-1.714.075-2.811.355-5.609.58-8.414a8.573,8.573,0,0,1,.274-1.234l.48.037c1.284,3.671.96,7.467.43,11.381a38.347,38.347,0,0,0,10.876-3.4,2.191,2.191,0,0,0,.823-1.415C229.939,130.238,229.21,127.577,228.449,124.947Z" transform="translate(-19.238 -35.241)" fill="#2a3863"/>
        <path id="Trazado_915084" data-name="Trazado 915084" d="M186.8,156.257c-.355-.256-.717-.517-1.066-.767-1.035,1.271-.985,4.008.175,7.155.337-2.113.735-4.17,1.247-6.176a1.25,1.25,0,0,1-.343-.218A.02.02,0,0,0,186.8,156.257Z" transform="translate(-23.355 -51.842)" fill="#e0a04c"/>
        <path id="Trazado_915085" data-name="Trazado 915085" d="M235.184,241.747c-.854-2.051-1.726-4.095-2.456-6.189-.966-2.8-1.552-5.759-2.742-8.451-2.281-5.185-6.058-8.595-12.035-9.093a65.773,65.773,0,0,1-6.918-1.19c-.9-.175-1.77-.492-2.661-.748-.573,2.281-.642,2.387-1.546,2.9.112-1.677.256-3.49.337-5.31.006-.187-.337-.524-.561-.567-1.284-.237-2.58-.4-3.877-.586-.031.112-.062.218-.1.33a4.244,4.244,0,0,0,.929.355c.735.1,1.5.044,2.213.212.324.075.829.573.785.8a3.072,3.072,0,0,1-.735,1.558c-2.643,2.7-5.553,4.438-9.667,3.74a119.642,119.642,0,0,1-14.921-3.472c-1.7-.517-2.069-1.895-.916-3.235.112-.125.218-.256.386-.443-1.583.037-2.156.486-2.2,1.758-.062,1.826-.062,3.659-.081,5.491-.006.742.037,1.483.012,2.225a28.936,28.936,0,0,1-2.742,12.129,4.7,4.7,0,0,1-3.6,2.9,10.3,10.3,0,0,1,.567-1.078,18.047,18.047,0,0,0,2.181-3.054c.087-.206.162-.411.243-.617a9.631,9.631,0,0,1,.38-3.2c-.143-4.17-.287-8.233-.43-12.484-1.39.841-2.412,1.564-3.521,2.107-3.889,1.9-7.784,3.8-11.736,5.572a10.727,10.727,0,0,0-5.017,4.363,22.042,22.042,0,0,0-2.717,8.52c-.86,5.989-1.926,11.948-2.742,17.944-.922,6.806-1.677,13.637-2.487,20.462-.355,2.985-.7,5.971-1,8.956a8.838,8.838,0,0,0,.237,1.783c5.865-5.89,11.318-11.842,19.626-13.257-.461-2.175-.929-4.188-1.3-6.214-1.047-5.728-1.982-11.449-1.246-17.333a37,37,0,0,0-.573-12.584,19.56,19.56,0,0,1-.368-3.135c-.019-.305.3-.629.467-.947.293.249.76.449.841.754.224.823.268,1.689.424,2.537.087.467.243.916.368,1.377l.318-.019a16.171,16.171,0,0,0,1.209-7.118c.3.355.449.53.629.748.206-.474.361-.835.517-1.2.112,0,.231.006.343.006a3.353,3.353,0,0,1,.33,1.222,26.442,26.442,0,0,1-1.01,5.123c-.9,2.443-1.745,4.818-1.427,7.485a30.763,30.763,0,0,1-.019,3.864c-.019,3.428-.218,6.868.012,10.284.2,2.985.873,5.94,1.346,8.906a3.632,3.632,0,0,0,.2.673c.461,1.271.922,2.543,1.4,3.808.175.461.374.922.592,1.365.2.405.443.792.711,1.253,6.282-4.064,12.571-8.115,18.829-12.21A7.9,7.9,0,0,0,189.642,260c-.075-.069-.15-.143-.224-.212a23.578,23.578,0,0,1-8.052,3.908,18.6,18.6,0,0,1-8.109.617c-.355-.056-.661-.436-.991-.661a4.626,4.626,0,0,1,.8-.767c1.471-.891,2.954-1.745,4.444-2.6.393-.224.8-.424,1.2-.636.012-.05.031-.093.044-.143-.118-.156-.243-.312-.361-.467a6.807,6.807,0,0,0-1.228-.056c-2.044.287-4.082.642-6.133.9a12.446,12.446,0,0,1-2.094-.081,82.938,82.938,0,0,1,8.7-1.084,3.617,3.617,0,0,1,1.247.411,3.614,3.614,0,0,0-.118.368l.069.087-.112.056a1.479,1.479,0,0,1-.349.7c-.972.885-2.038,1.67-3.228,2.63a3.249,3.249,0,0,0,.548.1,24.274,24.274,0,0,0,13.188-4.251,4.571,4.571,0,0,0,1.976-3.553c.112-1.321.193-2.655.43-3.958.748-4.12,2.7-7.361,6.756-9.037.935-.386,1.783-.972,2.686-1.427a36.891,36.891,0,0,1,3.578-1.714,2.412,2.412,0,0,1,1.888.019,30.115,30.115,0,0,1,2.848,2.524,1.743,1.743,0,0,0,.96.536c.773,0,1.546-.2,2.325-.237a4.064,4.064,0,0,1,4.307,4.207,2.195,2.195,0,0,0,.6,1.29,3.2,3.2,0,0,1,.654,4.064,8.339,8.339,0,0,0-.673,1.359,3.483,3.483,0,0,0-.156,1.851,3.736,3.736,0,0,1-.935,4.195,9.889,9.889,0,0,1-2.512,2.069c-2.269,1.109-4.637,2.007-6.956,3.017-1.315.573-2.636,1.141-3.9,1.826-1.876,1.016-3.066,2.692-4.363,4.375-6.706,8.707-14.31,16.629-21.783,24.662a42.646,42.646,0,0,1-12.253,9.087,1.6,1.6,0,0,0-1.01,1.614c-.112,2.53-.237,5.073-.573,7.585-.661,4.974-2.618,9.548-4.724,14.042-2.418,5.154-4.98,10.246-7.417,15.394-1.271,2.7-1.2,2.717,1.614,3.858,2.855,1.159,5.709,2.306,8.539,3.528,2.792,1.2,5.491,2.643,8.333,3.7,9.012,3.353,18.467,4.138,27.966,4.637,9.673.511,19.159-.9,28.608-2.736a5.933,5.933,0,0,0,.972-.43c-.386-.28-.6-.536-.86-.611a1.646,1.646,0,0,1-1.178-2.113,16.96,16.96,0,0,1,.692-2.836c1.689-4.78,3.428-9.548,5.129-14.329a2.761,2.761,0,0,0,.187-1.222c-.181-1.415-.486-2.817-.648-4.238a82.283,82.283,0,0,0-.916-8.252c-1.116-5.067-2.686-10.028-3.821-15.1a163.537,163.537,0,0,1-3.2-21.652c-.542-6.214-.6-12.4.929-18.517.305-1.215.617-2.437.991-3.926-1.907,1-3.534,1.864-5.167,2.724a2.5,2.5,0,0,1,.985-.96,24.951,24.951,0,0,0,8.944-9.86c1.7-3.291,2.25-6.737-.162-10.066-.592-.816-1.041-1.739-1.583-2.6-2.811-4.431-5.036-9.081-5.51-14.4-.031-.38-.044-.76-.062-1.141.143-.025.287-.044.424-.069a18.341,18.341,0,0,1,.492,1.8,29.7,29.7,0,0,0,4.045,10.664c1.328,2.163,2.643,4.332,3.964,6.5a6.88,6.88,0,0,1,.972,5.161c-.125.6-.168,1.228-.231,1.67a18.362,18.362,0,0,0,3.1-2.331c.922-1.047,1.733-2.063,3.472-2.026C236.761,245.38,235.944,243.573,235.184,241.747Zm-23.6,22.961c-2.107.636-4.3.985-6.451,1.452-.044-.131-.087-.262-.137-.393q6.1-2.3,12.2-4.606c.075.15.143.3.218.455A17.974,17.974,0,0,1,211.581,264.707Z" transform="translate(-8.59 -73.267)" fill="#c0b27c"/>
        <path id="Trazado_915086" data-name="Trazado 915086" d="M198.654,287.98c-.012.05-.031.1-.044.143l.112-.056A.843.843,0,0,1,198.654,287.98Z" transform="translate(-28.483 -101.757)" fill="#2a3863"/>
        <path id="Trazado_915087" data-name="Trazado 915087" d="M263.9,150.48c-1.253-2.281-3.085-3.945-6.027-3.964a19.548,19.548,0,0,1-8.283-1.851c-2.8-1.321-3.31-2.873-2.094-5.7a2.337,2.337,0,0,0,.1-.424c-.106.044-.218.081-.324.125a21.148,21.148,0,0,1-1.365-2.7c-.262-.748.125-1.284,1.028-1.259.511.019,1.022,0,1.533,0,.006-.137.012-.28.012-.418-.461-.087-.922-.168-1.384-.256-2.443-.474-4.425-1.265-3.359-4.226a4.344,4.344,0,0,1,1-1.377c1.271-1.346,1.271-2.225.125-3.646a10.525,10.525,0,0,1-1.739-2.724c-.76-2.007-.28-2.9,1.62-3.858,1.465-.735,2.917-1.5,4.332-2.319a4.348,4.348,0,0,0,1.845-4.587c-.187-.524-1.328-.711-2.038-1.047a.408.408,0,0,0-.224-.037c-1.334.349-1.5-.617-1.689-1.515A29.568,29.568,0,0,1,247,96.151a17.623,17.623,0,0,1,4.431-8.726,23.371,23.371,0,0,1,8.539-5.379,1.363,1.363,0,0,0,.991-1.639c-.249-4.718-.424-9.436-.648-14.154a42.71,42.71,0,0,0-.324-4.556c-.486-3.154-1.621-5.865-5.161-6.731-.9-.218-1.745-.7-2.643-.935-6.451-1.714-12.876-3.515-19.371-5.061-6.644-1.577-13.4-2.686-20.019-4.363a299.609,299.609,0,0,0-30.882-6.139,199.271,199.271,0,0,1-29.6-6.968c-3.116-.947-6.295-1.708-9.343-2.53,0,2.661-.006,5.142.012,7.616,0,.156.181.312.274.461.143.237.4.467.411.7q.131,3.319.175,6.65a7.819,7.819,0,0,1-.193,1.608,9.605,9.605,0,0,0-.455,1.845c.044,5.31.094,10.627.237,15.93.343,12.571.985,25.136,1.072,37.707.162,22.886.729,45.772-.087,68.658-.318,8.938-.137,17.887-.175,26.831-.012,2.281,0,4.562,0,7.08.112-.6.206-.966.249-1.34.542-5.2.929-10.427,1.645-15.606,1-7.267,2.113-14.528,3.447-21.745,1.109-5.99,3.889-10.888,10.253-12.771,1-.3,1.72-.667,1.2-1.951a2.758,2.758,0,0,1,.056-1.5,60.056,60.056,0,0,1,1.627-6.825c1.62-4.625,1.458-9.243.648-13.98A57.057,57.057,0,0,1,169.1,91.227a22.551,22.551,0,0,1,12.3-10.5c5.5-2.132,11.244-1.826,17.009-1.284a25.624,25.624,0,0,1,14.285,5.734c4.731,3.914,6.532,9.156,6.476,15.164-.019,2.2-.642,3.9-2.636,4.612v.305c.087.012.175.031.268.044.025.224.062.449.069.673.162,5.061.218,10.128.511,15.176.43,7.435.393,14.815-1.471,22.082a8.3,8.3,0,0,1-.654,1.745,1.093,1.093,0,0,1-.424.418,3.226,3.226,0,0,1-.823,1.758c1.309.206,2.611.411,3.92.6a14.2,14.2,0,0,1,5.6,1.907c4.568,2.855,7.062,7.13,8.19,12.216,1.2,5.429,4.02,10.215,5.815,15.4a1.715,1.715,0,0,0,1.134.922,6.506,6.506,0,0,1,4.855,3.546c1.67-.9,2.125-.711,2.792,1.141.175.486.349.979.58,1.627.312-.393.474-.6.636-.8q2.477-3.179,4.955-6.357c.53-.679,1.035-1.371,1.564-2.044,1.321-1.689,2.6-3.415,3.989-5.048a2.2,2.2,0,0,0,.536-1.976c-.586-4.419.773-8.3,5.877-9.131.742-.118.891-.5,1.01-1.159A11.435,11.435,0,0,0,263.9,150.48Z" transform="translate(-7.521 -4.177)" fill="#b3c4c4"/>
        <path id="Trazado_915088" data-name="Trazado 915088" d="M243.7,208.093c1-2.755,2.026-5.111,2.692-7.56.673-2.474,1-5.042,1.471-7.573a1.324,1.324,0,0,0-.835.5,22.207,22.207,0,0,1-10.564,7.03c-1.022.343-1.184.792-1,1.652a9.755,9.755,0,0,1,.224,1.028c.094.922.611,1.209,1.5,1.234a27.929,27.929,0,0,1,3.378.337c.929.143,1.608.5,1.309,1.726-.231.935.062,1.533,1.271,1.677.249.031.5.069.748.1,0-.087,0-.187.006-.274C243.819,208.012,243.763,208.049,243.7,208.093Z" transform="translate(-42.343 -65.959)" fill="#1e2c53"/>
        <path id="Trazado_915089" data-name="Trazado 915089" d="M255.483,151.172a1.256,1.256,0,0,0-.816.8,30.813,30.813,0,0,0-.218,10.01,43.149,43.149,0,0,1,.131,8.028c-.106,1.932-.7,3.827-.985,5.753-.567,3.858-.979,7.741-1.633,11.58a13.142,13.142,0,0,1-1.564,3.746c-.224.418-.785.654-1.371,1.047-.006.093-.006.187-.006.274,1.652.206,3.3.455,4.949.71a3.226,3.226,0,0,0,.823-1.758,1.873,1.873,0,0,1-.6.218c.256-1.44.461-2.892.767-4.325a80.21,80.21,0,0,0,1.178-22.936c-.255-3.415-.137-6.856-.112-10.284a17.752,17.752,0,0,1,.455-2.823c.012,0,.019.006.031.006v-.305A6.284,6.284,0,0,1,255.483,151.172Z" transform="translate(-47.475 -50.116)" fill="#2a3863"/>
        <path id="Trazado_915090" data-name="Trazado 915090" d="M314.377,266.912c.118.524.193.848.268,1.178.112.012.224.025.33.031a40.9,40.9,0,0,1,.617-4.113,23.967,23.967,0,0,1,1.677-5.167,29.706,29.706,0,0,1,3.621-5.454c2.337-2.811,5.267-4.475,9.137-3.821,1.957.33,3.939.536,5.909.792.125.019.262-.062.393-.224-3.621-1.222-7.28-2.051-11.393-1.352.773-.848,1.377-1.49,1.957-2.156a6.034,6.034,0,0,0,1.128-1.483c.854-2.107,2.605-2.923,4.593-3.546,1.483-.467,2.911-1.109,4.674-1.795,2.019,3.546,4.276,7.012,6.033,10.714a43.4,43.4,0,0,1,4.126,12.035,89.18,89.18,0,0,1,.418,21.49c-.561,6.2-2.692,11.9-4.774,17.676a96.061,96.061,0,0,0-3.727,12.671c-.96,4.562-1.184,9.287.436,13.774.96,2.661,2.474,5.111,3.665,7.691a3.43,3.43,0,0,1,.3,1.951c-.48,2.474-.629,4.874.823,7.118a1.249,1.249,0,0,1,.187.873,14.485,14.485,0,0,0,.735,8.183c1.938,5.522,4,11,6.046,16.485a9.764,9.764,0,0,0,1.084,1.67,10.309,10.309,0,0,1-5.5,3.789c-4.469,1.066-8.981,2.044-13.518,2.717-2.119.312-4.357-.131-6.532-.3-5.41-.411-10.838-.7-16.223-1.334-11.742-1.377-22.842-4.668-32.6-11.655a20.649,20.649,0,0,1-2.636-2.119,1.707,1.707,0,0,1-.125-1.446c1.234-3.534,2.568-7.037,3.808-10.57,3.989-11.374,8.028-22.736,11.879-34.161a59.824,59.824,0,0,0,1.564-8.021.945.945,0,0,1,.374-.623c.573,1.371,1.147,2.736,1.714,4.107a12.015,12.015,0,0,0,.43,1.178c1.352,2.462,2.68,4.936,4.107,7.354,2.555,4.325,5.391,8.451,9.66,11.287a10.864,10.864,0,0,0,6.706,1.546,3.51,3.51,0,0,0,1.77-.8A19.059,19.059,0,0,0,322.579,327a56.3,56.3,0,0,0,6.22-16.217c.629-3.235,1.87-6.357,2.811-9.536.162-.548.224-1.134.355-1.845,1.427.156,2.848.237,4.244.486,1.477.268,2.069-.037,2.231-1.539q1.253-11.882,2.443-23.765a19.27,19.27,0,0,0-.143-2.985c-.1-.019-.206-.037-.305-.05a13.7,13.7,0,0,0-.611,2.181c-.848,7.367-1.658,14.74-2.481,22.113-.037.349-.075.7-.093,1.047-.112,2.007-.112,2.013-2.038,1.67a95.081,95.081,0,0,1-16.46-3.958,49.848,49.848,0,0,1-12-6.5c-.723-.524-.305-.954-.031-1.377a39.788,39.788,0,0,0,4.413-9.791q1.468-4.815,2.954-9.623C314.1,267.23,314.2,267.155,314.377,266.912Z" transform="translate(-57.418 -83.605)" fill="#dbcc8d"/>
        <path id="Trazado_915091" data-name="Trazado 915091" d="M373.837,231.672c-.05-.623-.168-1.24-.218-1.857-1.028-12.764-2.026-25.535-3.091-38.3a80.358,80.358,0,0,1,.436-20.318,124.689,124.689,0,0,0,1.82-15.332c.349-7.7-.031-15.32-3.49-22.556a44.8,44.8,0,0,0-13.518-16.622,17.111,17.111,0,0,0-8.931-3.553,91.8,91.8,0,0,0-12.266-.536c-5.622.262-11.088,1.577-15.818,4.843a17.735,17.735,0,0,0-7.061,9.2,26.692,26.692,0,0,0-.648,13.749c.143.729.492.848,1.147.754,1.309-.187,2.63-.305,3.945-.461,1.06-.125,2.119-.262,3.228-.4a24.127,24.127,0,0,1-.935-9.4,1.151,1.151,0,0,1-.168-.561,1.151,1.151,0,0,0,.168.561c.031-.536.069-1.072.106-1.6.093.654.156,1.315.206,1.976a1.29,1.29,0,0,0,.486.268c0-.717.019-1.433.069-2.15.181.548.187,1.128.318,1.677.536,2.312,1.01,4.643,1.72,6.9.218.7,1.084,1.633,1.708,1.677,2.668.187,5.354.081,8.084.081a37.635,37.635,0,0,1,.081-11.312,14.615,14.615,0,0,1,.7,3.172c.48,3.5,1.533,6.688,4.656,8.819.349.237.474.922.53,1.421.118,1.041-.006,2.119.206,3.129.43,2.019.966,4.026,1.558,6.008,1.764,5.915,3.571,11.8,3.821,18.05.193,4.83.281,9.7-1.558,14.217a71.115,71.115,0,0,1-5.535,10.284,42.893,42.893,0,0,0-5.7,13.525c-.181.848-.318,1.7-.474,2.555l.3.112c.5-.767.985-1.552,1.521-2.3.86-1.2,1.708-2.424,2.643-3.571,2.587-3.166,6.176-5.5,7.679-9.586.6-1.658,1.839-3.073,2.53-4.706A44.065,44.065,0,0,0,347.9,171.9c-.056-5.89-.05-11.792-.418-17.663-.256-4.076-1.1-8.115-1.664-12.178-.087-.63-.094-1.278-.143-2.013,2.611.1,1.72,2.574,2.867,3.627a2.491,2.491,0,0,1,2.9.031,5.22,5.22,0,0,1,2.437,3.447,21.038,21.038,0,0,1,.268,4.419,12.732,12.732,0,0,1-3.017,7.716,2.236,2.236,0,0,0-.711,1.82,39.935,39.935,0,0,1,.418,6.014,92.022,92.022,0,0,1-1.3,11.262c-.792,4.07-.492,7.828,1.683,11.387.954,1.564,1.832,3.185,2.9,4.674,3.852,5.36,6.039,11.48,7.672,17.738,1.72,6.575,1.82,13.363,1.371,20.144a59.024,59.024,0,0,1-3.291,17.3c-1.726,4.562-3.453,9.137-4.805,13.818-2.325,8.034-2.2,15.924,2.58,23.191a23.766,23.766,0,0,0,3.291,3.577,4.486,4.486,0,0,0,1.427.573,20.653,20.653,0,0,1-1.6-2.1,21.658,21.658,0,0,1-3-13.693c.168-1.315.436-2.618.711-3.92a91.573,91.573,0,0,1,6.65-19.09c3.459-7.6,6.12-15.382,6-23.877a15.755,15.755,0,0,1,.231-2.082c.374,4.593.8,9.218-.536,13.637-1.415,4.662-3.1,9.249-4.924,13.768-2.524,6.27-5.042,12.527-6.457,19.171-.131.611-.256,1.222-.361,1.839-.093.573-.156,1.153-.231,1.726.268-.069.355-.156.38-.256a38.483,38.483,0,0,1,4.544-10.346,56.769,56.769,0,0,0,6.818-14.846c.86-3.241,1.589-6.526,2.481-9.76A26.091,26.091,0,0,0,373.837,231.672ZM367.149,223c-.044,4.6-.6,9.193-.654,13.793-.075,6.083-2.792,11.381-4.693,16.921a1.166,1.166,0,0,1-.555.648c.673-1.945,1.259-3.927,2.038-5.827a29.463,29.463,0,0,0,2.518-9.692c.274-5.535.654-11.063.723-16.6a29.554,29.554,0,0,0-2.724-12.958,41.17,41.17,0,0,1-3.615-15.538c-.268-5.884-.287-11.786-.386-17.676a18.852,18.852,0,0,1,.231-2.281c.069.006.143.006.212.012.156,2.9.287,5.809.467,8.707.368,5.8.642,11.611,1.184,17.4a26.189,26.189,0,0,0,2.811,9.742C366.906,213.853,367.187,218.427,367.149,223Zm1.564-46.483a87.643,87.643,0,0,0-1.452,19.932c.187,2.911.711,5.8,1.085,8.7.075.586.143,1.172.218,1.758-3.366-12.029-1.864-23.946.648-35.837.1.012.2.019.3.031C369.25,172.911,369.007,174.718,368.714,176.519Z" transform="translate(-70.62 -35.663)" fill="#2a3863"/>
        <path id="Trazado_915092" data-name="Trazado 915092" d="M316.761,146.174c.218,1.963.05,4.076,1.664,5.734a2.814,2.814,0,0,1-.611.262c-1.427.231-2.848.524-4.282.617-.991.069-1.3.467-1.2,1.377a6.6,6.6,0,0,1,0,1.053,4.9,4.9,0,0,1-2.717,4.575c-1.434.7-2.823,1.49-4.263,2.188-.754.368-1.141.922-.823,1.683a14.446,14.446,0,0,0,1.589,3.066c1.627,2.2,1.677,2.749-.062,4.905-.094.118-.175.243-.355.5.343.168.667.48.916.424,1.022-.212,1.627.405,2.231,1.01a17.187,17.187,0,0,0,1.857,1.945,20.62,20.62,0,0,0,3.372,1.951c.349.162.922-.137,1.683-.28.175.362.449.941.729,1.515l-.256.218c-.785-.735-1.427-.405-2.194.05-1.371.81-2.836,1.452-4.251,2.188-.287.15-.654.361-.754.629-.866,2.343-.735,3.247,1.328,4.394a7.632,7.632,0,0,0,2.163.866c2.294.449,4.612.754,6.906,1.184a8.98,8.98,0,0,1,2.867.835c4.344,2.524,6.875,9.816,4.631,14.877a10.847,10.847,0,0,0-.673,2.717c-.112.729.162,1.434,1.053,1.3,1.783-.256,3.627-.362,4.587-2.375a34.215,34.215,0,0,1,2.356-3.908,32.23,32.23,0,0,0,5.1-19.95,78.357,78.357,0,0,0-2.755-15.65c-1.153-4.35-2.836-8.607-2.68-13.238-2.643-1.259-3.247-3.964-4.431-6.295.118,1.72-.393,3.528.929,5.011.1.112.125.467.062.5a1.377,1.377,0,0,1-.717.218c-1.209-.081-2.412-.243-3.615-.305a56.034,56.034,0,0,0-5.958-.162c-.835.05-1.29-.112-1.583-.767a20.03,20.03,0,0,1-1.633-8.233,1.29,1.29,0,0,1-.486-.268C316.574,143.762,316.624,144.971,316.761,146.174Zm21.272,34.385c-1.247,4.188-12.029,8.57-16.292,7.541a21.8,21.8,0,0,0,8.938-2.587C333.333,184.03,335.751,182.117,338.033,180.559Zm-7.965-26.894a1.306,1.306,0,0,1,1.078.268,3.8,3.8,0,0,1-1.047.711,30.818,30.818,0,0,1-4.662.916,7.6,7.6,0,0,0-3.447,1.19c-1.845,1.1-3.821,1.988-5.609,2.892-.137-1.3-.262-2.487-.393-3.746-.467.181-.841.33-1.4.548a3.357,3.357,0,0,1,2.618-2.113,26.665,26.665,0,0,1,3.384-.006A23.973,23.973,0,0,0,330.067,153.665Zm-3.129-.492c-4.126-.667-8.2-.717-12.316,1C315.645,151.982,323.33,151.471,326.939,153.173Z" transform="translate(-68.347 -46.963)" fill="#f5b657"/>
        <path id="Trazado_915093" data-name="Trazado 915093" d="M154.34,454.252c.343-5.8.623-11.605,1.072-17.4a23.257,23.257,0,0,1,1.153-4.276c.224-.792.711-.922,1.421-.586,2.431,1.147,4.905,2.219,7.3,3.422a64.1,64.1,0,0,0,21.272,6.083,119.756,119.756,0,0,0,32.571-.087c2.238-.337,4.475-.729,6.669-1.265a11.2,11.2,0,0,0,3.147-1.4c.829-.511,1.458-.748,2.225.044a5.33,5.33,0,0,0,1.514,1.091c1.271.6,1.427,1.427,1.016,2.73a28.507,28.507,0,0,0-.268,17.4,4.634,4.634,0,0,1,.137,1.5c-.069,3.042-.187,6.083-.231,9.125-.012.717-.337.954-.96,1.047-3.665.555-7.33,1.084-10.988,1.7-6,1.01-12,2.038-17.987,3.129-7.865,1.44-15.706,3.035-23.584,4.4-7,1.209-14.036,2.188-21.054,3.272-1.271.193-1.5-.025-1.751-1.365-1.745-9.442-2.094-19-2.393-28.558C154.539,454.27,154.44,454.258,154.34,454.252Zm33.544,11.873a9.09,9.09,0,0,1,.729-.835c3.634-3.247,7.2-6.582,10.957-9.692,1.321-1.1,3.1-1.639,4.911-2.562-.193.654-.274,1.022-.405,1.377-2.082,5.641-4.176,11.268-6.239,16.915a23.462,23.462,0,0,0-1.072,3.7c-.081.424.405.954.636,1.433a12.567,12.567,0,0,0,1.315-.86c.15-.125.15-.43.224-.654.9-2.823,1.857-5.634,2.693-8.476,1.44-4.905,3.627-9.6,4.17-14.74a7.775,7.775,0,0,0,4.338-1.309c-.031-.162-.056-.324-.087-.48-1.814.187-3.627.38-5.441.567,1.433-.6,2.923-.916,4.332-1.458,3.272-1.259,6.507-2.6,9.729-3.983.324-.137.43-.773.636-1.184a3.7,3.7,0,0,0-1.278-.031c-1.508.536-2.967,1.2-4.475,1.733-6.787,2.424-13.843,3.771-20.9,5.117-2.449.467-4.861,1.128-7.273,1.77-.748.2-1.589.58-1.4,1.583.2,1.035,1.122.96,1.895.885,1.708-.168,3.415-.355,5.111-.617,3.3-.517,6.594-1.1,9.928-1.658-.062.137-.075.237-.125.274-.312.231-.636.455-.954.673a92.564,92.564,0,0,0-16.448,14.559c-.548.623-1.346,1.39-.567,2.244.8.879,1.552.044,2.25-.405q6.806-4.347,13.612-8.694a13.356,13.356,0,0,1,1.3-.623c-1.583,2.562-3.06,4.812-4.388,7.143-1.309,2.294-2.911,4.45-3.484,7.105.611-.866,1.141-1.77,1.664-2.686q2.861-4.964,5.728-9.935c.312-.536.76-1,1.053-1.546.318-.592.05-.935-.6-.792a6.4,6.4,0,0,0-1.539.555C194.97,462.36,191.53,464.193,187.884,466.125Z" transform="translate(-11.805 -155.948)" fill="#6c8c76"/>
        <path id="Trazado_915094" data-name="Trazado 915094" d="M295.772,273.324c-.449,1.234-.891,2.443-1.365,3.758a6.928,6.928,0,0,1-1.633-3.091c-.081-.206.05-.492-.031-.692a6.935,6.935,0,0,0-.586-.96c-.206.337-.623.692-.586,1,.187,1.639.5,3.291,1.938,4.35,1.141.841,2.381,1.546,3.578,2.306.1-.062.193-.131.293-.193a12.057,12.057,0,0,0-.829-1.3c-1.278-1.552-.661-4.749,1.116-5.64a1.552,1.552,0,0,1,.43-.056,2.61,2.61,0,0,1,.305.835,8.058,8.058,0,0,0,1.758,4.512c1.421,2.125,1.128,2.911-.231,4.986-.829,1.271-1.839,2.418-2.761,3.627-1.658,2.169-1.4,4.556-.673,6.924a23.968,23.968,0,0,0,4.089,7.7c3.172,4.051,6.139,8.264,9.156,12.44a2.41,2.41,0,0,1,.224,1.29c.012.972-.343,1.982.511,3.129.542-1.384,1-2.574,1.471-3.758,1.109-2.773,2.2-5.553,3.378-8.3a1.276,1.276,0,0,1,1.184-.424c5.086,2.449,10.552,3.59,16.03,4.687.15.031.287.1.611.212-.542,1.851-1.116,3.665-1.6,5.5-.979,3.7-1.67,7.492-2.929,11.082a115.885,115.885,0,0,1-5.08,11.8,20.2,20.2,0,0,1-2.992,3.721c-.954,1.134-2.169,1.047-3.521.947-3.166-.243-5.248-2.15-7.155-4.344a44.169,44.169,0,0,1-6.607-9.76c-1.527-3.154-3.44-6.114-5.167-9.168a12.606,12.606,0,0,1-.785-1.689c-.823-2.1-1.546-4.244-2.468-6.295a22.422,22.422,0,0,0-1.888-2.724,18.952,18.952,0,0,1-1.078-2.057c-1.084-2.287-1.988-4.674-3.272-6.85a32.45,32.45,0,0,1-4.693-17.744c.081-2.618.15-5.229.231-7.847a2.462,2.462,0,0,1,1.864-2.169A3.355,3.355,0,0,0,288,271.274c.492-1.1,1.521-.866,2.449-.748.262.031.561.262.754.187,1.172-.461,1.945.218,2.717.879C294.582,272.159,295.211,272.794,295.772,273.324Z" transform="translate(-60.615 -95.141)" fill="#f5b657"/>
        <path id="Trazado_915095" data-name="Trazado 915095" d="M167.015,291.869c.243.767.436,1.352.648,2.032a16.274,16.274,0,0,0-5.672,6.008c.131.137.262.274.393.405.511-.411,1.035-.81,1.539-1.234a28.037,28.037,0,0,1,4.2-3.5c2.605-1.427,4.812-3.422,7.435-4.824,2.643-1.409,5.092-3.185,7.6-4.836,2.9-1.9,5.771-3.846,8.657-5.765,2.487-1.652,3.428-4.157,3.845-6.943.256-1.7.337-3.428.661-5.111a11.616,11.616,0,0,1,6.526-8.751c1.19-.58,2.418-1.1,3.621-1.652,1.776-.823,2.113-.754,3.422.723.231.262.424.548.7.916-1.82.692-3.578,1.365-5.341,2.032.037.156.081.305.118.461a9.614,9.614,0,0,0,1.122-.1c2.593-.53,5.192-1.06,7.778-1.633,1.583-.355,2.593.6,3.6,1.515a1.3,1.3,0,0,1,.206,1.066,2.419,2.419,0,0,0,.854,2.512c1.228,1.184,1.284,1.7.461,3.166a10.213,10.213,0,0,1-.617,1,2.408,2.408,0,0,0-.262,2.53c.717,1.758.517,2.318-.873,3.59-2.175,1.994-4.936,2.886-7.622,3.727a19.454,19.454,0,0,0-7.348,4.419c-2.206,2.013-4.132,4.344-6.139,6.563-6.706,7.417-13.356,14.877-20.1,22.257a34.6,34.6,0,0,1-9.131,6.681c-.318.174-.779.081-1.153.174a1.953,1.953,0,0,0-.891.405c-1.652,1.726-3.752,1.92-5.9,1.571-.555-.093-1.109-.922-1.434-1.539a41.2,41.2,0,0,1-4.357-15.93,4.471,4.471,0,0,1,1.67-4.257c3.035-2.586,6-5.254,9.685-6.906C165.569,292.373,166.236,292.161,167.015,291.869Z" transform="translate(-11.504 -90.151)" fill="#e0a04c"/>
        <path id="Trazado_915096" data-name="Trazado 915096" d="M129.038,23.65c1.4,1.066,2.568,1.945,3.715,2.861a1,1,0,0,1,.2.642c.667,17.757,1.527,35.507,1.926,53.264.337,14.871.062,29.754.187,44.631.069,7.654.524,15.3.629,22.955.181,13.356.386,26.713.3,40.069-.15,22.774-.492,45.541-.816,68.309-.106,7.46-.567,14.915-.586,22.369-.031,9.723.231,19.446.343,29.168q.1,9.078.15,18.149c.012,2.381,0,4.762-.025,7.149a1.926,1.926,0,0,1-.237,1.084c-1.122,1.44-2.306,2.83-3.6,4.394-.031-.486-.062-.848-.069-1.209-.243-11.711-.555-23.422-.711-35.139q-.271-19.979-.312-39.957c-.006-5.933.374-11.861.5-17.794q.178-7.844.193-15.7c.037-10.857-.019-21.714.056-32.578.031-4.369.4-8.738.424-13.113.044-8.938-.031-17.881-.069-26.819-.05-11.873-.162-23.746-.15-35.619.012-9.685,0-19.377.293-29.056.374-12.2-.156-24.357-.891-36.523-.374-6.158-.573-12.322-.866-18.486-.181-3.858-.393-7.716-.586-11.574C129.025,24.759,129.038,24.373,129.038,23.65Z" transform="translate(-2.271 -2.172)" fill="#855542"/>
        <path id="Trazado_915097" data-name="Trazado 915097" d="M151.543,393.166c-2.256,4.462-2.6,9.274-2.879,14.061a198.411,198.411,0,0,0,.922,33.213c.212,1.963.661,3.908,1.022,5.971-2.356.492-4.774,1-7.155,1.5,0-1.3-.106-2.587.019-3.845.848-8.744.361-17.47-.268-26.2a277.124,277.124,0,0,1-.044-37.452c.486-7.71.461-15.451.58-23.179.118-7.847.131-15.694.187-23.54.006-.455,0-.916,0-1.508,2.119,1,2.711-1.1,4.076-1.826.125,1.658.2,3.235.374,4.8a36.183,36.183,0,0,0,4.325,13.269,3.558,3.558,0,0,0,3.64,2.026c1.458-.112,2.9-.436,4.444-.686a39.392,39.392,0,0,1-1.465,10.857c-1.839,6.289-4.874,12.066-7.809,17.888-1.546,3.06-3,6.17-4.419,9.293-.879,1.945-.5,2.948,1.365,3.945C149.443,392.274,150.49,392.686,151.543,393.166Z" transform="translate(-7.363 -117.723)" fill="#b3c4c4"/>
        <path id="Trazado_915098" data-name="Trazado 915098" d="M232.425,150.524c-.131,1.4-.224,2.711-.4,4.014a1.034,1.034,0,0,1-.592.717,3.535,3.535,0,0,1-1.72.106c-2.555-.735-4.861.012-7.118,1.072a2.968,2.968,0,0,0-1.832,2.58c3.989-.436,7.535-1.876,11.05-3.216.985,5.678,1.558,11.293-.212,16.909-.96,3.042-3.066,4.986-5.616,6.6-.885.561-1.876.96-2.8,1.471a14.743,14.743,0,0,1-13.007.735,61.8,61.8,0,0,1-9.2-4.805c-2.082-1.259-3.9-2.954-5.852-4.419a4.891,4.891,0,0,1-2.169-4.12c-.15-6.245.162-12.4,2.294-18.355a7.992,7.992,0,0,1,.312-.754,2.4,2.4,0,0,1,.305-.355c-.062,1.035-.056,1.957-.181,2.855a1.112,1.112,0,0,0,.929,1.371,13.306,13.306,0,0,0,1.807.474c1.751.249,3.528.368,5.267.673,1.714.3,3.4.748,5.1,1.159a10.143,10.143,0,0,0,1.689.424,3.847,3.847,0,0,0-2.25-1.521c-.854-.349-1.764-.561-2.761-.866.542-2.05,1.078-4.07,1.614-6.083l.312.019c0,1.247.019,2.5-.006,3.746s.368,1.888,1.795,2.125a33.453,33.453,0,0,0,14.011-1.041c1.041-.268,2.138-.287,3.2-.467C228.374,151.254,230.325,150.9,232.425,150.524ZM223.718,174c-1.084-.866-2.269-1.895-3.534-2.811a3.085,3.085,0,0,0-3.179-.6,4.746,4.746,0,0,1-3.758.025,2.875,2.875,0,0,0-2.674.206c-1.3.767-2.618,1.521-3.914,2.294a6,6,0,0,0-.723.6,6.749,6.749,0,0,0,.792.735c.573.4,1.184.742,1.77,1.116a10.336,10.336,0,0,0,1.153.773,16.037,16.037,0,0,0,6.98,1.172,7.094,7.094,0,0,0,4.419-1.633C221.917,175.181,222.883,174.582,223.718,174Zm-13.456-14.385.361-.343a7.793,7.793,0,0,0-2.68-2.911,7.919,7.919,0,0,0-6.357-.467,5.327,5.327,0,0,1-3.764-.156c-.318-.125-.654-.193-.985-.287l-.15.524c4.02,1.6,8.3,2.343,12.534,3.247-1.178-.455-2.35-.91-3.559-1.371,1.215-1.165,1.988-1.153,3.085.025.287.312.492.7.767,1.028C209.739,159.157,210.013,159.375,210.262,159.612Zm10.708,5.659a21.786,21.786,0,0,1-3.091,1.583,5.164,5.164,0,0,1-4.905-.623,5.484,5.484,0,0,0-1.546-.5c-.224,1.028.742.773,1.178,1.091,2.755,2.013,5.3.947,7.791-.573C220.664,166.093,220.758,165.657,220.97,165.271Z" transform="translate(-26.343 -48.715)" fill="#e0a04c"/>
        <path id="Trazado_915099" data-name="Trazado 915099" d="M131.97,521.718a5.917,5.917,0,0,1,.461-1.583c1.134-1.864,2.356-3.677,3.54-5.51.343-.536.729-.742,1.359-.368a1.77,1.77,0,0,0,1.091.174c4.014-.586,8.028-1.184,12.035-1.82,7.635-1.209,15.282-2.337,22.892-3.69,7.492-1.334,14.933-2.954,22.412-4.344,7.6-1.409,15.239-2.6,22.83-4.07,3.627-.7,7.174-1.845,10.757-2.786.143-.037.3-.05.667-.112-.212.8-.343,1.514-.58,2.181a10.943,10.943,0,0,0-.424,6.563,1.1,1.1,0,0,1-.96,1.539c-3.509.723-7,1.627-10.546,2.088-6.931.9-13.911,1.421-20.836,2.337-5.179.686-10.3,1.8-15.469,2.618-11.412,1.807-22.83,3.59-34.26,5.279-2.773.411-5.6.362-8.4.623C136.383,521.051,134.245,521.412,131.97,521.718Z" transform="translate(-3.377 -180.733)" fill="#855542"/>
        <path id="Trazado_915100" data-name="Trazado 915100" d="M325.026,239.43c-.785,1.078-1.583,2.144-2.35,3.235-1.44,2.051-.686,3.845,1.82,4a24.052,24.052,0,0,0,4.5-.449,6.382,6.382,0,0,0,1.2-.393c-.86,2.468-1.814,4.812-2.481,7.236s-1.016,4.961-1.6,7.429c-.4,1.664-.922,3.3-1.471,4.924-1.446,4.288-2.842,8.6-4.444,12.833-.91,2.393-2.188,4.649-3.3,6.968a16.752,16.752,0,0,0-.841,1.8c-.411,1.178-.1,1.764.966,2.418,1.452.9,2.867,1.864,4.138,2.692-.816,2.9-1.6,5.64-2.431,8.607-.692-1.028-1.265-1.938-1.888-2.811-2.873-3.989-5.815-7.928-8.626-11.96-1.62-2.319-2.717-4.9-2.032-7.809a7.645,7.645,0,0,1,1.458-2.967,12.886,12.886,0,0,0,2.655-5.541,7.279,7.279,0,0,0-.511-3.017,3.741,3.741,0,0,0-.6-1.035c.835-1.147,1.608-2.194,2.362-3.247a9.058,9.058,0,0,1,.922-1.352c3.079-2.942,5.161-6.644,7.672-10.022.33-.443.916-.711,1.2-1.172a3.438,3.438,0,0,0,.517-1.7c.006-.848-.262-1.7-.324-2.549-.237-3.322.835-4.805,4.051-5.672C325.381,239.729,325.2,239.58,325.026,239.43Z" transform="translate(-68.933 -83.466)" fill="#dbcc8d"/>
        <path id="Trazado_915101" data-name="Trazado 915101" d="M279.04,367.415a62.735,62.735,0,0,0-.748-7.28c-1.035-4.843-2.549-9.586-3.484-14.447-1.377-7.2-2.493-14.453-3.565-21.708-.443-3-.5-6.064-.673-9.106-.019-.386.293-1.078.58-1.153,2.774-.735,5.572-1.371,8.539-2.082.411,1.857.96,3.92,1.3,6.021.405,2.462.7,4.949.91,7.435a12.743,12.743,0,0,0,1.564,5.7,38.964,38.964,0,0,1,4.263,11.967,3.045,3.045,0,0,1-.231,1.577q-3.59,9.9-7.211,19.795c-.405,1.109-.735,2.238-1.1,3.359A.841.841,0,0,0,279.04,367.415Z" transform="translate(-55.593 -110.67)" fill="#e0a04c"/>
        <path id="Trazado_915102" data-name="Trazado 915102" d="M255.552,52.564c-.773-.393-1.546-.8-2.325-1.178-.735-.355-1.477-.7-2.225-1.022-6.033-2.661-12.434-4.151-18.81-5.659-9-2.132-18.093-3.87-27.062-6.127-10.359-2.605-20.86-4.332-31.375-6.033A242.965,242.965,0,0,1,145.4,25.839c-1.683-.486-3.428-.767-5.123-1.215-1.109-.293-2.163-.785-3.272-1.078a3.412,3.412,0,0,0-1.683.125c-.792-.467-1.477-1.377-2.661-.617-.112.069-.418-.106-.6-.218q-2.664-1.543-5.323-3.11c-.125-.075-.237-.175-.287-.555.941.2,1.9.337,2.817.617,3.322,1,6.594,2.188,9.947,3.054,3.4.873,6.893,1.34,10.3,2.194C153.368,26,157.1,27.621,161,28.189c5.572.816,10.745,3.01,16.242,3.976,4.3.754,8.651,1.334,12.889,2.356a132.364,132.364,0,0,0,17.364,3.2,24.682,24.682,0,0,1,6.563,1.577,33.266,33.266,0,0,0,11.356,2.032,29.444,29.444,0,0,1,9.143,1.783,71.857,71.857,0,0,0,12.3,2.836,6.08,6.08,0,0,1,2.7,1.24c1.876,1.546,3.8,2.848,6.32,3.017a6.232,6.232,0,0,1,1.589.386.86.86,0,0,1,.524.517c.019.181-.237.449-.436.58-.679.443-1.39.835-2.094,1.247A2.51,2.51,0,0,1,255.552,52.564Z" transform="translate(-1.298 -0.484)" fill="#855542"/>
        <path id="Trazado_915103" data-name="Trazado 915103" d="M222.2,202.328c.337,2.711.53,5.354,2.281,7.473.224.268.735.3,1.091.436a7,7,0,0,1-5.809,2.275c-4-.573-7.978-1.34-11.954-2.1-1.49-.28-2.936-.76-4.357-1.141,2.281-3.577,1.539-7.473,1.078-11.337-.044-.343-.106-.679-.193-1.234C209.926,200.072,215.491,203,222.2,202.328Z" transform="translate(-30.307 -67.368)" fill="#e0a04c"/>
        <path id="Trazado_915104" data-name="Trazado 915104" d="M279.461,298.344l-8.981,2.437c.187-2.032.268-3.758.523-5.46.418-2.736.954-5.46,1.458-8.183a2.154,2.154,0,0,1,.38-.823c1.533-2.051,3.085-4.089,4.637-6.145C277.392,286.116,277.149,292.23,279.461,298.344Z" transform="translate(-55.56 -98.814)" fill="#c0b27c"/>
        <path id="Trazado_915105" data-name="Trazado 915105" d="M193.892,187.75c.829.754,1.658,1.5,2.481,2.262.43.4.767.985,1.265,1.2,1.764.76,1.945,2.237,1.951,3.839.006,2.094,0,4.195,0,6.233-1.247.424-2.474.848-3.87,1.321-.7-4.836-1.421-9.773-2.138-14.715C193.68,187.844,193.786,187.794,193.892,187.75Z" transform="translate(-26.588 -63.996)" fill="#1e2c53"/>
        <path id="Trazado_915106" data-name="Trazado 915106" d="M289.79,319.99c.823,1.614,1.67,3.172,2.418,4.774,1.253,2.68,2.393,5.41,3.683,8.071a7.139,7.139,0,0,1,.979,3.889c-.181,1.8-.337,3.609-.692,5.422-.748-3.9-2.593-7.28-4.382-10.689a5.994,5.994,0,0,1-.517-1.782C290.775,326.484,290.295,323.293,289.79,319.99Z" transform="translate(-62.835 -113.816)" fill="#b3c4c4"/>
        <path id="Trazado_915107" data-name="Trazado 915107" d="M334.172,97.8c-.087-1.072-.218-2.075-.231-3.073-.1-6.039.15-12.085-.7-18.093-.168-1.178-.012-2.138,1.409-2.406a4.846,4.846,0,0,0,1.128-.6c0,.524.025.9-.006,1.265-.212,3.029-.443,6.058-.648,9.087a16.478,16.478,0,0,0-.006,2.219c.193,2.867.418,5.734.636,8.6a6.45,6.45,0,0,0,.137.922C336.291,97.541,336.3,97.534,334.172,97.8Z" transform="translate(-79.183 -20.998)" fill="#855542"/>
        <path id="Trazado_915108" data-name="Trazado 915108" d="M380.435,488.152c.256-.349.5-.692.854-1.172.2,1.714.025,3.1-1.371,4.151q-2.552,1.926-4.949,4.064a17.436,17.436,0,0,0,6.071-4.768,2.252,2.252,0,0,1-.96,2.892c-1.371.9-2.7,1.851-4.045,2.78a2.753,2.753,0,0,0-.81.735,14.3,14.3,0,0,0,5.8-4.008c.112.05.224.106.33.156-.137.486-.112,1.172-.43,1.421-2.175,1.745-4.425,3.4-6.756,5.161-.224-2.979-.418-5.846,1.215-8.458a2.4,2.4,0,0,1,.723-.717c1.215-.773,2.443-1.533,3.683-2.256.156-.094.436.019.661.037l-5.1,4.375c.1.112.2.218.305.33A13.923,13.923,0,0,0,380.435,488.152Z" transform="translate(-94.569 -176.728)" fill="#56735f"/>
        <path id="Trazado_915109" data-name="Trazado 915109" d="M364.02,235.838c1.222-3.172,2.356-6.145,3.559-9.268.262,1.147.467,2.169.735,3.179a15.2,15.2,0,0,0,.623,1.764c.823,2.094.835,2.107-1.328,2.967C366.463,234.934,365.3,235.352,364.02,235.838Z" transform="translate(-90.8 -78.621)" fill="#f5b657"/>
        <path id="Trazado_915110" data-name="Trazado 915110" d="M373.665,176.371c-.056-.885-.112-1.776-.168-2.661q-.159-2.431-.312-4.868c.112-.012.218-.019.33-.031.056.816.068,1.639.187,2.449a4.184,4.184,0,0,0,.486,1.066c.256-.305.654-.573.742-.916.5-2.026.829-4.051-1.24-5.5-.249-.174-.6-.262-.779-.486-.312-.386-.8-.922-.717-1.265a.9.9,0,0,1,1.477-.53,6.976,6.976,0,0,1,2.1,2.68C376.843,169.939,375.884,173.292,373.665,176.371Z" transform="translate(-93.876 -54.816)" fill="#f5b657"/>
        <path id="Trazado_915111" data-name="Trazado 915111" d="M374.24,505.2c.542-.069.879-.112,1.19-.15.131-.343.162-.729.368-.9,1.782-1.5,3.6-2.96,5.416-4.438.661,1.62.5,2.431-.767,3.447-1.907,1.521-3.852,2.992-6.014,4.662C374.352,506.759,374.3,506.017,374.24,505.2Z" transform="translate(-94.651 -181.524)" fill="#56735f"/>
        <path id="Trazado_915112" data-name="Trazado 915112" d="M283.51,491.582c.206-2.269.386-4.257.561-6.245.112-.044.218-.093.33-.137.891,1.552,1.8,3.1,2.649,4.674a.873.873,0,0,1-.3.8C285.735,491.015,284.688,491.264,283.51,491.582Z" transform="translate(-60.469 -176.058)" fill="#b3c4c4"/>
        <path id="Trazado_915113" data-name="Trazado 915113" d="M311.721,195.556c-1.77-.517-3.7-.947-5.516-1.652-1.359-.524-1.44-1.346-.7-2.855,2.35-.031,3.415,1.789,4.774,3.2C310.755,194.752,311.3,195.182,311.721,195.556Z" transform="translate(-68.58 -65.239)" fill="#db7133"/>
        <path id="Trazado_915114" data-name="Trazado 915114" d="M309.461,200.05h4.681c-.891,1.309-2.967,2.424-3.771,1.951-.561-.33-.854-1.109-1.271-1.683C309.225,200.225,309.343,200.137,309.461,200.05Z" transform="translate(-70.11 -68.63)" fill="#db7133"/>
        <path id="Trazado_915115" data-name="Trazado 915115" d="M246.117,161.02l2.169.542c-.012.106-.025.212-.031.318-.686.218-1.371.443-2.225.723C246.055,162.092,246.074,161.706,246.117,161.02Z" transform="translate(-46.348 -53.925)" fill="#f9e381"/>
        <path id="Trazado_915116" data-name="Trazado 915116" d="M240.77,295.266q6.1-2.3,12.2-4.606c.075.15.143.3.218.455a17.911,17.911,0,0,1-5.827,3.091c-2.107.636-4.3.985-6.451,1.452C240.857,295.528,240.814,295.4,240.77,295.266Z" transform="translate(-44.367 -102.766)" fill="#311d48"/>
        <path id="Trazado_915117" data-name="Trazado 915117" d="M259.874,151.436c.025.224.062.449.069.673.162,5.061.218,10.128.511,15.176.43,7.435.393,14.815-1.471,22.082a8.3,8.3,0,0,1-.654,1.745,1.4,1.4,0,0,1-1.028.636c.256-1.44.461-2.892.767-4.325a80.209,80.209,0,0,0,1.178-22.936c-.255-3.415-.137-6.856-.112-10.284a17.755,17.755,0,0,1,.455-2.823A1.945,1.945,0,0,0,259.874,151.436Z" transform="translate(-50.594 -50.294)" fill="#311d48"/>
        <path id="Trazado_915118" data-name="Trazado 915118" d="M390.072,210.835c.156,2.9.287,5.809.467,8.707.368,5.8.642,11.611,1.184,17.4a26.19,26.19,0,0,0,2.811,9.742c2.2,4.2,2.487,8.775,2.443,13.344-.044,4.6-.6,9.193-.654,13.793-.075,6.083-2.792,11.381-4.693,16.921a1.166,1.166,0,0,1-.555.648c.673-1.945,1.259-3.927,2.038-5.827a29.462,29.462,0,0,0,2.518-9.692c.274-5.535.654-11.063.723-16.6a29.555,29.555,0,0,0-2.724-12.958,41.169,41.169,0,0,1-3.615-15.538c-.268-5.884-.287-11.786-.386-17.676a18.846,18.846,0,0,1,.231-2.281C389.929,210.823,390,210.829,390.072,210.835Z" transform="translate(-100.448 -72.683)" fill="#311d48"/>
        <path id="Trazado_915119" data-name="Trazado 915119" d="M320.72,163.149a3.357,3.357,0,0,1,2.618-2.113,26.663,26.663,0,0,1,3.384-.006,24.119,24.119,0,0,0,9.486-.661,1.306,1.306,0,0,1,1.078.268,3.8,3.8,0,0,1-1.047.71,30.817,30.817,0,0,1-4.662.916,7.6,7.6,0,0,0-3.447,1.19c-1.845,1.1-3.821,1.988-5.609,2.892-.137-1.3-.262-2.487-.393-3.746C321.655,162.787,321.281,162.931,320.72,163.149Z" transform="translate(-74.487 -53.667)" fill="#311d48"/>
        <path id="Trazado_915120" data-name="Trazado 915120" d="M402.511,242.287c-3.366-12.029-1.863-23.946.648-35.837.1.012.2.019.3.031-.262,1.807-.5,3.615-.8,5.416a87.643,87.643,0,0,0-1.452,19.932c.187,2.911.711,5.8,1.084,8.7C402.367,241.116,402.436,241.7,402.511,242.287Z" transform="translate(-104.566 -71.041)" fill="#311d48"/>
        <path id="Trazado_915121" data-name="Trazado 915121" d="M332.21,211.081a21.8,21.8,0,0,0,8.938-2.587c2.661-1.483,5.08-3.4,7.354-4.955C347.255,207.728,336.473,212.11,332.21,211.081Z" transform="translate(-78.816 -69.944)" fill="#311d48"/>
        <path id="Trazado_915122" data-name="Trazado 915122" d="M333.106,158.987c-4.126-.667-8.2-.717-12.316,1C321.812,157.8,329.5,157.285,333.106,158.987Z" transform="translate(-74.514 -52.777)" fill="#311d48"/>
        <path id="Trazado_915123" data-name="Trazado 915123" d="M204.91,473.377c3.646-1.932,7.086-3.758,10.539-5.566a6.146,6.146,0,0,1,1.539-.555c.661-.143.922.2.6.792-.293.548-.742,1-1.053,1.546q-2.879,4.955-5.728,9.935c-.524.91-1.053,1.82-1.664,2.686.573-2.655,2.181-4.818,3.484-7.105,1.328-2.331,2.8-4.581,4.388-7.142a12.665,12.665,0,0,0-1.3.623q-6.815,4.338-13.612,8.694c-.7.449-1.452,1.284-2.25.405-.773-.854.019-1.62.567-2.244a92.563,92.563,0,0,1,16.448-14.559c.318-.224.642-.442.954-.673.05-.037.062-.137.125-.274-3.341.561-6.631,1.141-9.928,1.658-1.7.268-3.4.449-5.111.617-.773.075-1.7.156-1.895-.885-.193-1,.654-1.384,1.4-1.583,2.412-.642,4.824-1.3,7.273-1.77,7.055-1.346,14.111-2.692,20.9-5.117,1.5-.536,2.967-1.2,4.475-1.733a3.7,3.7,0,0,1,1.278.031c-.206.405-.312,1.041-.636,1.184-3.222,1.377-6.457,2.724-9.729,3.983-1.409.542-2.9.86-4.332,1.458,1.814-.187,3.627-.38,5.441-.567.031.162.056.324.087.48a7.744,7.744,0,0,1-4.338,1.309c-.536,5.148-2.724,9.841-4.17,14.74-.835,2.842-1.795,5.653-2.692,8.476-.069.224-.075.53-.224.654a13.267,13.267,0,0,1-1.315.86c-.224-.48-.711-1.01-.636-1.434a23.267,23.267,0,0,1,1.072-3.7c2.063-5.647,4.157-11.275,6.239-16.915.131-.355.218-.723.405-1.377-1.814.922-3.59,1.471-4.911,2.562-3.752,3.11-7.323,6.438-10.957,9.692A5.713,5.713,0,0,0,204.91,473.377Z" transform="translate(-28.831 -163.2)" fill="#311d48"/>
        <path id="Trazado_915124" data-name="Trazado 915124" d="M231.578,188c-.835.586-1.8,1.178-2.674,1.888a7.057,7.057,0,0,1-4.419,1.633,16.052,16.052,0,0,1-6.98-1.172,9.305,9.305,0,0,1-1.153-.773c-.586-.374-1.2-.723-1.77-1.116a8.015,8.015,0,0,1-.792-.735,5.549,5.549,0,0,1,.723-.6c1.3-.779,2.605-1.533,3.914-2.294a2.857,2.857,0,0,1,2.674-.206,4.746,4.746,0,0,0,3.758-.025,3.082,3.082,0,0,1,3.179.6C229.309,186.11,230.493,187.138,231.578,188Zm-2.368.53H216.632c-.019.131-.037.256-.05.386,1.963,1.558,4.4,1.571,6.744,1.882A6.564,6.564,0,0,0,229.209,188.534Zm-13.793-1.153c.062.168.131.343.193.511,1.228-.312,2.449-.667,3.69-.922a4.96,4.96,0,0,1,1.888-.094c1.377.256,2.7.623,4.113.012a3.547,3.547,0,0,1,1.97.05,11.948,11.948,0,0,1,1.882.723c.075-.125.143-.243.218-.368a19.868,19.868,0,0,0-2.5-1.988,2.512,2.512,0,0,0-1.87-.218,7.046,7.046,0,0,1-4.244.012,2.117,2.117,0,0,0-1.359-.019C218.047,185.78,216.744,186.6,215.417,187.381Zm11.9.486c-1.116-.91-1.8-.829-2.817.237C225.445,188.023,226.274,187.955,227.315,187.867Zm-8.053.112c1.016.081,1.814.143,2.611.206C221.1,187.818,220.378,186.827,219.262,187.98Z" transform="translate(-34.202 -62.723)" fill="#311d48"/>
        <path id="Trazado_915125" data-name="Trazado 915125" d="M212.538,164.6a8.971,8.971,0,0,1-.742-.717c-.274-.324-.48-.717-.767-1.028-1.1-1.178-1.87-1.19-3.085-.025,1.2.467,2.381.916,3.559,1.371-4.244-.9-8.514-1.652-12.534-3.247l.15-.524c.33.093.667.168.985.287a5.327,5.327,0,0,0,3.764.156,7.969,7.969,0,0,1,6.357.467,7.794,7.794,0,0,1,2.68,2.911C212.781,164.371,212.657,164.483,212.538,164.6Z" transform="translate(-28.619 -53.699)" fill="#311d48"/>
        <path id="Trazado_915126" data-name="Trazado 915126" d="M232.136,176.2c-.218.393-.305.829-.567.985-2.493,1.515-5.036,2.58-7.791.573-.436-.318-1.4-.062-1.178-1.091a5.057,5.057,0,0,1,1.546.5,5.193,5.193,0,0,0,4.905.623A24,24,0,0,0,232.136,176.2Z" transform="translate(-37.509 -59.644)" fill="#311d48"/>
        <path id="Trazado_915127" data-name="Trazado 915127" d="M381.24,488.86a14.033,14.033,0,0,1-4.774,4.731c-.1-.112-.2-.218-.305-.33l5.1-4.375Z" transform="translate(-95.374 -177.437)" fill="#56735f"/>
        <path id="Trazado_915128" data-name="Trazado 915128" d="M230.9,191.05a6.579,6.579,0,0,1-5.884,2.269c-2.343-.312-4.787-.324-6.744-1.882.019-.131.037-.256.05-.386Z" transform="translate(-35.89 -65.239)" fill="#db7133"/>
        <path id="Trazado_915129" data-name="Trazado 915129" d="M216.4,187.742c1.328-.779,2.63-1.6,4-2.306a2.117,2.117,0,0,1,1.359.019,7.094,7.094,0,0,0,4.244-.012,2.512,2.512,0,0,1,1.87.218,21.581,21.581,0,0,1,2.5,1.988c-.075.125-.143.249-.218.368a11.943,11.943,0,0,0-1.882-.723,3.546,3.546,0,0,0-1.97-.05c-1.421.611-2.736.243-4.113-.012a4.96,4.96,0,0,0-1.888.093c-1.24.262-2.462.611-3.69.922C216.531,188.084,216.469,187.91,216.4,187.742Z" transform="translate(-35.186 -63.084)" fill="#db7133"/>
        <path id="Trazado_915130" data-name="Trazado 915130" d="M233.787,189.6c-1.041.087-1.87.156-2.817.237C231.986,188.773,232.672,188.7,233.787,189.6Z" transform="translate(-40.675 -64.458)" fill="#f9e381"/>
        <path id="Trazado_915131" data-name="Trazado 915131" d="M222.57,189.834c1.116-1.153,1.839-.156,2.611.206C224.384,189.971,223.586,189.915,222.57,189.834Z" transform="translate(-37.51 -64.577)" fill="#f9e381"/>
        <path id="Trazado_915132" data-name="Trazado 915132" d="M326.282,165.344l-2.188,1.153a2.686,2.686,0,0,1,0-2.58c.866-1.446,7.722-1.022,7.722-1.022S328.768,164.085,326.282,165.344Z" transform="translate(-75.63 -54.61)" fill="#fff"/>
        <path id="Trazado_915133" data-name="Trazado 915133" d="M217.35,164.787l-5.03-1.452s1.24-.324,1.24-1.109-.318-.785-.318-.785a9.751,9.751,0,0,1,2.78,1.452A18.533,18.533,0,0,1,217.35,164.787Z" transform="translate(-33.648 -54.084)" fill="#fff"/>
        <path id="Trazado_915134" data-name="Trazado 915134" d="M246.786,161.257l-4.3,1.564c-.461.168-4.12,1.328-4.126.8-.006-1.658,3.715-2.456,3.715-2.456a14.376,14.376,0,0,1,2.194-.436A8.833,8.833,0,0,1,246.786,161.257Z" transform="translate(-43.459 -53.813)" fill="#fff"/>
        <path id="Trazado_915135" data-name="Trazado 915135" d="M227.865,189.242a2.761,2.761,0,0,1-1.577.374,19.785,19.785,0,0,1-2.9-.243c-.287-.1.405-.337-1.01-.125a3.92,3.92,0,0,0-1.764.517s5.011.374,5.821.318,4.444-.318,4.444-.318S230.084,189,227.865,189.242Z" transform="translate(-36.772 -64.528)" fill="#fff"/>
        <path id="Trazado_915136" data-name="Trazado 915136" d="M144.35,129.989l58.405-81.6c-1.733-.393-3.44-.922-5.217-1.471-3.191-.985-6.5-1.508-9.729-2.375L145.173,104.1c.916,3.372.449,7.76.349,10.365C145.329,119.649,144.979,124.847,144.35,129.989Z" transform="translate(-8.041 -10.042)" fill="#fff" opacity="0.49"/>
        <path id="Trazado_915137" data-name="Trazado 915137" d="M238.485,61.24c-2.069-.1-3.97-.935-6.089-1.328a4.318,4.318,0,0,1-.947-.293c-.069,0-.131.006-.2.006L145.8,179.005c.006.1.012.2.012.305v11.406Z" transform="translate(-8.588 -15.724)" fill="#fff" opacity="0.49"/>
        <path id="Trazado_915138" data-name="Trazado 915138" d="M260.723,77.231c-.9-2.437-1.539-4.78-4.082-6.021L145.42,226.588v11.723Z" transform="translate(-8.444 -20.09)" fill="#fff" opacity="0.49"/>
        <path id="Trazado_915139" data-name="Trazado 915139" d="M324.442,163.4c.187-.044,1.352.586,1.352,1.309s.094,1.29-.28,1.446-1.7,1.016-1.7,1.016a8.272,8.272,0,0,1-.312-2.668A3.516,3.516,0,0,1,324.442,163.4Z" transform="translate(-75.517 -54.821)" fill="#311d48"/>
        <ellipse id="Elipse_5735" data-name="Elipse 5735" cx="0.299" cy="0.418" rx="0.299" ry="0.418" transform="translate(248.894 109.22)" fill="#fff"/>
        <path id="Trazado_915140" data-name="Trazado 915140" d="M210.545,162.932l.561.829-7.236-1.627s2.481-.673,3.017-.76a8.154,8.154,0,0,1,3.447.125C211.081,161.892,210.545,162.932,210.545,162.932Z" transform="translate(-30.465 -54.012)" fill="#fff"/>
        <path id="Trazado_915141" data-name="Trazado 915141" d="M208.98,161.2s.093,1.583,1.091,1.751a18.756,18.756,0,0,1,1.876.424s2.181-.012,2.206-1.084-3.091-1.421-3.091-1.421Z" transform="translate(-32.39 -53.869)" fill="#311d48"/>
        <path id="Trazado_915142" data-name="Trazado 915142" d="M244.8,162.377l-2.456.76s-2,0-1.658-1.3c.318-1.2,4.276-1.415,4.276-1.415S246.3,161.037,244.8,162.377Z" transform="translate(-44.32 -53.699)" fill="#311d48"/>
        <ellipse id="Elipse_5736" data-name="Elipse 5736" cx="0.524" cy="0.443" rx="0.524" ry="0.443" transform="translate(196.765 107.955)" fill="#fff"/>
        <ellipse id="Elipse_5737" data-name="Elipse 5737" cx="0.524" cy="0.443" rx="0.524" ry="0.443" transform="translate(177.194 107.444)" fill="#fff"/>
      </g>
    </g>
  </g>
</svg>
