<svg xmlns="http://www.w3.org/2000/svg" xmlns:xlink="http://www.w3.org/1999/xlink" width="213.812" height="494.574" viewBox="0 0 213.812 494.574">
  <defs>
    <clipPath id="clip-path">
      <rect id="Rectángulo_415303" data-name="Rectángulo 415303" width="213.812" height="494.575" transform="translate(22.292 -0.001)" fill="#fff" stroke="#707070" stroke-width="1" opacity="0.84"/>
    </clipPath>
  </defs>
  <g id="Enmascarar_grupo_1079218" data-name="Enmascarar grupo 1079218" transform="translate(-22.292 0.002)" clip-path="url(#clip-path)">
    <g id="Grupo_1135217" data-name="Grupo 1135217" transform="translate(22.292 -0.001)">
      <g id="Grupo_1135216" data-name="Grupo 1135216">
        <path id="Trazado_935621" data-name="Trazado 935621" d="M581.649,289.455s3.761-.131,4.232-2.168,1.437-6.269.575-7.392-.131,3.735-4.624,4.31-4.467-.522-7.131,0-6.008,1.828-7.445.444c-1.436-1.411-5.146-6.008-6.87-4.806s-.261,7.1.966,8.541,2.142,4.179,8.489,3.344a87.135,87.135,0,0,0,11.728-2.4Z" transform="translate(-376.136 -84.258)" fill="#efb36b"/>
        <g id="Grupo_1135215" data-name="Grupo 1135215">
          <path id="Trazado_935622" data-name="Trazado 935622" d="M584.861,247.285s-1.907,5.538-1.828,7.836.47,5.172.966,5.094,1.437-2.4,1.437-3.97-.627-9.195-.627-9.195" transform="translate(-435.978 -136.802)" fill="#ffed00"/>
          <path id="Trazado_935623" data-name="Trazado 935623" d="M625.621,339.027c4.937-.392,9.874-.731,14.941-1.1.653,2.56,2.482,4.232,4.467,5.8a6.738,6.738,0,0,1,2.508,4.963,72.692,72.692,0,0,0,1.489,9.508c.392,1.7,1.489,3.213,2.22,4.832a22.139,22.139,0,0,1,.732,2.09c-.183.131-.366.261-.522.392a8.375,8.375,0,0,1-2.038-1.437,23.591,23.591,0,0,1-2.325-3.6,22.579,22.579,0,0,0-6.373-7.836,9.279,9.279,0,0,1-1.724-2.325l-.392.078c.1.653.261,1.306.34,1.959a6.248,6.248,0,0,1,.1,1.7,49.13,49.13,0,0,1-5.538,14.863c-2.09,3.918-1.41,8.124.183,12.094,1.332,3.344,2.429,6.844,4.676,9.743a2.7,2.7,0,0,1,.418,1.75c-1.7-1.62-3.448-3.213-5.094-4.911a7.215,7.215,0,0,1-1.228-2.194c-1.306-2.926-2.429-5.956-3.918-8.8-1.149-2.194-1.2-4.545-1.7-6.844-1.959-8.933-1.463-17.945-.914-26.983a6.321,6.321,0,0,0-.052-1.724c-.078-.366-.5-.94-.705-.914a1.554,1.554,0,0,0-1.123.731,3.744,3.744,0,0,0-.235.705,8.373,8.373,0,0,1-.078-1.411,2.765,2.765,0,0,0,.705-.47A2.311,2.311,0,0,1,625.621,339.027Z" transform="translate(-608.858 9.705)" fill="#efb36b"/>
          <path id="Trazado_935624" data-name="Trazado 935624" d="M657.75,656.439c3.03.157,5.93.313,8.986.47.052.81.131,1.672.183,2.56a30.021,30.021,0,0,1-1.1,10.422c-1.75,6.452-3.239,12.982-2.821,19.8a187.062,187.062,0,0,0,2.586,23.169,154.186,154.186,0,0,1,2.769,34.663c-.183,4.362-.705,8.724-1.123,13.087a6.221,6.221,0,0,1-.757,1.959c-.705,1.541-1.515,3.03-2.194,4.571-.81,1.881-1.437,3.814-2.325,5.668-1.593,3.37-1.541,6.844-.966,10.37a58.528,58.528,0,0,0,2.664,9.508c2.038,6.139,3.657,12.434,2.769,19.042a3.147,3.147,0,0,0,4.388,3.317,1.983,1.983,0,0,0,.81-1.489c.078-1.567-.1-3.135,0-4.676.209-2.795.627-5.564.888-8.359.131-1.28.183-2.586.261-4.179.862,1.1,1.541,2.064,2.273,2.952a20.644,20.644,0,0,1,4.911,10.422c.705,5.25,3.709,8.124,8.385,10.083,8.254,3.422,16.456,2.952,24.815.653,3.788-1.045,6.06-6.844,2.22-9.874a12.032,12.032,0,0,0-7.236-2.717c-1.306-.052-2.717.131-3.291-1.567-.1-.287-.5-.522-.758-.732-4.075-3.056-6.164-7.418-7.784-12.068-1.41-4.049-1.567-8.306-1.933-12.512-.47-5.511-.993-11.049-1.646-16.535-.47-3.97-1.541-7.888-1.776-11.859-.758-12.277,1.515-24.188,5.224-35.838a266.609,266.609,0,0,0,8.28-31.136,169.749,169.749,0,0,0,2.821-24.057,54.658,54.658,0,0,1,3.291-16.221,213.334,213.334,0,0,0,8.1-30.379c2.037-10.109,4.675-20.087,6.974-30.117,1.933-8.385,3.4-16.848,3.317-25.468-.052-4.676-.653-9.351-1.071-14.027-.235-2.56-.6-5.12-.862-7.68a1.206,1.206,0,0,1,.235-.836c3.135-3.788,3.448-8.306,3.317-12.93a39.8,39.8,0,0,0-3.761-15.385,3.883,3.883,0,0,1-.444-1.646c.287-5.224-1.437-10.03-3.03-14.837-.757-2.3-1.933-4.493-2.978-6.9a3.36,3.36,0,0,1,.627.392c3.553,3.109,7.863,4.075,12.381,4.859a15.069,15.069,0,0,0,9.351-1.175,13.252,13.252,0,0,0,8.045-12.016c.131-2.011.287-4.023.6-6.008a10.893,10.893,0,0,1,1.071-3c1.646-3.317,3.4-6.582,5.015-9.926,3.814-7.941,5.068-16.221,2.926-24.893a4.381,4.381,0,0,1,.209-2.717,5.667,5.667,0,0,0,.052-4.78c-.549-1.306-.888-2.534.026-3.892a3.256,3.256,0,0,0,.287-1.959,20.026,20.026,0,0,0-2.508-8.1c2.011-.366,4-.836,6.034-1.071,2.821-.313,4.859-2.142,4.205-5.276a7.46,7.46,0,0,1-.026-1.541,24.79,24.79,0,0,1-1.541,3.239,3.446,3.446,0,0,1-1.672,1.567c-4.414,1.019-8.777,2.586-13.426,2.22-1.88-.157-3.787-.235-5.381-1.358a4.807,4.807,0,0,1-1.384-1.672,24.714,24.714,0,0,0-1.489-3.135,5.037,5.037,0,0,1-.705-3.787c1.881,1.463,3.761,2.873,5.59,4.336a4.8,4.8,0,0,0,4.989.993,19.654,19.654,0,0,1,8.071-.993A7.248,7.248,0,0,0,767.9,402.8a5.313,5.313,0,0,0,1.411-3.343c-.1-1.593.548-2.847.836-4.258a30.912,30.912,0,0,0,.078-5.825c0-.366-.078-.81.1-1.071a8.232,8.232,0,0,0,1.149-8.568,16.626,16.626,0,0,1-1.019-2.9,3.5,3.5,0,0,0-3-2.664c-3-.679-6.008-1.332-8.959-2.168-3.6-1.019-6.165-3.291-5.59-8.751.34-3.161.705-6.3,1.019-9.456a12.009,12.009,0,0,0-.94-7.079,5.844,5.844,0,0,0-3.5-3.134c-1.907-.6-3.317,0-3.709,1.933a74.971,74.971,0,0,0-1.332,9.012A27.839,27.839,0,0,1,741,366.679c-.6,1.045-1.071,2.168-1.672,3.213-2.351,4.153-2.455,8.515-1.2,12.982a2.4,2.4,0,0,1-.287,2.09c-1.855,3.187-1.646,6.609-.888,10.03a2.884,2.884,0,0,1-.549,2.429c-1.228,1.855-2.246,3.84-3.108,5.329-1.593-3.082-3.343-6.661-5.25-10.161-1.018-1.881-.81-3.918-1.018-5.877a14.5,14.5,0,0,0-4.493-9.064c-4.258-4.023-8.881-7.5-14.758-8.829-2.064-.47-2.142-.705-1.828-2.9.418-2.769-.026-3.814-2.664-4.754-3.344-1.2-6.791-2.168-10.187-3.239-.392-.131-.757-.235-1.228-.392a8.521,8.521,0,0,0,.287-8.254,6.741,6.741,0,0,0-7.1-4.023c.653-1.881,1.2-3.526,3.056-4.519a36.727,36.727,0,0,0,6.426-4.1,27.639,27.639,0,0,0,6.609-8.019c1.1-2.064,2.246-4.127,3.552-6.452a29.008,29.008,0,0,0-.235,3.422,5.859,5.859,0,0,0,.627,2.4,1.375,1.375,0,0,0,2.56,0,9.223,9.223,0,0,0,.993-3.683,36.947,36.947,0,0,0-.653-6.556c-1.28,3.187.235,6.687-1.384,9.8-1.463-3.683.34-7.1.705-10.684,2.4.836,3.735.078,4.075-2.429a8.535,8.535,0,0,1,2.743-5.329c2.064-1.907,2.3-4.571,2.586-7.131a29.359,29.359,0,0,0,.078-4.545c-.131-2.638-.757-3.317-3.552-3.866a12.793,12.793,0,0,0,3.866-7.1c.836-4.205,2.011-8.385,2.22-12.616a22.966,22.966,0,0,0-8.985-19.8,33.891,33.891,0,0,1-6.034-6.374c-2.873-3.866-6.739-6.165-10.892-8.2-.679-.34-1.41-.575-2.063-.888-.313-.157-.81-.47-.784-.705a2.782,2.782,0,0,1,.6-1.123c.078-.131.313-.183.47-.235,2.743-.653,4.232-2.664,5.433-4.989,1.411-2.769,3-5.433,2.873-8.777-.287-7.862-7.575-16.508-15.281-17.762a10.542,10.542,0,0,0-6.765,1.123,1.735,1.735,0,0,1-2.194-.078,2.7,2.7,0,0,0-1.489-.522c-6.008-.235-11.937.183-17.135,3.552a30.315,30.315,0,0,0-5.616,4.911c-1.541,1.646-1.332,2.873.1,4.65-.209.157-.392.366-.6.5-4.231,2.455-5.538,6.5-5.773,11a77.67,77.67,0,0,0,.157,8.176,5.831,5.831,0,0,0,2.926,4.859,36.835,36.835,0,0,0,5.067,2.246,14.745,14.745,0,0,0,1.646.418c-.6.287-.993.522-1.385.679a10.175,10.175,0,0,0-4.336,3.239c-2.978,3.448-5.956,6.9-9.09,10.213a17,17,0,0,0-4.65,11.389c-.026.5-.026.993-.078,1.463-.366,3.108-.914,6.243.993,9.273-3.03.392-4.1,2.455-4.78,4.78-.732,2.534-1.358,5.067-1.933,7.627a4.67,4.67,0,0,0,1.959,5.172,18.032,18.032,0,0,1,2.612,2.481,2.659,2.659,0,0,1,.366,1.332c.183,1.907-.235,4.127.6,5.668,1.593,2.925.575,5.564.13,8.333a10.844,10.844,0,0,0-.209,3.422,2.528,2.528,0,0,0,1.411,1.8,3.939,3.939,0,0,0,2.351-.81c.418-.235.627-.836.914-1.2a47.226,47.226,0,0,0,2.429,6.217,27.362,27.362,0,0,0,4.127,5.511,3.662,3.662,0,0,1,1.1,3.448c-.079.522-.157,1.045-.235,1.593-1.384.1-2.769.261-4.153.313-2.925.131-4.388,2.064-5.172,4.467a21.493,21.493,0,0,0-.47,9.821c.078.47-.078,1.254-.392,1.437-5.511,3.474-11.075,6.9-16.613,10.344-5.564,3.474-11.337,6.687-16.587,10.579-4.623,3.422-8.15,7.889-7.81,14.288a3.439,3.439,0,0,1-.914,2.22,15.5,15.5,0,0,0-4.284,8.594c-.522,3.239-1.541,6.426-2.351,9.612-2.4,9.743-4.754,19.486-7.262,29.2a25.348,25.348,0,0,1-2.664,5.956c-4.388,7.758-6.321,16.169-6.739,25-.183,3.657-.34,7.34-.836,10.971a21.271,21.271,0,0,1-1.907,5.8,22.027,22.027,0,0,0-1.672,5.459,19.738,19.738,0,0,1-2.142,6.138,52.48,52.48,0,0,0-6.426,17.919c-1.332,9.273,0,18.1,4.78,26.226a25.5,25.5,0,0,0,4.258,4.937c.627.627.81.993.392,1.75-1.358,2.534-.94,3.631,1.672,4.833a5.407,5.407,0,0,1,1.228.966,1.939,1.939,0,0,0,2.873.026,2.436,2.436,0,0,1,1.2-.679c4.937-.392,9.874-.731,14.941-1.1.653,2.56,2.482,4.232,4.467,5.8a6.738,6.738,0,0,1,2.508,4.963,72.7,72.7,0,0,0,1.489,9.508c.392,1.7,1.489,3.213,2.22,4.832a22.073,22.073,0,0,1,.732,2.09c-.183.131-.366.261-.522.392a8.381,8.381,0,0,1-2.037-1.437,23.573,23.573,0,0,1-2.325-3.6,22.582,22.582,0,0,0-6.374-7.836,9.279,9.279,0,0,1-1.724-2.325l-.392.078c.1.653.261,1.306.339,1.959a6.237,6.237,0,0,1,.1,1.7,49.124,49.124,0,0,1-5.537,14.863c-2.09,3.918-1.411,8.124.183,12.094,1.332,3.344,2.429,6.844,4.676,9.743a2.7,2.7,0,0,1,.418,1.75c-1.7-1.619-3.448-3.213-5.094-4.911a7.212,7.212,0,0,1-1.228-2.194c-1.306-2.926-2.429-5.956-3.918-8.8-1.149-2.194-1.2-4.545-1.7-6.844-1.959-8.933-1.463-17.971-.914-26.983a6.326,6.326,0,0,0-.052-1.724c-.078-.366-.5-.94-.705-.914a1.552,1.552,0,0,0-1.123.732,6.93,6.93,0,0,0-.444,2.09,101.4,101.4,0,0,0,1.593,27.087,30.844,30.844,0,0,0,3.448,9.874c.993,1.75,1.567,3.709,2.534,5.459a23.636,23.636,0,0,0,2.847,4.127,33.327,33.327,0,0,0,3.683,3.5,5.861,5.861,0,0,0,1.7.732c.235-.679.784-1.437.627-2.011a17.354,17.354,0,0,0-1.463-3.265c-.157-.34-.366-.679-.6-1.123,1.332.758,2.508,1.437,3.683,2.064a4.344,4.344,0,0,0,1.384.47c.836.131,1.907.6,2.429-.444.5-.993-.34-1.672-.992-2.273-.679-.627-1.411-1.2-2.351-1.985a6.768,6.768,0,0,0,1.254-.1c.6-.209,1.175-.47,1.75-.705a8.149,8.149,0,0,0-.914-1.776c-.549-.653-1.332-1.071-1.855-1.724a41.673,41.673,0,0,1-6.582-11.754,1.679,1.679,0,0,1,.1-1.123,38.006,38.006,0,0,0,4.127-14.183,6.979,6.979,0,0,1,1.175,1.019c1.593,2.09,3.135,4.205,4.7,6.321a54.324,54.324,0,0,0,3.317,4.336c.784.836,1.907,1.463,3.135.6a2.683,2.683,0,0,0,.366-3.552c-2.873-4.388-3.5-9.3-3.37-14.366a8.077,8.077,0,0,0-2.769-6.269,40.845,40.845,0,0,1-3.422-3.918,1.271,1.271,0,0,1,.026-1.228c3-2.22,3.6-5.511,3.6-8.855a3.582,3.582,0,0,1,2.09-3.579,12.532,12.532,0,0,0,6.374-10.422,3.265,3.265,0,0,1,.078-.5c1.933.731,1.933,1.045,1.594,2.847a67.135,67.135,0,0,0-1.306,9.665c-.261,6.792-.5,13.583-.261,20.374a178.949,178.949,0,0,0,3.944,30.927c1.384,6.5,2.429,13.087,3.5,19.643,1.28,7.836,2.586,15.7,3.631,23.561.967,7.392,2.273,14.784,1.985,22.281-.157,4.232-.549,8.489-.784,12.721-.261,5.041-.574,10.083-.705,15.15-.34,11.676-.679,23.326-.836,35-.079,4.963.47,9.926.392,14.863-.1,5.9-.548,11.781-.992,17.684A48.883,48.883,0,0,1,614,760.766c-.627,2.481-2.011,4.78-2.665,7.262-1.828,6.948-3.578,13.9-5.093,20.9-.732,3.4-.836,6.922-1.28,10.37-.131.966-.418,1.907-.627,2.873-.418,1.855-1.175,3.4-3.187,4.075A5.246,5.246,0,0,0,599,807.809a20.854,20.854,0,0,0-5.381,10.318,5.683,5.683,0,0,0,3.918,6.739,19.888,19.888,0,0,0,5.381.94,110.641,110.641,0,0,0,11.78-.183,21.381,21.381,0,0,0,6.112-1.828,8.258,8.258,0,0,0,5.12-6.112c.34-1.358,1.071-2.638,1.515-3.97A22.714,22.714,0,0,0,628,811c.183-.758.157-1.724.627-2.246a13.343,13.343,0,0,0,3.161-9.142c.052-3.291.052-6.609.052-9.9,0-1.75-.052-3.474-.052-5.224,0-5.642-.157-11.284.1-16.9a41.386,41.386,0,0,1,1.646-8.071c2.821-11.127,7.444-21.68,10.971-32.573,2.168-6.687,4.519-13.348,6.374-20.139,1.045-3.892,1.071-8.045,1.881-12.016,1.437-7.079.705-14.288,1.646-21.367.627-4.676,1.8-9.273,2.743-13.9A16.57,16.57,0,0,1,657.75,656.439ZM643.723,288.865c1.593,1.1,3.213,2.194,4.963,3.37-.026.078-.13.47-.235.862-1.541-.026-2.847-.287-3.474-1.881a11.852,11.852,0,0,0-1.28-2.011c.13.993.235,2.011.418,3.422-.993-.392-2.142-.47-2.4-.993a44.636,44.636,0,0,1-2.063-5.485,3.534,3.534,0,0,1-.1-1.176c-.026-1.1.078-2.194-.026-3.291-.235-2.194-1.071-4.284-.5-6.609a35.031,35.031,0,0,0,.914-6.582,8.967,8.967,0,0,1,1.959-5.433c1.332-1.619,2.769-3.134,4.179-4.7,1.62-1.8,3.239-3.579,4.885-5.381-.026-.026-.052-.078-.078-.1-.392.261-.784.549-1.2.81-.078-.1-.157-.183-.235-.287a56.012,56.012,0,0,1,4.623-4.023,35.346,35.346,0,0,0,5.459-4.205c4.545-4.728,9.926-7.5,16.769-6.844,3.788.366,7.549.34,11.31,1.463a38.2,38.2,0,0,1,10.657,4.832,36.438,36.438,0,0,1,3.709,3.265c-.078.131-.183.235-.261.366-6.165-3.474-12.329-6.217-18.807-.862a.666.666,0,0,0,.627,0,17.7,17.7,0,0,1,11.441-.052,35.7,35.7,0,0,1,13.06,7.653,33.022,33.022,0,0,1,8.777,14.628,21.253,21.253,0,0,1,.366,8.463c-.94-7.262-3.161-13.766-9.09-18.52-5.642-4.545-11.911-7.575-19.251-8.15,3.108,1.619,6.3,3.108,9.43,4.676,7.68,3.814,13.975,8.907,16.561,17.579a28.573,28.573,0,0,1,1.411,10.683c-.392,4.519-3,7.68-6.478,10.292-.34.34-.705.653-1.045.993-1.123,2.534-3.239,1.646-5.224,1.489-.209-1.828-1.828-1.933-3.135-2.272-4.284-1.123-8.646-1.071-13.034-.993-2.142.052-4.336-.366-6.008,1.437-.392-.287-.705-.5-.993-.705.078-.679.157-1.306.235-1.933-.1-.026-.183-.078-.287-.1-.392.575-.757,1.123-1.175,1.724a12.972,12.972,0,0,0-8.176.627,3.221,3.221,0,0,0-2.664-2.455c-3.187-.784-6.4-1.567-9.612-2.22a38.6,38.6,0,0,0-4.231-.392c1.045-1.959,2.4-3.422,4.754-3.056a9.418,9.418,0,0,1,2.978,1.045c1.175.627,2.194,1.515,3.344,2.246a7.359,7.359,0,0,0,5.381.967c.366-.078.653-.6.993-.914-.339-.235-.705-.627-1.045-.653a7.163,7.163,0,0,1-4.362-2.09c-3.657-2.978-9.4-4.336-13.478,1.228a1.057,1.057,0,0,1-1.776.235,4.942,4.942,0,0,1-1.28-1.828,6.4,6.4,0,0,1,4.153-8.542,26.9,26.9,0,0,1,4.989-.836c6.191-.47,11.911-2.09,16.639-6.4,4.754-4.31,7.653-9.43,7.183-15.986a19.532,19.532,0,0,0-1.619-5.276c-.183-.444-.888-.705-1.411-1.123A24.348,24.348,0,0,1,681.7,253a12.822,12.822,0,0,1-.81,8.254,23.02,23.02,0,0,1-17.109,13.374c-2.09.444-4.258.418-6.347.862a24.607,24.607,0,0,0-6.321,1.907c-2.9,1.515-3.944,4.362-3.5,7.523.366,2.69,1.646,4.806,4.44,4.78-.966.418-2.194.993-3.787,1.7a17.911,17.911,0,0,1-2.246-2.142c-2.4-3.135-2.455-6.713-1.567-10.344,1.567-6.452,6.008-9.926,12.224-11.6a70.9,70.9,0,0,0,9.273-2.952c6.06-2.586,8.332-9.665,4.911-14.758a7.248,7.248,0,0,0,.444,1.463c1.489,3.4.862,6.426-1.489,9.221a11.151,11.151,0,0,1-5.694,3.578c-2.952.836-5.93,1.646-8.881,2.4C643.54,269.275,639.491,281.6,643.723,288.865Zm95.6,112.764a1.982,1.982,0,0,1-.026.392,12.614,12.614,0,0,0,11.154,14.654,9.491,9.491,0,0,0,7.262-1.907c.392,2.325,1.149,4.415.993,6.426a13.153,13.153,0,0,0,.653,5.067,5.027,5.027,0,0,1,.183,3.082,10.065,10.065,0,0,0-.679,4.858c.888,7.418-.757,14.366-3.97,21.027-1.933,3.97-3.866,7.941-5.747,11.937a6.079,6.079,0,0,0-.444,2.063c-.1,1.071-.026,2.194-.157,3.265-.157,1.332-.5,2.638-.679,3.944-.47,3.422-1.776,6.426-4.858,8.228a30.661,30.661,0,0,1-6.556,2.926,6.223,6.223,0,0,1-3.709-.522c-1.463-.575-2.69-1.75-4.153-2.3-2.508-.914-4.441-2.246-5.015-5.015a1.85,1.85,0,0,0-.287-.548c-.052,0-.078.026-.131.026.157.836.314,1.646.549,2.743a35.452,35.452,0,0,1-6.347-6.687,6.978,6.978,0,0,1-1.489-5.355c.261-2.56.392-5.172-.784-7.523-1.855-3.657-1.515-6.87.313-10.605,4.414-8.986,4.362-18.572,2.508-28.185-1.358-7.079-4.415-13.557-7.889-19.826-.888-1.619-1.75-3.108-.392-4.832a1.586,1.586,0,0,0,.157-.5,9.855,9.855,0,0,0-.81-7.157c-1.149-2.246-2.351-4.493-4.493-6.034-.313-.235-1.149-.287-1.28-.1a1.693,1.693,0,0,0-.157,1.411,8.274,8.274,0,0,0,1.515,2.037,2.665,2.665,0,0,1,.34,3.422c-.705,1.306-.392,2.09,1.045,2.455a10.3,10.3,0,0,0,1.332.209,21.9,21.9,0,0,1-.679,2.925,21.192,21.192,0,0,1-1.41,2.455,4.233,4.233,0,0,0,.1,4.467c.706,1.123,1.619,2.116,2.4,3.213a3.668,3.668,0,0,1,.679,1.489c.131.862.366,1.411,1.332,1.515.313.026.705.47.836.81,1.176,3.239,2.508,6.4,3.369,9.717,1.463,5.747,2.3,11.6.523,17.449-1.254,4.127-2.664,8.228-4.023,12.329a15.269,15.269,0,0,0,.653,12.329,15.336,15.336,0,0,1,1.071,5.172c.183,1.776-.1,3.6.209,5.355a42.931,42.931,0,0,0,5.355,13.635,49.292,49.292,0,0,1,4.832,12.852,1.8,1.8,0,0,1,.052,1.045c-.705,1.489-.052,2.795.47,4.1.679,1.75,1.436,3.448,2.142,5.2a33.3,33.3,0,0,1,2.194,18.65c-.418,2.325-1.1,4.832-3.37,5.982a99.3,99.3,0,0,1-11.833,5.224,62.472,62.472,0,0,1-32.782,2.246c-5.773-1.1-11.362-1.411-16.979.758a15.479,15.479,0,0,1-10.135.392c-5.329-1.593-10-4.441-14.576-7.5a78.826,78.826,0,0,0-7.627-4.911c-2.064-1.071-4.388-2.194-6.791-1.567-4.7,1.254-8.933,0-13.034-2.064-2.978-1.489-4.571-3.788-3.97-7.288q1.175-6.857,2.3-13.714a1.082,1.082,0,0,1,.183-.287c.34.157.627.287.888.392.47-1.384.914-2.69,1.332-3.97.94-2.821,1.672-5.773,2.873-8.489,2.351-5.3,2.508-10.814,2.037-16.43-.287-3.37-.574-6.739-.784-10.135-.261-4.1-.34-8.2-.627-12.3-.183-2.455-.679-4.963,1.045-7.079a5.417,5.417,0,0,0,1.045-5.276c-.235-.862-.444-1.724-.757-2.56a41.57,41.57,0,0,1-.653-25.7c1.567-5.433,3.526-10.762,5.224-16.143a17.861,17.861,0,0,0,.679-3.892c.026-.287-.6-.627-.94-.94a8.213,8.213,0,0,0-.575.862c-.157.261-.235.575-.392.862-3.579,6.034-5.433,12.695-6.974,19.46-1.332,5.929-2.142,11.911-.914,17.945.705,3.579,1.8,7.079,2.821,10.579a5.27,5.27,0,0,1-.261,4.258,10.72,10.72,0,0,0-1.1,6.374c.47,4.858.966,9.691.418,14.576a58.477,58.477,0,0,0-.235,6.426c0,2.821.339,5.642.131,8.437a25.558,25.558,0,0,1-1.489,7c-1.567,4.127-3.474,8.124-5.25,12.172a71.34,71.34,0,0,0-3.239,7.6c-1.019,3.4-.993,7.027-2.22,10.422-.574,1.567-.366,3.448-.392,5.2-.078,4-1.411,7.34-4.858,9.612-1.045.679-2.22,1.176-3.239,1.881-.94.653-2.168.1-3,.914-.052.052-.183.026-.261,0-2.116-.705-3.918.392-5.825.967-1.567.47-3.134.966-4.728,1.436a27.5,27.5,0,0,0-4.179,1.2c-2.717,1.358-3.108,1.384-5.224-.758a10.481,10.481,0,0,1-.888-.993c-5.956-7.784-7.784-16.613-6.583-26.173a45.823,45.823,0,0,1,5.3-15.777,22.516,22.516,0,0,0,2.377-7.209,10.725,10.725,0,0,1,1.437-3.944c1.489-2.4,2.926-4.832,3.291-7.68.313-2.4.47-4.806.574-7.209.261-5.747.34-11.519,1.672-17.187,0-.052.078-.078.157-.131.052.34.1.679.157.914.549-1.2.993-2.455,1.646-3.6.653-1.175,1.776-2.142,2.22-3.37a147.006,147.006,0,0,0,4.832-14.6c2.063-8.62,3.631-17.37,5.433-26.069.653-3.135,1.567-6.243,2.09-9.4a8.66,8.66,0,0,1,3.709-6.243,5.66,5.66,0,0,0,2.716-5.2c-.157-4.885,2.325-8.515,5.9-11.336,3.6-2.847,7.5-5.329,11.31-7.888,6.06-4.049,12.146-8.019,18.232-12.016.993-.653,2.037-1.176,3.135-1.8a10.593,10.593,0,0,0,.679,1.567,31.5,31.5,0,0,0,2.3,3.239,1.088,1.088,0,0,0,1.829-.078c-.6-1.437-1.254-2.795-1.75-4.232a24.652,24.652,0,0,1-1.28-11.99,2.435,2.435,0,0,1,1.8-2.194c.914,1.8,1.8,3.474,2.534,4.885a7.181,7.181,0,0,1,1.332.366c2.508,1.28,5.041,2.508,7.471,3.866a31.4,31.4,0,0,0,15.7,3.761,41.671,41.671,0,0,1,6.269.261c4.545.758,8.332-.993,11.963-3.291a1.444,1.444,0,0,0-.261-2.664,24.914,24.914,0,0,0-2.508-.914c.627-.366.993-.758,1.385-.758,3.761-.183,6.165,3.657,4.467,7.236a16.21,16.21,0,0,1-1.776,2.508,1.883,1.883,0,0,0,.758,3.161c.183.078.366.209.549.287-.079.522-.157.94-.261,1.567.418-.47.653-.914,1.019-1.1.575-.287,1.332-.705,1.828-.548,3.317,1.071,6.556,2.3,9.874,3.4,2.482.862,2.508.81,2.038,3.422-.418,2.325.313,3.579,2.586,4.232,1.358.392,2.769.679,4.127,1.123a8.666,8.666,0,0,1,4.7,3.343c1.227,1.8,2.691,3.448,4.049,5.146a1.215,1.215,0,0,0,.183-.183c-.549-1.332-1.123-2.664-1.672-3.97a1.6,1.6,0,0,0,.366-.183c2.925,2.69,5.355,5.668,5.9,9.848a25.04,25.04,0,0,0,1.123,6.3c1.855,4.623,4,9.169,6.217,13.635.784,1.541.888,2.638-.209,4.049-3.892,5.067-4.858,10.553-1.828,16.43.053.078.053.183.1.261,1.41,2.743.914,5.041-1.2,7.314a31.276,31.276,0,0,0-7.784,14.34,81.152,81.152,0,0,0-1.959,9.978c-.758,6.844,1.1,12.8,6.373,17.553a3.326,3.326,0,0,0,3.108.966,7.609,7.609,0,0,1-1.28-1.306,23.834,23.834,0,0,0-1.593-3.161c-3.866-4.676-4.754-10.083-4-15.881,1.1-8.385,3.474-16.247,9.351-22.673a5.529,5.529,0,0,0,.966-5.93c-.5-1.384-1.045-2.743-1.62-4.127-2.142-5.25-.1-9.586,2.873-13.818.235.261.366.418.523.575.209-.94.418-1.8.6-2.638.1-.052.235-.1.339-.157.94,2.534,2.821,2.142,4.728,1.724-2.142-1.1-3.422-2.847-3.056-5.25a54.172,54.172,0,0,1,1.672-6.269h.653c.209.81.444,1.593.653,2.4a8.141,8.141,0,0,1,.209,1.149v-2.272a3.5,3.5,0,0,1,1.358,3.474A9.382,9.382,0,0,1,739.325,401.629ZM609.165,530.85c.6.261.81.366,1.019.444,4.336,1.907,8.75,3.108,13.478,1.437a2.228,2.228,0,0,1,1.306.026,21.486,21.486,0,0,1,8.228,4.049,63.423,63.423,0,0,0,11.519,7.549c6.661,3.631,13.478,4.493,20.61,1.515,3.448-1.437,6.948-1.28,10.527-.5a67.613,67.613,0,0,0,31.345-.1c4-.993,7.889-2.142,11.258-4.7,1.541-1.175,3.552-1.776,5.511-2.691v1.175c.131,3.265.157,6.53.392,9.769A93.582,93.582,0,0,1,723,574.863c-1.8,8.777-3.944,17.5-5.877,26.252-1.855,8.411-3.5,16.874-5.511,25.233-1.776,7.418-4.075,14.706-5.9,22.1-.47,1.854-1.045,2.664-3.03,2.873-2.873.287-5.668,1.385-8.542,1.567-6.06.366-12.146.392-18.232.444-4.571.052-9.142.131-13.687-.157-4.754-.313-9.482-1.071-14.236-1.567-8.437-.888-16.9-1.463-25.233-3.213-.784-.156-1.019-.444-1.045-1.2-.549-12.12-2.925-24.031-4.728-35.995-1.1-7.288-2.586-14.5-3.918-21.732-.5-2.717-.993-5.433-1.515-8.15-.339-1.776-.862-3.552-1.1-5.355-.34-2.664-.392-5.355-.731-8.019-1.175-9.639-2.377-19.277-1.672-28.994C608.224,536.257,608.773,533.645,609.165,530.85Zm95.419,122.324c-.157,1.306-.34,2.508-.444,3.683-.392,4.858-.6,9.717-1.149,14.575a199.42,199.42,0,0,1-6.008,30.562c-2.481,9.116-6.06,17.919-7.523,27.322-.784,4.989-1.907,9.926-1.646,15.02.13,2.507.418,4.989.679,7.471.261,2.534.549,5.067.888,7.575a40.188,40.188,0,0,0,1.254,7.366c.81,2.456-1.149,4.989.6,7.262.052.052,0,.183.026.261.183,2.455.209,4.911.549,7.366.549,3.97.784,7.993,2.064,11.885a30.011,30.011,0,0,0,6.347,11.467c-.261.183-.522.34-.758.522a7.412,7.412,0,0,1-8.071.261c-3.056-1.8-5.25-4.519-7.732-6.974a48.562,48.562,0,0,1-9.116-13.139A28.553,28.553,0,0,0,666,775.315a2.123,2.123,0,0,1-.914-2.9c1.149-2.612,2.508-5.12,3.683-7.706a32.036,32.036,0,0,0,2.3-5.773c.94-4.049.6-8.2.653-12.355a152.032,152.032,0,0,0-1.855-23.091c-.522-3.526-1.019-7.079-1.385-10.631-.549-5.459-.888-10.945-1.515-16.4a64.105,64.105,0,0,1,.574-18.833c.705-3.761,1.907-7.392,2.612-11.154.6-3.213.784-6.5,1.149-9.9a2.252,2.252,0,0,1,.5-.052q8.5-.392,17-.81a49.883,49.883,0,0,0,6.269-.444C698.211,654.741,701.319,653.905,704.584,653.174Zm-51.667,2.508a24.98,24.98,0,0,0-1.1,4.1c-.366,3.239-.679,6.5-.81,9.743-.261,7.157-.209,14.314-.6,21.445a72.648,72.648,0,0,1-3.918,21.106c-2.978,8.176-6.138,16.273-9.09,24.449-2.56,7.079-5.094,14.184-7.418,21.341-1.228,3.761-2.116,7.653-1.463,11.7a7.218,7.218,0,0,1-.026,1.985c-.261,2.325-.757,4.676-.81,7-.078,4.127.261,8.254.183,12.381a20.805,20.805,0,0,1-1.045,5.459c-.418,1.437-1.41,2.717-1.8,4.153a2.986,2.986,0,0,1-1.332,1.855c-1.724,1.123-3.422,2.273-5.172,3.317a13.054,13.054,0,0,1-12.93.784c.1-.575.183-1.1.261-1.619.705-3.761,1.7-7.47,2.09-11.258.575-5.59.966-11.154,3.056-16.482,1.7-4.336,2.873-8.907,4.258-13.374a68.3,68.3,0,0,0,2.925-17.318c.235-5.355.784-10.683.94-16.038.1-3.317-.47-6.661-.392-10,.183-8.541.522-17.083.888-25.6.235-5.616.627-11.258.967-16.874.366-5.877.862-11.781,1.149-17.658.157-2.978.026-5.982.026-9.273C632.125,653.931,642.547,654.01,652.917,655.682Zm-4.623-361.7c-.052.522-.052.967-.131,1.411-.444,3.082.209,4.1,3.135,5.094a52.753,52.753,0,0,0,14.079,2.325c3.918.235,4.65-.522,5.2-4.388a1.579,1.579,0,0,1,.548-1.071c2.325-1.228,4.728-1.881,7.314-.5-.079.392-.1.784-.209,1.149a18.143,18.143,0,0,0-.705,7.1c.1.758.1,1.541,1.149,1.437.209-3.056.418-6.06.6-9.064a4.658,4.658,0,0,1,.6-.052,4.991,4.991,0,0,1,.34,1.175c.052.94-.026,1.881,0,2.821a2.537,2.537,0,0,0,2.246,2.743c5.355,1.045,10.736,1.8,16.221,1.123a4.066,4.066,0,0,0,3.814-3.213c.313-1.149.574-2.325.862-3.552.993.052,1.907.131,2.638.183.314,1.463.627,2.769.94,4.205-1.7.888-1.489,2.429-1.071,4.1.522,2.011,0,2.534-1.959,1.985-1.123-.34-1.358.235-1.463,1.071-.235,2.011.784,3.37,3.03,4a30.589,30.589,0,0,1-1.228,3.37c-1.855,3.84-3.788,7.68-5.694,11.493-2.168,4.336-6.06,6.818-10.109,9.038-2.273,1.254-4.806,2.064-7.079,3.317-3.082,1.7-6.478,2.22-9.848,2.612-4.519.5-8.359-1.332-11.781-4.127-4.232-3.5-8.411-7.053-12.695-10.5-3.709-3-5.407-7.079-5.982-11.545-.522-4.023-.47-8.1-.627-12.146a9.035,9.035,0,0,1,.183-1.437c.078,0,.157.026.235.026.1.209.183.418.287.653.392-1.019.757-2.011,1.123-2.952.549.731,1.1,1.489,1.828,2.481-.757.5-1.541,1.019-2.272,1.515a2.134,2.134,0,0,0,3.187.078,2.375,2.375,0,0,0-.339-3.448c-1.1-.784-1.463-2.664-.5-3.552,1.541-1.384,2.691-2.847,2.116-5.2A18.625,18.625,0,0,1,648.294,293.985Zm11.127-81.079a4.321,4.321,0,0,0-2.821,2.743c-1.463,3.422-.705,6.582,1.384,9.43,1.463,1.985,3.161,3.761,4.728,5.642.34.392.6.862.914,1.28a23.565,23.565,0,0,1-10-11.389,4.694,4.694,0,0,1,.836-5.172,27.174,27.174,0,0,1,17.37-9.4,5.76,5.76,0,0,1,3.474.418,2.4,2.4,0,0,0,2.769.1,8.253,8.253,0,0,1,7.837-.026c6.582,3.108,10.03,8.463,11.18,15.437a7.2,7.2,0,0,1-.1,3.657,80.8,80.8,0,0,1-3.761,7.523,3.424,3.424,0,0,1-1.515,1.254c-1.359.705-2.508,1.541-2.691,3.187-.993.052-1.385-.34-1.8-1.2a7.847,7.847,0,0,0-2.508-3.317,19.3,19.3,0,0,0-12.642-3.056,68.384,68.384,0,0,0-7.183,1.724c-.914-1.254-1.907-2.638-2.873-4a50.452,50.452,0,0,1-3.082-4.362c-1.776-3-1.593-7.183.287-9.351-.444,4.023.94,8.672,3.448,11.154a7.941,7.941,0,0,0,2.142,1.123c.183-.679.366-1.384.523-2.064-.079-.026-.183-.052-.261-.078-.131.392-.287.784-.47,1.358A22.161,22.161,0,0,1,659.422,212.906Zm80.74,186.451c-.966-3.291-2.09-6.426-1.776-9.8a6.6,6.6,0,0,1,1.672-4.414,2.216,2.216,0,0,0,.287-1.724,16.258,16.258,0,0,0-.81-2.4,12.148,12.148,0,0,1,.339-9.508c.679-1.463,1.254-2.978,1.985-4.388a36.119,36.119,0,0,0,3.4-12.329c.34-3,.914-6.008,1.541-8.959.313-1.489,1.175-1.828,2.638-1.411a4.872,4.872,0,0,1,3,2.69,9.768,9.768,0,0,1,.731,6.034c-.5,3.239-1.959,6.269-1.62,9.691.209,2.168-.183,4.362-.026,6.556.1,1.672.235,3.474,1.646,4.754-.34-1.672-.679-3.291-1.019-4.937a8.01,8.01,0,0,0,4.127,3.6,30.244,30.244,0,0,0,4,1.123c2.273.444,4.6.731,6.87,1.123a2.655,2.655,0,0,1,2.377,2.194c.392,1.646,1.019,3.239,1.567,4.858,1.149,3.37.261,5.459-3.082,6.661-3.265,1.175-6.635,2.142-9.978,3.056a4.828,4.828,0,0,1-2.534-.34c-2.3-.731-4.545-1.593-6.818-2.351-.548-.183-1.175-.209-1.75-.34,1.41-.679,1.959-1.75,1.515-3.03a16.261,16.261,0,0,0-1.75-2.873c2.22-.313,4.127,1.045,6.191,1.75.784.261,1.437.914,2.22,1.2a1.6,1.6,0,0,0,1.358-.34c.183-.209-.026-.862-.157-1.28-.052-.209-.287-.366-.653-.836,2.142-.418,4-.784,5.956-1.175-.444-.209-.836-.392-1.332-.6.052-1.254.1-2.534.183-3.814l-.47-.078c-.339,1.332-.653,2.664-1.045,4.206h-3.657c.183.235.339.418.5.6-.026.131-.026.261-.052.366a8.365,8.365,0,0,1-2.168-.235,16.393,16.393,0,0,0-9.247-.287,2.208,2.208,0,0,0-1.855,2.9,6.664,6.664,0,0,1-.1,3.787,4.6,4.6,0,0,0,.627,4.1c-1.463,1.411-2.22,2.952-1.149,4.806A8.676,8.676,0,0,0,740.161,399.357ZM655.19,245.087c-2.116-1.515-4.179-2.952-6.217-4.467a5.37,5.37,0,0,1-2.011-3.944,34.8,34.8,0,0,1,.235-10.918,8.033,8.033,0,0,1,4.676-6.086,23.731,23.731,0,0,0,10.762,13.583,6.2,6.2,0,0,1-7,.679c-1.985-1.071-3.84-2.429-5.72-3.683-.575-.366-1.1-.784-1.646-1.175-.13.1-.235.209-.366.313.5.757.966,1.541,1.515,2.246,2.4,3,5.224,5.355,9.273,5.407C657.515,239.784,656.365,242.4,655.19,245.087Zm26.356,57.962c.078-1.045.1-1.75.183-2.455a38.5,38.5,0,0,1,.653-4.232,1.9,1.9,0,0,1,1.28-1.071,61.747,61.747,0,0,1,16.273.418,1.77,1.77,0,0,1,1.724,1.959,18.5,18.5,0,0,1-.235,3.187c-.444,3.37-.992,3.657-4.231,3.683-4.1.026-8.2-.392-12.277-.705A20.414,20.414,0,0,1,681.546,303.049Zm-32.155-7.732c.366-3.918.183-4.571,4.232-4.179h.261c4.284.6,8.568,1.1,12.825,1.855,2.142.366,2.769,1.567,2.429,3.735-.183,1.149-.523,2.272-.6,3.422-.1,1.175-.705,1.411-1.7,1.28-4.754-.679-9.534-1.28-14.288-2.116C649.731,298.818,649.443,298.217,649.391,295.317Zm119.817,94.453c-.157,1.567-.209,3.161-.47,4.728a3.146,3.146,0,0,1-1.071,1.8,9.1,9.1,0,0,1-5.12,2.142c-2.455.157-4.885.549-7.34.653a5.239,5.239,0,0,1-2.429-.731c-1.175-.575-2.3-1.306-3.448-1.985a28.7,28.7,0,0,1-4.284-2.664c-2.272-1.985-2.325-2.69-1.254-5.146,3.474,1.175,6.922,2.4,10.4,3.5a7.192,7.192,0,0,0,3.239.548C761.267,391.834,765.054,390.815,769.208,389.771Zm-.444,7.575c-.444,4.414-3.213,7.131-6.948,6.844a32.737,32.737,0,0,0-9.038.757,3.609,3.609,0,0,1-2.4-.366c-2.769-1.776-5.564-3.4-7.209-6.608-.836-1.646-.914-2.8.078-4.232a13.868,13.868,0,0,0,6.5,4.6,4.519,4.519,0,0,1,1.489.888,4.454,4.454,0,0,0,5.015,1.228,11.518,11.518,0,0,1,1.306-.261C761.293,399.514,765.342,400.323,768.763,397.346ZM652.708,339.8c-.261-.026-.81-.1-1.384-.183-.078.157-.131.313-.209.47a24.959,24.959,0,0,0,6.347,3.84,68.369,68.369,0,0,0,6.948,3.056,50.694,50.694,0,0,0,7.314,2.064c2.429.47,4.911.6,7.392.888-2.273.131-4.545.157-6.817.1-.967-.026-1.933-.209-3.134-.366,3.03,2.116,6.347,1.646,9.56,1.855a8.34,8.34,0,0,1-1.541.392,29.423,29.423,0,0,1-11-.522c-4.754-1.019-9.482-2.142-13.74-4.623a1.78,1.78,0,0,1-1.071-1.619c-.079-1.646-.313-3.265-.523-4.911-.13-.888-.34-1.776-.5-2.691.131-.052.287-.1.418-.157C651.429,338.26,652.108,339.07,652.708,339.8Zm63.239-40.226-.313.078c0,.575.052,1.175,0,1.75-.261,2.769-.966,5.407-3.213,7.235a6.241,6.241,0,0,0-2.455,4.258,7.836,7.836,0,0,1-.732,2.534,1.466,1.466,0,0,1-1.227.575c-.209,0-.549-.653-.627-1.019-.157-1.149-.209-2.3-.313-3.448-.183-1.881-.366-3.788-.549-5.668-.078-.758-.366-1.7.6-1.933,1.019-.261,1.28-.94,1.541-1.724.34-1.019.705-2.011,1.071-3.03a6.965,6.965,0,0,1,3-3.788c.888-.549,1.724-.549,2.116.418A22.294,22.294,0,0,1,715.947,299.575Zm-75.933-6.87c1.306,1.28,1.567,3.135,1.019,5.172-.078.313-.392.784-.627.81a1.136,1.136,0,0,1-.888-.575,8.9,8.9,0,0,1-.6-2.168c-.313-2.351-.5-4.7-.914-7.026-.131-.679-.992-1.7-1.515-1.7a2.821,2.821,0,0,0-2.011,1.358,8.009,8.009,0,0,0-.078,6.87,1.243,1.243,0,0,0,1.1.366c1.123-.392,1.1-1.332.94-2.351a8.687,8.687,0,0,1,.078-1.646h.627c.209,1.75.418,3.474.6,4.832-.81,1.019-1.436,1.776-2.037,2.508a11.958,11.958,0,0,0-1.463-1.175,3.8,3.8,0,0,1-2.011-4.31,83.754,83.754,0,0,1,2.9-8.986c.392-1.071,1.437-1.1,2.011-.052,1.1,2.011,2.011,4.127,2.925,6.243A11.608,11.608,0,0,1,640.014,292.705ZM582.7,549.761c-.131-1.672-.209-3.213-.418-4.754-.261-2.168.052-2.717,2.168-3.291,1.332-.366,2.691-1.149,3.814.078-.157,2.638-.313,5.146-.47,7.706C586.2,549.578,584.559,549.657,582.7,549.761ZM686.378,236.467c-.157.209-.34.444-.5.653-1.045-.5-2.09-.966-3.135-1.463a40.16,40.16,0,0,0-4.6-2.09c-3.735-1.149-7.418-.313-11.049.679a50.239,50.239,0,0,0-4.806,1.855A18.5,18.5,0,0,1,684,233.986,11.952,11.952,0,0,1,686.378,236.467Zm-4.937-.157c-8.829-1.1-16.456.81-22.908,6.739C660.936,236.467,675.773,231.9,681.442,236.31Zm-87.4,362.271c-2.168.522-3.761.47-4.911-1.176a7.4,7.4,0,0,1-1.019-1.411c-1.384-3.37-2.743-6.765-4.075-10.161-.052-.131.026-.287.026-.575C586.858,590.092,588.973,595.238,594.041,598.581Zm-10.684-8.333c.183-.078.339-.157.522-.235,1.646,5.694,5.485,9.691,10.083,13.113-2.742-.131-4.832-1.62-6.948-2.926-.653-.418-.862-1.567-1.228-2.4a32.188,32.188,0,0,1-1.254-3.108C584.089,593.252,583.749,591.737,583.357,590.249Zm10.971-49.264c.131,4.519-1.567,7.732-4.31,8.15q.2-3.683.392-7.288C591.742,541.559,593,541.3,594.328,540.985Zm-13.687,8.829c-2.011.5-2.037.5-2.586-1.228-.392-1.228-.627-2.508-1.019-3.735a1.154,1.154,0,0,1,.914-1.619c1.332-.313,2.716-.444,4.388-.705C580.354,544.8,580.667,547.384,580.641,549.813ZM638.473,307.62c-1.123-.209-1.567-.705-1.515-1.776.052-1.855.549-3.84-.992-5.485a1.946,1.946,0,0,1,.836.287,4.34,4.34,0,0,1,.6.366c.157-.862.287-1.7.418-2.534.967.705,1.7,1.254,2.56,1.855C639.778,302.579,639.125,305.087,638.473,307.62Zm105.607,77.553a4.767,4.767,0,0,1,.836-1.541c.574-.5,2.011.366,2.586,1.411.6,1.1.5,2.377-.235,2.795a1.574,1.574,0,0,1-.758.209C745.7,388.047,744.079,386.3,744.079,385.173ZM642.861,298.347c-.313-1.724-.6-3.37-.914-5.224.966.653,2.377-.392,2.873,1.149C645.473,296.284,643.88,297.146,642.861,298.347ZM575.208,546.392c.392,1.306.784,2.56,1.149,3.813-2.691.705-2.847.6-3.552-2.22C573.562,547.489,574.346,546.966,575.208,546.392ZM637.9,311.93c1.123,4.232.575,8.176-1.306,8.8C637.01,317.834,637.428,315.039,637.9,311.93Zm68.541-1.7a2.966,2.966,0,0,1,.287.287c-.5.549-.993,1.567-1.515,1.567-1.019.052-1.437-.914-1.567-1.855ZM701.11,818.624c.026-.026.052-.078.078-.1h9.351v.1Zm6.9-517.273c-.888-1.672-.522-2.664,1.019-2.664C708.685,299.575,708.372,300.411,708.006,301.351Z" transform="translate(-558.393 -204.843)" fill="#311d48"/>
          <path id="Trazado_935625" data-name="Trazado 935625" d="M740.907,317.241c-.078-.392-.13-.784-.209-1.149-.209-.81-.444-1.593-.653-2.4h-.653a52.847,52.847,0,0,0-1.672,6.269c-.366,2.4.914,4.153,3.056,5.25-1.881.418-3.761.81-4.728-1.724-.1.052-.235.1-.34.157-.183.836-.392,1.7-.6,2.638-.131-.157-.287-.313-.523-.575-2.978,4.206-5.015,8.568-2.873,13.818.549,1.358,1.123,2.717,1.62,4.127a5.588,5.588,0,0,1-.967,5.93c-5.877,6.426-8.254,14.288-9.351,22.673-.758,5.825.13,11.206,4,15.881a23.861,23.861,0,0,1,1.593,3.161,6.767,6.767,0,0,0,1.28,1.306,3.392,3.392,0,0,1-3.108-.966c-5.277-4.754-7.131-10.71-6.374-17.553a83.051,83.051,0,0,1,1.959-9.978,31.277,31.277,0,0,1,7.784-14.34c2.142-2.246,2.612-4.571,1.2-7.314-.052-.078-.052-.183-.1-.261-3.03-5.877-2.064-11.363,1.828-16.43,1.1-1.437.993-2.508.209-4.049-2.22-4.467-4.362-9.012-6.217-13.635-.783-1.933-.836-4.179-1.123-6.3-.549-4.179-2.978-7.157-5.9-9.848a1.594,1.594,0,0,0-.366.183c.549,1.332,1.123,2.664,1.672,3.97a1.2,1.2,0,0,0-.183.183c-1.358-1.7-2.821-3.344-4.049-5.146a8.533,8.533,0,0,0-4.7-3.344c-1.358-.444-2.769-.731-4.127-1.123-2.273-.653-3-1.907-2.586-4.232.47-2.586.47-2.56-2.038-3.422-3.291-1.123-6.556-2.351-9.874-3.4-.523-.157-1.28.261-1.829.548-.366.183-.6.627-1.019,1.1.1-.627.183-1.045.261-1.567a3.63,3.63,0,0,0-.548-.287c-1.437-.679-1.724-1.828-.758-3.161a16.2,16.2,0,0,0,1.776-2.508c1.7-3.579-.705-7.444-4.467-7.235-.392.026-.757.418-1.384.758a22.7,22.7,0,0,1,2.508.914c1.228.627,1.41,1.959.261,2.664-3.631,2.273-7.418,4.049-11.964,3.291a41.67,41.67,0,0,0-6.269-.261,31.614,31.614,0,0,1-15.7-3.761c-2.455-1.384-4.963-2.612-7.471-3.866a9.043,9.043,0,0,0-1.332-.366c-.731-1.411-1.593-3.108-2.534-4.885a2.432,2.432,0,0,0-1.8,2.194,24.967,24.967,0,0,0,1.28,11.99c.5,1.437,1.149,2.795,1.75,4.232a1.113,1.113,0,0,1-1.828.078,34.637,34.637,0,0,1-2.3-3.239,10.6,10.6,0,0,1-.679-1.567c-1.1.627-2.142,1.175-3.135,1.8-6.086,4-12.172,7.967-18.232,12.016-3.814,2.56-7.706,5.041-11.31,7.889-3.579,2.821-6.06,6.452-5.9,11.336a5.608,5.608,0,0,1-2.716,5.2,8.66,8.66,0,0,0-3.709,6.243c-.523,3.161-1.437,6.269-2.09,9.4-1.8,8.7-3.369,17.449-5.433,26.069a140.491,140.491,0,0,1-4.833,14.6c-.444,1.228-1.567,2.194-2.22,3.37a37.268,37.268,0,0,0-1.646,3.6c-.052-.235-.1-.575-.157-.914-.052.052-.157.078-.157.131-1.306,5.642-1.411,11.415-1.672,17.188-.1,2.4-.287,4.832-.575,7.209-.366,2.847-1.8,5.276-3.291,7.68a10.715,10.715,0,0,0-1.437,3.944,21.9,21.9,0,0,1-2.377,7.209,45.833,45.833,0,0,0-5.3,15.777c-1.228,9.56.6,18.389,6.583,26.173a8.043,8.043,0,0,0,.888.993c2.116,2.142,2.508,2.09,5.224.758a24.1,24.1,0,0,1,4.179-1.2c1.567-.47,3.161-.966,4.728-1.437,1.907-.575,3.709-1.672,5.825-.966a.44.44,0,0,0,.261,0c.862-.81,2.09-.261,3-.914,1.019-.705,2.194-1.175,3.239-1.881,3.448-2.273,4.78-5.616,4.858-9.613a17.093,17.093,0,0,1,.392-5.2c1.228-3.4,1.2-7.027,2.22-10.422a69.166,69.166,0,0,1,3.239-7.6c1.776-4.049,3.683-8.045,5.25-12.172a24.825,24.825,0,0,0,1.489-7c.209-2.8-.131-5.616-.131-8.437a58.641,58.641,0,0,1,.235-6.426c.574-4.885.052-9.743-.418-14.575a10.923,10.923,0,0,1,1.1-6.374,5.27,5.27,0,0,0,.261-4.258c-1.019-3.5-2.09-7-2.821-10.579-1.2-6.034-.418-12.016.914-17.945,1.541-6.765,3.4-13.426,6.974-19.46.157-.261.235-.575.392-.862.183-.313.392-.575.575-.862.34.313.966.653.94.94a19.593,19.593,0,0,1-.679,3.892c-1.7,5.381-3.657,10.71-5.224,16.143a41.762,41.762,0,0,0,.653,25.7c.287.836.5,1.724.758,2.56a5.482,5.482,0,0,1-1.045,5.276c-1.724,2.116-1.228,4.623-1.045,7.079.287,4.1.392,8.2.627,12.3.209,3.37.5,6.765.784,10.135.47,5.616.313,11.128-2.038,16.43-1.2,2.717-1.933,5.642-2.873,8.489-.418,1.306-.862,2.586-1.332,3.97-.261-.1-.549-.235-.888-.392-.052.1-.183.183-.183.287q-1.136,6.857-2.3,13.713c-.6,3.474.993,5.8,3.97,7.288,4.127,2.037,8.333,3.291,13.034,2.063,2.4-.627,4.728.5,6.792,1.567a90.1,90.1,0,0,1,7.627,4.911c4.571,3.082,9.247,5.93,14.576,7.5a15.48,15.48,0,0,0,10.135-.392c5.616-2.168,11.206-1.855,16.979-.758a62.471,62.471,0,0,0,32.781-2.246,97.463,97.463,0,0,0,11.833-5.224c2.272-1.149,2.952-3.657,3.37-5.982a33.3,33.3,0,0,0-2.194-18.65c-.705-1.75-1.463-3.448-2.142-5.2-.522-1.306-1.2-2.612-.47-4.1a1.806,1.806,0,0,0-.052-1.045,49.3,49.3,0,0,0-4.833-12.852,42.938,42.938,0,0,1-5.355-13.635c-.313-1.724,0-3.579-.209-5.355a15.35,15.35,0,0,0-1.071-5.172,15.269,15.269,0,0,1-.653-12.329c1.358-4.1,2.769-8.2,4.023-12.329,1.776-5.851.94-11.7-.522-17.449a99.371,99.371,0,0,0-3.37-9.717c-.131-.34-.523-.784-.836-.81-.993-.1-1.228-.679-1.332-1.515a3.669,3.669,0,0,0-.679-1.489c-.783-1.1-1.7-2.064-2.4-3.213a4.233,4.233,0,0,1-.1-4.467,25.832,25.832,0,0,0,1.411-2.455,21.954,21.954,0,0,0,.679-2.925,9.6,9.6,0,0,1-1.332-.209c-1.41-.366-1.75-1.149-1.045-2.455a2.631,2.631,0,0,0-.34-3.422,9,9,0,0,1-1.515-2.037,1.6,1.6,0,0,1,.157-1.411c.13-.183.966-.131,1.28.1,2.116,1.515,3.344,3.761,4.493,6.034a10,10,0,0,1,.81,7.157,1.393,1.393,0,0,1-.157.5c-1.358,1.75-.5,3.239.392,4.832,3.474,6.269,6.531,12.721,7.889,19.826,1.855,9.612,1.881,19.225-2.508,28.184-1.828,3.735-2.194,6.948-.313,10.6,1.2,2.351,1.045,4.963.783,7.523a6.978,6.978,0,0,0,1.489,5.355,35.46,35.46,0,0,0,6.347,6.687c-.209-1.071-.366-1.907-.549-2.743.052,0,.078-.026.131-.026a2.2,2.2,0,0,1,.287.548c.575,2.795,2.508,4.1,5.015,5.015,1.463.549,2.691,1.724,4.153,2.3a6.224,6.224,0,0,0,3.709.522,32.008,32.008,0,0,0,6.556-2.925c3.082-1.8,4.388-4.806,4.859-8.228.183-1.332.522-2.638.679-3.944.131-1.071.052-2.168.157-3.265a6.08,6.08,0,0,1,.444-2.064c1.881-4,3.814-7.967,5.747-11.937,3.239-6.661,4.884-13.583,3.97-21.027a9.764,9.764,0,0,1,.679-4.858,5.027,5.027,0,0,0-.183-3.082,12.675,12.675,0,0,1-.653-5.067c.131-2.011-.6-4.1-.993-6.426a9.6,9.6,0,0,1-7.262,1.907,12.605,12.605,0,0,1-11.154-14.654c.026-.131,0-.261.026-.392A2.073,2.073,0,0,0,740.907,317.241ZM627.725,342.6c-1.176.81-.836,1.854-.366,2.69a24.529,24.529,0,0,0,2.926,4.31,62.455,62.455,0,0,0,26.3,16.952c1.019.34,2.116.5,3.526.81-.679-1.411-1.175-2.508-1.724-3.552-.966-1.855-2.063-3.657-2.925-5.59a24.823,24.823,0,0,1-1.62-4.937c-.34-1.593.862-2.351,2.325-1.62a20.51,20.51,0,0,1,2.037,1.28,49.215,49.215,0,0,0,15.464,7.209c1.724.444,3.5.731,5.25,1.1.026-.131.079-.235.1-.366-1.463-.679-2.952-1.332-4.415-2.011.052-.131.1-.235.157-.366,8.7,2.534,17.318,5.329,26.878,5.72-3.03.549-5.72,1.175-8.385.6-4-.862-7.915-2.116-11.885-3.187a2.945,2.945,0,0,0-1.254-.13,17.038,17.038,0,0,1-3.265.81c-6.844-.052-12.747-2.743-18.154-6.687-.366-.261-.731-.549-1.123-.81a28.617,28.617,0,0,0,1.8,3.579,74.83,74.83,0,0,1,3.892,8.463c.836,2.377-.784,4-3.344,3.709a21.89,21.89,0,0,1-3.422-.627c-7.6-2.168-14.157-6.321-20.27-11.18a35.342,35.342,0,0,1-9.352-10.422,11.137,11.137,0,0,1-1.2-3.5C625.452,343.44,626.157,342.813,627.725,342.6Z" transform="translate(-560.287 -120.794)" fill="#f9e381"/>
          <path id="Trazado_935626" data-name="Trazado 935626" d="M577.918,329.65c-.392,2.795-.94,5.407-1.123,8.071-.705,9.743.5,19.356,1.672,28.994.339,2.664.392,5.355.731,8.019.235,1.8.757,3.552,1.1,5.355.522,2.717,1.019,5.433,1.515,8.15,1.332,7.236,2.821,14.471,3.918,21.733,1.8,11.963,4.179,23.848,4.728,35.995.026.758.261,1.045,1.045,1.2,8.333,1.75,16.8,2.325,25.233,3.213,4.754.5,9.482,1.254,14.236,1.567,4.545.287,9.116.183,13.687.157,6.086-.052,12.172-.078,18.232-.444,2.873-.157,5.668-1.254,8.542-1.567,1.985-.209,2.586-1.019,3.03-2.873,1.854-7.392,4.127-14.706,5.9-22.1,2.011-8.359,3.657-16.822,5.511-25.233,1.933-8.751,4.075-17.475,5.877-26.252a94.586,94.586,0,0,0,1.359-26.043c-.235-3.239-.261-6.53-.392-9.769V336.65c-1.959.94-3.944,1.515-5.511,2.69-3.4,2.56-7.262,3.735-11.258,4.7a67.614,67.614,0,0,1-31.345.1c-3.579-.784-7.079-.94-10.527.5-7.131,2.978-13.949,2.142-20.609-1.515a63.426,63.426,0,0,1-11.519-7.549,21.485,21.485,0,0,0-8.228-4.049,2.232,2.232,0,0,0-1.306-.026c-4.728,1.672-9.142.47-13.478-1.437A8.218,8.218,0,0,1,577.918,329.65Z" transform="translate(-527.145 -3.644)" fill="#675f52"/>
          <path id="Trazado_935627" data-name="Trazado 935627" d="M624.058,376.48c-3.265.758-6.373,1.593-9.534,2.142a50.2,50.2,0,0,1-6.269.444c-5.668.287-11.336.522-17,.81a2.255,2.255,0,0,0-.5.052c-.366,3.4-.575,6.687-1.149,9.9-.679,3.761-1.907,7.392-2.612,11.154a64.075,64.075,0,0,0-.575,18.833c.6,5.459.94,10.945,1.515,16.4.366,3.552.888,7.079,1.385,10.631a151.588,151.588,0,0,1,1.855,23.091c-.026,4.127.287,8.28-.653,12.355a32.039,32.039,0,0,1-2.3,5.773c-1.175,2.586-2.534,5.094-3.683,7.706-.47,1.1-.366,1.959.914,2.9a28.559,28.559,0,0,1,8.542,10.344,49.562,49.562,0,0,0,9.116,13.139c2.482,2.455,4.676,5.172,7.732,6.974a7.412,7.412,0,0,0,8.071-.261c.261-.183.5-.34.757-.522a29.15,29.15,0,0,1-6.347-11.467c-1.28-3.892-1.515-7.889-2.064-11.885-.34-2.429-.392-4.911-.549-7.366,0-.078.026-.209-.026-.261-1.75-2.272.209-4.832-.6-7.261a40.561,40.561,0,0,1-1.254-7.366c-.34-2.534-.627-5.041-.888-7.575-.261-2.481-.548-4.989-.679-7.471-.261-5.094.862-10.03,1.646-15.019,1.463-9.4,5.015-18.206,7.523-27.322a203.3,203.3,0,0,0,6.008-30.562c.549-4.832.757-9.717,1.149-14.575C623.692,378.961,623.9,377.786,624.058,376.48Z" transform="translate(-477.866 71.851)" fill="#efb36b"/>
          <path id="Trazado_935628" data-name="Trazado 935628" d="M651.391,380.326c-10.4-1.672-20.792-1.75-31.162-4.676,0,3.291.131,6.3-.026,9.273-.313,5.9-.784,11.781-1.149,17.658-.366,5.616-.732,11.232-.966,16.874-.366,8.542-.705,17.057-.888,25.6-.078,3.317.5,6.661.392,10-.157,5.355-.732,10.683-.94,16.038a67.168,67.168,0,0,1-2.925,17.318c-1.385,4.467-2.56,9.038-4.258,13.374-2.09,5.355-2.482,10.893-3.056,16.482-.392,3.788-1.384,7.5-2.09,11.258-.1.522-.183,1.045-.261,1.62a13,13,0,0,0,12.93-.784c1.75-1.045,3.448-2.22,5.172-3.317a3.013,3.013,0,0,0,1.332-1.854c.418-1.437,1.385-2.717,1.8-4.153a20.819,20.819,0,0,0,1.045-5.459c.078-4.127-.235-8.254-.183-12.381a70.136,70.136,0,0,1,.81-7,7.213,7.213,0,0,0,.026-1.985c-.653-4.049.235-7.941,1.463-11.7,2.325-7.157,4.859-14.262,7.418-21.341,2.978-8.176,6.112-16.273,9.09-24.449a72.811,72.811,0,0,0,3.918-21.106c.392-7.131.34-14.288.6-21.445.1-3.265.418-6.5.81-9.743A24.988,24.988,0,0,1,651.391,380.326Z" transform="translate(-556.866 70.513)" fill="#efb36b"/>
          <path id="Trazado_935629" data-name="Trazado 935629" d="M618.123,225.844a6.521,6.521,0,0,0,2.429,5.041,50.471,50.471,0,0,0,5.015,3.317c3.4,2.09,7.183,3.761,10.187,6.321,6.374,5.459,7.758,12.695,6.008,20.688a3.86,3.86,0,0,1-.13.522c-.94,2.455-1.907,2.664-3.579.758.548,2.743,1.332,3.317,3.631,2.612-1.123,2.534-3.239,1.646-5.224,1.489-.209-1.828-1.829-1.933-3.135-2.273-4.284-1.123-8.646-1.071-13.034-.993-2.142.052-4.336-.366-6.008,1.437-.392-.287-.705-.5-.993-.705.078-.679.157-1.306.235-1.933-.1-.026-.183-.078-.287-.1-.392.575-.757,1.123-1.175,1.724a12.972,12.972,0,0,0-8.176.627,3.221,3.221,0,0,0-2.664-2.455c-3.187-.784-6.4-1.567-9.612-2.22a38.6,38.6,0,0,0-4.232-.392c1.045-1.959,2.4-3.422,4.754-3.056a9.419,9.419,0,0,1,2.978,1.045c1.176.627,2.194,1.515,3.344,2.246a7.359,7.359,0,0,0,5.381.967c.366-.078.653-.6.992-.914-.34-.235-.705-.627-1.045-.653a7.162,7.162,0,0,1-4.362-2.09c-3.657-2.978-9.4-4.336-13.478,1.228a1.057,1.057,0,0,1-1.776.235,4.74,4.74,0,0,1-1.28-1.828,6.4,6.4,0,0,1,4.153-8.542,26.909,26.909,0,0,1,4.989-.836c6.191-.47,11.911-2.09,16.639-6.4,4.754-4.31,7.654-9.43,7.183-15.986a5.9,5.9,0,0,0-.157-.94C617.47,223.806,617.078,225.3,618.123,225.844Zm3.37,36.073c1.2-.679,2.4-1.358,3.6-2.064,2.273-1.332,4.31-.679,6.191.757,1.1.836,2.037,1.881,3.082,2.769a3.969,3.969,0,0,0,1.123.5c.078-.444.313-.966.157-1.332a7.786,7.786,0,0,0-6.191-5.094,9.061,9.061,0,0,0-7.131,1.881c-1.489,1.071-2.9,2.273-4.989,1.985C618.933,262.831,619.769,262.909,621.492,261.917Z" transform="translate(-491.417 -174.316)" fill="#efb36b"/>
          <path id="Trazado_935630" data-name="Trazado 935630" d="M579.564,254.471a35.033,35.033,0,0,0,.914-6.582,8.965,8.965,0,0,1,1.959-5.433c1.332-1.619,2.769-3.135,4.179-4.7,1.62-1.8,3.239-3.579,4.885-5.381-.026-.026-.052-.078-.079-.1-.392.261-.784.549-1.2.81-.078-.1-.157-.183-.235-.287a56.027,56.027,0,0,1,4.623-4.023,35.331,35.331,0,0,0,5.459-4.205c4.545-4.728,9.926-7.5,16.77-6.844,3.787.366,7.549.34,11.31,1.463a38.2,38.2,0,0,1,10.657,4.832,36.434,36.434,0,0,1,3.709,3.265c-.078.131-.183.235-.261.366-6.164-3.474-12.329-6.217-18.807-.862a.666.666,0,0,0,.627,0,17.7,17.7,0,0,1,11.441-.052,35.7,35.7,0,0,1,13.06,7.653,33.021,33.021,0,0,1,8.777,14.628,21.255,21.255,0,0,1,.366,8.463c-.94-7.262-3.187-13.766-9.09-18.52-5.642-4.545-11.911-7.575-19.251-8.15,3.108,1.619,6.3,3.108,9.43,4.676,7.68,3.814,13.975,8.907,16.561,17.579a28.573,28.573,0,0,1,1.41,10.683c-.392,4.519-3,7.68-6.478,10.292,4.153-9.351-.862-22.307-10.161-27.453-2.429-1.332-4.858-2.664-7.209-4.1a28.308,28.308,0,0,1-4.336-3.082,5.432,5.432,0,0,1-1.672-5.355c.078.34.131.705.209,1.045a1.131,1.131,0,0,0,.131-.026l-.47-2.194c-.183,0-.366-.026-.574-.026a14.983,14.983,0,0,0-.549,2.325v.653c-1.045-.549-.653-2.037-2.4-2.116a26.456,26.456,0,0,0-1.463-4.336c-.183-.444-.888-.705-1.41-1.123a24.335,24.335,0,0,1,1.855,4.153,12.823,12.823,0,0,1-.81,8.254,23.02,23.02,0,0,1-17.109,13.374c-2.09.444-4.258.418-6.347.862a24.612,24.612,0,0,0-6.321,1.907c-2.9,1.515-3.944,4.362-3.5,7.523.366,2.69,1.646,4.806,4.441,4.78-.966.418-2.194.993-3.788,1.7a17.934,17.934,0,0,1-2.246-2.142c-2.4-3.134-2.456-6.713-1.567-10.344,1.567-6.452,6.008-9.926,12.225-11.6a70.894,70.894,0,0,0,9.273-2.952c6.06-2.586,8.333-9.665,4.911-14.758a7.261,7.261,0,0,0,.444,1.463c1.489,3.4.862,6.426-1.489,9.221a11.15,11.15,0,0,1-5.694,3.579c-2.952.836-5.93,1.646-8.881,2.4-11.65,2.978-15.672,15.307-11.467,22.569,0,.131-.026.235-.026.366.131.993.235,2.011.418,3.422-.993-.392-2.142-.47-2.4-.993a44.6,44.6,0,0,1-2.063-5.485,3.532,3.532,0,0,1-.1-1.175c-.026-1.1.078-2.194-.026-3.291C579.826,258.885,579.016,256.8,579.564,254.471Z" transform="translate(-498.988 -184.24)" fill="#936037"/>
          <path id="Trazado_935631" data-name="Trazado 935631" d="M591.246,239.147c-.627-.1-1.175-.183-2.011-.287.6,2.325-.549,3.814-2.116,5.2-.966.862-.6,2.769.5,3.552a2.354,2.354,0,0,1,.339,3.448,2.115,2.115,0,0,1-3.187-.078c.731-.5,1.541-1.019,2.272-1.515-.731-.993-1.28-1.75-1.828-2.481-.366.94-.732,1.907-1.123,2.952-.1-.235-.209-.444-.287-.653-.079,0-.157-.026-.235-.026a6.763,6.763,0,0,0-.183,1.437c.183,4.049.1,8.15.627,12.146.575,4.493,2.3,8.568,5.982,11.545,4.258,3.448,8.437,7.026,12.695,10.5,3.422,2.821,7.262,4.65,11.78,4.127,3.4-.366,6.766-.888,9.848-2.612,2.273-1.254,4.806-2.064,7.079-3.317,4.023-2.22,7.915-4.7,10.109-9.038,1.907-3.814,3.839-7.653,5.694-11.493.522-1.071.81-2.246,1.228-3.37-2.273-.6-3.265-1.959-3.03-4,.1-.862.34-1.41,1.463-1.071,1.959.575,2.455.026,1.959-1.985-.418-1.672-.627-3.213,1.071-4.1-.313-1.437-.6-2.743-.94-4.205-.732-.052-1.646-.1-2.638-.183-.313,1.228-.575,2.4-.862,3.552a4.094,4.094,0,0,1-3.814,3.213c-5.485.679-10.866-.078-16.221-1.123a2.5,2.5,0,0,1-2.246-2.743c-.026-.94.026-1.881,0-2.821a4.988,4.988,0,0,0-.34-1.175,4.662,4.662,0,0,1-.6.052c-.209,3-.392,6.008-.6,9.064-1.045.1-1.071-.679-1.149-1.437a18.649,18.649,0,0,1,.705-7.1,8.157,8.157,0,0,0,.209-1.149c-2.612-1.384-4.989-.731-7.314.5a1.581,1.581,0,0,0-.549,1.071c-.522,3.866-1.28,4.623-5.2,4.388A53.817,53.817,0,0,1,594.25,245.6c-2.925-1.019-3.579-2.037-3.134-5.094C591.194,240.114,591.194,239.67,591.246,239.147Zm10.866,28.5c.157-.209.34-.418.5-.627.261,0,.549-.1.758.026,2.3,1.358,4.519.653,6.844.026,2.664-.731,5.381-1.411,8.2-.5a3.455,3.455,0,0,0,2.22.131c1.541-.653,2.743-.078,4.049.549.836.392,1.7.757,2.56,1.149,2.3.993,4.519,2.4,7.236,1.8.052,0,.13.1.183.157-.026.1-.026.235-.078.261a2.972,2.972,0,0,1-.94.5c-2.9.34-4.232,2.429-5.407,4.728a3.9,3.9,0,0,1-.522.757,6.126,6.126,0,0,1-3.892,2.377,24.767,24.767,0,0,1-8.881-.627c-3.239-.627-5.877-2.011-7.445-5.068a15.275,15.275,0,0,0-1.567-2.481,17.209,17.209,0,0,0-2.22-2.142A9.625,9.625,0,0,0,602.112,267.645Zm11-13.478c.078.261.235.5.209.705-.34,2.194-.314,2.142,1.724,3.082a2.548,2.548,0,0,1,1.071,1.437,2.409,2.409,0,0,0,1.776,1.776,1.985,1.985,0,0,0,2.325-.784,13.768,13.768,0,0,1,2.455-2.142,2.007,2.007,0,0,0,.784-2.56c-.157-.392-.209-.81-.392-1.437,1.385.444,2.194,1.1,2.194,2.246a2.588,2.588,0,0,1-1.724,2.769,4.492,4.492,0,0,0-2.325,1.8,3.292,3.292,0,0,1-5.277-.1,8.581,8.581,0,0,0-3.109-2.769C611.072,257.275,611.254,255.212,613.109,254.167Z" transform="translate(-501.344 -150.005)" fill="#efb36b"/>
          <path id="Trazado_935632" data-name="Trazado 935632" d="M593.354,212.454A22.127,22.127,0,0,0,598.5,225.07c.209-.575.34-.966.47-1.358.078.026.183.052.261.078-.183.679-.366,1.384-.522,2.064a7.943,7.943,0,0,1-2.142-1.123c-2.482-2.481-3.866-7.157-3.448-11.154-1.881,2.168-2.064,6.347-.287,9.351.914,1.541,2.063,2.926,3.082,4.362.993,1.384,1.985,2.743,2.873,4a62.443,62.443,0,0,1,7.183-1.724,19.151,19.151,0,0,1,12.643,3.056,7.849,7.849,0,0,1,2.508,3.317c.418.888.81,1.28,1.8,1.2.183-1.646,1.358-2.455,2.691-3.187a4,4,0,0,0,1.515-1.254,74.811,74.811,0,0,0,3.761-7.523,6.914,6.914,0,0,0,.1-3.657c-1.149-7-4.623-12.355-11.18-15.438a8.4,8.4,0,0,0-7.836.026,2.319,2.319,0,0,1-2.769-.1,5.351,5.351,0,0,0-3.474-.418,27.3,27.3,0,0,0-17.37,9.4,4.654,4.654,0,0,0-.836,5.172,23.336,23.336,0,0,0,10,11.389c-.314-.418-.575-.888-.914-1.28-1.567-1.881-3.265-3.683-4.728-5.642-2.116-2.847-2.873-6.008-1.385-9.43A4.47,4.47,0,0,1,593.354,212.454Zm16.43-.261c.732-.679,1.28-1.2,1.828-1.672.888-.784,1.541-.6,1.724.6a12.514,12.514,0,0,1,.1,2.795c-.261,3-.627,6.008-.94,9.012a1.224,1.224,0,0,0,.261.131c2.743-4.885,5.485-9.743,8.385-14.889a10.769,10.769,0,0,1-.418,3.213c-1.8,3.735-3.683,7.392-5.668,11.049a25.848,25.848,0,0,1-2.769,3.918,1.579,1.579,0,0,1-1.463.5c-.444-.209-.679-.914-.888-1.437a2.158,2.158,0,0,1,.052-1.071c.444-2.351.967-4.7,1.385-7.079.392-2.168.705-4.336,1.071-6.5-.131-.078-.287-.131-.418-.209a8.166,8.166,0,0,1-1.7,1.828c-1.463.836-.966-1.019-1.75-1.437-.81,2.09-1.646,4.153-2.4,6.243-.888,2.482-1.672,4.963-2.56,7.444-.1.287-.523.47-.81.679-.131-.313-.392-.653-.34-.914.862-4.571,1.933-9.064,4.545-13.008a15.333,15.333,0,0,1,2.168-2.142C609.366,210.391,609.549,211.148,609.784,212.193Zm17.371,9.586.157.235q-4.467,3.448-8.959,6.87a.888.888,0,0,1-.914-.078,1.012,1.012,0,0,1-.1-.914,7.358,7.358,0,0,1,.679-1.149c1.646-3.161,3.343-6.269,4.858-9.482a23.705,23.705,0,0,0,1.123-3.944c-.5.209-.679.287-1.071.444a3.625,3.625,0,0,1,.522-.862,10.323,10.323,0,0,1,1.123-.731c.209.418.575.836.575,1.228.026,3.97-1.567,7.444-3.4,10.84-.209.392-.444.81-.653,1.2.052.052.131.1.183.157C623.263,224.313,625.2,223.033,627.155,221.779Zm-27.114,1.071c-1.567-2.769-.705-5.825-.574-8.8h-.418c-.209,1.724-.392,3.448-.6,5.2a32.163,32.163,0,0,1,.235-5.72c.026-.314.548-.575.862-.836.157.313.47.627.47.967C600.067,216.712,600.041,219.82,600.041,222.85Zm24.292,5.982c-.732-2.429-.732-2.429,3.866-6.974C626.92,224.182,625.64,226.507,624.334,228.832Z" transform="translate(-492.325 -204.391)" fill="#936037"/>
          <path id="Trazado_935633" data-name="Trazado 935633" d="M560.559,313.376c.627-.575,1.071-.993,1.593-1.489-1.045-1.829-.313-3.37,1.149-4.806a4.588,4.588,0,0,1-.627-4.1,7.152,7.152,0,0,0,.1-3.788,2.2,2.2,0,0,1,1.855-2.9,16.4,16.4,0,0,1,9.247.287,8.368,8.368,0,0,0,2.168.235c.026-.131.026-.261.052-.366-.157-.183-.313-.366-.5-.6h3.657c.392-1.541.705-2.873,1.045-4.205l.47.078c-.052,1.28-.1,2.56-.183,3.814.5.235.888.418,1.332.6-1.959.392-3.814.757-5.956,1.175.392.47.6.627.653.836.1.444.34,1.1.157,1.28a1.6,1.6,0,0,1-1.359.34c-.783-.287-1.436-.94-2.22-1.2-2.063-.705-3.971-2.064-6.191-1.75a14.1,14.1,0,0,1,1.75,2.873,2.331,2.331,0,0,1-1.515,3.03,9.872,9.872,0,0,1,1.75.34c2.272.758,4.545,1.62,6.817,2.351a4.826,4.826,0,0,0,2.534.34c3.344-.914,6.713-1.907,9.978-3.056,3.344-1.2,4.205-3.291,3.082-6.661-.548-1.62-1.149-3.213-1.567-4.858a2.658,2.658,0,0,0-2.377-2.194c-2.3-.392-4.6-.679-6.87-1.123a30.243,30.243,0,0,1-4-1.123,8.026,8.026,0,0,1-4.127-3.6c.339,1.646.679,3.265,1.019,4.937-1.411-1.28-1.541-3.082-1.646-4.754-.13-2.168.261-4.388.026-6.556-.34-3.422,1.123-6.452,1.62-9.691a9.811,9.811,0,0,0-.732-6.034,4.8,4.8,0,0,0-3-2.69c-1.463-.418-2.325-.052-2.638,1.411-.627,2.978-1.2,5.956-1.541,8.959a36.114,36.114,0,0,1-3.4,12.329c-.731,1.437-1.306,2.952-1.985,4.388a12.262,12.262,0,0,0-.34,9.508,13.7,13.7,0,0,1,.81,2.4,2.26,2.26,0,0,1-.287,1.724,6.727,6.727,0,0,0-1.672,4.414C558.469,306.951,559.566,310.059,560.559,313.376Z" transform="translate(-378.79 -118.863)" fill="#efb36b"/>
          <path id="Trazado_935634" data-name="Trazado 935634" d="M608.883,235.936c1.176-2.69,2.325-5.329,3.5-8.045-4.049-.078-6.87-2.429-9.273-5.407a25.976,25.976,0,0,1-1.515-2.246c.131-.1.235-.209.366-.313.548.392,1.1.81,1.646,1.175,1.906,1.254,3.735,2.612,5.72,3.683a6.211,6.211,0,0,0,7-.679,23.65,23.65,0,0,1-10.762-13.583,8.077,8.077,0,0,0-4.676,6.086,34.8,34.8,0,0,0-.235,10.919,5.369,5.369,0,0,0,2.011,3.944C604.7,232.984,606.768,234.421,608.883,235.936Zm-7.079-13.5c.078-.052.157-.078.235-.131a10.385,10.385,0,0,0,1.045,1.515c2.063,2.09,3.944,4.388,6.948,5.224.235.078.392.5.6.731-.313.1-.653.392-.914.313-.757-.209-1.489-.549-2.246-.81-.81-.287-1.62-.522-2.455-.784l-.235.392c.967.862,1.933,1.75,2.9,2.612a8.587,8.587,0,0,1-2.9-1.541,5.023,5.023,0,0,1-.914-1.541c.5-.261,1.019-.5,1.567-.758-.653-.784-1.385-1.619-2.038-2.508C602.823,224.286,602.353,223.345,601.8,222.431Z" transform="translate(-512.086 -195.692)" fill="#936037"/>
          <path id="Trazado_935635" data-name="Trazado 935635" d="M585.4,247.457a20.394,20.394,0,0,0,3.37.784c4.075.313,8.176.731,12.277.705,3.239-.026,3.788-.287,4.232-3.683a21.82,21.82,0,0,0,.235-3.187,1.77,1.77,0,0,0-1.724-1.959,61.746,61.746,0,0,0-16.273-.418,1.835,1.835,0,0,0-1.28,1.071,38.476,38.476,0,0,0-.653,4.232C585.5,245.707,585.477,246.412,585.4,247.457Z" transform="translate(-462.245 -149.251)" fill="#c6c6c6"/>
          <path id="Trazado_935636" data-name="Trazado 935636" d="M597.816,242.114c.053,2.873.34,3.5,3.161,4,4.728.836,9.508,1.437,14.288,2.116.992.131,1.593-.1,1.7-1.28.078-1.149.418-2.272.6-3.422.34-2.168-.261-3.344-2.429-3.735-4.258-.757-8.542-1.254-12.825-1.855h-.261C598.025,237.569,598.182,238.222,597.816,242.114Z" transform="translate(-506.817 -151.64)" fill="#c6c6c6"/>
          <path id="Trazado_935637" data-name="Trazado 935637" d="M585.639,276.365c-4.153,1.045-7.941,2.064-11.781,2.873a6.854,6.854,0,0,1-3.239-.548c-3.474-1.123-6.9-2.325-10.4-3.5-1.071,2.455-1.045,3.161,1.254,5.146A28.693,28.693,0,0,0,565.761,283c1.149.679,2.246,1.411,3.448,1.985a5.569,5.569,0,0,0,2.429.731c2.455-.1,4.885-.5,7.34-.653a9.178,9.178,0,0,0,5.12-2.142,3.293,3.293,0,0,0,1.071-1.8C585.43,279.552,585.482,277.959,585.639,276.365Z" transform="translate(-374.823 -91.438)" fill="#efb36b"/>
          <path id="Trazado_935638" data-name="Trazado 935638" d="M585.955,280.765c-3.422,2.978-7.471,2.168-11.206,2.847a7.217,7.217,0,0,0-1.306.261,4.5,4.5,0,0,1-5.015-1.228,4.266,4.266,0,0,0-1.489-.888,14,14,0,0,1-6.5-4.6c-.993,1.463-.914,2.586-.078,4.232,1.619,3.187,4.441,4.832,7.209,6.609a3.46,3.46,0,0,0,2.4.366,32.819,32.819,0,0,1,9.038-.758C582.742,287.9,585.511,285.205,585.955,280.765Z" transform="translate(-375.584 -88.262)" fill="#efb36b"/>
          <path id="Trazado_935639" data-name="Trazado 935639" d="M596.381,257.961c-.6-.731-1.28-1.541-1.933-2.351-.131.052-.287.1-.418.157.157.888.392,1.776.5,2.691.209,1.646.47,3.265.522,4.911a1.689,1.689,0,0,0,1.071,1.62c4.284,2.481,8.986,3.578,13.74,4.623a29.452,29.452,0,0,0,11,.522,8.337,8.337,0,0,0,1.541-.392c-3.213-.209-6.53.235-9.56-1.855,1.2.131,2.168.34,3.134.366,2.273.052,4.545.026,6.818-.1-2.455-.287-4.963-.392-7.392-.888a50.67,50.67,0,0,1-7.314-2.064c-2.377-.862-4.676-1.985-6.948-3.056a25.722,25.722,0,0,1-6.347-3.84c.078-.157.131-.313.209-.47A11.311,11.311,0,0,1,596.381,257.961Z" transform="translate(-502.065 -123.003)" fill="#efb36b"/>
          <path id="Trazado_935640" data-name="Trazado 935640" d="M589.408,243.918a30.816,30.816,0,0,0-1.045-3.761c-.392-.966-1.228-.966-2.116-.418a6.964,6.964,0,0,0-3,3.788c-.34,1.019-.705,2.011-1.071,3.03-.261.784-.522,1.489-1.541,1.724-.966.235-.679,1.2-.6,1.933.183,1.881.366,3.787.549,5.668.1,1.149.131,2.3.313,3.448.052.392.392,1.019.627,1.019a1.539,1.539,0,0,0,1.228-.575,8.554,8.554,0,0,0,.731-2.534,6.146,6.146,0,0,1,2.456-4.258c2.246-1.828,2.952-4.467,3.213-7.235.052-.575,0-1.149,0-1.75A1.623,1.623,0,0,1,589.408,243.918Zm-3.056,2.325c-.313.444-.731,1.019-1.176,1.619a3.39,3.39,0,0,1,1.045,3.578c-.131.392-1.045.5-1.567.731.052-.914.1-1.567.157-2.272-1.489-.444-1.959,2.325-3.788.81,2.325-.34,2.455-2.22,3.161-3.735a20.016,20.016,0,0,1,2.691-4.075c.653-.784,1.463-.392,1.515.627a11.766,11.766,0,0,1-.1,2.534c-.1.653.47,1.776-.653,1.855C587.266,247.914,586.8,246.843,586.352,246.243Z" transform="translate(-431.854 -149.186)" fill="#efb36b"/>
          <path id="Trazado_935641" data-name="Trazado 935641" d="M606.4,264.623c4.153-9.351-.862-22.307-10.161-27.453-2.429-1.332-4.858-2.664-7.21-4.1a28.313,28.313,0,0,1-4.336-3.082,5.432,5.432,0,0,1-1.672-5.355c.078.34.131.705.209,1.045a1.12,1.12,0,0,0,.131-.026l-.47-2.194c-.183,0-.366-.026-.574-.026a14.981,14.981,0,0,0-.549,2.325,6.566,6.566,0,0,0,2.429,5.694,50.5,50.5,0,0,0,5.015,3.317c3.4,2.09,7.183,3.761,10.187,6.321,6.373,5.459,7.758,12.695,6.008,20.688a3.816,3.816,0,0,1-.131.522c-.94,2.455-1.907,2.664-3.578.758.549,2.743,1.332,3.317,3.631,2.612C605.722,265.276,606.062,264.962,606.4,264.623Z" transform="translate(-455.09 -174.88)" fill="#311d48"/>
          <path id="Trazado_935642" data-name="Trazado 935642" d="M616.5,243.919a5.631,5.631,0,0,0-.026-1.8c-.914-2.116-1.855-4.205-2.926-6.243-.548-1.045-1.619-1.019-2.011.052a78.24,78.24,0,0,0-2.9,8.986,3.786,3.786,0,0,0,2.011,4.31,11.949,11.949,0,0,1,1.463,1.175c.6-.731,1.228-1.515,2.038-2.508-.157-1.358-.366-3.108-.6-4.832h-.627a8.8,8.8,0,0,0-.078,1.646c.157.993.183,1.933-.94,2.351a1.243,1.243,0,0,1-1.1-.366,8.01,8.01,0,0,1,.079-6.87,2.872,2.872,0,0,1,2.011-1.358c.522,0,1.384,1.019,1.515,1.7.444,2.325.6,4.676.914,7.027a8.9,8.9,0,0,0,.6,2.168,1.136,1.136,0,0,0,.888.575c.235-.026.549-.5.627-.81C618.041,247.053,617.78,245.2,616.5,243.919Z" transform="translate(-534.879 -156.057)" fill="#efb36b"/>
          <path id="Trazado_935643" data-name="Trazado 935643" d="M629.306,342.232c1.855-.1,3.5-.183,5.094-.287.157-2.56.314-5.067.47-7.706-1.123-1.228-2.481-.444-3.814-.078-2.116.6-2.429,1.149-2.168,3.291C629.1,339.02,629.176,340.587,629.306,342.232Z" transform="translate(-604.994 2.686)" fill="#f9e381"/>
          <path id="Trazado_935644" data-name="Trazado 935644" d="M615.36,220.052a12.07,12.07,0,0,0-2.4-2.482,18.547,18.547,0,0,0-21.706,2.116,50.225,50.225,0,0,1,4.806-1.855c3.631-.993,7.314-1.828,11.049-.679a38.242,38.242,0,0,1,4.6,2.09c1.045.5,2.09.966,3.134,1.463A5.707,5.707,0,0,0,615.36,220.052Z" transform="translate(-487.374 -188.428)" fill="#f9e381"/>
          <path id="Trazado_935645" data-name="Trazado 935645" d="M616.048,217.969c-5.668-4.414-20.505.157-22.908,6.739C599.592,218.779,607.219,216.872,616.048,217.969Z" transform="translate(-492.999 -186.502)" fill="#f9e381"/>
          <path id="Trazado_935646" data-name="Trazado 935646" d="M636.627,363.8c-5.068-3.344-7.183-8.489-9.978-13.322-.026.287-.078.444-.026.575,1.358,3.4,2.691,6.792,4.075,10.161a7.421,7.421,0,0,0,1.019,1.411C632.865,364.272,634.459,364.324,636.627,363.8Z" transform="translate(-600.978 29.936)" fill="#d79851"/>
          <path id="Trazado_935647" data-name="Trazado 935647" d="M626.63,352.519c.392,1.489.732,3,1.175,4.467a32.179,32.179,0,0,0,1.254,3.108c.366.836.575,1.985,1.228,2.4,2.116,1.306,4.206,2.8,6.948,2.926-4.6-3.422-8.463-7.392-10.083-13.113A4.347,4.347,0,0,0,626.63,352.519Z" transform="translate(-601.665 32.886)" fill="#d79851"/>
          <path id="Trazado_935648" data-name="Trazado 935648" d="M630.8,333.53c-1.358.287-2.586.575-3.918.862q-.2,3.6-.392,7.288C629.23,341.262,630.928,338.049,630.8,333.53Z" transform="translate(-594.862 2.611)" fill="#f9e381"/>
          <path id="Trazado_935649" data-name="Trazado 935649" d="M634.742,341.408c.026-2.429-.287-5.015,1.724-7.288-1.672.261-3.056.392-4.388.705a1.142,1.142,0,0,0-.914,1.619c.392,1.228.627,2.508,1.019,3.735C632.7,341.93,632.73,341.9,634.742,341.408Z" transform="translate(-612.493 3.562)" fill="#f9e381"/>
          <path id="Trazado_935650" data-name="Trazado 935650" d="M611.368,249.832c.653-2.534,1.306-5.041,1.907-7.288-.836-.627-1.593-1.149-2.56-1.855-.131.836-.287,1.672-.418,2.534a4.362,4.362,0,0,0-.6-.366,1.945,1.945,0,0,0-.836-.287c1.541,1.646,1.045,3.6.993,5.485C609.8,249.127,610.244,249.623,611.368,249.832Z" transform="translate(-531.288 -147.055)" fill="#efb36b"/>
          <path id="Trazado_935651" data-name="Trazado 935651" d="M567.7,274.92c-.026,1.149,1.62,2.9,2.429,2.873a1.5,1.5,0,0,0,.757-.209c.731-.418.836-1.7.235-2.795-.574-1.045-2.011-1.907-2.586-1.411A4.517,4.517,0,0,0,567.7,274.92Z" transform="translate(-382.014 -94.59)" fill="#efb36b"/>
          <path id="Trazado_935652" data-name="Trazado 935652" d="M608.012,243.848c1.019-1.175,2.638-2.037,1.959-4.049-.5-1.541-1.907-.5-2.873-1.149C607.411,240.478,607.7,242.124,608.012,243.848Z" transform="translate(-523.544 -150.344)" fill="#936037"/>
          <path id="Trazado_935653" data-name="Trazado 935653" d="M635.773,335.6c-.888.575-1.646,1.1-2.4,1.619.705,2.821.862,2.926,3.552,2.22C636.557,338.16,636.165,336.906,635.773,335.6Z" transform="translate(-618.958 5.948)" fill="#f9e381"/>
          <path id="Trazado_935654" data-name="Trazado 935654" d="M610.894,245.84c-.47,3.108-.888,5.9-1.306,8.8C611.469,254.016,612.017,250.072,610.894,245.84Z" transform="translate(-531.389 -138.753)" fill="#ffed00"/>
          <path id="Trazado_935655" data-name="Trazado 935655" d="M605.706,237.01c0,.131-.026.235-.026.366a14.562,14.562,0,0,1,1.28,2.011c.653,1.593,1.959,1.855,3.474,1.881.1-.392.209-.784.235-.862C608.919,239.178,607.3,238.081,605.706,237.01Z" transform="translate(-520.376 -152.988)" fill="#efb36b"/>
          <path id="Trazado_935656" data-name="Trazado 935656" d="M586.255,245.19H583.46c.13.94.575,1.907,1.567,1.855.523-.026,1.019-1.019,1.515-1.567A2.965,2.965,0,0,0,586.255,245.19Z" transform="translate(-438.208 -139.801)" fill="#936037"/>
          <path id="Trazado_935657" data-name="Trazado 935657" d="M582.01,439.884h9.4v-.1h-9.351C582.062,439.806,582.036,439.832,582.01,439.884Z" transform="translate(-439.292 173.896)" fill="#fcfaf6"/>
          <path id="Trazado_935658" data-name="Trazado 935658" d="M583.055,243.435c.34-.914.679-1.776,1.019-2.664C582.533,240.744,582.167,241.763,583.055,243.435Z" transform="translate(-433.441 -146.927)" fill="#936037"/>
          <path id="Trazado_935659" data-name="Trazado 935659" d="M588.212,289.76c-1.567.209-2.273.836-2.037,2.22a11.834,11.834,0,0,0,1.2,3.5,35.666,35.666,0,0,0,9.352,10.422c6.112,4.859,12.668,9.012,20.27,11.18a18.8,18.8,0,0,0,3.422.627c2.56.287,4.179-1.332,3.344-3.709a79.76,79.76,0,0,0-3.892-8.463,28.628,28.628,0,0,1-1.8-3.578c.366.261.731.548,1.123.81,5.407,3.97,11.31,6.661,18.154,6.687a16.576,16.576,0,0,0,3.265-.81,2.99,2.99,0,0,1,1.254.131c3.971,1.071,7.889,2.3,11.885,3.187,2.664.575,5.355-.052,8.385-.6-9.56-.392-18.18-3.187-26.878-5.72-.052.131-.1.235-.157.366,1.463.679,2.952,1.332,4.415,2.011-.026.131-.078.235-.1.366-1.75-.366-3.526-.653-5.25-1.1a48.083,48.083,0,0,1-15.463-7.209,20.5,20.5,0,0,0-2.038-1.28c-1.463-.731-2.638.052-2.325,1.619a24.825,24.825,0,0,0,1.62,4.937c.836,1.907,1.959,3.709,2.925,5.59.549,1.071,1.045,2.142,1.724,3.552a31.318,31.318,0,0,1-3.526-.81,62.457,62.457,0,0,1-26.3-16.952,23.192,23.192,0,0,1-2.926-4.31C587.375,291.614,587.036,290.57,588.212,289.76Z" transform="translate(-520.774 -67.95)" fill="#311d48"/>
          <path id="Trazado_935660" data-name="Trazado 935660" d="M585.01,240.644c1.593,1.489,2.429,1.567,4.153.575,1.2-.679,2.4-1.358,3.6-2.064,2.273-1.332,4.31-.679,6.191.758,1.1.836,2.038,1.881,3.082,2.769a3.965,3.965,0,0,0,1.123.5c.078-.444.313-.966.156-1.332a7.786,7.786,0,0,0-6.191-5.094A9.061,9.061,0,0,0,590,238.633C588.51,239.73,587.1,240.958,585.01,240.644Z" transform="translate(-459.088 -153.618)" fill="#311d48"/>
          <path id="Trazado_935661" data-name="Trazado 935661" d="M589.22,250.841a12.027,12.027,0,0,1,1.567.966,17.215,17.215,0,0,1,2.22,2.142,13.691,13.691,0,0,1,1.567,2.482c1.567,3.056,4.205,4.44,7.444,5.067a25.461,25.461,0,0,0,8.881.627,5.958,5.958,0,0,0,3.892-2.377,4.9,4.9,0,0,0,.522-.757c1.175-2.3,2.508-4.388,5.407-4.728a2.738,2.738,0,0,0,.94-.5c.052-.026.052-.157.079-.261-.052-.052-.131-.157-.183-.157-2.716.6-4.911-.81-7.235-1.8-.862-.366-1.724-.731-2.56-1.149-1.28-.6-2.508-1.2-4.049-.549a3.438,3.438,0,0,1-2.22-.131c-2.821-.914-5.538-.209-8.2.5-2.325.627-4.545,1.332-6.844-.026-.183-.1-.5-.026-.758-.026A7.64,7.64,0,0,1,589.22,250.841Zm5.276,2.22c3.422,2.325,6.739,3.918,10.71,4.049a30.258,30.258,0,0,0,11.31-1.437,6.642,6.642,0,0,1-.784,1.489c-1.646,2.69-3.866,4.284-7.209,3.814-.966-.131-1.959-.183-2.926-.287C600.687,260.193,596.534,258.521,594.5,253.062Zm3.213.758c2.56-.418,5.015-.966,7.5-.1a2.867,2.867,0,0,0,.679.052c3.161.287,6.321.575,9.482.888C608,257.136,601.34,256.719,597.709,253.819Zm-1.306-2.142a10.61,10.61,0,0,1,1.724-.653c2.351-.549,4.65-1.489,7.157-.444a3.828,3.828,0,0,0,2.847-.052,2.622,2.622,0,0,1,2.795.209c.836.522,1.724.94,2.586,1.384.627.34,1.254.653,1.907.993.575.313,1.149.627,1.724.914C610.273,253.166,603.508,251.364,596.4,251.677Z" transform="translate(-488.452 -133.201)" fill="#311d48"/>
          <path id="Trazado_935662" data-name="Trazado 935662" d="M594.311,244.72c-1.855,1.045-2.038,3.108-.287,4.023a8.581,8.581,0,0,1,3.108,2.769,3.292,3.292,0,0,0,5.276.1,4.712,4.712,0,0,1,2.325-1.8c1.28-.34,1.7-1.567,1.724-2.769,0-1.149-.81-1.8-2.194-2.246a11.8,11.8,0,0,0,.392,1.437,2.045,2.045,0,0,1-.784,2.56,13.758,13.758,0,0,0-2.455,2.142,2.008,2.008,0,0,1-2.325.784,2.409,2.409,0,0,1-1.776-1.776,2.52,2.52,0,0,0-1.071-1.437c-2.037-.94-2.063-.888-1.724-3.082C594.546,245.216,594.39,244.981,594.311,244.72Z" transform="translate(-482.546 -140.558)" fill="#311d48"/>
          <path id="Trazado_935663" data-name="Trazado 935663" d="M598.323,210.3c-.235-1.045-.392-1.8-.653-2.926a15.338,15.338,0,0,0-2.168,2.142c-2.612,3.944-3.683,8.463-4.545,13.008-.052.261.209.6.34.914.287-.235.705-.392.81-.679.888-2.481,1.672-4.989,2.56-7.444.758-2.09,1.593-4.153,2.4-6.243.783.418.287,2.273,1.75,1.437a8.16,8.16,0,0,0,1.7-1.828c.131.078.287.131.418.209-.34,2.168-.679,4.336-1.071,6.5-.418,2.377-.94,4.728-1.384,7.079a2.144,2.144,0,0,0-.052,1.071c.209.549.444,1.228.888,1.437a1.721,1.721,0,0,0,1.463-.5,26.632,26.632,0,0,0,2.769-3.918q2.978-5.446,5.668-11.049a10.658,10.658,0,0,0,.418-3.213c-2.9,5.146-5.642,10-8.385,14.889a1.222,1.222,0,0,0-.261-.131c.313-3,.653-6.008.94-9.012a12.522,12.522,0,0,0-.1-2.795c-.183-1.2-.836-1.384-1.724-.6C599.577,209.095,599.054,209.591,598.323,210.3Z" transform="translate(-480.864 -202.495)" fill="#311d48"/>
          <path id="Trazado_935664" data-name="Trazado 935664" d="M598.416,217.416c-1.959,1.28-3.892,2.56-5.851,3.84-.052-.052-.13-.1-.183-.157.209-.392.418-.81.653-1.2,1.828-3.4,3.422-6.87,3.4-10.84,0-.418-.366-.836-.575-1.228a8.3,8.3,0,0,0-1.123.731,3.618,3.618,0,0,0-.523.862c.366-.157.575-.235,1.071-.444a23.708,23.708,0,0,1-1.123,3.944c-1.541,3.213-3.239,6.321-4.858,9.482a10.2,10.2,0,0,0-.679,1.149.991.991,0,0,0,.1.914.957.957,0,0,0,.914.078c3-2.273,5.982-4.571,8.959-6.87C598.521,217.573,598.469,217.495,598.416,217.416Z" transform="translate(-463.587 -200.028)" fill="#311d48"/>
          <path id="Trazado_935665" data-name="Trazado 935665" d="M600.653,218.2c0-3.03.026-6.138-.026-9.221,0-.313-.313-.653-.47-.966-.287.287-.81.522-.862.836a29.8,29.8,0,0,0-.235,5.72c.209-1.724.392-3.448.6-5.2h.418C599.947,212.372,599.086,215.428,600.653,218.2Z" transform="translate(-492.937 -199.738)" fill="#311d48"/>
          <path id="Trazado_935666" data-name="Trazado 935666" d="M588.588,218.5c1.28-2.325,2.586-4.65,3.866-6.974C587.856,216.075,587.856,216.075,588.588,218.5Z" transform="translate(-456.579 -194.064)" fill="#311d48"/>
          <path id="Trazado_935667" data-name="Trazado 935667" d="M602.51,215.161c.549.914,1.019,1.855,1.62,2.717.627.888,1.384,1.724,2.037,2.508-.549.261-1.045.522-1.567.758a5.018,5.018,0,0,0,.914,1.541,8.838,8.838,0,0,0,2.9,1.541c-.967-.862-1.933-1.75-2.9-2.612l.235-.392c.81.261,1.646.522,2.455.784.758.261,1.489.6,2.246.81.261.078.6-.209.914-.313-.183-.261-.34-.679-.6-.731-3-.81-4.911-3.134-6.948-5.224a10.383,10.383,0,0,1-1.045-1.515A2.413,2.413,0,0,0,602.51,215.161Z" transform="translate(-512.791 -188.421)" fill="#311d48"/>
          <path id="Trazado_935668" data-name="Trazado 935668" d="M585.6,244.32c.444.6.914,1.7,1.306,1.672,1.123-.052.549-1.175.653-1.855a11.77,11.77,0,0,0,.1-2.534c-.052-1.019-.862-1.41-1.515-.627a18.987,18.987,0,0,0-2.69,4.075c-.705,1.541-.836,3.4-3.161,3.735,1.829,1.489,2.3-1.254,3.788-.81-.052.679-.078,1.358-.157,2.273.523-.235,1.437-.34,1.567-.731a3.391,3.391,0,0,0-1.045-3.579C584.872,245.338,585.29,244.738,585.6,244.32Z" transform="translate(-431.105 -147.263)" fill="#311d48"/>
          <path id="Trazado_935669" data-name="Trazado 935669" d="M591.22,250.73c2.064,5.433,6.191,7.131,11.1,7.627.966.1,1.959.157,2.926.287,3.344.47,5.537-1.123,7.209-3.814a6.636,6.636,0,0,0,.784-1.489,29.166,29.166,0,0,1-11.31,1.437C597.959,254.648,594.616,253.055,591.22,250.73Z" transform="translate(-485.176 -130.87)" fill="#da6f27"/>
          <path id="Trazado_935670" data-name="Trazado 935670" d="M591.66,251.37c3.631,2.9,10.292,3.317,17.658.81-3.161-.287-6.321-.575-9.482-.888a2.864,2.864,0,0,1-.679-.052C596.675,250.4,594.219,250.952,591.66,251.37Z" transform="translate(-482.403 -130.752)" fill="#fcfaf6"/>
          <path id="Trazado_935671" data-name="Trazado 935671" d="M590.97,251.152c7.1-.313,13.844,1.515,20.766,2.377-.575-.313-1.149-.627-1.724-.914-.627-.34-1.254-.653-1.907-.993-.862-.47-1.75-.888-2.586-1.384a2.57,2.57,0,0,0-2.8-.209,3.966,3.966,0,0,1-2.847.052c-2.508-1.045-4.806-.1-7.157.444A8.767,8.767,0,0,0,590.97,251.152Z" transform="translate(-483.019 -132.676)" fill="#da6f27"/>
          <g id="Grupo_1135213" data-name="Grupo 1135213" transform="translate(92.305 86.212)">
            <path id="Trazado_935672" data-name="Trazado 935672" d="M601.61,238.66l5.146,8.8a1.535,1.535,0,0,1-1.28.235c-.6-.078-1.2-.183-1.828-.261l-5.407-9.247Q599.925,238.386,601.61,238.66Z" transform="translate(-589.333 -237.297)" fill="#f6f6f6"/>
            <path id="Trazado_935673" data-name="Trazado 935673" d="M600.88,238.036a6.644,6.644,0,0,1,2.926-.078h.261c.653.1,1.306.183,1.959.261l5.381,9.221c-1.855-.261-3.683-.522-5.538-.81Z" transform="translate(-600.88 -237.848)" fill="#f6f6f6"/>
          </g>
          <g id="Grupo_1135214" data-name="Grupo 1135214" transform="translate(125.4 90.108)">
            <path id="Trazado_935674" data-name="Trazado 935674" d="M591.48,248.92l-5.59-9.56c1.071.052,2.142.131,3.187.209l5.094,8.724C593.674,248.763,592.838,248.894,591.48,248.92Z" transform="translate(-577.584 -239.308)" fill="#f6f6f6"/>
            <path id="Trazado_935675" data-name="Trazado 935675" d="M593.422,248.561l-5.172-8.881a43.377,43.377,0,0,1,4.858-.34l5.564,9.534C596.922,248.822,595.172,248.691,593.422,248.561Z" transform="translate(-588.25 -239.34)" fill="#f6f6f6"/>
          </g>
        </g>
        <ellipse id="Elipse_9698" data-name="Elipse 9698" cx="2.168" cy="0.94" rx="2.168" ry="0.94" transform="translate(180.989 198.384) rotate(-107.152)" fill="#311d48"/>
      </g>
    </g>
  </g>
</svg>
