<svg xmlns="http://www.w3.org/2000/svg" width="71.574" height="71.574" viewBox="0 0 71.574 71.574">
  <g id="Grupo_1135221" data-name="Grupo 1135221" transform="translate(-370 -23591.357)">
    <g id="Grupo_1135209" data-name="Grupo 1135209" transform="translate(370 23591.357)">
      <path id="Trazado_861607" data-name="Trazado 861607" d="M35.787,0A35.787,35.787,0,1,1,0,35.787,35.787,35.787,0,0,1,35.787,0Z" fill="#ffb6c8"/>
    </g>
    <g id="baby_2102727" transform="translate(331.123 23602.277)">
      <path id="Trazado_939420" data-name="Trazado 939420" d="M162.517,258.861c5.555,0,10.058-4.126,10.058-15.725a10.058,10.058,0,1,0-20.115,0C152.459,254.735,156.962,258.861,162.517,258.861Z" transform="translate(-88.093 -210.438)" fill="#f7ef87"/>
      <path id="Trazado_939421" data-name="Trazado 939421" d="M147.995,311.969a1.143,1.143,0,0,0-1.439.953,10.684,10.684,0,0,0-.092,1.4c0,5.565,1.029,9.79,3.059,12.557a9.537,9.537,0,0,0,15.163,0,14,14,0,0,0,2.1-4.5c-4.737-5.748-13.863-9.049-18.788-10.416Z" transform="translate(-82.68 -281.627)" fill="#efd176"/>
      <circle id="Elipse_9699" data-name="Elipse 9699" cx="4.26" cy="4.26" r="4.26" transform="translate(82.393 17.151) rotate(-45)" fill="#ffbf9e"/>
      <circle id="Elipse_9700" data-name="Elipse 9700" cx="4.26" cy="4.26" r="4.26" transform="matrix(0.373, -0.928, 0.928, 0.373, 54.889, 19.518)" fill="#ffd4be"/>
      <path id="Trazado_939422" data-name="Trazado 939422" d="M141.131,49.478c0-7.315-6.2-13.246-13.848-13.246s-13.848,5.93-13.848,13.246,6.2,12.23,13.848,12.23S141.131,56.793,141.131,49.478Z" transform="translate(-52.858 -32.713)" fill="#ffd4be"/>
      <path id="Trazado_939423" data-name="Trazado 939423" d="M132.276,71.383c-15.1-2.762-14.485-17.789-10.578-23.6A13.242,13.242,0,0,0,113.434,59.9c0,7.315,6.2,12.23,13.848,12.23A16.556,16.556,0,0,0,132.276,71.383Z" transform="translate(-52.858 -43.14)" fill="#ffbf9e"/>
      <ellipse id="Elipse_9701" data-name="Elipse 9701" cx="2.711" cy="2.159" rx="2.711" ry="2.159" transform="translate(64.366 17.318)" fill="#eda1ab"/>
      <ellipse id="Elipse_9702" data-name="Elipse 9702" cx="2.711" cy="2.159" rx="2.711" ry="2.159" transform="translate(79.06 17.318)" fill="#eda1ab"/>
      <path id="Trazado_939424" data-name="Trazado 939424" d="M178.827,354.619c1.81-2.467,2.823-6.094,3.022-10.8a1.125,1.125,0,0,0-1.377-1.145,45.963,45.963,0,0,0-18.344,9.1,12.663,12.663,0,0,0,1.537,2.837,9.537,9.537,0,0,0,15.163,0Z" transform="translate(-96.821 -309.364)" fill="#eab65f"/>
      <g id="Grupo_1135220" data-name="Grupo 1135220" transform="translate(67.018 34.224)">
        <path id="Trazado_939425" data-name="Trazado 939425" d="M180.991,354.293a.726.726,0,0,1-.515-.213l-.508-.508a.729.729,0,0,1,1.03-1.03l.508.508a.728.728,0,0,1-.515,1.244Z" transform="translate(-179.755 -352.328)" fill="#eb9c32"/>
        <path id="Trazado_939426" data-name="Trazado 939426" d="M219.843,432.391a.728.728,0,0,1-.515-1.244l.595-.595a.729.729,0,0,1,1.03,1.03l-.595.595A.727.727,0,0,1,219.843,432.391Z" transform="translate(-215.291 -422.761)" fill="#eb9c32"/>
        <path id="Trazado_939427" data-name="Trazado 939427" d="M286.009,432.438a.726.726,0,0,1-.515-.213l-.583-.583a.728.728,0,0,1,1.03-1.03l.583.583a.729.729,0,0,1-.515,1.244Z" transform="translate(-274.504 -422.815)" fill="#eb9c32"/>
        <path id="Trazado_939428" data-name="Trazado 939428" d="M304.618,385.32a.728.728,0,0,1-.515-1.244l.491-.491a.729.729,0,0,1,1.03,1.03l-.491.491A.727.727,0,0,1,304.618,385.32Z" transform="translate(-291.831 -380.356)" fill="#eb9c32"/>
      </g>
      <path id="Trazado_939429" data-name="Trazado 939429" d="M295.191,317.583a.728.728,0,0,1-.515-1.244l.18-.18a.729.729,0,0,1,1.03,1.03l-.18.18A.727.727,0,0,1,295.191,317.583Z" transform="translate(-216.302 -285.256)" fill="#efd176"/>
      <path id="Trazado_939430" data-name="Trazado 939430" d="M73.765,18.024a2.583,2.583,0,0,0,1.948-.887.728.728,0,0,0-1.1-.957,1.125,1.125,0,0,1-1.7,0,.729.729,0,1,0-1.1.957A2.583,2.583,0,0,0,73.765,18.024Zm11.534,0a2.584,2.584,0,0,0,1.948-.887.729.729,0,0,0-1.1-.957,1.125,1.125,0,0,1-1.7,0,.729.729,0,0,0-1.1.957A2.584,2.584,0,0,0,85.3,18.024Zm-4.685.543a1.084,1.084,0,1,0-1.081,1.153A1.119,1.119,0,0,0,80.613,18.568Zm12.684-6.4a14.6,14.6,0,0,0-14.54-9.354,1.754,1.754,0,0,1,1.705-1.356.729.729,0,0,0,0-1.457,3.213,3.213,0,0,0-3.2,2.959,14.791,14.791,0,0,0-6.292,2.495.729.729,0,1,0,.833,1.2A13.338,13.338,0,0,1,77.445,4.4a3.836,3.836,0,0,0,3.638,2.634.729.729,0,0,0,0-1.457,2.375,2.375,0,0,1-2.126-1.321c7.554-.309,13.7,5.473,13.7,12.5,0,7.121-6.118,11.5-13.12,11.5-7.072,0-13.12-4.432-13.12-11.5A12.191,12.191,0,0,1,69.35,8.871a.729.729,0,1,0-1.109-.946,13.8,13.8,0,0,0-2.472,4.241,4.988,4.988,0,1,0,.364,9.934,12.42,12.42,0,0,0,4.229,4.918,10.664,10.664,0,0,0-1.236,2.84,1.864,1.864,0,0,0-.863,1.34,11.459,11.459,0,0,0-.1,1.5c0,4.365.627,9.481,3.2,12.987a9.736,9.736,0,0,0,8.169,4.049,9.87,9.87,0,0,0,6.95-2.659.729.729,0,1,0-1-1.056,8.873,8.873,0,0,1-12.94-1.195,11.577,11.577,0,0,1-1.244-2.187,45.081,45.081,0,0,1,17.629-8.614.4.4,0,0,1,.484.4,21.6,21.6,0,0,1-2,8.977.728.728,0,0,0,1.292.673,23.007,23.007,0,0,0,2.167-9.588,1.839,1.839,0,0,0-.547-1.4c0-.139,0-.269,0-.4A10.7,10.7,0,0,0,88.7,27.019,12.422,12.422,0,0,0,92.931,22.1a4.988,4.988,0,1,0,.366-9.934ZM62,17.149a3.535,3.535,0,0,1,3.327-3.525,13.007,13.007,0,0,0,.237,7.055A3.533,3.533,0,0,1,62,17.149Zm8.748,24.058A27.886,27.886,0,0,1,69.62,32.7a9.994,9.994,0,0,1,.086-1.308.414.414,0,0,1,.522-.347A54.146,54.146,0,0,1,80.821,35.2,47.188,47.188,0,0,0,70.751,41.207Zm18.107-8.644a1.883,1.883,0,0,0-.266.042,44.028,44.028,0,0,0-6.051,1.886,54.286,54.286,0,0,0-11.834-4.825,9.217,9.217,0,0,1,.9-1.881,17.156,17.156,0,0,0,15.857,0A9.25,9.25,0,0,1,88.858,32.563ZM93.5,20.679a13.063,13.063,0,0,0,.241-7.055,3.53,3.53,0,0,1-.241,7.055Z" transform="translate(-5.108)"/>
    </g>
  </g>
</svg>
