<svg xmlns="http://www.w3.org/2000/svg" width="71.574" height="71.574" viewBox="0 0 71.574 71.574">
  <g id="Grupo_1135224" data-name="Grupo 1135224" transform="translate(-370.023 -23670.023)">
    <g id="Grupo_1135210" data-name="Grupo 1135210" transform="translate(370.023 23670.023)">
      <g id="Grupo_1106730" data-name="Grupo 1106730" transform="translate(0 0)">
        <path id="Trazado_861606" data-name="Trazado 861606" d="M35.787,0A35.787,35.787,0,1,1,0,35.787,35.787,35.787,0,0,1,35.787,0Z" fill="#ffb6c8"/>
      </g>
    </g>
    <g id="child_6118783" transform="translate(370.002 23681.967)">
      <path id="Trazado_939431" data-name="Trazado 939431" d="M136.048,370.306a2.935,2.935,0,0,0,2.822-3.744,13.548,13.548,0,0,0-26.038,0,2.935,2.935,0,0,0,2.822,3.744Z" transform="translate(-90.066 -324.06)" fill="#72d98b"/>
      <path id="Trazado_939432" data-name="Trazado 939432" d="M140.747,356.763a13.536,13.536,0,0,0-11.631,6.6l2.466,2.466a1.429,1.429,0,0,0,2.021,0l2.168-2.168a1.271,1.271,0,0,1,1.8,0l2.168,2.168a1.429,1.429,0,0,0,2.021,0l2.169-2.169a1.271,1.271,0,0,1,1.8,0l2.169,2.169a1.429,1.429,0,0,0,2.021,0l2.466-2.466A13.536,13.536,0,0,0,140.747,356.763Z" transform="translate(-104.963 -324.06)" fill="#ff6e80"/>
      <path id="Trazado_939433" data-name="Trazado 939433" d="M157.689,363.181a23.5,23.5,0,0,0,9.922-2.09,13.537,13.537,0,0,0-19.843,0,23.5,23.5,0,0,0,9.922,2.09Z" transform="translate(-121.904 -324.06)" fill="#f8475e"/>
      <ellipse id="Elipse_9703" data-name="Elipse 9703" cx="4.99" cy="4.469" rx="4.99" ry="4.469" transform="translate(14.248 20.2)" fill="#ffbb85"/>
      <ellipse id="Elipse_9704" data-name="Elipse 9704" cx="4.99" cy="4.469" rx="4.99" ry="4.469" transform="translate(47.341 20.2)" fill="#ffbb85"/>
      <path id="Trazado_939434" data-name="Trazado 939434" d="M108.669,106.039c0,8.17-7.4,13.305-16.537,13.305s-16.537-5.135-16.537-13.305S83,91.246,92.131,91.246,108.669,97.869,108.669,106.039Z" transform="translate(-56.347 -82.882)" fill="#fdd1a3"/>
      <path id="Trazado_939435" data-name="Trazado 939435" d="M79.8,15.769c-3.15-2.6-9.044-4.374-14.3-3.433a.47.47,0,0,1-.554-.5,24.022,24.022,0,0,0,.081-2.811,1.561,1.561,0,0,0-2.27-1.342,10.077,10.077,0,0,0-4.279,4.964.467.467,0,0,1-.587.264c-5.715-2-12.9-.115-16.5,2.861A1.443,1.443,0,0,0,41.56,18.1a14.874,14.874,0,0,0,3.72,1.536.364.364,0,0,1,.21.544c-1.648,2.629-3.174,6.37-2.693,9.339a1.536,1.536,0,0,0,2.548.9A24.193,24.193,0,0,0,50.179,22.9a.4.4,0,0,1,.738.033,9.585,9.585,0,0,0,1.2,2.407A1.763,1.763,0,0,0,54.13,26,14.669,14.669,0,0,0,60.2,21.789a.548.548,0,0,1,.8,0A14.669,14.669,0,0,0,67.066,26a1.763,1.763,0,0,0,2.011-.662,9.585,9.585,0,0,0,1.2-2.407.4.4,0,0,1,.738-.033,24.194,24.194,0,0,0,4.833,7.521,1.536,1.536,0,0,0,2.548-.9c.481-2.969-1.045-6.71-2.693-9.339a.364.364,0,0,1,.21-.544,14.876,14.876,0,0,0,3.72-1.537,1.443,1.443,0,0,0,.164-2.334Z" transform="translate(-24.813 -6.82)" fill="#5972a4"/>
      <g id="Grupo_1135223" data-name="Grupo 1135223" transform="translate(25.949 24.915)">
        <g id="Grupo_1135222" data-name="Grupo 1135222">
          <ellipse id="Elipse_9705" data-name="Elipse 9705" cx="2.651" cy="2.111" rx="2.651" ry="2.111" fill="#ffa1ac"/>
          <ellipse id="Elipse_9706" data-name="Elipse 9706" cx="2.651" cy="2.111" rx="2.651" ry="2.111" transform="translate(14.369)" fill="#ffa1ac"/>
        </g>
      </g>
      <path id="Trazado_939436" data-name="Trazado 939436" d="M30.145,22.78A1.952,1.952,0,0,0,28.2,24.729a.687.687,0,1,0,1.375,0,.574.574,0,0,1,1.149,0,.687.687,0,1,0,1.375,0,1.952,1.952,0,0,0-1.949-1.949Zm11.279,0a1.952,1.952,0,0,0-1.949,1.949.687.687,0,1,0,1.375,0,.574.574,0,0,1,1.149,0,.687.687,0,1,0,1.375,0,1.952,1.952,0,0,0-1.949-1.949ZM54.214,19.8a19.8,19.8,0,0,0-2.517-6.44,14.953,14.953,0,0,0,3.488-1.5,2.131,2.131,0,0,0,.239-3.448C52.14,5.7,46.176,3.931,40.843,4.793a24.7,24.7,0,0,0,.06-2.612A2.248,2.248,0,0,0,37.633.249a10.656,10.656,0,0,0-4.522,5.125,18.155,18.155,0,0,0-9.088-.419.687.687,0,1,0,.262,1.35,16.693,16.693,0,0,1,8.566.434A1.154,1.154,0,0,0,34.3,6.086a9.435,9.435,0,0,1,3.956-4.613.872.872,0,0,1,1.27.752,23.228,23.228,0,0,1-.079,2.727,1.157,1.157,0,0,0,1.36,1.241A18.246,18.246,0,0,1,54.548,9.479a.755.755,0,0,1-.088,1.22,14.207,14.207,0,0,1-3.544,1.459,1.051,1.051,0,0,0-.606,1.571c2.363,3.769,2.891,7.05,2.6,8.864a.848.848,0,0,1-1.4.5,23.489,23.489,0,0,1-4.67-7.293,1.083,1.083,0,0,0-2.02.1A8.868,8.868,0,0,1,43.7,18.128a1.071,1.071,0,0,1-1.228.4A13.989,13.989,0,0,1,36.69,14.5a1.236,1.236,0,0,0-1.811,0A13.989,13.989,0,0,1,29.1,18.533a1.072,1.072,0,0,1-1.228-.4A8.872,8.872,0,0,1,26.757,15.9a1.083,1.083,0,0,0-2.02-.1,23.487,23.487,0,0,1-4.67,7.293.848.848,0,0,1-1.4-.5c-.294-1.814.234-5.1,2.6-8.864a1.051,1.051,0,0,0-.606-1.571A14.206,14.206,0,0,1,17.111,10.7a.755.755,0,0,1-.09-1.219,14.621,14.621,0,0,1,4.2-2.321.688.688,0,1,0-.477-1.29,16,16,0,0,0-4.6,2.551,2.13,2.13,0,0,0,.241,3.446,14.957,14.957,0,0,0,3.488,1.495,19.8,19.8,0,0,0-2.517,6.44,5.212,5.212,0,0,0-3.8,4.866c0,3.241,3.267,5.684,6.774,5.059a14.456,14.456,0,0,0,6.4,5.536,14.267,14.267,0,0,0-4.632,7.049,3.621,3.621,0,0,0,3.482,4.622H44.194a.687.687,0,0,0,0-1.375H25.587a2.247,2.247,0,0,1-2.161-2.867,12.736,12.736,0,0,1,.888-2.253l1.819,1.819a2.119,2.119,0,0,0,2.993,0l2.168-2.168a.583.583,0,0,1,.825,0l2.168,2.168a2.119,2.119,0,0,0,2.993,0l2.169-2.169a.583.583,0,0,1,.825,0l2.169,2.169a2.119,2.119,0,0,0,2.993,0l1.819-1.819a12.741,12.741,0,0,1,.888,2.253,2.243,2.243,0,0,1-1.063,2.583.687.687,0,1,0,.673,1.2,3.612,3.612,0,0,0,1.712-4.162,14.266,14.266,0,0,0-4.633-7.048,14.456,14.456,0,0,0,6.4-5.536c3.519.627,6.774-1.829,6.774-5.059a5.212,5.212,0,0,0-3.8-4.866ZM14.936,24.668a3.753,3.753,0,0,1,2.273-3.334,8.2,8.2,0,0,0,.1,1.478,2.233,2.233,0,0,0,1.322,1.7,12.544,12.544,0,0,0,1.029,3.921A4.122,4.122,0,0,1,14.936,24.668ZM46.542,39.207l-2.078,2.078a.742.742,0,0,1-1.048,0l-2.169-2.169a1.957,1.957,0,0,0-2.769,0l-2.169,2.169a.742.742,0,0,1-1.048,0l-2.168-2.168a1.957,1.957,0,0,0-2.769,0l-2.168,2.168a.742.742,0,0,1-1.048,0l-2.078-2.078a12.938,12.938,0,0,1,3.172-3.34,23.051,23.051,0,0,0,15.171,0A12.932,12.932,0,0,1,46.542,39.207ZM20.024,24.633A2.2,2.2,0,0,0,21,24.109a23.9,23.9,0,0,0,4.7-7.1,10.305,10.305,0,0,0,1.04,1.911,2.437,2.437,0,0,0,2.794.92,15.179,15.179,0,0,0,6.249-4.289,15.179,15.179,0,0,0,6.249,4.289,2.437,2.437,0,0,0,2.794-.919,10.3,10.3,0,0,0,1.04-1.911,23.907,23.907,0,0,0,4.7,7.1,2.2,2.2,0,0,0,.973.523c-1.8,14.878-29.726,14.849-31.521,0Zm31.889,3.8a12.542,12.542,0,0,0,1.029-3.921,2.233,2.233,0,0,0,1.322-1.7,8.191,8.191,0,0,0,.1-1.478,3.752,3.752,0,0,1,2.273,3.333,4.123,4.123,0,0,1-4.721,3.761ZM37.575,25.685a.687.687,0,0,0-.97.067,1.086,1.086,0,0,1-1.64,0,.687.687,0,1,0-1.036.9,2.461,2.461,0,0,0,3.713,0A.687.687,0,0,0,37.575,25.685Z" transform="translate(0 0)"/>
    </g>
  </g>
</svg>
