<svg xmlns="http://www.w3.org/2000/svg" width="71.574" height="71.574" viewBox="0 0 71.574 71.574">
  <g id="Grupo_1135284" data-name="Grupo 1135284" transform="translate(-370.023 -23745.734)">
    <g id="Grupo_1135211" data-name="Grupo 1135211" transform="translate(370.023 23745.734)">
      <g id="Grupo_1106731" data-name="Grupo 1106731" transform="translate(0 0)">
        <path id="Trazado_861606" data-name="Trazado 861606" d="M35.787,0A35.787,35.787,0,1,1,0,35.787,35.787,35.787,0,0,1,35.787,0Z" fill="#ffb6c8"/>
      </g>
    </g>
    <g id="boy_5427437" transform="translate(293.314 23758.744)">
      <g id="Grupo_1135270" data-name="Grupo 1135270" transform="translate(99.122 0.667)">
        <g id="Grupo_1135227" data-name="Grupo 1135227" transform="translate(0 29.783)">
          <g id="Grupo_1135226" data-name="Grupo 1135226">
            <g id="Grupo_1135225" data-name="Grupo 1135225">
              <path id="Trazado_939437" data-name="Trazado 939437" d="M130.943,356.681H107.662a1.71,1.71,0,0,1-1.7-1.923l.955-7.593a5.622,5.622,0,0,1,5.578-4.92h13.607a5.622,5.622,0,0,1,5.578,4.92l.955,7.593A1.71,1.71,0,0,1,130.943,356.681Z" transform="translate(-105.952 -342.245)" fill="#dfebfa"/>
            </g>
          </g>
        </g>
        <g id="Grupo_1135230" data-name="Grupo 1135230" transform="translate(0 29.783)">
          <g id="Grupo_1135229" data-name="Grupo 1135229">
            <g id="Grupo_1135228" data-name="Grupo 1135228">
              <path id="Trazado_939438" data-name="Trazado 939438" d="M108.528,354.758l.955-7.593a5.622,5.622,0,0,1,5.578-4.92H112.5a5.622,5.622,0,0,0-5.578,4.92l-.955,7.593a1.71,1.71,0,0,0,1.7,1.923h2.562A1.71,1.71,0,0,1,108.528,354.758Z" transform="translate(-105.952 -342.245)" fill="#b1dbfc"/>
            </g>
          </g>
        </g>
        <g id="Grupo_1135233" data-name="Grupo 1135233" transform="translate(0 34.703)">
          <g id="Grupo_1135232" data-name="Grupo 1135232">
            <g id="Grupo_1135231" data-name="Grupo 1135231">
              <path id="Trazado_939439" data-name="Trazado 939439" d="M106.921,397.543l-.955,7.593a1.709,1.709,0,0,0,1.7,1.923h4.376l.561-5.4Z" transform="translate(-105.952 -397.543)" fill="#d29771"/>
            </g>
          </g>
        </g>
        <g id="Grupo_1135236" data-name="Grupo 1135236" transform="translate(5.089 29.783)">
          <g id="Grupo_1135235" data-name="Grupo 1135235">
            <g id="Grupo_1135234" data-name="Grupo 1135234">
              <path id="Trazado_939440" data-name="Trazado 939440" d="M179.744,342.457a5.622,5.622,0,0,0-1.528-.211H164.609a5.618,5.618,0,0,0-1.458.193l5.216,4.1a4.982,4.982,0,0,0,6.106,0Z" transform="translate(-163.151 -342.246)" fill="#ffd05b"/>
            </g>
          </g>
        </g>
        <g id="Grupo_1135239" data-name="Grupo 1135239" transform="translate(5.089 29.783)">
          <g id="Grupo_1135238" data-name="Grupo 1135238">
            <g id="Grupo_1135237" data-name="Grupo 1135237">
              <path id="Trazado_939441" data-name="Trazado 939441" d="M163.151,342.439l.991.778a5.6,5.6,0,0,1,3.157-.971h-2.69a5.611,5.611,0,0,0-1.458.193Z" transform="translate(-163.151 -342.246)" fill="#ffc244"/>
            </g>
          </g>
        </g>
        <g id="Grupo_1135242" data-name="Grupo 1135242" transform="translate(0 34.703)">
          <g id="Grupo_1135241" data-name="Grupo 1135241">
            <g id="Grupo_1135240" data-name="Grupo 1135240">
              <path id="Trazado_939442" data-name="Trazado 939442" d="M108.528,405.137l.741-5.891-2.348-1.7-.955,7.593a1.71,1.71,0,0,0,1.7,1.923h2.562A1.71,1.71,0,0,1,108.528,405.137Z" transform="translate(-105.952 -397.544)" fill="#ba7e5d"/>
            </g>
          </g>
        </g>
        <g id="Grupo_1135245" data-name="Grupo 1135245" transform="translate(20.054 34.703)">
          <g id="Grupo_1135244" data-name="Grupo 1135244">
            <g id="Grupo_1135243" data-name="Grupo 1135243">
              <path id="Trazado_939443" data-name="Trazado 939443" d="M337.024,397.543l.955,7.593a1.71,1.71,0,0,1-1.7,1.923h-4.376l-.561-5.4Z" transform="translate(-331.347 -397.543)" fill="#d29771"/>
            </g>
          </g>
        </g>
        <g id="Grupo_1135248" data-name="Grupo 1135248" transform="translate(0.458 13.059)">
          <g id="Grupo_1135247" data-name="Grupo 1135247">
            <g id="Grupo_1135246" data-name="Grupo 1135246">
              <path id="Trazado_939444" data-name="Trazado 939444" d="M115.52,159.606H112.8a1.7,1.7,0,0,1-1.7-1.7v-1.94a1.7,1.7,0,0,1,1.7-1.7h2.723Z" transform="translate(-111.099 -154.271)" fill="#ba7e5d"/>
            </g>
          </g>
        </g>
        <g id="Grupo_1135251" data-name="Grupo 1135251" transform="translate(21.821 13.059)">
          <g id="Grupo_1135250" data-name="Grupo 1135250">
            <g id="Grupo_1135249" data-name="Grupo 1135249">
              <path id="Trazado_939445" data-name="Trazado 939445" d="M351.211,154.271h2.723a1.7,1.7,0,0,1,1.7,1.7v1.94a1.7,1.7,0,0,1-1.7,1.7h-2.723Z" transform="translate(-351.211 -154.271)" fill="#ba7e5d"/>
            </g>
          </g>
        </g>
        <g id="Grupo_1135254" data-name="Grupo 1135254" transform="translate(9.028 24.988)">
          <g id="Grupo_1135253" data-name="Grupo 1135253">
            <g id="Grupo_1135252" data-name="Grupo 1135252">
              <path id="Trazado_939446" data-name="Trazado 939446" d="M214.8,290.484v-2.137h-6.126v2.137a3.1,3.1,0,0,1-.685,1.945l-.574.714,2.827,2.192a2.44,2.44,0,0,0,2.991,0l2.827-2.192-.574-.714A3.1,3.1,0,0,1,214.8,290.484Z" transform="translate(-207.418 -288.347)" fill="#d29771"/>
            </g>
          </g>
        </g>
        <g id="Grupo_1135257" data-name="Grupo 1135257" transform="translate(9.028 24.988)">
          <g id="Grupo_1135256" data-name="Grupo 1135256">
            <g id="Grupo_1135255" data-name="Grupo 1135255">
              <path id="Trazado_939447" data-name="Trazado 939447" d="M214.8,290.484v-2.137h-6.126v2.137a3.1,3.1,0,0,1-.685,1.945l-.574.714,1.546,1.2L210,292.994a3.1,3.1,0,0,0,.281-.414,1.1,1.1,0,0,1,1-.55q.23.01.462.01a10.946,10.946,0,0,0,3.251-.492A3.1,3.1,0,0,1,214.8,290.484Z" transform="translate(-207.418 -288.347)" fill="#ba7e5d"/>
            </g>
          </g>
        </g>
        <g id="Grupo_1135260" data-name="Grupo 1135260" transform="translate(3.79 3.721)">
          <g id="Grupo_1135259" data-name="Grupo 1135259">
            <g id="Grupo_1135258" data-name="Grupo 1135258">
              <path id="Trazado_939448" data-name="Trazado 939448" d="M158.109,72.5a9.16,9.16,0,0,1-9.129-8.41l-.4-4.861a9.16,9.16,0,0,1,9.129-9.91h.8a9.16,9.16,0,0,1,9.129,9.91l-.4,4.861A9.16,9.16,0,0,1,158.109,72.5Z" transform="translate(-148.549 -49.32)" fill="#d29771"/>
            </g>
          </g>
        </g>
        <g id="Grupo_1135263" data-name="Grupo 1135263" transform="translate(3.79 3.721)">
          <g id="Grupo_1135262" data-name="Grupo 1135262">
            <g id="Grupo_1135261" data-name="Grupo 1135261">
              <path id="Trazado_939449" data-name="Trazado 939449" d="M151.063,64.091l-.4-4.861a9.16,9.16,0,0,1,8.488-9.887c-.212-.015-.426-.023-.642-.023h-.8a9.16,9.16,0,0,0-9.129,9.91l.4,4.861a9.162,9.162,0,0,0,10.17,8.351A9.161,9.161,0,0,1,151.063,64.091Z" transform="translate(-148.55 -49.32)" fill="#ba7e5d"/>
            </g>
          </g>
        </g>
        <g id="Grupo_1135266" data-name="Grupo 1135266" transform="translate(0.237 0)">
          <g id="Grupo_1135265" data-name="Grupo 1135265">
            <g id="Grupo_1135264" data-name="Grupo 1135264">
              <path id="Trazado_939450" data-name="Trazado 939450" d="M132.891,13.408A2.2,2.2,0,0,1,131.258,12l-.61-1.7a2.184,2.184,0,0,0-2.056-1.446h-.548A2.737,2.737,0,0,1,126.7,8.5l-.777-.439a4.332,4.332,0,0,0-2.128-.559h-4.2a4.332,4.332,0,0,0-2.128.559l-.777.439a2.737,2.737,0,0,1-1.345.353h-.548a2.184,2.184,0,0,0-2.056,1.446l-.61,1.7a2.2,2.2,0,0,1-1.633,1.411,2.2,2.2,0,0,0-1.687,1.581l-.044.164a4.3,4.3,0,0,0,1.026,4.075l1.257,1.331h2.289a1.127,1.127,0,0,0,.9-.455l.789-1.063a1.127,1.127,0,0,1,1.594-.22l.671.518a1.127,1.127,0,0,0,1.631-.274l.323-.493a1.127,1.127,0,0,1,1.693-.223,1.127,1.127,0,0,0,1.5,0,1.127,1.127,0,0,1,1.693.223l.323.493a1.127,1.127,0,0,0,1.631.274l.671-.518a1.127,1.127,0,0,1,1.594.22l.789,1.063a1.127,1.127,0,0,0,.9.455h2.289l1.257-1.331a4.3,4.3,0,0,0,1.026-4.075l-.044-.164A2.2,2.2,0,0,0,132.891,13.408Z" transform="translate(-108.615 -7.5)" fill="#50412e"/>
            </g>
          </g>
        </g>
        <g id="Grupo_1135269" data-name="Grupo 1135269" transform="translate(0.237)">
          <g id="Grupo_1135268" data-name="Grupo 1135268">
            <g id="Grupo_1135267" data-name="Grupo 1135267">
              <path id="Trazado_939451" data-name="Trazado 939451" d="M112.4,19.226a4.3,4.3,0,0,1-1.026-4.075l.044-.164a2.2,2.2,0,0,1,1.687-1.581A2.2,2.2,0,0,0,114.734,12l.61-1.7A2.184,2.184,0,0,1,117.4,8.849h.548a2.737,2.737,0,0,0,1.345-.353l.777-.439A4.332,4.332,0,0,1,122.2,7.5h-2.605a4.332,4.332,0,0,0-2.128.559l-.777.439a2.737,2.737,0,0,1-1.345.353h-.548a2.184,2.184,0,0,0-2.056,1.446l-.61,1.7a2.2,2.2,0,0,1-1.633,1.411,2.2,2.2,0,0,0-1.687,1.581l-.044.164a4.3,4.3,0,0,0,1.026,4.075l1.257,1.331h2.289a1.128,1.128,0,0,0,.282-.037Z" transform="translate(-108.616 -7.498)" fill="#443728"/>
            </g>
          </g>
        </g>
      </g>
      <g id="Grupo_1135283" data-name="Grupo 1135283" transform="translate(98.455 0)">
        <g id="Grupo_1135272" data-name="Grupo 1135272">
          <g id="Grupo_1135271" data-name="Grupo 1135271">
            <path id="Trazado_939452" data-name="Trazado 939452" d="M126.471,42.88l-.357-2.835a.667.667,0,1,0-1.324.167l.357,2.835a1.042,1.042,0,0,1-1.034,1.172h-3.774L119.88,39.8l4.452-3.227.118.939a.667.667,0,1,0,1.324-.167l-.259-2.058a6.3,6.3,0,0,0-6.24-5.5h-2.161l-.374-.465a2.443,2.443,0,0,1-.538-1.527V27.5a9.834,9.834,0,0,0,6.008-7.774h1.457a2.368,2.368,0,0,0,2.365-2.365v-1.94a2.369,2.369,0,0,0-1.541-2.216l.334-.354a5,5,0,0,0,1.185-4.707l-.044-.164a2.846,2.846,0,0,0-2.2-2.061,1.528,1.528,0,0,1-.913-.57.667.667,0,1,0-1.06.811A2.862,2.862,0,0,0,123.5,7.23a1.519,1.519,0,0,1,1.174,1.1l.044.164a3.659,3.659,0,0,1-.867,3.443L122.8,13.059h-2a.462.462,0,0,1-.369-.186l-.789-1.063a1.794,1.794,0,0,0-2.538-.351l-.671.518a.46.46,0,0,1-.666-.112l-.323-.493a1.794,1.794,0,0,0-2.7-.355.459.459,0,0,1-.612,0,1.794,1.794,0,0,0-2.7.355l-.323.493a.46.46,0,0,1-.666.112l-.671-.518a1.794,1.794,0,0,0-2.538.35l-.789,1.063a.462.462,0,0,1-.369.186h-2l-1.059-1.122a3.66,3.66,0,0,1-.867-3.443l.044-.164a1.519,1.519,0,0,1,1.174-1.1A2.878,2.878,0,0,0,103.5,5.39l.61-1.7a1.52,1.52,0,0,1,1.428-1h.548a3.412,3.412,0,0,0,1.673-.439l.777-.439a3.675,3.675,0,0,1,1.8-.473h4.2a3.673,3.673,0,0,1,1.8.473l.778.439a3.412,3.412,0,0,0,1.673.439h.548a1.52,1.52,0,0,1,1.428,1,.667.667,0,0,0,1.256-.451,2.859,2.859,0,0,0-2.684-1.888h-.548a2.074,2.074,0,0,1-1.017-.267l-.778-.439A5.012,5.012,0,0,0,114.538,0h-4.2a5.009,5.009,0,0,0-2.456.645l-.777.438a2.075,2.075,0,0,1-1.017.267h-.548a2.858,2.858,0,0,0-2.684,1.888l-.61,1.7a1.536,1.536,0,0,1-1.137.982,2.846,2.846,0,0,0-2.2,2.061l-.044.164a5,5,0,0,0,1.185,4.707l.353.374a2.368,2.368,0,0,0-1.489,2.2v1.94a2.368,2.368,0,0,0,2.365,2.365h1.457a9.834,9.834,0,0,0,6.008,7.774v.29a2.443,2.443,0,0,1-.538,1.527l-.374.465h-2.161a6.3,6.3,0,0,0-6.24,5.5l-.955,7.593a2.377,2.377,0,0,0,2.358,2.674h6.69a.667.667,0,1,0,0-1.335h-1.574l.787-7.576a.667.667,0,0,0-1.327-.138l-.183,1.761-4.407-3.194a4.968,4.968,0,0,1,3.256-3.69l4.946,3.884a5.65,5.65,0,0,0,6.923,0l4.991-3.863a4.967,4.967,0,0,1,3.194,3.668l-4.407,3.194-.183-1.761a.667.667,0,0,0-1.327.138L119,44.219h-8.714a.667.667,0,1,0,0,1.335h13.83a2.377,2.377,0,0,0,2.358-2.674Zm-21.865,1.339h-3.774A1.042,1.042,0,0,1,99.8,43.047l.815-6.475,4.452,3.227Zm19.061-29.826a1.031,1.031,0,0,1,1.03,1.03v1.94a1.031,1.031,0,0,1-1.03,1.03h-1.333l.11-1.333h.711a.667.667,0,0,0,0-1.335h-.6l.11-1.333h1Zm-23.42,2.97v-1.94a1.031,1.031,0,0,1,1.03-1.03h1l.11,1.333h-.6a.667.667,0,1,0,0,1.335h.711l.11,1.333h-1.333A1.031,1.031,0,0,1,100.247,17.364Zm3.761,1.741-.387-4.711h.458a1.8,1.8,0,0,0,1.441-.725l.789-1.063a.46.46,0,0,1,.65-.09l.671.518a1.794,1.794,0,0,0,2.6-.436l.323-.493a.46.46,0,0,1,.691-.091,1.794,1.794,0,0,0,2.39,0,.46.46,0,0,1,.691.091l.323.493a1.794,1.794,0,0,0,2.6.436l.671-.518a.46.46,0,0,1,.65.09l.789,1.063a1.8,1.8,0,0,0,1.441.725h.529l-.387,4.711a8.493,8.493,0,0,1-16.928,0Zm8.464,9.132a9.846,9.846,0,0,0,2.4-.3,3.783,3.783,0,0,0,.83,2.216l.148.184-2.29,1.776a1.773,1.773,0,0,1-2.173,0l-2.29-1.776.148-.184a3.784,3.784,0,0,0,.83-2.216,9.846,9.846,0,0,0,2.4.3Zm2.652,5.977a4.315,4.315,0,0,1-5.285,0l-3.944-3.1h2.025l2.646,2.052a3.107,3.107,0,0,0,3.809,0l2.647-2.052h2.1Z" transform="translate(-98.455 0)"/>
          </g>
        </g>
        <g id="Grupo_1135274" data-name="Grupo 1135274" transform="translate(10.659 21.728)">
          <g id="Grupo_1135273" data-name="Grupo 1135273">
            <path id="Trazado_939453" data-name="Trazado 939453" d="M224.271,245.689l.389-.241a.667.667,0,0,0-.7-1.135l-.389.241a3.684,3.684,0,0,1-3.9,0l-.389-.241a.667.667,0,1,0-.7,1.135l.389.241a5.012,5.012,0,0,0,5.306,0Z" transform="translate(-218.26 -244.214)"/>
          </g>
        </g>
        <g id="Grupo_1135276" data-name="Grupo 1135276" transform="translate(7.382 15.16)">
          <g id="Grupo_1135275" data-name="Grupo 1135275">
            <path id="Trazado_939454" data-name="Trazado 939454" d="M185.656,171.906a.667.667,0,0,0-.216-.919l-.216-.134a3.082,3.082,0,0,0-3.263,0l-.216.134a.667.667,0,1,0,.7,1.135l.216-.134a1.755,1.755,0,0,1,1.858,0l.216.134A.668.668,0,0,0,185.656,171.906Z" transform="translate(-181.428 -170.386)"/>
          </g>
        </g>
        <g id="Grupo_1135278" data-name="Grupo 1135278" transform="translate(16.324 15.16)">
          <g id="Grupo_1135277" data-name="Grupo 1135277">
            <path id="Trazado_939455" data-name="Trazado 939455" d="M282.947,172.121l.216-.134a1.755,1.755,0,0,1,1.858,0l.216.134a.667.667,0,1,0,.7-1.135l-.216-.134a3.082,3.082,0,0,0-3.263,0l-.216.134a.667.667,0,1,0,.7,1.135Z" transform="translate(-281.928 -170.385)"/>
          </g>
        </g>
        <g id="Grupo_1135280" data-name="Grupo 1135280" transform="translate(8.731 17.628)">
          <g id="Grupo_1135279" data-name="Grupo 1135279">
            <circle id="Elipse_9707" data-name="Elipse 9707" cx="0.815" cy="0.815" r="0.815"/>
          </g>
        </g>
        <g id="Grupo_1135282" data-name="Grupo 1135282" transform="translate(17.673 17.628)">
          <g id="Grupo_1135281" data-name="Grupo 1135281">
            <circle id="Elipse_9708" data-name="Elipse 9708" cx="0.815" cy="0.815" r="0.815"/>
          </g>
        </g>
      </g>
    </g>
  </g>
</svg>
