<svg xmlns="http://www.w3.org/2000/svg" width="71.574" height="71.574" viewBox="0 0 71.574 71.574">
  <g id="Grupo_1135286" data-name="Grupo 1135286" transform="translate(-370.023 -23821.445)">
    <g id="Grupo_1135218" data-name="Grupo 1135218" transform="translate(370.023 23821.445)">
      <g id="Grupo_1106731" data-name="Grupo 1106731" transform="translate(0 0)">
        <path id="Trazado_861606" data-name="Trazado 861606" d="M35.787,0A35.787,35.787,0,1,1,0,35.787,35.787,35.787,0,0,1,35.787,0Z" fill="#ffb6c8"/>
      </g>
    </g>
    <g id="young-man_4440953" transform="translate(372.761 23830.186)">
      <path id="Trazado_939456" data-name="Trazado 939456" d="M51.517,84.62a4.918,4.918,0,0,0-3.748-4.263l-9.144-2.184-.362-4.265a13.806,13.806,0,0,1-1.878,1.159,4.99,4.99,0,0,1-4.537,0,13.759,13.759,0,0,1-1.878-1.159l-.362,4.264L20.46,80.357a4.918,4.918,0,0,0-3.748,4.263l-.784,7.366H52.3Z" transform="translate(-1.089 -43.114)" fill="#ffe17d"/>
      <path id="Trazado_939457" data-name="Trazado 939457" d="M61.1,98.994V85.181a4.51,4.51,0,0,1-9.02,0V98.994Z" transform="translate(-23.563 -50.122)" fill="#e6646e"/>
      <path id="Trazado_939458" data-name="Trazado 939458" d="M41,85.92l-1.762,8.5,4.857-1.7V85.181Z" transform="translate(-15.582 -50.122)" fill="#ffd164"/>
      <path id="Trazado_939459" data-name="Trazado 939459" d="M79.016,85.92l1.762,8.5-4.857-1.7V85.181Z" transform="translate(-38.386 -50.122)" fill="#ffd164"/>
      <path id="Trazado_939460" data-name="Trazado 939460" d="M36.912,20.867l1.532-1.545a4.619,4.619,0,0,0,1.3-2.658l.315-2.428a26.978,26.978,0,0,0,6.219.662,26.978,26.978,0,0,0,6.219-.662l.315,2.428a4.616,4.616,0,0,0,1.3,2.658l1.532,1.545a3.086,3.086,0,0,1,1.418-.265V16.278c0-9.971-9.393-9.971-9.393-9.971H36.5a4.6,4.6,0,0,0,2.33,3.808,5.016,5.016,0,0,0-3.335,4.726V20.6a3.086,3.086,0,0,1,1.418.264Z" transform="translate(-13.253 -1.088)" fill="#cd916e"/>
      <path id="Trazado_939461" data-name="Trazado 939461" d="M34.354,44.341s-2.116-1.015-2.827.857a2.817,2.817,0,0,0,3.445,3.63h17.5a2.817,2.817,0,0,0,3.445-3.63c-.712-1.871-2.827-.857-2.827-.857Z" transform="translate(-10.696 -24.562)" fill="#feb983"/>
      <path id="Trazado_939462" data-name="Trazado 939462" d="M39.241,33.9l1.532-1.545a4.619,4.619,0,0,0,1.3-2.658l.315-2.428a26.978,26.978,0,0,0,6.219.662,26.978,26.978,0,0,0,6.219-.662l.315,2.428a4.616,4.616,0,0,0,1.3,2.658L57.975,33.9c0,7.367-4.326,10.758-7.1,12.174a4.99,4.99,0,0,1-4.537,0C43.567,44.653,39.241,41.262,39.241,33.9Z" transform="translate(-15.582 -14.117)" fill="#fcd0a3"/>
      <path id="Trazado_939463" data-name="Trazado 939463" d="M60.741,73.908a13.805,13.805,0,0,1-1.876,1.159,4.99,4.99,0,0,1-4.537,0,13.759,13.759,0,0,1-1.878-1.159l-.362,4.264a4.51,4.51,0,0,0,9.02,0l-.362-4.265Z" transform="translate(-23.569 -43.114)" fill="#feb983"/>
      <g id="Grupo_1135285" data-name="Grupo 1135285" transform="translate(14.176 4.557)">
        <path id="Trazado_939464" data-name="Trazado 939464" d="M15.424,107.145a.661.661,0,0,0-.729.588l-.516,4.842a.662.662,0,0,0,.589.729c.024,0,.047,0,.071,0a.662.662,0,0,0,.658-.592l.516-4.842A.662.662,0,0,0,15.424,107.145Z" transform="translate(-14.176 -68.331)"/>
        <path id="Trazado_939465" data-name="Trazado 939465" d="M53.441,48.8l-.784-7.366A5.59,5.59,0,0,0,48.4,36.6l-8.679-2.073L39.434,31.1A13.01,13.01,0,0,0,43.8,24.989c.11.008.22.016.327.016a3.319,3.319,0,0,0,2.63-1.165,3.6,3.6,0,0,0,.646-3.44,2.311,2.311,0,0,0-1.294-1.388c-.024-.01-.048-.016-.072-.025v-3.8A10.674,10.674,0,0,0,43.7,8.017a.662.662,0,1,0-1.005.863,9.391,9.391,0,0,1,2.027,6.31v3.684a3.813,3.813,0,0,0-.587.134L42.9,17.766a3.98,3.98,0,0,1-1.114-2.277l-.315-2.428a.662.662,0,0,0-.824-.554,26.488,26.488,0,0,1-6.053.641,26.609,26.609,0,0,1-6.053-.643.662.662,0,0,0-.824.556L27.4,15.488a3.981,3.981,0,0,1-1.115,2.277l-1.228,1.243a3.831,3.831,0,0,0-.587-.133V13.753a4.362,4.362,0,0,1,2.895-4.1.662.662,0,0,0,.088-1.209,4.082,4.082,0,0,1-1.914-2.561H35.951a.662.662,0,1,0,0-1.324H24.816a.662.662,0,0,0-.662.662A4.952,4.952,0,0,0,25.873,8.9a5.691,5.691,0,0,0-2.724,4.849v5.234c-.024.009-.048.015-.072.025A2.312,2.312,0,0,0,21.783,20.4a3.605,3.605,0,0,0,.646,3.44,3.318,3.318,0,0,0,2.63,1.165c.107,0,.217-.008.327-.016a13.009,13.009,0,0,0,4.371,6.11l-.291,3.427L20.787,36.6a5.592,5.592,0,0,0-4.058,3.859A.662.662,0,1,0,18,40.83a4.266,4.266,0,0,1,3.1-2.942l5.037-1.2-1.551,7.481a.662.662,0,0,0,.867.759l3.976-1.394v5.342a.662.662,0,1,0,1.324,0V38.5a5.147,5.147,0,0,0,7.7,0v10.37a.662.662,0,1,0,1.324,0V43.53l3.976,1.394a.662.662,0,0,0,.867-.759L43.06,36.684l5.037,1.2a4.265,4.265,0,0,1,3.244,3.689l.784,7.366a.662.662,0,0,0,.658.592.5.5,0,0,0,.071,0,.662.662,0,0,0,.588-.729ZM46.172,20.871a2.288,2.288,0,0,1-.423,2.119,2,2,0,0,1-1.562.691,16.457,16.457,0,0,0,.43-3.432,1.682,1.682,0,0,1,1.011-.005A1,1,0,0,1,46.172,20.871ZM23.445,22.989a2.286,2.286,0,0,1-.423-2.119,1,1,0,0,1,.544-.628,1.681,1.681,0,0,1,1.011.006,16.48,16.48,0,0,0,.431,3.431,2,2,0,0,1-1.564-.692Zm2.45-2.94L27.232,18.7a5.309,5.309,0,0,0,1.487-3.04l.222-1.71a29.759,29.759,0,0,0,5.655.522,29.758,29.758,0,0,0,5.656-.522l.222,1.71A5.309,5.309,0,0,0,41.96,18.7L43.3,20.049c-.106,6.9-4.251,10.045-6.734,11.314a4.334,4.334,0,0,1-3.935,0c-2.484-1.269-6.63-4.418-6.734-11.314Zm.222,23.238,1.438-6.943,1.87-.446v6.229Zm8.48-4.381a3.852,3.852,0,0,1-3.847-3.83l.265-3.106c.355.22.7.41,1.013.572a5.663,5.663,0,0,0,5.139,0c.316-.162.658-.352,1.014-.572l.265,3.107A3.851,3.851,0,0,1,34.6,38.907Zm8.481,4.381-3.309-1.161V35.9l1.869.446Z" transform="translate(-15.746 -4.557)"/>
        <path id="Trazado_939466" data-name="Trazado 939466" d="M61.666,62.461a.663.663,0,0,0-.65-1.155,5.4,5.4,0,0,1-4.235,0,.662.662,0,0,0-.652,1.153,6.66,6.66,0,0,0,5.537,0Z" transform="translate(-40.048 -39.784)"/>
        <path id="Trazado_939467" data-name="Trazado 939467" d="M51.751,40.842a.662.662,0,0,0,.881-.989,3.29,3.29,0,0,0-3.9,0,.656.656,0,0,0-.049.92.668.668,0,0,0,.929.069,2.028,2.028,0,0,1,2.138,0Z" transform="translate(-35.526 -26.101)"/>
        <path id="Trazado_939468" data-name="Trazado 939468" d="M53.65,46.705a.914.914,0,1,0-.914.913.914.914,0,0,0,.914-.913Z" transform="translate(-37.58 -30.191)"/>
        <path id="Trazado_939469" data-name="Trazado 939469" d="M69.137,40.848a2.027,2.027,0,0,1,2.138,0,.662.662,0,0,0,.881-.989,3.291,3.291,0,0,0-3.9,0,.656.656,0,0,0-.049.92A.669.669,0,0,0,69.137,40.848Z" transform="translate(-47.664 -26.106)"/>
        <path id="Trazado_939470" data-name="Trazado 939470" d="M72.26,45.792a.914.914,0,1,0,.913.914.914.914,0,0,0-.913-.914Z" transform="translate(-49.717 -30.192)"/>
        <path id="Trazado_939471" data-name="Trazado 939471" d="M74.805,7.426a9.647,9.647,0,0,1,1.4.605.662.662,0,1,0,.62-1.17,11.035,11.035,0,0,0-1.6-.687.662.662,0,0,0-.428,1.253Z" transform="translate(-51.589 -5.54)"/>
      </g>
    </g>
  </g>
</svg>
