<svg xmlns="http://www.w3.org/2000/svg" width="71.574" height="71.572" viewBox="0 0 71.574 71.572">
  <g id="Grupo_1135295" data-name="Grupo 1135295" transform="translate(-370 -23897)">
    <g id="Grupo_1135212" data-name="Grupo 1135212" transform="translate(370 23897)">
      <g id="Grupo_1106733" data-name="Grupo 1106733" transform="translate(0 0)">
        <path id="Trazado_861606" data-name="Trazado 861606" d="M35.787,0A35.786,35.786,0,1,1,0,35.786,35.787,35.787,0,0,1,35.787,0Z" fill="#ffb6c8"/>
      </g>
    </g>
    <g id="man_3445077" transform="translate(288.277 23909.055)">
      <g id="Grupo_1135287" data-name="Grupo 1135287" transform="translate(108.282 19.216)">
        <path id="Trazado_939472" data-name="Trazado 939472" d="M156.267,207.779c-.11,1.29-.179,4.461,1.92,6.545a.566.566,0,0,0,.915-.168l1.193-2.651a.565.565,0,0,0,.05-.232v-3.446a.565.565,0,0,0-.565-.565H156.83a.564.564,0,0,0-.563.516Z" transform="translate(-156.223 -207.263)" fill="#d6a59d"/>
        <path id="Trazado_939473" data-name="Trazado 939473" d="M315.372,207.779c.11,1.29.179,4.461-1.92,6.545a.566.566,0,0,1-.915-.168l-1.193-2.651a.564.564,0,0,1-.05-.232v-3.446a.565.565,0,0,1,.565-.565h2.951a.564.564,0,0,1,.563.516Z" transform="translate(-296.914 -207.263)" fill="#d6a59d"/>
      </g>
      <path id="Trazado_939474" data-name="Trazado 939474" d="M142.273,47.618a6.517,6.517,0,0,0,0,12.374Z" transform="translate(-31.231 -43.207)" fill="#d6a59d"/>
      <path id="Trazado_939475" data-name="Trazado 939475" d="M137.8,316.231v6.983h-26.91v-6.983a11.543,11.543,0,0,1,11.543-11.543h3.825A11.543,11.543,0,0,1,137.8,316.231Z" transform="translate(-6.809 -276.438)" fill="#96756f"/>
      <path id="Trazado_939476" data-name="Trazado 939476" d="M259.54,316.226v6.983h-2.925v-6.983a11.543,11.543,0,0,0-11.543-11.543H248A11.543,11.543,0,0,1,259.54,316.226Z" transform="translate(-128.551 -276.433)" fill="#80635e"/>
      <path id="Trazado_939477" data-name="Trazado 939477" d="M183.172,306.712a14.618,14.618,0,0,1-7.091,7.652,2.782,2.782,0,0,1-2.537,0,14.6,14.6,0,0,1-7.128-7.75,11.483,11.483,0,0,1,6.394-1.932h3.824A11.489,11.489,0,0,1,183.172,306.712Z" transform="translate(-57.188 -276.433)" fill="#d6a59d"/>
      <path id="Trazado_939478" data-name="Trazado 939478" d="M254.538,306.712a13.687,13.687,0,0,1-.87,1.807,11.513,11.513,0,0,0-8.593-3.836H248A11.489,11.489,0,0,1,254.538,306.712Z" transform="translate(-128.553 -276.433)" fill="#ac8380"/>
      <path id="Trazado_939479" data-name="Trazado 939479" d="M205.157,305.415a11.811,11.811,0,0,1-5.876,6.474,11.807,11.807,0,0,1-5.9-6.532,11.516,11.516,0,0,1,3.893-.673H201.1A11.522,11.522,0,0,1,205.157,305.415Z" transform="translate(-81.657 -276.433)" fill="#0d5f7f"/>
      <path id="Trazado_939480" data-name="Trazado 939480" d="M252.053,305.415a10.522,10.522,0,0,1-.535,1.233,11.485,11.485,0,0,0-6.443-1.965H248A11.522,11.522,0,0,1,252.053,305.415Z" transform="translate(-128.553 -276.433)" fill="#094c66"/>
      <path id="Trazado_939481" data-name="Trazado 939481" d="M236.3,270.963v3.987a2.241,2.241,0,0,1-4.482,0v-3.987Z" transform="translate(-116.523 -245.84)" fill="#ffcec0"/>
      <path id="Trazado_939482" data-name="Trazado 939482" d="M236.3,270.963V274.4a5.5,5.5,0,0,1-4.482,0v-3.436Z" transform="translate(-116.523 -245.84)" fill="#fdb0a0"/>
      <g id="Grupo_1135293" data-name="Grupo 1135293" transform="translate(105.851 4.552)">
        <g id="Grupo_1135292" data-name="Grupo 1135292" transform="translate(0 9.42)">
          <g id="Grupo_1135291" data-name="Grupo 1135291">
            <g id="Grupo_1135290" data-name="Grupo 1135290">
              <g id="Grupo_1135289" data-name="Grupo 1135289">
                <g id="Grupo_1135288" data-name="Grupo 1135288" transform="translate(17.756)">
                  <circle id="Elipse_9709" data-name="Elipse 9709" cx="2.804" cy="2.804" r="2.804" fill="#fdb0a0"/>
                  <path id="Trazado_939483" data-name="Trazado 939483" d="M328.121,153.347a2.886,2.886,0,0,1-1.185.3c-.151.006-.3.008-.45.008a7.757,7.757,0,0,1-3.861-.907,2.8,2.8,0,0,1,5.5.594Z" transform="translate(-322.519 -150.713)" fill="#f89f8e"/>
                </g>
                <circle id="Elipse_9710" data-name="Elipse 9710" cx="2.804" cy="2.804" r="2.804" fill="#fdb0a0"/>
              </g>
            </g>
          </g>
        </g>
        <path id="Trazado_939484" data-name="Trazado 939484" d="M184.96,57.217v5.84a8.086,8.086,0,1,1-16.171.1V57.217a8.085,8.085,0,0,1,16.171,0Z" transform="translate(-165.193 -49.132)" fill="#ffcec0"/>
        <path id="Trazado_939485" data-name="Trazado 939485" d="M186.761,57.218V61.3a6.293,6.293,0,0,1-3.343-1.837A6.411,6.411,0,0,1,182,57.035a14.99,14.99,0,0,1-3.387.373,18.581,18.581,0,0,1-4.771-.649,11.591,11.591,0,0,1-3.071-1.266,8.086,8.086,0,0,1,15.986,1.725Z" transform="translate(-166.994 -49.133)" fill="#fdb0a0"/>
      </g>
      <path id="Trazado_939486" data-name="Trazado 939486" d="M174.491,16.76s-.333,5.307,5.6,5.072a1.031,1.031,0,0,0,.953-.766c.416-1.562,1.158-5.287-.8-6.549,0,0,.976-5.6-4.508-5.736s-8.425-3.167-12.906.448c-1.291,1.042-4.775,6,2.494,7.932C171.049,18.685,174.491,16.76,174.491,16.76Z" transform="translate(-52.141 -6.776)" fill="#edc1bb"/>
      <path id="Trazado_939487" data-name="Trazado 939487" d="M320.1,33.658a1.03,1.03,0,0,1-.953.765,7.356,7.356,0,0,1-2.146-.2,1.093,1.093,0,0,0,.162-.354c.4-1.542,1.087-5.058-.422-6.641a1.307,1.307,0,0,1-.351-.97c.059-1.19-.086-3.765-2.269-4.917q.327.022.667.031c5.484.134,4.508,5.736,4.508,5.736C321.263,28.37,320.521,32.1,320.1,33.658Z" transform="translate(-191.2 -19.367)" fill="#d6a59d"/>
      <g id="Grupo_1135294" data-name="Grupo 1135294" transform="translate(103.382 -0.005)">
        <path id="Trazado_939488" data-name="Trazado 939488" d="M334.221,414.4a.7.7,0,0,0-.7.7v7.656a.7.7,0,1,0,1.391,0V415.1A.7.7,0,0,0,334.221,414.4Z" transform="translate(-312.184 -375.974)"/>
        <path id="Trazado_939489" data-name="Trazado 939489" d="M164.135,414.4a.7.7,0,0,0-.7.7v7.656a.7.7,0,0,0,1.391,0V415.1A.7.7,0,0,0,164.135,414.4Z" transform="translate(-157.871 -375.974)"/>
        <path id="Trazado_939490" data-name="Trazado 939490" d="M387.129,378.674a.7.7,0,1,0-1.3.486,10.808,10.808,0,0,1,.679,3.785v6.983a.7.7,0,0,0,1.391,0v-6.983A12.2,12.2,0,0,0,387.129,378.674Z" transform="translate(-359.593 -343.147)"/>
        <path id="Trazado_939491" data-name="Trazado 939491" d="M127.414,7.622a3.661,3.661,0,0,1-1.024,1.9.7.7,0,1,0,1,.964,5.541,5.541,0,0,0,.981-1.388c.7,1.485.1,4.111-.141,5.009a.337.337,0,0,1-.309.25,4.764,4.764,0,0,1-3.735-1.166,4.163,4.163,0,0,1-1.065-2.2,5.122,5.122,0,0,0,.925.172c.022,0,.044,0,.065,0a.7.7,0,0,0,.064-1.388,3.468,3.468,0,0,1-2.928-2.252.7.7,0,0,0-1.324.427,5.053,5.053,0,0,0,1.128,1.8,13.785,13.785,0,0,1-7.694-.04c-2.131-.567-3.414-1.424-3.815-2.548a3.908,3.908,0,0,1,.81-3.319.7.7,0,1,0-1.127-.815,6.812,6.812,0,0,0-1.044,2.139,7.328,7.328,0,0,0-2.3,5.428,7.647,7.647,0,0,0,.75,3.327,3.5,3.5,0,0,0,.975,6.189c-.09,1.781.138,4.657,2.153,6.656a1.261,1.261,0,0,0,2.039-.376l.385-.854a8.693,8.693,0,0,0,2.416,1.318v.74a12.238,12.238,0,0,0-11.214,12.2v6.983a.7.7,0,1,0,1.391,0V39.793a10.826,10.826,0,0,1,4.15-8.545,14.827,14.827,0,0,0,1.505,2.568.7.7,0,0,0,1.124-.82,13.394,13.394,0,0,1-1.463-2.545,10.777,10.777,0,0,1,1.243-.631,12.631,12.631,0,0,0,5.974,6.253.7.7,0,0,0,.634,0,12.659,12.659,0,0,0,5.944-6.182,10.776,10.776,0,0,1,1.233.652,13.906,13.906,0,0,1-6.543,6.768,2.091,2.091,0,0,1-1.9,0,15.091,15.091,0,0,1-3-2.01.7.7,0,1,0-.911,1.052,16.482,16.482,0,0,0,3.273,2.2,3.486,3.486,0,0,0,3.171,0,15.3,15.3,0,0,0,7.065-7.188,10.937,10.937,0,0,1,1.861,1.938.7.7,0,0,0,1.114-.834,12.2,12.2,0,0,0-8.78-4.869v-.753a8.752,8.752,0,0,0,2.406-1.33l.4.88a1.262,1.262,0,0,0,2.039.376c2.014-2,2.242-4.875,2.152-6.656a3.5,3.5,0,0,0,1.919-5.189,1.743,1.743,0,0,0,.195-.455c.529-1.986,1.1-5.434-.74-7.042a6.277,6.277,0,0,0-1.149-4.376,5.164,5.164,0,0,0-4.079-1.741,21.547,21.547,0,0,1-4.64-.727c-2.305-.546-4.483-1.063-6.953.174A.7.7,0,0,0,112.638,2c2.018-1.01,3.779-.593,6.01-.064a22.994,22.994,0,0,0,4.927.764,3.852,3.852,0,0,1,3.033,1.227,5.211,5.211,0,0,1,.807,3.695Zm-2.953,18.027-.507-1.128a8.92,8.92,0,0,0,2.131-4.033A7.3,7.3,0,0,1,124.461,25.649Zm3.518-9.9a1.738,1.738,0,0,0,.257-.03,2.107,2.107,0,0,1-1.825,3.164c-.036,0-.071,0-.107,0,.006-.134.01-.27.01-.405V15.668a8.468,8.468,0,0,0,1.259.091q.2,0,.406-.008ZM121.715,11a5.623,5.623,0,0,0,1.47,3.154,4.942,4.942,0,0,0,1.737,1.142v3.174a7.46,7.46,0,0,1-7.334,7.491,7.389,7.389,0,0,1-7.445-7.389V12.637a7.334,7.334,0,0,1,.436-2.506,10.988,10.988,0,0,0,2.421.926A14.867,14.867,0,0,0,121.715,11ZM107.27,10.6a6.181,6.181,0,0,1,.883-3.223c.024.086.049.172.08.258a4.083,4.083,0,0,0,1.17,1.686,8.7,8.7,0,0,0-.65,3.319v.642l-.1,0a3.5,3.5,0,0,0-.755.083A6.249,6.249,0,0,1,107.27,10.6Zm-.723,6.178a2.111,2.111,0,0,1,2.109-2.109l.1,0v3.908c0,.1,0,.2.006.3-.034,0-.069,0-.1,0A2.111,2.111,0,0,1,106.546,16.776Zm4.06,8.873a7.249,7.249,0,0,1-1.626-5.071,8.7,8.7,0,0,0,2.119,3.975Zm6.926,1.709h.067a8.65,8.65,0,0,0,1.48-.139v1.89a1.545,1.545,0,0,1-3.091,0V27.223A8.882,8.882,0,0,0,117.532,27.358Zm.093,7.31a11.207,11.207,0,0,1-4.977-5.312,10.869,10.869,0,0,1,1.949-.363v.116a2.936,2.936,0,0,0,5.873,0v-.116a10.84,10.84,0,0,1,2.111.411A11.235,11.235,0,0,1,117.624,34.668Z" transform="translate(-103.382 0.005)"/>
        <path id="Trazado_939492" data-name="Trazado 939492" d="M234.66,221.826a2.66,2.66,0,0,0,3.343,0,.7.7,0,1,0-.9-1.061,1.273,1.273,0,0,1-1.543,0,.7.7,0,1,0-.9,1.061Z" transform="translate(-222.264 -200.143)"/>
        <path id="Trazado_939493" data-name="Trazado 939493" d="M286.662,165.912h0a.7.7,0,0,0,0-1.391h-.012a.7.7,0,0,0,0,1.391Z" transform="translate(-269.035 -149.264)"/>
        <path id="Trazado_939494" data-name="Trazado 939494" d="M211.7,165.912a.7.7,0,0,0,0-1.391h-.008a.7.7,0,0,0,.008,1.391Z" transform="translate(-201.022 -149.264)"/>
        <path id="Trazado_939495" data-name="Trazado 939495" d="M240.536,163.577a.7.7,0,1,0,.254-1.368.256.256,0,0,1-.207-.291l.36-2.407a.7.7,0,0,0-1.376-.206l-.36,2.406A1.642,1.642,0,0,0,240.536,163.577Z" transform="translate(-226.594 -143.996)"/>
      </g>
    </g>
  </g>
</svg>
