<svg xmlns="http://www.w3.org/2000/svg" width="71.574" height="71.572" viewBox="0 0 71.574 71.572">
  <g id="Grupo_1135310" data-name="Grupo 1135310" transform="translate(-370 -23974.865)">
    <g id="Grupo_1135219" data-name="Grupo 1135219" transform="translate(370 23974.865)">
      <g id="Grupo_1106733" data-name="Grupo 1106733" transform="translate(0 0)">
        <path id="Trazado_861606" data-name="Trazado 861606" d="M35.787,0A35.786,35.786,0,1,1,0,35.786,35.787,35.787,0,0,1,35.787,0Z" fill="#ffb6c8"/>
      </g>
    </g>
    <g id="man_2346150" transform="translate(377.996 23986.816)">
      <g id="Grupo_1135305" data-name="Grupo 1135305" transform="translate(10.935 0.931)">
        <path id="Trazado_939496" data-name="Trazado 939496" d="M228.914,23.907a3.534,3.534,0,0,0,3.226-3.185,3.461,3.461,0,0,0-.458-2.02,3.477,3.477,0,0,0-3.011-5.221,3.454,3.454,0,0,0-6.279-2.014" transform="translate(-203.549 -10)" fill="#faf7f5"/>
        <path id="Trazado_939497" data-name="Trazado 939497" d="M23.294,23.911a3.536,3.536,0,0,1-3.277-3.189,3.461,3.461,0,0,1,.458-2.02,3.477,3.477,0,0,1,3.011-5.221,3.454,3.454,0,0,1,6.3-1.991" transform="translate(-20.005 -10)" fill="#faf7f5"/>
        <g id="Grupo_1135296" data-name="Grupo 1135296" transform="translate(0.217 26.244)">
          <path id="Trazado_939498" data-name="Trazado 939498" d="M50.47,311.437H22.335V295.719a3.846,3.846,0,0,1,3.846-3.846H46.624a3.846,3.846,0,0,1,3.846,3.846v15.718Z" transform="translate(-22.335 -291.873)" fill="#d1a184"/>
        </g>
        <g id="Grupo_1135297" data-name="Grupo 1135297" transform="translate(3.173 0.368)">
          <path id="Trazado_939499" data-name="Trazado 939499" d="M74.252,23.876V23.01a9.055,9.055,0,1,0-18.11,0v.866a2.74,2.74,0,0,0,.082,5.328A9.065,9.065,0,0,0,62.7,36.682v3.2l.042-.026L64.91,50.127h.573l2.163-10.274.081.051V36.671A9.065,9.065,0,0,0,74.17,29.2a2.74,2.74,0,0,0,.083-5.328Z" transform="translate(-54.085 -13.955)" fill="#ffdcd5"/>
        </g>
        <g id="Grupo_1135300" data-name="Grupo 1135300" transform="translate(9.511 14.914)">
          <g id="Grupo_1135298" data-name="Grupo 1135298" transform="translate(4.751)">
            <path id="Trazado_939500" data-name="Trazado 939500" d="M177.942,173.578h-2.488a2.264,2.264,0,0,1-2.263-2.266v-1.128h2.485a2.266,2.266,0,0,1,2.266,2.266v1.128Z" transform="translate(-173.191 -170.184)" fill="#faf7f5"/>
          </g>
          <g id="Grupo_1135299" data-name="Grupo 1135299">
            <path id="Trazado_939501" data-name="Trazado 939501" d="M122.161,173.578h2.488a2.264,2.264,0,0,0,2.263-2.266v-1.128h-2.485a2.266,2.266,0,0,0-2.266,2.266v1.128Z" transform="translate(-122.161 -170.184)" fill="#faf7f5"/>
          </g>
        </g>
        <g id="Grupo_1135302" data-name="Grupo 1135302" transform="translate(32.283 18.22)">
          <g id="Grupo_1135301" data-name="Grupo 1135301">
            <path id="Trazado_939502" data-name="Trazado 939502" d="M370.46,211.521a2.107,2.107,0,0,1,4.214,0v2.213a1.862,1.862,0,1,0,3.724,0v-2.213a5.831,5.831,0,0,0-11.662,0v21.757h3.724Z" transform="translate(-366.736 -205.69)" fill="#ffcd69"/>
          </g>
        </g>
        <g id="Grupo_1135304" data-name="Grupo 1135304" transform="translate(6.252 26.267)">
          <path id="Trazado_939503" data-name="Trazado 939503" d="M181.675,295.634l-5.583-3.518-2.428,11.53,7.243-3.567-2.164-2.931Z" transform="translate(-165.609 -292.116)" fill="#faf7f5"/>
          <g id="Grupo_1135303" data-name="Grupo 1135303">
            <path id="Trazado_939504" data-name="Trazado 939504" d="M87.151,295.634l2.931,1.515-2.164,2.931,7.243,3.567-2.428-11.53Z" transform="translate(-87.151 -292.116)" fill="#faf7f5"/>
          </g>
        </g>
      </g>
      <g id="Grupo_1135309" data-name="Grupo 1135309" transform="translate(10.004 0)">
        <path id="Trazado_939505" data-name="Trazado 939505" d="M164.373,493.888a.931.931,0,1,1,.911-.742A.94.94,0,0,1,164.373,493.888Z" transform="translate(-149.157 -446.218)"/>
        <g id="Grupo_1135306" data-name="Grupo 1135306" transform="translate(17.79 10.81)">
          <path id="Trazado_939506" data-name="Trazado 939506" d="M202.005,118.627a.931.931,0,0,1-.931-.931,1.6,1.6,0,0,1,1.594-1.594h.958a.931.931,0,1,1,0,1.862H202.9A.931.931,0,0,1,202.005,118.627Zm.931-.931h0Z" transform="translate(-201.074 -116.102)"/>
        </g>
        <g id="Grupo_1135307" data-name="Grupo 1135307" transform="translate(9.194 10.81)">
          <path id="Trazado_939507" data-name="Trazado 939507" d="M111.3,118.627a.931.931,0,0,1-.892-.663h-.729a.931.931,0,0,1,0-1.862h.958a1.6,1.6,0,0,1,1.594,1.594A.931.931,0,0,1,111.3,118.627Zm-.931-.931h0Z" transform="translate(-108.749 -116.102)"/>
        </g>
        <g id="Grupo_1135308" data-name="Grupo 1135308" transform="translate(11.048 4.62)">
          <path id="Trazado_939508" data-name="Trazado 939508" d="M129.6,52.072a.931.931,0,0,1-.328-1.8,10.157,10.157,0,0,1,7.087-.028l.069.025a.931.931,0,0,1-.643,1.748l-.069-.025a8.3,8.3,0,0,0-5.788.023A.931.931,0,0,1,129.6,52.072Z" transform="translate(-128.668 -49.617)"/>
        </g>
        <path id="Trazado_939509" data-name="Trazado 939509" d="M40.469,7.893a4.419,4.419,0,0,0-3.564-4.33A4.439,4.439,0,0,0,32.66,0h-.079a4.37,4.37,0,0,0-3.108,1.32,9.979,9.979,0,0,0-8.483-.01A4.365,4.365,0,0,0,17.893,0h-.08a4.439,4.439,0,0,0-4.245,3.562,4.407,4.407,0,0,0-3.2,6.07,4.388,4.388,0,0,0-.346,2.094,4.482,4.482,0,0,0,3.656,3.981,3.706,3.706,0,0,0,1.748,1.549A9.978,9.978,0,0,0,21.8,24.7v1.542H15a4.782,4.782,0,0,0-4.777,4.777V46.739a.931.931,0,0,0,.931.931H21.01a.931.931,0,1,0,0-1.862H12.083V31.021A2.918,2.918,0,0,1,15,28.106h4.583L16.69,29.928a.931.931,0,0,0,.069,1.615l1.961,1.013-1.515,2.053A.931.931,0,0,0,17.543,36l7.243,3.567a.931.931,0,0,0,.411.1h.044a.931.931,0,0,0,.411-.1L32.9,36a.931.931,0,0,0,.338-1.388l-1.515-2.053,1.961-1.013a.931.931,0,0,0,.069-1.615l-2.891-1.822h4.583a2.918,2.918,0,0,1,2.915,2.915V45.808H29.428a.931.931,0,1,0,0,1.862h9.859a.931.931,0,0,0,.931-.931V31.021a4.782,4.782,0,0,0-4.777-4.777h-6.76V24.689a9.986,9.986,0,0,0,6.337-7.432,3.7,3.7,0,0,0,1.744-1.542,4.394,4.394,0,0,0,3.347-6.082,4.4,4.4,0,0,0,.36-1.74ZM11.874,11.579a2.54,2.54,0,0,1,.336-1.48.931.931,0,0,0,0-.933,2.546,2.546,0,0,1,2.206-3.824.931.931,0,0,0,.931-.931,2.562,2.562,0,0,1,2.5-2.549,2.473,2.473,0,0,1,1.456.452,9.979,9.979,0,0,0-4.069,8.04v.221a3.67,3.67,0,0,0-2.046,3,2.547,2.547,0,0,1-1.315-2Zm7.491,23.239,1.5-2.035a.931.931,0,0,0-.322-1.38l-1.485-.767L22.134,28.7l1.758,8.349Zm10.207-2.035,1.5,2.035-4.527,2.229L28.305,28.7l3.074,1.937-1.485.767a.931.931,0,0,0-.322,1.38ZM33.99,15.639a.931.931,0,0,0-.72.783,8.119,8.119,0,0,1-5.779,6.7.931.931,0,0,0-.671.894v2.8a.929.929,0,0,0-.061.188L25.22,34.315l-1.539-7.309q-.009-.043-.022-.085V24.026a.931.931,0,0,0-.675-.9,8.115,8.115,0,0,1-5.812-6.709.931.931,0,0,0-.72-.783,1.809,1.809,0,0,1-.054-3.517.931.931,0,0,0,.7-.9v-.866a8.124,8.124,0,0,1,16.248,0v.866a.931.931,0,0,0,.7.9,1.809,1.809,0,0,1-.055,3.517Zm4.273-5.54a2.514,2.514,0,0,1-1.009,3.5,3.669,3.669,0,0,0-2.047-3.024v-.221a9.978,9.978,0,0,0-4.054-8.028,2.462,2.462,0,0,1,1.473-.463,2.562,2.562,0,0,1,2.5,2.549.931.931,0,0,0,.931.931,2.546,2.546,0,0,1,2.206,3.824A.931.931,0,0,0,38.263,10.1Z" transform="translate(-10.004 0)"/>
        <path id="Trazado_939510" data-name="Trazado 939510" d="M361.391,225.139h-3.724a.931.931,0,0,1-.931-.931V202.451a6.762,6.762,0,0,1,13.524,0v2.213a2.793,2.793,0,0,1-5.586,0v-2.213a1.176,1.176,0,0,0-2.352,0v21.757A.931.931,0,0,1,361.391,225.139Zm-2.793-1.862h1.862V202.451a3.038,3.038,0,0,1,6.076,0v2.213a.931.931,0,1,0,1.862,0v-2.213a4.9,4.9,0,0,0-9.8,0Z" transform="translate(-324.453 -177.469)"/>
        <path id="Trazado_939511" data-name="Trazado 939511" d="M115.579,165.44h-2.488a.931.931,0,0,1-.931-.931v-1.128a3.2,3.2,0,0,1,3.2-3.2h2.485a.931.931,0,0,1,.931.931v1.128A3.2,3.2,0,0,1,115.579,165.44Zm-1.557-1.862h1.557a1.335,1.335,0,0,0,1.332-1.335v-.2h-1.554a1.336,1.336,0,0,0-1.335,1.335Z" transform="translate(-102.649 -145.27)"/>
        <path id="Trazado_939512" data-name="Trazado 939512" d="M168.871,165.441h-2.488a3.2,3.2,0,0,1-3.194-3.2v-1.128a.931.931,0,0,1,.931-.931h2.485a3.2,3.2,0,0,1,3.2,3.2v1.128A.931.931,0,0,1,168.871,165.441Zm-3.82-3.394v.2a1.335,1.335,0,0,0,1.332,1.335h1.557v-.2a1.336,1.336,0,0,0-1.335-1.335Z" transform="translate(-148.927 -145.271)"/>
      </g>
    </g>
  </g>
</svg>
