<svg xmlns="http://www.w3.org/2000/svg" width="105" height="120" viewBox="0 0 105 120">
  <g id="_24" data-name="24" transform="translate(-2401 9338)">
    <rect id="Rect치ngulo_400772" data-name="Rect치ngulo 400772" width="105" height="36" rx="8" transform="translate(2401 -9269)" fill="#52d5ab"/>
    <rect id="Rect치ngulo_400771" data-name="Rect치ngulo 400771" width="87" height="120" rx="8" transform="translate(2410 -9338)" fill="#a7f7dd"/>
    <g id="pdf-file_3449657" transform="translate(2418.757 -9311.875)">
      <g id="Grupo_1095455" data-name="Grupo 1095455" transform="translate(1.047 1.047)">
        <g id="Grupo_1095453" data-name="Grupo 1095453">
          <path id="Trazado_870040" data-name="Trazado 870040" d="M80.292,65.461H41.783a4.189,4.189,0,0,1-4.189-4.189V11.689A4.189,4.189,0,0,1,41.783,7.5H80.292a4.189,4.189,0,0,1,4.189,4.189V61.273A4.188,4.188,0,0,1,80.292,65.461Z" transform="translate(-33.392 -7.5)" fill="#f7f6f7"/>
          <path id="Trazado_870041" data-name="Trazado 870041" d="M317.595,7.5h-4.189a4.189,4.189,0,0,1,4.189,4.189V61.273a4.189,4.189,0,0,1-4.189,4.189h4.189a4.189,4.189,0,0,0,4.189-4.189V11.689A4.189,4.189,0,0,0,317.595,7.5Z" transform="translate(-270.695 -7.5)" fill="#e2d8ec"/>
          <path id="Trazado_870042" data-name="Trazado 870042" d="M58.6,244.665H11.689A4.189,4.189,0,0,1,7.5,240.477V206.689a4.189,4.189,0,0,1,4.189-4.189H32.121a3.63,3.63,0,0,1,3.522,2.75l.719,2.878a3.63,3.63,0,0,0,3.522,2.75H58.6a4.189,4.189,0,0,1,4.189,4.189v25.411A4.189,4.189,0,0,1,58.6,244.665Z" transform="translate(-7.5 -175.274)" fill="#f7e07f"/>
          <g id="Grupo_1095452" data-name="Grupo 1095452" transform="translate(20.432 27.226)">
            <path id="Trazado_870043" data-name="Trazado 870043" d="M157.364,205.25l.719,2.878a3.63,3.63,0,0,0,3.522,2.75h4.189a3.63,3.63,0,0,1-3.522-2.75l-.719-2.878a3.63,3.63,0,0,0-3.522-2.75h-4.189A3.63,3.63,0,0,1,157.364,205.25Z" transform="translate(-153.842 -202.5)" fill="#f0d16f"/>
            <path id="Trazado_870044" data-name="Trazado 870044" d="M347.689,262.5H343.5a4.189,4.189,0,0,1,4.189,4.189V292.1a4.189,4.189,0,0,1-4.189,4.189h4.189a4.189,4.189,0,0,0,4.189-4.189V266.689A4.189,4.189,0,0,0,347.689,262.5Z" transform="translate(-317.02 -254.123)" fill="#f0d16f"/>
          </g>
          <path id="Trazado_870045" data-name="Trazado 870045" d="M120.508,58.783H89.247a.7.7,0,0,1-.7-.7V53.2a.7.7,0,0,1,.7-.7h31.261a.7.7,0,0,1,.7.7v4.887A.7.7,0,0,1,120.508,58.783Z" transform="translate(-77.233 -46.217)" fill="#e2dfe3"/>
        </g>
        <g id="Grupo_1095454" data-name="Grupo 1095454" transform="translate(43.217 43.217)">
          <circle id="Elipse_5543" data-name="Elipse 5543" cx="13.087" cy="13.087" r="13.087" transform="translate(0 0)" fill="#bfe69f"/>
          <path id="Trazado_870046" data-name="Trazado 870046" d="M397.861,317.033a13.189,13.189,0,0,0-2.094.168,13.088,13.088,0,0,1,0,25.839,13.088,13.088,0,1,0,2.094-26.007Z" transform="translate(-384.774 -317.033)" fill="#a4d9a6"/>
          <path id="Trazado_870047" data-name="Trazado 870047" d="M373.152,367.134V358.56a.79.79,0,0,1,.79-.79h3.289a.79.79,0,0,1,.79.79v8.574a.79.79,0,0,0,.79.79h1.807a.677.677,0,0,1,.479,1.156l-4.951,4.951a.79.79,0,0,1-1.117,0l-4.951-4.951a.677.677,0,0,1,.479-1.156h1.807A.79.79,0,0,0,373.152,367.134Z" transform="translate(-362.499 -352.082)" fill="#fff"/>
        </g>
      </g>
      <path id="Trazado_870048" data-name="Trazado 870048" d="M45.021,18.849H12.363a1.047,1.047,0,0,0,0,2.094H45.021a1.047,1.047,0,0,0,0-2.094Zm-.7-12.566H37.395a1.047,1.047,0,1,0,0,2.094h6.579v4.189H13.41V8.377h19.1a1.047,1.047,0,0,0,0-2.094H13.061a1.747,1.747,0,0,0-1.745,1.745v4.887a1.747,1.747,0,0,0,1.745,1.745H44.323a1.747,1.747,0,0,0,1.745-1.745V8.028a1.747,1.747,0,0,0-1.745-1.745Zm.7,16.754H12.363a1.047,1.047,0,1,0,0,2.094H45.021a1.047,1.047,0,0,0,0-2.094Zm0,8.377H33.306a1.047,1.047,0,1,0,0,2.094H45.021a1.047,1.047,0,0,0,0-2.094Zm0-4.189H33.306a1.047,1.047,0,1,0,0,2.094H45.021a1.047,1.047,0,0,0,0-2.094ZM57.384,43.218V40.839a5.244,5.244,0,0,0-4.2-5.133V5.236A5.242,5.242,0,0,0,47.947,0H9.437A5.242,5.242,0,0,0,4.2,5.236V27.329A5.244,5.244,0,0,0,0,32.462V47.32a1.047,1.047,0,1,0,2.094,0V32.462A3.145,3.145,0,0,1,5.236,29.32H25.668a2.581,2.581,0,0,1,2.507,1.956l.719,2.879A4.669,4.669,0,0,0,33.431,37.7H52.148a3.145,3.145,0,0,1,3.141,3.141v2.529a14.131,14.131,0,0,0-5.334,26.023H5.236A3.145,3.145,0,0,1,2.094,66.25V52.207a1.047,1.047,0,0,0-2.094,0V66.25a5.242,5.242,0,0,0,5.236,5.236H52.148a5.169,5.169,0,0,0,1.951-.378,14.135,14.135,0,1,0,3.285-27.89Zm-6.3-7.614H33.431a2.578,2.578,0,0,1-2.505-1.956l-.719-2.88a4.673,4.673,0,0,0-4.538-3.542H6.3V5.236A3.145,3.145,0,0,1,9.437,2.094h38.51a3.145,3.145,0,0,1,3.141,3.141Zm6.263,33.788a12.04,12.04,0,1,1,12.04-12.04A12.054,12.054,0,0,1,57.352,69.391Zm5.031-10.333H60.833V50.742A1.839,1.839,0,0,0,59,48.9H55.707a1.839,1.839,0,0,0-1.837,1.837v8.317H52.321A1.724,1.724,0,0,0,51.1,62l4.951,4.951a1.839,1.839,0,0,0,2.6,0L63.6,62a1.724,1.724,0,0,0-1.219-2.943ZM57.352,65.29l-4.137-4.137h.913a1.839,1.839,0,0,0,1.837-1.837V51h2.774v8.317a1.839,1.839,0,0,0,1.837,1.837h.913Zm-17.2-15.309a1.047,1.047,0,0,0,0-2.094H36.383a1.047,1.047,0,0,0-1.047,1.047v9.291a1.047,1.047,0,1,0,2.094,0V54.538H39.85a1.047,1.047,0,1,0,0-2.094H37.43V49.981ZM26.432,59.271h0c.078,0,1.911-.007,2.644-.02,2.678-.047,4.621-2.389,4.621-5.568,0-3.343-1.895-5.588-4.715-5.588H26.414a1.047,1.047,0,0,0-1.047,1.049v8.933a1.163,1.163,0,0,0,1.066,1.194Zm2.554-9.082c1.932,0,2.621,1.8,2.621,3.494,0,2.369-1.288,3.452-2.564,3.474-.359.006-1.006.011-1.567.015,0-1.074-.011-5.866-.013-6.983h1.523Zm-10.7,8.035V55.2c.555,0,1.2-.006,1.559-.006a3.689,3.689,0,1,0,0-7.377H17.235a1.059,1.059,0,0,0-1.047,1.047v9.359a1.047,1.047,0,0,0,2.094,0Zm1.559-8.312a1.595,1.595,0,1,1,0,3.188c-.358,0-.994,0-1.547.006,0-.57-.008-2.6-.009-3.194Z" transform="translate(0)"/>
    </g>
  </g>
</svg>
