<svg xmlns="http://www.w3.org/2000/svg" xmlns:xlink="http://www.w3.org/1999/xlink" width="400" height="529" viewBox="0 0 400 529">
  <defs>
    <clipPath id="clip-path">
      <rect id="Rect치ngulo_414307" data-name="Rect치ngulo 414307" width="400" height="529" transform="translate(180 2250)" fill="#fff" stroke="#707070" stroke-width="1"/>
    </clipPath>
    <clipPath id="clip-path-2">
      <rect id="Rect치ngulo_404331" data-name="Rect치ngulo 404331" width="354.452" height="565.583" transform="translate(0)" fill="#fff" stroke="#707070" stroke-width="1" opacity="0.84"/>
    </clipPath>
  </defs>
  <g id="_27" data-name="27" transform="translate(-180 -2250)" clip-path="url(#clip-path)">
    <g id="Grupo_1079045" data-name="Grupo 1079045" transform="translate(225.548 2265.39)" clip-path="url(#clip-path-2)">
      <g id="Grupo_1104600" data-name="Grupo 1104600" transform="translate(34.794 0)">
        <path id="Trazado_909309" data-name="Trazado 909309" d="M-871.034-209.644a1.9,1.9,0,0,0-.777,1.787c4.525,18.335,8.934,36.69,13.771,54.967,2.6,9.867,6.06,19.559,8.954,29.387a192.258,192.258,0,0,1,5.633,28.357c2.719,20.006,5.5,39.992,9.886,59.784a3.42,3.42,0,0,0,.253.544h-40.38c-.971-3.69-1.865-7.4-2.913-11.09a145.482,145.482,0,0,0-9.828-24.084c-4.448-9.032-7.478-18.432-10.158-27.988-2.991-10.683-6.565-21.268-10.1-31.834a223.9,223.9,0,0,1-7.4-29.678,121.282,121.282,0,0,0-6.779-23.482c-.427-1.029-.311-1.418.971-2.195,2.583-1.554,5.555-1.2,8.235-2.02,1.69-.524,3.438-.932,5.128-1.457a3.381,3.381,0,0,0,1.69-.913,2.491,2.491,0,0,0,.525-2.039c-.155-.369-1.418-.7-2.1-.6-4.6.68-9.167,1.651-13.79,2.175-3.943.427-7.983.427-11.965.505-4.739.078-9.478.039-14.237.039a3.515,3.515,0,0,0-1.01,0,13.9,13.9,0,0,0-1.69.874c.447.369.835.952,1.36,1.068a50.859,50.859,0,0,0,5.147.874c1.962.252,3.924.408,5.885.622,1.515.155,2.447.641,2.758,2.156.854,4.312,2.234,8.566,2.875,12.9a50.34,50.34,0,0,1,.6,11.945,44.714,44.714,0,0,0,1.962,16.645,244.517,244.517,0,0,1,7.322,37.156c1.554,12.761,2.8,25.541,4.1,38.321,1.049,10.255,1.981,20.511,2.952,30.785.039.427.039.874.039,1.321h-51.238c-.621-4.7-1.282-9.4-1.845-14.1q-1.019-8.42-1.884-16.879c-.68-6.565-1.34-13.11-1.942-19.675-.427-4.661-.777-9.342-1.107-14.023a63.012,63.012,0,0,0-3.535-17.966,26.405,26.405,0,0,1-.816-4c.621.194.835.194.874.291,3.146,4.992,7.031,9.653,8.546,15.364a9.629,9.629,0,0,0,2.486,3.9,5.332,5.332,0,0,0,5.613,1.554,4.554,4.554,0,0,0,3.341-4.526,8.943,8.943,0,0,0-.8-4.7c-3.943-6.759-5.768-14.12-8.371-21.249a63.729,63.729,0,0,0-3.341-7.342,20.775,20.775,0,0,1-2.331-8.915c-.136-3.36-.408-6.7-.661-10.45,1.9,1.612,3.652,3.03,5.322,4.526,2.292,2.039,4.8,3.749,8.2,4.04a13.881,13.881,0,0,0,3.36-.116c2-.33,3.108-1.573,3.049-3.36a8.911,8.911,0,0,0-2.272-5.71c-1.593-1.826-3.263-3.632-4.953-5.38a18.316,18.316,0,0,1-4.662-9.731,26.056,26.056,0,0,0-2.175-5.943c-.738-1.573-2.428-2.389-4.254-2.913-1.767-.5-3.535-.971-5.166-1.418,1.826-9.459-1.01-18.607-1.2-27.872.233.1.68.233,1.127.408a84,84,0,0,0,28.008,6.274c7.225.369,14.451.466,21.676.719.466.019,1.282.408,1.321.7.291,2.311.427,4.642.621,7.089-1.865-.194-3.457-.369-5.05-.544l.524-3.38h-.117c-.447,1.282-.893,2.564-1.437,4.059a2.277,2.277,0,0,0,1.049.408c1.981-.019,3.846,1.34,5.9.447a.5.5,0,0,1,.272.058c1.845.7,2.35.5,2.37-1.262.019-2.506-.194-5.031-.311-7.614,3.166-.194,6.7-.447,10.236-.641,13.149-.68,25.988-2.6,38.321-6.779a7.194,7.194,0,0,1,1.612-.33,13.145,13.145,0,0,0,.272,2.467A2.036,2.036,0,0,0-871.034-209.644Z" transform="translate(1032.147 600.399)" fill="#616d9b"/>
        <path id="Trazado_909310" data-name="Trazado 909310" d="M-1020.423-210.483c1.185-5.652,2.175-11.343,3.593-16.956,3.5-13.751,6.973-27.483,8.779-41.526.68-5.244,1.224-10.877,6.293-14.859-2.7-2.836-2.68-5.05.408-7.478a23.15,23.15,0,0,1,5.846-3.438c14-5.458,26.843-12.644,39.856-19.617,2.758-1.476,4.292-2.952,4.2-5.807-.078-2.137,1.36-3.418,3.865-4,2.6-.622,5.108-1.534,7.633-2.37a2.327,2.327,0,0,0,1.865-2.486c-.213-4.059-.408-8.119-.621-12.159.855,0,1.709-.019,2.544-.019.214,2.855.427,5.691.466,8.527.058,4.856-.369,9.731-.563,14.645,5.167.991,34.476-1.185,40.069-3.03-.8-3.807-1.709-7.556-2.35-11.324-.6-3.438-.99-6.876-1.418-10.139,1.107-.078,2.214-.175,3.322-.233a3.48,3.48,0,0,0,.427-.039c.214,2.8.427,5.594.622,8.391.058.777.427,1.01,1.262,1.262,3.2.932,6.371,1.981,9.537,2.952a7.136,7.136,0,0,1,4.856,4.72,2.633,2.633,0,0,0,1.612,1.36c8.332,2.117,16.7,4.079,25.017,6.254,5.594,1.476,11.168,3.069,16.607,4.953a17.045,17.045,0,0,1,9.711,8c1.573,2.933,1.379,3.962-1.34,6.138a3.871,3.871,0,0,0,.233.369c1.3,1.476,2.195,2.952.874,4.817-.214.291.155.991.427,1.437,2.292,3.787,5.011,7.42,6.876,11.343,4.914,10.391,9.459,20.9,14.159,31.349a.618.618,0,0,0,.194.194c1.981-2.661,3.982-5.3,5.924-7.963,2.195-3.011,4.6-5.924,6.468-9.071a148.521,148.521,0,0,1,11.343-16.762,33.057,33.057,0,0,0,4.079-6.7,8.78,8.78,0,0,0,.8-5.128c-.447-2.234-1.729-4.331-2.719-6.662a10.647,10.647,0,0,1-2.253-.272c-3.185-1.01-4.39-3.535-3.185-6.429.272-.66.816-1.632.5-2-1.418-1.67-1.224-3.457-.622-5.186a3.71,3.71,0,0,0-.874-3.9c-1.36-1.67-1.224-3.127.369-4.642a7.745,7.745,0,0,1,2.292-1.476c4.215-1.865,8.468-3.671,12.547-5.438-1.146-.408-2.408-.913-3.71-1.34a4.133,4.133,0,0,0-3.69.33,14.39,14.39,0,0,1-5.73,1.224,1.938,1.938,0,0,1-2.175-2.175,29.689,29.689,0,0,1,1.845-5.516,3.22,3.22,0,0,1,1.729-1.321c1.67-.66,3.418-1.243,5.186-1.845a6.587,6.587,0,0,0,2.758-.7c.02-.019.058-.019.078-.039s.039-.019.039-.039a4.1,4.1,0,0,0,2.661.039,16.539,16.539,0,0,1,3.671-.486,13.7,13.7,0,0,1,8.643,1.942c1.166.777,2.331,1.534,3.477,2.292,2.952-3.38,5.5-6.876,9.828-8.915a.814.814,0,0,0,.272-.175,2.029,2.029,0,0,0,.233-.194c.525-.039,1.068-.019,1.593-.1.8-.1,1.573-.214,2.35-.33a28.92,28.92,0,0,1,4.1.952c2.02.758,2.389,2.311,1.01,3.826-.738.8-1.67,1.457-2.428,2.234a51.977,51.977,0,0,0-5.361,5.613c-2.059,2.836-1.67,4.137.874,6.584a6.585,6.585,0,0,1,1.806,2.273c1.243,3.962.758,8.022.7,12.062a10.755,10.755,0,0,1-1.923,6.274,48.274,48.274,0,0,0-4.759,7.4,21.921,21.921,0,0,1-6.507,8.41,10.3,10.3,0,0,0-3.962,6.8c-.349,2.855-.156,5.769-.583,8.6-1.185,7.73-2.234,15.48-3.962,23.133-1.923,8.43-4.623,16.743-6.837,25.133-3.516,13.246-8.41,26.027-16.257,37.894-3.826,5.788-7.75,11.479-13.693,15.869-1.34.991-2.408,1.923-2.447,3.593a6.852,6.852,0,0,1-.932,2.642c-.971,1.9-2.6,2.719-5.011,2.506-1.224-.117-2.428-.447-3.671-.544-5.574-.447-9.284-3.185-12.1-7.109-1.4-1.942-2.758-3.923-4.292-5.788a76.562,76.562,0,0,1-12.178-21.287c-1.476-3.865-3.049-7.711-4.6-11.654-4.428.7-8.779,1.534-13.227.253.311,4.953.563,9.634.874,14.3.233,3.4.486,6.817.874,10.216.641,5.769,1.69,11.518,2.059,17.306.757,11.848,1.224,23.7,1.767,35.544.447,9.556.874,19.132,1.2,28.688.214,6.1.33,12.2.311,18.316,0,3.5-2.117,4.992-6.157,4.836a7.922,7.922,0,0,0-2.8.369c-12.314,4.176-25.172,6.1-38.322,6.779-3.535.175-7.07.447-10.236.641.117,2.583.33,5.108.311,7.614-.019,1.767-.524,1.962-2.37,1.262a.494.494,0,0,0-.272-.058c-2.059.893-3.924-.466-5.9-.447a2.952,2.952,0,0,1-1.049-.408c.525-1.5.971-2.777,1.437-4.059h.116l-.524,3.38c1.593.175,3.185.35,5.05.544-.194-2.447-.33-4.759-.622-7.089-.039-.272-.855-.68-1.321-.7-7.225-.253-14.47-.35-21.676-.719a84.368,84.368,0,0,1-27.988-6.274c-.427-.175-.874-.33-1.126-.408.194,9.284,3.03,18.413,1.2,27.872,1.632.447,3.4.913,5.166,1.418,1.826.524,3.516,1.34,4.254,2.913a26.057,26.057,0,0,1,2.176,5.943,18.38,18.38,0,0,0,4.661,9.731c1.709,1.768,3.36,3.554,4.953,5.38a8.91,8.91,0,0,1,2.272,5.71c.039,1.787-1.049,3.011-3.049,3.36a13.883,13.883,0,0,1-3.36.117c-3.418-.291-5.924-1.981-8.2-4.04-1.651-1.476-3.4-2.894-5.322-4.526.233,3.749.505,7.089.66,10.45A20.78,20.78,0,0,0-956.7-9.688a62.241,62.241,0,0,1,3.341,7.342c2.6,7.148,4.428,14.49,8.371,21.249a8.978,8.978,0,0,1,.8,4.7,4.577,4.577,0,0,1-3.341,4.526,5.369,5.369,0,0,1-5.613-1.554,9.628,9.628,0,0,1-2.486-3.9c-1.515-5.691-5.4-10.372-8.546-15.364-.058-.078-.272-.1-.874-.291a25.424,25.424,0,0,0,.816,4A63.693,63.693,0,0,1-960.7,28.983c.33,4.681.68,9.342,1.107,14.023.6,6.565,1.263,13.13,1.943,19.675.583,5.633,1.224,11.246,1.884,16.879.563,4.7,1.224,9.4,1.845,14.1h-6.1c-.563-5.38-1.146-10.76-1.689-16.14-.544-5.341-1.107-10.683-1.573-16.024-.447-5.05-.719-10.119-1.146-15.169-.563-6.565-1.185-13.13-1.806-19.675-.6-6.176-1.282-12.334-1.884-18.51-.272-2.913-.408-5.846-.661-8.76a3.29,3.29,0,0,0-.583-1.34c-1.651-2.719-3.224-5.477-5.011-8.119A46.444,46.444,0,0,1-981.4-28.548a65.132,65.132,0,0,0-1.9-7.556,7.054,7.054,0,0,0-2.525-3.982,9.523,9.523,0,0,1-2.68-3.846q-3.438-7.866-6.565-15.81c-3.108-7.925-6.565-15.771-9.032-23.851a188.192,188.192,0,0,1-7.614-34.864,169.036,169.036,0,0,1-.68-23.677c.253-7.633,1.321-15.266,2.234-22.861a34.365,34.365,0,0,1,2.059-8.41c3.108-7.847,3.2-15.888,2.816-24.007-.058-1.3.311-2.952-.466-3.826-.7-.8-2.68-.738-4.079-1.088-1.3-.33-2.564-.738-3.884-1.049-2.894-.7-5.516-1.67-6.8-4.292-.039-.078-.175-.117-.253-.175v-1.767A5.122,5.122,0,0,0-1020.423-210.483Zm238.008-96.571c.059.466,1.127,1.029,1.865,1.224a21.044,21.044,0,0,0,3.185.408c.854-2.039,1.69-4,2.641-6.235a55.949,55.949,0,0,0-6.332,1.3C-782.648-309.831-782.531-308.258-782.415-307.053Zm8.41-6.39c-1.573-1.884-.486-3.826.136-5.749-4.681-1.049-7.556,1.3-8.507,6.856C-779.6-312.705-776.821-313.074-774-313.444Zm-5.5-10.877a3.834,3.834,0,0,0-2.544,4.6,29.341,29.341,0,0,1,3.787-1.806,27.942,27.942,0,0,1,4.079-.7c.505-1.437,1.049-2.933,1.651-4.584C-774.879-325.971-777.248-325.272-779.5-324.32Zm41.682-21a7.122,7.122,0,0,0-1.476-.757c-2.661-.544-5.438-.369-7.342,1.224a55.854,55.854,0,0,0-6.138,6.72c-.66.758-.524,1.437.466,2.078,1.612,1.049,3.069,2.272,4.856,3.632C-747.259-338.518-741.646-341.3-737.82-345.317Zm-99.426,136.135c3.846,8.06,7.653,16.14,11.576,24.162a48.939,48.939,0,0,0,7.439,10.411c1.787,2.039,4.234,2.506,6.41,3.632.932.486,2.292.33,3.69.5a3.248,3.248,0,0,1,1.632-3.651c.253-.155.272-.622.33-.952a6.6,6.6,0,0,1,3.826-4.953c5.865-2.739,9.187-7.225,11.867-12.2,3.69-6.837,8.255-13.441,10.9-20.569,4.331-11.654,7.769-23.579,10.916-35.525,1.884-7.148,2.408-14.567,3.749-21.851,1.01-5.477,2.292-10.935,3.554-16.374a14.668,14.668,0,0,1,6.079-8.74,14.422,14.422,0,0,0,4.623-5.672,44.072,44.072,0,0,1,3.943-6.448c3.244-4.428,3.749-9.284,3.438-14.315a6.528,6.528,0,0,1-.078-1.729c.466-2.117-.991-3.4-2.428-4.836-4.992-5.031-11.6-8.158-17.908-11.634-1.942-1.068-3.923-.563-5.9-.291a1.139,1.139,0,0,0-.68.719c-.388,1.632-.7,3.263-1.088,5.167a1.1,1.1,0,0,1-1.3-1.36,17.915,17.915,0,0,1,1.282-3.574,7.271,7.271,0,0,1,1.185-1.457c-2.855.369-5.322.68-7.866,1.01.175,1.243.388,2.311.447,3.36.019.388-.35.8-.525,1.2-.311-.35-.816-.68-.874-1.068a18.156,18.156,0,0,1-.039-2.719,8.9,8.9,0,0,0-4.72,4.72c-.486,1.049.078,1.651,1.34,1.476a7.555,7.555,0,0,0,2.428-.6,7.861,7.861,0,0,1,5.788-.427c1.923.466,3.885.874,5.769,1.437a11.146,11.146,0,0,1,1.9,1.2,6.384,6.384,0,0,0,2.02.874c2.894.388,5.807.719,8.721.932a6.057,6.057,0,0,0,2.078-.486c.583.7.991,1.165,1.34,1.593-4.273,1.418-8.682.777-13.11.214-1.107-.136-2.739-.505-3.244-.058a13.053,13.053,0,0,0-2.486,3.865c-.272.544-.039,1.243-.039,2.137,6.235-.758,12.47,2.408,18.84-.272-1.165,1.088-2.195,2.059-.486,3.535-.777-.058-1.437.078-1.651-.136-1.224-1.185-2.7-.563-4.1-.6-2.428-.039-4.856-.233-7.264-.272a26.789,26.789,0,0,0-3.535.253c-2.933.35-2.952.369-3.457,2.836-.214,1.049-.35,2.117-.525,3.127,3.049.622,5.924,1.34,8.876,1.787a35.929,35.929,0,0,0,5.419.175,4.051,4.051,0,0,0,1.321-.486c.913-.388,1.806-.777,2.7-1.165.136.136.272.291.408.427a10.3,10.3,0,0,0-.835,1.282,14,14,0,0,0-.525,1.515c-.116.35-.253.7-.369,1.049-.369-.136-.758-.291-1.126-.427a5.157,5.157,0,0,0-1.515-.505c-4.351-.019-8.721.272-12.683-1.806a2.8,2.8,0,0,0-1.767.1,1.239,1.239,0,0,0-.835.835c-.194,1.826-.272,3.671-.388,5.613,4.448.175,8.682.738,12.489,2.6a4.094,4.094,0,0,0-.039.486c-1.03-.039-2.078-.1-3.555-.155.991,1.01,1.845,1.806,2.583,2.68a4,4,0,0,1,.505,1.262c-.563-.019-1.282.175-1.631-.078a16.7,16.7,0,0,1-3.049-2.486c-.835-.913-1.379-1.748-3.088-1.69a30.931,30.931,0,0,1-5.3-.719c-.427,2.777-.369,5.264,1.5,7.225a12.268,12.268,0,0,0,4.176,2.331c1.515.641,3.185.971,4.739,1.554.505.194.835.758,1.224,1.146a4.91,4.91,0,0,1-1.865.408c-2.505-.505-4.992-1.146-7.575-1.767-.194.505-.369.952-.525,1.418a36,36,0,0,1-5.827,10.333,70.394,70.394,0,0,0-6.8,10.916c-4.894,9.614-10.8,18.762-16.645,27.95-1.282,2.02-2.059,4.292-3.2,6.39-.874,1.612-2.136,3.069-2.972,4.681a120.4,120.4,0,0,0-8.837,24.356c-.408,1.515-.505,1.36-2.059.583-2.331-1.165-1.923-2.875-1.515-4.467.835-3.224,1.923-6.39,2.836-9.342-6.507,1.9-13.246,3.865-20.141,5.866C-838.644-212.114-837.945-210.657-837.246-209.181ZM-985.986-44.669c4.662,4.584,6.526,10.216,7.827,15.966a56.8,56.8,0,0,0,8.216,18.763c2.447,3.729,4.448,7.653,6.7,11.479,2.02,3.438,4.234,6.779,6.1,10.275,1.612,2.991,2.816,6.118,4.312,9.168a13.943,13.943,0,0,0,2.408,3.9c1.107,1.146,2.428.777,2.564-.7a10.693,10.693,0,0,0-.583-4.545c-.7-1.942-1.981-3.729-2.739-5.652-2.1-5.341-4-10.721-6.06-16.082a52.4,52.4,0,0,0-2.641-5.846,20.792,20.792,0,0,1-2.292-10.236c.058-3.749-.175-7.517-.427-11.246a3.153,3.153,0,0,0-1.34-1.962c-1.962-1.418-3.982-2.719-4.6-5.283,1.243.486,2.525.932,3.729,1.476,1.3.6,2.506,1.321,3.768,1.942a31.833,31.833,0,0,1,9.673,7.012,9.4,9.4,0,0,0,5.866,3.224,4.063,4.063,0,0,0,2.544-.272c.408-.388.233-1.534-.117-2.156a20.381,20.381,0,0,0-2.583-3.4c-1.379-1.476-2.933-2.836-4.37-4.273a18.5,18.5,0,0,1-5.244-11.207,12.226,12.226,0,0,0-1.4-4.312,5.468,5.468,0,0,0-2.544-2.1c-2.641-1.088-5.4-1.942-8.1-2.894a1.915,1.915,0,0,0-.8-.136c-5.205.816-10.217,1.981-14.3,5.166a25.685,25.685,0,0,1-4.331,2.156A3.888,3.888,0,0,0-985.986-44.669Zm16.742-33.077c-1.806-1.9-1.029-4.021-.68-6.1.311-1.865-.136-3.049-2.078-3.865-2.156-.932-2.467-2.389-2.428-4.234.194-10.585.311-21.19.447-31.776a3.01,3.01,0,0,0-.078-.583c-.078.019-.156.019-.214.039-.583,6.662-1.34,13.3-1.709,19.986A168.765,168.765,0,0,0-976.275-86a191.786,191.786,0,0,0,2.37,20.491c.621,3.729,3.807,6.351,6.953,8.779-2.1-3.574-1.437-7.5-1.865-11.226-.35-2.952-.252-5.943-.35-8.915C-969.147-77.183-969.069-77.552-969.244-77.746Zm-18.743,28.552c4.72-2.175,9.265-4.254,13.771-6.332-1.651-4.8-3.341-9.75-5.108-14.878-4.623,1.437-9.77,2.642-14.12,5.458a1.19,1.19,0,0,0-.486,1.068C-991.988-59-990.007-54.148-987.987-49.195Zm-18.18-119.626c-1.107,5.963-2.1,11.965-2.641,17.966-.563,6.118-.641,12.295-.738,18.432-.175,10.391,1.476,20.608,3.807,30.785,1.787,7.789,3.049,15.674,5.963,23.23,1.379,3.593,2.8,7.186,4.273,10.974,4.972-3.224,10.391-4.8,16.2-6.1l-.35-3.147a169.853,169.853,0,0,1-.155-31.892c.505-5.438.661-10.935,1.515-16.335,1.671-10.78,1.243-21.637,2.039-32.436.291-4.021,1.185-8,1.787-12a36.829,36.829,0,0,1,.738-4.04c.039.524.058,1.049.1,1.573l.388.019c.544-9.284,1.088-18.568,1.651-27.969a5.318,5.318,0,0,0-1.457.233c-4.06,1.9-8.352,1.379-12.606.913-5.866-.641-11.731-1.4-17.694-2.1.117,1.593.35,3.38.35,5.167,0,5.167.272,10.352-.272,15.48C-1003.681-176.279-1005.468-172.608-1006.167-168.82Zm35.894-36.573c.253-3.438-.039-6.876-2.059-10.081-1.127-1.806-2.195-3.632-3.127-5.516a6.226,6.226,0,0,1,.524-6.6c.485-.719.952-1.437,1.418-2.175a6.993,6.993,0,0,0,.641-7.051c-1.029-2.156-2.234-4.254-3.438-6.351-2.933-5.05-5.361-10.216-5.438-15.985,0-.466-.505-.913-.8-1.36-1.224-1.787-2.525-3.535-3.632-5.38-.233-.388.233-1.107.389-1.67a7.552,7.552,0,0,1,1.457,1.049c.913,1.2,1.709,2.467,2.641,3.826.7-2.292,1.3-4.292,1.9-6.293.214,0,.408,0,.622.019a13.308,13.308,0,0,1,.233,2.137c-.1,1.9-.583,3.826-.35,5.691.194,1.651-.1,3.4.524,4.914,1.379,3.38,2.972,6.7,4.681,9.983,1.282,2.486,3.049,4.8,4.273,7.3a8.728,8.728,0,0,1-1.282,10.275c-2.933,3.244-2.816,6.235-.33,9.5a19.081,19.081,0,0,1,3.962,13.363,53.947,53.947,0,0,0,.311,7.905c.7,8.527-.485,16.956-1.262,25.425-.7,7.536-1.515,15.092-1.69,22.647-.447,18.743-.544,37.506-.816,56.249a3.9,3.9,0,0,0,2.059,3.632c7.517,5.264,16.315,7.847,25.619,9.323a171.705,171.705,0,0,0,31.6,1.593c9.206-.233,18.413-.738,27.58-1.34a79.93,79.93,0,0,0,10.469-1.69c6.351-1.3,12.683-2.739,19-4.176a1.273,1.273,0,0,0,.758-1.01c-.155-3.846-.408-7.692-.6-11.537-.544-11.013-1.107-22.045-1.612-33.058-.291-6.2-.7-12.392-.719-18.588a226.294,226.294,0,0,0-2.933-34.126c-1.321-8.294-1.515-16.723-2.214-25.075-.117-1.418-.1-2.836-.233-4.234-.447-4.759.253-9.459,1.01-14.14a5.187,5.187,0,0,1,.427-1.418c4.681-9.245,7.361-19.015,9.944-28.785,1.981-7.536,3.865-15.111,5.846-22.647.136-.505.7-.932,1.068-1.4.544.427,1.515.8,1.573,1.262a28.9,28.9,0,0,1-.116,4.487,2.621,2.621,0,0,0,.1,1.36c1.36-1.146,2.7-2.311,3.885-3.3-.486,2.952-.408,5.458-4.428,7.148-.427.175-.66.952-.758,1.476-1.845,8.468-3.438,16.976-5.536,25.405-1.185,4.8-3.2,9.439-4.681,14.179-.641,2.02-.855,4.118-1.34,6.176-.233,1.029-.622,2.039-.952,3.069a62.284,62.284,0,0,0,19.539-.369c3.593-.719,7.4-.622,11.091-1.029,2.389-.272,4.778-.738,7.128-1.243a2.394,2.394,0,0,0,1.437-1.2c1.69-3.613,3.166-7.3,4.953-10.877a6.835,6.835,0,0,0,.311-5.477c-1.632-5.011-3.263-10.042-4.875-15.053a2.6,2.6,0,0,1-.272-1.282c.719-3.321-.894-6.235-2.137-9.187-3.108-7.361-6.274-14.7-9.439-22.045a16.272,16.272,0,0,1-1.282-2.525,4.861,4.861,0,0,1,.136-2.933,1.6,1.6,0,0,0-.272-2.078c-.505-.524-.971-1.088-1.418-1.632-1.36-1.612-1.282-2.175.194-3.71a1.5,1.5,0,0,0,.155-1.379,9.69,9.69,0,0,0-5.866-5.769c-4.176-1.554-8.488-2.875-12.8-4.118-9.187-2.661-18.432-5.205-27.658-7.789-.427-.117-.835-.253-1.515-.447a27.5,27.5,0,0,1,.719,3.982c.019.758-.349,2.059-.893,2.195-1.224.33-1.845-.622-2.059-1.632-.544-2.68-1.126-5.361-1.573-8.06-.35-2.078-1.573-3.263-3.9-3.885-2.836-.777-5.574-1.787-8.371-2.7-.117.136-.233.253-.369.388a8.728,8.728,0,0,0,1.321,1.088c2.447,1.379,5.031,2.622,7.38,4.118,1.845,1.165,1.865,2.234.117,3.457a17.2,17.2,0,0,1-4.525,2.214,92.823,92.823,0,0,1-25.367,4.059c-5.3.175-10.624.408-15.927.272a84.665,84.665,0,0,1-11.071-1.224,3.289,3.289,0,0,1-2.02-2.039c-.175-.486.68-1.457,1.34-1.865a12.289,12.289,0,0,1,3.108-1.107c2.68-.758,2.68-.738,2.467-3.088-2.952,1.01-5.788,2.078-8.721,2.933-1.515.447-2.078,1.185-2.1,2.447-.02,1.748-.078,3.516-.078,5.264-.019,2.739,0,5.5,0,8.313-2.253-2.37-3.516-4.914-2.681-8.391-1.029.544-1.651.816-2.214,1.165-4.234,2.6-8.546,5.128-12.664,7.866a169.431,169.431,0,0,1-25.7,13.557,47.5,47.5,0,0,0-5.691,3.127c-1.127.7-1.088,1.515-.059,2.447,2.02,1.845,1.709,2.952-1.029,3.865a6.256,6.256,0,0,0-4.506,5.4c-1.224,7.633-2.234,15.286-3.69,22.88-1.554,8.022-3.5,15.985-5.3,23.968-1.612,7.109-3.282,14.218-4.895,21.21C-1002.224-203.9-986.394-203.665-970.273-205.394Z" transform="translate(1020.773 471.842)" fill="#311d47"/>
        <path id="Trazado_909311" data-name="Trazado 909311" d="M-914.252-44.318c-.6-6.312-1.224-12.644-1.826-18.957-.641-6.856-1.224-13.713-1.923-20.569-.835-8.158-1.573-16.335-2.661-24.473-1.185-8.818-2.525-17.617-4.176-26.357-1.3-6.876-3.2-13.654-4.856-20.472a40.31,40.31,0,0,1-1.282-11.906c.427-7.4-1.69-14.509-4.137-21.521-.68-1.942-1.379-3.885-2.117-5.982h5.516c4.176,11.887,6.041,24.143,8.469,36.3,1.806,8.993,4.584,17.869,7.109,26.745,2.816,9.828,5.9,19.6,8.76,29.426a141.656,141.656,0,0,0,10.255,25.192A134.68,134.68,0,0,1-885.7-45.154a7.021,7.021,0,0,0,.311.816h5.089c-.971-3.69-1.865-7.4-2.914-11.09a145.473,145.473,0,0,0-9.828-24.084c-4.448-9.032-7.478-18.432-10.158-27.988-2.991-10.683-6.565-21.268-10.1-31.834a223.9,223.9,0,0,1-7.4-29.678,121.3,121.3,0,0,0-6.779-23.482c-.427-1.029-.311-1.418.971-2.195,2.583-1.554,5.555-1.2,8.235-2.02,1.69-.524,3.438-.932,5.128-1.457a3.383,3.383,0,0,0,1.69-.913,2.491,2.491,0,0,0,.525-2.039c-.155-.369-1.418-.7-2.1-.6-4.6.68-9.168,1.651-13.79,2.175-3.943.427-7.983.427-11.965.505-4.739.078-9.478.039-14.218.039a3.516,3.516,0,0,0-1.01,0,13.888,13.888,0,0,0-1.69.874c.447.369.835.952,1.36,1.068a50.853,50.853,0,0,0,5.147.874c1.962.252,3.924.408,5.885.622,1.515.155,2.447.641,2.758,2.156.855,4.312,2.234,8.566,2.875,12.9a50.353,50.353,0,0,1,.6,11.945,44.714,44.714,0,0,0,1.962,16.645,244.518,244.518,0,0,1,7.323,37.156c1.554,12.761,2.8,25.541,4.1,38.321,1.049,10.255,1.981,20.511,2.952,30.785.039.427.039.874.039,1.321C-918.544-44.318-916.388-44.318-914.252-44.318Z" transform="translate(1038.772 609.879)" fill="#311d47"/>
        <path id="Trazado_909312" data-name="Trazado 909312" d="M-935.34-35.848c-.622-3.108-1.282-6.215-1.865-9.342-1.9-10.255-3.885-20.491-5.613-30.766-2.253-13.3-3.846-26.726-6.6-39.953-2.078-9.983-5.613-19.753-8.333-29.659-4.04-14.645-7.905-29.309-11.867-43.954-1.554-5.73-3.108-11.46-4.778-17.17a9.826,9.826,0,0,0-1.923-3.38,2.6,2.6,0,0,0-2.156-.6,1.9,1.9,0,0,0-.777,1.787c4.525,18.335,8.934,36.69,13.771,54.967,2.6,9.867,6.06,19.559,8.954,29.387A192.264,192.264,0,0,1-950.9-96.175c2.719,20.006,5.5,39.992,9.886,59.784a3.4,3.4,0,0,0,.253.544Z" transform="translate(1139.611 601.409)" fill="#311d47"/>
        <path id="Trazado_909313" data-name="Trazado 909313" d="M-902.7-333.284c-2.952,1.01-5.788,2.078-8.721,2.933-1.515.447-2.078,1.185-2.1,2.447-.019,1.748-.078,3.516-.078,5.264-.019,2.739,0,5.5,0,8.313-2.253-2.37-3.516-4.914-2.68-8.391-1.029.544-1.651.816-2.214,1.165-4.234,2.6-8.546,5.128-12.664,7.866a169.428,169.428,0,0,1-25.7,13.557A47.522,47.522,0,0,0-962.538-297c-1.127.7-1.088,1.515-.058,2.447,2.02,1.845,1.709,2.952-1.029,3.865a6.256,6.256,0,0,0-4.506,5.4c-1.224,7.633-2.234,15.286-3.69,22.88-1.554,8.022-3.5,15.985-5.3,23.968-1.612,7.109-3.283,14.218-4.895,21.21,15.5,5.089,31.329,5.322,47.469,3.593.253-3.438-.039-6.876-2.059-10.081-1.127-1.806-2.195-3.632-3.127-5.516a6.227,6.227,0,0,1,.524-6.6c.486-.719.952-1.437,1.418-2.175a6.993,6.993,0,0,0,.641-7.051c-1.03-2.156-2.234-4.254-3.438-6.351-2.933-5.05-5.361-10.216-5.438-15.985,0-.466-.5-.913-.8-1.36-1.224-1.787-2.525-3.535-3.632-5.38-.233-.388.233-1.107.388-1.67a7.554,7.554,0,0,1,1.457,1.049c.913,1.2,1.709,2.467,2.642,3.826.7-2.292,1.3-4.292,1.9-6.293.214,0,.408.019.621.019a13.294,13.294,0,0,1,.233,2.137c-.1,1.9-.583,3.826-.349,5.691.194,1.651-.1,3.4.524,4.914,1.379,3.38,2.972,6.7,4.681,9.983,1.282,2.486,3.049,4.8,4.273,7.3a8.729,8.729,0,0,1-1.282,10.275c-2.933,3.244-2.816,6.235-.33,9.5a19.082,19.082,0,0,1,3.962,13.363,53.929,53.929,0,0,0,.311,7.905c.7,8.527-.486,16.956-1.263,25.425-.7,7.536-1.515,15.092-1.69,22.647-.447,18.743-.544,37.506-.816,56.249a3.9,3.9,0,0,0,2.059,3.632c7.517,5.264,16.315,7.847,25.619,9.323a173.434,173.434,0,0,0,31.6,1.612c9.206-.233,18.413-.738,27.581-1.34a79.934,79.934,0,0,0,10.469-1.69c6.352-1.3,12.683-2.739,19-4.176a1.273,1.273,0,0,0,.758-1.01c-.155-3.846-.408-7.691-.6-11.537-.544-11.013-1.107-22.045-1.612-33.058-.291-6.2-.7-12.392-.719-18.588a226.309,226.309,0,0,0-2.933-34.126c-1.321-8.294-1.515-16.723-2.214-25.075-.116-1.418-.1-2.836-.233-4.234-.447-4.759.252-9.459,1.01-14.14a5.2,5.2,0,0,1,.427-1.418c4.681-9.245,7.361-19.015,9.945-28.785,1.981-7.536,3.865-15.111,5.846-22.647.136-.505.7-.932,1.068-1.4.544.427,1.515.8,1.573,1.262a28.929,28.929,0,0,1-.117,4.487,2.62,2.62,0,0,0,.1,1.36c1.36-1.146,2.7-2.311,3.885-3.321-.485,2.952-.408,5.458-4.428,7.148-.427.175-.66.932-.757,1.476-1.845,8.468-3.438,16.976-5.536,25.405-1.185,4.8-3.2,9.439-4.681,14.179-.641,2.02-.854,4.118-1.34,6.176-.233,1.029-.622,2.039-.952,3.069a62.418,62.418,0,0,0,19.559-.369c3.593-.719,7.4-.622,11.091-1.029,2.389-.272,4.778-.738,7.128-1.243a2.4,2.4,0,0,0,1.437-1.2c1.69-3.613,3.166-7.3,4.953-10.877a6.836,6.836,0,0,0,.311-5.477c-1.632-5.011-3.263-10.042-4.875-15.053a2.594,2.594,0,0,1-.272-1.282c.719-3.321-.893-6.235-2.137-9.187-3.107-7.361-6.273-14.7-9.44-22.045a16.255,16.255,0,0,1-1.282-2.525,4.861,4.861,0,0,1,.136-2.933,1.593,1.593,0,0,0-.272-2.078c-.505-.524-.971-1.088-1.437-1.632-1.36-1.612-1.263-2.175.194-3.71a1.5,1.5,0,0,0,.155-1.379A9.691,9.691,0,0,0-801-317.027c-4.176-1.554-8.488-2.875-12.8-4.118-9.187-2.661-18.432-5.205-27.658-7.789-.427-.117-.835-.253-1.515-.447a27.516,27.516,0,0,1,.719,3.982c.019.758-.35,2.059-.894,2.195-1.224.33-1.845-.622-2.059-1.632-.544-2.68-1.126-5.361-1.573-8.061-.349-2.078-1.573-3.263-3.9-3.885-2.836-.777-5.574-1.787-8.371-2.7-.117.136-.233.253-.369.388A8.721,8.721,0,0,0-858.1-338c2.447,1.379,5.031,2.622,7.381,4.118,1.845,1.165,1.865,2.234.117,3.457a17.2,17.2,0,0,1-4.526,2.214,92.821,92.821,0,0,1-25.366,4.059c-5.3.175-10.624.408-15.927.272a84.646,84.646,0,0,1-11.071-1.224,3.289,3.289,0,0,1-2.02-2.039c-.175-.486.68-1.457,1.34-1.865a12.285,12.285,0,0,1,3.107-1.107C-902.482-330.953-902.482-330.934-902.7-333.284Z" transform="translate(985.068 480.087)" fill="#f6df33"/>
        <path id="Trazado_909314" data-name="Trazado 909314" d="M-949.08-337.95a1.1,1.1,0,0,1-1.3-1.36,17.911,17.911,0,0,1,1.282-3.574,7.279,7.279,0,0,1,1.185-1.457c-2.855.369-5.322.68-7.866,1.01.175,1.243.388,2.311.447,3.36.019.389-.35.8-.525,1.2-.311-.35-.816-.68-.874-1.068a18.157,18.157,0,0,1-.039-2.719,8.9,8.9,0,0,0-4.72,4.72c-.486,1.049.078,1.651,1.34,1.476a7.558,7.558,0,0,0,2.428-.6,7.86,7.86,0,0,1,5.788-.427c1.923.466,3.885.874,5.769,1.437a11.139,11.139,0,0,1,1.9,1.2,6.385,6.385,0,0,0,2.02.874c2.894.388,5.808.719,8.721.932a6.055,6.055,0,0,0,2.078-.486c.583.7.99,1.165,1.34,1.593-4.273,1.418-8.682.777-13.111.214-1.107-.136-2.739-.5-3.243-.058a13.047,13.047,0,0,0-2.486,3.865c-.272.544-.039,1.243-.039,2.136,6.235-.758,12.47,2.408,18.84-.272-1.165,1.088-2.195,2.059-.486,3.554-.777-.058-1.437.078-1.651-.136-1.224-1.185-2.7-.563-4.1-.6-2.428-.039-4.856-.233-7.264-.272a26.809,26.809,0,0,0-3.535.253c-2.933.35-2.952.369-3.457,2.836-.214,1.049-.35,2.117-.525,3.127,3.05.621,5.924,1.34,8.876,1.787a35.934,35.934,0,0,0,5.419.175,4.051,4.051,0,0,0,1.321-.486c.913-.389,1.806-.777,2.7-1.165.136.136.272.291.408.427a10.326,10.326,0,0,0-.835,1.282,13.987,13.987,0,0,0-.524,1.515c-.117.35-.253.7-.369,1.049-.369-.136-.758-.291-1.126-.427a5.154,5.154,0,0,0-1.515-.5c-4.351-.02-8.721.272-12.683-1.806a2.8,2.8,0,0,0-1.767.1c-.369.117-.816.524-.835.835-.194,1.826-.272,3.671-.388,5.613,4.448.175,8.682.738,12.489,2.6a4.093,4.093,0,0,0-.039.486c-1.03-.039-2.078-.1-3.555-.155.991,1.01,1.845,1.806,2.583,2.68a4,4,0,0,1,.505,1.262c-.563-.019-1.282.175-1.631-.078a16.7,16.7,0,0,1-3.05-2.486c-.835-.913-1.379-1.748-3.088-1.69a30.947,30.947,0,0,1-5.3-.719c-.427,2.777-.369,5.264,1.5,7.225a12.269,12.269,0,0,0,4.176,2.331c1.515.641,3.185.971,4.739,1.554.505.194.835.757,1.224,1.146a4.91,4.91,0,0,1-1.865.408c-2.505-.5-4.992-1.146-7.575-1.767-.194.5-.369.952-.525,1.418a36,36,0,0,1-5.827,10.333,70.406,70.406,0,0,0-6.8,10.916c-4.895,9.614-10.8,18.763-16.645,27.95-1.3,2.02-2.059,4.292-3.2,6.39-.874,1.612-2.136,3.069-2.972,4.681a120.426,120.426,0,0,0-8.837,24.356c-.408,1.515-.505,1.36-2.059.583-2.331-1.165-1.923-2.875-1.515-4.467.835-3.224,1.923-6.39,2.836-9.342-6.507,1.9-13.246,3.865-20.141,5.866.738,1.515,1.437,2.991,2.156,4.467,3.846,8.061,7.652,16.14,11.576,24.162a48.929,48.929,0,0,0,7.439,10.411c1.787,2.039,4.234,2.506,6.41,3.632.932.486,2.292.33,3.69.5a3.259,3.259,0,0,1,1.631-3.651c.253-.155.272-.622.33-.952A6.6,6.6,0,0,1-980-183.693c5.866-2.739,9.187-7.225,11.867-12.2,3.691-6.837,8.255-13.441,10.9-20.569,4.331-11.654,7.769-23.579,10.916-35.525,1.884-7.148,2.408-14.567,3.749-21.851,1.01-5.477,2.292-10.935,3.555-16.374a14.668,14.668,0,0,1,6.079-8.74,14.423,14.423,0,0,0,4.623-5.671,44.089,44.089,0,0,1,3.943-6.448c3.243-4.428,3.749-9.284,3.438-14.315a6.518,6.518,0,0,1-.078-1.729c.466-2.117-.991-3.4-2.428-4.836-4.992-5.03-11.6-8.158-17.908-11.634-1.942-1.068-3.923-.563-5.9-.291a1.138,1.138,0,0,0-.68.719C-948.361-341.5-948.691-339.853-949.08-337.95Z" transform="translate(1198.509 475.507)" fill="#e59f41"/>
        <path id="Trazado_909315" data-name="Trazado 909315" d="M-885.4-138.99c4.972-3.224,10.391-4.8,16.2-6.1l-.35-3.146a169.853,169.853,0,0,1-.155-31.892c.505-5.438.66-10.935,1.515-16.335,1.67-10.78,1.243-21.637,2.039-32.436.291-4.021,1.185-8,1.787-12a36.818,36.818,0,0,1,.738-4.04c.039.524.058,1.049.1,1.573a2.6,2.6,0,0,1,.388.019c.544-9.284,1.088-18.568,1.651-27.969a5.319,5.319,0,0,0-1.457.233c-4.059,1.9-8.352,1.379-12.605.913-5.866-.641-11.731-1.4-17.694-2.1.116,1.593.35,3.38.35,5.167,0,5.166.272,10.352-.272,15.48-.408,3.788-2.175,7.458-2.874,11.246-1.107,5.963-2.1,11.965-2.641,17.966-.563,6.118-.641,12.295-.738,18.432-.175,10.391,1.476,20.608,3.807,30.785,1.787,7.789,3.049,15.674,5.963,23.23C-888.3-146.371-886.9-142.777-885.4-138.99Z" transform="translate(910.693 543.418)" fill="#e59f41"/>
        <path id="Trazado_909316" data-name="Trazado 909316" d="M-896.082-179.534c1.243.486,2.525.913,3.729,1.476,1.3.6,2.506,1.321,3.768,1.942a31.83,31.83,0,0,1,9.672,7.012,9.489,9.489,0,0,0,5.866,3.224,4.082,4.082,0,0,0,2.544-.272c.408-.388.233-1.534-.117-2.156a20.389,20.389,0,0,0-2.583-3.4c-1.379-1.476-2.933-2.836-4.37-4.273a18.5,18.5,0,0,1-5.244-11.207,12.229,12.229,0,0,0-1.4-4.312,5.466,5.466,0,0,0-2.544-2.1c-2.641-1.088-5.4-1.942-8.1-2.894a1.916,1.916,0,0,0-.8-.136c-5.205.816-10.216,1.981-14.3,5.166a25.679,25.679,0,0,1-4.331,2.156,4.747,4.747,0,0,0,.816,1.767c4.662,4.584,6.526,10.216,7.828,15.966a56.8,56.8,0,0,0,8.216,18.763c2.447,3.729,4.448,7.653,6.7,11.479,2.02,3.438,4.234,6.779,6.1,10.275,1.612,2.991,2.816,6.118,4.312,9.168a14.33,14.33,0,0,0,2.408,3.923c1.107,1.146,2.428.777,2.564-.7a10.691,10.691,0,0,0-.583-4.545c-.7-1.942-1.981-3.729-2.739-5.652-2.1-5.341-4-10.721-6.06-16.082a52.41,52.41,0,0,0-2.641-5.846,20.79,20.79,0,0,1-2.292-10.236c.058-3.749-.175-7.517-.427-11.265a3.154,3.154,0,0,0-1.34-1.962C-893.441-175.649-895.461-176.97-896.082-179.534Z" transform="translate(948.291 614.689)" fill="#e59f41"/>
        <path id="Trazado_909317" data-name="Trazado 909317" d="M-938.24-347.83c.33,4.933.874,9.847.932,14.742.058,4.856-.369,9.731-.563,14.645,5.167.991,34.476-1.185,40.069-3.03-.8-3.807-1.709-7.556-2.35-11.323-.641-3.749-1.049-7.517-1.534-11.032-3.3.758-6.351,1.69-9.5,2.1a19.6,19.6,0,0,1-11.362-1.67A46.827,46.827,0,0,0-938.24-347.83Z" transform="translate(1022.361 472.219)" fill="#e59f41"/>
        <path id="Trazado_909318" data-name="Trazado 909318" d="M-1014.061-333.331c.194-6.1,5.807-8.876,9.634-12.9a7.133,7.133,0,0,0-1.476-.757c-2.661-.544-5.438-.369-7.342,1.224a55.864,55.864,0,0,0-6.138,6.72c-.66.758-.525,1.418.466,2.078C-1017.305-335.894-1015.848-334.69-1014.061-333.331Z" transform="translate(1287.381 472.753)" fill="#e59f41"/>
        <path id="Trazado_909319" data-name="Trazado 909319" d="M-992.723-333.161c-4.681-1.049-7.556,1.282-8.507,6.856,2.777-.369,5.555-.738,8.371-1.107C-994.432-329.3-993.364-331.238-992.723-333.161Z" transform="translate(1239.627 485.81)" fill="#cc8532"/>
        <path id="Trazado_909320" data-name="Trazado 909320" d="M-993.039-329.4a55.958,55.958,0,0,0-6.332,1.3c-1.593.524-1.5,2.1-1.36,3.3.058.466,1.127,1.029,1.865,1.224a21.05,21.05,0,0,0,3.185.408C-994.826-325.2-993.991-327.166-993.039-329.4Z" transform="translate(1239.108 489.585)" fill="#cc8532"/>
        <path id="Trazado_909321" data-name="Trazado 909321" d="M-992.313-337.2c-2.37.816-4.739,1.534-6.973,2.467a3.833,3.833,0,0,0-2.544,4.6,29.318,29.318,0,0,1,3.787-1.806,27.942,27.942,0,0,1,4.079-.7C-993.44-334.034-992.9-335.549-992.313-337.2Z" transform="translate(1240.557 482.235)" fill="#cc8532"/>
        <g id="Grupo_1104434" data-name="Grupo 1104434" transform="translate(26.836 401.476)">
          <path id="Trazado_909322" data-name="Trazado 909322" d="M-880.6-203.81c-3.263,1.437-6,2.739-7.769,3.671-2.117,1.107-4.312,2.234-6.565,3.321-.252-.6-.485-1.224-.738-1.826a1.147,1.147,0,0,1,.486-1.068c4.351-2.816,9.5-4.021,14.12-5.458C-880.913-204.743-880.757-204.277-880.6-203.81Z" transform="translate(895.7 205.17)" fill="#e20613"/>
          <path id="Trazado_909323" data-name="Trazado 909323" d="M-881.7-204.47c.233.66.447,1.321.68,1.981-2.7,1.2-4.972,2.292-6.507,3.108-2.467,1.3-5.05,2.6-7.73,3.865-.272-.66-.525-1.321-.8-1.981,2.253-1.088,4.467-2.195,6.565-3.321C-887.7-201.751-884.96-203.033-881.7-204.47Z" transform="translate(896.795 205.83)" fill="#f29100"/>
          <path id="Trazado_909324" data-name="Trazado 909324" d="M-882.282-203.45c.291.835.583,1.69.874,2.525-3.2,1.418-5.866,2.68-7.614,3.593-2.1,1.107-4.273,2.214-6.507,3.282-.33-.816-.66-1.632-.971-2.447,2.68-1.262,5.264-2.564,7.73-3.865C-887.235-201.158-884.982-202.246-882.282-203.45Z" transform="translate(898.061 206.791)" fill="#ffec00"/>
          <path id="Trazado_909325" data-name="Trazado 909325" d="M-882.839-202.15c.291.816.563,1.651.855,2.467-3.166,1.4-5.807,2.642-7.517,3.554q-3.117,1.661-6.468,3.263c-.33-.8-.641-1.612-.971-2.408,2.234-1.068,4.409-2.175,6.507-3.282C-888.7-199.47-886.044-200.732-882.839-202.15Z" transform="translate(899.491 208.016)" fill="#93c01f"/>
          <path id="Trazado_909326" data-name="Trazado 909326" d="M-883.385-200.88c.291.855.583,1.67.855,2.506-3.127,1.379-5.73,2.622-7.439,3.516-2.059,1.088-4.215,2.175-6.41,3.244l-.99-2.447c2.214-1.068,4.39-2.156,6.468-3.263C-889.174-198.238-886.532-199.482-883.385-200.88Z" transform="translate(900.873 209.212)" fill="#009ee2"/>
          <path id="Trazado_909327" data-name="Trazado 909327" d="M-891.681-196.064c1.709-.913,4.312-2.137,7.439-3.516.466,1.34.913,2.68,1.379,4-4.506,2.078-9.051,4.157-13.771,6.332-.486-1.2-.971-2.389-1.457-3.574C-895.9-193.889-893.739-194.977-891.681-196.064Z" transform="translate(902.603 210.437)" fill="#941b80"/>
        </g>
        <g id="Grupo_1104435" data-name="Grupo 1104435" transform="translate(34.811)">
          <path id="Trazado_909328" data-name="Trazado 909328" d="M-902.84-389.471l.039-.039a.019.019,0,0,1-.019.019A.019.019,0,0,1-902.84-389.471Z" transform="translate(923.793 432.944)" fill="#311d47"/>
          <path id="Trazado_909329" data-name="Trazado 909329" d="M-938.821-333.5a4.4,4.4,0,0,1-3.438-1.9,9.67,9.67,0,0,1-2.059-5.089c-.214-1.845-.466-3.671-.777-5.5a3.539,3.539,0,0,1,.622-2.933c.35-.447.738-.855,1.127-1.262a2.43,2.43,0,0,0,.563-3.263,9.541,9.541,0,0,0-2.894-3.38,8.752,8.752,0,0,1-1.437-12.12c.369-.505.738-.971,1.146-1.5-.389-.5-.758-.952-1.088-1.418a6.946,6.946,0,0,1-1.321-6.079c1.263-4.506,3.632-8.158,7.905-10.178.758-.35,1.515-.66,2.253-.991.019-.544.039-1.01.058-1.457a5.337,5.337,0,0,1,3.282-4.836,7.764,7.764,0,0,1,3.069-.758c2.175-.058,4.351.1,6.526.175.7.019,1.379.1,2.156.155-1.36-3.9-.524-4.972,4.118-5.458.019-.33.019-.544.039-.777.058-2.7,1.243-4.176,3.768-4.72.6-.136,1.224-.1,1.826-.175,1.437-.214,2.855-.447,4.293-.7.66-.117,1.3-.291,1.962-.369,2.156-.252,4.351-.136,6.429-.991a27.37,27.37,0,0,1,4.526-1.263,3.143,3.143,0,0,1,3.069,1.01c.272.272.544.563.738.777,1.632-.835,3.127-1.748,4.72-2.408,1.826-.738,3.865-1.437,5.71-.583a9.622,9.622,0,0,0,5.031.7,13.932,13.932,0,0,1,3.341.33,5.245,5.245,0,0,1,3.671,1.923c1.437.194,2.583.35,3.749.5s2.35.253,3.5.466c1.67.311,2.292.971,2.234,2.719a35.469,35.469,0,0,1-.641,4.273c-.117.66-.253,1.321-.408,2.137,1.709.447,3.127,1.126,4.856.932a10.082,10.082,0,0,1,7.167,2,6.359,6.359,0,0,1,.136,10.352c-.369.272-.758.524-1.2.835,1.185.971,2.641,1.632,1.554,3.38a32.45,32.45,0,0,1,2.816,2.408,2.668,2.668,0,0,1-.544,4.487,11.719,11.719,0,0,1-2.136.952c-.971.35-1.962.66-3.3,1.088.835.719,1.418,1.243,2,1.729a20.912,20.912,0,0,1,2.408,1.923c1.3,1.36,1.2,2.389-.33,3.36-1.088.68-.932,1.3-.6,2.195a10,10,0,0,1,.913,2.428,10.468,10.468,0,0,1-.447,2.7,6.812,6.812,0,0,1,1.3,1.068,6.085,6.085,0,0,1,.641,1.437,3.68,3.68,0,0,1,3.71,1.457,14.532,14.532,0,0,1,1.2,1.457,15.338,15.338,0,0,1,2.583,11.576c-.272,1.767-.718,3.516-1.107,5.264a11.539,11.539,0,0,0,.33,7.012,15.514,15.514,0,0,1,.738,2.506,8.935,8.935,0,0,1-.175,5.477c-.525,1.321-1.2,2.506-2.952,2.156-.408-.078-.913.291-1.185.389-.039,1.534-.078,2.855-.078,4.157a44.6,44.6,0,0,1-1.864,12.819c-.661,2.078-1.379,4.157-1.981,6.254a11.69,11.69,0,0,1-2.525,4.623c-.971,1.107-1.9,2.273-2.855,3.4-1.029,1.224-2.02,2.447-3.088,3.632A70.319,70.319,0,0,0-863.6-272.45a10.86,10.86,0,0,1-2.428,2.816c-6.021,4.895-12.838,4.293-19.035.7a7.245,7.245,0,0,0-2.972-1.088A19.615,19.615,0,0,1-891-270.6c-1.029-.291-2-.738-3.01-1.049-1.787-.544-3.593-.952-5.361-1.534a20.184,20.184,0,0,1-6.973-3.438,49.676,49.676,0,0,1-9.032-9.673c-.583-.855-1.107-1.748-1.671-2.622-1.107,1.127-1.729,1.3-2.952.544a8.149,8.149,0,0,1-2.311-2,29.505,29.505,0,0,1-2.875-4.506,12.679,12.679,0,0,0-5.264-5.516,32.358,32.358,0,0,1-3.186-2,9.747,9.747,0,0,1-4-6.079c-.466-2.214-.835-4.448-1.127-6.7a17.353,17.353,0,0,1,.039-3.477,4.275,4.275,0,0,1,2.331-3.554c.349-.175.68-.388,1.029-.6.039-.544.039-1.068.1-1.573.058-.544.136-1.088.214-1.67-.6-.117-1.03-.175-1.476-.272-1.884-.447-2.389-1.515-1.593-3.341.175-.427.427-.816.621-1.224C-936.7-332.506-937.151-333.438-938.821-333.5Zm92.706,3.554c.971-.583,1.165-1.029.952-2.039s-.505-1.262-2-1.36C-846.776-332.1-846.446-331.03-846.116-329.942ZM-848.991-338c.272.758.641,1.476.932,2.195,2.137-.058,2.8-.563,2.8-2.564,0-1.845-.33-3.69-.408-5.555a40.4,40.4,0,0,1,.155-4.331,3.953,3.953,0,0,1,.447-1.476c.563-1.049,1.437-1.146,2.156-.233a9.636,9.636,0,0,1,1.768,4.836,1.08,1.08,0,0,1-.544.893,1.192,1.192,0,0,1-.991-.35,12.061,12.061,0,0,1-1.146-1.612,3.079,3.079,0,0,0-.389.136c.117,1.34.194,2.68.33,4.021.1.932.311,1.845.408,2.758.213,1.884-.019,3.593-1.768,4.856a4.166,4.166,0,0,1,1.593,3.127c-.039,1.418-.427,1.787-2.234,2.059.7,2.855,1.379,5.71,2.078,8.643.466.1.952.214,1.476.33a4.234,4.234,0,0,0,1.593-3.788,13.207,13.207,0,0,0-.447-3.263,15.986,15.986,0,0,1,0-8.76c.427-1.5.835-3.011,1.127-4.545a14.059,14.059,0,0,0-2.894-11.926c-1.865-2.331-3.322-2.234-4.875.291a5.717,5.717,0,0,0-.758,1.729,21.412,21.412,0,0,0-.408,8.954,3.489,3.489,0,0,1-.039,2.544A1.451,1.451,0,0,0-848.991-338Zm-85.733,16.626a2.571,2.571,0,0,0-2.486,2.311,7.185,7.185,0,0,0-.116,2.408,67.153,67.153,0,0,0,1.34,7.361,7.909,7.909,0,0,0,5.419,5.866l.019.019h.019a15.165,15.165,0,0,0,1.573,1.185,12.676,12.676,0,0,1,5.205,5.788,35.312,35.312,0,0,0,2.68,4.623,3.838,3.838,0,0,0,2.933,1.826c.019-.447.155-.874.019-1.146-2.253-4.72-3.2-9.789-4.156-14.878a1.533,1.533,0,0,0-.175-.369c-.874.214-1.767.427-2.661.622-.136,1.185-.058,1.36,1.612,4.137-2.991.078-4.642-2.408-3.5-5.205-.621-.719-1.263-1.437-1.884-2.175-.563-.68-1.126-1.379-1.923-2.37a6.348,6.348,0,0,0,.485,3.2c.253.777.6,1.5.894,2.253.6,1.554.427,1.962-1.127,2.506h-.019a33.34,33.34,0,0,1-4.836-8.527c-.758-1.942.136-2.952,2.175-2.816a4.933,4.933,0,0,1,3.535,1.806c1.282,1.476,2.506,3.011,3.807,4.467a1.47,1.47,0,0,0,2.331.1,2.806,2.806,0,0,0,.252-3.049,13.2,13.2,0,0,0-1.515-2.078c-1.826-2.078-3.651-4.137-5.535-6.157a4.724,4.724,0,0,0-3.4-1.9v.641a6.368,6.368,0,0,0,.1.738C-934.082-320.658-934.393-321.007-934.723-321.376Zm-.952-9.459c-.311.8-.68,1.554-1.088,2.467.816.175,1.476.253,2.1.447a1.544,1.544,0,0,1,1.243,2.078c-.175.893-.408,1.767-.641,2.777,2.447-.078,4.137,1.146,5.633,2.719,1.457,1.534,2.855,3.127,4.448,4.875-.039-.524-.039-.874-.1-1.224a92.452,92.452,0,0,0-1.515-9.284c-.738-2.816-.622-5.633-.816-8.468-.078-1.049-.214-2.078-.389-3.108a21.349,21.349,0,0,1-.194-7.284,2.247,2.247,0,0,0-.816-2.292c-.447-.369-.854-.758-1.262-1.165a6.05,6.05,0,0,1-1.709-3.146c-.408-1.923-.855-3.846-1.379-5.749a7.216,7.216,0,0,1,.136-4.254,15.121,15.121,0,0,1,4.1-6.992v.019l-.039.039h.019c-.544,1.3-1.107,2.583-1.612,3.9-.466,1.243-.855,2.506-1.3,3.749a4.737,4.737,0,0,0,.058,3.535,34.027,34.027,0,0,1,1.4,4.661,5.362,5.362,0,0,0,2.311,3.69c1.923,1.165,2.389,2.8,2.1,5.031a25.183,25.183,0,0,0,.1,5.536,32.614,32.614,0,0,1,.1,7.284,12.319,12.319,0,0,0,.6,5.788,39.9,39.9,0,0,1,1.243,6.312c1.2,6.507,2.292,13.052,3.69,19.52a31.338,31.338,0,0,0,6.584,13.635c2.1,2.506,4.428,4.817,6.759,7.109a16.274,16.274,0,0,0,6.9,3.554,79.893,79.893,0,0,0,13.266,3.166,8.108,8.108,0,0,1,4.021,1.593c3.554,2.739,7.419,2.35,11.207.952a11.165,11.165,0,0,0,5.691-5.069A52.621,52.621,0,0,1-856.526-285c2.292-2.272,4.351-4.778,6.41-7.264a8.556,8.556,0,0,0,1.224-2.622c.583-1.748,1.01-3.554,1.632-5.283a46.109,46.109,0,0,0,2.175-13.11,4.206,4.206,0,0,0,0-.7c-.816-7.944-2.311-15.752-5.5-23.094a72.541,72.541,0,0,0-7.187-13.635,22.973,22.973,0,0,1-3.69-8.935c-.563-2.952-1.515-5.71-3.768-7.847a3.269,3.269,0,0,1-.952-2.661,9.067,9.067,0,0,0-1.515-6.118,9.869,9.869,0,0,1-.913-2.059,4.907,4.907,0,0,0-4.429-2.972,1.925,1.925,0,0,0-.66.078,1.519,1.519,0,0,0-.408.311,2.13,2.13,0,0,0-.039.5c.311,1.632.214,1.651-1.34,1.4a27.2,27.2,0,0,0-5.167-.466c-2.1.058-2.6.7-2.875,2.816-.058.408-.1.8-.175,1.2a3.827,3.827,0,0,1-4.564,3.283c-.874-.117-1.748-.291-2.8-.466-.078.66-.136,1.224-.175,1.787a4.593,4.593,0,0,1-2.447,3.865,12.146,12.146,0,0,1-5.264,1.554,5.537,5.537,0,0,1-4.273-1.515,49.094,49.094,0,0,1-5.691,2.758,16.867,16.867,0,0,1-4.953.7,3,3,0,0,1-3.069-2.272c-.1-.272-.194-.544-.311-.816-.505-1.243-.641-1.34-1.884-1.224-1.107.117-2.214.311-3.321.447a3.056,3.056,0,0,1-2.952-.816c-.777-.855-1.67-.291-2.505-.155a.019.019,0,0,1,.019-.019c1.03-1.049,2.078-1.787,3.651-.971a2.909,2.909,0,0,0,1.631,0c1.224-.175,2.428-.466,3.652-.622a3.269,3.269,0,0,1,3.845,2.35c.777,2,.777,1.962,2.816,1.865a13.53,13.53,0,0,0,6.643-2.156c.466-.311.952-.583,1.437-.874a1.281,1.281,0,0,1,1.923.35,3.169,3.169,0,0,0,3.457,1.243,28.411,28.411,0,0,0,4.176-1.185,3.166,3.166,0,0,0,2.039-2.739c.058-.408.117-.8.194-1.2.272-1.321.719-1.768,2-1.923.777-.1,1.554-.136,2.35-.175a3.262,3.262,0,0,0,2.972-2.156c.136-.311.311-.622.427-.932a3.663,3.663,0,0,1,3.03-2.409c1.981-.233,3.982-.388,6.118-.583.466-1.651,1.826-1.923,3.4-1.787a6.069,6.069,0,0,1,5.555,5.419,4.559,4.559,0,0,0,.952,2.35,5.831,5.831,0,0,1,1.049,4.448,2.054,2.054,0,0,0,.738,2c1.709,1.34,2.467,3.3,3.127,5.283a18.371,18.371,0,0,1,.816,2.855,21.86,21.86,0,0,0,3.574,8.235c1.029,1.593,2.156,3.147,3.127,4.778.932,1.573,1.729,3.244,2.564,4.817-.583-4.661-.427-9.148,3.477-12.625-.388-.039-.7-.078-1.146-.117.233-.369.388-.641.583-.952-.447-.233-.913-.447-1.34-.719-.874-.563-1.127-1.146-.583-2.02a3.076,3.076,0,0,0,.175-3.108,7.6,7.6,0,0,1-.369-1.34,2.163,2.163,0,0,1,.913-2.564,11.506,11.506,0,0,0,1.01-.913c-.855-1.029-1.632-2-2.447-2.933-.408-.466-.932-.855-1.379-1.3-1.263-1.321-1.127-2.078.524-2.836,1.068-.505,2.195-.874,3.2-1.437,1.4-.777,1.437-1.535.253-2.68-.66-.641-1.418-1.165-2.1-1.767-1.36-1.2-1.36-1.632.058-2.972-.486-.66-.991-1.321-1.67-2.234a11.305,11.305,0,0,0,1.088-1.243c2.175-3.3,1.262-6.953-2.234-8.76a7.094,7.094,0,0,0-5.05-.874c-.524.117-1.088.117-1.321-.447-.369-.952-1.146-1.185-1.962-1.476-1.321-.486-1.612-.932-1.437-2.35.194-1.5.524-2.952.7-4.448.214-1.806-.078-2.156-1.787-2.428a40.91,40.91,0,0,0-4.817-.641,9.111,9.111,0,0,0-2.622.66c-.33-1.748-1.748-2.214-3.127-2.68a10.721,10.721,0,0,0-5.477-.389,8.6,8.6,0,0,1-2.641.02c-3.632-.447-6.9.233-9.653,2.836-1.107,1.049-1.612.855-2-.719-.544-2.234-1.282-2.661-3.38-1.923-.058.02-.1.039-.155.058a40.457,40.457,0,0,1-10.391,3.166,29.416,29.416,0,0,1-6.1.738,4.964,4.964,0,0,0-1.942.447,2.5,2.5,0,0,0-1.612,2.739c.019.35.078.7.078,1.049,0,1.418-.447,1.845-1.845,1.787a11.872,11.872,0,0,0-1.845-.1c-1.554.117-2.059,1.165-1.165,2.486.291.427.7.758,1.01,1.185.719.971.389,1.845-.777,1.962a13.58,13.58,0,0,1-2.35-.058c-1.845-.1-3.691-.311-5.536-.311a16.443,16.443,0,0,0-3.652.408,3.721,3.721,0,0,0-3.03,3.982c0,.233.039.466.039.7,0,1.185-.291,1.5-1.4,1.767a19.819,19.819,0,0,0-3.535.971c-3.341,1.437-5.166,4.292-6.137,7.75a5.341,5.341,0,0,0,1.748,5.5c.447.427.991.8,1.418,1.243a1.772,1.772,0,0,1-.175,2.933c-.447.35-.932.622-1.36.991a4.87,4.87,0,0,0-1.5,6.04,43.444,43.444,0,0,0,2.758,4.778c.777,1.282,1.67,2.486,2.389,3.788a3.42,3.42,0,0,1-.194,3.923,3.673,3.673,0,0,0-.369,4.04,8.848,8.848,0,0,1,.252,3.069,27.637,27.637,0,0,0,.019,3.108,4.682,4.682,0,0,0,3.943,4.157,5.687,5.687,0,0,1,1.573.583A2.682,2.682,0,0,1-935.675-330.835Z" transform="translate(948.916 411.872)" fill="#311d47"/>
          <path id="Trazado_909330" data-name="Trazado 909330" d="M-901.461-356.011h0c-.019,0-.019,0-.039-.019a.06.06,0,0,1,.039.019Z" transform="translate(919.85 464.492)" fill="#311d47"/>
          <path id="Trazado_909331" data-name="Trazado 909331" d="M-902.8-389.52a.068.068,0,0,1-.019.039h-.019Z" transform="translate(923.793 432.935)" fill="#925f36"/>
          <path id="Trazado_909332" data-name="Trazado 909332" d="M-909.934-342.462a9.8,9.8,0,0,1-2.156,2.816c-2.855,2.7-6.41,3.865-10.158,4.428-1.2.175-2.447.175-3.671.233a3.379,3.379,0,0,1-3.2-1.884,21.78,21.78,0,0,1-1.9-3.885,29.363,29.363,0,0,0-4.118-7.983,3.341,3.341,0,0,1-.622-1.437,4.754,4.754,0,0,1,1.01.719,54.17,54.17,0,0,1,4.6,5.089,9.187,9.187,0,0,0,8.449,4.079,12.6,12.6,0,0,0,7.963-3.147,10.328,10.328,0,0,0,3.632-6.235c.194-1.146.369-2.292.622-3.4a17.315,17.315,0,0,1,1.029-3.457,6.578,6.578,0,0,1,2.739-3.166c.389.622-1.554,1.068-.816,1.729a10.623,10.623,0,0,0-.078,1.36C-906.361-351.552-907.818-346.91-909.934-342.462Z" transform="translate(990.612 461.043)" fill="#9b4d34"/>
          <path id="Trazado_909333" data-name="Trazado 909333" d="M-929.071-375.551h0l-.039-.039Z" transform="translate(1001.086 446.061)" fill="#925f36"/>
          <path id="Trazado_909334" data-name="Trazado 909334" d="M-945.167-375.549c.447-1.243.835-2.506,1.3-3.749.505-1.321,1.068-2.6,1.612-3.9.855-.136,1.729-.7,2.506.155a3.115,3.115,0,0,0,2.952.816c1.107-.155,2.214-.33,3.321-.447,1.243-.136,1.379-.02,1.884,1.224.117.272.214.544.311.816a3.025,3.025,0,0,0,3.069,2.273,16.245,16.245,0,0,0,4.953-.7,49.066,49.066,0,0,0,5.691-2.758,5.467,5.467,0,0,0,4.273,1.515,12.072,12.072,0,0,0,5.264-1.554,4.594,4.594,0,0,0,2.447-3.865c.039-.563.117-1.107.175-1.787,1.049.175,1.923.369,2.8.466a3.848,3.848,0,0,0,4.564-3.282,11.972,11.972,0,0,0,.175-1.2c.272-2.117.758-2.758,2.875-2.816a29.049,29.049,0,0,1,5.167.466c1.554.253,1.651.214,1.34-1.4a1.518,1.518,0,0,1,.039-.505c.155-.117.272-.272.408-.311a1.545,1.545,0,0,1,.66-.078,4.907,4.907,0,0,1,4.428,2.972,11.6,11.6,0,0,0,.913,2.059,9.286,9.286,0,0,1,1.515,6.118,3.223,3.223,0,0,0,.952,2.661c2.253,2.117,3.2,4.895,3.768,7.847a22.4,22.4,0,0,0,3.69,8.935,73.676,73.676,0,0,1,7.187,13.635,76.848,76.848,0,0,1,5.5,23.094,4.206,4.206,0,0,1,0,.7,45.432,45.432,0,0,1-2.175,13.11c-.6,1.729-1.03,3.535-1.632,5.283a8.561,8.561,0,0,1-1.224,2.622,95.209,95.209,0,0,1-6.409,7.264,52.76,52.76,0,0,0-8.313,10.566,11.007,11.007,0,0,1-5.691,5.069c-3.787,1.418-7.672,1.787-11.207-.952a8.038,8.038,0,0,0-4.021-1.593,79.9,79.9,0,0,1-13.266-3.166c-2.467-.777-4.972-1.67-6.895-3.554-2.331-2.292-4.662-4.6-6.759-7.109a31.337,31.337,0,0,1-6.584-13.635c-1.4-6.468-2.467-13.013-3.69-19.52a42.211,42.211,0,0,0-1.243-6.312,12.292,12.292,0,0,1-.6-5.788,33.82,33.82,0,0,0-.1-7.284,25.174,25.174,0,0,1-.1-5.536c.291-2.234-.175-3.865-2.1-5.03a5.4,5.4,0,0,1-2.311-3.69,32.979,32.979,0,0,0-1.4-4.661A4.872,4.872,0,0,1-945.167-375.549Zm36.457,14c-1.088-3.535-3.438-5.322-7.206-5.419a22.589,22.589,0,0,0-9.867,2.389,8.266,8.266,0,0,0-3.555,3.554,15.561,15.561,0,0,1-1.185,2.078c-.855,1.029-.253,1.981.1,2.894.214.6.816.6,1.282.311.505-.33.952-.777,1.437-1.165a46.134,46.134,0,0,1,4.253-3.3,18.139,18.139,0,0,1,3.419-1.34,18.533,18.533,0,0,1,6.39.369,8.72,8.72,0,0,1,2.7,1.321c.66.466,1.224.932,1.942.369C-908.321-360.011-908.477-360.788-908.71-361.546Zm7.167,21.831c.991.33,4.428-.738,7.012-2.292C-898.144-341.7-900.844-340.782-901.543-339.714ZM-897-358.127c-.485,4.584.622,8.915,2.059,13.169a3.911,3.911,0,0,0,1.262,1.534C-895.211-348.26-895.832-353.252-897-358.127Zm4.836,25.036A4.378,4.378,0,0,1-895.055-330c-1.787.505-3.613.971-5.38-.039a4.505,4.505,0,0,0-3.38-.544,7.648,7.648,0,0,1-1.34.116c-2.02.1-2.583-.738-1.787-2.6a8.231,8.231,0,0,0,.35-.971c.019-.078-.059-.214-.136-.427-.214,0-.525-.117-.719,0a3.62,3.62,0,0,0-1.379,3.613,2.754,2.754,0,0,0,2.952,2.078,8.89,8.89,0,0,1,5.167.486,8.725,8.725,0,0,0,6.565-.019,5.6,5.6,0,0,0,3.282-3.224c.505-1.321,1.107-2.273,2.7-2.35a2.6,2.6,0,0,0,2.312-1.981,1.783,1.783,0,0,0-.447-2.059c-.738-.6-1.224-.019-1.709.389a4.077,4.077,0,0,1,.078,1.262c-.078.253-.466.447-.738.6a2.7,2.7,0,0,1-.8.233A3.42,3.42,0,0,0-892.161-333.091Zm16.49-36.321a8.952,8.952,0,0,0-3.515-3.923,4.12,4.12,0,0,0-1.884-.641c-6.274-.058-10.8,2.35-13.3,8.43a2.955,2.955,0,0,0,.214,3.069c.641-.447,1.185-.8,1.69-1.2,2.292-1.845,4.564-3.788,7.459-4.467a20.16,20.16,0,0,1,5.3-.369,4.37,4.37,0,0,1,2.914,1.593c.214.233.835.427,1.03.291a1.586,1.586,0,0,0,.524-1.127A4.161,4.161,0,0,0-875.671-369.412Zm1.593,11.479c.5,0,1.068-.214,1.068-.855-.019-.7-.641-.719-1.127-.738a11.311,11.311,0,0,0-1.146.058,7.759,7.759,0,0,0-6.779-5.769,9.817,9.817,0,0,0-6.1,1.379c-3.147,1.767-4.856,4.662-6.254,8.022,1.224.66,2.195-.078,3.2-.291.408.33.8.816,1.262.893,3.107.6,6.254.816,9.245-.466a30.436,30.436,0,0,0,3.846-2.35C-876.021-358.01-875.05-357.913-874.079-357.933Zm-40.3,39.254a7.282,7.282,0,0,0,2.525,1.3,2.9,2.9,0,0,1,1.923,1.5c.777,1.282,1.573,2.564,2.428,3.807a27.093,27.093,0,0,1,2.68,5.613,43.737,43.737,0,0,0,2.331,5.031,4.278,4.278,0,0,0,3.729,2.37c5.536.214,10.683-.855,14.956-4.739a11.02,11.02,0,0,0,2.933-4.545,35.982,35.982,0,0,0,2.311-14.276c-.039-.447-.078-.913-.136-1.36l-.408-.058c-.019.155-.019.291-.039.447-.719-.66,1.2-1.107.816-1.729a5.357,5.357,0,0,1,2.234-.622c.253-.019.525-.1.777-.136a3,3,0,0,0-3.418-2.758c.214.486.408.932.66,1.535-1.185.019-2.292-.058-3.38.058a37.571,37.571,0,0,0-5.128.8,7.079,7.079,0,0,0-3.477,2.273c-1.942,2.1-3.982,2.408-6.507,1.049a4.223,4.223,0,0,0-3.243-.272c-2.253.621-4.487,1.379-6.72,2.1-1.806.583-3.613,1.185-5.419,1.787a1.222,1.222,0,0,1-1.67-.719c-.136-.311-.311-.6-.466-.913C-915.333-320.33-915.45-319.495-914.381-318.679ZM-925.918-348.4c2.1,2.467,4.953,1.981,7.75,1.942a10.771,10.771,0,0,0,7.109-3.01c1.845-1.651,1.884-3.457.233-5.4a7.6,7.6,0,0,0-8-2.777c-1.3.311-2.6.622-3.865,1.049a6.114,6.114,0,0,0-2.952,2.661,42.356,42.356,0,0,1-3.555,4.525,4.475,4.475,0,0,1-1.962.816,10.788,10.788,0,0,1-1.379.253c0,.214.02.427.02.641C-930.289-346.24-928.23-347.813-925.918-348.4Z" transform="translate(963.225 426.656)" fill="#e59f41"/>
          <path id="Trazado_909335" data-name="Trazado 909335" d="M-924.585-369.346c1.029-1.068,2.1-1.826,3.69-.991a2.91,2.91,0,0,0,1.632,0c1.224-.175,2.428-.466,3.652-.622a3.27,3.27,0,0,1,3.846,2.35c.777,2,.777,1.962,2.816,1.865a13.528,13.528,0,0,0,6.643-2.156c.466-.311.952-.583,1.437-.874a1.281,1.281,0,0,1,1.923.35,3.169,3.169,0,0,0,3.458,1.243,28.42,28.42,0,0,0,4.176-1.185,3.166,3.166,0,0,0,2.039-2.739c.059-.408.117-.8.194-1.2.272-1.321.718-1.767,2-1.923.777-.1,1.554-.136,2.35-.175a3.262,3.262,0,0,0,2.972-2.156c.136-.311.311-.622.427-.932a3.663,3.663,0,0,1,3.03-2.408c1.981-.233,3.982-.388,6.118-.583.466-1.651,1.826-1.923,3.4-1.787a6.069,6.069,0,0,1,5.555,5.419,4.558,4.558,0,0,0,.952,2.35,5.832,5.832,0,0,1,1.049,4.448,2.053,2.053,0,0,0,.738,2c1.709,1.34,2.467,3.3,3.127,5.283a18.349,18.349,0,0,1,.816,2.855,21.86,21.86,0,0,0,3.574,8.235c1.029,1.593,2.156,3.146,3.127,4.778.932,1.573,1.729,3.244,2.564,4.817-.583-4.661-.427-9.148,3.477-12.625-.388-.039-.7-.078-1.146-.117.233-.369.389-.641.583-.952-.447-.233-.913-.447-1.34-.719-.874-.563-1.127-1.146-.583-2.02a3.077,3.077,0,0,0,.175-3.108,7.59,7.59,0,0,1-.369-1.34,2.163,2.163,0,0,1,.913-2.564,11.5,11.5,0,0,0,1.01-.913c-.854-1.029-1.632-2-2.447-2.933-.408-.466-.932-.855-1.379-1.3-1.263-1.321-1.127-2.078.524-2.836,1.068-.5,2.195-.874,3.2-1.437,1.4-.777,1.437-1.534.253-2.68-.661-.641-1.418-1.165-2.1-1.767-1.36-1.2-1.36-1.631.059-2.972-.486-.66-.991-1.321-1.671-2.234a11.291,11.291,0,0,0,1.088-1.243c2.175-3.3,1.263-6.953-2.234-8.76a7.1,7.1,0,0,0-5.05-.874c-.525.117-1.088.117-1.321-.447-.369-.952-1.146-1.185-1.962-1.476-1.321-.486-1.612-.932-1.437-2.35.194-1.5.525-2.952.7-4.448.213-1.806-.078-2.156-1.787-2.428a40.907,40.907,0,0,0-4.817-.641,9.112,9.112,0,0,0-2.622.66c-.33-1.748-1.728-2.214-3.127-2.68a10.721,10.721,0,0,0-5.477-.389,8.6,8.6,0,0,1-2.642.019c-3.632-.447-6.895.233-9.653,2.836-1.107,1.049-1.612.855-2-.719-.544-2.234-1.282-2.661-3.38-1.923-.058.019-.1.039-.155.058a40.46,40.46,0,0,1-10.391,3.166,29.407,29.407,0,0,1-6.1.738,4.965,4.965,0,0,0-1.942.447,2.5,2.5,0,0,0-1.612,2.739c.019.35.078.7.078,1.049,0,1.418-.447,1.845-1.845,1.787a11.878,11.878,0,0,0-1.845-.1c-1.554.117-2.059,1.165-1.165,2.486.291.427.7.758,1.01,1.185.719.971.388,1.845-.777,1.962a13.58,13.58,0,0,1-2.35-.058c-1.845-.1-3.691-.311-5.536-.311a16.445,16.445,0,0,0-3.651.408,3.721,3.721,0,0,0-3.03,3.982c0,.233.039.466.039.7,0,1.185-.291,1.5-1.4,1.767a19.822,19.822,0,0,0-3.535.971c-3.341,1.437-5.166,4.293-6.138,7.75a5.341,5.341,0,0,0,1.748,5.5c.447.427.991.8,1.418,1.243a1.772,1.772,0,0,1-.175,2.933c-.447.35-.932.621-1.36.991a4.87,4.87,0,0,0-1.5,6.04,43.43,43.43,0,0,0,2.758,4.778c.777,1.282,1.67,2.486,2.389,3.787a3.421,3.421,0,0,1-.194,3.923,3.673,3.673,0,0,0-.369,4.04,8.851,8.851,0,0,1,.252,3.069,27.638,27.638,0,0,0,.019,3.108,4.683,4.683,0,0,0,3.943,4.157,5.681,5.681,0,0,1,1.573.583,2.86,2.86,0,0,1,1.3,3.846c-.311.8-.68,1.554-1.088,2.467.816.175,1.476.253,2.1.447a1.544,1.544,0,0,1,1.243,2.078c-.175.893-.408,1.768-.641,2.778,2.447-.078,4.137,1.146,5.633,2.719,1.457,1.534,2.855,3.127,4.448,4.875-.039-.524-.039-.874-.1-1.224a92.442,92.442,0,0,0-1.515-9.284c-.738-2.816-.621-5.633-.816-8.468-.078-1.049-.214-2.078-.388-3.108a21.352,21.352,0,0,1-.194-7.284,2.246,2.246,0,0,0-.816-2.292c-.447-.369-.855-.758-1.263-1.165a6.054,6.054,0,0,1-1.709-3.147c-.408-1.923-.854-3.846-1.379-5.749a7.218,7.218,0,0,1,.136-4.254,15.121,15.121,0,0,1,4.1-6.992C-924.546-369.4-924.585-369.346-924.585-369.346Z" transform="translate(945.537 412.819)" fill="#311d47"/>
          <path id="Trazado_909336" data-name="Trazado 909336" d="M-946.993-363.783c2.136-.058,2.8-.563,2.8-2.564,0-1.845-.33-3.69-.408-5.555a40.35,40.35,0,0,1,.156-4.331A3.946,3.946,0,0,1-944-377.71c.563-1.049,1.437-1.146,2.156-.233a9.636,9.636,0,0,1,1.767,4.836,1.108,1.108,0,0,1-.544.893,1.192,1.192,0,0,1-.99-.35,12.03,12.03,0,0,1-1.146-1.612,3.088,3.088,0,0,0-.389.136c.117,1.34.194,2.68.33,4.021.1.932.311,1.845.408,2.758.214,1.884-.019,3.593-1.767,4.856a4.167,4.167,0,0,1,1.593,3.127c-.039,1.418-.427,1.787-2.234,2.059.7,2.855,1.379,5.73,2.078,8.643.466.1.952.214,1.476.33a4.234,4.234,0,0,0,1.593-3.787,13.217,13.217,0,0,0-.447-3.263,15.982,15.982,0,0,1,0-8.76c.427-1.5.835-3.011,1.126-4.545a14.058,14.058,0,0,0-2.894-11.926c-1.865-2.331-3.321-2.234-4.875.291a5.718,5.718,0,0,0-.757,1.729,21.4,21.4,0,0,0-.408,8.954,3.491,3.491,0,0,1-.039,2.544,1.355,1.355,0,0,0,.039.991A24.193,24.193,0,0,0-946.993-363.783Z" transform="translate(1047.852 439.828)" fill="#e59f41"/>
          <path id="Trazado_909337" data-name="Trazado 909337" d="M-898.573-347.2a32.559,32.559,0,0,1-4.836-8.546c-.758-1.942.136-2.952,2.175-2.816a4.932,4.932,0,0,1,3.535,1.806c1.282,1.476,2.506,3.01,3.807,4.467a1.47,1.47,0,0,0,2.331.1,2.807,2.807,0,0,0,.253-3.049,13.224,13.224,0,0,0-1.515-2.078c-1.826-2.078-3.652-4.137-5.536-6.157a4.724,4.724,0,0,0-3.4-1.9v.641a6.407,6.407,0,0,0,.1.738c-.427-.486-.738-.835-1.088-1.224a2.571,2.571,0,0,0-2.486,2.311,7.182,7.182,0,0,0-.117,2.408,67.183,67.183,0,0,0,1.34,7.361,7.977,7.977,0,0,0,5.439,5.944Z" transform="translate(916.942 455.681)" fill="#e59f41"/>
          <path id="Trazado_909338" data-name="Trazado 909338" d="M-907.587-352.167a15.154,15.154,0,0,0,1.573,1.185,12.675,12.675,0,0,1,5.205,5.788,35.347,35.347,0,0,0,2.68,4.623,3.839,3.839,0,0,0,2.933,1.826c.019-.447.155-.874.019-1.146-2.253-4.72-3.2-9.789-4.156-14.878a1.525,1.525,0,0,0-.175-.369c-.874.214-1.767.427-2.661.622-.136,1.185-.058,1.36,1.612,4.137-2.991.078-4.642-2.408-3.5-5.205-.621-.719-1.262-1.437-1.884-2.175-.563-.68-1.126-1.379-1.923-2.37a6.349,6.349,0,0,0,.486,3.2c.253.777.6,1.5.894,2.253.641,1.573.446,1.962-1.107,2.506Z" transform="translate(925.956 460.629)" fill="#e59f41"/>
          <path id="Trazado_909339" data-name="Trazado 909339" d="M-945.49-371.44c.388,1.243.718,2.311,1.049,3.4.971-.583,1.165-1.029.952-2.039S-943.995-371.323-945.49-371.44Z" transform="translate(1047.242 449.971)" fill="#e59f41"/>
          <path id="Trazado_909340" data-name="Trazado 909340" d="M-936.274-353.832c.155.311.33.6.466.913a1.216,1.216,0,0,0,1.67.719c1.806-.6,3.613-1.2,5.419-1.787,2.234-.719,4.467-1.476,6.72-2.1a4.218,4.218,0,0,1,3.244.272c2.544,1.36,4.564,1.049,6.507-1.049a7.167,7.167,0,0,1,3.477-2.273,45.366,45.366,0,0,1,5.128-.8c1.088-.117,2.195-.039,3.38-.058-.253-.6-.447-1.049-.66-1.534a3,3,0,0,1,3.419,2.758c-.253.039-.505.117-.777.136a5.083,5.083,0,0,0-2.234.622.611.611,0,0,0-.194-.194.9.9,0,0,1,.194.194,6.785,6.785,0,0,0-2.739,3.166,17.321,17.321,0,0,0-1.029,3.457c-.272,1.126-.427,2.272-.622,3.4a10.518,10.518,0,0,1-3.632,6.235A12.6,12.6,0,0,1-916.5-338.6a9.187,9.187,0,0,1-8.449-4.079,60.093,60.093,0,0,0-4.6-5.089,6.316,6.316,0,0,0-1.01-.719,3.24,3.24,0,0,0,.622,1.437,29.648,29.648,0,0,1,4.117,7.983,21.794,21.794,0,0,0,1.9,3.885,3.36,3.36,0,0,0,3.2,1.884,28.865,28.865,0,0,0,3.671-.233c3.768-.563,7.3-1.729,10.158-4.428a9.811,9.811,0,0,0,2.156-2.816c2.136-4.428,3.593-9.071,3.341-14.159a7.978,7.978,0,0,1,.078-1.36l.078.078a.151.151,0,0,1-.078-.078,3.492,3.492,0,0,0,.039-.447l.408.058c.039.447.1.913.136,1.36a36.044,36.044,0,0,1-2.311,14.276,10.647,10.647,0,0,1-2.933,4.545c-4.273,3.885-9.42,4.972-14.956,4.739a4.3,4.3,0,0,1-3.729-2.37,40.666,40.666,0,0,1-2.331-5.031,26.637,26.637,0,0,0-2.681-5.613c-.835-1.243-1.651-2.506-2.428-3.807a2.9,2.9,0,0,0-1.923-1.5,6.964,6.964,0,0,1-2.525-1.3C-937.634-352.123-937.517-352.958-936.274-353.832Zm32.883-4.37a14.316,14.316,0,0,0-5.283.427,5.173,5.173,0,0,0-2.7,1.923,5.474,5.474,0,0,1-5.574,1.962,13.777,13.777,0,0,1-2.156-.913c-.505-.194-1.088-.544-1.534-.447a33.115,33.115,0,0,0-7.284,2.836c3.146.214,5.9.194,8.643,1.029a11.209,11.209,0,0,0,6.138-.291,4.887,4.887,0,0,0,1.36-.66c2.6-1.767,5.167-3.574,7.75-5.38C-903.876-357.833-903.721-357.969-903.391-358.2Zm-19.481,16.1a5.348,5.348,0,0,0,3.146,1.9,11.487,11.487,0,0,0,9.712-1.923,9.493,9.493,0,0,0,3.846-6.06c.466-2.37,1.088-4.7,1.69-7.342a15.5,15.5,0,0,0-1.69,1.01,29.414,29.414,0,0,0-3.4,2.777c-2.02,2.137-4.6,2.913-7.3,3.516a4.964,4.964,0,0,1-3.593-.524,7.827,7.827,0,0,0-4.2-1.029,44.99,44.99,0,0,0-4.8.35A51.932,51.932,0,0,1-922.872-342.1Z" transform="translate(985.409 459.284)" fill="#311d47"/>
          <path id="Trazado_909341" data-name="Trazado 909341" d="M-919.621-366.258c2.273,1.457,4.331-.116,6.643-.719,2.1,2.467,4.953,1.981,7.75,1.942a10.771,10.771,0,0,0,7.109-3.01c1.845-1.651,1.884-3.457.233-5.4a7.6,7.6,0,0,0-8-2.777c-1.3.311-2.6.622-3.865,1.049a6.114,6.114,0,0,0-2.952,2.661,42.385,42.385,0,0,1-3.555,4.525,4.474,4.474,0,0,1-1.962.816,10.784,10.784,0,0,1-1.379.253A3.832,3.832,0,0,0-919.621-366.258Zm12.042-7.148c-1.107,1.379-2.467,2.37-1.9,4.215.505,1.593,1.845,2.37,3.36,3.38a9.149,9.149,0,0,1-5.71-.777,1.29,1.29,0,0,1-.68-1.729,8.882,8.882,0,0,1,.544-1.806c.525-.893.8-2.039,1.9-2.447C-909.327-372.8-908.589-373.056-907.579-373.406Zm6.293.272c1.826.408,2.525,1.981,3.885,2.8-.913,2.059-2.855,2.564-4.39,3.632C-900.373-368.706-899.421-370.687-901.286-373.134Zm-3.011,3.826c-.8-.389-.952-.758-.68-1.262.349-.6.816-.855,1.729-.486C-903.636-370.415-903.947-369.871-904.3-369.308Z" transform="translate(950.285 445.236)" fill="#311d47"/>
          <path id="Trazado_909342" data-name="Trazado 909342" d="M-935.343-371.157c.427.33.816.855,1.3.932,3.108.6,6.254.816,9.245-.466a30.426,30.426,0,0,0,3.846-2.35c.854.058,1.826.155,2.8.136.5,0,1.068-.214,1.068-.855-.019-.7-.641-.719-1.126-.757a11.321,11.321,0,0,0-1.146.058,7.759,7.759,0,0,0-6.779-5.769,9.817,9.817,0,0,0-6.1,1.379c-3.147,1.767-4.856,4.661-6.254,8.022,1.224.66,2.195-.078,3.2-.311.563-1.437.6-3.2,2.408-4.2A4.014,4.014,0,0,0-931.362-371a19.224,19.224,0,0,1-2.175-.136C-934.159-371.157-934.761-371.138-935.343-371.157Zm10.721-6.623c.952.622,1.67,1.068,2.369,1.554a1.32,1.32,0,0,1,.35,2.156,7.948,7.948,0,0,1-3.749,2.544C-923.068-374.964-922.99-375.314-924.622-377.781Zm-3.2,3.865a5.885,5.885,0,0,1-.835-1.321.646.646,0,0,1,.738-.835,2.923,2.923,0,0,1,.932.447C-927.205-375.178-927.438-374.712-927.827-373.915Z" transform="translate(1007.32 441.628)" fill="#311d47"/>
          <path id="Trazado_909343" data-name="Trazado 909343" d="M-909.305-375.71a18.533,18.533,0,0,1,6.39.369,8.723,8.723,0,0,1,2.7,1.321c.661.466,1.224.932,1.942.369.7-.544.544-1.321.311-2.078-1.088-3.535-3.438-5.322-7.206-5.419a22.592,22.592,0,0,0-9.867,2.389,8.266,8.266,0,0,0-3.555,3.554,15.545,15.545,0,0,1-1.185,2.078c-.854,1.029-.252,1.981.1,2.894.214.6.816.6,1.282.311.505-.33.952-.777,1.437-1.165a48.906,48.906,0,0,1,4.253-3.3A20.287,20.287,0,0,1-909.305-375.71Z" transform="translate(952.497 440.82)" fill="#311d47"/>
          <path id="Trazado_909344" data-name="Trazado 909344" d="M-936.786-373.232c.641-.447,1.185-.8,1.69-1.2,2.292-1.845,4.564-3.788,7.458-4.467a20.165,20.165,0,0,1,5.3-.369,4.371,4.371,0,0,1,2.914,1.593c.214.233.835.427,1.029.291a1.585,1.585,0,0,0,.524-1.126,3.851,3.851,0,0,0-.408-1.67,8.952,8.952,0,0,0-3.516-3.923,4.118,4.118,0,0,0-1.884-.641c-6.274-.058-10.8,2.35-13.3,8.43A2.983,2.983,0,0,0-936.786-373.232Z" transform="translate(1005.83 437.429)" fill="#311d47"/>
          <path id="Trazado_909345" data-name="Trazado 909345" d="M-929.742-362.607c-.214,0-.525-.117-.719,0a3.62,3.62,0,0,0-1.379,3.613,2.754,2.754,0,0,0,2.952,2.078,8.89,8.89,0,0,1,5.167.486,8.726,8.726,0,0,0,6.565-.019,5.6,5.6,0,0,0,3.282-3.224c.505-1.321,1.107-2.273,2.7-2.35a2.6,2.6,0,0,0,2.312-1.981,1.783,1.783,0,0,0-.447-2.059c-.738-.6-1.224-.019-1.709.389a4.077,4.077,0,0,1,.078,1.262c-.078.253-.466.447-.738.6a2.7,2.7,0,0,1-.8.233,3.454,3.454,0,0,0-2.68,2.35,4.378,4.378,0,0,1-2.894,3.088c-1.787.505-3.613.971-5.38-.039a4.505,4.505,0,0,0-3.38-.544,7.648,7.648,0,0,1-1.34.116c-2.02.1-2.583-.738-1.787-2.6a8.2,8.2,0,0,0,.35-.971A1.983,1.983,0,0,0-929.742-362.607Z" transform="translate(986.219 454.793)" fill="#311d47"/>
          <path id="Trazado_909346" data-name="Trazado 909346" d="M-927.724-376.59c-.485,4.584.622,8.915,2.059,13.169a3.912,3.912,0,0,0,1.262,1.534C-925.937-366.723-926.559-371.715-927.724-376.59Z" transform="translate(993.951 445.118)" fill="#311d47"/>
          <path id="Trazado_909347" data-name="Trazado 909347" d="M-920.378-368.29c-3.593.311-6.293,1.224-7.012,2.292C-926.38-365.668-922.942-366.756-920.378-368.29Z" transform="translate(989.053 452.939)" fill="#311d47"/>
          <path id="Trazado_909348" data-name="Trazado 909348" d="M-908.722-358.44a15.515,15.515,0,0,0-1.69,1.01,29.459,29.459,0,0,0-3.4,2.777c-2.02,2.137-4.6,2.913-7.3,3.516a4.963,4.963,0,0,1-3.593-.524,7.827,7.827,0,0,0-4.2-1.029,45,45,0,0,0-4.8.35,54.008,54.008,0,0,1,6.565,7.3,5.348,5.348,0,0,0,3.147,1.9,11.486,11.486,0,0,0,9.711-1.923,9.493,9.493,0,0,0,3.846-6.06C-909.946-353.487-909.324-355.818-908.722-358.44Z" transform="translate(989.653 462.221)" fill="#fff"/>
          <path id="Trazado_909349" data-name="Trazado 909349" d="M-909.729-359.787a14.317,14.317,0,0,0-5.283.427,5.173,5.173,0,0,0-2.7,1.923,5.475,5.475,0,0,1-5.574,1.962,12.149,12.149,0,0,1-2.156-.913c-.505-.194-1.088-.544-1.535-.447A33.117,33.117,0,0,0-934.26-354c3.146.214,5.9.194,8.643,1.029a11.208,11.208,0,0,0,6.138-.291,4.887,4.887,0,0,0,1.36-.66c2.6-1.768,5.167-3.574,7.75-5.38C-910.215-359.418-910.059-359.554-909.729-359.787Z" transform="translate(991.747 460.868)" fill="#9b4d34"/>
          <path id="Trazado_909350" data-name="Trazado 909350" d="M-909.759-374.89c-1.01.35-1.748.6-2.467.855-1.107.408-1.379,1.554-1.9,2.447a8.862,8.862,0,0,0-.544,1.806,1.29,1.29,0,0,0,.68,1.729,9.427,9.427,0,0,0,5.71.777c-1.515-1.01-2.855-1.787-3.36-3.38C-912.245-372.52-910.866-373.511-909.759-374.89Z" transform="translate(952.465 446.72)" fill="#fff"/>
          <path id="Trazado_909351" data-name="Trazado 909351" d="M-918.755-374.75c1.865,2.467.913,4.428-.505,6.429,1.534-1.068,3.477-1.554,4.39-3.632C-916.23-372.769-916.929-374.342-918.755-374.75Z" transform="translate(967.754 446.852)" fill="#fff"/>
          <path id="Trazado_909352" data-name="Trazado 909352" d="M-915.447-371.855c.35-.563.66-1.107,1.049-1.748a1.216,1.216,0,0,0-1.729.486C-916.4-372.612-916.243-372.243-915.447-371.855Z" transform="translate(961.435 447.783)" fill="#fff"/>
          <path id="Trazado_909353" data-name="Trazado 909353" d="M-935.168-379c1.612,2.467,1.554,2.816-1.049,6.235a7.51,7.51,0,0,0,3.749-2.544,1.311,1.311,0,0,0-.35-2.156C-933.5-377.932-934.216-378.378-935.168-379Z" transform="translate(1017.866 442.847)" fill="#fff"/>
          <path id="Trazado_909354" data-name="Trazado 909354" d="M-931.13-373.573c.6.019,1.185,0,1.787.039a19.559,19.559,0,0,0,2.175.136,4.014,4.014,0,0,1-1.515-4.331c-1.806.991-1.845,2.739-2.408,4.2Z" transform="translate(1003.106 444.044)" fill="#fff"/>
          <path id="Trazado_909355" data-name="Trazado 909355" d="M-932.556-375.963c.408-.8.622-1.243.855-1.709a2.924,2.924,0,0,0-.932-.447.64.64,0,0,0-.738.835A5.725,5.725,0,0,0-932.556-375.963Z" transform="translate(1012.049 443.675)" fill="#fff"/>
        </g>
      </g>
    </g>
  </g>
</svg>
