<svg xmlns="http://www.w3.org/2000/svg" width="67.275" height="67.547" viewBox="0 0 67.275 67.547">
  <g id="_30" data-name="30" transform="translate(10599.633 5508.139)">
    <g id="obediente_5_" data-name="obediente (5)" transform="translate(-10599.633 -5508.139)">
      <g id="Grupo_1104362" data-name="Grupo 1104362" transform="translate(4.451 1.01)">
        <g id="Grupo_1104360" data-name="Grupo 1104360">
          <g id="Grupo_1104357" data-name="Grupo 1104357" transform="translate(0 26.374)">
            <g id="Grupo_1104350" data-name="Grupo 1104350" transform="translate(0 0)">
              <path id="Trazado_906633" data-name="Trazado 906633" d="M39.215,204.046l2.425,4.2a.4.4,0,0,0,.35.2H58.6a.4.4,0,0,0,.35-.2l2.425-4.2a.4.4,0,0,0-.35-.606H39.565A.4.4,0,0,0,39.215,204.046Z" transform="translate(-39.16 -203.44)" fill="#fed402"/>
            </g>
            <g id="Grupo_1104356" data-name="Grupo 1104356">
              <g id="Grupo_1104351" data-name="Grupo 1104351" transform="translate(36.103 0)">
                <path id="Trazado_906634" data-name="Trazado 906634" d="M307.437,204.046l2.425,4.2a.4.4,0,0,0,.35.2h16.613a.4.4,0,0,0,.35-.2l2.425-4.2a.4.4,0,0,0-.35-.606H307.786A.4.4,0,0,0,307.437,204.046Z" transform="translate(-307.382 -203.44)" fill="#fed402"/>
              </g>
              <g id="Grupo_1104352" data-name="Grupo 1104352" transform="translate(0 0)">
                <path id="Trazado_906635" data-name="Trazado 906635" d="M39.215,204.046l2.425,4.2a.4.4,0,0,0,.35.2H58.6a.4.4,0,0,0,.35-.2l2.425-4.2a.4.4,0,0,0-.35-.606H39.565A.4.4,0,0,0,39.215,204.046Z" transform="translate(-39.16 -203.44)" fill="#ca6e59"/>
              </g>
              <g id="Grupo_1104353" data-name="Grupo 1104353" transform="translate(0)">
                <path id="Trazado_906636" data-name="Trazado 906636" d="M47.344,208.244l-2.425-4.2a.4.4,0,0,1,.35-.606h-5.7a.4.4,0,0,0-.35.606l2.425,4.2a.4.4,0,0,0,.35.2h5.7A.4.4,0,0,1,47.344,208.244Z" transform="translate(-39.161 -203.439)" fill="#bb5d4c"/>
              </g>
              <g id="Grupo_1104354" data-name="Grupo 1104354" transform="translate(36.103 0)">
                <path id="Trazado_906637" data-name="Trazado 906637" d="M307.437,204.046l2.425,4.2a.4.4,0,0,0,.35.2h16.613a.4.4,0,0,0,.35-.2l2.425-4.2a.4.4,0,0,0-.35-.606H307.786A.4.4,0,0,0,307.437,204.046Z" transform="translate(-307.382 -203.44)" fill="#ca6e59"/>
              </g>
              <g id="Grupo_1104355" data-name="Grupo 1104355" transform="translate(36.103)">
                <path id="Trazado_906638" data-name="Trazado 906638" d="M316.271,208.244l-2.425-4.2a.4.4,0,0,1,.35-.606h-6.409a.4.4,0,0,0-.35.606l2.425,4.2a.4.4,0,0,0,.35.2h6.409A.4.4,0,0,1,316.271,208.244Z" transform="translate(-307.382 -203.439)" fill="#bb5d4c"/>
              </g>
            </g>
          </g>
          <path id="Trazado_906639" data-name="Trazado 906639" d="M241.359,128.477V103.8a.673.673,0,0,0-.673-.673h-4.047a.673.673,0,0,0-.673.673v24.681h5.393Z" transform="translate(-209.476 -90.252)" fill="#bb5d4c"/>
          <path id="Trazado_906640" data-name="Trazado 906640" d="M238.25,128.477V103.8a.673.673,0,0,1,.673-.673h-2.284a.673.673,0,0,0-.673.673v24.681h2.284Z" transform="translate(-209.476 -90.252)" fill="#a44f3e"/>
          <g id="Grupo_1104358" data-name="Grupo 1104358" transform="translate(25.419 0)">
            <circle id="Elipse_5714" data-name="Elipse 5714" cx="3.768" cy="3.768" r="3.768" fill="#883f2e"/>
          </g>
          <g id="Grupo_1104359" data-name="Grupo 1104359" transform="translate(25.419)">
            <path id="Trazado_906641" data-name="Trazado 906641" d="M231.371,11.268A3.767,3.767,0,0,1,233.456,7.9a3.768,3.768,0,1,0,0,6.743,3.767,3.767,0,0,1-2.085-3.371Z" transform="translate(-228.005 -7.5)" fill="#6d3326"/>
          </g>
        </g>
        <g id="Grupo_1104361" data-name="Grupo 1104361" transform="translate(5.188 36.856)">
          <path id="Trazado_906642" data-name="Trazado 906642" d="M221.84,297.269v-3.092a2.692,2.692,0,0,0-2.692-2.692h-7.2a2.692,2.692,0,0,0-2.692,2.692v3.092Z" transform="translate(-191.549 -291.485)" fill="#883f2e"/>
          <path id="Trazado_906643" data-name="Trazado 906643" d="M213.8,297.269v-3.092a2.692,2.692,0,0,1,2.692-2.692h-4.542a2.692,2.692,0,0,0-2.692,2.692v3.092Z" transform="translate(-191.548 -291.485)" fill="#6d3326"/>
          <path id="Trazado_906644" data-name="Trazado 906644" d="M194.008,340.588v-3.824a2.307,2.307,0,0,0-2.307-2.307H173.479a2.307,2.307,0,0,0-2.307,2.307v3.824Z" transform="translate(-158.591 -328.673)" fill="#bb5d4c"/>
          <path id="Trazado_906645" data-name="Trazado 906645" d="M176.849,340.588v-3.824a2.307,2.307,0,0,1,2.307-2.307H173.48a2.307,2.307,0,0,0-2.307,2.307v3.824Z" transform="translate(-158.592 -328.673)" fill="#a44f3e"/>
          <path id="Trazado_906646" data-name="Trazado 906646" d="M81.3,379.006a3.6,3.6,0,0,0-3.6,3.6v6.831a3.6,3.6,0,0,0,3.6,3.6h1.457V383.5h7.352v9.528h41.167V379.006Z" transform="translate(-77.703 -367.225)" fill="#fff3de"/>
        </g>
      </g>
      <g id="Grupo_1104371" data-name="Grupo 1104371" transform="translate(1.01 49.646)">
        <g id="Grupo_1104366" data-name="Grupo 1104366" transform="translate(0)">
          <g id="Grupo_1104363" data-name="Grupo 1104363">
            <path id="Trazado_906647" data-name="Trazado 906647" d="M25.82,393.028a3.6,3.6,0,0,1-3.6-3.6V382.6a3.6,3.6,0,0,1,3.6-3.6H20.607a7.011,7.011,0,1,0,0,14.022H25.82Z" transform="translate(-13.596 -379.006)" fill="#3675bb"/>
          </g>
          <g id="Grupo_1104364" data-name="Grupo 1104364">
            <path id="Trazado_906648" data-name="Trazado 906648" d="M17,386.017a7.011,7.011,0,0,1,7.011-7.011H20.607a7.011,7.011,0,1,0,0,14.022h3.406A7.011,7.011,0,0,1,17,386.017Z" transform="translate(-13.596 -379.006)" fill="#2b68b6"/>
          </g>
          <g id="Grupo_1104365" data-name="Grupo 1104365" transform="translate(8.629 0.005)">
            <path id="Trazado_906649" data-name="Trazado 906649" d="M82.756,389.118a3.591,3.591,0,0,1-1.648-3.021v-6.831c0-.076,0-.151.008-.225a3.6,3.6,0,0,0-3.413,3.591v6.831a3.6,3.6,0,0,0,3.6,3.6h1.457Z" transform="translate(-77.703 -379.041)" fill="#ffe5c2"/>
            <path id="Trazado_906650" data-name="Trazado 906650" d="M169.857,458.174h41.167v3.366H169.857Z" transform="translate(-157.453 -447.522)" fill="#ffe5c2"/>
          </g>
        </g>
        <g id="Grupo_1104370" data-name="Grupo 1104370" transform="translate(13.681 4.494)">
          <g id="Grupo_1104367" data-name="Grupo 1104367">
            <path id="Trazado_906651" data-name="Trazado 906651" d="M122.592,424.388V412.395H115.24v11.993a.4.4,0,0,0,.634.332l3.042-2.105,3.042,2.105A.4.4,0,0,0,122.592,424.388Z" transform="translate(-115.24 -412.395)" fill="#5ce6b9"/>
          </g>
          <g id="Grupo_1104369" data-name="Grupo 1104369" transform="translate(0)">
            <g id="Grupo_1104368" data-name="Grupo 1104368">
              <path id="Trazado_906652" data-name="Trazado 906652" d="M118.624,412.395H115.24v11.993a.4.4,0,0,0,.634.332l2.751-1.9Z" transform="translate(-115.24 -412.395)" fill="#28c290"/>
            </g>
          </g>
        </g>
      </g>
      <path id="Trazado_906653" data-name="Trazado 906653" d="M72.362,62.755H70.315V50.991h2.047a.99.99,0,1,0,0-1.979h-20.2V46.385a3.288,3.288,0,0,0-3.317-3.251H47.035V41.093a3.666,3.666,0,0,0-3.6-3.625V21.5a1.01,1.01,0,0,0-2.019,0V37.465H38.047V14.594h3.374v2.293a1.01,1.01,0,0,0,2.019,0V14.264a1.668,1.668,0,0,0-1.683-1.649H40.743V9.259A4.745,4.745,0,0,0,44.4,5.672H56.775v1.8L46.9,25.86a1.419,1.419,0,0,0-1.075.683,1.365,1.365,0,0,0,0,1.385l2.425,4.116a1.423,1.423,0,0,0,1.224.693h9.5a.99.99,0,1,0,0-1.979H49.828L48.1,27.829H67.467l-1.725,2.929H63.693a.99.99,0,1,0,0,1.979h2.4a1.423,1.423,0,0,0,1.224-.693l2.425-4.116a1.365,1.365,0,0,0,0-1.385,1.418,1.418,0,0,0-1.075-.683L58.795,7.477v-1.8h3.779a.99.99,0,1,0,0-1.979H44.4a4.8,4.8,0,0,0-9.339,0H16.894a.99.99,0,1,0,0,1.979h3.779v1.8L10.8,25.86a1.419,1.419,0,0,0-1.075.683,1.365,1.365,0,0,0,0,1.385h0l2.425,4.116a1.423,1.423,0,0,0,1.224.692H29.988a1.423,1.423,0,0,0,1.224-.693l2.425-4.116a1.365,1.365,0,0,0,0-1.385,1.418,1.418,0,0,0-1.075-.683L22.691,7.477v-1.8H35.064a4.745,4.745,0,0,0,3.66,3.587v3.356H37.71a1.668,1.668,0,0,0-1.683,1.649v23.2a3.666,3.666,0,0,0-3.6,3.625v2.041H30.623a3.288,3.288,0,0,0-3.317,3.251v2.627H14.117a7.863,7.863,0,1,0,0,15.722h5.661v1.427a1.378,1.378,0,0,0,.757,1.227A1.433,1.433,0,0,0,22,67.3l2.468-1.674L26.93,67.3a1.433,1.433,0,0,0,1.46.088,1.378,1.378,0,0,0,.757-1.227V64.734H72.362a.99.99,0,1,0,0-1.979ZM56.776,25.85H49.192l7.584-14.124Zm2.019-14.124L66.379,25.85H58.795Zm-38.122,0V25.85H13.088Zm8.966,19.032H13.725L12,27.829H31.364Zm.637-4.908H22.692V11.726Zm6.7-21.167a2.759,2.759,0,0,1,5.517,0,2.759,2.759,0,0,1-5.517,0ZM34.451,41.093a1.668,1.668,0,0,1,1.683-1.649h7.2a1.668,1.668,0,0,1,1.683,1.649v2.041H34.451ZM14.117,62.755a5.883,5.883,0,1,1,0-11.764h1.405a4.425,4.425,0,0,0-.8,2.534v6.7a4.424,4.424,0,0,0,.8,2.534Zm13.012,2.273-2.092-1.419a1.026,1.026,0,0,0-1.149,0L21.8,65.028V55.4h5.333ZM68.3,53.417H46.475a.99.99,0,1,0,0,1.979H68.3V58.35H46.475a.99.99,0,1,0,0,1.979H68.3v2.426H29.148V55.4h8.518a.99.99,0,1,0,0-1.979H19.33a.99.99,0,1,0,0,1.979h.448v7.36H19.33a2.563,2.563,0,0,1-2.586-2.534v-6.7a2.563,2.563,0,0,1,2.586-2.534H35.561a.99.99,0,1,0,0-1.979H29.325V46.385a1.286,1.286,0,0,1,1.3-1.272H48.844a1.286,1.286,0,0,1,1.3,1.272v2.627h-9.87a.99.99,0,1,0,0,1.979H68.3Z" transform="translate(-6.096 0)" fill="#04080c"/>
    </g>
  </g>
</svg>
