<svg xmlns="http://www.w3.org/2000/svg" xmlns:xlink="http://www.w3.org/1999/xlink" width="122.961" height="120.991" viewBox="0 0 122.961 120.991">
  <defs>
    <clipPath id="clip-path">
      <path id="doctor-hombre-adulto-pie-derecho-oficina-hospital" d="M31.977-19.778c15.9,0,29.465,17.752,42.2,33.785C83.108,25.249,91.24,34.838,91.24,46.254c0,11.062-3.123,17.279-6.1,23.16C81.017,77.55,75.322,83.383,64.4,90.7,46.057,102.99,28.792,87.142,14.73,80.608,3.675,75.471-9.5,73.025-18.479,67.581c-3.323-2.015-14.1-8.532-11.349-21.142,2.532-11.559,19.107-24.508,25.137-31.9C7.379-.265,17.611-19.778,31.977-19.778Z" transform="translate(30.274 19.778)" fill="#3c1c74"/>
    </clipPath>
  </defs>
  <g id="_35" data-name="35" transform="translate(-317.519 -2613.773)">
    <g id="Grupo_1072178" data-name="Grupo 1072178" transform="translate(10.519 -591.227)">
      <path id="doctor-hombre-adulto-pie-derecho-oficina-hospital-2" data-name="doctor-hombre-adulto-pie-derecho-oficina-hospital" d="M31.977-19.778c15.9,0,29.465,17.752,42.2,33.785C83.108,25.249,91.24,34.838,91.24,46.254c0,11.062-3.123,17.279-6.1,23.16C81.017,77.55,75.322,83.383,64.4,90.7,46.057,102.99,28.792,87.142,14.73,80.608,3.675,75.471-9.5,73.025-18.479,67.581c-3.323-2.015-14.1-8.532-11.349-21.142,2.532-11.559,19.107-24.508,25.137-31.9C7.379-.265,17.611-19.778,31.977-19.778Z" transform="translate(338.721 3226.641)" fill="#ab81f3"/>
      <g id="Elipse_4857" data-name="Elipse 4857" transform="translate(307 3205)" fill="none" stroke="#ab81f3" stroke-width="1">
        <circle cx="10.897" cy="10.897" r="10.897" stroke="none"/>
        <circle cx="10.897" cy="10.897" r="10.397" fill="none"/>
      </g>
      <circle id="Elipse_4858" data-name="Elipse 4858" cx="5.029" cy="5.029" r="5.029" transform="translate(416.805 3213.382)" fill="#ab81f3"/>
      <path id="Trazado_115346" data-name="Trazado 115346" d="M7.963,0c4.4,0,7.963,3.19,7.963,7.125,0,2.105-.507,3.949-2.35,5.055-1.19.723-3.568.845-5.613.845C3.565,13.024,0,11.06,0,7.125S3.565,0,7.963,0Z" transform="translate(317.897 3312.967)" fill="#ab81f3"/>
    </g>
    <g id="equality_12054183" transform="translate(327.474 2628.727)">
      <g id="Grupo_1132520" data-name="Grupo 1132520" transform="translate(14.469 1.334)">
        <g id="Grupo_1132517" data-name="Grupo 1132517">
          <path id="Trazado_932932" data-name="Trazado 932932" d="M24.31,185v5.337H46.745V185l7.923-8.606-.925-9.22c-.116-1.16-.157-3.981-3.713-3.981H42.716V152a3.68,3.68,0,0,0-7.36,0v12.2a3.68,3.68,0,1,1-7.36,0,3.68,3.68,0,0,1-7.36,0v14.667Z" transform="translate(-20.636 -123.272)" fill="#ffd9ab" fill-rule="evenodd"/>
          <path id="Trazado_932933" data-name="Trazado 932933" d="M24.31,258.406v5.337h4V257.3l-3.675-6.128v-9.893c-.106.009-.214.014-.323.014a3.691,3.691,0,0,1-3.68-3.68v14.667Z" transform="translate(-20.635 -196.674)" fill="#ffaf7c" fill-rule="evenodd"/>
          <path id="Trazado_932934" data-name="Trazado 932934" d="M144.747,170.491h7.314v-9.614a3.652,3.652,0,0,0-3.634-3.68,3.691,3.691,0,0,0-3.68,3.68Z" transform="translate(-122.667 -130.566)" fill="#ffd9ab" fill-rule="evenodd"/>
          <path id="Trazado_932935" data-name="Trazado 932935" d="M69.367,171.505V160.88a3.68,3.68,0,1,0-7.36,0v10.625a3.68,3.68,0,1,0,7.36,0Z" transform="translate(-54.647 -130.568)" fill="#ffd9ab" fill-rule="evenodd"/>
          <path id="Trazado_932936" data-name="Trazado 932936" d="M27.995,186.652V179.3a3.68,3.68,0,0,0-7.36,0v7.348a3.68,3.68,0,0,0,7.36,0Z" transform="translate(-20.635 -145.715)" fill="#ffd9ab" fill-rule="evenodd"/>
          <path id="Trazado_932937" data-name="Trazado 932937" d="M26.291,384.5H54.062v5.337H26.291Z" transform="translate(-25.285 -317.432)" fill="#fe8" fill-rule="evenodd"/>
          <path id="Trazado_932938" data-name="Trazado 932938" d="M41.29,414.5H63.724v16.011H41.29Z" transform="translate(-37.615 -342.095)" fill="#ffd9ab" fill-rule="evenodd"/>
          <circle id="Elipse_5909" data-name="Elipse 5909" cx="13.343" cy="13.343" r="13.343" transform="translate(28.502)" fill="#f696c3"/>
          <path id="Trazado_932939" data-name="Trazado 932939" d="M26.291,384.5h4v5.337h-4Z" transform="translate(-25.285 -317.432)" fill="#ffe000" fill-rule="evenodd"/>
          <path id="Trazado_932940" data-name="Trazado 932940" d="M41.29,414.5h4v16.011h-4Z" transform="translate(-37.615 -342.095)" fill="#ffaf7c" fill-rule="evenodd"/>
          <path id="Trazado_932941" data-name="Trazado 932941" d="M303.446,185v5.337h22.434V185L333.8,176.4l-.925-9.22c-.116-1.16-.157-3.981-3.713-3.981h-7.314V152a3.68,3.68,0,0,0-7.36,0v12.2a3.68,3.68,0,1,1-7.36,0,3.68,3.68,0,0,1-7.36,0v14.667Z" transform="translate(-250.113 -123.272)" fill="#eb975d" fill-rule="evenodd"/>
          <path id="Trazado_932942" data-name="Trazado 932942" d="M303.446,258.406v5.337h4V257.3l-3.675-6.128v-9.893c-.106.009-.214.014-.323.014a3.691,3.691,0,0,1-3.68-3.68v14.667Z" transform="translate(-250.112 -196.674)" fill="#b25e1e" fill-rule="evenodd"/>
          <path id="Trazado_932943" data-name="Trazado 932943" d="M423.883,170.491H431.2v-9.614a3.652,3.652,0,0,0-3.634-3.68,3.691,3.691,0,0,0-3.68,3.68Z" transform="translate(-352.145 -130.566)" fill="#eb975d" fill-rule="evenodd"/>
          <path id="Trazado_932944" data-name="Trazado 932944" d="M348.5,171.505V160.88a3.68,3.68,0,0,0-7.36,0v10.625a3.68,3.68,0,0,0,7.36,0Z" transform="translate(-284.123 -130.568)" fill="#eb975d" fill-rule="evenodd"/>
          <path id="Trazado_932945" data-name="Trazado 932945" d="M307.131,186.652V179.3a3.68,3.68,0,0,0-7.36,0v7.348a3.68,3.68,0,0,0,7.36,0Z" transform="translate(-250.112 -145.715)" fill="#eb975d" fill-rule="evenodd"/>
          <path id="Trazado_932946" data-name="Trazado 932946" d="M305.426,384.5H333.2v5.337H305.426Z" transform="translate(-254.761 -317.432)" fill="#83f2f8" fill-rule="evenodd"/>
          <path id="Trazado_932947" data-name="Trazado 932947" d="M320.426,414.5H342.86v16.011H320.426Z" transform="translate(-267.093 -342.095)" fill="#eb975d" fill-rule="evenodd"/>
          <path id="Trazado_932948" data-name="Trazado 932948" d="M305.426,384.5h4v5.337h-4Z" transform="translate(-254.761 -317.432)" fill="#00eaee" fill-rule="evenodd"/>
          <path id="Trazado_932949" data-name="Trazado 932949" d="M320.426,414.5h4v16.011h-4Z" transform="translate(-267.093 -342.095)" fill="#b25e1e" fill-rule="evenodd"/>
          <path id="Trazado_932950" data-name="Trazado 932950" d="M180.851,20.843a13.352,13.352,0,0,0,15.344,13.193,13.344,13.344,0,0,1,0-26.386,13.351,13.351,0,0,0-15.344,13.193Z" transform="translate(-152.348 -7.501)" fill="#f072ae" fill-rule="evenodd"/>
        </g>
        <g id="Grupo_1132518" data-name="Grupo 1132518" transform="translate(69.096 76.409)">
          <path id="Trazado_932951" data-name="Trazado 932951" d="M411.7,445.006h-2.668v-2.669H411.7Zm0-5.337h-2.668V437H411.7Z" transform="translate(-409.032 -437)" fill="#fff"/>
        </g>
        <g id="Grupo_1132519" data-name="Grupo 1132519" transform="translate(19.438 76.409)">
          <path id="Trazado_932952" data-name="Trazado 932952" d="M132.566,445.006H129.9v-2.669h2.669Zm0-5.337H129.9V437h2.669Z" transform="translate(-129.897 -437)" fill="#fff"/>
        </g>
      </g>
      <g id="Grupo_1132521" data-name="Grupo 1132521" transform="translate(13.135)">
        <path id="Trazado_932953" data-name="Trazado 932953" d="M49.888,170.7l-.985-9.816c-.006-.061-.012-.126-.018-.2-.1-1.1-.376-4.208-3.688-4.863v-8.4a4.977,4.977,0,0,0-7.954-4.026,5.01,5.01,0,0,0-8.749,0,5.01,5.01,0,0,0-7.88,2.94,5.011,5.011,0,0,0-7.48,4.364V173.08l3.675,6.128v3.633H14.141v8.006H16.81v16.011h25.1V190.847h2.669v-8.006H41.912v-3.482Zm-9.659-25.623a2.326,2.326,0,0,1,2.3,2.346v8.28H37.883v-8.28A2.348,2.348,0,0,1,40.229,145.072Zm-9.706.767a2.346,2.346,0,0,1,4.691,0V155.7H32.869a4.982,4.982,0,0,0-2.346.584Zm-7.36,1.579a2.346,2.346,0,0,1,4.691,0v10.626a2.346,2.346,0,0,1-4.691,0ZM15.8,150.7a2.346,2.346,0,0,1,4.691,0v7.348a2.346,2.346,0,0,1-4.691,0Zm23.44,53.493H19.478V190.847H39.244Zm2.669-16.011H16.81V185.51h25.1Zm-22.434-5.337v-4.372L15.8,172.341v-9.868a5,5,0,0,0,6.026-1.028,5,5,0,0,0,6.3.871,5.362,5.362,0,0,0,4.594,3.4l5.662.616v3.277h2.669V163.94l-8.042-.874a2.543,2.543,0,0,1-2.49-2.353,2.348,2.348,0,0,1,2.346-2.346H43.863c1.987,0,2.226,1.012,2.364,2.555.007.08.014.155.021.225l.865,8.624-7.869,8.548v4.523H19.478Z" transform="translate(-13.135 -115.772)"/>
        <path id="Trazado_932954" data-name="Trazado 932954" d="M321.048,179.359l7.976-8.664-.985-9.816c-.006-.061-.012-.126-.018-.2-.1-1.1-.376-4.208-3.688-4.863v-8.4a4.977,4.977,0,0,0-7.954-4.026,5.01,5.01,0,0,0-8.749,0,5.01,5.01,0,0,0-7.88,2.94,5.011,5.011,0,0,0-7.48,4.364V173.08l3.675,6.128v3.633h-2.669v8.006h2.669v16.011h14.429v-2.669h-11.76V190.847H318.38v13.342h-5.337v2.669h8.006V190.847h2.669v-8.006h-2.669Zm-1.683-34.287a2.326,2.326,0,0,1,2.3,2.346v8.28h-4.646v-8.28A2.348,2.348,0,0,1,319.365,145.072Zm-9.706.767a2.346,2.346,0,0,1,4.691,0V155.7H312a4.982,4.982,0,0,0-2.346.584Zm-7.36,1.579a2.346,2.346,0,0,1,4.691,0v10.626a2.346,2.346,0,0,1-4.691,0Zm-7.36,3.278a2.346,2.346,0,0,1,4.691,0v7.348a2.346,2.346,0,0,1-4.691,0V150.7Zm0,21.645v-9.868a5,5,0,0,0,6.026-1.029,5,5,0,0,0,6.3.871,5.362,5.362,0,0,0,4.594,3.4l5.662.616v3.277h2.669V163.94l-8.042-.874a2.543,2.543,0,0,1-2.49-2.353A2.348,2.348,0,0,1,312,158.366H323c1.987,0,2.226,1.012,2.364,2.555.007.08.014.155.021.225l.865,8.624-7.869,8.548v4.523H298.614v-4.372Zm26.109,15.837h-25.1V185.51h25.1v2.669Z" transform="translate(-242.612 -115.772)"/>
        <path id="Trazado_932955" data-name="Trazado 932955" d="M202.7,14.677A14.675,14.675,0,0,0,178.775,3.285l1.684,2.07a12.012,12.012,0,1,1-1.754,1.754l-2.071-1.683A14.676,14.676,0,1,0,202.7,14.677Z" transform="translate(-144.848)"/>
        <path id="Trazado_932956" data-name="Trazado 932956" d="M222.1,60h12.008v2.669H222.1Z" transform="translate(-184.926 -49.326)"/>
        <path id="Trazado_932957" data-name="Trazado 932957" d="M222.1,90h12.008v2.669H222.1Z" transform="translate(-184.926 -73.989)"/>
      </g>
    </g>
  </g>
</svg>
