<svg xmlns="http://www.w3.org/2000/svg" xmlns:xlink="http://www.w3.org/1999/xlink" width="122.961" height="120.991" viewBox="0 0 122.961 120.991">
  <defs>
    <clipPath id="clip-path">
      <path id="doctor-hombre-adulto-pie-derecho-oficina-hospital" d="M31.977-19.778c15.9,0,29.465,17.752,42.2,33.785C83.108,25.249,91.24,34.838,91.24,46.254c0,11.062-3.123,17.279-6.1,23.16C81.017,77.55,75.322,83.383,64.4,90.7,46.057,102.99,28.792,87.142,14.73,80.608,3.675,75.471-9.5,73.025-18.479,67.581c-3.323-2.015-14.1-8.532-11.349-21.142,2.532-11.559,19.107-24.508,25.137-31.9C7.379-.265,17.611-19.778,31.977-19.778Z" transform="translate(30.274 19.778)" fill="#3c1c74"/>
    </clipPath>
  </defs>
  <g id="_36" data-name="36" transform="translate(-317.519 -2613.773)">
    <g id="Grupo_1072178" data-name="Grupo 1072178" transform="translate(10.519 -591.227)">
      <path id="doctor-hombre-adulto-pie-derecho-oficina-hospital-2" data-name="doctor-hombre-adulto-pie-derecho-oficina-hospital" d="M31.977-19.778c15.9,0,29.465,17.752,42.2,33.785C83.108,25.249,91.24,34.838,91.24,46.254c0,11.062-3.123,17.279-6.1,23.16C81.017,77.55,75.322,83.383,64.4,90.7,46.057,102.99,28.792,87.142,14.73,80.608,3.675,75.471-9.5,73.025-18.479,67.581c-3.323-2.015-14.1-8.532-11.349-21.142,2.532-11.559,19.107-24.508,25.137-31.9C7.379-.265,17.611-19.778,31.977-19.778Z" transform="translate(338.721 3226.641)" fill="#ab81f3"/>
      <g id="Elipse_4857" data-name="Elipse 4857" transform="translate(307 3205)" fill="none" stroke="#ab81f3" stroke-width="1">
        <circle cx="10.897" cy="10.897" r="10.897" stroke="none"/>
        <circle cx="10.897" cy="10.897" r="10.397" fill="none"/>
      </g>
      <circle id="Elipse_4858" data-name="Elipse 4858" cx="5.029" cy="5.029" r="5.029" transform="translate(416.805 3213.382)" fill="#ab81f3"/>
      <path id="Trazado_115346" data-name="Trazado 115346" d="M7.963,0c4.4,0,7.963,3.19,7.963,7.125,0,2.105-.507,3.949-2.35,5.055-1.19.723-3.568.845-5.613.845C3.565,13.024,0,11.06,0,7.125S3.565,0,7.963,0Z" transform="translate(317.897 3312.967)" fill="#ab81f3"/>
    </g>
    <g id="friendship_2058262" transform="translate(337.578 2624.374)">
      <path id="Trazado_932958" data-name="Trazado 932958" d="M214.186,69.408a2.808,2.808,0,0,1-2.809,2.807h-3.764a2.809,2.809,0,0,1,0,5.618h-2.689a2.809,2.809,0,0,1,2.805,2.944,2.86,2.86,0,0,1-2.884,2.672H184.9a20.7,20.7,0,0,1-7.919-1.573l-5.876-2.43H152.37V61.521h18.736l4.238-3.8a13.433,13.433,0,0,1,8.969-3.432h9.258a3.347,3.347,0,0,1,0,6.694h13.963a2.861,2.861,0,0,1,2.884,2.672,2.809,2.809,0,0,1-2.805,2.944h3.764a2.808,2.808,0,0,1,2.809,2.809Z" transform="translate(-125.621 -34.806)" fill="#ffe5c4"/>
      <path id="Trazado_932959" data-name="Trazado 932959" d="M165,95.48v15.959q0,.99-.084,1.966H152.37V95.48Z" transform="translate(-125.621 -68.765)" fill="#fdd1a7"/>
      <path id="Trazado_932960" data-name="Trazado 932960" d="M204.84,186.86H184.9a20.736,20.736,0,0,1-7.921-1.572l-5.876-2.431H152.368V179.72h18.38a1.792,1.792,0,0,1,.685.136l5.547,2.295a20.737,20.737,0,0,0,7.921,1.572h19.942a2.923,2.923,0,0,0,2.4-1.251,2.786,2.786,0,0,1,.485,1.684A2.864,2.864,0,0,1,204.84,186.86Z" transform="translate(-125.62 -138.217)" fill="#fdd1a7"/>
      <path id="Trazado_932961" data-name="Trazado 932961" d="M74.4,28.911V48.855a20.718,20.718,0,0,1-1.573,7.921L70.4,62.652v19.8H52.471v-19.8l-3.8-4.24a13.433,13.433,0,0,1-3.432-8.969V40.185a3.346,3.346,0,1,1,6.692,0V26.223a2.862,2.862,0,0,1,2.674-2.886,2.81,2.81,0,0,1,2.944,2.805V22.379a2.808,2.808,0,1,1,5.616,0v3.764a2.809,2.809,0,0,1,5.618,0v2.689a2.809,2.809,0,0,1,2.944-2.805A2.861,2.861,0,0,1,74.4,28.911Z" transform="translate(-37.298 -6.181)" fill="#ffbc8a"/>
      <path id="Trazado_932962" data-name="Trazado 932962" d="M104.355,278.745v17.267H86.43v-17.4h15.429A22.685,22.685,0,0,1,104.355,278.745Z" transform="translate(-71.257 -219.746)" fill="#f5a871"/>
      <path id="Trazado_932963" data-name="Trazado 932963" d="M177.807,59.219V79.158a20.736,20.736,0,0,1-1.572,7.921L173.8,92.955v19.8h-3.137V93.312a1.792,1.792,0,0,1,.136-.685L173.1,87.08a20.737,20.737,0,0,0,1.572-7.921V59.216a2.923,2.923,0,0,0-1.251-2.4,2.786,2.786,0,0,1,1.684-.485,2.864,2.864,0,0,1,2.7,2.89Z" transform="translate(-140.706 -36.485)" fill="#f5a871"/>
      <path id="Trazado_932964" data-name="Trazado 932964" d="M75.675,295.613v17.925H50.58l-4.238,3.8a13.433,13.433,0,0,1-8.969,3.432H28.115a3.347,3.347,0,0,1,0-6.694H14.152a2.861,2.861,0,0,1-2.884-2.672,2.809,2.809,0,0,1,2.805-2.944H10.309a2.808,2.808,0,1,1,0-5.616h3.764a2.809,2.809,0,0,1,0-5.618h2.689a2.809,2.809,0,0,1-2.805-2.944,2.86,2.86,0,0,1,2.884-2.672H36.785a20.7,20.7,0,0,1,7.919,1.573l5.876,2.43Z" transform="translate(-6.183 -230.464)" fill="#fdd1a7"/>
      <path id="Trazado_932965" data-name="Trazado 932965" d="M306.653,314.41v17.925h-12.3v-1.761a5.738,5.738,0,0,1-1.064.1,5.625,5.625,0,0,1-5.628-5.628v-9.259q0-.693.061-1.378Z" transform="translate(-237.161 -249.262)" fill="#ffbc8a"/>
      <path id="Trazado_932966" data-name="Trazado 932966" d="M47.146,291.61H67.085a20.736,20.736,0,0,1,7.921,1.572l5.876,2.431h25.094v3.137H81.239a1.792,1.792,0,0,1-.685-.136l-5.547-2.295a20.737,20.737,0,0,0-7.921-1.572H47.143a2.923,2.923,0,0,0-2.4,1.251,2.785,2.785,0,0,1-.485-1.684,2.864,2.864,0,0,1,2.89-2.7Z" transform="translate(-36.485 -230.464)" fill="#ffbc8a"/>
      <path id="Trazado_932967" data-name="Trazado 932967" d="M329.819,238.861v19.944a2.861,2.861,0,0,1-2.672,2.884,2.809,2.809,0,0,1-2.944-2.805v2.689a2.809,2.809,0,0,1-5.618,0v3.764a2.808,2.808,0,1,1-5.616,0v-3.764a2.81,2.81,0,0,1-2.944,2.805,2.862,2.862,0,0,1-2.674-2.886V247.532a3.346,3.346,0,1,1-6.692,0v-9.258a13.433,13.433,0,0,1,3.432-8.969l3.8-4.24V220.39h17.925v4.675l2.43,5.876A20.718,20.718,0,0,1,329.819,238.861Z" transform="translate(-247.879 -171.747)" fill="#e89a5e"/>
      <path id="Trazado_932968" data-name="Trazado 932968" d="M341.85,220.39h17.925v2.282H341.85Z" transform="translate(-281.838 -171.747)" fill="#d68a5a"/>
      <path id="Trazado_932969" data-name="Trazado 932969" d="M433.227,258.8V238.862a20.736,20.736,0,0,0-1.572-7.921l-2.431-5.876v-4.676h-3.137v4.319a1.792,1.792,0,0,0,.136.685l2.295,5.547a20.736,20.736,0,0,1,1.572,7.921V258.8a2.923,2.923,0,0,1-1.251,2.4,2.786,2.786,0,0,0,1.684.485A2.864,2.864,0,0,0,433.227,258.8Z" transform="translate(-351.287 -171.746)" fill="#d68a5a"/>
      <path id="Trazado_932970" data-name="Trazado 932970" d="M89.882,34.6a4.13,4.13,0,0,0-4.041-4.124,4.132,4.132,0,0,0-3.928-5.617h-2.1a1.317,1.317,0,0,0,0,2.633h2.1a1.55,1.55,0,0,1,1.569,1.418,1.492,1.492,0,0,1-1.49,1.565H68.429a1.317,1.317,0,1,0,0,2.633H85.757a1.492,1.492,0,0,1,0,2.983H68.429a1.317,1.317,0,1,0,0,2.633H81.992a1.492,1.492,0,0,1,0,2.983H68.429a1.317,1.317,0,1,0,0,2.633H79.3a1.492,1.492,0,0,1,1.49,1.566,1.55,1.55,0,0,1-1.569,1.418H59.281a19.314,19.314,0,0,1-7.418-1.473l-5.876-2.43a1.316,1.316,0,0,0-.5-.1H38.407c.006-.216.011-.433.011-.65v-5.8a1.317,1.317,0,1,0-2.633,0v5.8a19.313,19.313,0,0,1-1.473,7.418l-2.43,5.876a1.316,1.316,0,0,0-.1.5v3.39c-.392-.021-.785-.032-1.18-.032H16.489V56.47a1.317,1.317,0,0,0-.336-.879l-3.8-4.238a12.1,12.1,0,0,1-3.095-8.09V34a2.029,2.029,0,1,1,4.058,0v6.065a1.317,1.317,0,1,0,2.633,0V20.042a1.55,1.55,0,0,1,1.418-1.569,1.492,1.492,0,0,1,1.565,1.49V33.526a1.317,1.317,0,0,0,2.633,0V16.2a1.492,1.492,0,1,1,2.983,0V33.526a1.317,1.317,0,0,0,2.633,0V19.962a1.492,1.492,0,0,1,2.983,0V33.526a1.317,1.317,0,1,0,2.633,0V22.651a1.492,1.492,0,0,1,1.566-1.49,1.55,1.55,0,0,1,1.418,1.569V30.9a1.317,1.317,0,1,0,2.633,0V28.032h7.067a1.317,1.317,0,0,0,.879-.336L50.6,23.9a12.1,12.1,0,0,1,8.09-3.095h9.259a2.03,2.03,0,1,1,0,4.059H61.886a1.317,1.317,0,1,0,0,2.633H73.848a1.317,1.317,0,1,0,0-2.633h-1.7a4.662,4.662,0,0,0-4.2-6.692H58.691a14.734,14.734,0,0,0-9.847,3.767L44.98,25.4H38.417V22.73a4.131,4.131,0,0,0-5.765-3.867,4.126,4.126,0,0,0-5.469-2.746,4.125,4.125,0,0,0-8.248,0,4.132,4.132,0,0,0-5.617,3.928v9.765A4.662,4.662,0,0,0,6.625,34v9.259a14.734,14.734,0,0,0,3.767,9.847l3.463,3.863v2.854h-3.2a4.16,4.16,0,0,0-4.2,3.927,4.116,4.116,0,0,0,.332,1.838,4.126,4.126,0,0,0-2.746,5.469,4.125,4.125,0,0,0,0,8.248,4.132,4.132,0,0,0,3.928,5.617h9.765a4.662,4.662,0,0,0,4.2,6.692H31.19a14.733,14.733,0,0,0,9.847-3.767L44.9,84.39h4.37a1.317,1.317,0,1,0,0-2.633H44.4a1.317,1.317,0,0,0-.879.336l-4.238,3.8a12.1,12.1,0,0,1-8.09,3.095H21.931a2.03,2.03,0,1,1,0-4.059H28a1.317,1.317,0,0,0,0-2.633H7.969A1.55,1.55,0,0,1,6.4,80.877a1.492,1.492,0,0,1,1.49-1.565H21.453a1.317,1.317,0,0,0,0-2.633H4.125a1.492,1.492,0,0,1,0-2.983H21.453a1.317,1.317,0,1,0,0-2.633H7.889a1.492,1.492,0,0,1,0-2.983H21.453a1.317,1.317,0,1,0,0-2.633H10.578a1.492,1.492,0,0,1-1.49-1.566,1.55,1.55,0,0,1,1.569-1.418H30.6a19.312,19.312,0,0,1,7.418,1.473l5.876,2.43a1.316,1.316,0,0,0,.5.1h7.068c0,.02,0,.04,0,.06v9.259a4.662,4.662,0,0,0,6.692,4.2v1.775H55.24a1.317,1.317,0,1,0,0,2.633h2.917v5.357a4.132,4.132,0,0,0,5.618,3.928,4.125,4.125,0,0,0,8.248,0,4.126,4.126,0,0,0,5.469-2.746,4.116,4.116,0,0,0,1.838.332,4.16,4.16,0,0,0,3.927-4.2V67.115a21.931,21.931,0,0,0-1.673-8.424l-2.33-5.634v-3.1a4.159,4.159,0,0,0,4.171-3.927,4.117,4.117,0,0,0-.332-1.838,4.126,4.126,0,0,0,2.746-5.469A4.13,4.13,0,0,0,89.882,34.6ZM44.659,63.832,39.025,61.5a21.986,21.986,0,0,0-4.611-1.342V56.732l2.33-5.634a21.956,21.956,0,0,0,1.429-5.141h7.05l5.634,2.33a21.917,21.917,0,0,0,7.838,1.665v2.863l-3.463,3.863a14.732,14.732,0,0,0-3.52,7.154Zm35.964,3.283V87.058a1.55,1.55,0,0,1-1.418,1.569,1.492,1.492,0,0,1-1.565-1.49V76.263a1.317,1.317,0,0,0-2.633,0V89.827a1.492,1.492,0,0,1-2.983,0V76.263a1.317,1.317,0,0,0-2.633,0V93.591a1.492,1.492,0,1,1-2.983,0V76.263a1.317,1.317,0,1,0-2.633,0V89.826a1.492,1.492,0,0,1-1.566,1.49,1.55,1.55,0,0,1-1.418-1.569V69.72a1.317,1.317,0,1,0-2.633,0v6.065a2.03,2.03,0,0,1-4.059,0V66.525a12.1,12.1,0,0,1,3.095-8.09l3.8-4.238a1.317,1.317,0,0,0,.336-.879V49.96H76.62v3.358a1.316,1.316,0,0,0,.1.5l2.43,5.876a19.307,19.307,0,0,1,1.474,7.417Z"/>
    </g>
  </g>
</svg>
