<svg xmlns="http://www.w3.org/2000/svg" xmlns:xlink="http://www.w3.org/1999/xlink" width="122.961" height="120.991" viewBox="0 0 122.961 120.991">
  <defs>
    <clipPath id="clip-path">
      <path id="doctor-hombre-adulto-pie-derecho-oficina-hospital" d="M31.977-19.778c15.9,0,29.465,17.752,42.2,33.785C83.108,25.249,91.24,34.838,91.24,46.254c0,11.062-3.123,17.279-6.1,23.16C81.017,77.55,75.322,83.383,64.4,90.7,46.057,102.99,28.792,87.142,14.73,80.608,3.675,75.471-9.5,73.025-18.479,67.581c-3.323-2.015-14.1-8.532-11.349-21.142,2.532-11.559,19.107-24.508,25.137-31.9C7.379-.265,17.611-19.778,31.977-19.778Z" transform="translate(30.274 19.778)" fill="#3c1c74"/>
    </clipPath>
  </defs>
  <g id="_37" data-name="37" transform="translate(-317.519 -2613.773)">
    <g id="Grupo_1072178" data-name="Grupo 1072178" transform="translate(10.519 -591.227)">
      <path id="doctor-hombre-adulto-pie-derecho-oficina-hospital-2" data-name="doctor-hombre-adulto-pie-derecho-oficina-hospital" d="M31.977-19.778c15.9,0,29.465,17.752,42.2,33.785C83.108,25.249,91.24,34.838,91.24,46.254c0,11.062-3.123,17.279-6.1,23.16C81.017,77.55,75.322,83.383,64.4,90.7,46.057,102.99,28.792,87.142,14.73,80.608,3.675,75.471-9.5,73.025-18.479,67.581c-3.323-2.015-14.1-8.532-11.349-21.142,2.532-11.559,19.107-24.508,25.137-31.9C7.379-.265,17.611-19.778,31.977-19.778Z" transform="translate(338.721 3226.641)" fill="#ab81f3"/>
      <g id="Elipse_4857" data-name="Elipse 4857" transform="translate(307 3205)" fill="none" stroke="#ab81f3" stroke-width="1">
        <circle cx="10.897" cy="10.897" r="10.897" stroke="none"/>
        <circle cx="10.897" cy="10.897" r="10.397" fill="none"/>
      </g>
      <circle id="Elipse_4858" data-name="Elipse 4858" cx="5.029" cy="5.029" r="5.029" transform="translate(416.805 3213.382)" fill="#ab81f3"/>
      <path id="Trazado_115346" data-name="Trazado 115346" d="M7.963,0c4.4,0,7.963,3.19,7.963,7.125,0,2.105-.507,3.949-2.35,5.055-1.19.723-3.568.845-5.613.845C3.565,13.024,0,11.06,0,7.125S3.565,0,7.963,0Z" transform="translate(317.897 3312.967)" fill="#ab81f3"/>
    </g>
    <g id="confidentiality_3196101" transform="translate(342.063 2630.544)">
      <g id="Grupo_1132537" data-name="Grupo 1132537" transform="translate(2.305 2.305)">
        <g id="Grupo_1132526" data-name="Grupo 1132526" transform="translate(34.452 33.93)">
          <path id="Trazado_932971" data-name="Trazado 932971" d="M35.708,28,37.8,33.22H28.4L30.488,28Z" transform="translate(-28.4 -28)" fill="#ef7385"/>
        </g>
        <g id="Grupo_1132527" data-name="Grupo 1132527" transform="translate(34.661 24.795)">
          <path id="Trazado_932972" data-name="Trazado 932972" d="M33.049,21l4.489,5.39-1.879,3.745h-5.22L28.56,26.39Z" transform="translate(-28.56 -21)" fill="#ed5565"/>
        </g>
        <g id="Grupo_1132528" data-name="Grupo 1132528" transform="translate(0 18.871)">
          <path id="Trazado_932973" data-name="Trazado 932973" d="M55.454,17.1l-4.033-.639L47.676,30.215l-2.036-2.44L43.761,31.52l2.088,5.22h-9.4l2.088-5.22-1.879-3.745-2.036,2.44L30.88,16.46l-4.033.639A29.516,29.516,0,0,0,2,46.241,13.991,13.991,0,0,0,15.99,60.23h2.975l-2.61,15.66H65.946l-2.61-15.66h2.975A13.991,13.991,0,0,0,80.3,46.241,29.516,29.516,0,0,0,55.454,17.1Z" transform="translate(-2 -16.46)" fill="#fcd770"/>
        </g>
        <g id="Grupo_1132529" data-name="Grupo 1132529" transform="translate(39.151 18.27)">
          <path id="Trazado_932974" data-name="Trazado 932974" d="M42.27,16.6,38.525,30.355l-2.036-2.44L32,22.525,38.525,16Z" transform="translate(-32 -16)" fill="#ffc729"/>
        </g>
        <g id="Grupo_1132530" data-name="Grupo 1132530" transform="translate(28.88 18.27)">
          <path id="Trazado_932975" data-name="Trazado 932975" d="M34.4,22.525l-4.489,5.39-2.036,2.44L24.13,16.6l3.745-.6Z" transform="translate(-24.13 -16)" fill="#ffc729"/>
        </g>
        <g id="Grupo_1132531" data-name="Grupo 1132531" transform="translate(23.49 39.151)">
          <path id="Trazado_932976" data-name="Trazado 932976" d="M50.015,32H21.305A1.309,1.309,0,0,0,20,33.305v31.32a1.309,1.309,0,0,0,1.305,1.305h28.71a1.309,1.309,0,0,0,1.305-1.305V33.305A1.309,1.309,0,0,0,50.015,32Z" transform="translate(-20 -32)" fill="#e6e9ed"/>
        </g>
        <g id="Grupo_1132532" data-name="Grupo 1132532" transform="translate(49.591 52.201)">
          <path id="Trazado_932977" data-name="Trazado 932977" d="M47.83,42V52.44H45.22a5.22,5.22,0,1,1,0-10.44Z" transform="translate(-40 -42)" fill="#f0d0b4"/>
        </g>
        <g id="Grupo_1132533" data-name="Grupo 1132533" transform="translate(20.88 52.201)">
          <path id="Trazado_932978" data-name="Trazado 932978" d="M20.61,42a5.22,5.22,0,1,1,0,10.44H18V42Z" transform="translate(-18 -42)" fill="#f0d0b4"/>
        </g>
        <g id="Grupo_1132534" data-name="Grupo 1132534" transform="translate(32.625 14.721)">
          <path id="Trazado_932979" data-name="Trazado 932979" d="M38.863,13.28l1.188,3.55-6.525,6.525L27,16.83l1.188-3.55a15.354,15.354,0,0,0,5.338.94A15.354,15.354,0,0,0,38.863,13.28Z" transform="translate(-27 -13.28)" fill="#f0d0b4"/>
        </g>
        <g id="Grupo_1132535" data-name="Grupo 1132535" transform="translate(23.49)">
          <path id="Trazado_932980" data-name="Trazado 932980" d="M20,2H51.32A15.611,15.611,0,0,1,46.74,13.08,15.569,15.569,0,0,1,41,16.721a15.63,15.63,0,0,1-10.675,0A15.65,15.65,0,0,1,20,2Z" transform="translate(-20 -2)" fill="#f0d0b4"/>
        </g>
        <g id="Grupo_1132536" data-name="Grupo 1132536" transform="translate(33.93 54.811)">
          <path id="Trazado_932981" data-name="Trazado 932981" d="M28,44H38.44v9.135a1.309,1.309,0,0,1-1.305,1.305h-7.83A1.309,1.309,0,0,1,28,53.135Z" transform="translate(-28 -44)" fill="#ef7385"/>
        </g>
      </g>
      <g id="Grupo_1132538" data-name="Grupo 1132538" transform="translate(1 1)">
        <path id="Trazado_932983" data-name="Trazado 932983" d="M81.911,50.957A30.678,30.678,0,0,0,55.966,20.532l-7-1.12-.551-1.652a16.981,16.981,0,0,0,10-15.455V1H24.49V2.305a16.977,16.977,0,0,0,10,15.454l-.551,1.652-7,1.12A30.682,30.682,0,0,0,1,50.957,15.311,15.311,0,0,0,16.294,66.251H17.73l-2.61,15.66H67.792l-2.61-15.66h1.437A15.31,15.31,0,0,0,81.911,50.957Zm-2.61,0A12.7,12.7,0,0,1,66.618,63.641H61.031v-7.83h2.035a5.8,5.8,0,0,0,5.5-7.629L64.879,37.128l-2.476.826,3.684,11.054A3.187,3.187,0,0,1,63.065,53.2H58.421V42.761a2.613,2.613,0,0,0-2.61-2.61H47.037L45.495,36.3l.722-1.443,2.365,2.837,4.1-15.04,2.871.459A28.083,28.083,0,0,1,79.3,50.957ZM25.8,55.811a3.915,3.915,0,1,1,0,7.83H24.49v-7.83ZM27.1,66.119a6.525,6.525,0,0,0,0-12.787V42.761h28.71V53.333a6.525,6.525,0,0,0,0,12.787v7.962H27.1ZM44.392,32.664,43.259,34.93H39.652l-1.134-2.267,2.936-3.524Zm-4.663,4.877h3.454l1.044,2.61H38.686Zm17.387,18.27h1.305v7.83H57.116a3.915,3.915,0,1,1,0-7.83ZM50.091,22.234,47.38,32.17l-4.159-4.992,5.211-5.211ZM27.159,3.61H55.752a14.356,14.356,0,0,1-28.593,0Zm14.3,15.66a16.885,16.885,0,0,0,4.5-.626l.527,1.579-4.943,4.943-.089-.1-.087.106-4.943-4.943.527-1.579A16.92,16.92,0,0,0,41.456,19.27Zm-6.977,2.7L39.69,27.18l-4.159,4.992L32.82,22.235ZM3.61,50.957A28.082,28.082,0,0,1,27.357,23.108l2.871-.459,4.1,15.04,2.365-2.837.722,1.443-1.543,3.855H27.1a2.613,2.613,0,0,0-2.61,2.61V53.2H19.846a3.187,3.187,0,0,1-3.022-4.193l3.684-11.054-2.476-.826L14.348,48.182a5.8,5.8,0,0,0,5.5,7.629H21.88v7.83H16.294A12.7,12.7,0,0,1,3.61,50.957ZM64.71,79.3H18.2l2.174-13.05H24.49v7.83a2.613,2.613,0,0,0,2.61,2.61h28.71a2.613,2.613,0,0,0,2.61-2.61v-7.83h4.115Z" transform="translate(-1 -1)"/>
        <path id="Trazado_932984" data-name="Trazado 932984" d="M31,47h2.61v2.61H31Z" transform="translate(8.151 13.031)"/>
        <path id="Trazado_932985" data-name="Trazado 932985" d="M33.525,37A6.532,6.532,0,0,0,27,43.525V55.27a2.613,2.613,0,0,0,2.61,2.61h7.83a2.613,2.613,0,0,0,2.61-2.61V43.525A6.532,6.532,0,0,0,33.525,37ZM29.61,55.27V47.44h7.83v7.83Zm0-10.44V43.525a3.915,3.915,0,1,1,7.83,0V44.83Z" transform="translate(6.93 9.981)"/>
      </g>
    </g>
  </g>
</svg>
