<svg xmlns="http://www.w3.org/2000/svg" xmlns:xlink="http://www.w3.org/1999/xlink" width="122.961" height="120.991" viewBox="0 0 122.961 120.991">
  <defs>
    <clipPath id="clip-path">
      <path id="doctor-hombre-adulto-pie-derecho-oficina-hospital" d="M31.977-19.778c15.9,0,29.465,17.752,42.2,33.785C83.108,25.249,91.24,34.838,91.24,46.254c0,11.062-3.123,17.279-6.1,23.16C81.017,77.55,75.322,83.383,64.4,90.7,46.057,102.99,28.792,87.142,14.73,80.608,3.675,75.471-9.5,73.025-18.479,67.581c-3.323-2.015-14.1-8.532-11.349-21.142,2.532-11.559,19.107-24.508,25.137-31.9C7.379-.265,17.611-19.778,31.977-19.778Z" transform="translate(30.274 19.778)" fill="#3c1c74"/>
    </clipPath>
  </defs>
  <g id="_38" data-name="38" transform="translate(-317.519 -2613.773)">
    <g id="Grupo_1072178" data-name="Grupo 1072178" transform="translate(10.519 -591.227)">
      <path id="doctor-hombre-adulto-pie-derecho-oficina-hospital-2" data-name="doctor-hombre-adulto-pie-derecho-oficina-hospital" d="M31.977-19.778c15.9,0,29.465,17.752,42.2,33.785C83.108,25.249,91.24,34.838,91.24,46.254c0,11.062-3.123,17.279-6.1,23.16C81.017,77.55,75.322,83.383,64.4,90.7,46.057,102.99,28.792,87.142,14.73,80.608,3.675,75.471-9.5,73.025-18.479,67.581c-3.323-2.015-14.1-8.532-11.349-21.142,2.532-11.559,19.107-24.508,25.137-31.9C7.379-.265,17.611-19.778,31.977-19.778Z" transform="translate(338.721 3226.641)" fill="#ab81f3"/>
      <g id="Elipse_4857" data-name="Elipse 4857" transform="translate(307 3205)" fill="none" stroke="#ab81f3" stroke-width="1">
        <circle cx="10.897" cy="10.897" r="10.897" stroke="none"/>
        <circle cx="10.897" cy="10.897" r="10.397" fill="none"/>
      </g>
      <circle id="Elipse_4858" data-name="Elipse 4858" cx="5.029" cy="5.029" r="5.029" transform="translate(416.805 3213.382)" fill="#ab81f3"/>
      <path id="Trazado_115346" data-name="Trazado 115346" d="M7.963,0c4.4,0,7.963,3.19,7.963,7.125,0,2.105-.507,3.949-2.35,5.055-1.19.723-3.568.845-5.613.845C3.565,13.024,0,11.06,0,7.125S3.565,0,7.963,0Z" transform="translate(317.897 3312.967)" fill="#ab81f3"/>
    </g>
    <g id="hands_4761076" transform="translate(296.172 2595.043)">
      <g id="Grupo_1132542" data-name="Grupo 1132542" transform="translate(41.999 51.513)">
        <path id="Trazado_932989" data-name="Trazado 932989" d="M46,163.58,50.995,145.1,46,119.911l4.636-29.619a2.692,2.692,0,0,1,5.354.424l.088,17.438H57.91a6.433,6.433,0,0,1,6.4,6.46V124.95s8.324,3.359,6.66,15.116-4.995,10.077-4.995,23.514" transform="translate(-44.32 -86.319)" fill="#b1796d"/>
        <path id="Trazado_932990" data-name="Trazado 932990" d="M43.68,162.94a1.683,1.683,0,0,1-1.622-2.118l4.892-18.1-4.918-24.808a1.646,1.646,0,0,1-.011-.586l4.636-29.619a4.371,4.371,0,0,1,8.692.684l.079,15.758h.161a8.122,8.122,0,0,1,8.084,8.14v9.335c2.426,1.473,8.1,6.08,6.644,16.351a39.636,39.636,0,0,1-2.767,10.343c-1.187,2.993-2.212,5.578-2.212,12.936a1.68,1.68,0,0,1-3.359,0c0-8,1.189-11,2.448-14.174a36.211,36.211,0,0,0,2.563-9.576c1.464-10.337-5.555-13.295-5.625-13.323a1.678,1.678,0,0,1-1.051-1.557V112.294a4.758,4.758,0,0,0-4.725-4.781H53.757a1.68,1.68,0,0,1-1.68-1.671L51.989,88.4a1.028,1.028,0,0,0-1.014-1.046,1.018,1.018,0,0,0-1,.873l-4.589,29.325,4.936,24.9a1.684,1.684,0,0,1-.026.764L45.3,161.7a1.681,1.681,0,0,1-1.62,1.242Z" transform="translate(-41.999 -83.999)" fill="#12263f"/>
      </g>
      <g id="Grupo_1132543" data-name="Grupo 1132543" transform="translate(52.077 69.988)">
        <path id="Trazado_932991" data-name="Trazado 932991" d="M70,132v20.155l3.359,8.4" transform="translate(-68.32 -130.319)" fill="#12263f"/>
        <path id="Trazado_932992" data-name="Trazado 932992" d="M71.04,159.912a1.682,1.682,0,0,1-1.561-1.056l-3.359-8.4a1.689,1.689,0,0,1-.12-.624V129.679a1.68,1.68,0,1,1,3.359,0V149.51l3.239,8.1a1.682,1.682,0,0,1-1.559,2.3Z" transform="translate(-66 -127.999)" fill="#12263f"/>
      </g>
      <g id="Grupo_1132544" data-name="Grupo 1132544" transform="translate(104.145 49.833)">
        <path id="Trazado_932993" data-name="Trazado 932993" d="M219.193,159.58,214.2,141.1l4.995-25.194-4.636-29.619a2.692,2.692,0,0,0-5.354.424l-.088,17.438h-1.832a6.433,6.433,0,0,0-6.4,6.461V120.95s-8.324,3.359-6.66,15.116,4.995,10.077,4.995,23.514" transform="translate(-192.321 -82.319)" fill="#b1796d"/>
        <path id="Trazado_932994" data-name="Trazado 932994" d="M216.874,158.94a1.681,1.681,0,0,1-1.62-1.242l-4.995-18.475a1.679,1.679,0,0,1-.026-.764l4.936-24.9L210.58,84.232a1.012,1.012,0,0,0-2.015.164l-.088,17.446a1.68,1.68,0,0,1-1.68,1.671h-1.832a4.758,4.758,0,0,0-4.725,4.781v10.335a1.678,1.678,0,0,1-1.051,1.557c-.279.117-7.074,3.093-5.625,13.323a36.233,36.233,0,0,0,2.563,9.576c1.259,3.175,2.448,6.175,2.448,14.174a1.68,1.68,0,0,1-3.359,0c0-7.357-1.025-9.942-2.212-12.936a39.637,39.637,0,0,1-2.767-10.343c-1.454-10.272,4.218-14.879,6.644-16.351v-9.335a8.122,8.122,0,0,1,8.084-8.14h.161l.079-15.767a4.371,4.371,0,0,1,8.692-.676l4.636,29.619a1.666,1.666,0,0,1-.011.586L213.6,138.725l4.892,18.1a1.683,1.683,0,0,1-1.622,2.118Z" transform="translate(-190.002 -79.999)" fill="#12263f"/>
      </g>
      <g id="Grupo_1132545" data-name="Grupo 1132545" transform="translate(115.9 68.309)">
        <path id="Trazado_932995" data-name="Trazado 932995" d="M225.359,128v20.155l-3.359,8.4" transform="translate(-220.32 -126.319)" fill="#12263f"/>
        <path id="Trazado_932996" data-name="Trazado 932996" d="M219.678,155.912a1.681,1.681,0,0,1-1.559-2.3l3.24-8.1V125.679a1.68,1.68,0,1,1,3.359,0v20.155a1.694,1.694,0,0,1-.12.624l-3.359,8.4A1.682,1.682,0,0,1,219.678,155.912Z" transform="translate(-217.998 -123.999)" fill="#12263f"/>
      </g>
      <g id="Grupo_1132546" data-name="Grupo 1132546" transform="translate(63.414 27.999)">
        <circle id="Elipse_5912" data-name="Elipse 5912" cx="23.5" cy="23.5" r="23.5" transform="translate(1.934 1.226)" fill="#a9ba5a"/>
        <path id="Trazado_932997" data-name="Trazado 932997" d="M118.194,78.386a25.194,25.194,0,1,1,25.194-25.194A25.222,25.222,0,0,1,118.194,78.386Zm0-47.028a21.835,21.835,0,1,0,21.835,21.835A21.859,21.859,0,0,0,118.194,31.358Z" transform="translate(-93 -27.999)" fill="#12263f"/>
      </g>
      <g id="Grupo_1132547" data-name="Grupo 1132547" transform="translate(70.552 39.756)">
        <path id="Trazado_932998" data-name="Trazado 932998" d="M128.1,88.931,114,73.436h8.4l4.372,4.66L136.216,60h8.016Z" transform="translate(-112.321 -58.319)" fill="#ffce56"/>
        <path id="Trazado_932999" data-name="Trazado 932999" d="M125.783,88.289a1.681,1.681,0,0,1-1.242-.549l-14.1-15.495a1.68,1.68,0,0,1,1.242-2.811h8.4a1.68,1.68,0,0,1,1.225.531l2.752,2.934,8.351-16A1.68,1.68,0,0,1,133.9,56h8.016a1.68,1.68,0,0,1,1.467,2.5L127.25,87.427a1.677,1.677,0,0,1-1.274.85,1.422,1.422,0,0,1-.193.012Zm-10.3-15.495,9.974,10.958,13.6-24.4h-4.14l-8.974,17.194a1.68,1.68,0,0,1-2.715.371l-3.874-4.129h-3.871Z" transform="translate(-110 -55.998)" fill="#12263f"/>
      </g>
    </g>
  </g>
</svg>
