<svg xmlns="http://www.w3.org/2000/svg" xmlns:xlink="http://www.w3.org/1999/xlink" width="122.961" height="120.991" viewBox="0 0 122.961 120.991">
  <defs>
    <clipPath id="clip-path">
      <path id="doctor-hombre-adulto-pie-derecho-oficina-hospital" d="M31.977-19.778c15.9,0,29.465,17.752,42.2,33.785C83.108,25.249,91.24,34.838,91.24,46.254c0,11.062-3.123,17.279-6.1,23.16C81.017,77.55,75.322,83.383,64.4,90.7,46.057,102.99,28.792,87.142,14.73,80.608,3.675,75.471-9.5,73.025-18.479,67.581c-3.323-2.015-14.1-8.532-11.349-21.142,2.532-11.559,19.107-24.508,25.137-31.9C7.379-.265,17.611-19.778,31.977-19.778Z" transform="translate(30.274 19.778)" fill="#3c1c74"/>
    </clipPath>
  </defs>
  <g id="_39" data-name="39" transform="translate(-317.519 -2613.773)">
    <g id="Grupo_1072178" data-name="Grupo 1072178" transform="translate(10.519 -591.227)">
      <path id="doctor-hombre-adulto-pie-derecho-oficina-hospital-2" data-name="doctor-hombre-adulto-pie-derecho-oficina-hospital" d="M31.977-19.778c15.9,0,29.465,17.752,42.2,33.785C83.108,25.249,91.24,34.838,91.24,46.254c0,11.062-3.123,17.279-6.1,23.16C81.017,77.55,75.322,83.383,64.4,90.7,46.057,102.99,28.792,87.142,14.73,80.608,3.675,75.471-9.5,73.025-18.479,67.581c-3.323-2.015-14.1-8.532-11.349-21.142,2.532-11.559,19.107-24.508,25.137-31.9C7.379-.265,17.611-19.778,31.977-19.778Z" transform="translate(338.721 3226.641)" fill="#ab81f3"/>
      <g id="Elipse_4857" data-name="Elipse 4857" transform="translate(307 3205)" fill="none" stroke="#ab81f3" stroke-width="1">
        <circle cx="10.897" cy="10.897" r="10.897" stroke="none"/>
        <circle cx="10.897" cy="10.897" r="10.397" fill="none"/>
      </g>
      <circle id="Elipse_4858" data-name="Elipse 4858" cx="5.029" cy="5.029" r="5.029" transform="translate(416.805 3213.382)" fill="#ab81f3"/>
      <path id="Trazado_115346" data-name="Trazado 115346" d="M7.963,0c4.4,0,7.963,3.19,7.963,7.125,0,2.105-.507,3.949-2.35,5.055-1.19.723-3.568.845-5.613.845C3.565,13.024,0,11.06,0,7.125S3.565,0,7.963,0Z" transform="translate(317.897 3312.967)" fill="#ab81f3"/>
    </g>
    <g id="teenage_4533909" transform="translate(328.424 2622.018)">
      <g id="Grupo_1132550" data-name="Grupo 1132550" transform="translate(11.539 10.17)">
        <path id="Trazado_933000" data-name="Trazado 933000" d="M51.283,73.586v6.7h-6.3V95.4H18.2V80.281H11.9v-6.7A17.5,17.5,0,0,1,29.386,56.1h4.49A17.531,17.531,0,0,1,51.283,73.586Z" transform="translate(-11.9 -20.224)" fill="#a64dff"/>
        <path id="Trazado_933001" data-name="Trazado 933001" d="M11.9,86.8h6.3v24.1H11.9Z" transform="translate(-11.9 -26.743)" fill="#fb9"/>
        <path id="Trazado_933002" data-name="Trazado 933002" d="M53.9,86.8h6.3v24.1H53.9Z" transform="translate(-20.818 -26.743)" fill="#fb9"/>
        <path id="Trazado_933003" data-name="Trazado 933003" d="M19.9,106H33.29v9.058H19.9Z" transform="translate(-13.599 -30.82)" fill="#5d5390"/>
        <path id="Trazado_933004" data-name="Trazado 933004" d="M28.1,57l6.931,9.452L42.042,57Z" transform="translate(-15.34 -20.415)" fill="#fb9"/>
        <path id="Trazado_933005" data-name="Trazado 933005" d="M33.375,52.784A13.043,13.043,0,0,1,20.3,39.709V27.5H46.529V39.63A13.177,13.177,0,0,1,33.375,52.784Z" transform="translate(-13.684 -14.151)" fill="#ffd9b3"/>
        <path id="Trazado_933006" data-name="Trazado 933006" d="M19.078,36.031s4.883-5.907,5.592-12.13c0,0,19.3,7.325,23.63,7.483,0,0,2.836-16.7-12.524-20.322a16.471,16.471,0,0,0-12.6,1.89C18.448,15.867,13.88,22.326,19.078,36.031Z" transform="translate(-12.935 -10.552)" fill="#c87620"/>
        <path id="Trazado_933007" data-name="Trazado 933007" d="M68.6,36.4h36.941V59.872H68.6Z" transform="translate(-23.94 -16.041)" fill="#c87620"/>
        <path id="Trazado_933008" data-name="Trazado 933008" d="M67.9,81.1h5.986v28.592H67.9Z" transform="translate(-23.791 -25.532)" fill="#fb9"/>
        <path id="Trazado_933009" data-name="Trazado 933009" d="M108.4,81.1h5.986v28.592H108.4Z" transform="translate(-32.391 -25.532)" fill="#fb9"/>
        <path id="Trazado_933010" data-name="Trazado 933010" d="M105.865,71.92v4.253l-4.726,3.466v7.719H72.626V79.639L67.9,76.174V71.92A14,14,0,0,1,81.92,57.9h9.767A14.086,14.086,0,0,1,105.865,71.92Z" transform="translate(-23.791 -20.606)" fill="#ff9100"/>
        <ellipse id="Elipse_5913" data-name="Elipse 5913" cx="7.404" cy="9.609" rx="7.404" ry="9.609" transform="translate(55.688 27.212)" fill="#fb9"/>
        <path id="Trazado_933011" data-name="Trazado 933011" d="M88.475,52.837A13.093,13.093,0,0,1,75.4,39.761V20.7h26.229V39.683A13.177,13.177,0,0,1,88.475,52.837Z" transform="translate(-25.384 -12.707)" fill="#ffd9b3"/>
        <path id="Trazado_933012" data-name="Trazado 933012" d="M87.01,12.4C69.524,13.739,68.5,31.225,68.5,31.225h5.356C84.883,29.256,87.01,20.434,87.01,20.434s2.127,8.9,13.075,10.87h5.356c.079,0-.945-17.486-18.431-18.9Z" transform="translate(-23.918 -10.945)" fill="#c87620"/>
        <path id="Trazado_933013" data-name="Trazado 933013" d="M75.6,95.3h25.835v5.514H75.6Z" transform="translate(-25.426 -28.547)" fill="#ffd9b3"/>
        <path id="Trazado_933014" data-name="Trazado 933014" d="M103.794,114.272H71.5L74.729,102.3h25.835Z" transform="translate(-24.555 -30.034)" fill="#5d5390"/>
        <path id="Trazado_933015" data-name="Trazado 933015" d="M36.9,106H50.29v9.058H36.9Z" transform="translate(-17.208 -30.82)" fill="#3e3373"/>
      </g>
      <path id="Trazado_933016" data-name="Trazado 933016" d="M41.076,46.362A14.551,14.551,0,0,0,45.8,35.649V32.262c.394.079.788.079,1.1.158a1.433,1.433,0,0,0,1.418-1.181c.079-.394,1.418-8.979-3.466-15.6a1.355,1.355,0,0,0-2.205,1.575c3.151,4.253,3.229,9.688,3.072,12.13-4.962-1.024-17.25-5.435-21.9-7.168a1.417,1.417,0,0,0-1.89,1.1c-.394,3.623-2.442,7.168-3.781,9.294-2.6-8.192-1.575-14.257,3.072-18.037a1.4,1.4,0,0,0-1.812-2.127c-4.175,3.387-8.113,10.24-2.993,23.63a1.413,1.413,0,0,0,.394.551A14.007,14.007,0,0,0,21.464,46.2,18.8,18.8,0,0,0,10.2,63.454v30.8a1.464,1.464,0,0,0,1.418,1.418H51a1.464,1.464,0,0,0,1.418-1.418V63.533A18.979,18.979,0,0,0,41.076,46.362ZM19.494,35.649v-.158A29.778,29.778,0,0,0,24.3,25.41c3.7,1.339,13,4.726,18.589,6.223v4.017a11.7,11.7,0,1,1-23.394,0ZM34.224,49.827l-2.993,4.017-2.993-4.017A15.311,15.311,0,0,0,34.224,49.827ZM12.957,71.645H16.5V92.991H12.957ZM43.282,86.769v6.3H32.648v-6.3Zm-13.39,6.223H19.258v-6.3H29.892Zm16.147,0V71.645h3.544V92.991Zm3.544-24.1H46.039v-3.7a1.418,1.418,0,1,0-2.836,0V83.933H19.258V70.306h0V65.265a1.418,1.418,0,1,0-2.836,0v3.7H12.878V63.69a16.092,16.092,0,0,1,10.87-15.2l6.38,8.507a1.409,1.409,0,0,0,2.205,0l6.38-8.585a16.229,16.229,0,0,1,10.87,15.2ZM25.559,10.759a1.41,1.41,0,0,1,1.1-1.654,19.828,19.828,0,0,1,12.051,1.5,1.376,1.376,0,1,1-1.1,2.521,17.035,17.035,0,0,0-10.318-1.339A1.368,1.368,0,0,1,25.559,10.759Zm68.054,44.5A1.35,1.35,0,0,0,94.48,54V30.451c0-.551-1.26-18.746-19.77-20.164a1.4,1.4,0,0,0-1.5,1.812,1.442,1.442,0,0,0,1.418.945c13.233,1.1,16.226,12.051,16.935,16.068h-3.7C78.1,27.3,76.048,19.581,75.97,19.266a1.375,1.375,0,0,0-2.678,0c0,.079-2.048,7.955-11.894,9.846H57.7c.551-3.229,2.678-11.027,10.24-14.493a1.267,1.267,0,0,0,.63-1.812,1.424,1.424,0,0,0-1.812-.709c-11.027,5.12-11.972,17.092-11.972,18.352V54a1.4,1.4,0,0,0,.788,1.26,15.508,15.508,0,0,0-1.339,6.223V94.33a1.464,1.464,0,0,0,1.418,1.418H93.534a1.464,1.464,0,0,0,1.418-1.418V61.485a15.508,15.508,0,0,0-1.339-6.223ZM60.3,92.991l2.442-9.137H86.524l2.521,9.137Zm2.757-14.65H86.13V81.1H63.052ZM88.021,68.1a1.277,1.277,0,0,0-.551,1.1v6.38H61.792V69.2a1.378,1.378,0,0,0-.551-1.1l-4.175-2.993V61.563a12.666,12.666,0,0,1,9.058-12.13,12.032,12.032,0,0,0,2.442,5.514,7.69,7.69,0,0,0,12.209,0,12.032,12.032,0,0,0,2.442-5.514A12.62,12.62,0,0,1,92.2,61.563v3.544ZM69.275,50.615a15,15,0,0,0,10.791,0,9.9,9.9,0,0,1-1.418,2.521,4.943,4.943,0,0,1-7.955,0A9.9,9.9,0,0,1,69.275,50.615ZM91.723,31.869V52.111a15.837,15.837,0,0,0-6.616-4.962,14.748,14.748,0,0,0,4.017-10V31.869ZM74.631,23.126a17.621,17.621,0,0,0,11.736,8.507v5.514a11.736,11.736,0,0,1-23.472,0V31.632a21.179,21.179,0,0,0,4.295-1.5,16.279,16.279,0,0,0,7.442-7.009ZM60.216,31.869v5.277a14.818,14.818,0,0,0,3.938,10,15.66,15.66,0,0,0-6.616,4.883V31.869ZM57.066,68.495l1.969,1.418v7.01a1.313,1.313,0,0,0,1.26,1.339V82.2L57.46,92.912h-.394Zm34.815,24.5L88.966,82.279V78.341A1.366,1.366,0,0,0,90.226,77v-7.01L92.2,68.574v24.5H91.88Z"/>
    </g>
  </g>
</svg>
