<svg xmlns="http://www.w3.org/2000/svg" xmlns:xlink="http://www.w3.org/1999/xlink" width="505" height="688" viewBox="0 0 505 688">
  <defs>
    <clipPath id="clip-path">
      <rect id="Rect치ngulo_414532" data-name="Rect치ngulo 414532" width="505" height="688" transform="translate(180 585)" fill="none"/>
    </clipPath>
    <clipPath id="clip-path-2">
      <rect id="Rect치ngulo_411247" data-name="Rect치ngulo 411247" width="335.738" height="704.201" transform="translate(0.376 -0.559)" fill="#fff" stroke="#707070" stroke-width="1" opacity="0.63"/>
    </clipPath>
  </defs>
  <g id="Enmascarar_grupo_1079208" data-name="Enmascarar grupo 1079208" transform="translate(-180 -585)" clip-path="url(#clip-path)">
    <g id="Enmascarar_grupo_1079119" data-name="Enmascarar grupo 1079119" transform="translate(263.952 569.746)" clip-path="url(#clip-path-2)">
      <g id="Grupo_1121122" data-name="Grupo 1121122" transform="translate(19.299 26.44)">
        <path id="Trazado_920805" data-name="Trazado 920805" d="M200.646,215.5a9.312,9.312,0,0,0,1.658.6c3.818.6,7.334,1.658,9.595,5.024,1.155-.151,2.11-.3,3.014-.352,5.425-.151,9.9,1.708,13.011,6.33,4.823,7.083,4.923,14.166.3,21.45a36.992,36.992,0,0,1-8.64,9.294,20.572,20.572,0,0,1,4.22-.7c7.535.251,15.02.5,22.505,1.105a7.989,7.989,0,0,1,7.435,5.425c3.617-.553,7.184-1.105,10.75-1.608,16.728-2.311,31.347,2.763,44.558,12.71,6.48,4.873,11.906,10.7,15.372,18.085s4.019,14.97,1.055,22.606c-.8,2.11-2.411,3.918-3.768,5.877a32.734,32.734,0,0,1-2.763,3.617c-1.809,2.11-3.717,4.119-6.078,6.681.452,2.11.954,4.973,1.708,7.786a3.451,3.451,0,0,0,1.859,1.808c1.356.7,2.462,1.507,2.462,3.115,0,1.658-1.256,2.06-2.562,2.462-.151.05-.251.352-.4.553.2,1.507,1.457,1.206,2.462,1.306,3.717.352,7.485.7,11.2,1.206a9.172,9.172,0,0,1,3.667,1.105,4.06,4.06,0,0,1,1.859,2.663,47.423,47.423,0,0,1-.653,8.439,11.725,11.725,0,0,1-7.485,9.143c-.753.3-1.507.6-2.461,1,.251,1.859.6,3.667.753,5.476.754,10.5.7,21-2.562,31.1a46.763,46.763,0,0,1-9.143,16.578c-4.27,5.023-8.64,9.9-14.367,13.413-3.868,2.361-7.686,4.521-12.659,5.024,2.562,3.918,2.06,7.937.954,12.308,1.859,1,3.717,1.959,5.576,2.913,2.914,1.507,6.129,2.612,7.284,6.179a1.3,1.3,0,0,0,.754.7c3.114.955,4.873,3.567,7.184,5.526a19.618,19.618,0,0,0,5.526,3.014c7.083,2.913,14.217,5.626,21.249,8.54a42.663,42.663,0,0,1,12.408,7.987c3.165,2.914,5.777,6.129,6.681,10.549a5.623,5.623,0,0,0,1.808,2.914,19.474,19.474,0,0,1,6.983,14.568,114.136,114.136,0,0,0,7.234,36.169c1,2.713,1.306,5.677,2.06,9.143,1.809.6,4.17,1.557,6.631,2.21,6.48,1.708,13.011,3.215,19.441,5.023a93.871,93.871,0,0,1,11.655,4.019c4.32,1.859,5.878,4.722,5.023,9.344a56.88,56.88,0,0,1-3.115,11.554c-4.772,11.353-9.595,22.757-15.774,33.457-.8,1.406-1.859,2.662-2.562,3.717.251,5.576.553,11,.653,16.377a10.435,10.435,0,0,1-.854,4.823c-1.356,2.663-1.658,5.576-2.461,8.389-1.557,5.526-2.612,11.3-6.129,16.025a54.519,54.519,0,0,0-5.124,9.143,28.813,28.813,0,0,1-4.371,5.878,8.167,8.167,0,0,1-6.329,2.662c-2.361.05-4.672.3-7.334.452a38.3,38.3,0,0,0-4.22,9.7c1.457,2.964-.553,5.928.05,8.891.6,3.115.9,6.33,1.959,9.243,1.808,5.074,3.969,10.047,6.129,15.02,4.873,10.951,7.385,22.355,6.631,34.311a45.911,45.911,0,0,1-2.21,11.353c-1.457,4.27-3.768,8.188-8.791,9.7.151,2.26.4,4.471.4,6.681-.1,7.535-.151,15.07-.6,22.606a381.047,381.047,0,0,1-5.827,48.326c-3.014,15.925-6.631,31.748-9.9,47.673-2.411,11.755-4.672,23.51-6.983,35.315-.05.352-.2.653-.251,1-.4,3.919-1.055,4.622-4.873,4.471-2.21-.1-4.421-.8-6.631-.753-7.385.151-14.819.352-22.2.9-9.846.7-19.692,1.758-29.538,2.662-4.672.452-9.344.954-13.965,1.406H233.248c-1.055-.2-2.06-.452-3.115-.553-10.65-1-21.35-1.758-31.949-3.115-6.631-.854-13.111-2.562-19.642-4.019a14.592,14.592,0,0,1-9.143-6.732c-.653-1-1.407-1.859-2.06-2.813a30.366,30.366,0,0,1-3.014-4.622,31.384,31.384,0,0,1-1.708-5.727c-.954-4.119-2.009-8.188-5.275-11.253a11.311,11.311,0,0,1-1.557-2.361,101.733,101.733,0,0,1-12.157-32.2,339.635,339.635,0,0,1-7.033-80.326,171.5,171.5,0,0,1,1.909-18.939c.653-4.521,1.859-8.942,2.813-13.614a15.487,15.487,0,0,0-2.512-2.21,6.77,6.77,0,0,1-3.717-5.626,63.092,63.092,0,0,1-.4-11.906,169.662,169.662,0,0,1,3.265-18.035c1.909-8.49,4.019-16.929,7.937-24.766.05-.151-.1-.4-.2-.753-2.21-.4-4.571-.653-6.832-1.206-7.485-1.708-13.011-5.526-15.372-13.362a31.883,31.883,0,0,0-4.873-10.1,11.2,11.2,0,0,1-2.261-7.837c.6-11.353-3.868-21.651-6.782-32.251v-4.219a10.149,10.149,0,0,0,.7-2.311c.4-6.43.854-12.91,1-19.34.151-6.933-.352-13.915,0-20.8.553-10.7,1.457-21.35,2.411-32,1.206-13.714,2.562-27.378,3.768-41.092.653-7.284,1.658-14.468,4.069-21.4a41.846,41.846,0,0,0,2.16-8.188c.653-4.973,3.416-8.339,7.284-11.152a390.771,390.771,0,0,1,33.808-21.752c11.2-6.43,22.053-13.463,33.155-20.3a29.586,29.586,0,0,1-.4-3.315c.05-4.471-.251-8.942.3-13.363.9-6.932,3.416-9.193,10.4-10.65a9.252,9.252,0,0,0,.151-1.658c-.3-5.526-.653-11.052-1-16.578-.3-4.772-.7-9.545-1.055-14.669a43.7,43.7,0,0,0-5.174-4.471,10.445,10.445,0,0,1-5.124-7.987,3.236,3.236,0,0,0-2.461-3.064c-2.311-.6-3.014-2.21-2.763-4.27.352-3.014-.954-5.074-2.914-7.184-5.174-5.425-10.248-11-15.271-16.628-5.174-5.777-7.435-12.509-5.928-20.194a121.78,121.78,0,0,1,3.265-11.856,8.449,8.449,0,0,0,.1-5.777,12.162,12.162,0,0,1-.9-5.777c.352-2.361,1.658-4.571,0-6.983-.3-.452.05-1.356.2-2.06.2-1,.452-2.009.7-3.215-8.49-.05-13.212-4.973-16.427-11.956a18.627,18.627,0,0,1-1.206-3.316,9.04,9.04,0,0,0-6.279-6.38,9.965,9.965,0,0,1-7.033-7.736,19.449,19.449,0,0,1,0-7.987c2.411-9.645,7.987-17.482,15.221-24.113,4.22-3.868,8.038-3.868,12.107-.653a3.409,3.409,0,0,0,.954.4c2.713-6.079,7.686-9.042,13.815-10.5,2.261-.553,4.571-.954,6.832-1.407C192.156,215.5,196.376,215.5,200.646,215.5Zm17.733,58.423a9.561,9.561,0,0,0-1.959-.553c-5.626-.352-10.65,1.557-15.221,4.672-4.622,3.165-8.239,7.334-11.6,11.805a99.431,99.431,0,0,0-16.025,31.2c-2.512,8.439-1.507,16.176,5.174,22.556a6.464,6.464,0,0,1,.954,1.055c4.019,4.923,8.038,9.8,12.056,14.769a9.25,9.25,0,0,1,2.512,6.43c-.1,2.311,1.658,3.115,3.466,4.421a53.055,53.055,0,0,1,.05-5.727c.452-4.521,1.557-8.841,5.124-12.056,3.667-3.265,6.681-2.763,9.294,1.407.954,1.507,1.758,3.064,2.713,4.571a2.9,2.9,0,0,0,2.914,1.607c2.462-.3,4.923-.452,7.334-.653,2.311-4.421,1.206-9.193,2.16-13.915-7.133.5-13.865.753-19.391-4.32,2.612.753,4.973.05,7.485-.452,10.4-1.909,18.436-7.385,24.515-15.824,1.708-2.411,2.713-5.425,3.818-8.239a56.029,56.029,0,0,0,1.607-5.978c.4,1.155.6,1.758.9,2.512,3.064-7.334,4.873-15.975,4.169-19.692a1.1,1.1,0,0,0-.251.2c-.3.754-.553,1.557-.8,2.311-3.667,10.148-8.59,19.592-16.276,27.378-5.928,6.028-12.559,11-20.8,13.463a19.248,19.248,0,0,1-5.877.7,3.829,3.829,0,0,1-2.763-1.658c-.352-.6.251-2.009.8-2.763a13.013,13.013,0,0,1,2.562-2.411c5.325-4.22,10.8-8.339,16.025-12.709,5.275-4.421,9.645-9.545,9.545-17.231a6.14,6.14,0,0,1,1.306,2.713,11.541,11.541,0,0,1-3.215,9.746,93.4,93.4,0,0,1-9.545,8.841c-4.119,3.315-8.54,6.229-12.81,9.394a24.275,24.275,0,0,0-2.813,2.763c.2.3.352.553.553.854a49.108,49.108,0,0,0,6.129-2.16c13.815-6.782,23.761-17.482,30.643-31.1,3.064-6.079,5.978-12.257,7.083-19.089.3-1.758.7-3.466,1.155-5.626a22.245,22.245,0,0,1,3.265,10.5,59.062,59.062,0,0,1-8.088,33.457c-6.531,11.152-15.824,18.486-28.935,20.295-.251.05-.452.352-1.055.8a36.387,36.387,0,0,0,14.92-2.21c20.044-7.334,32.6-21.651,38.379-42a33.983,33.983,0,0,0,.151-18.486c-.553-2.009-1.206-3.868-3.165-4.019-.2-1.156-.1-2.21-.553-2.914-1.658-2.562-3.667-.5-5.928.05.251-1.306.4-2.261.6-3.316a10.263,10.263,0,0,0-5.224-3.215,4.16,4.16,0,0,1-2.562-1.557c-1.507-3.466-4.521-4.32-7.736-4.722-5.275-.6-10.549-1-15.824-1.306a29.844,29.844,0,0,0-5.928.7c-1.306.2-1.758,1-1.256,2.311.05.05-.3.3-.452.452-.6-.151-1.256-.3-1.859-.452a5.761,5.761,0,0,0-.8.9c-1.055,2.462-2.763,3.466-5.576,3.265a13.244,13.244,0,0,0-5.174.9c-12.006,4.119-21.8,11.5-30.041,20.948a22.118,22.118,0,0,0-5.626,11.956c-.2,1.959-.553,3.868-.8,5.626,1.105,2.21,2.16,4.37,3.215,6.43,1.859-3.868,3.667-8.038,5.827-12.056a64.829,64.829,0,0,1,17.532-21,25.977,25.977,0,0,1,18.034-5.777c.954.15,1.658.251,1.959,1.205ZM198.637,452.208a26.987,26.987,0,0,0-2.813.854,5.614,5.614,0,0,0-1.457.954c-11.956,7.887-24.012,15.724-35.868,23.761-8.691,5.827-17.18,11.906-25.771,17.934a12.8,12.8,0,0,0-4.923,7.083c-2.21,7.183-4.722,14.267-7.133,21.4a12.847,12.847,0,0,0-.5,2.411c-.5,5.275-1.055,10.549-1.407,15.824-1.206,18.085-2.411,36.169-3.416,54.254a191.518,191.518,0,0,0-.151,20.094,191.23,191.23,0,0,1-.3,30.342,22.534,22.534,0,0,0,1.909,12.056A54.187,54.187,0,0,1,121.576,686a12.106,12.106,0,0,0,.7,4.823c1.356,3.366,3.316,6.48,4.521,9.9,2.11,5.777,6.33,8.841,12.056,10.248a62.624,62.624,0,0,0,21.4,1c12.91-1.407,25.268-5.174,37.475-9.645,10.8-3.969,19.742-11.2,29.99-16.628a13.111,13.111,0,0,1-1.507-.954,5.458,5.458,0,0,1-1.155-1.256c-6.48-10.9-8.691-22.706-7.736-35.215.251-3.366.955-6.631,1.457-9.947-4.973,0-9.946-.251-14.819.05a98.141,98.141,0,0,0-15.372,1.909,126.179,126.179,0,0,0-14.618,4.572,10.987,10.987,0,0,0-4.019,2.11c-4.019,4.119-9.545,5.425-14.468,7.837-1.105.5-2.361.8-3.165-.452-.9-1.356-.1-2.462.854-3.416a11.036,11.036,0,0,1,1.959-1.457c2.11-1.256,4.22-2.512,6.43-3.667,4.471-2.311,8.992-4.521,13.614-6.832a40.059,40.059,0,0,0-2.914-19.994c-1.105-2.713-2.311-5.425-3.366-8.138-2.06-5.174-2.311-10.3.2-15.372.8-1.608.452-2.763-.251-4.27a45.629,45.629,0,0,1-2.512-7.234c-.251-.854-.3-2.16.2-2.662,1.407-1.406,1.155-3.014,1.055-4.622-.151-3.064-.553-6.078-.553-9.143a17.051,17.051,0,0,1,.854-6.179,18.6,18.6,0,0,0,.854-10.047c-.352-2.21-1.105-4.32-1.507-6.531-1.457-7.234-2.863-14.518-4.27-21.751-.251-1.407-.1-2.914,1.457-3.014.854-.05,2.06,1,2.612,1.859a24.657,24.657,0,0,1,1.608,4.571,21.207,21.207,0,0,0,2.11-3.667c.9-3.165,1.658-6.33,2.411-9.544.251-1,.05-2.16,1.457-2.411,2.11,2.663.954,10.65-2.562,17.482-1.658-1.758-2.11.452-3.265.753.251,1.256.452,2.311.653,3.316,1.306,5.727,2.662,11.454,3.918,17.181,1,4.672,1.055,9.293-.854,13.865a6.7,6.7,0,0,0-.5,3.416c1,7.284.753,14.568.3,21.852a4.6,4.6,0,0,0,.251,2.361c1.105,2.06.854,4.069.3,6.179a16,16,0,0,0,.8,10.7l3.165,7.083A41.458,41.458,0,0,1,181,634.511a18.333,18.333,0,0,0,.2,2.763c.854-.151,1.407-.2,1.959-.352,11.655-2.914,23.46-3.366,35.365-2.361,1.206.1,2.411-.452,3.617-.553.854-.051,2.11-.2,2.512.3,1.206,1.457,2.662,1.256,4.17,1.206,4.32-.2,8.691-.452,13.011-.7a6.3,6.3,0,0,0,6.028-4.571,33.995,33.995,0,0,0,1-3.717c1.155-4.32,2.21-8.64,3.567-12.91,1.407-4.421,4.521-7.083,9.093-8.54a38.555,38.555,0,0,0,16.578-9.7c3.918-4.069,7.786-8.188,11.554-12.358a11.655,11.655,0,0,0,2.009-3.165c2.914-6.53,5.174-13.463,8.791-19.592,5.576-9.545,6.33-9.846,16.778-9.545,5.626.151,10.75,2.311,16.075,3.818.954.251,1.909.5,3.215.854-1.306-2.512-2.512-4.521-3.466-6.581-2.261-4.923-4.32-9.9-7.937-14.066-1.507-1.758-1.256-2.863.352-4.672.6-.653,1.256-1.306,1.959-2.11a7.3,7.3,0,0,0-1.055-.8c-3.617-2.16-3.466-2.06-2.21-5.827a12.234,12.234,0,0,0,.352-5.877c-.251-1.356-1.557-2.562-2.462-3.918,1.206-1.758,2.009-2.009,3.215-.653a9.091,9.091,0,0,1,1.557,2.713,17.391,17.391,0,0,1,.754,9.746c1,1.808,2.21,3.064,2.311,4.421.1,1.457-.854,3.014-1.407,4.622.251.3.5.653.8,1.055a56.5,56.5,0,0,1,9.394,19.19c.7,2.461,1.859,4.521,4.973,5.124,7.585,1.557,15.121,3.517,22.656,5.325.7.151,1.457.251,2.512.4-.352-.8-.553-1.206-.7-1.658-3.516-8.741-6.932-17.532-7.987-26.976-.553-4.772-.452-9.645-.653-14.417-.2-5.526-1.608-10.4-6.782-13.564a7.651,7.651,0,0,1-2.813-3.818,20.319,20.319,0,0,0-6.078-8.892c-5.425-4.923-12.006-7.736-18.687-10.4-4.923-1.959-9.846-3.868-14.719-5.878a12.372,12.372,0,0,1-6.33-5.425c-.4-.7-.954-1.608-1.608-1.758-3.516-.854-6.028-2.813-8.54-5.425-1.859-1.909-4.973-2.662-7.636-3.969-.9,3.969-2.21,5.978-4.722,7.937.352-2.16,1.256-4.622,1.055-6.933a20.53,20.53,0,0,1,1.557-9.243,7.983,7.983,0,0,0,.352-1c1-4.471-.9-7.033-5.878-7.686l-.6,4.069c-2.863,1.457-5.727,2.964-8.992,2.813-7.887-.352-15.724-.7-23.61-1.206-9.092-.6-16.678-5.425-24.665-9.093-3.466-1.608-6.38-4.421-10.348-4.973-.2-.05-.452-.4-.553-.6-1.557-2.813-3.064-5.677-4.672-8.59A4.254,4.254,0,0,0,202,430.657a41.076,41.076,0,0,0-.553,7.033,51.3,51.3,0,0,0,5.074,20.747c.452.9.753,1.909,1.155,2.863C203.861,461.8,202.454,460.446,198.637,452.208ZM331.91,956.718c.251-.9.4-1.457.553-2.06,3.868-18.788,7.585-37.576,11.6-56.314,3.315-15.422,6.782-30.794,8.69-46.467,1.557-12.358,2.713-24.766,3.818-37.224.5-5.827.452-11.755.653-17.833a22.892,22.892,0,0,0-9.444,3.918,37.216,37.216,0,0,1-7.033,3.969c-10,4.019-20.5,5.978-31.2,6.983a122.939,122.939,0,0,1-38.58-2.662c-8.038-1.808-15.874-1.859-23.51,1.557a12.9,12.9,0,0,1-2.361.753,37.584,37.584,0,0,1-25.569-.8A102.64,102.64,0,0,1,191.6,794.208a45.23,45.23,0,0,0-13.614-7.937c-2.813-1-5.526-1.909-8.49-.352a7.607,7.607,0,0,1-2.411.452c-6.731.8-13.061-.8-19.24-3.366-1.256-.5-2.562-.9-4.17-1.457-.4,1.859-.754,3.315-1,4.822-1.959,10.1-2.311,20.345-2.16,30.593a414.5,414.5,0,0,0,6.681,64.9c1.909,10.8,4.622,21.4,9.143,31.447,1.256,2.763,2.16,5.677,4.873,7.586.854.6,1.306,1.909,1.808,2.964.553,1.156.854,2.462,1.407,3.617.6,1.256,1.557,2.361,2.009,3.617.4,1.055.1,2.311.5,3.366,1.155,3.064,2.562,6.078,3.818,9.093,2.311,5.476,6.279,8.942,12.257,10.047,1.256.251,2.512.6,3.768.854a314.712,314.712,0,0,0,57.82,5.777c7.987.1,16.025-.05,23.962-.6,13.965-1,27.88-2.461,41.846-3.617C317.543,955.462,324.575,955.261,331.91,956.718ZM149.1,717a30.192,30.192,0,0,0-1.306,3.215c-4.169,14.468-7.334,29.187-8.439,44.257-.3,4.471,1.557,7.736,5.024,10.248a34.094,34.094,0,0,0,11.906,5.174c4.722,1.156,9.444,1.708,14.267.3a12.269,12.269,0,0,1,5.877.151,42.335,42.335,0,0,1,17.281,8.389c7.586,6.279,16.075,11,24.967,15.121A35.116,35.116,0,0,0,234,807.37c5.224-.1,10.2-1.608,15.121-3.265a37.823,37.823,0,0,1,20.194-1.155c16.276,3.315,32.6,4.421,49.08,1.708,8.038-1.306,15.924-3.064,23.409-6.33,5.023-2.21,9.946-4.822,15.071-6.731a12.4,12.4,0,0,0,7.736-8.088,37.986,37.986,0,0,0,1.909-7.837c1.256-11.253-.7-22-4.973-32.4-2.512-6.179-5.576-12.258-6.581-18.939-.5-3.316-.553-6.681-.8-10.549-2.361,3.617-4.672,6.832-6.581,10.248a8.945,8.945,0,0,1-8.691,4.923c-3.617-.151-7.284-.5-10.851-1-12.559-1.859-24.866-4.923-37.174-8.088-16.728-4.27-33.557-8.289-50.285-12.358-3.818-.955-5.777-3.667-5.023-7.586a19.934,19.934,0,0,1,1.959-5.224c1.859-3.667,3.918-7.234,5.827-10.851a20.705,20.705,0,0,0,1-2.713c-3.969-.251-7.585-.452-11.152-.7-.653.854-1.256,1.608-1.758,2.361-1.808,2.813-3.316,5.878-6.882,6.932-.4.1-.753.553-1.055.9-4.421,5.024-10.147,8.389-15.975,11.454-11.453,6.028-23.761,9.595-36.32,12.056C164.175,715.54,156.891,716.042,149.1,717ZM372,655.006a3.058,3.058,0,0,1,.6-.251c-.151-2.763-.4-5.526-.352-8.289.1-5.827,2.311-8.942,6.531-10.449,1.708-2.512,2.813-4.772,4.521-6.38,1.105-1.055,2.662-1.708,3.818-2.914,1.909-1.959,3.717-1.457,4.823,1.156.151.4.251.8.553,1.708a22.2,22.2,0,0,0,1.708-2.663c3.918-8.038,7.937-16.025,11.6-24.163a170.907,170.907,0,0,0,6.229-16.477c.6-1.808.4-3.868.553-5.928-5.275-1.808-10.147-3.567-15.07-5.074-3.366-1.055-6.832-1.758-10.248-2.713-3.265-.9-6.581-1.758-9.8-2.863s-6.531-1.808-9.746-2.914a152.671,152.671,0,0,0-15.02-3.768q-14.392-3.316-28.885-6.531c-2.964-.653-5.928-1.407-8.942-2.009a3.687,3.687,0,0,0-4.421,2.009c-2.562,4.722-5.275,9.444-7.937,14.116-1.256,2.261-2.361,4.622-3.717,6.782-1.859,2.964-4.421,5.576-3.617,9.494a1.832,1.832,0,0,1-.1.7c-2.763,7.284-5.275,14.618-10.8,20.446a28.233,28.233,0,0,0-2.763,3.215c-2.863,4.32-4.069,11.7,2.21,15.975a15.657,15.657,0,0,1,3.366,2.562c3.114,4.069,7.535,4.923,12.157,5.375.8.1,1.608.251,2.462.4,13.714,2.06,27.328,5.174,41.293,4.571a6.506,6.506,0,0,1,2.411.3c1.808.6,2.411,2.16,1.105,3.567a11.307,11.307,0,0,1-4.32,2.813c-4.471,1.658-8.54,3.667-11.5,7.636a37.63,37.63,0,0,1-5.526,5.425c-1.758,1.557-3.918,2.663-5.475,4.37-4.923,5.275-10.851,8.64-17.582,11.353-11.052,4.471-22.3,6.43-34.16,5.023-6.731-.8-13.312.653-19.793.8-2.964,5.074-5.727,9.846-8.54,14.618a6.517,6.517,0,0,0-.7,1.608,5.684,5.684,0,0,0,3.667,7.435,48.078,48.078,0,0,0,5.425,1.557c11.554,2.713,23.158,5.275,34.712,8.088,15.422,3.717,30.744,7.937,46.417,10.549,3.265.553,6.48,1.206,9.746,1.557,2.411.251,4.873-.151,6.129-2.562,3.014-5.677,6.078-11.4,8.841-17.231,2.16-4.571,4.069-9.193,6.882-13.463,2.512-3.818,4.471-7.987,6.631-12.006a3.477,3.477,0,0,0,.452-1.708c-.452-4.069-.5-8.289-1.658-12.157-1.206-4.119-3.416-7.987-5.275-11.906-1.758-3.717-1.055-6.179,2.411-8.439,2.411-1.557,3.667-1.206,5.074,1.356C369.586,650.837,370.792,652.9,372,655.006ZM294.937,390.67c-1.256-.251-2.261-.452-3.215-.7a47.379,47.379,0,0,1,8.289-1.306,20.1,20.1,0,0,0,5.677-1.457c2.462-1.105,2.512-1.608,1.055-4.019-2.261-3.717-4.722-7.284-7.083-10.951-1.708-2.663-3.366-5.375-5.074-8.038a26.8,26.8,0,0,0-2.512-3.717c-2.863-3.114-6.129-2.662-7.837,1.206-2.612,5.978-7.284,9.444-13.463,10.8-7.535,1.708-15.171,1.457-22.807.8-3.969-.352-6.43-2.562-7.786-6.179-.6-1.608-1.206-3.215-1.708-4.622-2.462,0-4.571-.1-6.681.05a4.382,4.382,0,0,0-2.361,1.055c-1.808,1.457-3.466,3.014-5.576,4.923.3,1.105.7,2.662,1.055,4.22a35.264,35.264,0,0,1,1.105,5.476,3.082,3.082,0,0,1-2.964,3.315,4.569,4.569,0,0,1-4.923-2.562c-.653-1.758.1-2.914,1.608-3.818.352-.2.7-.553,1.055-.8-.4-1.306-.754-2.411-1.055-3.516-1-3.466-1.407-7.284-5.124-9.243-.2-.1-.2-.653-.352-.954-.9-1.758-1.808-3.567-2.813-5.275-.854-1.557-1.909-2.964-3.768-3.416-3.968,2.813-3.868,2.863-5.425,6.832-2.06,5.224-1.055,10.348-.3,15.623.854,5.978,3.818,10,9.243,12.257,2.813,1.155,4.622,2.713,4.873,6.129.2,2.713,2.512,3.567,4.973,2.311a14.877,14.877,0,0,0,1.607-1.206c.3.553.6.8.653,1.105a25.178,25.178,0,0,0,5.174,12.91c8.389,11.1,18.788,19.742,31.7,25.168,6.38,2.713,12.91,5.074,19.441,7.334,5.526,1.909,10.65.7,15.271-2.913,1.758-1.356,3.617-2.612,5.425-3.918a51.923,51.923,0,0,0,14.216-15.02c7.485-12.408,9.093-26.022,7.636-40.188-.2-1.809-.653-3.617-.954-5.174H303.276c1.959,2.964,3.667,5.375,5.174,7.837a15.246,15.246,0,0,1,1.859,4.119,2.5,2.5,0,0,1-1.356,2.914c-4.37,3.064-9.595,3.265-14.87,4.973C294.384,392.026,294.635,391.473,294.937,390.67Zm51.24,251.376c-.5-.251-.8-.5-1.105-.5a20.273,20.273,0,0,0-2.462-.151,166.721,166.721,0,0,1-26.022-1.306c-7.937-1-15.874-1.808-23.811-2.813a10.328,10.328,0,0,1-4.521-1.708c-2.662-1.909-5.074-4.169-7.585-6.279-4.019-3.416-5.425-7.736-4.772-12.91a18.492,18.492,0,0,1,5.576-10.75c5.325-5.526,8.439-12.408,11.805-19.089a7.915,7.915,0,0,0,.452-1.808c-.5-.2-.9-.4-1.306-.553s-.8-.3-1.055-.4c-.352.4-.553.552-.7.753-7.033,11.554-16.427,20.194-29.739,23.962a6.33,6.33,0,0,0-4.37,4.27c-1,2.763-2.009,5.526-2.914,8.289-.9,2.813-1.608,5.676-2.512,8.439-1.557,4.722-4.772,7.435-9.846,7.686-5.024.251-10.1.5-15.121.7-1.256.05-2.562,0-4.27,0a82.006,82.006,0,0,0,3.215,36.27c3.215.754,5.928,1.758,8.64,1.909,7.385.452,14.819.7,22.2.8,5.526.1,11.052,0,16.578-.2,5.275-.2,10.65-.1,15.774-1.206a173.411,173.411,0,0,0,19.843-6.028c2.21-.754,4.119-2.512,6.179-3.768a4.15,4.15,0,0,0-.352-.653c-4.471,1-8.892,1.959-13.363,2.964-5.727,1.306-11.5,2.461-17.431,2.21-1.306-.05-2.914.352-3.617-1.407,1.407-1.658,1.407-1.758,3.416-1.859,11.855-.552,23.158-3.918,34.612-6.43a20.057,20.057,0,0,0,10.8-6.882c-3.567-.151-5.626,2.411-8.389,3.215a84.3,84.3,0,0,1-8.439,2.361,59.079,59.079,0,0,1-8.439.653c-2.914.1-5.878.1-8.841,0-2.813-.1-5.777.553-8.54-.854.653-1.909,2.06-1.909,3.316-1.959,5.074-.251,10.1-.553,15.171-.7a41.641,41.641,0,0,0,15.472-3.064,47.078,47.078,0,0,1,11-3.617,15.369,15.369,0,0,0,3.165-1.256,3.247,3.247,0,0,0-.2-.653c-1.658.352-3.366.653-4.973,1.055a91.936,91.936,0,0,1-29.387,2.512,117.843,117.843,0,0,1-11.855-1.607c-1.105-.2-2.612-.151-3.114-2.06a20.249,20.249,0,0,1,8.49-.251c8.088.955,16.226.6,24.314,0,6.078-.5,12.157-1.256,18.235-1.808,2.663-.251,5.375-.3,8.038-.653A3.051,3.051,0,0,0,346.176,642.046ZM312.469,345.358c-1.859.2-3.516.251-5.124.553-3.366.6-6.681,1.306-10.047,2.009-1.206.251-2.311.4-2.964-1.608,2.713-1.206,5.275-2.512,7.987-3.516,2.813-1,5.777-1.658,8.691-2.512-.352-1.758-.653-3.265-.954-4.722-1.859-9.344-3.617-18.637-6.581-27.78-4.37-13.463-13.513-22-26.323-27.077a23.388,23.388,0,0,0-2.863-.8c.05,5.074.753,9.946.1,14.618-2.261,16.377-10.449,29.488-23.158,39.887a54.318,54.318,0,0,1-15.573,8.841c-1.909.7-3.818,1.708-3.868,4.019-.151,3.918-.05,7.887-.05,11.855h6.229c1.155-2.562,2.16-4.873,3.265-7.384-1.356-1.306-.9-3.115.3-4.722a7.789,7.789,0,0,1,3.114-2.763,34.7,34.7,0,0,1,7.786-1.959c8.188-.8,15.724,2.11,23.309,4.672.7.251,1.105,1.507,1.808,2.562,2.813-.151,5.777.6,7.284,3.818,2.21.1,4.17.2,6.129.3,1.658-3.265,4.923-3.416,7.887-3.818,4.672-.553,9.344-.8,14.066-1.206a3.844,3.844,0,0,0,1.055-.5A27.362,27.362,0,0,1,312.469,345.358Zm-93.588-91.88a24.377,24.377,0,0,0,7.485-7.887c3.918-6.179,3.516-10.951-1.155-17.231a10,10,0,0,0-13.262-2.462c-2.512,1.557-3.717,1.206-4.069-1.607a3.287,3.287,0,0,0-2.512-3.014,24.2,24.2,0,0,0-3.768-.9,70.149,70.149,0,0,0-18.637.151,20.638,20.638,0,0,0-11.1,5.024c-1.306,1.155-2.461,2.512-3.617,3.717-4.722-1.105-8.389.7-11.5,3.918a51.819,51.819,0,0,0-9.595,13.463,32.376,32.376,0,0,0-2.763,7.937,8.587,8.587,0,0,0,8.138,10.148,3.752,3.752,0,0,1,3.316,2.16c.5.9.954,2.11,1.708,2.461,2.662,1.306,5.526,2.261,9.092,3.717-1.306-3.416-2.311-5.978-3.315-8.54,2.361,2.713,4.22,5.626,4.37,9.545-3.818-.151-6.631-2.512-10.2-3.617,1.507,6.731,4.22,12.006,11,14.417,3.516-14.819,14.166-22.706,26.825-28.534a55.749,55.749,0,0,0-6.531-17.381c5.174,3.466,4.973,9.7,7.184,15.221,1.608-5.978.05-11.253-.6-16.578,2.512,5.677,4.17,11.4,2.21,17.884,1.859-.553,3.315-.954,4.973-1.457-.452-9.595-2.512-18.436-9.293-26.273,1.256.05,2.361-.2,2.914.2,1.758,1.306,3.868,2.562,4.823,4.37a38.678,38.678,0,0,1,3.667,10.2c.7,3.517.5,7.184.7,10.8,2.763.352,2.964.4,3.717-1.105,2.713-5.626,5.074-11.4,4.973-17.833-.05-1.507-.352-3.014-.553-4.521,5.526,8.892,1.306,16.276-3.918,23.711,1.758.4,3.316.8,4.973,1.206,3.968-7.786,4.672-15.472,1.407-24.113C223.151,238.156,221.594,245.691,218.881,253.478ZM275.345,442.11c-2.813-1.155-5.476-2.261-8.188-3.366-10.75-4.27-21.149-9.193-29.639-17.331-6.983-6.681-14.166-13.212-15.924-23.661-.8.3-1.407.553-2.21.9.553,1.105,1.055,2.009,1.457,2.914,1.206,2.863,2.009,5.777,1.155,8.892-.4,1.457-1.105,2.662-2.763,2.863a3.175,3.175,0,0,1-3.667-2.11,11.947,11.947,0,0,1-.5-5.476c.352-2.26,1.407-4.421,2.21-6.832-3.617-.2-4.722-2.361-4.823-5.626-.1-2.663-.3-2.663-3.366-2.914.7,2.713,1.758,5.375,2.009,8.138.7,6.681,1.105,13.363,1.557,20.044.151,2.462.251,4.923.2,7.384a4.8,4.8,0,0,0,2.411,4.371c7.736,5.174,15.774,9.9,24.816,12.358a180.619,180.619,0,0,0,18.637,3.918,69.82,69.82,0,0,0,11.253.552,20.1,20.1,0,0,0,4.27-.854C274.642,444.823,274.994,443.617,275.345,442.11Zm37.174-113.782c2.612-4.019,5.174-7.686,7.435-11.5a19.053,19.053,0,0,0,2.11-5.476c2.11-8.841-.1-16.879-5.576-23.862-10.7-13.664-24.866-21.2-42.047-23.008a44.5,44.5,0,0,0-15.724,1.457c1.909,1.959,3.416,3.617,6.229,3.115a3.351,3.351,0,0,1,2.763,1.256c2.16,3.215,5.275,3.868,8.791,3.868a14.172,14.172,0,0,1,3.466.7c18.085,4.923,30.091,15.774,33.959,34.662.854,4.169.753,8.188-1.256,11.956C311.414,323.706,311.564,325.716,312.519,328.328Zm-19.24,26.022c.753,1.708,1.155,2.713,1.608,3.717,1.256,2.964,1.658,6.179,3.567,8.992,1.608,2.361,3.617,3.567,6.078,3.517a157.961,157.961,0,0,0,17.582-.955c7.284-.9,10.449-4.772,10.65-12.107.1-2.863-.1-3.265-3.064-3.567-5.224-.6-10.549-.854-15.774-1.507a56.23,56.23,0,0,0-17.884.753A13.835,13.835,0,0,0,293.279,354.35Zm-12.257.1a9.623,9.623,0,0,0-1.507-.2c-7.284-.05-14.568-.2-21.9,0a106.208,106.208,0,0,0-11.906,1.206,3.714,3.714,0,0,0-2.361,1.708c-1.859,4.019-.452,10,4.421,11.253a18.743,18.743,0,0,0,5.124,1.105c5.727-.05,11.5-.1,17.231-.7C278.41,367.964,282.026,363.091,281.022,354.45Zm85.4,293.423c-4.019,1.155-5.325,3.316-3.717,5.827,4.22,6.48,7.786,13.111,8.088,21.1a6.888,6.888,0,0,0,.251,1.406,17.249,17.249,0,0,1-.3,9.042c-.452,1.809-1.105,3.366-3.316,3.617a1.866,1.866,0,0,0-1.306.9c-1.055,1.658-2.009,3.366-3.215,5.476,1.758,0,3.014-.1,4.27,0,2.964.251,5.074-1.055,7.184-3.064,2.461-2.361,3.617-5.425,5.275-8.289a8.424,8.424,0,0,0,.854-6.129c-.5-2.562-.9-5.074-1.206-7.686a12.667,12.667,0,0,0-2.964-6.631c-2.713-3.416-5.174-6.983-7.535-10.6A28.264,28.264,0,0,1,366.421,647.873ZM382.5,678.617c2.763-3.517,4.722-6.48,3.918-10.4-.6-2.964-1-6.078-2.16-8.841a72.2,72.2,0,0,1-4.973-18.235c-.151-.954-.452-1.909-.955-3.818-1.155,1.758-2.21,2.713-2.361,3.768a42.378,42.378,0,0,0-.6,8.339c.1,2.914.854,5.827,1,8.741a6.4,6.4,0,0,0,1.708,4.421,11.631,11.631,0,0,1,2.964,6.631C381.391,672.036,381.893,674.9,382.5,678.617ZM173.318,283.669c3.567-3.215,6.932-6.631,10.65-9.645,6.581-5.375,13.614-10.047,21.8-12.609,2.914-.9,5.827-1.758,8.942-.753.6.2,1.356-.251,2.06-.4v-.8c-1.055-.251-2.06-.553-3.115-.753-.653-.151-1.306-.151-1.959-.3-1.306-.3-2.662-1-3.968-.955a30.943,30.943,0,0,0-12.86,3.014,46.824,46.824,0,0,0-13.162,9.344A29.994,29.994,0,0,0,173.318,283.669ZM385.611,630.442h-1.155c-.6.955-1.608,1.808-1.758,2.813-.5,3.466-1.306,7.033-.954,10.449.553,5.325,1.457,10.7,4.22,15.523a29.611,29.611,0,0,1,1.055,2.964c.251.7.553,1.356.854,2.009.251-.05.5-.05.753-.1.2-2.662.8-5.375.6-7.987-.553-7.384-1.407-14.719-2.311-22.053A14.374,14.374,0,0,0,385.611,630.442ZM272.783,349.125c-3.064-1.457-6.028-3.064-9.444-3.115-4.923-.05-9.8-.1-14.719.251-2.713.2-5.074,1.557-5.526,4.521C253.091,350.231,262.937,349.678,272.783,349.125Zm116.746,278.3c-1.457.553-2.11,1.155-1.808,2.713.6,3.215.954,6.43,1.407,9.7.251,2.11.452,4.169.753,6.279.251,1.959.6,3.918,1,6.38C392.945,647.722,391.991,632.451,389.529,627.427ZM219.283,411.668c1.658-3.667.452-6.681-.653-10.047C216.018,406.745,216.118,409.508,219.283,411.668Zm1-48.728c-.05-.151-.151-.3-.2-.452-.6.151-1.206.3-1.758.452l.3.9C219.183,363.593,219.735,363.241,220.288,362.94Zm.954,12.81c-1.105,2.06-.753,2.662,1.105,2.863C222,377.709,221.745,377.056,221.242,375.75Z" transform="translate(-109.57 -215.5)" fill="#311d48"/>
        <path id="Trazado_920806" data-name="Trazado 920806" d="M194.527,283.381c3.818,8.188,5.224,9.595,8.992,8.59-.4-.955-.7-1.959-1.155-2.863a52.332,52.332,0,0,1-5.074-20.747,41.9,41.9,0,0,1,.553-7.033,4.254,4.254,0,0,1,3.215-3.868c1.608,2.964,3.115,5.777,4.672,8.59.151.251.352.6.553.6,3.968.6,6.882,3.416,10.348,4.973,7.987,3.667,15.573,8.49,24.665,9.093,7.887.5,15.724.854,23.61,1.206,3.265.151,6.129-1.356,8.992-2.813l.6-4.069c4.973.653,6.882,3.215,5.877,7.686a7.981,7.981,0,0,1-.352,1,19.871,19.871,0,0,0-1.557,9.243c.2,2.361-.7,4.772-1.055,6.932,2.512-1.909,3.818-3.969,4.722-7.937,2.612,1.306,5.727,2.009,7.636,3.969,2.512,2.612,5.023,4.571,8.54,5.425.653.151,1.206,1.055,1.608,1.758a12.606,12.606,0,0,0,6.33,5.425c4.873,2.01,9.8,3.918,14.719,5.878,6.681,2.663,13.262,5.526,18.687,10.4a20.612,20.612,0,0,1,6.079,8.892,7.512,7.512,0,0,0,2.813,3.818c5.124,3.165,6.531,8.038,6.782,13.563.2,4.823.1,9.645.653,14.418,1.055,9.444,4.471,18.235,7.987,26.976.151.452.352.854.7,1.658-1-.151-1.758-.251-2.512-.4-7.535-1.808-15.071-3.768-22.656-5.325-3.115-.653-4.27-2.662-4.973-5.124a57.411,57.411,0,0,0-9.394-19.19c-.3-.352-.553-.754-.8-1.055.553-1.608,1.507-3.165,1.407-4.622-.05-1.306-1.306-2.612-2.311-4.421a17.39,17.39,0,0,0-.753-9.746,10.318,10.318,0,0,0-1.557-2.713c-1.206-1.356-2.009-1.105-3.215.653.9,1.356,2.21,2.512,2.462,3.918a12.269,12.269,0,0,1-.352,5.878c-1.206,3.768-1.407,3.717,2.21,5.827.3.2.553.452,1.055.8-.753.753-1.356,1.406-1.959,2.11-1.608,1.809-1.859,2.914-.352,4.672,3.617,4.169,5.626,9.193,7.937,14.066.954,2.11,2.16,4.119,3.466,6.581-1.306-.352-2.261-.552-3.215-.854-5.325-1.507-10.449-3.667-16.075-3.818-10.449-.3-11.2,0-16.778,9.545-3.617,6.129-5.877,13.061-8.791,19.592a10.94,10.94,0,0,1-2.009,3.165c-3.818,4.169-7.686,8.289-11.554,12.358a38.059,38.059,0,0,1-16.577,9.7c-4.571,1.457-7.686,4.069-9.093,8.54-1.356,4.22-2.411,8.59-3.567,12.911-.352,1.256-.6,2.512-1,3.717a6.345,6.345,0,0,1-6.028,4.571c-4.32.251-8.691.5-13.011.7-1.507.05-2.964.251-4.169-1.206-.4-.452-1.658-.352-2.512-.3-1.206.1-2.461.653-3.617.553-11.906-1-23.711-.553-35.365,2.361-.553.151-1.155.2-1.959.352-.05-1-.2-1.909-.2-2.763a41.458,41.458,0,0,0-4.17-19.491l-3.165-7.083a16,16,0,0,1-.8-10.7c.553-2.06.8-4.119-.3-6.179a4.6,4.6,0,0,1-.251-2.361c.452-7.284.7-14.568-.3-21.852a6.694,6.694,0,0,1,.5-3.416,22.232,22.232,0,0,0,.854-13.865c-1.256-5.727-2.612-11.454-3.918-17.18-.251-1-.4-2.06-.653-3.315,1.155-.251,1.607-2.462,3.265-.754,3.466-6.832,4.672-14.819,2.562-17.482-1.407.251-1.206,1.457-1.457,2.411-.753,3.215-1.507,6.38-2.411,9.545a19.5,19.5,0,0,1-2.11,3.667,24.665,24.665,0,0,0-1.607-4.571c-.553-.854-1.758-1.909-2.612-1.859-1.608.151-1.758,1.658-1.457,3.014,1.407,7.284,2.813,14.518,4.27,21.752.452,2.21,1.155,4.32,1.507,6.531a18.565,18.565,0,0,1-.854,10.047,17.052,17.052,0,0,0-.854,6.179c0,3.064.4,6.079.553,9.143.1,1.608.3,3.215-1.055,4.622-.5.5-.452,1.859-.2,2.663a49.186,49.186,0,0,0,2.512,7.234c.7,1.507,1.055,2.662.251,4.27-2.512,5.074-2.261,10.248-.2,15.372,1.105,2.713,2.261,5.425,3.366,8.138a40.06,40.06,0,0,1,2.914,19.994c-4.622,2.311-9.143,4.521-13.614,6.832-2.21,1.155-4.32,2.411-6.43,3.667a9.458,9.458,0,0,0-1.959,1.457c-.954.955-1.758,2.06-.854,3.416.8,1.256,2.11.954,3.165.452,4.923-2.411,10.449-3.717,14.468-7.837a9.37,9.37,0,0,1,4.019-2.11,149.2,149.2,0,0,1,14.618-4.571A105.383,105.383,0,0,1,199.8,469.05c4.923-.3,9.846-.05,14.819-.05-.5,3.316-1.206,6.631-1.457,9.947-.955,12.508,1.256,24.364,7.736,35.215a4.6,4.6,0,0,0,1.155,1.256c.452.352.954.6,1.507.954-10.2,5.425-19.139,12.659-29.99,16.628-12.157,4.471-24.515,8.238-37.475,9.645a61.393,61.393,0,0,1-21.4-1c-5.727-1.407-9.946-4.421-12.056-10.248-1.256-3.416-3.165-6.531-4.521-9.9a11.167,11.167,0,0,1-.7-4.822,54.186,54.186,0,0,0-4.772-26.826,22.61,22.61,0,0,1-1.909-12.056,191.173,191.173,0,0,0,.3-30.342,178.784,178.784,0,0,1,.151-20.094c1-18.085,2.21-36.169,3.416-54.254.352-5.274.9-10.549,1.407-15.824a10.321,10.321,0,0,1,.5-2.411c2.361-7.133,4.923-14.216,7.133-21.4a12.8,12.8,0,0,1,4.923-7.083c8.59-6.028,17.08-12.107,25.77-17.934,11.906-8.038,23.912-15.824,35.868-23.761a12.056,12.056,0,0,1,1.457-.954A5.716,5.716,0,0,0,194.527,283.381Z" transform="translate(-105.461 -46.674)" fill="#f9e381"/>
        <path id="Trazado_920807" data-name="Trazado 920807" d="M307.069,503.31c-7.284-1.457-14.367-1.256-21.4-.653-13.965,1.155-27.88,2.612-41.846,3.617-7.987.552-15.975.7-23.962.6a310.408,310.408,0,0,1-57.82-5.777c-1.256-.251-2.512-.653-3.768-.854-5.928-1.055-9.9-4.571-12.257-10.047-1.306-3.014-2.662-6.028-3.818-9.092-.4-1.055-.1-2.311-.5-3.366-.5-1.256-1.407-2.361-2.009-3.617-.553-1.156-.854-2.461-1.407-3.617-.5-1.055-.954-2.361-1.808-2.964-2.713-1.859-3.617-4.823-4.873-7.586-4.521-10.047-7.234-20.646-9.143-31.447a413.247,413.247,0,0,1-6.681-64.9c-.151-10.248.2-20.5,2.16-30.593.3-1.507.653-2.964,1-4.823,1.557.553,2.914.9,4.17,1.457,6.179,2.562,12.458,4.22,19.24,3.366a7.612,7.612,0,0,0,2.411-.452c2.914-1.557,5.677-.653,8.49.352a44.21,44.21,0,0,1,13.614,7.937,103.932,103.932,0,0,0,27.931,16.326,37.3,37.3,0,0,0,25.57.8c.8-.251,1.608-.452,2.361-.753,7.636-3.416,15.472-3.366,23.51-1.557a122.947,122.947,0,0,0,38.58,2.662c10.7-1,21.2-2.914,31.2-6.983a44.225,44.225,0,0,0,7.033-3.969,22.889,22.889,0,0,1,9.444-3.918c-.2,6.129-.151,12.006-.653,17.833-1.105,12.408-2.261,24.816-3.818,37.224-1.959,15.673-5.375,31.045-8.691,46.467-4.069,18.738-7.736,37.526-11.6,56.313A10.443,10.443,0,0,0,307.069,503.31Zm-59.981-92.734a11.793,11.793,0,0,0,4.22-6.38,22.383,22.383,0,0,0,2.512-4.019c.553-1.457,1.758-3.215.3-4.571-1.608-1.457-3.366-.3-4.873.553-3.366,1.909-6.581,4.069-9.9,6.078-5.425,3.316-10.8,6.631-16.226,9.9-1.457.854-3.014,1.758-5.074,1.457-.6-2.914,1-5.526,1.055-8.289a31.515,31.515,0,0,0-2.763,5.325c-.553,1.507-1.055,3.265.352,4.672,1.457,1.457,3.114.6,4.622,0a44.474,44.474,0,0,0,4.37-2.21c2.21-1.306,4.421-2.713,6.531-4.169,5.325-3.617,10.65-7.334,16.025-10.951,1.507-1,3.064-2.16,5.124-1.959.754,1.658.151,3.064-.452,4.471-.5,1.306-1,2.612-1.507,3.868-1.407,2.11-2.813,4.27-4.22,6.38a2.046,2.046,0,0,0-1.457,2.562C246.134,412.334,246.637,411.48,247.089,410.576Zm-35.817,88.162c1.105,2.562,1.658,3.115,3.516,2.964a9.469,9.469,0,0,0,3.717-.955,74.929,74.929,0,0,0,9.193-5.827,162.008,162.008,0,0,0,26.323-26.474c15.472-19.34,27.127-40.64,33.055-64.853.7-2.964,1.306-5.978,1.808-8.992a8.467,8.467,0,0,0-.3-2.461c-.3-.1-.553-.151-.854-.251a48.143,48.143,0,0,0-3.265,3.918c-8.841,13.212-19.642,24.615-31.648,34.964-9.846,8.44-19.943,16.527-31.3,22.857a42.62,42.62,0,0,1-8.439,3.466c-2.713.8-3.818-.653-2.763-3.265a50.3,50.3,0,0,1,2.663-5.174,17.1,17.1,0,0,0-3.969,5.928c-.954,2.462.251,4.22,2.914,4.27A13.034,13.034,0,0,0,217.1,458a67.157,67.157,0,0,0,8.59-4.069c9.444-5.375,17.934-12.056,26.223-19.089,12.408-10.6,23.661-22.2,32.5-36.069a18,18,0,0,1,1.356-1.658c.151.452.3.7.251.9a6.739,6.739,0,0,1-.352,1.356,210.962,210.962,0,0,1-50.587,82.988c-5.174,5.275-10.549,10.449-16.778,14.518C216.144,498.286,214.034,499.643,211.271,498.738Zm15.673-64.954-.6-.452c-1.859,1.959-3.768,3.918-5.928,6.229C222.825,437.451,224.885,435.593,226.945,433.784Zm12.81-13.764-.452-.452c-1.055,1.206-2.16,2.361-3.215,3.567.151.151.3.251.452.4C237.594,422.381,238.7,421.225,239.754,420.02Zm4.32-5.124c-.2-.1-.4-.251-.6-.352l-1.808,2.562c.151.1.251.2.4.3C242.718,416.554,243.422,415.7,244.075,414.9Zm-28.232,30.392c-.1-.1-.251-.2-.352-.3-.452.552-.954,1.155-1.407,1.708.1.1.251.2.352.3C214.888,446.444,215.34,445.891,215.843,445.288Z" transform="translate(-84.729 237.909)" fill="#675f52"/>
        <path id="Trazado_920808" data-name="Trazado 920808" d="M125.2,344.581c7.786-.954,15.07-1.457,22.2-2.813,12.609-2.411,24.916-6.028,36.32-12.056,5.827-3.064,11.5-6.43,15.975-11.454a2.99,2.99,0,0,1,1.055-.9c3.567-1.055,5.074-4.119,6.882-6.932.5-.8,1.105-1.507,1.758-2.361,3.617.251,7.234.452,11.152.7a26.522,26.522,0,0,1-1,2.713c-1.909,3.617-3.968,7.183-5.827,10.851a21.884,21.884,0,0,0-1.959,5.225c-.8,3.918,1.155,6.631,5.023,7.585,16.778,4.119,33.607,8.088,50.285,12.358,12.307,3.165,24.615,6.229,37.174,8.088a99.006,99.006,0,0,0,10.851,1,8.945,8.945,0,0,0,8.691-4.923c1.909-3.416,4.22-6.631,6.581-10.248.3,3.868.352,7.234.8,10.549,1,6.681,4.019,12.76,6.581,18.939,4.27,10.449,6.229,21.2,4.973,32.4a38.784,38.784,0,0,1-1.909,7.837,12.509,12.509,0,0,1-7.736,8.088c-5.124,1.959-10.047,4.521-15.07,6.731-7.485,3.265-15.422,5.024-23.409,6.33-16.477,2.713-32.8,1.608-49.08-1.708a37.851,37.851,0,0,0-20.194,1.156C220.393,433.4,215.47,434.9,210.2,435a34.958,34.958,0,0,1-15.322-3.517c-8.892-4.119-17.381-8.841-24.967-15.121a42.342,42.342,0,0,0-17.281-8.389,12.272,12.272,0,0,0-5.877-.151c-4.873,1.356-9.545.854-14.267-.3a34.927,34.927,0,0,1-11.906-5.174c-3.466-2.512-5.375-5.777-5.024-10.248,1.105-15.07,4.27-29.789,8.439-44.257A17.258,17.258,0,0,1,125.2,344.581Z" transform="translate(-85.663 156.916)" fill="#f9e381"/>
        <path id="Trazado_920809" data-name="Trazado 920809" d="M268.619,383.6c-1.206-2.11-2.411-4.169-3.567-6.279-1.407-2.562-2.663-2.913-5.074-1.356-3.466,2.26-4.17,4.672-2.411,8.439,1.859,3.918,4.069,7.786,5.275,11.906,1.155,3.868,1.206,8.088,1.658,12.157a3.014,3.014,0,0,1-.452,1.708c-2.16,4.019-4.119,8.188-6.631,12.006-2.813,4.27-4.722,8.891-6.882,13.463-2.763,5.827-5.777,11.554-8.841,17.231-1.306,2.411-3.717,2.813-6.129,2.562-3.265-.352-6.48-1-9.746-1.557-15.673-2.612-30.995-6.832-46.417-10.549-11.554-2.763-23.108-5.375-34.712-8.088-1.808-.452-3.617-1-5.425-1.557a5.685,5.685,0,0,1-3.667-7.435,15.521,15.521,0,0,1,.7-1.608c2.763-4.772,5.576-9.545,8.54-14.618,6.48-.151,13.061-1.607,19.793-.8,11.805,1.407,23.058-.553,34.16-5.024,6.681-2.713,12.659-6.078,17.582-11.353,1.557-1.708,3.717-2.813,5.476-4.37a37.659,37.659,0,0,0,5.526-5.425c2.964-3.969,7.033-6.028,11.5-7.636a11.7,11.7,0,0,0,4.32-2.813c1.306-1.407.653-2.964-1.105-3.567a6.5,6.5,0,0,0-2.411-.3c-14.016.553-27.579-2.512-41.293-4.571-.8-.1-1.608-.3-2.462-.4-4.622-.452-9.042-1.256-12.157-5.375a14.521,14.521,0,0,0-3.366-2.562c-6.279-4.27-5.124-11.655-2.21-15.975a20.8,20.8,0,0,1,2.763-3.215c5.526-5.827,8.038-13.161,10.8-20.446a1.106,1.106,0,0,0,.1-.7c-.8-3.918,1.758-6.531,3.617-9.494,1.356-2.21,2.462-4.521,3.717-6.782,2.612-4.722,5.325-9.394,7.937-14.116a3.687,3.687,0,0,1,4.421-2.009c3.014.6,5.978,1.356,8.942,2.009,9.645,2.16,19.24,4.32,28.885,6.53a152.768,152.768,0,0,1,15.02,3.768c3.215,1.105,6.531,1.808,9.746,2.914s6.531,1.959,9.8,2.863c3.416.955,6.882,1.658,10.248,2.713,4.923,1.557,9.8,3.265,15.071,5.074-.151,2.009.05,4.119-.553,5.928-1.909,5.576-3.818,11.1-6.229,16.477-3.667,8.138-7.686,16.125-11.6,24.163a31.1,31.1,0,0,1-1.708,2.662,17.4,17.4,0,0,0-.553-1.708c-1.105-2.612-2.914-3.115-4.823-1.156-1.155,1.206-2.713,1.859-3.818,2.914-1.708,1.608-2.813,3.918-4.521,6.38-4.22,1.507-6.43,4.622-6.53,10.449-.05,2.763.251,5.526.352,8.289A2.551,2.551,0,0,0,268.619,383.6Z" transform="translate(-6.192 55.907)" fill="#fcfaf6"/>
        <path id="Trazado_920810" data-name="Trazado 920810" d="M168.447,239.462c-.3-.954-1-1.105-1.859-1.155a25.978,25.978,0,0,0-18.034,5.777,64.309,64.309,0,0,0-17.532,21c-2.16,4.019-3.969,8.239-5.827,12.056l-3.215-6.43c.251-1.758.553-3.667.8-5.626a21.769,21.769,0,0,1,5.626-11.956c8.239-9.444,18.034-16.829,30.04-20.948a13.24,13.24,0,0,1,5.174-.9c2.813.251,4.521-.753,5.576-3.265a5.759,5.759,0,0,1,.8-.9c.6.151,1.256.3,1.859.452.151-.151.5-.4.452-.452-.5-1.306-.1-2.11,1.256-2.311a29.831,29.831,0,0,1,5.928-.7c5.275.251,10.549.7,15.824,1.306,3.165.352,6.229,1.206,7.736,4.722a4.161,4.161,0,0,0,2.562,1.557,10.263,10.263,0,0,1,5.224,3.215c-.2,1.055-.352,2.009-.6,3.316,2.21-.553,4.22-2.612,5.928-.05.452.7.352,1.708.553,2.914,1.959.151,2.612,2.06,3.165,4.019a34.976,34.976,0,0,1-.151,18.486c-5.827,20.345-18.386,34.612-38.38,42a37.383,37.383,0,0,1-14.92,2.21c.553-.452.8-.8,1.055-.8,13.111-1.808,22.4-9.193,28.935-20.295a59.062,59.062,0,0,0,8.088-33.457,23.007,23.007,0,0,0-3.265-10.5c-.452,2.16-.854,3.918-1.155,5.626-1.105,6.832-4.019,13.011-7.083,19.089-6.882,13.664-16.829,24.314-30.643,31.1a52.149,52.149,0,0,1-6.129,2.16c-.2-.3-.352-.553-.553-.854a29.3,29.3,0,0,1,2.813-2.763c4.27-3.165,8.691-6.078,12.81-9.394a93.4,93.4,0,0,0,9.545-8.841,11.391,11.391,0,0,0,3.215-9.746,6.141,6.141,0,0,0-1.306-2.713c.1,7.686-4.27,12.81-9.545,17.231-5.224,4.37-10.7,8.439-16.025,12.71a11.683,11.683,0,0,0-2.562,2.411c-.553.8-1.105,2.16-.8,2.763a3.594,3.594,0,0,0,2.763,1.658,19.245,19.245,0,0,0,5.877-.7c8.239-2.462,14.87-7.435,20.8-13.463,7.636-7.786,12.609-17.231,16.276-27.378.3-.754.553-1.557.8-2.311a.5.5,0,0,1,.251-.2c.7,3.717-1.105,12.358-4.169,19.692-.251-.753-.5-1.407-.9-2.512a52.911,52.911,0,0,1-1.608,5.978c-1.105,2.813-2.06,5.827-3.818,8.238-6.028,8.44-14.066,13.915-24.515,15.824-2.512.452-4.873,1.155-7.485.452,5.526,5.023,12.308,4.823,19.391,4.32-.954,4.722.151,9.494-2.16,13.915-2.461.2-4.923.352-7.334.653a2.866,2.866,0,0,1-2.914-1.608c-.954-1.507-1.758-3.064-2.713-4.571-2.662-4.169-5.626-4.672-9.293-1.407-3.567,3.165-4.672,7.485-5.124,12.056-.151,1.758-.05,3.517-.05,5.727-1.859-1.356-3.617-2.16-3.466-4.421a9.481,9.481,0,0,0-2.512-6.43c-3.969-4.973-7.987-9.846-12.056-14.769-.3-.352-.6-.7-.954-1.055-6.681-6.38-7.736-14.116-5.174-22.556a98.363,98.363,0,0,1,16.025-31.2,50.755,50.755,0,0,1,11.6-11.805c4.571-3.115,9.545-5.023,15.221-4.672a4.7,4.7,0,0,1,1.859.5c1.809.151,3.617.3,5.375.5-.151.8.352,1.859-1.055,2.21a15.879,15.879,0,0,0-3.617,1.407c-13.362,6.882-22.505,17.833-29.639,30.744a7.138,7.138,0,0,0-.352,2.11,5.01,5.01,0,0,0,.7.4c1.708-1.809,3.466-3.617,5.174-5.425,5.827-3.768,11.7-7.535,17.582-11.3-.6.2-1.206.352-1.808.6a57.476,57.476,0,0,0-14.568,9.042,8.1,8.1,0,0,0-1.256,1.607l-2.713.9c8.892-13.312,18.386-24.665,33.055-30.643-.653-.7-1.105-1.206-1.557-1.708C172.014,240.015,170.356,238.206,168.447,239.462Zm8.188,33.808c-.352-.1-.5-.2-.553-.151-.653.5-1.256,1-1.859,1.557-5.777,5.023-11.906,9.494-19.089,12.458-2.16.9-4.37,1.959-6.932.251.251,2.311,1.808,2.763,3.115,2.562a23.912,23.912,0,0,0,7.083-1.658c6.882-3.265,12.408-8.339,17.532-13.915C176.183,274.024,176.334,273.672,176.636,273.27Zm-31.7,12.509c-1.959-4.22-1.808-5.224.653-8.239a10.687,10.687,0,0,1,1.507-1.507c4.27-3.466,8.59-6.932,12.86-10.4.8-.653,1.507-1.407,2.261-2.11a105.1,105.1,0,0,0-13.162,9.042,32.766,32.766,0,0,0-5.978,6.38C141.371,281.409,141.873,282.916,144.937,285.779Zm11.755-11.554c-.151-.251-.251-.553-.4-.8-3.366,1.658-6.731,3.265-10.047,4.923l.452.9C150.011,277.591,153.327,275.883,156.692,274.225Z" transform="translate(-59.638 -180.989)" fill="#936037"/>
        <path id="Trazado_920811" data-name="Trazado 920811" d="M221.843,281.351c-.352.8-.6,1.356-1.055,2.411,5.325-1.708,10.549-1.909,14.87-4.973,1.155-.8,1.708-1.758,1.356-2.914a21.6,21.6,0,0,0-1.859-4.119c-1.507-2.461-3.215-4.873-5.174-7.837h17.934c.3,1.557.753,3.315.954,5.174,1.457,14.166-.151,27.78-7.636,40.188a51.924,51.924,0,0,1-14.216,15.02c-1.808,1.306-3.667,2.512-5.425,3.918-4.622,3.617-9.746,4.823-15.271,2.914-6.531-2.261-13.061-4.622-19.441-7.334-12.86-5.425-23.259-14.066-31.7-25.168a25.352,25.352,0,0,1-5.174-12.91c-.05-.3-.352-.553-.653-1.105a14.866,14.866,0,0,1-1.608,1.206c-2.512,1.256-4.823.452-4.973-2.311-.2-3.416-2.06-4.923-4.873-6.129-5.425-2.261-8.389-6.279-9.243-12.257-.754-5.275-1.758-10.4.3-15.623,1.608-3.969,1.457-4.019,5.425-6.832,1.859.4,2.914,1.859,3.768,3.416,1,1.708,1.859,3.516,2.813,5.275.151.3.1.854.352.955,3.717,1.959,4.119,5.777,5.124,9.243.3,1.105.7,2.21,1.055,3.516a5.33,5.33,0,0,1-1.055.8c-1.457.9-2.261,2.06-1.608,3.818a4.507,4.507,0,0,0,4.923,2.562,3.11,3.11,0,0,0,2.964-3.316,29.389,29.389,0,0,0-1.105-5.475c-.352-1.557-.8-3.115-1.055-4.22,2.11-1.909,3.818-3.466,5.576-4.923a4.382,4.382,0,0,1,2.361-1.055c2.11-.151,4.22-.05,6.681-.05.5,1.407,1.105,3.014,1.708,4.622,1.356,3.617,3.818,5.827,7.786,6.179,7.636.653,15.271.9,22.807-.8,6.179-1.407,10.851-4.823,13.463-10.8,1.708-3.818,4.973-4.32,7.837-1.206a26.788,26.788,0,0,1,2.512,3.717c1.708,2.662,3.366,5.375,5.074,8.038,2.361,3.667,4.823,7.234,7.083,10.951,1.507,2.411,1.407,2.914-1.055,4.019a20.092,20.092,0,0,1-5.677,1.457,48.912,48.912,0,0,0-8.289,1.306A29.139,29.139,0,0,1,221.843,281.351Zm-34.562,16.276c4.571-.3,7.535.854,9.545,4.32,1.507,2.663,4.22,4.069,7.133,4.873a43.163,43.163,0,0,0,16.427,1.055,19.554,19.554,0,0,0,11.7-5.978c1.206-1.206,2.21-2.663,1.306-4.371a21.044,21.044,0,0,0-3.115-4.672,6.782,6.782,0,0,0-7.435-1.608,6.318,6.318,0,0,1-7.133-1.055c-2.06-1.658-3.818-1.557-6.129-.452-4.672,2.21-9.494,4.17-14.267,6.129a4.255,4.255,0,0,1-2.713.3c-.6-.2-.954-1.256-1.407-1.959C190.094,295.116,189.089,296.07,187.281,297.627Zm-41.594-34.411c-4.672-.151-5.425-.754-6.48-4.823-.151-.553-.3-1.155-.4-1.708-.452-2.562-2.21-4.37-3.868-6.179-1.105-1.206-2.21-1-3.265.3a3.326,3.326,0,0,0-.954,1.859c-.2,4.772-.3,9.595-.352,14.367,0,.4.7,1.055,1.055,1.105a1.653,1.653,0,0,0,1.155-1c.3-1.256.3-2.562.553-3.818.553-2.612,1.256-5.174,3.969-6.782.352,1.105.6,2.009.854,2.914.3,1,.553,2.009.8,2.964-2.914,3.115-3.466,5.476-1.758,8.188.7,1.105,1.407,2.612,3.416,1.206-.6-1.155-1.256-2.26-1.758-3.416-1.206-2.713-.05-4.32,2.863-3.918C142.823,264.522,144.23,264.824,145.686,263.216Zm70.128,14.016c1.758,2.009,3.667,1.457,5.325,1.356.553-.05,1.105-.854,1.608-1.306-.5-.4-.954-1.055-1.457-1.155A7.438,7.438,0,0,0,215.814,277.232Zm-2.01,2.21c-3.918-3.617-2.863-4.019-.9-7.033-2.562,1.105-3.567,2.512-3.064,4.521C210.289,278.689,211.243,279.844,213.8,279.442Zm2.964,35.516c2.009-.653,4.119.9,6.48-.552C220.737,313,218.728,313.552,216.769,314.958Z" transform="translate(-36.476 -106.182)" fill="#efb36b"/>
        <path id="Trazado_920812" data-name="Trazado 920812" d="M256.924,347.083a3.025,3.025,0,0,1-2.914,2.863c-2.663.352-5.325.4-8.038.653-6.078.6-12.157,1.356-18.235,1.808-8.088.653-16.176,1-24.314,0a20.27,20.27,0,0,0-8.49.251c.553,1.909,2.009,1.859,3.115,2.06,3.969.653,7.887,1.356,11.855,1.608a91.932,91.932,0,0,0,29.388-2.512c1.658-.452,3.315-.7,4.973-1.055a3.257,3.257,0,0,0,.2.653,20.7,20.7,0,0,1-3.165,1.256,47.077,47.077,0,0,0-11,3.617,41.642,41.642,0,0,1-15.472,3.064c-5.074.151-10.1.452-15.171.7-1.256.05-2.612.05-3.316,1.959,2.763,1.407,5.727.7,8.54.854,2.914.151,5.877.1,8.841,0a59.1,59.1,0,0,0,8.439-.653,84.375,84.375,0,0,0,8.439-2.361c2.763-.8,4.823-3.416,8.389-3.215a20.058,20.058,0,0,1-10.8,6.882c-11.454,2.562-22.756,5.928-34.612,6.43-2.009.1-2.009.2-3.416,1.859.7,1.758,2.311,1.306,3.617,1.407,5.928.251,11.7-.9,17.432-2.21,4.421-1,8.892-2.009,13.362-2.964a4.147,4.147,0,0,0,.352.653c-2.06,1.306-3.918,3.014-6.179,3.768a173.424,173.424,0,0,1-19.843,6.028c-5.124,1.105-10.5,1-15.774,1.206-5.526.2-11.052.3-16.578.2-7.384-.151-14.819-.352-22.2-.8-2.763-.151-5.425-1.155-8.64-1.909a81.939,81.939,0,0,1-3.215-36.27c1.708,0,3.014.05,4.27,0,5.023-.2,10.1-.5,15.121-.7,5.074-.251,8.289-2.914,9.846-7.686.9-2.763,1.608-5.677,2.512-8.44.9-2.813,1.909-5.576,2.914-8.289a6.523,6.523,0,0,1,4.37-4.27c13.312-3.818,22.706-12.408,29.739-23.962a3.986,3.986,0,0,1,.7-.753c.3.1.7.251,1.055.4.4.151.8.352,1.306.553a7.909,7.909,0,0,1-.452,1.808c-3.366,6.731-6.531,13.614-11.805,19.089a18.63,18.63,0,0,0-5.576,10.75c-.653,5.224.754,9.545,4.772,12.91,2.512,2.11,4.923,4.37,7.585,6.279a10.328,10.328,0,0,0,4.521,1.708c7.937,1.055,15.874,1.808,23.811,2.813a161.055,161.055,0,0,0,26.022,1.306,20.212,20.212,0,0,1,2.462.151A2.864,2.864,0,0,1,256.924,347.083Z" transform="translate(-20.317 79.463)" fill="#efb36b"/>
        <path id="Trazado_920813" data-name="Trazado 920813" d="M214.684,293.736c.6,1.155,1,1.959,1.457,2.813-.452.251-.754.5-1.055.5-4.672.4-9.394.653-14.066,1.206-2.964.352-6.229.5-7.887,3.818-1.959-.1-3.918-.2-6.129-.3-1.507-3.215-4.471-3.918-7.284-3.818-.7-1.055-1.105-2.361-1.808-2.562-7.535-2.562-15.121-5.475-23.309-4.672a30.03,30.03,0,0,0-7.786,1.959,8.13,8.13,0,0,0-3.115,2.763c-1.206,1.607-1.658,3.416-.3,4.722-1.105,2.512-2.11,4.823-3.265,7.385h-6.229c0-3.918-.1-7.887.05-11.855.1-2.311,1.959-3.316,3.868-4.019a54.318,54.318,0,0,0,15.573-8.841c12.709-10.4,20.9-23.51,23.158-39.887.653-4.672,0-9.545-.1-14.618a23.373,23.373,0,0,1,2.863.8c12.81,5.074,21.9,13.614,26.323,27.077,2.964,9.092,4.722,18.436,6.581,27.78.3,1.507.6,2.964.955,4.722-2.964.854-5.878,1.507-8.691,2.512-2.713.955-5.275,2.311-7.987,3.517.653,2.009,1.808,1.859,2.964,1.607,3.316-.653,6.681-1.406,10.047-2.009A50.5,50.5,0,0,1,214.684,293.736Z" transform="translate(-11.785 -163.878)" fill="#efb36b"/>
        <path id="Trazado_920814" data-name="Trazado 920814" d="M191.087,249.941c2.713-7.786,4.27-15.322-2.863-22.706a28.081,28.081,0,0,1-1.407,24.113c-1.658-.4-3.215-.753-4.973-1.206,5.224-7.485,9.394-14.819,3.918-23.711.2,1.507.5,3.014.553,4.521.1,6.43-2.261,12.207-4.973,17.833-.753,1.507-.9,1.457-3.717,1.105-.2-3.617,0-7.334-.7-10.8a38.678,38.678,0,0,0-3.667-10.2c-.954-1.808-3.064-3.064-4.823-4.37-.553-.4-1.608-.151-2.914-.2,6.832,7.887,8.841,16.678,9.294,26.273-1.708.5-3.115.9-4.973,1.457,1.959-6.48.3-12.257-2.21-17.884.653,5.325,2.21,10.6.6,16.578-2.21-5.526-1.959-11.755-7.184-15.221a56.226,56.226,0,0,1,6.531,17.381c-12.659,5.827-23.309,13.714-26.825,28.534-6.832-2.411-9.494-7.686-11-14.417,3.567,1.105,6.38,3.466,10.2,3.617-.151-3.918-2.009-6.832-4.37-9.545,1,2.562,2.009,5.124,3.316,8.54-3.567-1.407-6.43-2.411-9.093-3.717-.8-.4-1.256-1.608-1.708-2.462a3.694,3.694,0,0,0-3.315-2.16,8.559,8.559,0,0,1-8.138-10.147,29.792,29.792,0,0,1,2.763-7.937A53.028,53.028,0,0,1,129,229.747c3.115-3.215,6.782-5.023,11.5-3.918,1.155-1.206,2.311-2.562,3.617-3.717a20.311,20.311,0,0,1,11.1-5.024,70.16,70.16,0,0,1,18.637-.151,19.6,19.6,0,0,1,3.768.9,3.408,3.408,0,0,1,2.512,3.014c.352,2.813,1.557,3.165,4.069,1.607a9.948,9.948,0,0,1,13.262,2.462c4.672,6.279,5.074,11.052,1.155,17.231A25.861,25.861,0,0,1,191.087,249.941ZM141,245.068c.6.653,1.206,1.356,1.859,2.009,2.261,2.361,4.421,4.873,6.832,7.083a10.259,10.259,0,0,0,6.681,2.863c1.457.05,2.964-.151,2.361-2.361-2.612.1-3.466,0-5.275-1.909-2.763-2.914-5.325-5.978-7.786-9.093-2.16-2.763-4.069-5.727-6.179-8.59a3.243,3.243,0,0,0-3.868-1.557c1.808,4.119,3.215,8.038,5.476,11.6a9.024,9.024,0,0,0-.4,2.512c.5,3.265,1.155,6.531,1.859,10.549-1.758-1.407-3.014-2.21-4.119-3.265-2.16-2.11-4.27-4.37-6.38-6.581-.954-1-1.909-2.06-3.667-1.758-.2,1.909.954,3.115,2.009,4.32,4.521,5.224,10.851,7.636,16.678,10.9a1.9,1.9,0,0,0,2.763-.653c.7-1.306-.4-1.959-1.356-2.411a10.194,10.194,0,0,1-5.124-5.978C142.46,250.242,141.807,247.63,141,245.068Zm19.24-3.366c.6,2.763,1.256,5.576,1.859,8.339C162.855,246.977,161.9,244.265,160.243,241.7Z" transform="translate(-81.776 -211.963)" fill="#936037"/>
        <path id="Trazado_920815" data-name="Trazado 920815" d="M195.64,301.931c-.4,1.507-.7,2.713-1.105,4.32a20.107,20.107,0,0,1-4.27.854,76.417,76.417,0,0,1-11.253-.552,180.583,180.583,0,0,1-18.637-3.918c-9.042-2.462-17.08-7.184-24.816-12.358a4.8,4.8,0,0,1-2.411-4.37c.05-2.461-.05-4.923-.2-7.385-.452-6.681-.854-13.363-1.557-20.044-.3-2.763-1.356-5.425-2.009-8.138,3.064.3,3.265.251,3.366,2.914.1,3.265,1.206,5.425,4.822,5.626-.8,2.411-1.859,4.571-2.21,6.832a12.009,12.009,0,0,0,.5,5.476,3.175,3.175,0,0,0,3.667,2.11c1.607-.2,2.361-1.407,2.763-2.863.854-3.114.05-6.078-1.155-8.892-.4-.955-.9-1.859-1.457-2.914.8-.352,1.407-.6,2.21-.9,1.708,10.4,8.942,16.929,15.924,23.661,8.49,8.138,18.888,13.061,29.639,17.331C190.164,299.671,192.827,300.776,195.64,301.931Z" transform="translate(-29.864 -75.321)" fill="#efb36b"/>
        <path id="Trazado_920816" data-name="Trazado 920816" d="M193.1,289.2c-.9-2.612-1.105-4.622.1-6.782,2.06-3.768,2.11-7.786,1.256-11.956-3.868-18.888-15.874-29.789-33.959-34.662a14.168,14.168,0,0,0-3.466-.7c-3.567,0-6.631-.653-8.791-3.868a3.351,3.351,0,0,0-2.763-1.256c-2.763.452-4.27-1.206-6.229-3.115a45.472,45.472,0,0,1,15.724-1.457c17.18,1.808,31.4,9.344,42.047,23.008,5.476,6.983,7.686,15.02,5.576,23.862a20.631,20.631,0,0,1-2.11,5.475C198.226,281.513,195.714,285.18,193.1,289.2Z" transform="translate(9.847 -176.371)" fill="#936037"/>
        <path id="Trazado_920817" data-name="Trazado 920817" d="M146.14,245.028a16.325,16.325,0,0,1,2.813-1.206,56.231,56.231,0,0,1,17.884-.753c5.224.653,10.5.9,15.774,1.507,2.964.352,3.115.754,3.064,3.567-.251,7.334-3.366,11.2-10.65,12.107a171.044,171.044,0,0,1-17.582.954c-2.462.05-4.471-1.155-6.078-3.516-1.909-2.813-2.361-6.028-3.567-8.992C147.3,247.741,146.843,246.736,146.14,245.028Z" transform="translate(37.569 -106.178)" fill="#c6c6c6"/>
        <path id="Trazado_920818" data-name="Trazado 920818" d="M174.468,243.334c1,8.64-2.612,13.564-10.851,14.417-5.727.6-11.5.653-17.231.7a20.32,20.32,0,0,1-5.124-1.105c-4.873-1.306-6.279-7.234-4.421-11.253a3.335,3.335,0,0,1,2.361-1.708,95.608,95.608,0,0,1,11.906-1.206c7.284-.151,14.568,0,21.9,0A5.493,5.493,0,0,1,174.468,243.334Z" transform="translate(-3.016 -104.384)" fill="#c6c6c6"/>
        <path id="Trazado_920819" data-name="Trazado 920819" d="M164.229,301.57a37.753,37.753,0,0,0,2.311,5.023c2.411,3.617,4.873,7.184,7.535,10.6a12.667,12.667,0,0,1,2.964,6.631q.452,3.843,1.206,7.686a8.717,8.717,0,0,1-.854,6.129c-1.608,2.863-2.813,5.928-5.275,8.289-2.06,2.01-4.22,3.315-7.184,3.064-1.256-.1-2.512,0-4.27,0,1.206-2.06,2.16-3.818,3.215-5.476a2.16,2.16,0,0,1,1.306-.9c2.21-.251,2.813-1.808,3.316-3.617a17.82,17.82,0,0,0,.3-9.042,6.331,6.331,0,0,1-.251-1.407c-.3-7.937-3.918-14.619-8.088-21.1C158.9,304.885,160.21,302.725,164.229,301.57Z" transform="translate(92.622 130.803)" fill="#efb36b"/>
        <path id="Trazado_920820" data-name="Trazado 920820" d="M169.671,340.8c-.6-3.717-1.105-6.581-1.507-9.444a11.314,11.314,0,0,0-2.964-6.631,6.4,6.4,0,0,1-1.708-4.421c-.151-2.914-.9-5.827-1-8.741a42.38,42.38,0,0,1,.6-8.339c.151-1.105,1.256-2.01,2.361-3.768.5,1.909.8,2.813.954,3.818a71.631,71.631,0,0,0,4.973,18.235c1.155,2.763,1.557,5.878,2.16,8.841C174.393,334.323,172.434,337.287,169.671,340.8Z" transform="translate(103.255 122.313)" fill="#efb36b"/>
        <path id="Trazado_920821" data-name="Trazado 920821" d="M122.26,250.193c1.407-5.576,4.571-10.047,8.439-14.016a47.858,47.858,0,0,1,13.162-9.344,30.942,30.942,0,0,1,12.86-3.014,19.784,19.784,0,0,1,3.968.954c.653.151,1.306.2,1.959.3,1.055.251,2.11.5,3.115.753v.8c-.7.151-1.507.6-2.06.4-3.115-1-6.028-.151-8.942.753-8.239,2.562-15.221,7.234-21.8,12.609C129.192,243.562,125.776,246.928,122.26,250.193Z" transform="translate(-58.512 -182.024)" fill="#f9e381"/>
        <path id="Trazado_920822" data-name="Trazado 920822" d="M167.65,298.1a16.49,16.49,0,0,1,1.356,3.717c.854,7.334,1.708,14.669,2.311,22.053.2,2.612-.4,5.325-.6,7.987-.251.05-.5.05-.754.1-.3-.653-.6-1.356-.854-2.009a13.8,13.8,0,0,0-1.055-2.964c-2.763-4.823-3.667-10.2-4.22-15.523-.352-3.416.4-6.983.954-10.449.151-1,1.155-1.909,1.758-2.813A4.118,4.118,0,0,1,167.65,298.1Z" transform="translate(108.391 116.842)" fill="#efb36b"/>
        <path id="Trazado_920823" data-name="Trazado 920823" d="M165.839,244.583c-9.846.553-19.692,1.105-29.689,1.708.5-3.014,2.813-4.37,5.526-4.521,4.873-.352,9.8-.3,14.719-.251C159.811,241.468,162.825,243.126,165.839,244.583Z" transform="translate(-2.625 -110.957)" fill="#efb36b"/>
        <path id="Trazado_920824" data-name="Trazado 920824" d="M166.806,297.5c2.462,5.023,3.416,20.3,1.356,25.067-.4-2.461-.754-4.421-1-6.38-.3-2.11-.452-4.169-.753-6.28-.4-3.215-.754-6.48-1.407-9.7C164.7,298.655,165.349,298.052,166.806,297.5Z" transform="translate(113.153 114.427)" fill="#efb36b"/>
        <path id="Trazado_920825" data-name="Trazado 920825" d="M133.414,262.6c-3.165-2.16-3.265-4.923-.653-10.047C133.866,255.866,135.122,258.93,133.414,262.6Z" transform="translate(-23.701 -66.429)" fill="#fcfaf6"/>
        <path id="Trazado_920826" data-name="Trazado 920826" d="M133.179,245.212l-1.658.9-.3-.9c.6-.151,1.206-.3,1.758-.452A1.786,1.786,0,0,0,133.179,245.212Z" transform="translate(-22.461 -97.772)" fill="#936037"/>
        <path id="Trazado_920827" data-name="Trazado 920827" d="M132.3,247.4c.5,1.306.754,1.959,1.105,2.863C131.548,250.062,131.2,249.46,132.3,247.4Z" transform="translate(-20.629 -87.15)" fill="#936037"/>
        <path id="Trazado_920828" data-name="Trazado 920828" d="M136.887,447.68c2.813.9,4.873-.452,6.983-1.808,6.229-4.069,11.6-9.243,16.778-14.518a210.963,210.963,0,0,0,50.587-82.988,6.747,6.747,0,0,0,.352-1.356c.05-.2-.1-.452-.251-.9-.5.653-1,1.105-1.356,1.658-8.791,13.815-20.094,25.469-32.5,36.069-8.239,7.033-16.778,13.714-26.223,19.089a67.156,67.156,0,0,1-8.59,4.069,15.117,15.117,0,0,1-5.174.854c-2.662-.05-3.918-1.808-2.914-4.27a17.826,17.826,0,0,1,3.968-5.928c-.9,1.708-1.909,3.366-2.662,5.174-1.055,2.612.05,4.019,2.763,3.265a42.6,42.6,0,0,0,8.439-3.466c11.353-6.33,21.45-14.417,31.3-22.857,12.006-10.3,22.857-21.7,31.648-34.964a48.176,48.176,0,0,1,3.265-3.918c.3.1.553.151.854.251a8.27,8.27,0,0,1,.3,2.461c-.5,3.014-1.105,6.028-1.808,8.992-5.928,24.213-17.582,45.513-33.055,64.853a161.991,161.991,0,0,1-26.323,26.474,83.4,83.4,0,0,1-9.193,5.827,9.243,9.243,0,0,1-3.717.955C138.495,450.794,137.992,450.241,136.887,447.68Z" transform="translate(-10.345 288.967)" fill="#311d48"/>
        <path id="Trazado_920829" data-name="Trazado 920829" d="M171.272,350.9c.5-1.306,1-2.612,1.507-3.868.553-1.407,1.155-2.813.452-4.471-2.06-.2-3.617.954-5.124,1.959-5.375,3.617-10.65,7.334-16.025,10.951-2.16,1.457-4.32,2.863-6.53,4.169a29.7,29.7,0,0,1-4.37,2.21c-1.507.6-3.165,1.457-4.622,0-1.407-1.356-.9-3.114-.352-4.672a25.566,25.566,0,0,1,2.763-5.325c-.05,2.813-1.608,5.375-1.055,8.289,2.06.352,3.617-.553,5.074-1.457,5.425-3.265,10.851-6.581,16.226-9.9,3.316-2.009,6.53-4.17,9.9-6.078,1.457-.854,3.265-2.009,4.873-.552,1.507,1.407.3,3.165-.3,4.571a24.29,24.29,0,0,1-2.512,4.019A.724.724,0,0,1,171.272,350.9Z" transform="translate(-4.643 291.308)" fill="#311d48"/>
        <path id="Trazado_920830" data-name="Trazado 920830" d="M143.111,349.572c-2.06,1.808-4.119,3.667-6.531,5.777,2.16-2.261,4.069-4.22,5.928-6.229Z" transform="translate(-0.895 322.121)" fill="#311d48"/>
        <path id="Trazado_920831" data-name="Trazado 920831" d="M141.94,349.76c1.407-2.11,2.813-4.27,4.22-6.38l-.05-.05a11.524,11.524,0,0,1-4.22,6.38Z" transform="translate(20.469 298.825)" fill="#311d48"/>
        <path id="Trazado_920832" data-name="Trazado 920832" d="M143.367,346.832c-1.055,1.155-2.16,2.361-3.215,3.517-.151-.151-.3-.251-.452-.4,1.055-1.205,2.11-2.361,3.215-3.566Z" transform="translate(11.658 311.096)" fill="#311d48"/>
        <path id="Trazado_920833" data-name="Trazado 920833" d="M143.221,345.772c-.653.8-1.306,1.658-2.009,2.462-.151-.1-.251-.2-.4-.3l1.808-2.562C142.819,345.521,143.02,345.621,143.221,345.772Z" transform="translate(16.124 307.033)" fill="#311d48"/>
        <path id="Trazado_920834" data-name="Trazado 920834" d="M143.053,344.59c-.452.9-.954,1.758-1.407,2.662a2.025,2.025,0,0,1,1.457-2.562Z" transform="translate(19.306 303.894)" fill="#311d48"/>
        <path id="Trazado_920835" data-name="Trazado 920835" d="M137.078,351.741c-.452.553-.954,1.155-1.407,1.708-.1-.1-.251-.2-.352-.3.452-.552.954-1.155,1.407-1.708A.675.675,0,0,0,137.078,351.741Z" transform="translate(-5.965 331.455)" fill="#311d48"/>
        <path id="Trazado_920836" data-name="Trazado 920836" d="M160.022,227.24c.452.5.9,1,1.557,1.708-14.669,5.978-24.213,17.331-33.055,30.643,1.457-.5,2.06-.7,2.713-.9l.05.05c-1.708,1.808-3.466,3.617-5.174,5.425a5.015,5.015,0,0,0-.7-.4,7.141,7.141,0,0,1,.352-2.11c7.083-12.91,16.276-23.862,29.639-30.744a15.881,15.881,0,0,1,3.617-1.407c1.356-.452.854-1.457,1-2.261Z" transform="translate(-45.838 -168.264)" fill="#311d48"/>
        <path id="Trazado_920837" data-name="Trazado 920837" d="M155.633,234.031a6.39,6.39,0,0,1-.7,1.055c-5.124,5.576-10.6,10.7-17.532,13.915a23.908,23.908,0,0,1-7.083,1.658c-1.306.151-2.813-.251-3.115-2.562,2.562,1.708,4.772.653,6.932-.251,7.133-2.914,13.262-7.435,19.089-12.458.6-.553,1.256-1.055,1.859-1.557C155.131,233.83,155.281,233.93,155.633,234.031Z" transform="translate(-38.636 -141.749)" fill="#311d48"/>
        <path id="Trazado_920838" data-name="Trazado 920838" d="M128.806,254.184c-3.064-2.863-3.567-4.37-1.808-6.832a32.767,32.767,0,0,1,5.978-6.38,105.12,105.12,0,0,1,13.161-9.042c-.754.7-1.457,1.457-2.261,2.11-4.27,3.466-8.59,6.932-12.86,10.4a10.683,10.683,0,0,0-1.507,1.507C127,248.96,126.9,249.964,128.806,254.184Z" transform="translate(-43.507 -149.394)" fill="#311d48"/>
        <path id="Trazado_920839" data-name="Trazado 920839" d="M126.56,242.513a9.865,9.865,0,0,1,1.256-1.608,57.477,57.477,0,0,1,14.568-9.042c.6-.251,1.256-.4,1.808-.6-5.877,3.768-11.7,7.535-17.582,11.3C126.66,242.563,126.56,242.513,126.56,242.513Z" transform="translate(-41.211 -152.089)" fill="#311d48"/>
        <path id="Trazado_920840" data-name="Trazado 920840" d="M137.3,234.7c-3.366,1.658-6.681,3.366-10.047,5.024l-.452-.9c3.366-1.658,6.731-3.265,10.047-4.923A6.482,6.482,0,0,1,137.3,234.7Z" transform="translate(-40.245 -141.467)" fill="#311d48"/>
        <path id="Trazado_920841" data-name="Trazado 920841" d="M131.23,227.473c1.909-1.206,3.567.6,5.375.5h0c-1.758-.2-3.567-.4-5.375-.5Z" transform="translate(-22.421 -169)" fill="#311d48"/>
        <path id="Trazado_920842" data-name="Trazado 920842" d="M139.59,260.66c1.758-1.557,2.813-2.512,3.969-3.516.452.7.8,1.758,1.407,1.959a4.29,4.29,0,0,0,2.713-.3c4.772-1.959,9.595-3.918,14.267-6.129,2.26-1.105,4.069-1.206,6.129.452a6.319,6.319,0,0,0,7.133,1.055,6.782,6.782,0,0,1,7.435,1.607,21.051,21.051,0,0,1,3.115,4.672c.9,1.758-.1,3.165-1.306,4.37a19.421,19.421,0,0,1-11.7,5.978,42.118,42.118,0,0,1-16.427-1.055c-2.914-.8-5.626-2.21-7.133-4.873C147.125,261.514,144.212,260.358,139.59,260.66Zm43.4,2.411c-3.014-.352-5.928-1.407-9.042-.452a8.434,8.434,0,0,1-5.224-.1c-6.279-2.411-12.458.3-19.34-.5a23.168,23.168,0,0,0,1.859,2.512,13.451,13.451,0,0,0,8.841,3.868,105.521,105.521,0,0,0,11.956-.1A16.276,16.276,0,0,0,182.993,263.071Zm-1.758-2.261c.9-3.968-1.055-6.129-4.722-5.224-.653.151-1.306.6-1.959.7-1.959.352-4.169.8-5.626-.9-2.662-3.014-5.275-2.562-8.138-.5-1.306.955-2.863,1.608-4.27,2.462l-3.014,1.808a20.129,20.129,0,0,0,5.476.1c2.562-.2,5.074-.6,7.636-.6,3.114,0,6.279.352,9.394.6.452.05,1.105.05,1.256.352C178.221,261.313,179.828,260.559,181.235,260.81Z" transform="translate(11.215 -69.214)" fill="#311d48"/>
        <path id="Trazado_920843" data-name="Trazado 920843" d="M143.622,257.685c-1.457,1.607-2.863,1.256-4.22,1.105-2.914-.352-4.069,1.206-2.863,3.918.5,1.155,1.155,2.21,1.758,3.416-2.009,1.406-2.713-.1-3.416-1.206-1.708-2.713-1.155-5.074,1.758-8.188-.251-.954-.5-1.959-.8-2.964-.251-.9-.5-1.758-.854-2.914-2.713,1.608-3.416,4.169-3.969,6.782-.251,1.256-.251,2.562-.553,3.818-.1.452-.754,1.055-1.155,1a1.476,1.476,0,0,1-1.055-1.105c.05-4.772.151-9.595.352-14.367a3.679,3.679,0,0,1,.954-1.859c1.055-1.306,2.16-1.457,3.265-.3,1.708,1.758,3.416,3.617,3.868,6.179.1.553.251,1.155.4,1.708C138.2,256.931,138.95,257.534,143.622,257.685Z" transform="translate(-34.411 -100.65)" fill="#311d48"/>
        <path id="Trazado_920844" data-name="Trazado 920844" d="M145.27,250.531a7.4,7.4,0,0,1,5.476-1.105c.553.1,1,.753,1.457,1.155-.553.452-1.055,1.256-1.608,1.306C148.937,251.987,147.028,252.54,145.27,250.531Z" transform="translate(34.069 -79.48)" fill="#311d48"/>
        <path id="Trazado_920845" data-name="Trazado 920845" d="M148.149,255.623c-2.612.352-3.567-.753-3.969-2.512-.5-2.009.5-3.416,3.064-4.521C145.285,251.6,144.281,252.006,148.149,255.623Z" transform="translate(29.181 -82.362)" fill="#311d48"/>
        <path id="Trazado_920846" data-name="Trazado 920846" d="M145.46,258.158c1.959-1.407,3.918-1.959,6.48-.553C149.629,259.012,147.469,257.505,145.46,258.158Z" transform="translate(34.833 -49.381)" fill="#311d48"/>
        <path id="Trazado_920847" data-name="Trazado 920847" d="M125.766,231.514c-2.261-3.567-3.667-7.535-5.476-11.6a3.272,3.272,0,0,1,3.868,1.557c2.06,2.863,3.969,5.827,6.179,8.59,2.462,3.115,5.024,6.179,7.786,9.093,1.809,1.909,2.662,1.959,5.275,1.909.653,2.21-.854,2.411-2.361,2.361a10.259,10.259,0,0,1-6.681-2.863c-2.411-2.21-4.571-4.722-6.832-7.083-.653-.653-1.256-1.356-1.859-2.009Z" transform="translate(-66.438 -198.309)" fill="#311d48"/>
        <path id="Trazado_920848" data-name="Trazado 920848" d="M131.47,222.09c.754,2.562,1.457,5.174,2.361,7.686a9.912,9.912,0,0,0,5.124,5.978c.9.452,2.06,1.105,1.356,2.411a1.9,1.9,0,0,1-2.763.653c-5.777-3.265-12.157-5.677-16.678-10.9-1.055-1.206-2.16-2.411-2.009-4.32,1.808-.3,2.713.754,3.667,1.758,2.11,2.21,4.17,4.421,6.38,6.581,1.055,1.055,2.361,1.859,4.119,3.265-.7-4.019-1.356-7.234-1.859-10.549a9.022,9.022,0,0,1,.4-2.512C131.571,222.19,131.47,222.09,131.47,222.09Z" transform="translate(-72.243 -188.985)" fill="#311d48"/>
        <path id="Trazado_920849" data-name="Trazado 920849" d="M125.19,221.42c1.658,2.562,2.662,5.224,1.859,8.339C126.446,227,125.793,224.233,125.19,221.42Z" transform="translate(-46.723 -191.681)" fill="#311d48"/>
        <path id="Trazado_920850" data-name="Trazado 920850" d="M175.107,255.361a16.489,16.489,0,0,1-10.9,5.224,94.966,94.966,0,0,1-11.956.1,13.45,13.45,0,0,1-8.841-3.868,24.968,24.968,0,0,1-1.859-2.512c6.882.753,13.061-1.909,19.34.5a8.818,8.818,0,0,0,5.224.1C169.179,254,172.093,255.01,175.107,255.361Z" transform="translate(19.101 -61.504)" fill="#e27149"/>
        <path id="Trazado_920851" data-name="Trazado 920851" d="M170.17,259.741c-1.407-.251-3.014.5-4.069-1.206-.151-.251-.8-.3-1.256-.352-3.114-.251-6.279-.6-9.394-.6-2.562,0-5.074.4-7.636.6a20.156,20.156,0,0,1-5.476-.1l3.014-1.808a44.838,44.838,0,0,0,4.27-2.461c2.914-2.11,5.476-2.562,8.138.5,1.457,1.658,3.667,1.256,5.626.9.7-.151,1.306-.553,1.959-.7C169.065,253.612,171.074,255.772,170.17,259.741Z" transform="translate(22.28 -68.144)" fill="#e27149"/>
        <g id="Grupo_1121120" data-name="Grupo 1121120" transform="translate(191.094 136.589)">
          <path id="Trazado_920852" data-name="Trazado 920852" d="M166.315,243.543c-2.06-.251-4.119-.4-6.179-.6l-9.946,16.98c2.813-.151,5.677-.352,8.439-.7a13.611,13.611,0,0,0,2.713-.553l7.887-13.463C169.078,244.045,168.375,243.744,166.315,243.543Z" transform="translate(-137.229 -241.684)" fill="#f6f6f6"/>
          <path id="Trazado_920853" data-name="Trazado 920853" d="M160.922,242.991c-1.055-.151-2.16-.2-3.215-.3l-10.1,17.231a6.5,6.5,0,0,0,3.818,1.206c.6,0,1.206,0,1.859-.05l10.4-17.833C162.781,243.192,161.826,243.092,160.922,242.991Z" transform="translate(-147.61 -242.69)" fill="#f6f6f6"/>
        </g>
        <g id="Grupo_1121121" data-name="Grupo 1121121" transform="translate(138.749 138.649)">
          <path id="Trazado_920854" data-name="Trazado 920854" d="M157.885,243.15c-3.064,0-6.129-.05-9.193-.05L139.8,258.371c2.914-.1,5.827-.251,8.741-.553a15.074,15.074,0,0,0,2.261-.4l8.239-14.066C158.588,243.251,158.236,243.2,157.885,243.15Z" transform="translate(-126.689 -243.1)" fill="#f6f6f6"/>
          <path id="Trazado_920855" data-name="Trazado 920855" d="M146.483,243.15c-.3,0-.6.05-.9.05l-8.389,14.367a16.5,16.5,0,0,0,4.571.954h1.256l8.992-15.422C150.2,243.1,148.342,243.1,146.483,243.15Z" transform="translate(-137.19 -243.1)" fill="#f6f6f6"/>
        </g>
      </g>
    </g>
  </g>
</svg>
