<svg xmlns="http://www.w3.org/2000/svg" xmlns:xlink="http://www.w3.org/1999/xlink" width="103" height="103" viewBox="0 0 103 103">
  <defs>
    <filter id="Trazado_934828" x="0" y="0" width="103" height="103" filterUnits="userSpaceOnUse">
      <feOffset dy="3" input="SourceAlpha"/>
      <feGaussianBlur stdDeviation="3" result="blur"/>
      <feFlood flood-opacity="0.161"/>
      <feComposite operator="in" in2="blur"/>
      <feComposite in="SourceGraphic"/>
    </filter>
  </defs>
  <g id="Grupo_1133645" data-name="Grupo 1133645" transform="translate(-277 -2507)">
    <g transform="matrix(1, 0, 0, 1, 277, 2507)" filter="url(#Trazado_934828)">
      <path id="Trazado_934828-2" data-name="Trazado 934828" d="M42.5,0A42.5,42.5,0,1,1,0,42.5,42.5,42.5,0,0,1,42.5,0Z" transform="translate(9 6)" fill="#3c1c74"/>
    </g>
    <g id="mapa" transform="translate(234.737 2521.499)">
      <g id="Grupo_1133646" data-name="Grupo 1133646" transform="translate(68.957 0.996)">
        <path id="Trazado_934829" data-name="Trazado 934829" d="M166.185,38.7a13.639,13.639,0,0,1,.828-5.384.7.7,0,0,0-.658-.942h-6.88l-2.744-3.147h-7.521a13.779,13.779,0,0,1-1.411-5.707c0-2.774-.96-2.919-3.064-3.161,0,0,1.639-4.884,4.241-7.2,2.774-2.473,4.2-2.182,4.2-3.7A1.97,1.97,0,0,0,150.961,7.5c-1.227,0-2.778,1.349-4.481,2.827-.986.855-2.106,2.021-3.936,1.727a1,1,0,0,0-1.091.612c-.289.734-.772,1.691-1.329,1.691a2.9,2.9,0,0,1-1.511-.636,1.012,1.012,0,0,0-1.195.009c-.884.654-2.249,2.226-1.938,5.594a12.007,12.007,0,0,0-3.746,2.5.607.607,0,0,0-.041.831l-2.807.324s.675,15.011.864,18.855L166.632,40.5A6.025,6.025,0,0,1,166.185,38.7Z" transform="translate(-122.962 -7.5)" fill="#f6da2c"/>
        <path id="Trazado_934830" data-name="Trazado 934830" d="M117.037,140.3s-1.039-1.345-.979-2.144c.109-1.456,1.133-3.742.633-6.074a67.349,67.349,0,0,0-2.454-8.049l-.942.109a3.526,3.526,0,0,1-1.3,4.623,24.829,24.829,0,0,1,2.041,5.973c.5,2.332-.524,4.618-.633,6.074a1.766,1.766,0,0,0,.157.748l2.75,1.328Z" transform="translate(-108.314 -108.557)" fill="#dfc000"/>
        <path id="Trazado_934831" data-name="Trazado 934831" d="M134.242,265.59l10.093-2.656.053-.065a13.223,13.223,0,0,0-2.018-1.923l1.544-1.141a1.077,1.077,0,0,0,.15-1.6,7.487,7.487,0,0,1-1.44-2.2H105.742l.049.993-4.59,7.523,6.5,5.228a25.2,25.2,0,0,1,7.409,3.2l18.6-1.328Z" transform="translate(-98.955 -222.997)" fill="#3079ee"/>
        <path id="Trazado_934832" data-name="Trazado 934832" d="M101.46,269.963a11.357,11.357,0,0,0-7.612-1.548l-6.356-4.121L92.282,256h-2.75a6.959,6.959,0,0,0,.822,1.4l-2.645,4.58a3.154,3.154,0,0,0-2.4.726c-1.431,1.1-.937,3.945-.937,3.945l6.823,4.424a11.708,11.708,0,0,1,5.586.541l3.667,1.328,3.153-1.328A17.323,17.323,0,0,0,101.46,269.963Z" transform="translate(-84.287 -222.996)" fill="#1063e9"/>
        <path id="Trazado_934833" data-name="Trazado 934833" d="M349.981,310.852h7.934l2.158-2.656h-9.857Z" transform="translate(-314.693 -268.259)" fill="#1063e9"/>
        <path id="Trazado_934834" data-name="Trazado 934834" d="M227.994,374.816l.112-1.265H212.662c.187.126-2.781.259-2.6.4,5.935,4.678,5.9,10.25,8.995,9.077,5.207-1.971,8.224.319,8.224.319L224.807,388l4.294-1.328,1.4-5.4A5.811,5.811,0,0,0,227.994,374.816Z" transform="translate(-193.351 -324.934)" fill="#e93e3e"/>
        <path id="Trazado_934835" data-name="Trazado 934835" d="M201.227,381.868a5.068,5.068,0,0,0-3.567-1.322,8.566,8.566,0,0,0-4.262,1.037,2.738,2.738,0,0,1-3.615-1.408,19,19,0,0,0-4.628-6.624h-6.82a9.734,9.734,0,0,1,2.026,1.007,18.161,18.161,0,0,1,6.766,8.273,2.738,2.738,0,0,0,3.615,1.408A8.566,8.566,0,0,1,195,383.2a5.068,5.068,0,0,1,3.567,1.322l-2.6,4.806h3.1l1.419,1.613,1.107-4.269h-2.966Z" transform="translate(-165.843 -324.934)" fill="#be1717"/>
      </g>
      <g id="Grupo_1133647" data-name="Grupo 1133647" transform="translate(66.61 0)">
        <path id="Trazado_934836" data-name="Trazado 934836" d="M101.731,66.388H99.085a1,1,0,0,1-.876-1.47l2.2-4.061a4.452,4.452,0,0,0-2.288-.6,8.992,8.992,0,0,0-3.859.952,3.734,3.734,0,0,1-4.931-1.918,1,1,0,1,1,1.824-.8,1.737,1.737,0,0,0,.967.928,1.8,1.8,0,0,0,1.333-.031,11.511,11.511,0,0,1,4.665-1.122,6.08,6.08,0,0,1,4.295,1.638,1,1,0,0,1,.148,1.154l-1.8,3.336h1.425a1,1,0,0,1,.748.338l.178.2,2.036-7.855a4.818,4.818,0,0,0-2.027-5.333,1,1,0,0,1-.508-.959l.016-.181H85.179a18.1,18.1,0,0,1,4.005,4.279A1,1,0,1,1,87.534,56a16.118,16.118,0,0,0-4.605-4.55,10.442,10.442,0,0,0-6.882-1.4,1,1,0,0,1-.726-.143l-8.257-5.354a1,1,0,0,1,.928-1.754,4.034,4.034,0,0,1,1.377-2.887,4.413,4.413,0,0,1,2.447-.953l2.028-3.511a4.283,4.283,0,0,1-.792-2.27A8.445,8.445,0,0,1,73.38,31.4a9.254,9.254,0,0,0,.324-4.013,24.176,24.176,0,0,0-1.945-5.712,1,1,0,0,1,.349-1.314,2.3,2.3,0,0,0,1.224-2.1,3.281,3.281,0,0,0-.281-1.228,1,1,0,0,1,1.774-.907,4.477,4.477,0,0,1-.936,5.382,27.686,27.686,0,0,1,1.763,5.459,10.976,10.976,0,0,1-.332,4.883c-.1.416-.19.815-.243,1.152h36.212a6.92,6.92,0,0,1-.1-.728,14.515,14.515,0,0,1,.748-5.415h-6.465a1,1,0,0,1-.751-.341l-2.446-2.805h-1.511a1,1,0,1,1,0-1.992h1.965a1,1,0,0,1,.751.341l2.446,2.805h6.427a1.7,1.7,0,0,1,1.594,2.279,13.627,13.627,0,0,0-.771,4.959,6.093,6.093,0,0,0,1.623,3.416,2.073,2.073,0,0,1-.287,3.081l-.533.394a8.088,8.088,0,0,1,2.941,6.461,1,1,0,0,1-1.992,0,6.351,6.351,0,0,0-.618-2.91l-1.355,1.667a1,1,0,0,1-.773.368h-7.022l-.18,2.039h1.2a1,1,0,1,1,0,1.992H104.8l-.154,1.745a6.871,6.871,0,0,1,2.426,7.221l-2.508,9.673a1,1,0,0,1-1.712.408ZM81.622,48.617H102.8l.453-5.116a1,1,0,0,1,.992-.908h7.46l1.378-1.7h0a16.213,16.213,0,0,0-1.337-1.176,1,1,0,0,1,.033-1.576L113.325,37a.08.08,0,0,0,.034-.06.072.072,0,0,0-.02-.06A8.7,8.7,0,0,1,111.993,35H75.936a1,1,0,0,1-.05.9l-2.645,4.58a.945.945,0,0,1-1.059.479,2.257,2.257,0,0,0-1.6.538c-.606.466-.681,1.742-.613,2.572l6.12,3.968a12.844,12.844,0,0,1,5.532.584Zm15.156-24.9H95.206a1,1,0,0,1-.881-.531A14.719,14.719,0,0,1,92.8,17.013c0-.961-.127-1.554-.379-1.76a4.412,4.412,0,0,0-1.8-.411,1,1,0,0,1-.83-1.307c.07-.21,1.755-5.163,4.523-7.63a17.017,17.017,0,0,1,2.968-2.127c.9-.529.9-.563.9-.828,0-.792-.664-.958-1.221-.958-.85,0-2.421,1.362-3.806,2.564l-.022.019-.245.216a5.243,5.243,0,0,1-4.5,1.742c-.232.568-.92,2.315-2.262,2.315a3.688,3.688,0,0,1-2.1-.825.018.018,0,0,0-.018,0c-.69.51-1.806,1.8-1.539,4.7a1,1,0,0,1-.618,1.015,10.889,10.889,0,0,0-3.189,2.066,5.259,5.259,0,0,1,.259,3.593,1,1,0,1,1-1.939-.456,3.4,3.4,0,0,0-.052-2.153,1.6,1.6,0,0,1,.1-2.186,13.347,13.347,0,0,1,3.406-2.416c-.1-3.388,1.422-5.056,2.382-5.766a2,2,0,0,1,2.371-.015c.341.247.637.455.786.423s.3-.411.544-1.036A1.981,1.981,0,0,1,88.7,4.567c1.211.195,2.014-.516,2.865-1.268l.259-.228.022-.019C93.732,1.414,95.362,0,96.956,0a2.956,2.956,0,0,1,3.213,2.95c0,1.439-.914,1.976-1.882,2.545a15.25,15.25,0,0,0-2.652,1.9,16.668,16.668,0,0,0-3.528,5.648,3.454,3.454,0,0,1,1.578.673,4.057,4.057,0,0,1,1.107,3.3,12.518,12.518,0,0,0,1.049,4.711h.938a1,1,0,0,1,0,1.992Z" transform="translate(-66.61 0)"/>
      </g>
    </g>
  </g>
</svg>
