<svg xmlns="http://www.w3.org/2000/svg" xmlns:xlink="http://www.w3.org/1999/xlink" width="103" height="103" viewBox="0 0 103 103">
  <defs>
    <filter id="Elipse_5245" x="0" y="0" width="103" height="103" filterUnits="userSpaceOnUse">
      <feOffset dy="3" input="SourceAlpha"/>
      <feGaussianBlur stdDeviation="3" result="blur"/>
      <feFlood flood-opacity="0.161"/>
      <feComposite operator="in" in2="blur"/>
      <feComposite in="SourceGraphic"/>
    </filter>
  </defs>
  <g id="Grupo_1133644" data-name="Grupo 1133644" transform="translate(9 6)">
    <g transform="matrix(1, 0, 0, 1, -9, -6)" filter="url(#Elipse_5245)">
      <circle id="Elipse_5245-2" data-name="Elipse 5245" cx="42.5" cy="42.5" r="42.5" transform="translate(9 6)" fill="#3c1c74"/>
    </g>
    <g id="derechos-humanos" transform="translate(17.189 18.689)">
      <path id="Trazado_934837" data-name="Trazado 934837" d="M6,2A3.137,3.137,0,0,1,9.137,5.137V45.916a3.137,3.137,0,0,0,6.274,0V38.074H38.937V5.137A3.137,3.137,0,0,0,35.8,2Z" transform="translate(-1.079 -0.216)" fill="#e2e7f6"/>
      <path id="Trazado_934838" data-name="Trazado 934838" d="M25.547,29.547A12.562,12.562,0,0,1,13,17h1.568a10.979,10.979,0,0,0,17.566,8.783l.847-.646.951,1.247-.852.65a12.449,12.449,0,0,1-7.534,2.513Z" transform="translate(-2.589 -3.453)" fill="#4c6cb5"/>
      <g id="Grupo_1133648" data-name="Grupo 1133648" transform="translate(1.784 1.784)">
        <path id="Trazado_934839" data-name="Trazado 934839" d="M15,36H32.253v1.568H15Z" transform="translate(-4.805 -9.337)" fill="#c8cded"/>
        <path id="Trazado_934840" data-name="Trazado 934840" d="M15,40H33.037v1.568H15Z" transform="translate(-4.805 -10.2)" fill="#c8cded"/>
        <path id="Trazado_934841" data-name="Trazado 934841" d="M8.274,12.979V5.137A3.137,3.137,0,1,0,2,5.137v7.842Z" transform="translate(-2 -2)" fill="#c8cded"/>
        <path id="Trazado_934842" data-name="Trazado 934842" d="M36.742,48H17.137v7.842A3.137,3.137,0,0,1,14,58.979H36.742Z" transform="translate(-4.589 -11.926)" fill="#c8cded"/>
      </g>
      <path id="Trazado_934843" data-name="Trazado 934843" d="M41.921,50.779V30.717A6.274,6.274,0,0,1,38,24.9V15.1a1.961,1.961,0,1,1,3.921,0V13.529a1.961,1.961,0,0,1,3.921,0V11.961a1.961,1.961,0,1,1,3.921,0v1.568a1.961,1.961,0,1,1,3.921,0v1.961a3.137,3.137,0,0,1,3.137,3.137V24.9A6.274,6.274,0,0,1,52.9,30.718V50.779Z" transform="translate(-7.984 -1.942)" fill="#bd592f"/>
      <path id="Trazado_934844" data-name="Trazado 934844" d="M43.568,16.5v5.489a1.176,1.176,0,0,0,1.176,1.176v1.568A2.745,2.745,0,0,1,42,21.989V16.5Z" transform="translate(-8.847 -3.345)" fill="#fbe1ca"/>
      <path id="Trazado_934845" data-name="Trazado 934845" d="M50,30.116h1.568a3.926,3.926,0,0,1,3.921-3.921.784.784,0,0,0,.784-.784V20.705a.784.784,0,0,0-.784-.784H52.745a1.176,1.176,0,0,1,0-2.353h3.529V16H52.745a2.738,2.738,0,0,0-1.176,5.214v.667a2.745,2.745,0,0,0,2.745,2.745,2.717,2.717,0,0,0,.392-.031v.087A5.5,5.5,0,0,0,50,30.116Zm4.705-8.626v1.5a1.17,1.17,0,0,1-1.568-1.107v-.392Z" transform="translate(-10.574 -3.237)" fill="#fbe1ca"/>
      <path id="Trazado_934846" data-name="Trazado 934846" d="M48.568,21.558a1.176,1.176,0,0,0,1.176,1.176V24.3A2.745,2.745,0,0,1,47,21.558V14.5h1.568Z" transform="translate(-9.926 -2.913)" fill="#fbe1ca"/>
      <path id="Trazado_934847" data-name="Trazado 934847" d="M46.484,12.842V11.587A2.745,2.745,0,0,0,43.74,8.842a2.716,2.716,0,0,0-1.317.351,2.709,2.709,0,0,0-3.781-1.644V4.921A3.926,3.926,0,0,0,34.721,1H4.921A3.926,3.926,0,0,0,1,4.921v7.842a.784.784,0,0,0,.784.784H7.274V45.7a3.926,3.926,0,0,0,3.921,3.921H44.916a.784.784,0,0,0,.784-.784V29.283a7.028,7.028,0,0,0,3.921-6.325V16.684a3.928,3.928,0,0,0-3.137-3.843ZM43.74,10.411a1.176,1.176,0,0,1,1.176,1.176v1.176H42.563V11.587A1.176,1.176,0,0,1,43.74,10.411ZM39.818,8.842a1.176,1.176,0,0,1,1.176,1.176v3.02a2.728,2.728,0,0,0,0,4.941v.666a1.176,1.176,0,1,1-2.353,0V10.018A1.176,1.176,0,0,1,39.818,8.842Zm4.313,10.909a1.17,1.17,0,0,1-1.568-1.107v-.392h1.568Zm-29.016-6.2c0-1.024,1.6-2.131,4.078-2.717a23.721,23.721,0,0,0,0,5.433C16.72,15.678,15.116,14.572,15.116,13.547Zm5.489,0a21.213,21.213,0,0,1,.208-3,17.432,17.432,0,0,1,2.145-.134,17.668,17.668,0,0,1,2.142.131,21.377,21.377,0,0,1,.211,3.006,21.237,21.237,0,0,1-.208,3,17.644,17.644,0,0,1-2.145.133,17.432,17.432,0,0,1-2.145-.134,21.214,21.214,0,0,1-.208-3Zm6.117-2.713a9.392,9.392,0,0,1,2.816,1.085,2.709,2.709,0,0,0-.307,1.237v2.2a9.848,9.848,0,0,1-2.509.925,23.769,23.769,0,0,0,0-5.439Zm-.263-1.663a11.782,11.782,0,0,0-1.013-3.058,7.854,7.854,0,0,1,4.726,4.376,11.877,11.877,0,0,0-3.712-1.317ZM24.8,8.936c-.6-.055-1.212-.094-1.839-.094s-1.245.031-1.837.085c.5-2.025,1.259-3.222,1.837-3.222S24.3,6.907,24.8,8.939Zm-5.341.22a11.631,11.631,0,0,0-3.705,1.3,7.876,7.876,0,0,1,4.714-4.341,11.808,11.808,0,0,0-1.007,3.04Zm0,8.777a11.808,11.808,0,0,0,1.008,3.04,7.876,7.876,0,0,1-4.714-4.341,11.631,11.631,0,0,0,3.707,1.306Zm1.663.235c.592.054,1.2.085,1.837.085s1.241-.035,1.839-.091c-.5,2.029-1.258,3.228-1.837,3.228s-1.339-1.2-1.837-3.222Zm5.34-.24a13.084,13.084,0,0,0,2.773-.834v1.143a7.849,7.849,0,0,1-3.777,2.731,11.854,11.854,0,0,0,1.005-3.04Zm4.341.325v-5.1a1.176,1.176,0,1,1,2.353,0v5.489a1.176,1.176,0,0,1-2.353,0Zm3.921-5.1V11.587a1.176,1.176,0,1,1,2.353,0v7.058a1.176,1.176,0,1,1-2.353,0ZM7.274,11.979H2.568V4.921a2.353,2.353,0,1,1,4.705,0ZM8.842,45.7V4.921a3.88,3.88,0,0,0-.8-2.353H34.721a2.353,2.353,0,0,1,2.353,2.353v4.2a2.709,2.709,0,0,0-3.781,1.647,2.716,2.716,0,0,0-1.317-.354c-.049,0-.093.012-.141.014a9.422,9.422,0,1,0-2.6,10.127v2a10.88,10.88,0,0,1-6.274,1.978A10.991,10.991,0,0,1,11.979,13.547H10.411A12.562,12.562,0,0,0,22.958,26.095a12.436,12.436,0,0,0,6.421-1.774,7.009,7.009,0,0,0,3.774,4.962v7.791H14.332a.784.784,0,0,0-.784.784V45.7a2.353,2.353,0,1,1-4.705,0Zm24.311-7.058v9.411H14.311a3.88,3.88,0,0,0,.8-2.353V38.642Zm14.9-15.684a5.47,5.47,0,0,1-3.431,5.09.784.784,0,0,0-.49.727V48.053H34.721V28.776a.784.784,0,0,0-.49-.727A5.471,5.471,0,0,1,30.8,22.958V21.114a2.7,2.7,0,0,0,3.137-.554,2.731,2.731,0,0,0,3.921,0,2.731,2.731,0,0,0,3.921,0,2.689,2.689,0,0,0,2.353.8v.087a5.5,5.5,0,0,0-4.705,5.434h1.568a3.926,3.926,0,0,1,3.921-3.921.784.784,0,0,0,.784-.784V17.468a.784.784,0,0,0-.784-.784H42.171a1.176,1.176,0,0,1,0-2.353H45.7a2.353,2.353,0,0,1,2.353,2.353Z"/>
      <path id="Trazado_934848" data-name="Trazado 934848" d="M15,36H32.253v1.568H15Z" transform="translate(-3.021 -7.553)"/>
      <path id="Trazado_934849" data-name="Trazado 934849" d="M15,40H33.037v1.568H15Z" transform="translate(-3.021 -8.416)"/>
    </g>
  </g>
</svg>
