<svg xmlns="http://www.w3.org/2000/svg" width="69" height="69" viewBox="0 0 69 69">
  <g id="_57" data-name="57" transform="translate(0)">
    <g id="Grupo_1133635" data-name="Grupo 1133635" transform="translate(1.011 1.011)">
      <path id="Trazado_934783" data-name="Trazado 934783" d="M21.2,325.777a1.08,1.08,0,0,1-.739-1.025v-4.623H13.982v4.623a1.08,1.08,0,0,1-.739,1.025L8.977,327.2a2.161,2.161,0,0,0-1.477,2.05v6Z" transform="translate(-7.5 -277.997)" fill="#e29a6c"/>
      <path id="Trazado_934784" data-name="Trazado 934784" d="M10.741,337.414v-7.387l3.529-1.176a4.317,4.317,0,0,0,2.693-2.618,1.09,1.09,0,0,1,.95-.719,9.465,9.465,0,0,0,2.583-.565,1.046,1.046,0,0,1-.032-.2v-4.623H13.982v4.623a1.08,1.08,0,0,1-.739,1.025L8.977,327.2a2.16,2.16,0,0,0-1.477,2.05v6a2.161,2.161,0,0,0,2.161,2.161h1.08Z" transform="translate(-7.5 -277.997)" fill="#d48c64"/>
      <path id="Trazado_934785" data-name="Trazado 934785" d="M10.741,373.693h16.2v-8.165a2.161,2.161,0,0,0-1.477-2.05l-4.256-1.419-3.341,2.505a1.08,1.08,0,0,1-1.3,0l-3.341-2.505-4.256,1.419a2.16,2.16,0,0,0-1.477,2.05Z" transform="translate(-7.5 -314.277)" fill="#b3e1f8"/>
      <path id="Trazado_934786" data-name="Trazado 934786" d="M14.269,365.131a4.3,4.3,0,0,0,1.673-1.04l-2.708-2.031-4.256,1.419a2.16,2.16,0,0,0-1.477,2.05v8.165h3.241v-6.61a1.078,1.078,0,0,1,.737-1.023Z" transform="translate(-7.5 -314.277)" fill="#7ad7ee"/>
      <path id="Trazado_934787" data-name="Trazado 934787" d="M38.03,246a6.482,6.482,0,0,1-6.482-6.482v-4.321a3.241,3.241,0,0,1,3.241-3.241h6.482a3.241,3.241,0,0,1,3.241,3.241v4.321A6.482,6.482,0,0,1,38.03,246Z" transform="translate(-28.307 -201.704)" fill="#f4aa73"/>
      <path id="Trazado_934788" data-name="Trazado 934788" d="M34.79,239.514v-7.562a3.241,3.241,0,0,0-3.241,3.241v3.872a6.932,6.932,0,0,0,4.27,6.507,6.091,6.091,0,0,0,3.832.211A6.478,6.478,0,0,1,34.79,239.514Z" transform="translate(-28.308 -201.704)" fill="#e29a6c"/>
      <path id="Trazado_934789" data-name="Trazado 934789" d="M407.567,327.2l-4.266-1.422a1.08,1.08,0,0,1-.739-1.025v-4.623h-6.482v4.623l-1.9,6.19,14.868-1.694A2.161,2.161,0,0,0,407.567,327.2Z" transform="translate(-342.066 -277.997)" fill="#e29a6c"/>
      <path id="Trazado_934790" data-name="Trazado 934790" d="M363.449,337.414v-7.387l3.529-1.176a4.317,4.317,0,0,0,2.693-2.618,1.09,1.09,0,0,1,.95-.719,9.465,9.465,0,0,0,2.583-.565,1.047,1.047,0,0,1-.032-.2v-4.623H366.69v4.623a1.08,1.08,0,0,1-.739,1.025l-4.266,1.422a2.16,2.16,0,0,0-1.477,2.05v6a2.161,2.161,0,0,0,2.161,2.161Z" transform="translate(-312.675 -277.997)" fill="#d48c64"/>
      <path id="Trazado_934791" data-name="Trazado 934791" d="M378.178,363.479l-4.256-1.419-3.341,2.505a1.081,1.081,0,0,1-1.3,0l-3.341-2.505-5.734,3.469v8.165h19.445v-8.165A2.161,2.161,0,0,0,378.178,363.479Z" transform="translate(-312.677 -314.277)" fill="#b3e1f8"/>
      <path id="Trazado_934792" data-name="Trazado 934792" d="M366.98,365.131a4.3,4.3,0,0,0,1.673-1.04l-2.708-2.031-4.256,1.419a2.16,2.16,0,0,0-1.477,2.05v6a2.161,2.161,0,0,0,2.161,2.161h1.08v-7.387Z" transform="translate(-312.678 -314.277)" fill="#7ad7ee"/>
      <circle id="Elipse_9694" data-name="Elipse 9694" cx="3.241" cy="3.241" r="3.241" transform="translate(39.971 60.497)" fill="#736572"/>
      <path id="Trazado_934793" data-name="Trazado 934793" d="M390.74,246a6.482,6.482,0,0,1-6.482-6.482v-3.241a4.321,4.321,0,0,1,4.321-4.321H392.9a4.321,4.321,0,0,1,4.321,4.321v3.241A6.482,6.482,0,0,1,390.74,246Z" transform="translate(-333.484 -201.704)" fill="#f4aa73"/>
      <circle id="Elipse_9695" data-name="Elipse 9695" cx="2.161" cy="2.161" r="2.161" transform="translate(59.416 55.095)" fill="#736572"/>
      <path id="Trazado_934794" data-name="Trazado 934794" d="M44.513,238.433a13.2,13.2,0,0,1-8.025-2.714,1.072,1.072,0,0,0-1.307-.01l-3.631,2.723v-3.241a3.241,3.241,0,0,1,3.241-3.241h6.482a3.241,3.241,0,0,1,3.241,3.241Z" transform="translate(-28.308 -201.703)" fill="#dbd8db"/>
      <path id="Trazado_934795" data-name="Trazado 934795" d="M387.5,240.5v-7.409a4.311,4.311,0,0,0-3.241,4.168V240.5a6.459,6.459,0,0,0,8.1,6.269A6.479,6.479,0,0,1,387.5,240.5Z" transform="translate(-333.484 -202.685)" fill="#e29a6c"/>
      <path id="Trazado_934796" data-name="Trazado 934796" d="M31.548,235.193v3.241L34.789,236v-4.051A3.241,3.241,0,0,0,31.548,235.193Z" transform="translate(-28.307 -201.704)" fill="#c9c5c9"/>
      <g id="Grupo_1133634" data-name="Grupo 1133634" transform="translate(12.964)">
        <path id="Trazado_934797" data-name="Trazado 934797" d="M141.47,309.8l-9.884-4.233a3.241,3.241,0,0,1-1.965-2.979v-6.509h-10.8v6.509a3.241,3.241,0,0,1-1.965,2.979l-9.884,4.233a5.4,5.4,0,0,0-3.275,4.965v7.24h41.051v-7.24A5.4,5.4,0,0,0,141.47,309.8Z" transform="translate(-103.694 -257.19)" fill="#fbbd80"/>
        <path id="Trazado_934798" data-name="Trazado 934798" d="M139.843,296.079v6.509a3.241,3.241,0,0,1-1.965,2.979l-9.884,4.233,1.275,2.979,9.885-4.234a6.457,6.457,0,0,0,3.665-4.163,2.423,2.423,0,0,1,2.343-1.821,14.824,14.824,0,0,0,5.484-1.006v-5.477h-10.8Z" transform="translate(-124.719 -257.188)" fill="#f4aa73"/>
        <path id="Trazado_934799" data-name="Trazado 934799" d="M158.9,55.6a15.124,15.124,0,0,0-15.124,15.124v5.4H158.9Z" transform="translate(-138.372 -49.115)" fill="#ff744d"/>
        <path id="Trazado_934800" data-name="Trazado 934800" d="M256,55.6a15.124,15.124,0,0,1,15.124,15.124v5.4H256Z" transform="translate(-235.474 -49.115)" fill="#ffaa5a"/>
        <path id="Trazado_934801" data-name="Trazado 934801" d="M138.459,143.32h1.62a2.161,2.161,0,0,0,2.161-2.161v-1.08a4.321,4.321,0,0,1,4.321-4.321h10.8a4.321,4.321,0,0,1,4.321,4.321v1.08a2.161,2.161,0,0,0,2.161,2.161h1.466a2.807,2.807,0,0,1,2.841,2.422,2.7,2.7,0,0,1-2.687,2.979h-1.62a11.883,11.883,0,1,1-23.766,0h-1.467a2.807,2.807,0,0,1-2.841-2.422,2.7,2.7,0,0,1,2.687-2.979Z" transform="translate(-131.437 -118.473)" fill="#ffd18d"/>
        <path id="Trazado_934802" data-name="Trazado 934802" d="M147.26,142.643a38.756,38.756,0,0,0,13.209-5.126l.237-.146a4.294,4.294,0,0,0-3.342-1.613h-10.8a4.321,4.321,0,0,0-4.321,4.321v1.08a2.161,2.161,0,0,1-2.161,2.161h-1.62a2.7,2.7,0,0,0-2.687,2.979,2.807,2.807,0,0,0,2.841,2.422h1.467a11.875,11.875,0,0,0,16.357,11l-2.119-.389a10.791,10.791,0,0,1-8.838-10.615v-3.961A2.168,2.168,0,0,1,147.26,142.643Z" transform="translate(-131.437 -118.473)" fill="#fbbd80"/>
        <circle id="Elipse_9696" data-name="Elipse 9696" cx="8.642" cy="8.642" r="8.642" transform="translate(11.883)" fill="#ffaa5a"/>
        <path id="Trazado_934803" data-name="Trazado 934803" d="M158.948,55.6a15.084,15.084,0,0,1,12,5.941,35.516,35.516,0,0,1-23.88,9.183c-1.091,0-2.168-.057-3.233-.153A15.12,15.12,0,0,1,158.948,55.6Z" transform="translate(-138.423 -49.115)" fill="#ff8b57"/>
        <path id="Trazado_934804" data-name="Trazado 934804" d="M106.934,392.332h37.81v-9.4a5.4,5.4,0,0,0-3.275-4.965l-7.249-3.1-8.8,5.869a2.161,2.161,0,0,1-2.4,0l-8.8-5.869-7.249,3.1a5.4,5.4,0,0,0-3.275,4.965Z" transform="translate(-103.693 -325.353)" fill="#7ad7ee"/>
        <path id="Trazado_934805" data-name="Trazado 934805" d="M114.181,374.258l-7.213,3.186a5.4,5.4,0,0,0-3.275,4.965v9.4h3.241v-9.4a2.156,2.156,0,0,1,1.309-1.985l9.3-4.1Z" transform="translate(-103.693 -324.832)" fill="#4bc3ef"/>
      </g>
    </g>
    <g id="Grupo_1133636" data-name="Grupo 1133636" transform="translate(0 0)">
      <path id="Trazado_934806" data-name="Trazado 934806" d="M135.377,52.694l-9.884-4.233a2.227,2.227,0,0,1-1.352-2.05V42.443a12.913,12.913,0,0,0,6.443-10.173h.649a3.712,3.712,0,0,0,3.692-4.091,3.592,3.592,0,0,0-1.07-2.195,1.012,1.012,0,0,0,.009-.127V22.617A16.121,16.121,0,0,0,127.382,9.7a9.653,9.653,0,1,0-19.306-.008,16.244,16.244,0,0,0-1.369,1.146,16.071,16.071,0,0,0-5.072,10.632,1.011,1.011,0,0,0,2.017.142,14.114,14.114,0,0,1,28.191,1.009v2.305a3.955,3.955,0,0,0-.764-.075h-1.466a1.151,1.151,0,0,1-1.15-1.15v-.713a5.7,5.7,0,0,0-3.046-5.043c.931-.552,1.466-.929,1.543-.984a1.011,1.011,0,0,0-1.174-1.645,40.989,40.989,0,0,1-16.835,6.18A2.233,2.233,0,0,0,107,23.7a1.151,1.151,0,0,1-1.15,1.15h-1.62a3.712,3.712,0,0,0-3.693,4.091,3.83,3.83,0,0,0,3.847,3.332h.494a12.8,12.8,0,0,0,3.738,8.107,12.967,12.967,0,0,0,2.705,2.075v3.96a2.227,2.227,0,0,1-1.352,2.05l-9.884,4.233a6.405,6.405,0,0,0-3.888,5.894v9.4a1.011,1.011,0,0,0,2.021,0v-9.4a4.385,4.385,0,0,1,2.662-4.036l6.119-2.621v6.4h-3.31a3.175,3.175,0,0,0-3.171,3.171v4.321A3.175,3.175,0,0,0,103.685,69a1.011,1.011,0,1,0,0-2.021,1.151,1.151,0,0,1-1.15-1.15V61.507a1.151,1.151,0,0,1,1.15-1.15h8.642a1.151,1.151,0,0,1,1.15,1.15v4.321a1.151,1.151,0,0,1-1.15,1.15,1.011,1.011,0,1,0,0,2.021,3.175,3.175,0,0,0,3.171-3.171V61.507a3.175,3.175,0,0,0-3.171-3.171h-3.31V52.593l6.953,4.635a3.163,3.163,0,0,0,3.518,0l6.953-4.635v8.026a4.252,4.252,0,1,0,2.021,0V51.931l6.119,2.621a4.386,4.386,0,0,1,2.662,4.036v9.4a1.011,1.011,0,1,0,2.021,0v-9.4A6.405,6.405,0,0,0,135.377,52.694ZM110.213,8.336a7.63,7.63,0,0,1,15.032.008,16.133,16.133,0,0,0-15.032-.008Zm-3.357,22.923a1.011,1.011,0,0,0-1.011-1.011h-1.466a1.793,1.793,0,0,1-1.835-1.512,1.69,1.69,0,0,1,1.681-1.868h1.62a3.176,3.176,0,0,0,3.171-3.176.2.2,0,0,1,.189-.2A43.563,43.563,0,0,0,122.9,19.309a3.682,3.682,0,0,1,3.545,3.675V23.7a3.175,3.175,0,0,0,3.171,3.171h1.466a1.793,1.793,0,0,1,1.835,1.512,1.69,1.69,0,0,1-1.681,1.868h-1.62a1.011,1.011,0,0,0-1.011,1.011,10.872,10.872,0,1,1-21.745,0Zm11.51,24.287a1.147,1.147,0,0,1-1.276,0l-7.25-4.834.92-.394a4.247,4.247,0,0,0,2.578-3.908V43.389a12.947,12.947,0,0,0,8.782-.007v3.028a4.247,4.247,0,0,0,2.578,3.908l.92.394Zm11.315,9.2a2.23,2.23,0,1,1-2.23-2.23A2.233,2.233,0,0,1,129.681,64.748Z" transform="translate(-83.229 0)"/>
      <path id="Trazado_934807" data-name="Trazado 934807" d="M209.43,200.4a1.011,1.011,0,0,0-1.011,1.011v1.08a1.011,1.011,0,0,0,2.021,0v-1.08A1.011,1.011,0,0,0,209.43,200.4Z" transform="translate(-180.331 -173.396)"/>
      <path id="Trazado_934808" data-name="Trazado 934808" d="M289.592,203.5a1.011,1.011,0,0,0,1.011-1.011v-1.08a1.011,1.011,0,1,0-2.021,0v1.08A1.011,1.011,0,0,0,289.592,203.5Z" transform="translate(-249.69 -173.396)"/>
      <path id="Trazado_934809" data-name="Trazado 934809" d="M232.723,248.866a1.011,1.011,0,0,0-1.423-.137,4.4,4.4,0,0,1-5.2,0,1.011,1.011,0,1,0-1.286,1.56,6.408,6.408,0,0,0,7.768,0A1.011,1.011,0,0,0,232.723,248.866Z" transform="translate(-194.202 -215.009)"/>
      <path id="Trazado_934810" data-name="Trazado 934810" d="M392.817,243.457l-4.265-1.422a.07.07,0,0,1-.048-.066v-2.779a7.488,7.488,0,0,0,3.241-6.165v-3.241a5.338,5.338,0,0,0-5.332-5.332h-4.321a5.338,5.338,0,0,0-5.332,5.332v3.241A7.489,7.489,0,0,0,380,239.19v2.779a.07.07,0,0,1-.048.066l-1.422.474a1.011,1.011,0,1,0,.639,1.918l.91-.3L383,246.311a2.1,2.1,0,0,0,2.509,0l2.056-1.542v4.7a3.171,3.171,0,1,0,2.022,0V244.51l2.594.865a1.148,1.148,0,0,1,.786,1.091v8.165a1.011,1.011,0,1,0,2.021,0v-8.165A3.168,3.168,0,0,0,392.817,243.457Zm-14.036-10.432v-3.241a3.314,3.314,0,0,1,3.31-3.311h4.321a3.314,3.314,0,0,1,3.31,3.311v3.241a5.471,5.471,0,1,1-10.942,0Zm5.513,11.669a.07.07,0,0,1-.083,0l-2.4-1.8a2.087,2.087,0,0,0,.215-.922v-1.79a7.507,7.507,0,0,0,4.46,0v1.79a2.089,2.089,0,0,0,.215.922Zm4.28,8.926a1.15,1.15,0,1,1,1.15-1.15A1.151,1.151,0,0,1,388.573,253.62Z" transform="translate(-325.986 -194.204)"/>
      <path id="Trazado_934811" data-name="Trazado 934811" d="M9.479,246.31a2.1,2.1,0,0,0,2.509,0l2.917-2.188.91.3a1.011,1.011,0,1,0,.639-1.918l-1.422-.474a.07.07,0,0,1-.048-.066v-2.779a7.489,7.489,0,0,0,3.241-6.165V228.7a4.256,4.256,0,0,0-4.252-4.252H7.493A4.256,4.256,0,0,0,3.241,228.7v4.321a7.489,7.489,0,0,0,3.241,6.165v2.779a.07.07,0,0,1-.048.066l-4.265,1.422A3.167,3.167,0,0,0,0,246.464v8.165a1.011,1.011,0,0,0,2.021,0v-8.165a1.148,1.148,0,0,1,.786-1.091l3.674-1.225V249.3H5.332a2.093,2.093,0,0,0-2.091,2.091v2.161a2.093,2.093,0,0,0,2.091,2.091,1.011,1.011,0,0,0,0-2.021.07.07,0,0,1-.07-.07v-2.161a.07.07,0,0,1,.07-.07H9.653a.07.07,0,0,1,.07.07v2.161a.07.07,0,0,1-.07.07,1.011,1.011,0,0,0,0,2.021,2.093,2.093,0,0,0,2.091-2.091v-2.161A2.094,2.094,0,0,0,9.653,249.3H8.5v-3.72ZM7.493,226.473h6.482a2.233,2.233,0,0,1,2.23,2.23v2.188a12.293,12.293,0,0,1-6.394-2.459,2.092,2.092,0,0,0-2.534-.02l-2.014,1.511V228.7a2.232,2.232,0,0,1,2.23-2.23Zm-2.23,6.551v-.575l3.227-2.42a.062.062,0,0,1,.08,0,14.123,14.123,0,0,0,7.635,2.891v.106a5.471,5.471,0,1,1-10.942,0Zm5.471,7.493a7.465,7.465,0,0,0,2.23-.339v1.79a2.087,2.087,0,0,0,.215.922l-2.4,1.8a.07.07,0,0,1-.083,0l-2.4-1.8a2.087,2.087,0,0,0,.215-.922v-1.79A7.462,7.462,0,0,0,10.734,240.516Z" transform="translate(0 -194.203)"/>
    </g>
  </g>
</svg>
