<svg xmlns="http://www.w3.org/2000/svg" width="87.478" height="87.478" viewBox="0 0 87.478 87.478">
  <g id="_60" data-name="60" transform="translate(-316.086 -6129.447)">
    <circle id="Elipse_5797" data-name="Elipse 5797" cx="43.739" cy="43.739" r="43.739" transform="translate(316.086 6129.447)" fill="#e8f0ff"/>
    <g id="human-rights_6800023" transform="translate(307.696 6149.337)">
      <g id="Grupo_1132601" data-name="Grupo 1132601" transform="translate(29.989 0.757)">
        <g id="Grupo_1132586" data-name="Grupo 1132586" transform="translate(32.353 0)">
          <path id="Trazado_933073" data-name="Trazado 933073" d="M366.994,11.754a4.254,4.254,0,0,0-8.508,0l-1.34,5.646h7.309a2.538,2.538,0,0,0,2.538-2.538V11.754Z" transform="translate(-357.147 -7.5)" fill="#e5e5e5"/>
        </g>
        <g id="Grupo_1132587" data-name="Grupo 1132587" transform="translate(0 0)">
          <path id="Trazado_933074" data-name="Trazado 933074" d="M40.986,7.5a4.254,4.254,0,0,0-4.254,4.254V49.133a3.242,3.242,0,0,0,3.242,3.242H61.968l5.556-.457c1.79,0,2.2-1.163,2.2-2.953l.7-25.6V11.754A4.254,4.254,0,0,1,74.679,7.5Z" transform="translate(-36.732 -7.5)" fill="#f4f4f4"/>
        </g>
        <g id="Grupo_1132588" data-name="Grupo 1132588" transform="translate(22.702 15.868)">
          <path id="Trazado_933075" data-name="Trazado 933075" d="M269.311,193.658a3.242,3.242,0,0,0,3.242-3.242V164.652h0a4.126,4.126,0,0,0-1.419.232,2.269,2.269,0,0,1-1.506.006,4.128,4.128,0,0,0-1.425-.237,4.2,4.2,0,0,0-4.1,4.222V172.3a2.2,2.2,0,0,1-.887,1.787,3.979,3.979,0,0,0-1.647,3.223v4.951a4.97,4.97,0,0,0,1.027,3.017l1.319,1.713a.911.911,0,0,1,.188.553v6.114h5.215Z" transform="translate(-261.561 -164.651)" fill="#e5e5e5"/>
        </g>
        <g id="Grupo_1132589" data-name="Grupo 1132589" transform="translate(0)">
          <path id="Trazado_933076" data-name="Trazado 933076" d="M40.032,49.133V11.754A4.254,4.254,0,0,1,44.286,7.5h-3.3a4.254,4.254,0,0,0-4.254,4.254V49.133a3.242,3.242,0,0,0,3.242,3.242h3.3A3.242,3.242,0,0,1,40.032,49.133Z" transform="translate(-36.732 -7.5)" fill="#e5e5e5"/>
        </g>
        <g id="Grupo_1132590" data-name="Grupo 1132590" transform="translate(10.208 5.562)">
          <circle id="Elipse_5921" data-name="Elipse 5921" cx="6.639" cy="6.639" r="6.639" fill="#69d6f4"/>
        </g>
        <g id="Grupo_1132591" data-name="Grupo 1132591" transform="translate(24.721 23.542)">
          <path id="Trazado_933077" data-name="Trazado 933077" d="M283.525,243.668a1.964,1.964,0,0,0-1.964,1.964v4.951a2.926,2.926,0,0,0,.608,1.785l1.319,1.713a2.926,2.926,0,0,1,.608,1.785v9.559a1.864,1.864,0,0,0,1.864,1.864h11.112a1.864,1.864,0,0,0,1.864-1.864v-9.37a2.926,2.926,0,0,1,.825-2.036l.536-.554a2.927,2.927,0,0,0,.825-2.036V240.647Z" transform="translate(-281.561 -240.647)" fill="#d29771"/>
        </g>
        <g id="Grupo_1132592" data-name="Grupo 1132592" transform="translate(31.512 17.888)">
          <path id="Trazado_933078" data-name="Trazado 933078" d="M350.938,193.326H348.81v-6.547a2.128,2.128,0,1,1,4.256,0V191.2A2.128,2.128,0,0,1,350.938,193.326Z" transform="translate(-348.81 -184.651)" fill="#d29771"/>
        </g>
        <g id="Grupo_1132593" data-name="Grupo 1132593" transform="translate(24.721 26.563)">
          <path id="Trazado_933079" data-name="Trazado 933079" d="M285.876,292.325v-9.559a2.927,2.927,0,0,0-.608-1.785l-1.319-1.713a2.926,2.926,0,0,1-.608-1.785v-4.951a1.964,1.964,0,0,1,1.964-1.964h-1.781a1.964,1.964,0,0,0-1.964,1.964v4.951a2.926,2.926,0,0,0,.608,1.785l1.319,1.713a2.926,2.926,0,0,1,.608,1.785v9.559a1.864,1.864,0,0,0,1.864,1.864h1.781A1.864,1.864,0,0,1,285.876,292.325Z" transform="translate(-281.561 -270.568)" fill="#ba7e5d"/>
        </g>
        <g id="Grupo_1132594" data-name="Grupo 1132594" transform="translate(31.512 17.888)">
          <path id="Trazado_933080" data-name="Trazado 933080" d="M351.765,184.818a2.129,2.129,0,0,0-2.955,1.961v6.547h1.654v-6.547A2.128,2.128,0,0,1,351.765,184.818Z" transform="translate(-348.81 -184.651)" fill="#ba7e5d"/>
        </g>
        <g id="Grupo_1132595" data-name="Grupo 1132595" transform="translate(27.255 17.888)">
          <path id="Trazado_933081" data-name="Trazado 933081" d="M310.912,193.326h-4.256v-6.547a2.128,2.128,0,1,1,4.256,0v6.547Z" transform="translate(-306.656 -184.651)" fill="#d29771"/>
        </g>
        <g id="Grupo_1132596" data-name="Grupo 1132596" transform="translate(27.255 17.888)">
          <path id="Trazado_933082" data-name="Trazado 933082" d="M309.612,184.818a2.129,2.129,0,0,0-2.955,1.961v6.547h1.654v-6.547A2.129,2.129,0,0,1,309.612,184.818Z" transform="translate(-306.657 -184.651)" fill="#ba7e5d"/>
        </g>
        <g id="Grupo_1132597" data-name="Grupo 1132597" transform="translate(35.768 17.888)">
          <path id="Trazado_933083" data-name="Trazado 933083" d="M393.091,193.327a2.128,2.128,0,0,1-2.128-2.128V186.78a2.128,2.128,0,0,1,4.256,0V191.2A2.128,2.128,0,0,1,393.091,193.327Z" transform="translate(-390.963 -184.652)" fill="#d29771"/>
        </g>
        <g id="Grupo_1132598" data-name="Grupo 1132598" transform="translate(35.768 17.888)">
          <path id="Trazado_933084" data-name="Trazado 933084" d="M392.616,191.2v-4.419a2.129,2.129,0,0,1,1.3-1.961,2.129,2.129,0,0,0-2.955,1.961V191.2a2.129,2.129,0,0,0,2.955,1.961A2.129,2.129,0,0,1,392.616,191.2Z" transform="translate(-390.962 -184.651)" fill="#ba7e5d"/>
        </g>
        <g id="Grupo_1132599" data-name="Grupo 1132599" transform="translate(40.024 17.888)">
          <path id="Trazado_933085" data-name="Trazado 933085" d="M435.243,193.327a2.128,2.128,0,0,1-2.128-2.128V186.78a2.128,2.128,0,0,1,4.256,0V191.2A2.128,2.128,0,0,1,435.243,193.327Z" transform="translate(-433.115 -184.652)" fill="#d29771"/>
        </g>
        <g id="Grupo_1132600" data-name="Grupo 1132600" transform="translate(40.024 17.888)">
          <path id="Trazado_933086" data-name="Trazado 933086" d="M434.769,191.2v-4.419a2.129,2.129,0,0,1,1.3-1.961,2.129,2.129,0,0,0-2.955,1.961V191.2a2.129,2.129,0,0,0,2.955,1.961A2.129,2.129,0,0,1,434.769,191.2Z" transform="translate(-433.115 -184.651)" fill="#ba7e5d"/>
        </g>
      </g>
      <g id="Grupo_1132602" data-name="Grupo 1132602" transform="translate(29.232 0)">
        <path id="Trazado_933087" data-name="Trazado 933087" d="M54.5,44.875H33.231a2.487,2.487,0,0,1-2.484-2.484V5.011a3.5,3.5,0,0,1,3.5-3.5h4.279a.757.757,0,1,0,0-1.515H34.243a5.017,5.017,0,0,0-5.011,5.011V42.39a4,4,0,0,0,4,4H54.5a.757.757,0,1,0,0-1.515Z" transform="translate(-29.232 0)"/>
        <path id="Trazado_933088" data-name="Trazado 933088" d="M145.128,1.515h22.734a4.994,4.994,0,0,0-1.425,3.5V16.317a.757.757,0,1,0,1.515,0V5.011a3.5,3.5,0,0,1,6.993,0V8.119A1.783,1.783,0,0,1,173.165,9.9H170.16a.757.757,0,1,0,0,1.515h3.005a3.3,3.3,0,0,0,3.3-3.3V5.011A5.017,5.017,0,0,0,171.449,0H145.128a.757.757,0,1,0,0,1.515Z" transform="translate(-132.745 0)"/>
        <path id="Trazado_933089" data-name="Trazado 933089" d="M137.724,69.877a7.4,7.4,0,1,0-7.4-7.4A7.4,7.4,0,0,0,137.724,69.877Zm-5.831-6.639h2.422a13.131,13.131,0,0,0,.819,4.219c.053.132.109.258.167.38A5.9,5.9,0,0,1,131.893,63.238Zm5.831-6.638c.3,0,.776.454,1.184,1.469a11.526,11.526,0,0,1,.708,3.654h-3.785a11.521,11.521,0,0,1,.708-3.654C136.948,57.054,137.428,56.6,137.724,56.6Zm1.892,6.638a11.522,11.522,0,0,1-.708,3.654c-.408,1.015-.889,1.469-1.184,1.469s-.776-.454-1.184-1.469a11.523,11.523,0,0,1-.708-3.654Zm.53,4.6c.057-.122.113-.248.167-.38a13.131,13.131,0,0,0,.819-4.219h2.422A5.894,5.894,0,0,1,140.146,67.838Zm3.408-6.114h-2.422a13.131,13.131,0,0,0-.819-4.219c-.053-.132-.109-.258-.167-.38A5.9,5.9,0,0,1,143.555,61.723Zm-8.253-4.6c-.057.122-.114.248-.167.38a13.131,13.131,0,0,0-.819,4.219h-2.422A5.894,5.894,0,0,1,135.3,57.124Z" transform="translate(-120.12 -49.523)"/>
        <path id="Trazado_933090" data-name="Trazado 933090" d="M125.154,234.214a.757.757,0,0,0-.757-.757H110.282a.757.757,0,1,0,0,1.515H124.4A.757.757,0,0,0,125.154,234.214Z" transform="translate(-101.418 -209.884)"/>
        <path id="Trazado_933091" data-name="Trazado 933091" d="M123.185,269.032h-12.9a.757.757,0,1,0,0,1.515h12.9a.757.757,0,1,0,0-1.515Z" transform="translate(-101.418 -241.867)"/>
        <path id="Trazado_933092" data-name="Trazado 933092" d="M123.185,304.606h-12.9a.757.757,0,1,0,0,1.515h12.9a.757.757,0,1,0,0-1.515Z" transform="translate(-101.418 -273.849)"/>
        <path id="Trazado_933093" data-name="Trazado 933093" d="M292.249,177.15a2.878,2.878,0,0,0-2.128.939,2.881,2.881,0,0,0-4.256,0,2.881,2.881,0,0,0-4.256,0,2.884,2.884,0,0,0-5.014,1.946v5.8a2.724,2.724,0,0,0-2.534,2.714V193.5a3.7,3.7,0,0,0,.765,2.247l1.319,1.713a2.18,2.18,0,0,1,.45,1.323v9.559a2.624,2.624,0,0,0,2.621,2.621h11.112a2.624,2.624,0,0,0,2.621-2.621v-1.553a.757.757,0,0,0-1.515,0v1.553a1.108,1.108,0,0,1-1.107,1.107H279.216a1.108,1.108,0,0,1-1.107-1.107v-8.622l.528.607a4.757,4.757,0,0,0,3.59,1.635h4.527a.757.757,0,1,0,0-1.515h-4.527a3.243,3.243,0,0,1-2.447-1.114l-2.45-2.815-1.3-1.694a2.18,2.18,0,0,1-.45-1.323v-4.951a1.208,1.208,0,0,1,1.207-1.207h4.908a1.371,1.371,0,0,1,0,2.742h-2.8a.757.757,0,0,0,0,1.515h1.349v1.512a.842.842,0,0,1-.841.841h-.569a.757.757,0,1,0,0,1.515h.569a2.359,2.359,0,0,0,2.356-2.356v-1.514a2.883,2.883,0,0,0,2.451-4.293,2.883,2.883,0,0,0,1.659-.9,2.881,2.881,0,0,0,4.256,0,2.881,2.881,0,0,0,3.5.592v7.351a2.158,2.158,0,0,1-.611,1.509l-.536.553a3.665,3.665,0,0,0-1.038,2.563v4.723a.757.757,0,0,0,1.515,0V198.97a2.158,2.158,0,0,1,.611-1.509l.536-.553a3.665,3.665,0,0,0,1.038-2.563V180.036A2.889,2.889,0,0,0,292.249,177.15Zm-14.14,2.886a1.371,1.371,0,0,1,2.742,0v5.79H278.11Zm5.627,5.79h-1.371v-5.79a1.371,1.371,0,1,1,2.742,0v4.419A1.372,1.372,0,0,1,283.737,185.825Zm4.256,0a1.372,1.372,0,0,1-1.371-1.371v-4.419a1.371,1.371,0,0,1,2.742,0v4.419A1.372,1.372,0,0,1,287.993,185.825Zm4.256,0a1.372,1.372,0,0,1-1.371-1.371v-4.419a1.371,1.371,0,1,1,2.742,0v4.419A1.372,1.372,0,0,1,292.249,185.825Z" transform="translate(-249.34 -159.263)"/>
      </g>
    </g>
  </g>
</svg>
