<svg xmlns="http://www.w3.org/2000/svg" width="87.478" height="87.478" viewBox="0 0 87.478 87.478">
  <g id="_61" data-name="61" transform="translate(-285 -6236.676)">
    <circle id="Elipse_5798" data-name="Elipse 5798" cx="43.739" cy="43.739" r="43.739" transform="translate(285 6236.676)" fill="#e8f0ff"/>
    <g id="business-strategy_10327438" transform="translate(304.7 6256.375)">
      <path id="Trazado_933094" data-name="Trazado 933094" d="M17.026,33.052H3.4a2.4,2.4,0,0,1-2.4-2.4V3.4A2.4,2.4,0,0,1,3.4,1H38.661a2.4,2.4,0,0,1,2.4,2.4V30.648a2.4,2.4,0,0,1-2.4,2.4Z" transform="translate(-0.199 -0.199)" fill="#e0e5ea"/>
      <rect id="Rectángulo_414320" data-name="Rectángulo 414320" width="8" height="17" rx="2" transform="translate(39.039 30.039)" fill="#ff634e"/>
      <rect id="Rectángulo_414321" data-name="Rectángulo 414321" width="8" height="20" rx="2" transform="translate(17.039 27.039)" fill="#f2cc2f"/>
      <rect id="Rectángulo_414322" data-name="Rectángulo 414322" width="8" height="28" rx="2" transform="translate(28.039 19.039)" fill="#ff884c"/>
      <g id="Grupo_1132604" data-name="Grupo 1132604">
        <path id="Trazado_933095" data-name="Trazado 933095" d="M45.674,28.847H41.668V3.205A3.208,3.208,0,0,0,38.463,0H3.205A3.208,3.208,0,0,0,0,3.205V30.449a3.208,3.208,0,0,0,3.205,3.205H16.026v12.02a2.407,2.407,0,0,0,2.4,2.4h4.808a2.407,2.407,0,0,0,2.4-2.4V33.655h1.6v12.02a2.407,2.407,0,0,0,2.4,2.4h4.808a2.407,2.407,0,0,0,2.4-2.4V33.655h1.6v12.02a2.407,2.407,0,0,0,2.4,2.4h4.808a2.407,2.407,0,0,0,2.4-2.4V36.059a.8.8,0,1,0-1.6,0v9.616a.8.8,0,0,1-.8.8H40.866a.8.8,0,0,1-.8-.8V31.251a.8.8,0,0,1,.8-.8h4.808a.8.8,0,0,1,.8.8v1.6a.8.8,0,0,0,1.6,0v-1.6A2.407,2.407,0,0,0,45.674,28.847ZM24.039,45.674a.8.8,0,0,1-.8.8H18.43a.8.8,0,0,1-.8-.8V28.847a.8.8,0,0,1,.8-.8h4.808a.8.8,0,0,1,.8.8Zm11.218,0a.8.8,0,0,1-.8.8H29.648a.8.8,0,0,1-.8-.8V20.834a.8.8,0,0,1,.8-.8h4.808a.8.8,0,0,1,.8.8Zm3.205-14.423v.8h-1.6V20.834a2.407,2.407,0,0,0-2.4-2.4H29.648a2.407,2.407,0,0,0-2.4,2.4V32.052h-1.6V28.847a2.407,2.407,0,0,0-2.4-2.4H18.43a2.407,2.407,0,0,0-2.4,2.4v3.205H3.205a1.6,1.6,0,0,1-1.6-1.6V3.205a1.6,1.6,0,0,1,1.6-1.6H38.463a1.6,1.6,0,0,1,1.6,1.6V28.994A2.4,2.4,0,0,0,38.463,31.251Z" fill="#262626"/>
        <path id="Trazado_933096" data-name="Trazado 933096" d="M36.426,7.606a.8.8,0,0,0-.973-.582L30.358,8.308a.8.8,0,0,0,.391,1.555l3.2-.806A35.981,35.981,0,0,1,16.855,24.533a30.4,30.4,0,0,1-10.068,2.5.8.8,0,0,0,.016,1.6h.016a31.363,31.363,0,0,0,10.595-2.6A37.561,37.561,0,0,0,35.341,9.854l.816,3.239a.8.8,0,0,0,.776.606.828.828,0,0,0,.2-.024.8.8,0,0,0,.582-.973L36.427,7.607Z" transform="translate(-1.193 -1.391)" fill="#262626"/>
        <path id="Trazado_933097" data-name="Trazado 933097" d="M20.235,14.176a.8.8,0,0,0,1.133,0l1.837-1.837,1.837,1.837a.8.8,0,0,0,1.133-1.133l-1.837-1.837,1.837-1.837a.8.8,0,0,0-1.133-1.133l-1.837,1.837L21.368,8.235a.8.8,0,1,0-1.133,1.133l1.837,1.837-1.837,1.837a.8.8,0,0,0,0,1.133Z" transform="translate(-3.974 -1.59)" fill="#262626"/>
        <path id="Trazado_933098" data-name="Trazado 933098" d="M8.235,23.176a.8.8,0,0,0,1.133,0l1.837-1.837,1.837,1.837a.8.8,0,0,0,1.133-1.133l-1.837-1.837,1.837-1.837a.8.8,0,1,0-1.133-1.133l-1.837,1.837L9.368,17.235a.8.8,0,1,0-1.133,1.133l1.837,1.837L8.235,22.043a.8.8,0,0,0,0,1.133Z" transform="translate(-1.59 -3.378)" fill="#262626"/>
      </g>
    </g>
  </g>
</svg>
