<svg xmlns="http://www.w3.org/2000/svg" width="67.6" height="60.642" viewBox="0 0 67.6 60.642">
  <g id="orgullo_3_" data-name="orgullo (3)" transform="translate(0 -26.352)">
    <g id="Grupo_1088348" data-name="Grupo 1088348" transform="translate(0.99 27.341)">
      <path id="Trazado_862566" data-name="Trazado 862566" d="M245.145,38.321a4.474,4.474,0,0,1-4.474,4.474h-32.81c-.261-.207-2.293-1.865-2.158-4.143.148-2.5,2.849-4.894,6.467-4.8h28.5A4.474,4.474,0,0,1,245.145,38.321Z" transform="translate(-179.525 -33.845)" fill="#7a8fa5"/>
      <path id="Trazado_862567" data-name="Trazado 862567" d="M40.146,33.863a4.31,4.31,0,0,0-4.309,4.309v4.639H11.975a4.474,4.474,0,0,1,0-8.948Z" transform="translate(-7.501 -33.861)" fill="#5b778f"/>
      <path id="Trazado_862568" data-name="Trazado 862568" d="M96.949,71.5a232.194,232.194,0,0,1,0,51.516L88,124.937A74.782,74.782,0,0,1,88,71.5Z" transform="translate(-73.086 -66.53)" fill="#2ecefb"/>
      <path id="Trazado_862569" data-name="Trazado 862569" d="M238.71,71.5h8.948a64.727,64.727,0,0,1,0,51.516c-7.839-1.679-7.839-1.738-8.948-1.738a119.262,119.262,0,0,1,0-49.778Z" transform="translate(-205.901 -66.53)" fill="#ffcf6b"/>
      <path id="Trazado_862570" data-name="Trazado 862570" d="M382.144,75.464v41.8a7.923,7.923,0,0,1-9.583,7.747l-.359-.077a123.026,123.026,0,0,1,0-53.434h5.98A3.962,3.962,0,0,1,382.144,75.464Z" transform="translate(-321.496 -66.53)" fill="#ff6e80"/>
      <path id="Trazado_862571" data-name="Trazado 862571" d="M208.151,71.5v49.778a11.052,11.052,0,0,0-2.617.382,5.112,5.112,0,0,1-3.316-1.119c-2.68-2.368-.662-7.29.2-14.005,1.483-11.494-2.252-13.958-.409-26.989a64.74,64.74,0,0,1,1.664-8.046Z" transform="translate(-175.341 -66.53)" fill="#8ce09f"/>
      <path id="Trazado_862572" data-name="Trazado 862572" d="M194.541,121.662l-6.33,1.356V71.5h4.474v44.812a8.563,8.563,0,0,0,1.857,5.348Z" transform="translate(-164.349 -66.53)" fill="#24ce64"/>
      <path id="Trazado_862573" data-name="Trazado 862573" d="M55.093,71.5v53.434a7.929,7.929,0,0,1-9.942-7.671v-41.8A3.962,3.962,0,0,1,49.112,71.5Z" transform="translate(-40.179 -66.53)" fill="#996acc"/>
      <path id="Trazado_862574" data-name="Trazado 862574" d="M332.68,71.5v53.434l-8.949-1.919V71.5Z" transform="translate(-281.974 -66.53)" fill="#ff9a5c"/>
      <path id="Trazado_862575" data-name="Trazado 862575" d="M208.374,204.84a6.622,6.622,0,0,1-5.57,0q-.887-.41-1.689-.841a17.815,17.815,0,0,1,0-20.347,15.718,15.718,0,0,1,2.934.978,3.247,3.247,0,0,0,3.079,0C217.162,179.217,227.4,196.057,208.374,204.84Z" transform="translate(-172.78 -163.808)" fill="#fbf0ee"/>
      <path id="Trazado_862576" data-name="Trazado 862576" d="M163.022,183.661v20.347C148.009,195.94,154.5,182.5,163.022,183.661Z" transform="translate(-134.686 -163.817)" fill="#ebd5d3"/>
    </g>
    <g id="Grupo_1088349" data-name="Grupo 1088349" transform="translate(0 26.352)">
      <path id="Trazado_862577" data-name="Trazado 862577" d="M67.6,31.816a5.471,5.471,0,0,0-5.465-5.464H5.464a5.464,5.464,0,0,0-.493,10.906V78.076a8.913,8.913,0,0,0,10.781,8.715c17.917-3.84,17-3.709,18.035-3.711,1.416.074.046-.152,18.062,3.711a8.913,8.913,0,0,0,10.781-8.715V37.258A5.471,5.471,0,0,0,67.6,31.816ZM6.952,78.076v-41.8A2.974,2.974,0,0,1,9.923,33.3h4.991V76.06a.99.99,0,1,0,1.981,0V33.3h6.967V47.373a9.631,9.631,0,0,0-4.487,8.959,12.948,12.948,0,0,0,4.487,8.579V83.028l-6.967,1.493V80.037a.99.99,0,0,0-1.981,0v4.894a6.931,6.931,0,0,1-7.962-6.855ZM32.81,33.3V47.33c-.027-.013-.053-.026-.08-.04a8.893,8.893,0,0,0-6.888-.809V33.3Zm8.948,0V46.481a8.894,8.894,0,0,0-6.888.809l-.08.04V33.3Zm-5.589,34.17a5.637,5.637,0,0,1-4.738,0c-4.849-2.241-9.71-6-10.081-11.281-.4-5.672,5.032-10.075,10.439-7.159a4.223,4.223,0,0,0,4.02,0C44.689,44.245,53.9,59.277,36.169,67.474ZM25.842,82.6V66.532a28.506,28.506,0,0,0,4.758,2.74,7.63,7.63,0,0,0,2.209.638V81.157C32.187,81.227,32.563,81.164,25.842,82.6Zm8.948-1.447V69.909A7.628,7.628,0,0,0,37,69.272a28.5,28.5,0,0,0,4.758-2.74V82.6C35.066,81.17,35.4,81.226,34.791,81.157Zm25.858-3.08a6.931,6.931,0,0,1-7.962,6.855V40.267a.99.99,0,0,0-1.981,0V84.521l-6.967-1.493V64.911a12.947,12.947,0,0,0,4.487-8.579,9.631,9.631,0,0,0-4.487-8.959V33.3h6.967V36.29a.99.99,0,1,0,1.981,0V33.3h4.991a2.975,2.975,0,0,1,2.971,2.971Zm1.88-42.8a4.96,4.96,0,0,0-4.851-3.954H9.923a4.96,4.96,0,0,0-4.851,3.954,3.483,3.483,0,0,1,.392-6.945H62.136a3.483,3.483,0,0,1,.392,6.945Z" transform="translate(0 -26.352)"/>
    </g>
  </g>
</svg>
