<svg xmlns="http://www.w3.org/2000/svg" xmlns:xlink="http://www.w3.org/1999/xlink" width="103" height="103" viewBox="0 0 103 103">
  <defs>
    <filter id="Trazado_842289" x="0" y="0" width="103" height="103" filterUnits="userSpaceOnUse">
      <feOffset dy="3" input="SourceAlpha"/>
      <feGaussianBlur stdDeviation="3" result="blur"/>
      <feFlood flood-opacity="0.161"/>
      <feComposite operator="in" in2="blur"/>
      <feComposite in="SourceGraphic"/>
    </filter>
  </defs>
  <g id="_8" data-name="8" transform="translate(-275.5 -20433.543)">
    <g id="Grupo_1097314" data-name="Grupo 1097314">
      <g transform="matrix(1, 0, 0, 1, 275.5, 20433.54)" filter="url(#Trazado_842289)">
        <path id="Trazado_842289-2" data-name="Trazado 842289" d="M42.5,0A42.5,42.5,0,1,1,0,42.5,42.5,42.5,0,0,1,42.5,0Z" transform="translate(9 6)" fill="#3c1c74"/>
      </g>
      <path id="Trazado_873920" data-name="Trazado 873920" d="M72.688,163.4a.808.808,0,0,0,.808-.808v-.717h.717a.808.808,0,1,0,0-1.616H73.5v-.717a.808.808,0,0,0-1.617,0v.717h-.717a.808.808,0,1,0,0,1.616h.717v.717A.808.808,0,0,0,72.688,163.4Z" transform="translate(282.142 20323.832)" fill="#f7df3f"/>
      <path id="Trazado_873921" data-name="Trazado 873921" d="M72.688,163.4a.808.808,0,0,0,.808-.808v-.717h.717a.808.808,0,1,0,0-1.616H73.5v-.717a.808.808,0,0,0-1.617,0v.717h-.717a.808.808,0,1,0,0,1.616h.717v.717A.808.808,0,0,0,72.688,163.4Z" transform="translate(227.037 20307.398)" fill="#f7df3f"/>
      <path id="Trazado_873922" data-name="Trazado 873922" d="M72.688,163.4a.808.808,0,0,0,.808-.808v-.717h.717a.808.808,0,1,0,0-1.616H73.5v-.717a.808.808,0,0,0-1.617,0v.717h-.717a.808.808,0,1,0,0,1.616h.717v.717A.808.808,0,0,0,72.688,163.4Z" transform="translate(267.707 20352.602)" fill="#f7df3f"/>
      <g id="usuario_5_" data-name="usuario (5)" transform="translate(302.601 20455.145)">
        <g id="Icons" transform="translate(0.866 0.863)">
          <path id="Trazado_934812" data-name="Trazado 934812" d="M37.985,57.087H2a1,1,0,0,1-.958-1.278c.3-1.045.613-2.081.915-3.117a10.179,10.179,0,0,1,1.416-3.3A8.035,8.035,0,0,1,8.46,46.157L14.814,45s1.183,2.59,5.18,2.59S25.174,45,25.174,45l6.354,1.157a8.035,8.035,0,0,1,5.085,3.237,10.179,10.179,0,0,1,1.416,3.3c.3,1.036.613,2.072.915,3.117a1,1,0,0,1-.958,1.278Z" transform="translate(-1.003 -7.013)" fill="#00bcd4"/>
          <path id="Trazado_934813" data-name="Trazado 934813" d="M36.08,14.053a10.827,10.827,0,0,1-2.443,6.3,2.926,2.926,0,0,0-1.416-.363h-.458V18.18A2.575,2.575,0,0,0,29.389,15.6c-9.574-.656-13.951-5.1-13.951-5.1a10.878,10.878,0,0,1-4.722,4.584,2.573,2.573,0,0,0-1.4,2.3v2.616H8.859a3.034,3.034,0,0,0-1.442.371A9.766,9.766,0,0,1,5,13.052,12.33,12.33,0,0,1,17.432,1C28.189,1,36.08,6.024,36.08,14.053Z" transform="translate(-1.55 -0.999)" fill="sienna"/>
          <path id="Trazado_934814" data-name="Trazado 934814" d="M19.254,1c-.318,0-.617.029-.923.049,9.893.5,16.981,5.4,16.981,13a10.656,10.656,0,0,1-1.727,5.3v.635h.458a2.926,2.926,0,0,1,1.416.363,10.827,10.827,0,0,0,2.443-6.3C37.9,6.025,30.011,1,19.254,1Z" transform="translate(-3.372 -1)" fill="#783e22"/>
          <path id="Trazado_934815" data-name="Trazado 934815" d="M27.36,44.231s-1.183,2.59-5.18,2.59S17,44.231,17,44.231a3.463,3.463,0,0,0,1.727-2.918V39.37a11.235,11.235,0,0,0,6.907,0v1.942A3.463,3.463,0,0,0,27.36,44.231Z" transform="translate(-3.19 -6.244)" fill="#ffe0b2"/>
          <path id="Trazado_934816" data-name="Trazado 934816" d="M32.447,19.684V24.95A11.223,11.223,0,1,1,10,24.95V18.881a2.573,2.573,0,0,1,1.4-2.3A10.878,10.878,0,0,0,16.121,12s4.377,4.446,13.951,5.1a2.575,2.575,0,0,1,2.374,2.581Z" transform="translate(-2.233 -2.503)" fill="#ffe0b2"/>
          <path id="Trazado_934817" data-name="Trazado 934817" d="M30.907,17.1C21.332,16.446,16.955,12,16.955,12a9.732,9.732,0,0,1-.851,1.341A25.221,25.221,0,0,0,28.317,17.1a2.575,2.575,0,0,1,2.374,2.581V24.95a11.171,11.171,0,0,1-9.928,11.137A11.209,11.209,0,0,0,33.281,24.95V19.684A2.575,2.575,0,0,0,30.907,17.1Z" transform="translate(-3.067 -2.503)" fill="#dfc49c"/>
          <path id="Trazado_934818" data-name="Trazado 934818" d="M9.755,29.043H9a3.022,3.022,0,0,1-2.115-5.154A2.921,2.921,0,0,1,9,23h.458v3.453a11.137,11.137,0,0,0,.3,2.59Z" transform="translate(-1.686 -4.006)" fill="#ffe0b2"/>
          <path id="Trazado_934819" data-name="Trazado 934819" d="M39.405,26.022a3,3,0,0,1-3,3.022h-.76a11.136,11.136,0,0,0,.3-2.59V23h.458a2.926,2.926,0,0,1,1.416.363,3.04,3.04,0,0,1,1.58,2.659Z" transform="translate(-5.739 -4.006)" fill="#ffe0b2"/>
          <path id="Trazado_934820" data-name="Trazado 934820" d="M48.157,33H40.29a1.727,1.727,0,0,0-1.222.506l-5.562,5.562A1.727,1.727,0,0,0,33,40.29v7.867a1.727,1.727,0,0,0,.506,1.222l5.562,5.562a1.727,1.727,0,0,0,1.222.506h7.867a1.727,1.727,0,0,0,1.222-.506l5.562-5.562a1.727,1.727,0,0,0,.506-1.222V40.29a1.727,1.727,0,0,0-.506-1.222l-5.562-5.562A1.727,1.727,0,0,0,48.157,33Z" transform="translate(-5.376 -5.373)" fill="#4edf60"/>
          <path id="Trazado_934821" data-name="Trazado 934821" d="M56.93,39.068l-5.562-5.562A1.727,1.727,0,0,0,50.146,33h-2.59a1.727,1.727,0,0,1,1.222.506l5.562,5.562a1.727,1.727,0,0,1,.506,1.222v7.867a1.727,1.727,0,0,1-.506,1.222l-5.562,5.562a1.727,1.727,0,0,1-1.222.506h2.59a1.727,1.727,0,0,0,1.222-.506l5.562-5.562a1.727,1.727,0,0,0,.506-1.222V40.29A1.727,1.727,0,0,0,56.93,39.068Z" transform="translate(-7.366 -5.373)" fill="#1bb12e"/>
          <g id="Grupo_1133641" data-name="Grupo 1133641" transform="translate(36.8 31.08)">
            <circle id="Elipse_9697" data-name="Elipse 9697" cx="1.765" cy="1.765" r="1.765" transform="translate(0 11.604)" fill="#f5f5f5"/>
            <path id="Trazado_934822" data-name="Trazado 934822" d="M47.453,38.727c0,.95-.777,6.907-1.727,6.907S44,39.676,44,38.727a1.727,1.727,0,0,1,3.453,0Z" transform="translate(-43.68 -37)" fill="#f5f5f5"/>
          </g>
        </g>
        <g id="Icons_copy" data-name="Icons copy" transform="translate(0 -0.001)">
          <path id="Trazado_934823" data-name="Trazado 934823" d="M45.478,28.385a2.574,2.574,0,0,0-1.832-.759H35.78a2.574,2.574,0,0,0-1.832.759l-5.562,5.562a2.574,2.574,0,0,0-.759,1.831v2.667l-2.276-.416a2.546,2.546,0,0,1-1.178-2.1V34.586a12.127,12.127,0,0,0,7.261-7.823h.1a3.885,3.885,0,0,0,2.73-6.623c-.035-.035-.077-.06-.113-.094a11.556,11.556,0,0,0,2.106-6.129C36.26,5.593,28.418,0,16.748,0a13.164,13.164,0,0,0-13.3,12.914,10.78,10.78,0,0,0,2.056,7.173c-.018.018-.041.031-.059.049a3.885,3.885,0,0,0,2.726,6.628h.1a12.127,12.127,0,0,0,7.261,7.823v1.346a2.546,2.546,0,0,1-1.177,2.1l-6.2,1.128a8.947,8.947,0,0,0-2.993,1.138,8.837,8.837,0,0,0-2.638,2.446A10.933,10.933,0,0,0,.993,46.3l-.4,1.355L.076,49.411A1.861,1.861,0,0,0,1.865,51.8H43.65a2.574,2.574,0,0,0,1.832-.759l5.562-5.562a2.574,2.574,0,0,0,.755-1.831V35.779a2.574,2.574,0,0,0-.759-1.831ZM31.809,25.009a11.985,11.985,0,0,0,.134-1.7V20.76a2.111,2.111,0,0,1,1.1.6,2.153,2.153,0,0,1-1.233,3.653ZM5.18,12.914A11.428,11.428,0,0,1,16.749,1.727c10.638,0,17.785,4.9,17.785,12.191a9.883,9.883,0,0,1-1.883,5.259,3.667,3.667,0,0,0-.707-.143v-.99A3.445,3.445,0,0,0,28.762,14.6c-9.083-.623-13.351-4.807-13.395-4.846a.863.863,0,0,0-1.381.21,9.986,9.986,0,0,1-4.347,4.21A3.433,3.433,0,0,0,7.77,17.241v1.791A3.822,3.822,0,0,0,7,19.2,9.007,9.007,0,0,1,5.18,12.914Zm.863,9.965a2.144,2.144,0,0,1,.632-1.527A2.1,2.1,0,0,1,7.77,20.76V23.31a11.986,11.986,0,0,0,.134,1.7,2.145,2.145,0,0,1-1.86-2.131ZM9.5,23.31V17.241a1.715,1.715,0,0,1,.934-1.529,11.936,11.936,0,0,0,4.549-4.021c1.727,1.344,6.144,4.12,13.664,4.633a1.712,1.712,0,0,1,1.573,1.719V23.31a10.36,10.36,0,1,1-20.72,0ZM19.856,35.4a12.087,12.087,0,0,0,2.59-.287v.822a4.153,4.153,0,0,0,1.41,3.113,5.1,5.1,0,0,1-4,1.532,5.107,5.107,0,0,1-4-1.531,4.153,4.153,0,0,0,1.411-3.114V35.11a12.087,12.087,0,0,0,2.59.287ZM1.755,50.018a.126.126,0,0,1-.02-.117q.259-.881.518-1.752l.4-1.368a9.366,9.366,0,0,1,1.29-3.035,7.11,7.11,0,0,1,2.125-1.969,7.215,7.215,0,0,1,2.41-.919L14.266,39.8a6.552,6.552,0,0,0,5.591,2.5,6.563,6.563,0,0,0,5.6-2.5l2.172.4v3.447a2.574,2.574,0,0,0,.759,1.831l4.594,4.595H9.5v-2.59a.863.863,0,0,0-1.727,0v2.59H1.865a.133.133,0,0,1-.11-.055Zm48.318-6.37a.873.873,0,0,1-.253.61L44.258,49.82a.863.863,0,0,1-.611.253H35.78a.863.863,0,0,1-.611-.253l-5.562-5.562a.873.873,0,0,1-.253-.61V35.779a.873.873,0,0,1,.253-.61l5.562-5.562a.863.863,0,0,1,.611-.253h7.867a.863.863,0,0,1,.611.253l5.562,5.562a.873.873,0,0,1,.253.61Z" transform="translate(0 0.001)"/>
          <path id="Trazado_934824" data-name="Trazado 934824" d="M45.59,50a2.59,2.59,0,1,0,2.59,2.59A2.59,2.59,0,0,0,45.59,50Zm0,3.453a.863.863,0,1,1,.863-.863A.863.863,0,0,1,45.59,53.453Z" transform="translate(-5.877 -6.833)"/>
          <path id="Trazado_934825" data-name="Trazado 934825" d="M45.59,36A2.59,2.59,0,0,0,43,38.59c0,.078.4,7.77,2.59,7.77s2.59-7.692,2.59-7.77A2.59,2.59,0,0,0,45.59,36Zm0,7.842a29.44,29.44,0,0,1-.863-5.252.863.863,0,1,1,1.727,0A29.44,29.44,0,0,1,45.59,43.842Z" transform="translate(-5.877 -4.92)"/>
        </g>
      </g>
    </g>
  </g>
</svg>
