<svg xmlns="http://www.w3.org/2000/svg" width="44.449" height="49.975" viewBox="0 0 44.449 49.975">
  <g id="raise-hand_11256741" transform="translate(-30.462 -3.998)">
    <g id="Layer_4" data-name="Layer 4" transform="translate(31.195 4.594)">
      <g id="Grupo_1132695" data-name="Grupo 1132695" transform="translate(0)">
        <g id="Grupo_1132694" data-name="Grupo 1132694" transform="translate(22.147 26.541)">
          <path id="Trazado_933289" data-name="Trazado 933289" d="M264.426,277.692l16.846,2.64a1.248,1.248,0,0,1,1.04,1.426l-1.77,11.3a1.248,1.248,0,0,1-1.426,1.04l-1.273-.2-.9,1.121a1.248,1.248,0,0,1-2.135-.335l-.518-1.344-12.015-1.883a1.248,1.248,0,0,1-1.04-1.426l1.77-11.3A1.248,1.248,0,0,1,264.426,277.692Z" transform="translate(-261.214 -277.676)" fill="#33a6fb"/>
          <g id="Grupo_1132693" data-name="Grupo 1132693" transform="translate(3.616 3.005)">
            <rect id="Rect치ngulo_414327" data-name="Rect치ngulo 414327" width="13.309" height="2.807" rx="1.404" transform="translate(14.001 4.836) rotate(-171.084)" fill="#ffee93"/>
            <rect id="Rect치ngulo_414328" data-name="Rect치ngulo 414328" width="13.309" height="2.807" rx="1.404" transform="translate(13.149 10.28) rotate(-171.084)" fill="#ffee93"/>
          </g>
        </g>
        <path id="Trazado_933290" data-name="Trazado 933290" d="M54.389,222.1a2.844,2.844,0,0,1-2.586-1.661l-2.036-4.448-10.854,1.7a1.248,1.248,0,0,0-1.04,1.426l1.77,11.3a1.248,1.248,0,0,0,1.426,1.04l1.273-.2.9,1.121a1.248,1.248,0,0,0,2.135-.335L45.9,230.7l8.487-1.33V222.1Z" transform="translate(-37.858 -195.569)" fill="#29d0b3"/>
        <path id="Trazado_933291" data-name="Trazado 933291" d="M81.388,243.638l-.867-1.894-8.689,1.362a1.338,1.338,0,0,0-1.115,1.53l.02.129a1.338,1.338,0,0,0,1.53,1.115l9.61-1.506a2.838,2.838,0,0,1-.489-.735Z" transform="translate(-67.444 -218.766)" fill="#ffee93"/>
        <path id="Trazado_933292" data-name="Trazado 933292" d="M91.724,293.752a1.332,1.332,0,0,0-.786-.116l-10.5,1.646a1.339,1.339,0,0,0-1.115,1.53l.02.129a1.338,1.338,0,0,0,1.53,1.115l10.5-1.646a1.338,1.338,0,0,0,.352-.107Z" transform="translate(-75.194 -265.498)" fill="#ffee93"/>
        <path id="Trazado_933293" data-name="Trazado 933293" d="M142.108,50.321a1.248,1.248,0,0,1-1.04-1.426l1.77-11.3a1.248,1.248,0,0,1,1.426-1.04l5.168.81v-.833a11.455,11.455,0,0,0,3.205-7.947V19.543a2.326,2.326,0,0,0-4.653,0V16.03a2.326,2.326,0,1,0-4.653,0v-3.7a2.326,2.326,0,0,0-4.653,0v3.7a2.326,2.326,0,0,0-4.653,0V26.268l-1.755-3.853a2.326,2.326,0,0,0-4.234,1.929l1.118,2.456,3.695,8.073a2.844,2.844,0,0,0,2.586,1.661v22.25h14V51.469l-7.325-1.148Z" transform="translate(-118.907 -10)" fill="#ffd5ae"/>
      </g>
    </g>
    <g id="Layer_3" data-name="Layer 3" transform="translate(30.462 3.999)">
      <g id="Grupo_1132696" data-name="Grupo 1132696" transform="translate(0 0)">
        <path id="Trazado_933294" data-name="Trazado 933294" d="M313.53,305.688l-10.5-1.646a1.936,1.936,0,0,0-2.21,1.611,1.958,1.958,0,0,0,.328,1.567,1.921,1.921,0,0,0,1.263.771s10.7,1.669,10.8,1.669a1.937,1.937,0,0,0,1.909-1.634,1.957,1.957,0,0,0-.328-1.567A1.921,1.921,0,0,0,313.53,305.688Zm.435,2.025-.02.129a.744.744,0,0,1-.85.62l-10.5-1.646a.744.744,0,0,1-.62-.85l.02-.129a.744.744,0,0,1,.85-.62l10.5,1.646a.744.744,0,0,1,.62.85Z" transform="translate(-273.972 -274.271)"/>
        <path id="Trazado_933295" data-name="Trazado 933295" d="M304.923,360.586l-10.5-1.646a2,2,0,0,0-.619,3.949l10.5,1.646a1.933,1.933,0,0,0,2.209-1.611l.02-.129A1.936,1.936,0,0,0,304.923,360.586Zm.435,2.025-.02.129a.744.744,0,0,1-.85.62l-10.5-1.646a.745.745,0,0,1-.62-.85l.02-.129a.744.744,0,0,1,.85-.62l10.5,1.646a.745.745,0,0,1,.62.85Z" transform="translate(-266.217 -323.725)"/>
        <path id="Trazado_933296" data-name="Trazado 933296" d="M74.557,33.937a1.83,1.83,0,0,0-1.2-.735L62.178,31.451v-.088a12.1,12.1,0,0,0,3.152-7.052.595.595,0,1,0-1.185-.112,10.9,10.9,0,0,1-2.99,6.515.6.6,0,0,0-.166.413v.138l-4.481-.7A1.844,1.844,0,0,0,54.4,32.1l-1.77,11.3A1.845,1.845,0,0,0,54.166,45.5l6.822,1.069v6.211H48.183V31.127a.6.6,0,0,0-.595-.595,2.255,2.255,0,0,1-2.045-1.313L40.73,18.691a1.731,1.731,0,0,1,3.151-1.435L46.1,22.138a.63.63,0,0,0,.868.273,3.574,3.574,0,0,1,4.785,1.79.595.595,0,0,0,1.083-.493,4.759,4.759,0,0,0-5.883-2.569l-.185-.407V10.624a1.731,1.731,0,1,1,3.463,0v8h-.859a.595.595,0,0,0,0,1.19H61.093a.595.595,0,0,0,0-1.19h-.363V14.137a1.731,1.731,0,1,1,3.463,0V19.5a.595.595,0,1,0,1.19,0v-5.36a2.92,2.92,0,0,0-4.653-2.352V10.624a2.92,2.92,0,0,0-4.653-2.352V6.92a2.921,2.921,0,1,0-5.843,0V8.272a2.92,2.92,0,0,0-4.653,2.352v7.5l-.619-1.358a2.921,2.921,0,0,0-5.317,2.422l1.119,2.457L42.1,24.553,32.02,26.132a1.843,1.843,0,0,0-1.535,2.106l1.77,11.3a1.843,1.843,0,0,0,2.106,1.535l.934-.146.689.854a1.821,1.821,0,0,0,1.426.686,1.887,1.887,0,0,0,.293-.023,1.824,1.824,0,0,0,1.434-1.157l.395-1.024,7.461-1.169V53.378a.6.6,0,0,0,.595.595h14a.6.6,0,0,0,.595-.595v-6.62l3.663.574.395,1.024a1.824,1.824,0,0,0,1.434,1.157,1.887,1.887,0,0,0,.293.023,1.821,1.821,0,0,0,1.426-.686L70.078,48l.934.146a1.844,1.844,0,0,0,2.106-1.535l1.77-11.3a1.831,1.831,0,0,0-.331-1.371ZM57.809,8.892a1.734,1.734,0,0,1,1.732,1.732v8H56.078v-8h0a1.733,1.733,0,0,1,1.731-1.732ZM51.425,6.92a1.732,1.732,0,0,1,3.463,0v11.7H51.425ZM46.993,34.942,36.641,36.564a.744.744,0,0,1-.85-.62l-.02-.129a.744.744,0,0,1,.62-.85l10.5-1.646a.743.743,0,0,1,.1-.008Zm-2.511-5.184L35.788,31.12a.744.744,0,0,1-.85-.62l-.02-.129a.744.744,0,0,1,.62-.85l8.244-1.292.679,1.484.021.043ZM39.008,39.14a.6.6,0,0,0-.463.374l-.518,1.344a.653.653,0,0,1-1.117.175l-.9-1.121a.594.594,0,0,0-.555-.214l-1.273.2a.653.653,0,0,1-.746-.544l-1.77-11.3a.653.653,0,0,1,.544-.746l10.408-1.631.654,1.429-7.914,1.24a1.921,1.921,0,0,0-1.263.771,1.957,1.957,0,0,0-.328,1.567,1.934,1.934,0,0,0,2.21,1.611l9.315-1.46a3.453,3.453,0,0,0,1.706.835v.451a1.949,1.949,0,0,0-.283.023l-10.5,1.646A1.933,1.933,0,0,0,34.6,36l.02.129a1.935,1.935,0,0,0,1.906,1.635,1.962,1.962,0,0,0,.3-.024l10.168-1.593v1.742L39.009,39.14Zm34.7-4.016-1.77,11.3a.654.654,0,0,1-.746.544l-1.273-.2a.594.594,0,0,0-.555.214l-.9,1.121a.653.653,0,0,1-1.117-.175l-.518-1.344a.6.6,0,0,0-.463-.374L54.351,44.327a.654.654,0,0,1-.544-.746l1.77-11.3a.654.654,0,0,1,.644-.552c.075-.011,16.86,2.642,16.948,2.648a.653.653,0,0,1,.544.746Z" transform="translate(-30.462 -3.999)"/>
        <circle id="Elipse_9691" data-name="Elipse 9691" cx="0.595" cy="0.595" r="0.595" transform="translate(33.732 17.283)"/>
      </g>
    </g>
  </g>
</svg>
