<svg xmlns="http://www.w3.org/2000/svg" width="48.169" height="43.836" viewBox="0 0 48.169 43.836">
  <g id="go-out_10199452" transform="translate(0 -23.033)">
    <g id="Grupo_1132689" data-name="Grupo 1132689" transform="translate(0.717 23.74)">
      <g id="Grupo_1132688" data-name="Grupo 1132688">
        <g id="Grupo_1132681" data-name="Grupo 1132681" transform="translate(19 6.355)">
          <path id="Trazado_933280" data-name="Trazado 933280" d="M234.514,98.084H212.4a2.822,2.822,0,0,0-2.822,2.822v24.842a2.822,2.822,0,0,0,2.822,2.822h15.177a.47.47,0,0,1,.389.206l3.466,5.109a.6.6,0,0,0,1.105-.339v-4.506a.47.47,0,0,1,.47-.47h1.5a2.822,2.822,0,0,0,2.822-2.822V100.906A2.822,2.822,0,0,0,234.514,98.084Z" transform="translate(-209.579 -98.084)" fill="#ffc8dd"/>
        </g>
        <g id="Grupo_1132682" data-name="Grupo 1132682" transform="translate(38.984 6.355)">
          <path id="Trazado_933281" data-name="Trazado 933281" d="M426.945,98.084h0v24.842a2.822,2.822,0,0,1-2.822,2.822h-.553a1.421,1.421,0,0,0-1.421,1.421v3.555a.588.588,0,0,1-.154.4l1.871,2.758a.6.6,0,0,0,1.105-.339v-4.506a.47.47,0,0,1,.47-.47h1.5a2.822,2.822,0,0,0,2.822-2.822V100.906a2.822,2.822,0,0,0-2.822-2.822Z" transform="translate(-421.994 -98.084)" fill="#fea3c6"/>
        </g>
        <g id="Grupo_1132683" data-name="Grupo 1132683" transform="translate(22.683 11.399)">
          <circle id="Elipse_9690" data-name="Elipse 9690" cx="10.196" cy="10.196" r="10.196" fill="#fe5694"/>
        </g>
        <g id="Grupo_1132684" data-name="Grupo 1132684" transform="translate(28.049 16.765)">
          <path id="Trazado_933282" data-name="Trazado 933282" d="M313.289,208.877l-2.364,2.364a.47.47,0,0,1-.665,0l-2.364-2.364a.47.47,0,0,0-.665,0l-1.33,1.33a.47.47,0,0,0,0,.665l2.364,2.364a.47.47,0,0,1,0,.665l-2.364,2.364a.47.47,0,0,0,0,.665l1.33,1.33a.47.47,0,0,0,.665,0l2.364-2.364a.47.47,0,0,1,.665,0l2.364,2.364a.47.47,0,0,0,.665,0l1.33-1.33a.47.47,0,0,0,0-.665l-2.364-2.364a.47.47,0,0,1,0-.665l2.364-2.364a.47.47,0,0,0,0-.665l-1.33-1.33A.471.471,0,0,0,313.289,208.877Z" transform="translate(-305.763 -208.739)" fill="#fbfbfb"/>
        </g>
        <g id="Grupo_1132685" data-name="Grupo 1132685">
          <path id="Trazado_933283" data-name="Trazado 933283" d="M31.613,30.534H10.441a2.822,2.822,0,0,0-2.822,2.822V58.2a2.822,2.822,0,0,0,2.822,2.822h1.5a.47.47,0,0,1,.47.47v4.524a.6.6,0,0,0,1.105.339L17,61.227a.47.47,0,0,1,.389-.206H31.613A2.822,2.822,0,0,0,34.435,58.2V33.356a2.822,2.822,0,0,0-2.822-2.822Z" transform="translate(-7.619 -30.534)" fill="#dff6fd"/>
        </g>
        <g id="Grupo_1132686" data-name="Grupo 1132686" transform="translate(4.676)">
          <path id="Trazado_933284" data-name="Trazado 933284" d="M76.64,30.534h0V55.376A2.822,2.822,0,0,1,73.817,58.2H60.545a2.265,2.265,0,0,0-1.875.993l-1.348,1.987a.467.467,0,0,1,.121.312v4.524a.6.6,0,0,0,1.105.339l3.479-5.128a.47.47,0,0,1,.389-.206H76.64A2.822,2.822,0,0,0,79.462,58.2V33.356a2.822,2.822,0,0,0-2.822-2.822Z" transform="translate(-57.322 -30.534)" fill="#c8effe"/>
        </g>
        <g id="Grupo_1132687" data-name="Grupo 1132687" transform="translate(6.869 5.699)">
          <path id="Trazado_933285" data-name="Trazado 933285" d="M92.726,110.127H80.633V93a1.891,1.891,0,0,1,1.891-1.891h8.311A1.891,1.891,0,0,1,92.726,93Z" transform="translate(-80.633 -91.109)" fill="#6fd7a3"/>
        </g>
      </g>
    </g>
    <g id="Grupo_1132690" data-name="Grupo 1132690" transform="translate(0 23.034)">
      <path id="Trazado_933286" data-name="Trazado 933286" d="M47.463,35.956a.706.706,0,0,0,.706-.706V32.917a3.532,3.532,0,0,0-3.528-3.528H28.227V26.562A3.532,3.532,0,0,0,24.7,23.034H3.528A3.532,3.532,0,0,0,0,26.562V43.891a.706.706,0,0,0,1.411,0V26.562a2.119,2.119,0,0,1,2.117-2.117H24.7a2.119,2.119,0,0,1,2.117,2.117V51.4A2.119,2.119,0,0,1,24.7,53.521H10.476a1.175,1.175,0,0,0-.973.516L6.208,58.892V54.7a1.177,1.177,0,0,0-1.176-1.176h-1.5A2.119,2.119,0,0,1,1.411,51.4v-4.22a.706.706,0,0,0-1.411,0V51.4a3.532,3.532,0,0,0,3.528,3.528H4.8v4.289a1.3,1.3,0,0,0,.926,1.252,1.324,1.324,0,0,0,.389.059,1.3,1.3,0,0,0,1.08-.576L10.6,54.932H19v2.827a3.532,3.532,0,0,0,3.528,3.528H37.581l3.4,5.006a1.3,1.3,0,0,0,1.08.576,1.322,1.322,0,0,0,.389-.059,1.3,1.3,0,0,0,.925-1.252v-4.27h1.269a3.532,3.532,0,0,0,3.528-3.528V38.544a.706.706,0,1,0-1.411,0V57.759a2.119,2.119,0,0,1-2.117,2.117h-1.5a1.177,1.177,0,0,0-1.176,1.176v4.177l-3.282-4.837a1.175,1.175,0,0,0-.973-.516H22.528a2.119,2.119,0,0,1-2.117-2.117V54.932H24.7a3.513,3.513,0,0,0,2.333-.885,10.9,10.9,0,1,0,6.551-19.613,10.813,10.813,0,0,0-5.357,1.4V30.8H44.641a2.119,2.119,0,0,1,2.117,2.117V35.25A.706.706,0,0,0,47.463,35.956ZM35.414,46.166l2.2,2.2-1,1-2.2-2.2a1.178,1.178,0,0,0-1.663,0l-2.2,2.2-1-1,2.2-2.2a1.178,1.178,0,0,0,0-1.663l-2.2-2.2,1-1,2.2,2.2a1.176,1.176,0,0,0,1.663,0l2.2-2.2,1,1-2.2,2.2a1.178,1.178,0,0,0,0,1.663Zm-4.823-.832-2.2,2.2a1.186,1.186,0,0,0-.166.21V42.927a1.181,1.181,0,0,0,.166.21Zm2.994-9.49a9.49,9.49,0,1,1-5.7,17.077,3.507,3.507,0,0,0,.344-1.517V48.985a1.18,1.18,0,0,0,.166.21l1.331,1.331a1.176,1.176,0,0,0,1.663,0l2.2-2.2,2.2,2.2a1.177,1.177,0,0,0,1.663,0l1.33-1.33a1.176,1.176,0,0,0,0-1.663l-2.2-2.2,2.2-2.2a1.176,1.176,0,0,0,0-1.663l-1.33-1.331a1.177,1.177,0,0,0-1.663,0h0l-2.2,2.2-2.2-2.2a1.176,1.176,0,0,0-1.663,0l-1.33,1.33a1.185,1.185,0,0,0-.166.21V37.5a9.408,9.408,0,0,1,5.357-1.656Z" transform="translate(0 -23.034)"/>
    </g>
    <g id="Grupo_1132691" data-name="Grupo 1132691" transform="translate(5.119 28.733)">
      <path id="Trazado_933287" data-name="Trazado 933287" d="M67.07,83.609H58.759a2.6,2.6,0,0,0-2.6,2.6v16.422H55.119a.706.706,0,1,0,0,1.411H71.132a.706.706,0,0,0,0-1.411H69.667v-1.914a.706.706,0,0,0-1.411,0v1.914H57.574V86.205A1.187,1.187,0,0,1,58.76,85.02h8.311a1.187,1.187,0,0,1,1.185,1.185v.728a.706.706,0,0,0,1.411,0v-.728A2.6,2.6,0,0,0,67.07,83.609Z" transform="translate(-54.413 -83.609)"/>
    </g>
    <g id="Grupo_1132692" data-name="Grupo 1132692" transform="translate(12.916 34.645)">
      <path id="Trazado_933288" data-name="Trazado 933288" d="M143.35,154.852a.706.706,0,0,0,1,0l3.6-3.6a.706.706,0,0,0,0-1l-3.6-3.6a.706.706,0,1,0-1,1l2.392,2.392h-7.752a.706.706,0,1,0,0,1.411h7.752l-2.392,2.392A.705.705,0,0,0,143.35,154.852Z" transform="translate(-137.285 -146.453)"/>
    </g>
  </g>
</svg>
