<svg xmlns="http://www.w3.org/2000/svg" width="45.347" height="58.076" viewBox="0 0 45.347 58.076">
  <g id="Grupo_1132668" data-name="Grupo 1132668" transform="translate(-428 -6845.515)">
    <g id="man_11107584" transform="translate(428 6845.516)">
      <g id="Grupo_1132415" data-name="Grupo 1132415" transform="translate(0.851 0.851)">
        <path id="Trazado_932120" data-name="Trazado 932120" d="M102.689,314.573l-8.278-2.435a3.637,3.637,0,0,1-2.611-3.489V304.1H79.071v4.553a3.637,3.637,0,0,1-2.611,3.489l-8.278,2.435a6.365,6.365,0,0,0-4.569,6.106h43.645A6.365,6.365,0,0,0,102.689,314.573Z" transform="translate(-63.613 -270.453)" fill="#fcdbb2"/>
        <path id="Trazado_932121" data-name="Trazado 932121" d="M215.228,312.139a3.637,3.637,0,0,1-2.611-3.489V304.1h-12.73v3.973A14.234,14.234,0,0,0,207.5,309.5a3.162,3.162,0,0,1,2.927,1.677,6.394,6.394,0,0,0,4.031,3.584l2.706.8,1.455-2.416Z" transform="translate(-184.429 -270.454)" fill="#f5c89d"/>
        <path id="Trazado_932122" data-name="Trazado 932122" d="M102.688,380.386,95.7,378.329c-1.286,1.754-3.169,5.219-10.262,5.219a12.7,12.7,0,0,1-10.262-5.219l-6.992,2.056a6.365,6.365,0,0,0-4.569,6.106v6.149h40.918l2.728-2.6v-3.55A6.365,6.365,0,0,0,102.688,380.386Z" transform="translate(-63.611 -336.265)" fill="#c6805d"/>
        <path id="Trazado_932123" data-name="Trazado 932123" d="M340.292,98l-1.1,11.028h-4.652V97.04Z" transform="translate(-303.806 -86.883)" fill="#845252"/>
        <path id="Trazado_932124" data-name="Trazado 932124" d="M148.238,118.138H147a1.819,1.819,0,0,1-1.819-1.819L130.123,108.7h-.4a4.546,4.546,0,0,0-4.546,4.546v3.069a1.819,1.819,0,0,1-1.819,1.819h-1.234a2.362,2.362,0,0,0-2.391,2.039A2.274,2.274,0,0,0,122,122.684h1.41a11.809,11.809,0,0,0,23.549,0h1.41a2.274,2.274,0,0,0,2.261-2.508A2.362,2.362,0,0,0,148.238,118.138Z" transform="translate(-113.36 -97.224)" fill="#ffeac6"/>
        <path id="Trazado_932125" data-name="Trazado 932125" d="M229.5,118.138h-1.234a1.819,1.819,0,0,1-1.819-1.819V108.7H211.388l.138.341a7.265,7.265,0,0,0,7.593,4.5,1.98,1.98,0,0,1,1.363.322,9.046,9.046,0,0,0,2.64,1.214.879.879,0,0,1,.6.857v5.84a10.84,10.84,0,0,1-9.237,10.769l-2.1.324a11.787,11.787,0,0,0,15.833-10.183h1.41a2.274,2.274,0,0,0,2.261-2.508A2.362,2.362,0,0,0,229.5,118.138Z" transform="translate(-194.625 -97.224)" fill="#fcdbb2"/>
        <path id="Trazado_932126" data-name="Trazado 932126" d="M152.565,10.289a.954.954,0,0,1-.647-.392,3.607,3.607,0,0,0-4.462-1.142.859.859,0,0,1-.936-.126,4.49,4.49,0,0,0-6.568.664.917.917,0,0,1-1.105.271,3.1,3.1,0,0,0-1.211-.246,3.21,3.21,0,0,0-1.962.707,3.987,3.987,0,0,1-1.233.638,9.1,9.1,0,0,0-6.262,9.561L129,28.491a2.481,2.481,0,0,1,.584-.078h1.234a1.819,1.819,0,0,0,1.819-1.819V23.525a4.546,4.546,0,0,1,4.546-4.546H139.7a1.865,1.865,0,0,1,1.385.646,4.507,4.507,0,0,0,3.371,1.514,4.4,4.4,0,0,0,1.7-.347.876.876,0,0,1,.972.195,6.336,6.336,0,0,0,4.367,1.967,6.449,6.449,0,0,0,6.593-6.154A6.36,6.36,0,0,0,152.565,10.289Z" transform="translate(-120.815 -7.499)" fill="#c6805d"/>
        <path id="Trazado_932127" data-name="Trazado 932127" d="M341.69,392.641v-6.149a6.365,6.365,0,0,0-4.569-6.106l-6.992-2.056a12.875,12.875,0,0,1-2.09,2.227l.034.012L336.352,383a3.636,3.636,0,0,1,2.611,3.489v6.15Z" transform="translate(-298.045 -336.265)" fill="#a46a5a"/>
        <path id="Trazado_932128" data-name="Trazado 932128" d="M147.239,387.185a16.34,16.34,0,0,0,13.915-7.781l-3.654-1.075a12.7,12.7,0,0,1-20.523,0l-3.654,1.075A16.34,16.34,0,0,0,147.239,387.185Z" transform="translate(-125.416 -336.265)" fill="#e29a6c"/>
        <path id="Trazado_932129" data-name="Trazado 932129" d="M328.039,380.556h0l.034.012,3.962,1.165a16.508,16.508,0,0,0,1.747-2.329l-3.654-1.075A12.867,12.867,0,0,1,328.039,380.556Z" transform="translate(-298.045 -336.265)" fill="#c6805d"/>
        <path id="Trazado_932130" data-name="Trazado 932130" d="M260.481,40.116a6.353,6.353,0,0,0-4.623-6.317,6.888,6.888,0,0,1,.353,3.923,6.2,6.2,0,0,1-4.871,4.4,5.956,5.956,0,0,1-1.626.012,5.759,5.759,0,0,0-3.156.43,5.85,5.85,0,0,1-2.427.528h-.509a4.5,4.5,0,0,0,3.222,1.364,4.4,4.4,0,0,0,1.7-.347.876.876,0,0,1,.972.195,6.338,6.338,0,0,0,4.367,1.967A6.449,6.449,0,0,0,260.481,40.116Z" transform="translate(-223.204 -30.816)" fill="#a46a5a"/>
      </g>
      <g id="Grupo_1132416" data-name="Grupo 1132416" transform="translate(0 0)">
        <path id="Trazado_932131" data-name="Trazado 932131" d="M201.254,192.387a.851.851,0,0,0-.851.851v.909a.851.851,0,0,0,1.7,0v-.909A.851.851,0,0,0,201.254,192.387Z" transform="translate(-184.036 -170.564)"/>
        <path id="Trazado_932132" data-name="Trazado 932132" d="M297.448,192.387a.851.851,0,0,0-.851.851v.909a.851.851,0,0,0,1.7,0v-.909A.851.851,0,0,0,297.448,192.387Z" transform="translate(-269.319 -170.564)"/>
        <path id="Trazado_932133" data-name="Trazado 932133" d="M231.356,249.957a.851.851,0,1,0-1.195-1.211,3.749,3.749,0,0,1-4.261,0,.851.851,0,1,0-1.195,1.211,5.367,5.367,0,0,0,6.651,0Z" transform="translate(-205.357 -220.313)"/>
        <path id="Trazado_932134" data-name="Trazado 932134" d="M96.279,44.155,88,41.72a2.8,2.8,0,0,1-2-2.673V35.811a12.69,12.69,0,0,0,5.333-8.649h.506a3.223,3.223,0,0,0,3.238-2.8,3.121,3.121,0,0,0-1.7-3.108l.78-7.8a7.1,7.1,0,0,0,.937-3.386,7.2,7.2,0,0,0-6.307-7.268,4.458,4.458,0,0,0-5.556-1.45,5.341,5.341,0,0,0-7.832.82,3.951,3.951,0,0,0-1.613-.343,4.011,4.011,0,0,0-2.868,1.218,9.948,9.948,0,0,0-7.435,10.624l.76,7.6a3.1,3.1,0,0,0,1.359,5.9h.635a12.686,12.686,0,0,0,5.334,8.651v3.235a2.8,2.8,0,0,1-2,2.673l-8.278,2.435a7.256,7.256,0,0,0-5.18,6.922v6.149a.851.851,0,0,0,1.7,0V51.077a5.545,5.545,0,0,1,3.958-5.29l2.711-.8a17.22,17.22,0,0,0,28.606,0l2.71.8a5.545,5.545,0,0,1,3.958,5.29v6.149a.851.851,0,0,0,1.7,0V51.077a7.256,7.256,0,0,0-5.179-6.922ZM89.638,16.925a7.339,7.339,0,0,0,2.586-1.267L91.7,20.913H90.606a.969.969,0,0,1-.968-.968ZM67.816,25.4a.851.851,0,1,0-1.7,0v.059H65.6a1.423,1.423,0,0,1-1.415-1.572,1.509,1.509,0,0,1,1.545-1.273h1.234a2.672,2.672,0,0,0,2.669-2.669V16.877A3.682,3.682,0,0,1,72.951,13.2a.851.851,0,1,0-.172-1.693,5.379,5.379,0,0,0-4.846,5.369v3.069a.969.969,0,0,1-.968.968H65.916l-.742-7.422a8.244,8.244,0,0,1,6.38-8.859.85.85,0,0,0,.462-.279A2.286,2.286,0,0,1,75.17,3.99.851.851,0,0,0,76.433,3.7a3.679,3.679,0,0,1,3.261-2,3.641,3.641,0,0,1,2.758,1.264.851.851,0,0,0,1.121.138,2.761,2.761,0,0,1,3.983.92.851.851,0,0,0,.683.426,5.51,5.51,0,1,1-4.7,8.889.851.851,0,0,0-1.1-.211,3.633,3.633,0,0,1-1.84.512,3.7,3.7,0,0,1-3.7-3.7.851.851,0,0,0-1.7,0,5.4,5.4,0,0,0,5.4,5.4,5.217,5.217,0,0,0,2.055-.422,7.191,7.191,0,0,0,4.954,2.236c.108,0,.216,0,.324,0v2.788a2.672,2.672,0,0,0,2.669,2.669H91.97a1.423,1.423,0,0,1,1.415,1.572A1.509,1.509,0,0,1,91.84,25.46h-.384v-.05a.851.851,0,0,0-.85-.851h0a.851.851,0,0,0-.851.85A10.969,10.969,0,0,1,67.816,25.4ZM78.786,50.92A15.449,15.449,0,0,1,66.2,44.484L68.19,43.9a13.466,13.466,0,0,0,10.6,5.085A13.614,13.614,0,0,0,82.38,48.5a.851.851,0,1,0-.449-1.641,11.91,11.91,0,0,1-3.145.421,11.771,11.771,0,0,1-8.809-3.908l.074-.022a4.513,4.513,0,0,0,3.222-4.306V36.808a12.653,12.653,0,0,0,11.028,0v2.239a4.513,4.513,0,0,0,3.222,4.306l.073.021a11.868,11.868,0,0,1-2.678,2.207.851.851,0,1,0,.879,1.457A13.562,13.562,0,0,0,89.378,43.9l1.991.586A15.436,15.436,0,0,1,78.785,50.92Z" transform="translate(-56.112 0)"/>
        <path id="Trazado_932135" data-name="Trazado 932135" d="M196.124,166.779a.85.85,0,0,0-.952-.736l-2.043.261a.851.851,0,0,0,.107,1.695.861.861,0,0,0,.109-.007l2.043-.261A.851.851,0,0,0,196.124,166.779Z" transform="translate(-176.929 -147.202)"/>
        <path id="Trazado_932136" data-name="Trazado 932136" d="M287.344,167.732l2.043.261a.865.865,0,0,0,.109.007.851.851,0,0,0,.107-1.695l-2.043-.261a.851.851,0,1,0-.216,1.688Z" transform="translate(-260.456 -147.204)"/>
      </g>
    </g>
  </g>
</svg>
