<svg xmlns="http://www.w3.org/2000/svg" width="40.368" height="53.861" viewBox="0 0 40.368 53.861">
  <g id="woman_11107554" transform="translate(-64.13)">
    <g id="Grupo_1132674" data-name="Grupo 1132674" transform="translate(64.924 0.789)">
      <path id="Trazado_933246" data-name="Trazado 933246" d="M134.093,7.628A14.332,14.332,0,0,0,119.761,21.96v6.463c0,12.913,8.43,17.972,8.43,17.972h5.9Z" transform="translate(-114.703 -7.615)" fill="#a46a5a"/>
      <path id="Trazado_933247" data-name="Trazado 933247" d="M107.083,299.459l-8.707-3.073a3.372,3.372,0,0,1-2.25-3.18v-5.215H86.009v5.215a3.372,3.372,0,0,1-2.25,3.18l-8.707,3.073a5.058,5.058,0,0,0-3.375,4.77h38.78A5.058,5.058,0,0,0,107.083,299.459Z" transform="translate(-71.677 -258.484)" fill="#fbbd80"/>
      <path id="Trazado_933248" data-name="Trazado 933248" d="M218.032,293.206v-5.215H207.915v4.019c.326.138.632.26.922.357a12.933,12.933,0,0,0,5.039.646,1.581,1.581,0,0,1,1.78,1.479,5.933,5.933,0,0,0,3.784,4.28l.842-2.385a3.372,3.372,0,0,1-2.25-3.18Z" transform="translate(-193.583 -258.484)" fill="#f4aa73"/>
      <path id="Trazado_933249" data-name="Trazado 933249" d="M107.083,376.559l-6.811-2.4a11.786,11.786,0,0,1-18.409,0l-6.811,2.4a5.058,5.058,0,0,0-3.375,4.77v6.538h30.35l1.582-1.279,1.9,1.279h2.423l2.529-2.01v-4.528a5.058,5.058,0,0,0-3.375-4.77Z" transform="translate(-71.677 -335.584)" fill="#fbf4db"/>
      <path id="Trazado_933250" data-name="Trazado 933250" d="M165.415,376.559l-6.811-2.4a11.786,11.786,0,0,1-18.409,0l-3.328,1.175a15.166,15.166,0,0,0,23.355,2.079l4.351,1.535a2.529,2.529,0,0,1,1.688,2.385v6.538h2.529v-6.538a5.059,5.059,0,0,0-3.375-4.77Z" transform="translate(-130.009 -335.584)" fill="#f8ebcc"/>
      <path id="Trazado_933251" data-name="Trazado 933251" d="M256,7.5V21.832h5.058v21.09c0,7.444,5.9,10.117,5.9,16.861l3.372-2.581V21.832A14.332,14.332,0,0,0,256,7.5Z" transform="translate(-236.61 -7.5)" fill="#c6805d"/>
      <path id="Trazado_933252" data-name="Trazado 933252" d="M336.14,150.487a25.754,25.754,0,0,0,1.1,7.128,35.485,35.485,0,0,1,1.426,9.732h.105l3.267,0V129.4a14.426,14.426,0,0,0-.108-1.686H336.14Z" transform="translate(-308.319 -115.065)" fill="#a46a5a"/>
      <path id="Trazado_933253" data-name="Trazado 933253" d="M146.2,104.085h-.3a2.529,2.529,0,0,1-2.529-2.529v-5.9H124.82v5.9a2.529,2.529,0,0,1-2.529,2.529h-.3a2.19,2.19,0,0,0-2.217,1.89,2.108,2.108,0,0,0,2.1,2.325h1.307a10.949,10.949,0,0,0,21.834,0h1.307a2.108,2.108,0,0,0,2.1-2.325A2.19,2.19,0,0,0,146.2,104.085Z" transform="translate(-114.703 -86.381)" fill="#ffd18d"/>
      <path id="Trazado_933254" data-name="Trazado 933254" d="M200.652,104.085h-.3a2.529,2.529,0,0,1-2.529-2.529v-5.9h-17.2l.725.634a25.763,25.763,0,0,0,12.515,5.9,1.707,1.707,0,0,1,1.434,1.664v3.6a10.05,10.05,0,0,1-8.564,9.984l-1.944.3a10.928,10.928,0,0,0,14.68-9.441h1.307a2.108,2.108,0,0,0,2.1-2.325A2.19,2.19,0,0,0,200.652,104.085Z" transform="translate(-169.158 -86.381)" fill="#fbbd80"/>
      <path id="Trazado_933255" data-name="Trazado 933255" d="M119.761,51.973v0a16.789,16.789,0,0,0,11.514-4.7l-6.58-6.1A14.286,14.286,0,0,0,119.761,51.973Z" transform="translate(-114.703 -37.628)" fill="#c6805d"/>
      <path id="Trazado_933256" data-name="Trazado 933256" d="M176.061,7.5v.013a14.261,14.261,0,0,0-9.4,3.529,22.882,22.882,0,0,0,19.416,10.195,24.73,24.73,0,0,0,4.265-.373A14.321,14.321,0,0,0,176.061,7.5Z" transform="translate(-156.671 -7.5)" fill="#a46a5a"/>
      <path id="Trazado_933257" data-name="Trazado 933257" d="M223.549,17.864a17.421,17.421,0,0,0,3.374-.331A14.306,14.306,0,0,0,213.28,7.5v.013a14.212,14.212,0,0,0-5.022.915A17.045,17.045,0,0,0,223.549,17.864Z" transform="translate(-193.89 -7.5)" fill="#845252"/>
    </g>
    <g id="Grupo_1132675" data-name="Grupo 1132675" transform="translate(64.13 0)">
      <path id="Trazado_933258" data-name="Trazado 933258" d="M229.746,232.694a3.477,3.477,0,0,1-3.951,0,.789.789,0,1,0-1.108,1.123,4.977,4.977,0,0,0,6.168,0,.789.789,0,0,0-1.108-1.123Z" transform="translate(-207.587 -208.012)"/>
      <path id="Trazado_933259" data-name="Trazado 933259" d="M100.6,41.017l-1.157-.409V15.124a15.125,15.125,0,0,0-30.249,0V21.59a25.113,25.113,0,0,0,3.629,13.2,21.8,21.8,0,0,0,2.718,3.574l-7.5,2.649a5.858,5.858,0,0,0-3.9,5.515v6.539a.789.789,0,0,0,1.578,0V46.532a4.277,4.277,0,0,1,2.849-4.027l2.92-1.031a15.987,15.987,0,0,0,12.837,6.47,16.909,16.909,0,0,0,4.934-.784.789.789,0,1,0-.474-1.505,15.292,15.292,0,0,1-4.46.711,14.407,14.407,0,0,1-11.271-5.444l1.807-.638a12.594,12.594,0,0,0,15.5,2.749c.444.853.931,1.659,1.414,2.457,1.4,2.32,2.728,4.511,2.728,7.581h0a.789.789,0,1,0,1.578,0h0a36.17,36.17,0,0,0-1.452-9.933,25.119,25.119,0,0,1-1.078-6.932V29.145A11.7,11.7,0,0,0,95.951,23.5h.59a2.9,2.9,0,0,0,1.319-.319V53.072a.789.789,0,0,0,1.578,0V42.282l.632.223a4.277,4.277,0,0,1,2.849,4.027v6.539a.789.789,0,0,0,1.578,0V46.532a5.858,5.858,0,0,0-3.9-5.515ZM78.878,2.718a16.716,16.716,0,0,0,1.741,2.674.789.789,0,0,0,1.234-.984,15.146,15.146,0,0,1-1.484-2.244,13.55,13.55,0,0,1,16.545,7.985,16.452,16.452,0,0,1-2.584.2A16.081,16.081,0,0,1,84.024,6.63a.789.789,0,1,0-1.012,1.21A17.661,17.661,0,0,0,94.33,11.932a18.018,18.018,0,0,0,3.082-.265,13.445,13.445,0,0,1,.341,1.755,23.646,23.646,0,0,1-3.787.3c-7.452,0-14.307-3.516-18.058-9.218a13.567,13.567,0,0,1,2.969-1.791Zm-4.156,2.85a21.04,21.04,0,0,0,5.146,5.278A15.9,15.9,0,0,1,70.793,14.3a13.507,13.507,0,0,1,3.929-8.735ZM70.768,15.886a18.783,18.783,0,0,0,3.482-.52v.6a1.743,1.743,0,0,1-1.741,1.741h-.3a3.091,3.091,0,0,0-1.44.356V15.886Zm3.36,18.024a23.354,23.354,0,0,1-3.309-10.7,2.9,2.9,0,0,0,1.267.293h.589a11.778,11.778,0,0,0,5.79,8.558v3.446a2.588,2.588,0,0,1-1.313,2.248,19.523,19.523,0,0,1-3.024-3.845Zm10.186,9.083a10.967,10.967,0,0,1-7.844-3.281l.8-.281a4.168,4.168,0,0,0,2.777-3.925V32.819a11.747,11.747,0,0,0,8.541,0v3.388a13.665,13.665,0,0,0,1.088,5.4,10.993,10.993,0,0,1-5.359,1.39Zm9.247,2.432q-.225-.378-.452-.751c-1.515-2.506-2.947-4.873-2.947-8.468V32.06a11.8,11.8,0,0,0,1.8-1.272v5.418a26.4,26.4,0,0,0,1.128,7.328c.157.606.319,1.233.475,1.89ZM97.52,21.49a1.322,1.322,0,0,1-.979.435h-.477c0-.015,0-.03,0-.046a.789.789,0,0,0-.788-.79h0a.789.789,0,0,0-.789.788,10.173,10.173,0,0,1-20.347-.008.789.789,0,1,0-1.578,0v.054h-.476a1.32,1.32,0,0,1-1.312-1.458,1.4,1.4,0,0,1,1.433-1.18h.3a3.322,3.322,0,0,0,3.319-3.319V14.9a16.183,16.183,0,0,0,5.4-3.137A24.22,24.22,0,0,0,92.8,15.275v.693a3.322,3.322,0,0,0,3.319,3.319h.3a1.4,1.4,0,0,1,1.433,1.18A1.312,1.312,0,0,1,97.52,21.49Zm-1.1-3.782h-.3a1.743,1.743,0,0,1-1.741-1.741V15.3a25.4,25.4,0,0,0,3.482-.3v3.062A3.092,3.092,0,0,0,96.421,17.709Z" transform="translate(-64.13 0)"/>
      <path id="Trazado_933260" data-name="Trazado 933260" d="M201.192,176.354a.789.789,0,0,0-.789.789v.843a.789.789,0,1,0,1.578,0v-.843A.789.789,0,0,0,201.192,176.354Z" transform="translate(-186.068 -157.802)"/>
      <path id="Trazado_933261" data-name="Trazado 933261" d="M297.386,176.354a.789.789,0,0,0-.789.789v.843a.789.789,0,1,0,1.578,0v-.843A.789.789,0,0,0,297.386,176.354Z" transform="translate(-272.142 -157.802)"/>
      <path id="Trazado_933262" data-name="Trazado 933262" d="M195.852,150.694a.789.789,0,0,0-.883-.683l-1.895.242a.789.789,0,0,0,.1,1.572.78.78,0,0,0,.1-.007l1.895-.242A.789.789,0,0,0,195.852,150.694Z" transform="translate(-178.894 -134.224)"/>
      <path id="Trazado_933263" data-name="Trazado 933263" d="M289.384,150.252l-1.895-.242a.789.789,0,0,0-.2,1.565l1.895.242a.781.781,0,0,0,.1.007.789.789,0,0,0,.1-1.572Z" transform="translate(-263.197 -134.224)"/>
    </g>
  </g>
</svg>
