<svg xmlns="http://www.w3.org/2000/svg" width="50.553" height="53.197" viewBox="0 0 50.553 53.197">
  <g id="mod_9418400" transform="translate(-12.722)">
    <g id="Grupo_1132670" data-name="Grupo 1132670" transform="translate(13.898 0.779)">
      <path id="Trazado_933214" data-name="Trazado 933214" d="M31.979,423.652a10.075,10.075,0,0,0-6.755,4.718l-1.108,1.849a.52.52,0,0,0,.446.787H36.331l3.9-.911L38.1,422.484Z" transform="translate(-24.041 -379.367)" fill="#685e68"/>
      <path id="Trazado_933215" data-name="Trazado 933215" d="M178.524,409.593l-1.3-.248A2.3,2.3,0,0,1,175.7,408.3H163.129a2.3,2.3,0,0,1-1.523,1.049l-2.23.425,2.127,7.611,3.854.911h8.085l3.247-.783Z" transform="translate(-145.315 -366.654)" fill="#deecf1"/>
      <path id="Trazado_933216" data-name="Trazado 933216" d="M342.767,428.689l-1.108-1.849a10.074,10.074,0,0,0-6.755-4.718l-7.054-1.345-1.834,7.916,4.506.783h11.8A.52.52,0,0,0,342.767,428.689Z" transform="translate(-294.641 -377.838)" fill="#685e68"/>
      <path id="Trazado_933217" data-name="Trazado 933217" d="M204.6,356.206l-1.687.784a11.994,11.994,0,0,1-10.109,0l-1.687-.784V350.7a1.566,1.566,0,0,1,1.566-1.566h10.351A1.566,1.566,0,0,1,204.6,350.7v5.51Z" transform="translate(-173.755 -313.635)" fill="#eef5f6"/>
      <path id="Trazado_933218" data-name="Trazado 933218" d="M121.376,409.143l-2.684-11.056-8.027,2.423a.519.519,0,0,0-.329.7l1.413,3.373a.312.312,0,0,0,.218.183l3.444.79a.312.312,0,0,1,.193.471l-1.981,3.118Z" transform="translate(-101.334 -357.505)" fill="#7a6d79"/>
      <path id="Trazado_933219" data-name="Trazado 933219" d="M294.762,409.143l2.714-11.056,8,2.422a.519.519,0,0,1,.328.7l-1.413,3.373a.312.312,0,0,1-.218.183l-3.444.79a.312.312,0,0,0-.193.471l1.981,3.118h-7.753Z" transform="translate(-266.634 -357.505)" fill="#7a6d79"/>
      <path id="Trazado_933220" data-name="Trazado 933220" d="M148.537,79.15V73.945A8.444,8.444,0,0,0,146.3,68.22a15.68,15.68,0,0,0-8.1-2.724h-7.275a19.01,19.01,0,0,0-8.342,2.724,8.444,8.444,0,0,0-2.236,5.725V79.15h28.188Z" transform="translate(-110.343 -59.47)" fill="#935b44"/>
      <path id="Trazado_933221" data-name="Trazado 933221" d="M165.587,68.223a8.954,8.954,0,0,1-5.544,6.466l-4.919,1.885a3.907,3.907,0,0,1-2.791,0l-4.919-1.885a8.954,8.954,0,0,1-5.544-6.466,8.447,8.447,0,0,1,6.212-2.723h11.292a8.445,8.445,0,0,1,6.212,2.723Z" transform="translate(-129.629 -59.474)" fill="#87523e"/>
      <path id="Trazado_933222" data-name="Trazado 933222" d="M112.1,183.306h25.4a2.514,2.514,0,0,1,2.514,2.514,6.32,6.32,0,0,1-6.32,6.32H115.9a6.32,6.32,0,0,1-6.32-6.32,2.514,2.514,0,0,1,2.514-2.514Z" transform="translate(-100.696 -165.04)" fill="#dc8758"/>
      <path id="Trazado_933223" data-name="Trazado 933223" d="M171.86,114.748a1.454,1.454,0,0,1-1.376-.983l-1.13-3.3h0L168.1,106.8H153.551l-1.256,3.665v0l-1.13,3.3a1.454,1.454,0,0,1-1.376.983v9.323a6.972,6.972,0,0,0,2.381,5.247l4.33,3.789a4.649,4.649,0,0,0,3.061,1.15h2.526a4.648,4.648,0,0,0,3.061-1.15l4.33-3.789a6.972,6.972,0,0,0,2.381-5.247Z" transform="translate(-136.724 -96.482)" fill="#e19974"/>
      <path id="Trazado_933224" data-name="Trazado 933224" d="M175.152,20.462l-2.958,1.582-1.607.616a1.822,1.822,0,0,1-1.3,0l-1.683-.645-3.11-1.662c-.161-.062-.6.222-.6.222A6.865,6.865,0,0,1,166.821,7.5h6.229a6.865,6.865,0,0,1,2.928,13.075A2.679,2.679,0,0,0,175.152,20.462Z" transform="translate(-145.835 -7.5)" fill="#aa6a51"/>
    </g>
    <g id="Grupo_1132671" data-name="Grupo 1132671" transform="translate(12.722 0)">
      <path id="Trazado_933225" data-name="Trazado 933225" d="M143.24,52.017l-1.579-2.636a10.928,10.928,0,0,0-7.7-5.164,1.292,1.292,0,0,0-.919-1.179l-7.444-2.255V37.841a2.341,2.341,0,0,0-.655-1.625l2.017-1.766a.779.779,0,1,0-1.026-1.173l-4.045,3.54a3.873,3.873,0,0,1-2.548.958h-2.527a3.872,3.872,0,0,1-2.548-.957l-4.33-3.789a6.19,6.19,0,0,1-2.115-4.66V19.685a2.235,2.235,0,0,0,1.334-1.37l1.495-4.364a7.542,7.542,0,0,0,1.579.832l5.406,2.071a1.241,1.241,0,0,0,.887,0l5.4-2.071a7.639,7.639,0,0,0,1.58-.827L127,18.315a2.241,2.241,0,0,0,1.334,1.37v8.684a6.154,6.154,0,0,1-.439,2.289.779.779,0,1,0,1.448.577,7.948,7.948,0,0,0,.55-3.2,7.088,7.088,0,0,0,4.177-6.471,3.286,3.286,0,0,0-1.119-2.47V15.253a9.224,9.224,0,0,0-4.116-7.682A7.619,7.619,0,0,0,121.5.007a.779.779,0,1,0-.063,1.557,6.085,6.085,0,0,1,1.925,11.763l-.382.146a4.756,4.756,0,0,0,.339-1.76V7.648a.779.779,0,1,0-1.558,0v4.065a3.257,3.257,0,0,1-2.08,3.024l0,0-1.606.615-1.607-.615,0,0a3.257,3.257,0,0,1-2.08-3.024V7.648a.779.779,0,1,0-1.558,0v4.065a4.754,4.754,0,0,0,.339,1.76l-.382-.146a6.12,6.12,0,0,1-3.909-5.683,6.085,6.085,0,0,1,6.086-6.085h2.876a.779.779,0,0,0,0-1.558h-2.876a7.641,7.641,0,0,0-7.642,7.572,9.207,9.207,0,0,0-3.359,4.018.779.779,0,1,0,1.426.629,7.665,7.665,0,0,1,2.131-2.854,7.725,7.725,0,0,0,1.861,3.487l-1.7,4.957a.676.676,0,0,1-.635.457h-1.666a3.292,3.292,0,0,0-.616.059V15.481a.779.779,0,1,0-1.558,0v3.608a3.286,3.286,0,0,0-1.119,2.47,7.083,7.083,0,0,0,4.178,6.471,7.8,7.8,0,0,0,2.647,6.172l2.3,2.014a2.351,2.351,0,0,0-.655,1.624v2.942l-2.07.625a.779.779,0,0,0,.45,1.492l1.835-.554L113.258,52.6a.779.779,0,0,0,1.515-.368l-1.759-7.247a12.743,12.743,0,0,0,10.108.005l-1.778,7.24a.779.779,0,1,0,1.514.372l2.518-10.258,6.935,2.1L131.1,47.332l-3.64.835a.779.779,0,0,0-.484,1.177l2.218,3.491A.779.779,0,0,0,130.512,52l-1.626-2.56,2.955-.678a.78.78,0,0,0,.545-.459l1.086-2.593a9.449,9.449,0,0,1,6.852,4.471l1.579,2.636a.779.779,0,0,0,1.337-.8ZM129.888,26.269V19.825h.884a1.737,1.737,0,0,1,1.735,1.735A5.532,5.532,0,0,1,129.888,26.269Zm-2.4-14.294a7.621,7.621,0,0,0,1.149-2.607,7.667,7.667,0,0,1,2.752,5.885v3.071a3.294,3.294,0,0,0-.616-.059h-1.666a.667.667,0,0,1-.388-.125.675.675,0,0,1-.247-.332l-1.695-4.948a7.681,7.681,0,0,0,.712-.886Zm-23.847,9.584a1.737,1.737,0,0,1,1.735-1.735h.884v6.444A5.528,5.528,0,0,1,103.641,21.559ZM122.8,43.428a11.191,11.191,0,0,1-9.452,0l-.8-.373-.433-1.785V37.841a.788.788,0,0,1,.274-.594l.851.745a5.43,5.43,0,0,0,3.574,1.343h2.527a5.431,5.431,0,0,0,3.574-1.343l.852-.746a.786.786,0,0,1,.273.6v3.426l-.44,1.791Z" transform="translate(-92.798 0)"/>
      <path id="Trazado_933226" data-name="Trazado 933226" d="M236.589,259.129a3.613,3.613,0,0,0,3.271,0,.779.779,0,1,0-.708-1.389,2.049,2.049,0,0,1-1.856,0,.779.779,0,1,0-.708,1.389Z" transform="translate(-212.948 -230.885)"/>
      <path id="Trazado_933227" data-name="Trazado 933227" d="M226.2,300.628a5.266,5.266,0,0,0,5.516,0,.779.779,0,0,0-.8-1.335,3.683,3.683,0,0,1-3.908,0,.779.779,0,0,0-.8,1.335Z" transform="translate(-203.682 -268.096)"/>
      <path id="Trazado_933228" data-name="Trazado 933228" d="M188.491,178.922a.779.779,0,0,0,.411-1.442,5.042,5.042,0,0,0-4.919,0,.779.779,0,1,0,.82,1.325,3.515,3.515,0,0,1,3.278,0A.776.776,0,0,0,188.491,178.922Z" transform="translate(-165.858 -158.466)"/>
      <path id="Trazado_933229" data-name="Trazado 933229" d="M278.816,178.922a.779.779,0,0,0,.411-1.442,5.042,5.042,0,0,0-4.919,0,.779.779,0,1,0,.821,1.325,3.516,3.516,0,0,1,3.278,0A.776.776,0,0,0,278.816,178.922Z" transform="translate(-246.799 -158.466)"/>
      <path id="Trazado_933230" data-name="Trazado 933230" d="M203.338,206.334v1.939a.779.779,0,0,0,1.559,0v-1.939a.779.779,0,0,0-1.559,0Z" transform="translate(-183.533 -184.198)"/>
      <path id="Trazado_933231" data-name="Trazado 933231" d="M293.664,206.334v1.939a.779.779,0,0,0,1.559,0v-1.939a.779.779,0,1,0-1.559,0Z" transform="translate(-264.474 -184.198)"/>
      <path id="Trazado_933232" data-name="Trazado 933232" d="M28.58,414.061l-3.64-.834-1.209-2.887,1.645-.5a.779.779,0,0,0-.45-1.492l-1.922.58a1.293,1.293,0,0,0-.92,1.185,10.92,10.92,0,0,0-7.671,5.158l-1.579,2.636a.779.779,0,1,0,1.337.8l1.579-2.636a9.437,9.437,0,0,1,6.824-4.466l1.083,2.587a.779.779,0,0,0,.545.459l2.955.677-1.627,2.56a.779.779,0,1,0,1.315.836l2.218-3.491a.779.779,0,0,0-.484-1.178Z" transform="translate(-12.722 -365.894)"/>
    </g>
  </g>
</svg>
