<svg xmlns="http://www.w3.org/2000/svg" width="43.528" height="58.076" viewBox="0 0 43.528 58.076">
  <g id="girl_6536847" transform="translate(-64.129)">
    <g id="Grupo_1132672" data-name="Grupo 1132672" transform="translate(64.98 0.851)">
      <path id="Trazado_933233" data-name="Trazado 933233" d="M144.37,39.346a29.371,29.371,0,0,1-.792-7.3V22.958a15.458,15.458,0,0,0-30.915,0V32.05a29.371,29.371,0,0,1-.792,7.3,3.451,3.451,0,0,0,2.114,4.107A67.3,67.3,0,0,0,127.211,46.6l.909-.084.909.084a67.291,67.291,0,0,0,13.226-3.146A3.451,3.451,0,0,0,144.37,39.346Z" transform="translate(-107.207 -7.5)" fill="#7a4646"/>
      <path id="Trazado_933234" data-name="Trazado 933234" d="M109.814,300.418l-9.391-3.315A3.637,3.637,0,0,1,98,293.674v-5.61H87.085v5.61a3.637,3.637,0,0,1-2.427,3.43l-9.391,3.315a5.456,5.456,0,0,0-3.64,5.145v4.324h41.827v-4.324A5.455,5.455,0,0,0,109.814,300.418Z" transform="translate(-71.627 -256.239)" fill="#e29a6c"/>
      <path id="Trazado_933235" data-name="Trazado 933235" d="M87.086,288.064v5.61a3.637,3.637,0,0,1-2.427,3.43l-9.391,3.315a5.456,5.456,0,0,0-3.64,5.145h2.728a2.728,2.728,0,0,1,1.82-2.572l9.391-3.314A6.377,6.377,0,0,0,89.6,295.3a2.48,2.48,0,0,1,.864-1.3,2.362,2.362,0,0,1,1.567-.487A14.375,14.375,0,0,0,98,292.445v-4.381H87.086Z" transform="translate(-71.628 -256.239)" fill="#d48c64"/>
      <path id="Trazado_933236" data-name="Trazado 933236" d="M74.356,388.993h39.1v-7.051a5.455,5.455,0,0,0-3.64-5.145l-7.317-2.582a34.113,34.113,0,0,1-7.948,7.269,3.681,3.681,0,0,1-4.019,0,34.094,34.094,0,0,1-7.951-7.269L75.268,376.8a5.455,5.455,0,0,0-3.64,5.145Z" transform="translate(-71.628 -332.618)" fill="#ff5f7a"/>
      <path id="Trazado_933237" data-name="Trazado 933237" d="M163.611,106.014A11.821,11.821,0,0,1,151.79,94.193v-2.18a6.365,6.365,0,0,1,2.665-5.179l4.312-3.08s2.05,2.554,8.469,2.6l-2.717-6.712,10.911,9.093v5.456A11.821,11.821,0,0,1,163.611,106.014Z" transform="translate(-142.697 -71.462)" fill="#f4aa73"/>
      <path id="Trazado_933238" data-name="Trazado 933238" d="M155.428,126.307v-2.728a3.637,3.637,0,0,1,1.455-2.91l3.576-2.682a4.007,4.007,0,0,1-1.69-2.12l-4.312,3.08a6.365,6.365,0,0,0-2.665,5.179v2.18a11.741,11.741,0,0,0,13.639,11.666A11.813,11.813,0,0,1,155.428,126.307Z" transform="translate(-142.698 -103.575)" fill="#e29a6c"/>
      <path id="Trazado_933239" data-name="Trazado 933239" d="M212.183,26.651V22.958A15.446,15.446,0,0,0,189.142,9.5C190.789,14.1,196.378,25.168,212.183,26.651Z" transform="translate(-175.812 -7.5)" fill="#845252"/>
      <path id="Trazado_933240" data-name="Trazado 933240" d="M76.176,379.379l8.337-2.942c-.643-.679-1.291-1.408-1.931-2.211l-7.313,2.581a5.456,5.456,0,0,0-3.64,5.145V389h2.728v-7.051A2.733,2.733,0,0,1,76.176,379.379Z" transform="translate(-71.629 -332.628)" fill="#fb4455"/>
    </g>
    <g id="Grupo_1132673" data-name="Grupo 1132673" transform="translate(64.129 0)">
      <path id="Trazado_933241" data-name="Trazado 933241" d="M201.254,184.371a.851.851,0,0,0-.851.851v.909a.851.851,0,1,0,1.7,0v-.909A.851.851,0,0,0,201.254,184.371Z" transform="translate(-184.945 -163.458)"/>
      <path id="Trazado_933242" data-name="Trazado 933242" d="M297.448,186.982a.851.851,0,0,0,.851-.851v-.909a.851.851,0,1,0-1.7,0v.909A.851.851,0,0,0,297.448,186.982Z" transform="translate(-270.228 -163.458)"/>
      <path id="Trazado_933243" data-name="Trazado 933243" d="M224.7,240.737a.851.851,0,0,0,.008,1.2,5.367,5.367,0,0,0,6.651,0,.851.851,0,0,0-1.195-1.211,3.749,3.749,0,0,1-4.261,0A.851.851,0,0,0,224.7,240.737Z" transform="translate(-206.266 -213.205)"/>
      <path id="Trazado_933244" data-name="Trazado 933244" d="M103.45,44.227l-9.391-3.315a2.782,2.782,0,0,1-1.326-.992,70.23,70.23,0,0,0,7.6-2.322,4.307,4.307,0,0,0,2.637-5.115A28.8,28.8,0,0,1,102.2,25.4V16.308a16.308,16.308,0,0,0-32.617,0V25.4a28.8,28.8,0,0,1-.765,7.083A4.307,4.307,0,0,0,71.457,37.6a70.257,70.257,0,0,0,7.6,2.322,2.782,2.782,0,0,1-1.326.992l-9.391,3.315a6.316,6.316,0,0,0-4.207,5.947v7.051a.851.851,0,1,0,1.7,0V50.174a4.588,4.588,0,0,1,.3-1.625l4.3,3.687a2.783,2.783,0,0,1,.973,2.116v2.874a.851.851,0,0,0,1.7,0V54.352a4.483,4.483,0,0,0-1.567-3.407L67.028,47.08A4.592,4.592,0,0,1,68.9,45.832l6.768-2.389a33.6,33.6,0,0,0,7.815,7.016,4.477,4.477,0,0,0,4.817,0,33.6,33.6,0,0,0,7.813-7.015l6.768,2.389a4.592,4.592,0,0,1,1.875,1.248l-4.509,3.865a4.482,4.482,0,0,0-1.567,3.407v2.874a.851.851,0,1,0,1.7,0V54.352a2.783,2.783,0,0,1,.973-2.116l4.3-3.687a4.585,4.585,0,0,1,.3,1.625v7.051a.851.851,0,1,0,1.7,0V50.174A6.316,6.316,0,0,0,103.45,44.227Zm-3.723-8.219A68.945,68.945,0,0,1,92.2,38.3c0-.005,0-.01,0-.015V34.57a12.679,12.679,0,0,0,6.365-10.988V20.61c.685.09,1.332.143,1.936.168V25.4a30.481,30.481,0,0,0,.818,7.508A2.608,2.608,0,0,1,99.727,36.008Zm-27.667,0a2.607,2.607,0,0,1-1.592-3.1,30.476,30.476,0,0,0,.819-7.508V16.308a14.607,14.607,0,0,1,29.214,0v2.766A22.75,22.75,0,0,1,87.928,14.3a26.554,26.554,0,0,1-4.984-4.857.851.851,0,0,0-1.376,1,27.7,27.7,0,0,0,5.288,5.178,27.422,27.422,0,0,0,4.056,2.563h-.473a.851.851,0,0,0,0,1.7h1.819a.85.85,0,0,0,.838-.71,23.284,23.284,0,0,0,3.767,1.141v3.265a10.97,10.97,0,0,1-21.939,0V21.4a5.525,5.525,0,0,1,2.309-4.487l3.151-2.251a33.98,33.98,0,0,0,4.081,3.709A.851.851,0,0,0,85.5,17.025,29.708,29.708,0,0,1,80,11.582a.851.851,0,0,0-1.376,1c.063.086.274.371.627.8l-3.01,2.15A7.23,7.23,0,0,0,73.222,21.4v2.18A12.679,12.679,0,0,0,79.587,34.57v3.715c0,.005,0,.01,0,.015a68.841,68.841,0,0,1-7.527-2.292ZM87.384,49.025a2.77,2.77,0,0,1-2.981,0,31.808,31.808,0,0,1-7.022-6.187l.912-.322a4.5,4.5,0,0,0,2.994-4.232v-2.9a12.671,12.671,0,0,0,9.21,0v2.9a4.5,4.5,0,0,0,2.994,4.232l.912.322a31.8,31.8,0,0,1-7.02,6.186Z" transform="translate(-64.129 0)"/>
      <path id="Trazado_933245" data-name="Trazado 933245" d="M195.056,160.323h-1.819a.851.851,0,0,0,0,1.7h1.819a.851.851,0,0,0,0-1.7Z" transform="translate(-177.839 -142.137)"/>
    </g>
  </g>
</svg>
