<svg id="heart" xmlns="http://www.w3.org/2000/svg" width="13.833" height="12.969" viewBox="0 0 13.833 12.969">
  <path id="Trazado_876649" data-name="Trazado 876649" d="M1.475,8.464a19.715,19.715,0,0,0,5.641,5.188,19.715,19.715,0,0,0,5.641-5.188H10.575a.432.432,0,0,1-.4-.271L8.914,5.044,7.532,9.88a.432.432,0,0,1-.817.042L5.291,6.362,4.018,8.272a.432.432,0,0,1-.36.192Z" transform="translate(-0.2 -0.683)" fill="#0f5ffe"/>
  <path id="Trazado_876650" data-name="Trazado 876650" d="M.761,6.917C-2.1,1.452,3.813-1.729,6.764.988q.078.072.152.148.073-.077.152-.147c2.953-2.718,8.863.463,6,5.928H10.666L9.046,2.865a.432.432,0,0,0-.817.042L6.848,7.743,5.589,4.594a.432.432,0,0,0-.761-.079l-1.6,2.4Z" transform="translate(0 0)" fill="#0f5ffe"/>
</svg>
