<svg xmlns="http://www.w3.org/2000/svg" width="75.075" height="51.729" viewBox="0 0 75.075 51.729">
  <path id="Trazado_934851" data-name="Trazado 934851" d="M38.85,43.695a41.469,41.469,0,0,1-1.418,11.5,23.553,23.553,0,0,1-3.92,8.067A15.851,15.851,0,0,1,27.6,68,17.532,17.532,0,0,1,20.23,69.56,17.3,17.3,0,0,1,12.9,68,15.785,15.785,0,0,1,7.035,63.26,23.522,23.522,0,0,1,3.15,55.193a41.959,41.959,0,0,1-1.4-11.5A41.915,41.915,0,0,1,3.15,32.18a23.533,23.533,0,0,1,3.885-8.05A15.785,15.785,0,0,1,12.9,19.388,17.3,17.3,0,0,1,20.23,17.83,17.532,17.532,0,0,1,27.6,19.388a15.851,15.851,0,0,1,5.915,4.743,23.564,23.564,0,0,1,3.92,8.05A41.426,41.426,0,0,1,38.85,43.695Zm-8.925,0a42.79,42.79,0,0,0-.805-9.1,18.307,18.307,0,0,0-2.153-5.74,7.853,7.853,0,0,0-3.1-2.993,8.175,8.175,0,0,0-3.64-.858,7.994,7.994,0,0,0-3.587.858,7.784,7.784,0,0,0-3.063,2.993,18.345,18.345,0,0,0-2.118,5.74,43.712,43.712,0,0,0-.787,9.1,43.712,43.712,0,0,0,.787,9.1,18.345,18.345,0,0,0,2.118,5.74,7.784,7.784,0,0,0,3.063,2.993,7.994,7.994,0,0,0,3.587.858,8.175,8.175,0,0,0,3.64-.858,7.853,7.853,0,0,0,3.1-2.993,18.307,18.307,0,0,0,2.153-5.74A42.79,42.79,0,0,0,29.925,43.695Zm46.9,18.83V69h-28V62.525H59.08V33.02q0-1.75.1-3.605l-7.28,6.09a3.009,3.009,0,0,1-1.243.612,2.972,2.972,0,0,1-1.155.017,2.8,2.8,0,0,1-.963-.368,2.035,2.035,0,0,1-.63-.577l-2.73-3.745L60.62,18.32h7.1V62.525Z" transform="translate(-1.75 -17.83)" fill="#fff"/>
</svg>
