<svg xmlns="http://www.w3.org/2000/svg" width="76.23" height="51.73" viewBox="0 0 76.23 51.73">
  <path id="Trazado_934852" data-name="Trazado 934852" d="M38.85,43.695a41.469,41.469,0,0,1-1.418,11.5,23.553,23.553,0,0,1-3.92,8.067A15.851,15.851,0,0,1,27.6,68,17.532,17.532,0,0,1,20.23,69.56,17.3,17.3,0,0,1,12.9,68,15.785,15.785,0,0,1,7.035,63.26,23.522,23.522,0,0,1,3.15,55.193a41.959,41.959,0,0,1-1.4-11.5A41.915,41.915,0,0,1,3.15,32.18a23.533,23.533,0,0,1,3.885-8.05A15.785,15.785,0,0,1,12.9,19.388,17.3,17.3,0,0,1,20.23,17.83,17.532,17.532,0,0,1,27.6,19.388a15.851,15.851,0,0,1,5.915,4.743,23.564,23.564,0,0,1,3.92,8.05A41.426,41.426,0,0,1,38.85,43.695Zm-8.925,0a42.79,42.79,0,0,0-.805-9.1,18.307,18.307,0,0,0-2.153-5.74,7.853,7.853,0,0,0-3.1-2.993,8.175,8.175,0,0,0-3.64-.858,7.994,7.994,0,0,0-3.587.858,7.784,7.784,0,0,0-3.063,2.993,18.345,18.345,0,0,0-2.118,5.74,43.712,43.712,0,0,0-.787,9.1,43.712,43.712,0,0,0,.787,9.1,18.345,18.345,0,0,0,2.118,5.74,7.784,7.784,0,0,0,3.063,2.993,7.994,7.994,0,0,0,3.587.858,8.175,8.175,0,0,0,3.64-.858,7.853,7.853,0,0,0,3.1-2.993,18.307,18.307,0,0,0,2.153-5.74A42.79,42.79,0,0,0,29.925,43.695ZM74.935,60.95a3.08,3.08,0,0,1,2.223.787,2.75,2.75,0,0,1,.822,2.083V69H43.26V66.13a5.15,5.15,0,0,1,.368-1.837A4.71,4.71,0,0,1,44.8,62.56l15.365-15.4q1.925-1.96,3.447-3.745A24.177,24.177,0,0,0,66.15,39.88a16.628,16.628,0,0,0,1.557-3.552,13.107,13.107,0,0,0,.543-3.8,8.991,8.991,0,0,0-.525-3.2A6.386,6.386,0,0,0,66.238,27a6.154,6.154,0,0,0-2.31-1.417A9.11,9.11,0,0,0,60.9,25.11a8.97,8.97,0,0,0-2.852.438A7.7,7.7,0,0,0,54,28.61a7.989,7.989,0,0,0-1.05,2.31,3.828,3.828,0,0,1-1.54,2.135,4.314,4.314,0,0,1-2.73.245l-4.55-.805a18.77,18.77,0,0,1,2.03-6.387,15.316,15.316,0,0,1,3.763-4.585,15.585,15.585,0,0,1,5.18-2.765,20.658,20.658,0,0,1,6.283-.928,19.01,19.01,0,0,1,6.4,1.033,14.4,14.4,0,0,1,4.97,2.923,13.229,13.229,0,0,1,3.22,4.55A14.7,14.7,0,0,1,77.14,32.25a15.761,15.761,0,0,1-.823,5.18,21.538,21.538,0,0,1-2.2,4.55,30.636,30.636,0,0,1-3.238,4.2q-1.855,2.03-3.885,4.13L55.58,61.965a25.91,25.91,0,0,1,3.273-.752,19.477,19.477,0,0,1,3.1-.263Z" transform="translate(-1.75 -17.83)" fill="#12263f"/>
</svg>
