<svg xmlns="http://www.w3.org/2000/svg" width="76.16" height="51.729" viewBox="0 0 76.16 51.729">
  <g id="Grupo_1128577" data-name="Grupo 1128577" transform="translate(-1285.197 -24422.424)">
    <path id="Trazado_934853" data-name="Trazado 934853" d="M38.85,43.695a41.469,41.469,0,0,1-1.418,11.5,23.553,23.553,0,0,1-3.92,8.067A15.851,15.851,0,0,1,27.6,68,17.532,17.532,0,0,1,20.23,69.56,17.3,17.3,0,0,1,12.9,68,15.785,15.785,0,0,1,7.035,63.26,23.522,23.522,0,0,1,3.15,55.193a41.959,41.959,0,0,1-1.4-11.5A41.915,41.915,0,0,1,3.15,32.18a23.533,23.533,0,0,1,3.885-8.05A15.785,15.785,0,0,1,12.9,19.388,17.3,17.3,0,0,1,20.23,17.83,17.532,17.532,0,0,1,27.6,19.388a15.851,15.851,0,0,1,5.915,4.743,23.564,23.564,0,0,1,3.92,8.05A41.426,41.426,0,0,1,38.85,43.695Zm-8.925,0a42.79,42.79,0,0,0-.805-9.1,18.307,18.307,0,0,0-2.153-5.74,7.853,7.853,0,0,0-3.1-2.993,8.175,8.175,0,0,0-3.64-.858,7.994,7.994,0,0,0-3.587.858,7.784,7.784,0,0,0-3.063,2.993,18.345,18.345,0,0,0-2.118,5.74,43.712,43.712,0,0,0-.787,9.1,43.712,43.712,0,0,0,.787,9.1,18.345,18.345,0,0,0,2.118,5.74,7.784,7.784,0,0,0,3.063,2.993,7.994,7.994,0,0,0,3.587.858,8.175,8.175,0,0,0,3.64-.858,7.853,7.853,0,0,0,3.1-2.993,18.307,18.307,0,0,0,2.153-5.74A42.79,42.79,0,0,0,29.925,43.695Zm14.455-11.2a18.77,18.77,0,0,1,2.03-6.387,15.316,15.316,0,0,1,3.763-4.585,15.585,15.585,0,0,1,5.18-2.765,20.658,20.658,0,0,1,6.283-.928,18.84,18.84,0,0,1,6.318,1,14.419,14.419,0,0,1,4.813,2.765,12.112,12.112,0,0,1,3.063,4.148,12.426,12.426,0,0,1,1.067,5.145,15.059,15.059,0,0,1-.543,4.252,10.11,10.11,0,0,1-1.557,3.2,9.2,9.2,0,0,1-2.52,2.31,15.683,15.683,0,0,1-3.395,1.575A13.219,13.219,0,0,1,75.67,46.6a11.834,11.834,0,0,1,2.24,7.385,15.22,15.22,0,0,1-1.4,6.685,14.364,14.364,0,0,1-3.78,4.882,16.472,16.472,0,0,1-5.512,2.993,21.385,21.385,0,0,1-6.632,1.015,22.632,22.632,0,0,1-6.65-.875A14.438,14.438,0,0,1,49,66.1a15.641,15.641,0,0,1-3.57-4.2,28.344,28.344,0,0,1-2.52-5.74l3.815-1.575a4.579,4.579,0,0,1,2.817-.333,2.73,2.73,0,0,1,1.908,1.417q.63,1.225,1.382,2.415a9.8,9.8,0,0,0,1.8,2.117A8.578,8.578,0,0,0,57.1,61.7a8.933,8.933,0,0,0,3.377.577,9.566,9.566,0,0,0,3.85-.717,8.362,8.362,0,0,0,2.747-1.873,7.678,7.678,0,0,0,1.645-2.572,7.927,7.927,0,0,0,.543-2.853,13.2,13.2,0,0,0-.385-3.307,4.9,4.9,0,0,0-1.61-2.538,8.746,8.746,0,0,0-3.517-1.645,25.37,25.37,0,0,0-6.142-.6V40.02a21.872,21.872,0,0,0,5.285-.6,9,9,0,0,0,3.343-1.557,5.277,5.277,0,0,0,1.732-2.4,9.269,9.269,0,0,0,.49-3.08,7.048,7.048,0,0,0-2-5.425,7.5,7.5,0,0,0-5.32-1.855,8.809,8.809,0,0,0-2.835.438,8.06,8.06,0,0,0-2.327,1.225A7.609,7.609,0,0,0,54.25,28.61a7.989,7.989,0,0,0-1.05,2.31,3.792,3.792,0,0,1-1.557,2.135,4.291,4.291,0,0,1-2.712.245Z" transform="translate(1283.447 24404.594)" fill="#fff"/>
  </g>
</svg>
